<svg width="16" height="16" viewBox="0 0 16 16" fill="none" xmlns="http://www.w3.org/2000/svg">
<path fill-rule="evenodd" clip-rule="evenodd" d="M7.22495 3H11.5157C11.6724 3 12.023 3 12.4077 3.02459C12.7751 3.04808 13.2499 3.09777 13.6206 3.22381C14.1058 3.38876 14.5972 3.67467 14.9707 4.12741C15.3522 4.58977 15.5778 5.18742 15.5778 5.90434C15.5778 6.926 15.1241 7.59778 14.612 8.03049C15.352 8.48345 16 9.27183 16 10.526C16 11.6964 15.2755 12.5394 14.6072 12.954C14.2163 13.1965 13.7124 13.3185 13.2171 13.3876C12.7053 13.4589 12.1203 13.4839 11.5134 13.4839H0V3H1.4674V12.0165H7.22495V3ZM8.69235 8.92322V12.0165H11.5134C12.0884 12.0165 12.5978 11.9923 13.0145 11.9342C13.4477 11.8738 13.7064 11.786 13.8336 11.7071C14.2016 11.4788 14.5326 11.0516 14.5326 10.526C14.5326 9.6359 13.9072 9.18604 13.2188 9.02649C12.8065 8.93093 12.046 8.92322 11.5134 8.92322H8.69235ZM8.69235 7.44915V4.4674H11.5134C11.6665 4.4674 11.9781 4.46753 12.3141 4.489C12.6691 4.5117 12.9756 4.55439 13.1483 4.6131C13.4378 4.71156 13.6762 4.86413 13.8388 5.06125C13.9935 5.24876 14.1104 5.51235 14.1104 5.90434C14.1104 6.67949 13.6004 7.03793 13.1092 7.23667C12.9146 7.31542 12.5899 7.37462 12.2363 7.40987C11.8997 7.44342 11.6053 7.44915 11.5134 7.44915H8.69235Z" fill="black"/>
</svg>
