<svg width="44" height="44" viewBox="0 0 44 44" fill="none" xmlns="http://www.w3.org/2000/svg">
<g clip-path="url(#clip0_279_139)">
<path d="M22 43.375C19.0871 43.375 16.3419 42.8301 13.7643 41.6985C11.1868 40.5879 8.90257 39.0371 6.93272 37.0673C4.96287 35.0974 3.43309 32.8342 2.30147 30.2566C1.19081 27.679 0.625001 24.9338 0.625001 22C0.625001 19.0871 1.19081 16.3419 2.30147 13.7643C3.43309 11.1868 4.96287 8.90257 6.93272 6.93272C8.90257 4.96287 11.1868 3.43309 13.7643 2.30147C16.3629 1.19081 19.1081 0.625 22.021 0.625C24.9548 0.625 27.7 1.19081 30.2776 2.30147C32.8551 3.43309 35.1184 4.96287 37.0882 6.93272C39.0581 8.90257 40.5879 11.1868 41.6985 13.7643C42.8301 16.3419 43.375 19.0871 43.375 22C43.375 24.9338 42.8301 27.679 41.6985 30.2566C40.5879 32.8342 39.0371 35.0974 37.0673 37.0673C35.0974 39.0371 32.8342 40.5879 30.2566 41.6985C27.679 42.8301 24.9338 43.375 22 43.375ZM22 39.8125C24.4728 39.8125 26.7989 39.3724 28.9364 38.4504C31.0949 37.5283 32.9809 36.25 34.6154 34.6154C36.25 32.9809 37.5074 31.0949 38.4294 28.9364C39.3515 26.7989 39.7915 24.4728 39.7915 22C39.7915 19.5272 39.3515 17.2221 38.4294 15.0636C37.5074 12.9261 36.25 11.0191 34.6154 9.38456C33.0018 7.75 31.1158 6.49265 28.9574 5.57059C26.8199 4.64853 24.4938 4.1875 22.021 4.1875C19.5482 4.1875 17.243 4.64853 15.0846 5.57059C12.9261 6.49265 11.0401 7.75 9.40552 9.38456C7.77096 11.0191 6.49265 12.9261 5.57059 15.0636C4.64853 17.2221 4.1875 19.5272 4.1875 22C4.1875 24.4728 4.64853 26.7989 5.57059 28.9364C6.49265 31.0949 7.77096 32.9809 9.40552 34.6154C11.0401 36.25 12.9261 37.5283 15.0636 38.4504C17.2221 39.3724 19.5272 39.8125 22 39.8125ZM26.9037 32.3732C26.6313 32.6456 26.254 32.7713 25.793 32.7504C25.332 32.7294 24.9548 32.5827 24.6614 32.3103L15.9438 24.0746C15.357 23.5298 15.0636 22.8592 15.0636 22.021C15.0636 21.1827 15.357 20.4912 15.9438 19.9463L24.6614 11.7107C24.9967 11.4173 25.3739 11.2706 25.793 11.2496C26.2121 11.2287 26.5893 11.3544 26.8827 11.6478C27.218 11.9621 27.3857 12.3393 27.3857 12.8004C27.4066 13.2614 27.2599 13.6176 26.9246 13.911L18.3118 22L26.9246 30.1099C27.239 30.4033 27.3857 30.7805 27.3857 31.2415C27.3857 31.7026 27.218 32.0798 26.9037 32.3732Z" fill="white"/>
</g>
<defs>
<clipPath id="clip0_279_139">
<rect width="44" height="44" fill="white"/>
</clipPath>
</defs>
</svg>
