<svg width="44" height="44" viewBox="0 0 44 44" fill="none" xmlns="http://www.w3.org/2000/svg">
<g clip-path="url(#clip0_275_133)">
<path d="M22 43.375C24.9129 43.375 27.6581 42.8301 30.2357 41.6985C32.8132 40.5879 35.0974 39.0371 37.0673 37.0673C39.0371 35.0974 40.5669 32.8342 41.6985 30.2566C42.8092 27.679 43.375 24.9338 43.375 22C43.375 19.0871 42.8092 16.3419 41.6985 13.7643C40.5669 11.1868 39.0371 8.90257 37.0673 6.93272C35.0974 4.96287 32.8132 3.43309 30.2357 2.30147C27.6371 1.19081 24.8919 0.625 21.979 0.625C19.0452 0.625 16.3 1.19081 13.7224 2.30147C11.1449 3.43309 8.88162 4.96287 6.91176 6.93272C4.94191 8.90257 3.41213 11.1868 2.30147 13.7643C1.16985 16.3419 0.625 19.0871 0.625 22C0.625 24.9338 1.16985 27.679 2.30147 30.2566C3.41213 32.8342 4.96287 35.0974 6.93272 37.0673C8.90257 39.0371 11.1658 40.5879 13.7434 41.6985C16.321 42.8301 19.0662 43.375 22 43.375ZM22 39.8125C19.5272 39.8125 17.2011 39.3724 15.0636 38.4504C12.9051 37.5283 11.0191 36.25 9.38456 34.6154C7.75 32.9809 6.49265 31.0949 5.57059 28.9364C4.64853 26.7989 4.20846 24.4728 4.20846 22C4.20846 19.5272 4.64853 17.2221 5.57059 15.0636C6.49265 12.9261 7.75 11.0191 9.38456 9.38456C10.9982 7.75 12.8842 6.49265 15.0426 5.57059C17.1801 4.64853 19.5062 4.1875 21.979 4.1875C24.4518 4.1875 26.757 4.64853 28.9154 5.57059C31.0739 6.49265 32.9599 7.75 34.5945 9.38456C36.229 11.0191 37.5074 12.9261 38.4294 15.0636C39.3515 17.2221 39.8125 19.5272 39.8125 22C39.8125 24.4728 39.3515 26.7989 38.4294 28.9364C37.5074 31.0949 36.229 32.9809 34.5945 34.6154C32.9599 36.25 31.0739 37.5283 28.9364 38.4504C26.7779 39.3724 24.4728 39.8125 22 39.8125ZM17.0963 32.3732C17.3687 32.6456 17.746 32.7713 18.207 32.7504C18.668 32.7294 19.0452 32.5827 19.3386 32.3103L28.0562 24.0746C28.643 23.5298 28.9364 22.8592 28.9364 22.021C28.9364 21.1827 28.643 20.4912 28.0562 19.9463L19.3386 11.7107C19.0033 11.4173 18.6261 11.2706 18.207 11.2496C17.7879 11.2287 17.4107 11.3544 17.1173 11.6478C16.782 11.9621 16.6143 12.3393 16.6143 12.8004C16.5934 13.2614 16.7401 13.6176 17.0754 13.911L25.6882 22L17.0754 30.1099C16.761 30.4033 16.6143 30.7805 16.6143 31.2415C16.6143 31.7026 16.782 32.0798 17.0963 32.3732Z" fill="white"/>
</g>
<defs>
<clipPath id="clip0_275_133">
<rect width="44" height="44" fill="white"/>
</clipPath>
</defs>
</svg>
