<svg width="25" height="8" viewBox="0 0 25 8" fill="none" xmlns="http://www.w3.org/2000/svg">
<path d="M1.36133 3.36328L10.6855 7.01367C11 7.13672 11.3418 7.25977 11.6973 7.38281C12.0527 7.50586 12.3809 7.56055 12.6816 7.56055C12.9824 7.56055 13.3105 7.50586 13.666 7.38281C14.0215 7.25977 14.3633 7.13672 14.6777 7.01367L24.002 3.36328C24.5762 3.14453 24.8633 2.74805 24.8633 2.20117C24.8633 1.80469 24.7266 1.47656 24.4668 1.20312C24.207 0.929688 23.8789 0.792969 23.4824 0.792969C23.2773 0.792969 23.0586 0.833984 22.8125 0.916016C22.5664 0.998047 22.3477 1.08008 22.1836 1.14844L12.6816 4.86719L3.16602 1.14844C2.98828 1.08008 2.7832 0.998047 2.53711 0.916016C2.29102 0.833984 2.07227 0.792969 1.86719 0.792969C1.4707 0.792969 1.14258 0.929688 0.882812 1.20312C0.609375 1.47656 0.486328 1.80469 0.486328 2.20117C0.486328 2.74805 0.773438 3.14453 1.36133 3.36328Z" fill="white"/>
</svg>
