<svg width="64" height="64" viewBox="0 0 64 64" fill="none" xmlns="http://www.w3.org/2000/svg">
<path d="M44.397 13.6765C44.2991 13.6147 44.1846 13.5821 44.0602 13.5807C43.9357 13.5794 43.804 13.6092 43.6728 13.6684C43.5416 13.7277 43.4136 13.8151 43.2964 13.9256C43.1791 14.0361 43.0751 14.1674 42.9905 14.3115L21.8078 50.3814C21.5752 50.8326 21.3626 51.2918 21.1712 51.7564C20.9467 52.3049 20.4834 53.4403 20.4834 53.4403L19.7132 55.3338C19.6912 55.3872 19.6838 55.4422 19.6923 55.4896C19.7008 55.5369 19.7247 55.5737 19.7599 55.5937C19.7951 55.6137 19.8394 55.6156 19.8854 55.5992C19.9314 55.5827 19.9762 55.549 20.0122 55.5035L21.2951 53.901C21.2951 53.901 22.0636 52.9389 22.4345 52.4735C22.7498 52.0752 23.0497 51.6617 23.3326 51.2353V51.2353L44.5102 15.1741C44.6768 14.8905 44.7584 14.574 44.7371 14.2935C44.7159 14.013 44.5937 13.7912 44.397 13.6765V13.6765Z" fill="white"/>
</svg>
