<svg width="64" height="64" viewBox="0 0 64 64" fill="none" xmlns="http://www.w3.org/2000/svg">
<rect x="14.5" y="20.5" width="35" height="35" rx="17.5" stroke="white"/>
<path d="M31.0435 31.8911C31.0435 32.6333 31.6372 33.2271 32.3794 33.2271C33.1309 33.2271 33.7061 32.6333 33.7061 31.8911C33.7061 31.1396 33.1309 30.5459 32.3794 30.5459C31.6372 30.5459 31.0435 31.1396 31.0435 31.8911ZM28.7427 44.1558C28.7427 44.6104 29.0674 44.9165 29.5591 44.9165H35.4316C35.9233 44.9165 36.248 44.6104 36.248 44.1558C36.248 43.7104 35.9233 43.4043 35.4316 43.4043H33.5669V36.3257C33.5669 35.8247 33.2422 35.4907 32.7598 35.4907H29.8188C29.3364 35.4907 29.0024 35.7876 29.0024 36.2329C29.0024 36.6968 29.3364 37.0029 29.8188 37.0029H31.8506V43.4043H29.5591C29.0674 43.4043 28.7427 43.7104 28.7427 44.1558Z" fill="white"/>
</svg>
