<svg width="64" height="64" viewBox="0 0 64 64" fill="none" xmlns="http://www.w3.org/2000/svg">
<path d="M23 11V10C23 9.73478 23.1054 9.48043 23.2929 9.29289C23.4804 9.10536 23.7348 9 24 9H52C52.2652 9 52.5196 9.10536 52.7071 9.29289C52.8946 9.48043 53 9.73478 53 10V52C53 52.2652 52.8946 52.5196 52.7071 52.7071C52.5196 52.8946 52.2652 53 52 53H45C44.9619 53.4101 44.8268 53.8053 44.606 54.1531C44.3852 54.5008 44.085 54.7911 43.73 55H52C52.7956 55 53.5587 54.6839 54.1213 54.1213C54.6839 53.5587 55 52.7956 55 52V10C55 9.20435 54.6839 8.44129 54.1213 7.87868C53.5587 7.31607 52.7956 7 52 7H24C23.2043 7 22.4413 7.31607 21.8787 7.87868C21.3161 8.44129 21 9.20435 21 10V11H23Z" fill="white"/>
<path d="M14.8787 12.8787C15.4413 12.3161 16.2043 12 17 12H41C41.7956 12 42.5587 12.3161 43.1213 12.8787C43.6839 13.4413 44 14.2044 44 15V52C44 52.7957 43.6839 53.5587 43.1213 54.1213C42.5587 54.6839 41.7956 55 41 55H32.0913C32.9844 54.4288 33.2595 53.8212 33.2595 53H41C41.2652 53 41.5196 52.8946 41.7071 52.7071C41.8946 52.5196 42 52.2652 42 52V15C42 14.7348 41.8946 14.4804 41.7071 14.2929C41.5196 14.1054 41.2652 14 41 14H17C16.7348 14 16.4804 14.1054 16.2929 14.2929C16.1054 14.4804 16 14.7348 16 15V21.0408H14V15C14 14.2044 14.3161 13.4413 14.8787 12.8787Z" fill="white"/>
<path fill-rule="evenodd" clip-rule="evenodd" d="M11.3829 22C10.1126 22 9.08289 23.0308 9.08289 24.3023V52.6976C9.08289 53.9692 10.1126 55 11.3829 55H29.7829C31.0532 55 32.0829 53.9692 32.0829 52.6977V24.3023C32.0829 23.0308 31.0532 22 29.7829 22H11.3829ZM30.0829 52.2564C30.0829 52.6671 29.7557 53 29.3521 53H11.8137C11.4101 53 11.0829 52.6671 11.0829 52.2564V24.7436C11.0829 24.3329 11.4101 24 11.8137 24H29.3522C29.7557 24 30.0829 24.3329 30.0829 24.7436V52.2564Z" fill="white"/>
</svg>
