<svg width="64" height="64" viewBox="0 0 64 64" fill="none" xmlns="http://www.w3.org/2000/svg">
<path d="M34.5028 10.5003C34.5028 10.7426 34.4065 10.975 34.2352 11.1463C34.0639 11.3177 33.8315 11.414 33.5892 11.414H29.4166C29.1743 11.414 28.9419 11.3177 28.7705 11.1464C28.5992 10.975 28.5029 10.7426 28.5029 10.5003C28.5029 10.258 28.5992 10.0256 28.7705 9.85422C28.9419 9.68287 29.1743 9.58661 29.4166 9.58661H33.5892C33.8315 9.58663 34.0639 9.68291 34.2352 9.85426C34.4065 10.0256 34.5028 10.258 34.5028 10.5003ZM34.0912 10.5003C34.0912 10.4113 34.0648 10.3243 34.0154 10.2503C33.9659 10.1763 33.8956 10.1186 33.8134 10.0846C33.7312 10.0505 33.6407 10.0416 33.5534 10.059C33.4661 10.0763 33.3859 10.1192 33.323 10.1821C33.2601 10.245 33.2172 10.3252 33.1998 10.4125C33.1825 10.4998 33.1914 10.5903 33.2254 10.6725C33.2595 10.7547 33.3172 10.825 33.3912 10.8745C33.4652 10.9239 33.5522 10.9503 33.6412 10.9503C33.7605 10.9503 33.875 10.9029 33.9594 10.8185C34.0438 10.7341 34.0912 10.6197 34.0912 10.5003ZM43.0028 12.8669V50.1337C43.0028 50.2325 43.0028 50.3304 43.0023 50.4277C43.0164 50.9892 42.9779 51.5509 42.8871 52.1052C42.8221 52.4511 42.7089 52.7861 42.5509 53.1006C42.2344 53.7249 41.7271 54.2321 41.1028 54.5485C40.7884 54.7065 40.4533 54.8197 40.1075 54.8845C39.7522 54.9492 39.3923 54.9849 39.0313 54.9913C38.7691 54.9994 38.4395 55.0003 38.1407 55.0003H37.9114H25.0939H24.7228C24.6241 55.0003 24.5261 55 24.4288 54.9993C24.0053 54.9997 23.5823 54.9721 23.1625 54.9169C23.0748 54.9046 22.9847 54.9015 22.8983 54.8847C22.5524 54.8199 22.2174 54.7067 21.903 54.5487C21.6216 54.4038 21.3626 54.2191 21.1339 54.0003C21.1112 53.979 21.0851 53.962 21.0631 53.9403C20.8174 53.6943 20.6121 53.411 20.4547 53.101C20.2967 52.7865 20.1835 52.4515 20.1185 52.1056C20.0275 51.5512 19.9888 50.9894 20.0028 50.4277C20.0028 50.3304 20.0028 50.2325 20.0028 50.1337V12.8669C20.0028 12.768 20.0028 12.6701 20.0028 12.5728C20.0035 12.381 20.0101 12.1909 20.0155 12.0004C20.0197 11.6299 20.0539 11.2603 20.118 10.8953C20.1832 10.5495 20.2965 10.2146 20.4547 9.90031C20.771 9.27578 21.2783 8.76845 21.9028 8.45211C22.2172 8.29407 22.5522 8.18096 22.8981 8.11611C23.2533 8.0514 23.6133 8.01569 23.9743 8.00931C24.2365 8.00121 24.5661 8.00031 24.8649 8.00031H25.0942H37.9117H38.0985H38.2828C38.3814 8.00031 38.4793 8.00031 38.577 8.00131C39.0894 7.99221 39.6016 8.03057 40.107 8.11591C40.4528 8.18077 40.7879 8.29387 41.1023 8.45191C41.727 8.76822 42.2345 9.27563 42.5509 9.90031C42.7089 10.2147 42.8221 10.5498 42.8871 10.8956C42.978 11.4498 43.0167 12.0114 43.0028 12.5728V12.8669ZM42.0028 12.8669V12.7181V12.5753C42.0163 12.0773 41.984 11.5792 41.9061 11.0871C41.859 10.8324 41.7763 10.5856 41.6605 10.354C41.4399 9.91789 41.0856 9.56369 40.6495 9.34311C40.4179 9.22727 40.1712 9.14463 39.9166 9.09761C39.4718 9.02502 39.0214 8.99285 38.5709 9.00151L38.2821 9.00031H38.0985H38.006H25.0939H24.9839H24.865C24.5764 9.00031 24.2583 9.00101 24.005 9.00881C23.6979 9.01327 23.3917 9.04297 23.0895 9.09761C22.8348 9.14466 22.588 9.22734 22.3563 9.34321C21.9204 9.5635 21.5663 9.91739 21.3458 10.3532C21.2298 10.5851 21.147 10.8321 21.1 11.0871C21.0479 11.3888 21.0196 11.6942 21.0155 12.0003C21.0096 12.1873 21.004 12.3735 21.0033 12.5761V12.724V12.8692V50.1337V50.2765V50.4252C20.9897 50.9232 21.0221 51.4213 21.1 51.9133C21.1471 52.1681 21.2297 52.4149 21.3456 52.6466C21.5661 53.0826 21.9201 53.4367 22.3561 53.6573C22.5878 53.7732 22.8347 53.8559 23.0895 53.903C23.1088 53.9068 23.1302 53.9066 23.1495 53.9101C23.5748 53.9752 24.0047 54.0049 24.4349 53.9991L24.723 54.0001H25.0936H38.0221H38.141C38.4296 54.0001 38.7477 53.9994 39.001 53.9916C39.3081 53.987 39.6143 53.9573 39.9165 53.9028C40.1712 53.8558 40.418 53.7731 40.6497 53.6572C41.0854 53.4365 41.4392 53.0824 41.6597 52.6466C41.7757 52.4148 41.8585 52.1677 41.9055 51.9128C41.9836 51.4207 42.0162 50.9224 42.0028 50.4243V50.2825V50.1312V12.8669Z" fill="white"/>
</svg>
