<svg width="64" height="64" viewBox="0 0 64 64" fill="none" xmlns="http://www.w3.org/2000/svg">
<rect x="16.5" y="23.5" width="31" height="31" rx="6.5" fill="white" stroke="white"/>
<path d="M26.1045 46.1992C29.0762 46.1992 30.8608 44.3564 30.8608 41.7998V34.6777C30.8608 34.2046 30.5703 33.9058 30.1138 33.9058C29.6572 33.9058 29.3667 34.2046 29.3667 34.6777V41.7002C29.3667 43.5098 28.1797 44.8213 26.1045 44.8213C24.0293 44.8213 22.8423 43.5098 22.8423 41.7002V34.6777C22.8423 34.2046 22.5518 33.9058 22.0952 33.9058C21.6387 33.9058 21.3481 34.2046 21.3481 34.6777V41.7998C21.3481 44.3564 23.1328 46.1992 26.1045 46.1992ZM33.5005 46.1162C33.7744 46.1162 33.9155 46.0249 34.1396 45.7095L37.3188 41.2271H37.377L40.5396 45.7344C40.7305 46.0083 40.9048 46.1162 41.187 46.1162C41.6021 46.1162 41.9507 45.8091 41.9507 45.4272C41.9507 45.2612 41.8926 45.0952 41.793 44.9541L38.3066 40.0649V40.0151L41.9009 35.0264C42.0171 34.8604 42.0669 34.7109 42.0669 34.5532C42.0669 34.1963 41.7432 33.9058 41.3364 33.9058C41.0542 33.9058 40.9131 34.0137 40.6973 34.3125L37.5015 38.8364H37.4434L34.3057 34.3457C34.0732 34.0054 33.9155 33.9058 33.625 33.9058C33.1934 33.9058 32.853 34.2129 32.853 34.603C32.853 34.769 32.8945 34.9185 33.019 35.0928L36.4722 39.9404V39.9985L32.936 44.9956C32.8281 45.1533 32.77 45.311 32.77 45.4688C32.77 45.8257 33.0938 46.1162 33.5005 46.1162Z" fill="black"/>
</svg>
