<svg width="64" height="64" viewBox="0 0 64 64" fill="none" xmlns="http://www.w3.org/2000/svg">
<path d="M60 53.3719V52.7544H54.9851V24.9653C54.979 24.4461 54.7715 23.9498 54.4071 23.5827C54.0427 23.2155 53.5502 23.0065 53.0348 23.0004H10.9096C10.6546 22.9952 10.4013 23.0429 10.1655 23.1405C9.92957 23.2382 9.71615 23.3837 9.53846 23.568C9.36077 23.7523 9.22261 23.9714 9.13257 24.2118C9.04253 24.4522 9.00254 24.7087 9.01508 24.9653V52.7544H4.00017V53.3719C3.99532 53.6522 4.09612 53.9239 4.28225 54.1323C4.46837 54.3407 4.72599 54.4702 5.00315 54.4947H7.34344L7.90065 55H11.2439L11.8011 54.4947H52.199L52.7005 55H56.0438L56.6567 54.4947H58.8298C59.1142 54.5011 59.3909 54.4015 59.6068 54.215C59.8228 54.0286 59.9628 53.7683 60 53.4842V53.3719ZM53.2577 52.7544H10.6867V25.1916C10.6867 24.8548 10.7982 24.6846 11.2439 24.6846H29.0747C29.0944 24.9758 29.2181 25.2501 29.423 25.4565C29.6279 25.6629 29.9 25.7876 30.1891 25.8074H33.5324C33.6811 25.8164 33.83 25.7936 33.9693 25.7403C34.1086 25.6871 34.235 25.6047 34.3404 25.4986C34.4457 25.3925 34.5275 25.265 34.5803 25.1247C34.6331 24.9844 34.6558 24.8344 34.6468 24.6846L52.7005 24.6302C53.1463 24.6302 53.2577 24.7425 53.2577 25.1916V52.7544Z" fill="white"/>
</svg>
