<svg width="104" height="104" viewBox="0 0 104 104" fill="none" xmlns="http://www.w3.org/2000/svg">
<path d="M34.6328 88.7168C35.9277 88.7168 36.8906 88.0527 38.4512 86.5918L50.4375 75.6348L72.8828 75.668C82.7773 75.7012 88.0898 70.1895 88.0898 60.4609V35.0273C88.0898 25.2988 82.7773 19.8203 72.8828 19.8203H30.1172C20.2227 19.8203 14.9102 25.2656 14.9102 35.0273V60.4609C14.9102 70.2227 20.2227 75.668 30.1172 75.6348H31.6777V85.2969C31.6777 87.3555 32.7402 88.7168 34.6328 88.7168ZM31.8438 46.9473C29.3203 46.9473 28.0586 45.7188 28.0586 43.2617V36.4551C28.0586 33.998 29.3203 32.8027 31.8438 32.8027H46.8516C49.3086 32.8027 50.5703 33.998 50.5703 36.4551V43.2617C50.5703 45.7188 49.3086 46.9473 46.8516 46.9473H31.8438ZM60.1328 60.6602C57.6426 60.6602 56.3809 59.4648 56.3809 56.9414V38.8125C56.3809 36.3555 57.6426 35.127 60.1328 35.127H70.791C73.2812 35.127 74.5098 36.3555 74.5098 38.8125V56.9414C74.5098 59.4648 73.2812 60.6602 70.791 60.6602H60.1328ZM35.9609 62.6855C33.5039 62.6855 32.2754 61.4902 32.2754 59V54.3848C32.2754 51.8945 33.5039 50.666 35.9609 50.666H48.877C51.334 50.666 52.5625 51.8945 52.5625 54.3848V59C52.5625 61.4902 51.334 62.6855 48.877 62.6855H35.9609Z" fill="#60C9F8"/>
</svg>
