<svg width="104" height="104" viewBox="0 0 104 104" fill="none" xmlns="http://www.w3.org/2000/svg">
<path d="M52 86.791C70.5273 86.791 85.8672 71.418 85.8672 52.9238C85.8672 34.3965 70.4941 19.0566 51.9668 19.0566C33.4727 19.0566 18.1328 34.3965 18.1328 52.9238C18.1328 71.418 33.5059 86.791 52 86.791ZM52.7305 75.1367C50.9707 75.1367 50.4395 73.7422 49.8418 71.8164L46.7539 61.7559C46.4219 60.4277 46.4883 59.7969 47.252 59.0332L66.7422 38.0156C66.9746 37.75 66.9746 37.4512 66.7422 37.252C66.543 37.1191 66.2773 37.0527 66.0117 37.2852L45.0938 56.9082C44.2637 57.6387 43.5996 57.6387 42.3711 57.2734L32.0117 54.1523C30.1523 53.5879 28.8574 52.9902 28.8574 51.2637C28.8574 49.8691 30.0859 48.873 31.6797 48.3086L64.584 35.6914C65.4805 35.3594 66.2109 35.1602 66.875 35.1602C68.1035 35.1602 68.834 35.9238 68.834 37.1523C68.834 37.8164 68.668 38.5469 68.3359 39.4434L55.8184 72.1816C55.1211 74.0078 54.125 75.1367 52.7305 75.1367Z" fill="#2AF5E9"/>
</svg>
