<svg width="104" height="104" viewBox="0 0 104 104" fill="none" xmlns="http://www.w3.org/2000/svg">
<path d="M31.3457 82.6406H71.6211C78.5938 82.6406 82.0469 79.1875 82.0469 72.3477V31.8066C82.0469 24.9668 78.5938 21.5137 71.6211 21.5137H31.3457C24.4062 21.5137 20.9199 24.9336 20.9199 31.8066V72.3477C20.9199 79.2207 24.4062 82.6406 31.3457 82.6406ZM37.8203 32.8027C39.6133 32.8027 40.9746 33.832 41.8047 35.3594C42.6348 33.832 44.0293 32.8027 45.7227 32.8027C48.5449 32.8027 50.5703 34.9609 50.5703 37.8496C50.5703 42.166 46.0215 46.1836 42.668 48.2754C42.3359 48.4414 42.0703 48.6406 41.8379 48.6406C41.6387 48.6406 41.3066 48.4746 41.0078 48.2754C37.7207 45.9512 33.0723 42.166 33.0723 37.8496C33.0723 34.9609 35.0645 32.8027 37.8203 32.8027ZM35.1641 58.3027C33.9355 58.3027 33.0723 57.4062 33.0723 56.2441C33.0723 55.1152 33.9355 54.2188 35.1641 54.2188H67.8691C69.0312 54.2188 69.8945 55.1152 69.8945 56.2441C69.8945 57.4062 69.0312 58.3027 67.8691 58.3027H35.1641ZM35.1641 69.6582C33.9355 69.6582 33.0723 68.7617 33.0723 67.6328C33.0723 66.4707 33.9355 65.5742 35.1641 65.5742H59.1035C60.2988 65.5742 61.1621 66.4707 61.1621 67.6328C61.1621 68.7617 60.2988 69.6582 59.1035 69.6582H35.1641Z" fill="#FC3E39"/>
</svg>
