<svg width="104" height="104" viewBox="0 0 104 104" fill="none" xmlns="http://www.w3.org/2000/svg">
<path d="M57.2793 87.6211H66.7422C69.3652 87.6211 70.8262 86.127 70.8262 83.5371V35.5254L76.4375 84.168C76.7363 86.7578 78.2969 88.1191 80.9531 87.7871L91.8438 86.2266C94.4668 85.8945 95.6953 84.3008 95.4297 81.7109L89.0547 26.627C88.7559 24.0039 87.1953 22.6426 84.5391 23.0078L73.6484 24.5684C72.3867 24.7344 71.4238 25.1992 70.8262 25.9297V18.2598C70.8262 15.6367 69.3652 14.1426 66.7422 14.1426H57.2793C54.623 14.1426 53.1621 15.6367 53.1621 18.2598V83.5371C53.1621 86.127 54.623 87.6211 57.2793 87.6211ZM12.5879 87.6211H18.8633C21.4863 87.6211 22.9473 86.127 22.9473 83.5371V27.457C22.9473 24.834 21.4863 23.3398 18.8633 23.3398H12.5879C9.93164 23.3398 8.50391 24.834 8.50391 27.457V83.5371C8.50391 86.127 9.93164 87.6211 12.5879 87.6211ZM30.916 87.6211H45.2266C47.8828 87.6211 49.3105 86.127 49.3105 83.5371V38.7793C49.3105 36.1895 47.8828 34.6953 45.2266 34.6953H30.916C28.2598 34.6953 26.7988 36.1895 26.7988 38.7793V83.5371C26.7988 86.127 28.2598 87.6211 30.916 87.6211ZM34.0703 46.5488C32.875 46.5488 31.9785 45.6523 31.9785 44.4902C31.9785 43.3613 32.875 42.4648 34.0703 42.4648H42.1055C43.2676 42.4648 44.1641 43.3613 44.1641 44.4902C44.1641 45.6523 43.2676 46.5488 42.1055 46.5488H34.0703ZM34.0703 79.8848C32.875 79.8848 31.9785 78.9883 31.9785 77.8262C31.9785 76.6973 32.875 75.8008 34.0703 75.8008H42.1055C43.2676 75.8008 44.1641 76.6973 44.1641 77.8262C44.1641 78.9883 43.2676 79.8848 42.1055 79.8848H34.0703Z" fill="#FD9526"/>
</svg>
