<svg width="104" height="104" viewBox="0 0 104 104" fill="none" xmlns="http://www.w3.org/2000/svg">
<path d="M52 85.8945C70.4941 85.8945 85.8672 70.5547 85.8672 52.0273C85.8672 33.5332 70.4609 18.1602 51.9668 18.1602C34.7012 18.1602 20.2578 31.5078 18.3652 48.3418C19.6602 48.0762 21.0215 47.9434 22.416 47.9434C32.543 47.9434 41.1094 55.1484 43.2344 64.3789C45.8574 63.7148 48.7793 63.3496 51.9668 63.3496C61.9941 63.3496 69.6973 67.0684 72.9512 70.9531C67.9707 76.6309 60.2344 80.3164 51.9668 80.3164C48.5801 80.3164 44.8945 79.6523 41.7402 78.3574C41.3086 79.5859 40.1465 81.4453 38.7188 83.1055C42.8359 84.9316 47.2852 85.8945 52 85.8945ZM51.9668 57.7051C45.5586 57.6387 40.6113 52.3262 40.5781 45.1875C40.5117 38.4805 45.5918 32.9023 51.9668 32.9023C58.3086 32.9023 63.3555 38.4805 63.3555 45.1875C63.3555 52.3262 58.3418 57.7715 51.9668 57.7051ZM22.416 86.2598C31.5469 86.2598 39.2832 78.623 39.2832 69.3926C39.2832 60.1289 31.6797 52.5254 22.416 52.5254C13.1855 52.5254 5.54883 60.1621 5.54883 69.3926C5.54883 78.6895 13.1855 86.2598 22.416 86.2598ZM20.3906 79.3203C19.8594 79.3203 19.1621 79.0879 18.7305 78.623L12.3887 71.6172C12.123 71.3848 11.957 70.7539 11.957 70.2891C11.957 69.0938 12.8867 68.1973 14.0156 68.1973C14.7461 68.1973 15.2773 68.5293 15.6094 68.9277L20.3242 74.0078L29.0566 61.8555C29.4551 61.3242 30.0527 60.9258 30.8164 60.9258C31.9121 60.9258 32.9082 61.8223 32.9082 62.9844C32.9082 63.3496 32.7422 63.8145 32.4434 64.2461L22.1504 78.5566C21.8184 79.0215 21.1211 79.3203 20.3906 79.3203Z" fill="#F71B53"/>
</svg>
