<svg width="104" height="104" viewBox="0 0 104 104" fill="none" xmlns="http://www.w3.org/2000/svg">
<path d="M43.7305 18.2266C46.6191 18.2266 48.9434 15.9023 48.9434 13.0137C48.9434 10.1914 46.6191 7.83398 43.7305 7.83398C40.9082 7.83398 38.5508 10.1914 38.5508 13.0137C38.5508 15.9023 40.9082 18.2266 43.7305 18.2266ZM75.4395 18.2266C78.3281 18.2266 80.6523 15.9023 80.6523 13.0137C80.6523 10.1914 78.3281 7.83398 75.4395 7.83398C72.6172 7.83398 70.293 10.1914 70.293 13.0137C70.293 15.9023 72.6172 18.2266 75.4395 18.2266ZM27.4609 33.334C30.416 33.334 32.6738 31.0098 32.6738 28.1211C32.6738 25.2656 30.416 22.9414 27.4609 22.9414C24.6387 22.9414 22.3477 25.2656 22.3477 28.1211C22.3477 31.0098 24.6387 33.334 27.4609 33.334ZM60.166 33.334C63.0547 33.334 65.3789 31.0098 65.3789 28.1211C65.3789 25.2656 63.0547 22.9414 60.166 22.9414C57.3105 22.9414 54.9863 25.2656 54.9863 28.1211C54.9863 31.0098 57.3105 33.334 60.166 33.334ZM75.4395 33.334C78.3281 33.334 80.6523 31.0098 80.6523 28.1211C80.6523 25.2656 78.3281 22.9414 75.4395 22.9414C72.6172 22.9414 70.293 25.2656 70.293 28.1211C70.293 31.0098 72.6172 33.334 75.4395 33.334ZM55.252 92.7676C69.6621 92.7676 77.7637 83.7363 77.7637 68.2969V61.9219C77.7637 56.0781 74.9746 52.5254 71.7871 52.5254C71.0566 52.5254 70.6914 52.9238 70.6914 53.5879V56.4102C70.6914 57.7715 69.9941 58.4023 69.1973 58.4023C68.334 58.4023 67.6699 57.7715 67.6699 56.4102V54.5508C67.6699 51.1309 65.4453 48.873 62.4902 48.873C61.1289 48.873 60.5312 49.4375 60.5312 50.5664V54.418C60.5312 55.7793 59.8672 56.4102 59.0703 56.4102C58.207 56.4102 57.5098 55.7793 57.5098 54.418V50.8652C57.5098 47.0137 55.2852 45.1875 52.3965 45.1875C51.1348 45.1875 50.4375 45.7852 50.4375 46.8809V54.418C50.4375 55.7793 49.7734 56.4102 48.9766 56.4102C48.1133 56.4102 47.416 55.7793 47.416 54.418V29.2168C47.416 26.7598 45.8223 25.166 43.7305 25.166C41.5059 25.166 39.9785 26.7598 39.9785 29.2168V66.1055C39.9785 67.0352 39.3809 67.5 38.8164 67.5C38.252 67.5 37.7871 67.168 37.3887 66.2715L32.5078 54.7168C31.7773 53.0234 30.6816 52.293 29.1875 52.293C26.8965 52.293 25.4355 53.8535 25.4355 55.7461C25.4355 56.4766 25.6016 57.1074 25.7676 57.6387L31.1465 73.6758C35.7285 87.2227 44.6602 92.7676 55.252 92.7676Z" fill="#25DC76"/>
</svg>
