<svg width="104" height="104" viewBox="0 0 104 104" fill="none" xmlns="http://www.w3.org/2000/svg">
<path d="M52 85.9277C70.5273 85.9277 85.8672 70.5879 85.8672 52.0605C85.8672 33.5664 70.4941 18.1934 51.9668 18.1934C33.4727 18.1934 18.1328 33.5664 18.1328 52.0605C18.1328 70.5879 33.5059 85.9277 52 85.9277ZM60.7324 50.3672C57.1465 50.3672 54.0918 47.1133 54.0586 42.9629C54.0586 38.9453 57.1465 35.791 60.7324 35.791C64.2852 35.791 67.373 38.8457 67.373 42.9297C67.373 47.1133 64.3184 50.3672 60.7324 50.3672ZM41.541 50.6992C38.4199 50.6992 35.7305 47.9102 35.7305 44.291C35.6973 40.7715 38.4531 38.0488 41.541 38.0488C44.6289 38.0488 47.3184 40.7051 47.3184 44.2578C47.3184 47.9102 44.6289 50.6992 41.541 50.6992ZM32.2109 65.7734C30.1191 65.7734 29.2891 64.9102 29.2891 63.3828C29.2891 58.8008 34.0039 53.2559 41.541 53.2559C44.5957 53.2559 46.9863 54.1855 48.8789 55.4141C45.293 58.1699 43.168 63.25 44.8945 65.7734H32.2109ZM50.2734 65.7734C47.6172 65.7734 46.6543 64.9766 46.6543 63.5488C46.6543 59.2324 52.0664 53.3223 60.7324 53.3223C69.3652 53.3223 74.7441 59.2324 74.7441 63.5488C74.7441 64.9766 73.8145 65.7734 71.1582 65.7734H50.2734Z" fill="#797EFC"/>
</svg>
