<svg width="980" height="379" viewBox="0 0 980 379" fill="none" xmlns="http://www.w3.org/2000/svg">
<g clip-path="url(#clip0_273_1116)">
<path d="M0.5 33.6085C0.5 22.0298 0.5 16.2405 2.82469 11.8499C4.70069 8.30675 7.59825 5.40919 11.1414 3.53318C15.532 1.2085 21.3213 1.2085 32.9 1.2085H947.1C958.679 1.2085 964.468 1.2085 968.859 3.53318C972.402 5.40919 975.299 8.30675 977.175 11.8499C979.5 16.2405 979.5 22.0298 979.5 33.6085V345.809C979.5 357.387 979.5 363.177 977.175 367.567C975.299 371.11 972.402 374.008 968.859 375.884C964.468 378.209 958.679 378.208 947.1 378.208H32.9C21.3213 378.208 15.532 378.209 11.1414 375.884C7.59825 374.008 4.70069 371.11 2.82469 367.567C0.5 363.177 0.5 357.387 0.5 345.809V33.6085Z" fill="black"/>
</g>
<defs>
<clipPath id="clip0_273_1116">
<rect width="980" height="377.996" fill="white" transform="translate(0 0.708496)"/>
</clipPath>
</defs>
</svg>
