<svg width="80" height="50" viewBox="0 0 80 50" fill="none" xmlns="http://www.w3.org/2000/svg">
<rect width="80" height="50" fill="black"/>
<path d="M34.1285 15.8264V26.6806L39.1591 28.4376V14.07L39.9966 13.7771L40.8348 14.0654V28.4329L45.867 26.676V15.8217L47.5433 16.4068V26.0909L52.5744 24.3345V16.3855L50.9027 15.7987V23.1407L49.2196 23.7339V15.2211L44.1884 13.4647V25.4903L42.5168 26.0748V12.8779L39.9966 12L37.4811 12.8779V26.0742L35.8048 25.4897V13.4647L30.7737 15.2211V23.7339L29.0974 23.1471V15.805L27.4258 16.3918V24.3391L32.458 26.0955V16.4114L34.1285 15.8264Z" fill="#FF0000"/>
<path d="M18.7267 37.9687V37.2781H14.7684V35.5523H17.3324V34.8606H14.7684V33.3584H18.5919V32.6649H14V37.9698L18.7267 37.9687ZM34.9971 35.8555C34.9971 36.8026 34.3631 37.4303 33.4385 37.4303C32.5335 37.4303 31.9686 36.7951 31.9686 35.8555V32.6782H31.2019V35.8912C31.2019 37.3369 32.2464 38.1255 33.4327 38.1255C35.1874 38.1255 35.7575 36.9276 35.7575 35.8912V32.6782H34.9977L34.9971 35.8555ZM40.0277 32.6644H40.7886V37.9687H40.0277V32.6644ZM46.1159 32.6644H45.3626V37.9687H46.1234V33.778L49.8945 37.9687H50.6438V32.6644H49.8852V36.8147L46.1159 32.6644ZM55.2553 32.6644H56.0162V37.9687H55.2553V32.6644ZM62.8602 35.6065L64.9451 37.9675H66L63.4193 35.0854L65.6282 32.6528H64.6886L62.9363 34.5591L61.23 32.6528H60.2299L62.3604 35.0854L59.6956 37.9675H60.6686L62.8602 35.6065ZM24.5159 32.4493C22.9353 32.4597 21.7173 33.6564 21.7173 35.3315V35.3523C21.7173 37.0107 22.9653 38.1785 24.5343 38.1676C24.9632 38.1621 25.3855 38.0621 25.7713 37.8747L26.2037 38.3722L27.0885 38.3716L26.3316 37.5041C26.9519 37.0314 27.3421 36.2532 27.3421 35.2917V35.271C27.3421 33.6224 26.0901 32.4442 24.5159 32.4557V32.4493ZM26.5495 35.3131C26.5495 36.0624 26.3074 36.5501 25.8647 36.9674L25.4526 36.4901L24.5695 36.4884L25.2935 37.3185C25.1165 37.4049 24.7977 37.473 24.5441 37.4741C23.4085 37.4816 22.5053 36.5651 22.5053 35.3194L22.5047 35.2998C22.5047 34.0316 23.3509 33.1347 24.4934 33.1284C25.6347 33.1192 26.5443 34.0311 26.5443 35.2917L26.5495 35.3131Z" fill="white"/>
</svg>
