<svg width="80" height="50" viewBox="0 0 80 50" fill="none" xmlns="http://www.w3.org/2000/svg">
<rect width="80" height="50" fill="black"/>
<path fill-rule="evenodd" clip-rule="evenodd" d="M49.0194 23.018C48.7494 22.8709 48.4494 22.8121 48.1193 22.8121C46.6493 22.8121 45.8993 23.6653 45.9293 25.3719C45.9293 26.2252 46.1093 26.8725 46.4993 27.3139C46.8593 27.7552 47.4293 27.9612 48.1493 27.9612C48.8094 27.9612 49.3194 27.7846 49.7094 27.4315C50.0694 27.0785 50.2794 26.5488 50.2794 25.8721V20.5464C50.2794 20.4582 50.2494 20.3699 50.1894 20.311C50.1294 20.2522 50.0394 20.2228 49.9494 20.2228C49.8594 20.2228 49.7694 20.2522 49.7094 20.311C49.6494 20.3699 49.6194 20.4582 49.6194 20.5464V23.5182C49.4694 23.3123 49.2894 23.1651 49.0194 23.018ZM49.5894 24.4009V25.8721C49.5894 26.3429 49.4694 26.7254 49.1994 26.9902C48.9294 27.255 48.5994 27.3727 48.1493 27.3727C47.1293 27.3727 46.6193 26.696 46.6193 25.4013C46.6193 24.1067 47.1293 23.4594 48.1493 23.4594C48.3294 23.4594 48.5094 23.4594 48.6894 23.5476C48.7269 23.566 48.7631 23.5832 48.7977 23.5995C48.9292 23.6617 49.0381 23.7132 49.1094 23.783C49.1994 23.8713 49.2894 23.9596 49.3794 24.0773C49.4311 24.1449 49.463 24.2028 49.4865 24.2454C49.5038 24.277 49.5166 24.3001 49.5294 24.3127C49.5594 24.3421 49.5894 24.3715 49.5894 24.4009Z" fill="white"/>
<path d="M26.549 23.8419H26.939V27.5787C26.939 27.667 26.999 27.7552 27.059 27.8141C27.119 27.8729 27.209 27.9024 27.299 27.9024C27.389 27.9024 27.479 27.8729 27.539 27.8141C27.629 27.7552 27.659 27.667 27.659 27.5787V23.8419H28.679C28.769 23.8419 28.859 23.8125 28.919 23.7536C28.979 23.6948 29.009 23.6065 29.009 23.5182C29.009 23.43 28.979 23.3417 28.919 23.2829C28.859 23.224 28.769 23.1946 28.679 23.1946H27.659V22.2825C27.659 21.9 27.749 21.6057 27.959 21.3998C28.139 21.1938 28.439 21.0761 28.859 21.0761C28.949 21.0761 29.039 21.0467 29.099 20.9878C29.159 20.929 29.189 20.8407 29.189 20.7524C29.189 20.6642 29.159 20.5759 29.099 20.517C29.039 20.4582 28.949 20.4288 28.859 20.4288C28.229 20.4288 27.749 20.6053 27.419 20.9584C27.089 21.3115 26.939 21.7528 26.939 22.2825V23.1946H26.549C26.459 23.1946 26.369 23.224 26.309 23.2829C26.249 23.3417 26.219 23.43 26.219 23.5182C26.219 23.6065 26.249 23.6948 26.309 23.7536C26.369 23.8125 26.459 23.8419 26.549 23.8419Z" fill="white"/>
<path d="M30.8991 23.6948V23.224C30.8991 23.1358 30.8691 23.0475 30.8091 22.9886C30.7491 22.9298 30.6591 22.9004 30.5691 22.9004C30.4791 22.9004 30.3891 22.9298 30.3291 22.9886C30.2691 23.0475 30.2391 23.1358 30.2391 23.224V27.5787C30.2391 27.667 30.2691 27.7553 30.3291 27.8141C30.3891 27.8729 30.4791 27.9024 30.5691 27.9024C30.6591 27.9024 30.7491 27.8729 30.8091 27.8141C30.8691 27.7553 30.8991 27.667 30.8991 27.5787V25.166C30.8991 24.6658 31.0191 24.2539 31.2891 23.9596C31.5591 23.6654 31.9491 23.5183 32.4291 23.5183C32.5191 23.5183 32.6091 23.4594 32.6691 23.4006C32.7291 23.3417 32.7591 23.2534 32.7591 23.1652C32.7591 23.0769 32.7291 22.9886 32.6691 22.9298C32.6091 22.8709 32.5191 22.8415 32.4291 22.8415C32.0391 22.8415 31.7391 22.9298 31.4691 23.0769C31.1991 23.224 31.0191 23.43 30.8991 23.6948Z" fill="white"/>
<path d="M33.8691 21.8705C33.5991 21.8705 33.4491 21.7234 33.4491 21.4586C33.4491 21.1643 33.5991 21.0172 33.8691 21.0172C34.1391 21.0172 34.2891 21.1643 34.2891 21.4586C34.2891 21.7528 34.1391 21.8705 33.8691 21.8705Z" fill="white"/>
<path d="M34.2291 23.224V27.5787C34.2291 27.6669 34.1991 27.7552 34.1391 27.814C34.0791 27.8729 33.9891 27.9023 33.8991 27.9023C33.8091 27.9023 33.7191 27.8729 33.6591 27.814C33.5991 27.7552 33.5691 27.6669 33.5691 27.5787V23.224C33.5691 23.1357 33.5991 23.0474 33.6591 22.9886C33.7191 22.9297 33.8091 22.9003 33.8991 22.9003C33.9891 22.9003 34.0791 22.9297 34.1391 22.9886C34.1447 22.9995 34.1513 23.0115 34.1584 23.0243C34.1894 23.0803 34.2291 23.1521 34.2291 23.224Z" fill="white"/>
<path fill-rule="evenodd" clip-rule="evenodd" d="M35.9991 23.4888C35.6091 23.9596 35.3991 24.5775 35.3991 25.4013C35.3991 26.2546 35.5791 26.9019 35.9991 27.2845C36.4191 27.7258 36.9891 27.9318 37.7391 27.9318C38.4591 27.9318 39.0292 27.7552 39.4492 27.3433C39.5392 27.2845 39.5692 27.1668 39.5692 27.1079C39.5692 27.0491 39.5392 26.9608 39.4792 26.9019C39.4192 26.8431 39.3592 26.8137 39.2692 26.8137C39.1792 26.8137 39.1192 26.8431 39.0592 26.8725C38.6391 27.1962 38.1891 27.3433 37.7391 27.3433C37.2291 27.3433 36.8391 27.1962 36.5391 26.8725C36.2391 26.5783 36.0891 26.1369 36.0891 25.6073H39.3592C39.4492 25.6073 39.5392 25.5779 39.5992 25.5485C39.6592 25.519 39.6892 25.4602 39.7192 25.3719C39.7192 25.3233 39.7283 25.2837 39.7364 25.248C39.7431 25.2189 39.7492 25.1924 39.7492 25.166V24.9306C39.7492 24.7765 39.7263 24.6448 39.7005 24.4964L39.6892 24.4304C39.6592 24.2538 39.5992 24.0773 39.5092 23.8713C39.4192 23.6654 39.2992 23.4888 39.1492 23.3417C38.9992 23.1946 38.8191 23.0475 38.5491 22.9592C38.2791 22.8709 37.9791 22.8121 37.6491 22.8121C36.9591 22.8121 36.3891 23.0475 35.9991 23.4888ZM37.6191 23.43C38.5491 23.43 39.0292 23.9596 39.0292 24.9894H36.0891C36.1191 24.4892 36.2691 24.1067 36.5391 23.8419C36.7791 23.5771 37.1391 23.43 37.6191 23.43Z" fill="white"/>
<path d="M42.8693 22.8121C44.2193 22.8121 44.8793 23.43 44.8793 24.7246V27.5787C44.8793 27.667 44.8493 27.7552 44.7893 27.8141C44.7293 27.8729 44.6393 27.9023 44.5493 27.9023C44.4593 27.9023 44.3693 27.8729 44.3093 27.8141C44.2493 27.7552 44.2193 27.667 44.2193 27.5787V24.8423C44.2193 24.3715 44.1293 24.0184 43.9493 23.7831C43.7693 23.5477 43.4093 23.43 42.9293 23.43C41.9693 23.43 41.4893 23.9302 41.4893 24.9306V27.5787C41.4893 27.667 41.4593 27.7552 41.3993 27.8141C41.3393 27.8729 41.2493 27.9023 41.1593 27.9023C41.0693 27.9023 40.9793 27.8729 40.9193 27.8141C40.8593 27.7552 40.8293 27.667 40.8293 27.5787V23.224C40.8293 23.1357 40.8593 23.0475 40.9193 22.9886C40.9793 22.9298 41.0693 22.9003 41.1593 22.9003C41.2493 22.9003 41.3393 22.9298 41.3993 22.9886C41.4593 23.0475 41.4893 23.1357 41.4893 23.224V23.5771C41.6093 23.3711 41.7893 23.1946 42.0293 23.0475C42.2393 22.9003 42.5393 22.8121 42.8693 22.8121Z" fill="white"/>
<path d="M55.5294 27.6669L54.5094 24.2538L53.4894 27.6669C53.4294 27.8434 53.3394 27.9023 53.1594 27.9023C53.0094 27.9023 52.8894 27.814 52.8294 27.6669L51.2093 23.3416C51.1793 23.2828 51.1793 23.2239 51.1793 23.1945C51.1793 23.1062 51.2093 23.018 51.2693 22.9591C51.3293 22.9003 51.4193 22.8709 51.5093 22.8709C51.6593 22.8709 51.7793 22.9591 51.8393 23.1062L53.0994 26.6665L54.1494 23.1062C54.1794 22.9591 54.2994 22.8709 54.4794 22.8709C54.6594 22.8709 54.7494 22.9591 54.8094 23.1062L55.8594 26.6665L57.1194 23.1062C57.1794 22.9591 57.2994 22.8709 57.4494 22.8709C57.5394 22.8709 57.6294 22.9003 57.6894 22.9591C57.7494 23.018 57.7794 23.1062 57.7794 23.1945C57.7794 23.2239 57.7794 23.2828 57.7494 23.3416L56.1294 27.6669C56.0694 27.814 55.9494 27.9023 55.7994 27.9023C55.7094 27.9317 55.5894 27.8434 55.5294 27.6669Z" fill="white"/>
<path fill-rule="evenodd" clip-rule="evenodd" d="M60.3895 22.8121C59.6695 22.8121 59.0995 23.018 58.7095 23.4594C58.3195 23.9007 58.1095 24.5481 58.1095 25.4013C58.1095 26.2546 58.3195 26.9019 58.7095 27.3433C59.0995 27.7847 59.6695 27.9906 60.3895 27.9906C61.1096 27.9906 61.6796 27.7847 62.0696 27.3433C62.4596 26.9019 62.6696 26.2546 62.6696 25.4013C62.6696 24.5186 62.4596 23.9007 62.0696 23.4594C61.6796 23.018 61.1096 22.8121 60.3895 22.8121ZM62.0096 25.3719C62.0096 26.696 61.4696 27.3433 60.4195 27.3433C59.3695 27.3433 58.8295 26.696 58.8295 25.3719C58.8295 24.0773 59.3695 23.43 60.4195 23.43C61.4696 23.43 62.0096 24.0773 62.0096 25.3719Z" fill="white"/>
<path d="M64.4996 23.224V23.6948C64.6196 23.43 64.7996 23.224 65.0696 23.0769C65.3397 22.9298 65.6397 22.8415 66.0297 22.8415C66.1197 22.8415 66.2097 22.8709 66.2697 22.9298C66.3297 22.9886 66.3597 23.0769 66.3597 23.1652C66.3597 23.2534 66.3297 23.3417 66.2697 23.4006C66.2097 23.4594 66.1197 23.4888 66.0297 23.4888C65.5497 23.4888 65.1597 23.636 64.8896 23.9302C64.6196 24.2244 64.4996 24.6364 64.4996 25.1366V27.5493C64.4996 27.6376 64.4696 27.7258 64.4096 27.7847C64.3496 27.8435 64.2596 27.8729 64.1696 27.8729C64.0796 27.8729 63.9896 27.8435 63.9296 27.7847C63.8696 27.7258 63.8396 27.6376 63.8396 27.5493V23.224C63.8396 23.1358 63.8696 23.0475 63.9296 22.9886C63.9896 22.9298 64.0796 22.9004 64.1696 22.9004C64.2596 22.9004 64.3496 22.9298 64.4096 22.9886C64.4696 23.0475 64.4996 23.1358 64.4996 23.224Z" fill="white"/>
<path d="M70.3497 27.7846C70.4397 27.8729 70.5297 27.9317 70.6497 27.9317C70.7397 27.9317 70.8297 27.9023 70.9197 27.7846C70.9797 27.7258 71.0097 27.6375 71.0097 27.5492C71.0097 27.461 70.9797 27.4021 70.9197 27.3433L68.9697 24.9011L70.7697 23.4888C70.8597 23.4299 70.9197 23.3417 70.9197 23.224C70.9197 23.1357 70.8897 23.0474 70.8297 22.9886C70.7697 22.9297 70.6797 22.9003 70.5897 22.9003C70.4997 22.9003 70.4097 22.9297 70.3497 22.9886L67.7697 25.0482V20.5464C67.7697 20.4582 67.7397 20.3699 67.6797 20.311C67.6197 20.2522 67.5297 20.2228 67.4397 20.2228C67.3497 20.2228 67.2597 20.2522 67.1997 20.311C67.1396 20.3699 67.1096 20.4582 67.1096 20.5464V27.6081C67.1096 27.6964 67.1396 27.7846 67.1997 27.8435C67.2597 27.9023 67.3497 27.9317 67.4397 27.9317C67.5297 27.9317 67.6197 27.9023 67.6797 27.8435C67.7397 27.7846 67.7697 27.6964 67.7697 27.6081V25.8721L68.4297 25.3425L70.3497 27.7846Z" fill="white"/>
<path d="M21.2089 20.517C21.0889 20.3405 21.1189 20.1345 21.2689 19.958C21.4489 19.752 21.7489 19.752 21.9289 19.958C23.129 21.4292 23.789 23.3711 23.579 25.4602C23.219 29.0793 20.1889 31.9922 16.4988 32.3159C11.6088 32.7278 7.55871 28.6968 8.03871 23.8713C8.39872 20.5759 10.9488 17.8395 14.2488 17.1628C15.2388 16.9568 16.1688 16.9568 17.0689 17.1039C17.3389 17.1628 17.4889 17.4276 17.3989 17.6924V17.7218C17.3389 17.9278 17.1589 18.0455 16.9489 18.016C16.1688 17.8983 15.3888 17.8983 14.5488 18.0455C11.4888 18.6045 9.14873 21.1644 8.93873 24.2244C8.63872 28.2849 12.0588 31.6686 16.1988 31.4626C19.6189 31.2566 22.4389 28.5791 22.6789 25.2248C22.799 23.43 22.2289 21.7822 21.2089 20.517Z" fill="url(#paint0_linear)"/>
<path d="M21.2089 20.517C21.0889 20.3405 21.1189 20.1345 21.2689 19.958C21.4489 19.752 21.7489 19.752 21.9289 19.958C23.129 21.4292 23.789 23.3711 23.579 25.4602C23.219 29.0793 20.1889 31.9922 16.4988 32.3159C11.6088 32.7278 7.55871 28.6968 8.03871 23.8713C8.39872 20.5759 10.9488 17.8395 14.2488 17.1628C15.2388 16.9568 16.1688 16.9568 17.0689 17.1039C17.3389 17.1628 17.4889 17.4276 17.3989 17.6924V17.7218C17.3389 17.9278 17.1589 18.0455 16.9489 18.016C16.1688 17.8983 15.3888 17.8983 14.5488 18.0455C11.4888 18.6045 9.14873 21.1644 8.93873 24.2244C8.63872 28.2849 12.0588 31.6686 16.1988 31.4626C19.6189 31.2566 22.4389 28.5791 22.6789 25.2248C22.799 23.43 22.2289 21.7822 21.2089 20.517Z" fill="#09B0E7"/>
<path d="M19.5289 19.9874C20.3574 19.9874 21.029 19.3287 21.029 18.5162C21.029 17.7037 20.3574 17.045 19.5289 17.045C18.7005 17.045 18.0289 17.7037 18.0289 18.5162C18.0289 19.3287 18.7005 19.9874 19.5289 19.9874Z" fill="url(#paint1_linear)"/>
<path d="M19.5289 19.9874C20.3574 19.9874 21.029 19.3287 21.029 18.5162C21.029 17.7037 20.3574 17.045 19.5289 17.045C18.7005 17.045 18.0289 17.7037 18.0289 18.5162C18.0289 19.3287 18.7005 19.9874 19.5289 19.9874Z" fill="#09B0E7"/>
<path d="M13.4088 23.2239C13.4088 24.0364 12.7373 24.6951 11.9088 24.6951C11.0804 24.6951 10.4088 24.0364 10.4088 23.2239C10.4088 22.4114 11.0804 21.7528 11.9088 21.7528C12.7373 21.7528 13.4088 22.4114 13.4088 23.2239Z" fill="url(#paint2_linear)"/>
<path d="M13.4088 23.2239C13.4088 24.0364 12.7373 24.6951 11.9088 24.6951C11.0804 24.6951 10.4088 24.0364 10.4088 23.2239C10.4088 22.4114 11.0804 21.7528 11.9088 21.7528C12.7373 21.7528 13.4088 22.4114 13.4088 23.2239Z" fill="#09B0E7"/>
<path d="M17.3088 24.6951C17.3088 25.5076 16.6372 26.1663 15.8088 26.1663C14.9804 26.1663 14.3088 25.5076 14.3088 24.6951C14.3088 23.8826 14.9804 23.224 15.8088 23.224C16.6372 23.224 17.3088 23.8826 17.3088 24.6951Z" fill="url(#paint3_linear)"/>
<path d="M17.3088 24.6951C17.3088 25.5076 16.6372 26.1663 15.8088 26.1663C14.9804 26.1663 14.3088 25.5076 14.3088 24.6951C14.3088 23.8826 14.9804 23.224 15.8088 23.224C16.6372 23.224 17.3088 23.8826 17.3088 24.6951Z" fill="#09B0E7"/>
<path d="M14.2188 21.5469C14.8188 21.2527 15.5088 21.1056 16.2288 21.1938C17.8788 21.3704 19.1989 22.665 19.3789 24.2833C19.6189 26.4312 17.9388 28.2261 15.8088 28.2261C14.2788 28.2261 12.9888 27.3139 12.4788 26.0193C12.3888 25.7839 12.5088 25.5485 12.7488 25.4602C12.9888 25.372 13.2288 25.4897 13.3188 25.6956C13.7388 26.6666 14.6988 27.3728 15.8388 27.3728C17.4288 27.3728 18.6889 26.0193 18.5089 24.4304C18.3588 23.1946 17.3688 22.1942 16.1088 22.0765C15.5988 22.0177 15.0888 22.1354 14.6388 22.3413C14.3988 22.4296 14.1588 22.3413 14.0388 22.1354C13.9188 21.9294 14.0088 21.6646 14.2188 21.5469Z" fill="url(#paint4_linear)"/>
<path d="M14.2188 21.5469C14.8188 21.2527 15.5088 21.1056 16.2288 21.1938C17.8788 21.3704 19.1989 22.665 19.3789 24.2833C19.6189 26.4312 17.9388 28.2261 15.8088 28.2261C14.2788 28.2261 12.9888 27.3139 12.4788 26.0193C12.3888 25.7839 12.5088 25.5485 12.7488 25.4602C12.9888 25.372 13.2288 25.4897 13.3188 25.6956C13.7388 26.6666 14.6988 27.3728 15.8388 27.3728C17.4288 27.3728 18.6889 26.0193 18.5089 24.4304C18.3588 23.1946 17.3688 22.1942 16.1088 22.0765C15.5988 22.0177 15.0888 22.1354 14.6388 22.3413C14.3988 22.4296 14.1588 22.3413 14.0388 22.1354C13.9188 21.9294 14.0088 21.6646 14.2188 21.5469Z" fill="#09B0E7"/>
<path d="M16.3489 19.7226C15.1489 19.6049 14.0389 19.8992 13.1089 20.4582C12.8389 20.6348 12.8389 21.0467 13.1089 21.1938C13.2589 21.2821 13.4089 21.2821 13.5589 21.1938C14.3389 20.723 15.2989 20.4876 16.3189 20.6053C18.2389 20.8407 19.769 22.3708 19.979 24.2244C20.249 26.7254 18.2689 28.8145 15.8089 28.8145C13.8889 28.8145 12.2688 27.5493 11.7888 25.8427C11.7288 25.6956 11.6088 25.5779 11.4588 25.5191H11.4288C11.0988 25.4602 10.8288 25.7545 10.9188 26.0487C11.5188 28.1672 13.4689 29.6972 15.8089 29.6972C18.809 29.6972 21.209 27.1374 20.879 24.1362C20.609 21.8117 18.719 19.958 16.3489 19.7226Z" fill="url(#paint5_linear)"/>
<path d="M16.3489 19.7226C15.1489 19.6049 14.0389 19.8992 13.1089 20.4582C12.8389 20.6348 12.8389 21.0467 13.1089 21.1938C13.2589 21.2821 13.4089 21.2821 13.5589 21.1938C14.3389 20.723 15.2989 20.4876 16.3189 20.6053C18.2389 20.8407 19.769 22.3708 19.979 24.2244C20.249 26.7254 18.2689 28.8145 15.8089 28.8145C13.8889 28.8145 12.2688 27.5493 11.7888 25.8427C11.7288 25.6956 11.6088 25.5779 11.4588 25.5191H11.4288C11.0988 25.4602 10.8288 25.7545 10.9188 26.0487C11.5188 28.1672 13.4689 29.6972 15.8089 29.6972C18.809 29.6972 21.209 27.1374 20.879 24.1362C20.609 21.8117 18.719 19.958 16.3489 19.7226Z" fill="#09B0E7"/>
<defs>
<linearGradient id="paint0_linear" x1="23.3078" y1="17.3382" x2="8.02629" y2="32.9193" gradientUnits="userSpaceOnUse">
<stop stop-color="#1A8FE6"/>
<stop offset="0.7043" stop-color="#00C0E8"/>
</linearGradient>
<linearGradient id="paint1_linear" x1="23.3078" y1="17.3382" x2="8.02629" y2="32.9193" gradientUnits="userSpaceOnUse">
<stop stop-color="#1A8FE6"/>
<stop offset="0.7043" stop-color="#00C0E8"/>
</linearGradient>
<linearGradient id="paint2_linear" x1="23.3078" y1="17.3382" x2="8.02629" y2="32.9193" gradientUnits="userSpaceOnUse">
<stop stop-color="#1A8FE6"/>
<stop offset="0.7043" stop-color="#00C0E8"/>
</linearGradient>
<linearGradient id="paint3_linear" x1="23.3078" y1="17.3382" x2="8.02629" y2="32.9193" gradientUnits="userSpaceOnUse">
<stop stop-color="#1A8FE6"/>
<stop offset="0.7043" stop-color="#00C0E8"/>
</linearGradient>
<linearGradient id="paint4_linear" x1="23.3078" y1="17.3382" x2="8.02629" y2="32.9193" gradientUnits="userSpaceOnUse">
<stop stop-color="#1A8FE6"/>
<stop offset="0.7043" stop-color="#00C0E8"/>
</linearGradient>
<linearGradient id="paint5_linear" x1="23.3078" y1="17.3382" x2="8.02629" y2="32.9193" gradientUnits="userSpaceOnUse">
<stop stop-color="#1A8FE6"/>
<stop offset="0.7043" stop-color="#00C0E8"/>
</linearGradient>
</defs>
</svg>
