<svg width="80" height="50" viewBox="0 0 80 50" fill="none" xmlns="http://www.w3.org/2000/svg">
<rect width="80" height="50" fill="black"/>
<path fill-rule="evenodd" clip-rule="evenodd" d="M10.4244 31.185V29.7402H10V29.294H11.3622V29.7402H10.9382V31.185H10.4244ZM12.9715 31.185V29.294H13.485V30.0314H14.1719V29.294H14.6894V31.185H14.1719V30.4155H13.485V31.185H12.9715V31.185ZM16.449 31.185V29.294H17.6063V29.7074H16.9522V30.0348H17.5688V30.4411H16.9522V30.761H17.6063V31.185H16.449ZM21.4795 29.294H21.9933V30.2127C21.9933 30.3479 21.9967 30.4455 22.0036 30.5042C22.0104 30.563 22.022 30.6121 22.0384 30.6524C22.0582 30.7005 22.0923 30.7371 22.1415 30.7623C22.1906 30.7876 22.25 30.8002 22.3204 30.8002C22.3907 30.8002 22.4501 30.7876 22.4986 30.7623C22.5471 30.7371 22.5815 30.7002 22.6024 30.6524C22.6206 30.6048 22.6323 30.555 22.6372 30.5042C22.6444 30.4455 22.6474 30.3482 22.6474 30.2127V29.294H23.1616V30.2929C23.1616 30.5008 23.1489 30.6538 23.124 30.7524C23.0991 30.8511 23.0571 30.9358 22.9974 31.0051C22.9265 31.0863 22.8344 31.1461 22.7314 31.1778C22.6184 31.2157 22.4818 31.2352 22.3207 31.2352C22.1589 31.2352 22.022 31.2157 21.9097 31.1778C21.8066 31.1458 21.7144 31.0861 21.643 31.0051C21.5826 30.9315 21.5396 30.8451 21.5174 30.7524C21.4918 30.6538 21.4792 30.5012 21.4792 30.2929V29.294H21.4795V29.294ZM24.9099 31.185V29.294H25.4059L26.1194 30.267C26.1334 30.2871 26.1556 30.3264 26.1874 30.3865C26.2188 30.4465 26.2533 30.5179 26.2912 30.5998C26.2816 30.5305 26.274 30.461 26.2683 30.3912C26.264 30.3371 26.2616 30.2827 26.2611 30.2284V29.2943H26.7572V31.1853H26.2611L25.5476 30.2093C25.5222 30.1707 25.4991 30.1305 25.4786 30.0891C25.4425 30.0199 25.4084 29.9496 25.3762 29.8785C25.3865 29.9577 25.394 30.028 25.3988 30.0891C25.4035 30.1499 25.4059 30.2045 25.4059 30.252V31.1853H24.9099V31.185V31.185ZM28.5205 31.185V29.294H29.6778V29.7074H29.0237V30.0348H29.6406V30.4411H29.0237V30.761H29.6778V31.185H28.5205ZM32.0465 29.7334L32.0488 29.7388C32.0789 29.7955 32.099 29.8453 32.1096 29.8884C32.1192 29.8491 32.1383 29.8023 32.1676 29.7477C32.1711 29.7416 32.1738 29.7371 32.1752 29.7337L32.4025 29.2943H33.0133L32.3817 30.2038L33.0805 31.1853H32.4954L32.1752 30.6244C32.1459 30.5758 32.1237 30.5233 32.1093 30.4684C32.1022 30.497 32.093 30.5251 32.082 30.5524C32.0717 30.5783 32.0598 30.6022 32.0461 30.6244L31.7232 31.1853H31.1397L31.8396 30.1932L31.2056 29.2943H31.8191L32.0465 29.7334ZM35.0832 31.185H34.6015V29.294H35.1388C35.3498 29.294 35.4976 29.3046 35.583 29.3254C35.6683 29.3462 35.7404 29.3814 35.8001 29.4316C35.8698 29.4896 35.923 29.5616 35.9596 29.6484C35.9961 29.7351 36.0145 29.8317 36.0145 29.9372C36.0145 30.0505 35.9964 30.1499 35.9602 30.2359C35.9259 30.3189 35.8708 30.3917 35.8001 30.4472C35.7465 30.4885 35.684 30.5186 35.6117 30.5367C35.5393 30.5548 35.4236 30.5633 35.2641 30.5633H35.0835V31.185H35.0832V31.185ZM35.0832 30.1461H35.1812C35.3051 30.1461 35.3918 30.1287 35.441 30.0949C35.4901 30.0608 35.5147 30.0027 35.5147 29.9208C35.5147 29.8416 35.4905 29.7849 35.4423 29.7508C35.3942 29.7173 35.3089 29.7009 35.1866 29.7009H35.0832V30.1461V30.1461ZM37.6351 31.185V29.294H38.7925V29.7074H38.138V30.0348H38.7549V30.4411H38.138V30.761H38.7925V31.185H37.6351ZM41.8647 29.366V29.9269C41.805 29.8577 41.7335 29.7997 41.6534 29.7556C41.5836 29.7192 41.506 29.7005 41.4274 29.7009C41.2792 29.7009 41.1594 29.7515 41.0679 29.8529C40.9757 29.9543 40.93 30.0871 40.93 30.2502C40.93 30.4022 40.9767 30.5281 41.0699 30.6282C41.1638 30.7282 41.2826 30.7787 41.4274 30.7787C41.508 30.7787 41.5827 30.76 41.6534 30.7234C41.7234 30.6862 41.794 30.6282 41.8647 30.5486V31.1126C41.7828 31.1526 41.7012 31.1819 41.6199 31.2014C41.4447 31.2432 41.2618 31.241 41.0877 31.1949C41.0019 31.171 40.9206 31.1332 40.847 31.0829C40.7102 30.9937 40.5988 30.8705 40.5237 30.7255C40.448 30.5748 40.4098 30.408 40.4124 30.2393C40.4124 30.0946 40.4356 29.9631 40.4831 29.8447C40.5299 29.7265 40.6005 29.6193 40.6958 29.5227C40.781 29.4333 40.8842 29.3629 40.9986 29.3162C41.1113 29.2708 41.2365 29.2476 41.3748 29.2476C41.4574 29.2476 41.5394 29.2575 41.6203 29.2776C41.7012 29.2974 41.7828 29.3268 41.8647 29.366V29.366ZM43.7823 31.185V29.7402H43.3583V29.294H44.7205V29.7402H44.2965V31.185H43.7823V31.185ZM46.3295 31.185V29.294H47.4872V29.7074H46.8331V30.0348H47.4496V30.4411H46.8331V30.761H47.4872V31.185H46.3295ZM49.186 31.185V29.294H49.58C49.8732 29.294 50.0815 29.308 50.2034 29.3353C50.3246 29.3633 50.4321 29.4094 50.5239 29.4739C50.6434 29.5572 50.7346 29.6641 50.7967 29.7945C50.8588 29.9246 50.8892 30.0737 50.8892 30.2407C50.8892 30.408 50.8585 30.5568 50.7967 30.6869C50.7357 30.816 50.6416 30.9266 50.5239 31.0075C50.4324 31.0716 50.3287 31.1167 50.2112 31.144C50.0945 31.1713 49.9125 31.1847 49.6663 31.1847H49.186V31.185V31.185ZM49.696 30.761H49.7828C49.9849 30.761 50.1327 30.7197 50.2256 30.6364C50.3181 30.5537 50.3648 30.4223 50.3648 30.2417C50.3648 30.0618 50.3181 29.929 50.2256 29.845C50.133 29.761 49.9849 29.719 49.7828 29.719H49.696V30.761ZM55.2967 31.185L54.5026 29.294H55.0505L55.4298 30.3516C55.4332 30.3629 55.4397 30.3902 55.451 30.4329L55.493 30.605C55.5063 30.5476 55.5196 30.4957 55.5316 30.4489C55.5435 30.4022 55.5524 30.3704 55.5582 30.3516L55.9351 29.294H56.483L55.6889 31.185H55.2967V31.185ZM59.9329 30.2438C59.9329 30.3796 59.9083 30.507 59.8581 30.6258C59.8079 30.7446 59.7355 30.8511 59.6393 30.9446C59.4961 31.0839 59.3154 31.1784 59.1194 31.2166C58.9234 31.2549 58.7205 31.2352 58.5355 31.1601C58.4134 31.111 58.3025 31.0378 58.2095 30.9446C58.1143 30.8544 58.039 30.7453 57.9883 30.6244C57.9377 30.5039 57.9121 30.3744 57.9128 30.2438C57.9128 30.1086 57.9374 29.9809 57.9883 29.8617C58.0381 29.7422 58.1122 29.6357 58.2095 29.5422C58.3995 29.3547 58.6561 29.2502 58.923 29.2513C59.0579 29.2513 59.1869 29.2759 59.3112 29.3268C59.4354 29.3776 59.5454 29.4486 59.6393 29.5422C59.7345 29.6347 59.8065 29.7416 59.8574 29.8611C59.9073 29.9809 59.9329 30.1082 59.9329 30.2438V30.2438ZM58.9247 30.8002C59.0674 30.8002 59.1855 30.7477 59.2787 30.6422C59.3719 30.5367 59.4187 30.4035 59.4187 30.2434C59.4187 30.084 59.3713 29.9515 59.2767 29.8453C59.1821 29.7392 59.0647 29.6859 58.9247 29.6859C58.782 29.6859 58.6639 29.7385 58.5707 29.8447C58.4775 29.9508 58.4307 30.0833 58.4307 30.2434C58.4307 30.4056 58.4768 30.5387 58.5686 30.6435C58.6605 30.7483 58.7793 30.8002 58.9247 30.8002V30.8002ZM61.6132 31.185V29.294H62.0072C62.3005 29.294 62.5087 29.308 62.6299 29.3353C62.7518 29.3633 62.8586 29.4094 62.9512 29.4739C63.0706 29.5572 63.1611 29.6641 63.2232 29.7945C63.2854 29.9246 63.3165 30.0737 63.3165 30.2407C63.3165 30.408 63.285 30.5568 63.2232 30.6869C63.1625 30.816 63.0686 30.9266 62.9512 31.0075C62.8597 31.0716 62.7552 31.1167 62.6384 31.144C62.521 31.1713 62.3397 31.1847 62.0936 31.1847H61.6132V31.185ZM62.1233 30.761H62.21C62.4121 30.761 62.5592 30.7197 62.6528 30.6364C62.7453 30.5537 62.7921 30.4223 62.7921 30.2417C62.7921 30.0618 62.7453 29.929 62.6528 29.845C62.5596 29.761 62.4121 29.719 62.21 29.719H62.1233V30.761ZM64.9965 31.185V29.294H65.5065V30.1529L66.104 29.294H66.7041L66.006 30.2161L66.7646 31.185H66.1221L65.5065 30.3363V31.185H64.9965V31.185ZM68.0482 31.185L68.701 29.294H69.3466L70 31.185H69.4872L69.392 30.8436H68.6597L68.5617 31.185H68.0482V31.185ZM68.771 30.4769H69.2838L69.0912 29.8542C69.0822 29.8237 69.074 29.793 69.0666 29.762C69.0537 29.7079 69.0404 29.6538 69.0267 29.5999C69.0154 29.646 69.0048 29.6907 68.9939 29.7327C68.983 29.7747 68.9721 29.8153 68.9604 29.8539L68.771 30.4769V30.4769Z" fill="white"/>
<path fill-rule="evenodd" clip-rule="evenodd" d="M60.6067 27.0894H19.5874V19H60.6067V27.0894Z" fill="#CC1E47"/>
<path fill-rule="evenodd" clip-rule="evenodd" d="M25.2188 21.1238C25.0013 20.9603 24.7479 20.8511 24.4797 20.8053C24.3505 20.7738 24.2196 20.7493 24.0878 20.7319C23.817 20.7063 23.4715 20.7063 23.0544 20.7063H22.1445V25.0837H23.2517C23.5719 25.0837 23.8659 25.0578 24.0881 25.0342C24.2595 25.0342 24.3821 25.0089 24.505 24.9844C24.7757 24.9099 25.0218 24.812 25.2192 24.6655C25.5138 24.4678 25.7101 24.221 25.8572 23.9257C26.0051 23.6317 26.0791 23.2879 26.0791 22.8936C26.0791 22.501 26.0047 22.1566 25.8572 21.8619C25.7097 21.5673 25.5138 21.3215 25.2188 21.1238V21.1238ZM24.5295 23.8052C24.4309 23.9035 24.2827 23.9759 24.0881 24.0243C23.9042 24.0767 23.7136 24.1017 23.5224 24.0988H23.3251V21.6899H23.5224C23.7426 21.6899 23.9154 21.6899 24.0881 21.7397C24.283 21.7892 24.4309 21.8623 24.5295 21.9603C24.7508 22.1569 24.8743 22.4778 24.8743 22.894C24.8743 23.3125 24.7508 23.6072 24.5295 23.8052ZM57.0586 20.7063H55.5831L54.0581 25.0837H55.2383L55.4837 24.2964H57.1812L57.4017 25.0837H58.5819L57.0586 20.7063ZM56.3205 23.4361H55.7302L56.1717 22.0104C56.1956 21.9114 56.2222 21.8124 56.2464 21.7148C56.271 21.6165 56.2963 21.5178 56.3205 21.4195C56.3693 21.5673 56.3946 21.6899 56.4185 21.7892C56.4431 21.8865 56.468 21.9606 56.468 22.0104L56.9101 23.4361H56.3205ZM38.2005 22.8708V23.2398C38.2244 23.3859 38.2244 23.5338 38.2496 23.7318C38.1849 23.5558 38.1111 23.3832 38.0284 23.2149C37.954 23.092 37.8806 22.993 37.856 22.9442L36.2081 20.7063H35.0531V25.0837H36.2081V22.9189C36.2081 22.796 36.2081 22.6734 36.1842 22.5498C36.1842 22.402 36.1596 22.2296 36.1347 22.0586C36.2337 22.2296 36.3071 22.402 36.3815 22.5498C36.4549 22.6734 36.5044 22.7711 36.5283 22.8196L38.2008 25.0837H39.3319V20.7063H38.2008V22.8708H38.2005V22.8708ZM42.159 20.7063V21.6407H43.9281L41.7404 25.0837H45.6016V24.1247H43.6331L45.8464 20.7063H42.159ZM30.4794 20.7063H29.7178L28.2177 25.0837H29.3979L29.6447 24.2964H31.3165L31.5371 25.0837H32.7415L31.2168 20.7063H30.4794V20.7063ZM30.4794 23.4361H29.8895L30.3319 22.0104C30.3569 21.9114 30.3821 21.8124 30.4053 21.7148C30.4316 21.6165 30.4552 21.5178 30.4794 21.4195C30.5289 21.5673 30.5538 21.6899 30.5784 21.7892C30.6033 21.8865 30.6276 21.9606 30.6276 22.0104L31.07 23.4361H30.4794V23.4361ZM52.1903 20.7063H50.7882L49.411 22.6984V20.7063H48.2321V25.0837H49.411V23.1159L50.8366 25.0837H52.3128L50.5673 22.8452L52.1903 20.7063Z" fill="#D0D1D3"/>
</svg>
