<svg width="80" height="50" viewBox="0 0 80 50" fill="none" xmlns="http://www.w3.org/2000/svg">
<rect width="80" height="50" fill="black"/>
<path d="M20.5657 27.7797H22.0225V26.3632L22.5584 25.7415L23.8793 27.7797H25.6342L23.5736 24.6515L25.5663 22.2946H23.834L22.0225 24.5178V22.2946H20.5657V27.7797ZM25.4833 27.7797H27.0155L27.3929 26.7999H29.4234L29.8083 27.7797H31.3708L29.129 22.2552H27.7251L25.4833 27.7797ZM27.8232 25.6156L28.4157 24.0574L29.0007 25.6156H27.8232ZM31.8841 27.7797H33.3408V26.1192H33.9824L35.0392 27.7797H36.7262L35.4694 25.8674C36.1223 25.5762 36.5526 25.0214 36.5526 24.1833C36.5526 23.6246 36.3941 23.2035 36.0846 22.8809C35.7336 22.511 35.175 22.2946 34.3712 22.2946H31.8841V27.7797ZM33.3408 24.927V23.6088H34.2957C34.7863 23.6088 35.0845 23.8292 35.0845 24.262C35.0845 24.6751 34.8014 24.927 34.3032 24.927H33.3408ZM37.2885 27.7797H41.5607V26.4891H38.734V25.6156H41.2588V24.4194H38.734V23.5852H41.523V22.2946H37.2885V27.7797ZM42.3042 27.7797H46.3123V26.4497H43.7648V22.2946H42.3042V27.7797ZM46.9689 27.7797H48.4333V22.2946H46.9689V27.7797ZM48.9767 27.7797H50.509L50.8864 26.7999H52.9169L53.3018 27.7797H54.8643L52.6225 22.2552H51.2185L48.9767 27.7797ZM51.3167 25.6156L51.9092 24.0574L52.4942 25.6156H51.3167Z" fill="white"/>
<path d="M57.7739 27.5869H59.6043C61.2574 27.5869 62.4009 26.3868 62.4009 24.8404C62.4009 23.2822 61.2574 22.0979 59.6043 22.0979H57.7739V27.5869ZM58.3702 27.0124V22.6684H59.6043C60.9328 22.6684 61.7857 23.6246 61.7857 24.8404C61.7857 26.072 60.9328 27.0124 59.6043 27.0124H58.3702ZM65.3862 27.6656C66.4316 27.6656 67.1826 27.0518 67.1826 26.1114C67.1826 25.2575 66.643 24.8089 65.4692 24.5414C64.3106 24.2856 64.0389 23.9944 64.0389 23.475C64.0389 22.9675 64.4766 22.574 65.1598 22.574C65.7032 22.574 66.1901 22.755 66.6807 23.1721L67.0241 22.692C66.492 22.2474 65.941 22.0192 65.1748 22.0192C64.1747 22.0192 63.4463 22.6527 63.4463 23.5144C63.4463 24.4351 64.0011 24.8404 65.2126 25.1158C66.3184 25.3598 66.5826 25.647 66.5826 26.1586C66.5826 26.7134 66.1146 27.1069 65.4088 27.1069C64.6804 27.1069 64.1521 26.8472 63.6048 26.3317L63.235 26.7842C63.8653 27.3744 64.5521 27.6656 65.3862 27.6656ZM68.3941 27.5869H68.9866V25.647H70.266C71.3869 25.647 72.3342 25.0372 72.3342 23.8528C72.3342 22.755 71.553 22.0979 70.3642 22.0979H68.3941V27.5869ZM68.9866 25.0844V22.6684H70.3189C71.168 22.6684 71.7342 23.0776 71.7342 23.8606C71.7342 24.5965 71.1605 25.0844 70.2887 25.0844H68.9866Z" fill="white"/>
<path fill-rule="evenodd" clip-rule="evenodd" d="M72.7985 22.5936C72.7985 22.5227 72.806 22.4676 72.8249 22.4086C72.8287 22.389 72.8362 22.3732 72.8438 22.3575C72.8626 22.3181 72.8702 22.3063 72.8928 22.2709C72.8966 22.263 72.9004 22.2591 72.9041 22.2512C72.9117 22.2394 72.9343 22.2158 72.9419 22.204L72.9758 22.1725C72.9796 22.1686 72.9796 22.1686 72.9796 22.1686C73.006 22.145 73.0362 22.1214 73.0626 22.1056C73.0891 22.0938 73.1004 22.086 73.1306 22.0742C73.274 22.0151 73.4325 22.023 73.5684 22.0938C73.5759 22.0978 73.5835 22.1017 73.591 22.1056C73.625 22.1253 73.674 22.1686 73.7042 22.1961C73.7042 22.2001 73.708 22.2001 73.7118 22.204C73.7344 22.2276 73.7722 22.2827 73.7873 22.3142C73.791 22.3181 73.791 22.3181 73.7948 22.3221C73.7948 22.326 73.7986 22.3299 73.7986 22.3339C73.8024 22.3417 73.8061 22.3496 73.8099 22.3575C73.8439 22.4283 73.859 22.5149 73.859 22.5936C73.859 22.6368 73.8514 22.6801 73.8439 22.7155C73.8325 22.7628 73.8212 22.7942 73.7986 22.8415C73.7873 22.869 73.7684 22.8965 73.7495 22.9241C73.7306 22.9477 73.7156 22.9674 73.6929 22.987C73.6929 22.991 73.6891 22.991 73.6854 22.9949C73.6816 23.0028 73.674 23.0067 73.6665 23.0106C73.6552 23.0225 73.625 23.0461 73.6099 23.0539C73.6061 23.0579 73.5986 23.0657 73.591 23.0697C73.5872 23.0697 73.5835 23.0736 73.5797 23.0736C73.5759 23.0775 73.5721 23.0775 73.5684 23.0815L73.5231 23.1011C73.425 23.1405 73.308 23.1523 73.2061 23.1248C73.1872 23.1208 73.1721 23.1169 73.1532 23.109C73.1306 23.1011 73.1079 23.0933 73.0853 23.0815C73.0702 23.0736 73.0551 23.0618 73.0438 23.0539C73.0098 23.0343 72.9721 22.9988 72.9419 22.9713L72.9306 22.9556C72.9117 22.932 72.8815 22.8887 72.8664 22.8611C72.8513 22.8336 72.8475 22.8257 72.8324 22.7942C72.8324 22.7864 72.8287 22.7785 72.8249 22.7667C72.806 22.7116 72.7985 22.6526 72.7985 22.5936ZM72.6626 22.5857C72.6626 22.6565 72.6739 22.7313 72.6928 22.7942C72.7041 22.8257 72.7154 22.8572 72.7305 22.8887L72.7834 22.9831C72.7871 22.987 72.7871 22.991 72.7909 22.9949L72.8098 23.0185C72.8287 23.0421 72.8475 23.0657 72.8664 23.0854C72.8815 23.1011 72.8966 23.113 72.9117 23.1287C72.9419 23.1523 72.9758 23.1798 73.0098 23.1956L73.04 23.2113C73.0589 23.2192 73.0777 23.2271 73.0966 23.2349C73.1193 23.2428 73.1381 23.2507 73.1608 23.2585C73.2702 23.2861 73.3834 23.2861 73.4929 23.2585C73.5004 23.2546 73.5042 23.2546 73.5118 23.2546C73.5457 23.2428 73.5797 23.2271 73.6137 23.2113C73.6363 23.1995 73.6589 23.1877 73.6816 23.172C73.7042 23.1562 73.7457 23.1287 73.7646 23.109C73.7646 23.1051 73.7684 23.1051 73.7684 23.1051C73.7797 23.0972 73.7948 23.0775 73.8061 23.0657C73.8099 23.0618 73.8137 23.0579 73.8175 23.0539C73.8288 23.0421 73.8401 23.0225 73.8552 23.0067C73.8627 22.9988 73.8665 22.987 73.8741 22.9752C73.8929 22.9516 73.9043 22.928 73.9194 22.9044L73.9382 22.8572L73.9609 22.7942C73.9797 22.7313 73.9911 22.6565 73.9911 22.5857C73.9911 22.5188 73.9835 22.4676 73.9684 22.4126C73.9609 22.3811 73.9458 22.3299 73.9307 22.3024C73.9307 22.2985 73.9269 22.2906 73.9269 22.2866C73.9231 22.2827 73.9194 22.2788 73.9194 22.2748C73.9156 22.2709 73.9156 22.267 73.9156 22.267L73.8892 22.2198C73.8854 22.2119 73.8816 22.2119 73.8816 22.204C73.8778 22.204 73.8778 22.2001 73.8741 22.2001C73.8703 22.1883 73.8627 22.1765 73.8552 22.1686C73.8439 22.1568 73.8363 22.1411 73.825 22.1332L73.7646 22.0663C73.7495 22.0545 73.7231 22.0309 73.708 22.0191L73.6929 22.0112C73.6703 21.9955 73.6438 21.9797 73.6137 21.964C73.6099 21.9601 73.6061 21.9601 73.6023 21.9561C73.5872 21.9483 73.5721 21.9443 73.557 21.9404C73.5382 21.9286 73.5155 21.9246 73.4967 21.9168C73.3834 21.8892 73.274 21.8892 73.1608 21.9168C73.1457 21.9207 73.1268 21.9246 73.1117 21.9325L73.0815 21.9443C73.074 21.9483 73.0626 21.9522 73.0513 21.9561L72.9985 21.9876C72.9947 21.9876 72.9909 21.9915 72.9872 21.9955C72.9607 22.0112 72.9343 22.027 72.9117 22.0466C72.889 22.0663 72.8702 22.086 72.8475 22.1096C72.8287 22.1293 72.8098 22.1568 72.7909 22.1804L72.7494 22.2434C72.7456 22.2552 72.7419 22.263 72.7381 22.2709C72.7343 22.2788 72.7305 22.2827 72.7305 22.2866C72.723 22.3024 72.7154 22.3181 72.7117 22.3299C72.7041 22.3417 72.7041 22.3535 72.7003 22.3653C72.6928 22.3771 72.689 22.3968 72.6852 22.4126C72.6815 22.4204 72.6815 22.4244 72.6815 22.4322C72.6701 22.4795 72.6626 22.5267 72.6626 22.5857Z" fill="white"/>
<path fill-rule="evenodd" clip-rule="evenodd" d="M73.3307 22.57H73.2364V22.4047H73.3345C73.3609 22.4047 73.3836 22.4165 73.3987 22.4362C73.4251 22.4756 73.4213 22.57 73.3307 22.57ZM73.127 22.8651H73.2364V22.6605H73.327C73.327 22.6684 73.3458 22.7038 73.3496 22.7117C73.3572 22.7313 73.3647 22.7471 73.376 22.7628L73.4062 22.8258C73.4062 22.8336 73.41 22.8376 73.4138 22.8415C73.4138 22.8454 73.4213 22.8651 73.4251 22.8651H73.5421C73.5421 22.8533 73.5383 22.8533 73.5345 22.8454L73.5006 22.7746C73.4893 22.7549 73.4742 22.7274 73.4628 22.7038C73.4591 22.6998 73.4591 22.6959 73.4553 22.688L73.4402 22.6605C73.4402 22.6566 73.4289 22.6369 73.4289 22.633C73.4364 22.629 73.4666 22.6093 73.4742 22.6015C73.4893 22.5857 73.4968 22.5779 73.5044 22.5582C73.5232 22.5228 73.527 22.4677 73.5157 22.4283C73.5119 22.4165 73.5081 22.4087 73.5044 22.4008C73.493 22.3733 73.4742 22.3536 73.4515 22.3378C73.444 22.3339 73.4326 22.33 73.4251 22.326C73.3949 22.3142 73.3647 22.3103 73.327 22.3103H73.127V22.8651Z" fill="white"/>
<path fill-rule="evenodd" clip-rule="evenodd" d="M13.2136 25.7296L12.7683 26.4536L13.6326 27.8662L14.5534 27.7639L14.595 27.5081L14.3194 27.3468L14.3836 26.8392L13.2136 25.7296Z" fill="white"/>
<path fill-rule="evenodd" clip-rule="evenodd" d="M7.18252 23.7426C6.83908 24.7695 6.45035 25.4817 6.00879 26.2687C6.01256 26.4025 6.01256 26.5363 6.01634 26.67L6.67302 27.6577L7.16365 27.516L7.19007 27.0084L7.96752 26.2884L7.37877 23.9747L7.18252 23.7426Z" fill="white"/>
<path fill-rule="evenodd" clip-rule="evenodd" d="M16.1462 28.0001L17.4709 27.8939L17.5275 27.6893C17.3539 27.6342 17.1803 27.6185 17.0105 27.5634C16.6633 26.9259 16.3047 26.1272 15.8933 25.4858L17.1992 24.691C17.4634 24.8287 17.871 24.8956 18.1125 24.872C18.1427 24.8366 18.1729 24.7972 18.2031 24.7579C18.4031 24.809 18.5163 24.8051 18.6069 24.7933C18.7843 24.7618 18.7692 24.7106 18.8975 24.5965C19.0447 24.4706 18.905 24.4195 18.8447 24.3565C18.7314 24.2149 18.7352 24.1755 18.622 24.0378C18.5767 23.9866 18.5163 23.967 18.4748 23.9512L18.5541 23.7191C18.5842 23.6089 18.5616 23.5223 18.4748 23.4161C18.3276 23.2469 18.1691 22.696 17.9389 22.519C17.369 22.0822 17.135 22.1137 16.5727 21.9878C16.4595 21.9642 16.1953 21.8501 16.0141 21.7438C15.7726 21.5982 15.4707 21.4369 15.1989 21.4408C14.7498 21.4448 14.5988 21.732 14.1535 21.6966C13.9006 21.6572 13.7535 21.5707 13.5761 21.5156C11.9646 21.0119 10.5002 20.8427 9.36046 21.1615C8.28863 21.4605 8.15277 21.7399 7.25077 22.578L7.04319 22.7275L6.94507 23.0029L7.06584 23.1721C7.17529 23.2823 7.28096 23.3964 7.38663 23.5066C7.78291 24.8169 8.13012 26.1665 8.42827 27.5162L8.88871 27.7601L9.72277 27.5358V27.3509L9.28121 27.2643L9.95676 26.2177C10.8852 25.9068 12.0325 25.5015 12.9571 25.1868C13.059 25.293 13.1874 25.4386 13.3119 25.5566C14.0818 26.2846 15.248 27.225 16.1462 28.0001Z" fill="white"/>
</svg>
