<svg width="80" height="50" viewBox="0 0 80 50" fill="none" xmlns="http://www.w3.org/2000/svg">
<rect width="80" height="50" fill="black"/>
<path d="M20.9061 25.2231C20.3252 24.7022 20.1814 24.0197 20.1814 23.451C20.1814 23.05 20.3193 22.3495 20.8524 21.8165C21.2114 21.4574 21.7566 21.1759 22.6789 21.1759C22.9184 21.1759 23.2539 21.194 23.5471 21.248C23.7748 21.2896 23.9664 21.3257 24.1581 21.3375C24.224 21.3437 24.2358 21.3676 24.2358 21.4033C24.2358 21.4515 24.2177 21.5232 24.2059 21.7388C24.1938 21.9364 24.1938 22.2656 24.1879 22.3554C24.182 22.4452 24.1699 22.4812 24.1342 22.4812C24.0923 22.4812 24.086 22.4393 24.086 22.3554C24.086 22.1218 23.9904 21.8764 23.8347 21.7447C23.6251 21.5652 23.1638 21.4033 22.6369 21.4033C21.8405 21.4033 21.469 21.6369 21.2596 21.8404C20.8222 22.2597 20.7203 22.7925 20.7203 23.4031C20.7203 24.5466 21.601 25.5943 22.8823 25.5943C23.3315 25.5943 23.685 25.5402 23.9245 25.2949C24.0503 25.1631 24.128 24.8997 24.146 24.7919C24.1581 24.7261 24.1699 24.7022 24.2059 24.7022C24.2358 24.7022 24.2479 24.7441 24.2479 24.7919C24.2479 24.8339 24.1761 25.3548 24.1162 25.5583C24.0801 25.6719 24.068 25.6841 23.9606 25.7319C23.7207 25.8276 23.2657 25.8695 22.8823 25.8695C21.9843 25.8695 21.3792 25.648 20.9061 25.2231Z" fill="white"/>
<path d="M20.9061 25.2231C20.3252 24.7022 20.1814 24.0197 20.1814 23.451C20.1814 23.05 20.3193 22.3495 20.8524 21.8165C21.2114 21.4574 21.7566 21.1759 22.6789 21.1759C22.9184 21.1759 23.2539 21.194 23.5471 21.248C23.7748 21.2896 23.9664 21.3257 24.1581 21.3375C24.224 21.3437 24.2358 21.3676 24.2358 21.4033C24.2358 21.4515 24.2177 21.5232 24.2059 21.7388C24.1938 21.9364 24.1938 22.2656 24.1879 22.3554C24.182 22.4452 24.1699 22.4812 24.1342 22.4812C24.0923 22.4812 24.086 22.4393 24.086 22.3554C24.086 22.1218 23.9904 21.8764 23.8347 21.7447C23.6251 21.5652 23.1638 21.4033 22.6369 21.4033C21.8405 21.4033 21.469 21.6369 21.2596 21.8404C20.8222 22.2597 20.7203 22.7925 20.7203 23.4031C20.7203 24.5466 21.601 25.5943 22.8823 25.5943C23.3315 25.5943 23.685 25.5402 23.9245 25.2949C24.0503 25.1631 24.128 24.8997 24.146 24.7919C24.1581 24.7261 24.1699 24.7022 24.2059 24.7022C24.2358 24.7022 24.2479 24.7441 24.2479 24.7919C24.2479 24.8339 24.1761 25.3548 24.1162 25.5583C24.0801 25.6719 24.068 25.6841 23.9606 25.7319C23.7207 25.8276 23.2657 25.8695 22.8823 25.8695C21.9843 25.8695 21.3792 25.648 20.9061 25.2231Z" stroke="white" stroke-width="0.0783167"/>
<path d="M27.2299 25.642C27.703 25.642 28.6551 25.3904 28.6551 23.9177C28.6551 22.6963 27.9124 22.0558 27.0802 22.0558C26.1999 22.0558 25.5649 22.6066 25.5649 23.7143C25.5649 24.8996 26.2775 25.642 27.2299 25.642ZM27.11 21.8642C28.2957 21.8642 29.1944 22.5885 29.1944 23.7739C29.1944 24.9117 28.3498 25.8517 27.0802 25.8517C25.6367 25.8517 25.0198 24.7679 25.0198 23.8519C25.0198 23.0318 25.6547 21.8642 27.11 21.8642" fill="white"/>
<path d="M27.2297 25.6421C27.7028 25.6421 28.6549 25.3905 28.6549 23.9178C28.6549 22.6964 27.9121 22.0559 27.08 22.0559C26.1996 22.0559 25.5647 22.6066 25.5647 23.7143C25.5647 24.8997 26.2773 25.6421 27.2297 25.6421Z" stroke="white" stroke-width="0.0783167"/>
<path d="M27.11 21.8641C28.2957 21.8641 29.1944 22.5885 29.1944 23.7738C29.1944 24.9114 28.3498 25.8513 27.0799 25.8513C25.6367 25.8513 25.0198 24.7679 25.0198 23.8518C25.0198 23.0314 25.6547 21.8641 27.11 21.8641Z" stroke="white" stroke-width="0.0783167"/>
<path d="M30.9124 24.319C30.9124 25.0673 30.9242 25.3727 31.0202 25.4624C31.104 25.5463 31.3075 25.5824 31.721 25.5824C31.9962 25.5824 32.2298 25.5765 32.3556 25.4267C32.4214 25.3488 32.4634 25.241 32.4814 25.1394C32.4873 25.1034 32.5053 25.0732 32.5351 25.0732C32.5593 25.0732 32.5711 25.0975 32.5711 25.1512C32.5711 25.2053 32.5351 25.5103 32.4935 25.66C32.4575 25.7796 32.4394 25.7976 32.158 25.7976C31.7806 25.7976 31.4874 25.7917 31.2416 25.7796C31.0021 25.774 30.8226 25.7678 30.6667 25.7678C30.6427 25.7678 30.553 25.7678 30.4511 25.774C30.3433 25.7796 30.2296 25.7858 30.1457 25.7858C30.0917 25.7858 30.0619 25.774 30.0619 25.7439C30.0619 25.7259 30.074 25.7019 30.1038 25.7019C30.1516 25.7019 30.2175 25.6901 30.2653 25.678C30.3675 25.6541 30.3793 25.5584 30.4032 25.4087C30.4331 25.1994 30.4331 24.798 30.4331 24.3072V23.4089C30.4331 22.619 30.4331 22.4752 30.4213 22.3133C30.4095 22.14 30.3793 22.0561 30.2057 22.0322C30.1638 22.026 30.074 22.0201 30.0258 22.0201C30.0081 22.0201 29.9839 21.9962 29.9839 21.9782C29.9839 21.9483 30.0081 21.9362 30.0678 21.9362C30.3076 21.9362 30.6368 21.9483 30.6667 21.9483C30.6909 21.9483 31.086 21.9362 31.2479 21.9362C31.3016 21.9362 31.3314 21.9483 31.3314 21.9782C31.3314 21.9962 31.3078 22.0142 31.2898 22.0142C31.2534 22.0142 31.1758 22.0201 31.1158 22.026C30.9602 22.0561 30.9304 22.1338 30.9183 22.3133C30.9124 22.4752 30.9124 22.619 30.9124 23.4089V24.319Z" fill="white"/>
<path d="M30.9124 24.319C30.9124 25.0673 30.9242 25.3727 31.0202 25.4624C31.104 25.5463 31.3075 25.5824 31.721 25.5824C31.9962 25.5824 32.2298 25.5765 32.3556 25.4267C32.4214 25.3488 32.4634 25.241 32.4814 25.1394C32.4873 25.1034 32.5053 25.0732 32.5351 25.0732C32.5593 25.0732 32.5711 25.0975 32.5711 25.1512C32.5711 25.2053 32.5351 25.5103 32.4935 25.66C32.4575 25.7796 32.4394 25.7976 32.158 25.7976C31.7806 25.7976 31.4874 25.7917 31.2416 25.7796C31.0021 25.774 30.8226 25.7678 30.6667 25.7678C30.6427 25.7678 30.553 25.7678 30.4511 25.774C30.3433 25.7796 30.2296 25.7858 30.1457 25.7858C30.0917 25.7858 30.0619 25.774 30.0619 25.7439C30.0619 25.7259 30.074 25.7019 30.1038 25.7019C30.1516 25.7019 30.2175 25.6901 30.2653 25.678C30.3675 25.6541 30.3793 25.5584 30.4032 25.4087C30.4331 25.1994 30.4331 24.798 30.4331 24.3072V23.4089C30.4331 22.619 30.4331 22.4752 30.4213 22.3133C30.4095 22.14 30.3793 22.0561 30.2057 22.0322C30.1638 22.026 30.074 22.0201 30.0258 22.0201C30.0081 22.0201 29.9839 21.9962 29.9839 21.9782C29.9839 21.9483 30.0081 21.9362 30.0678 21.9362C30.3076 21.9362 30.6368 21.9483 30.6667 21.9483C30.6909 21.9483 31.086 21.9362 31.2479 21.9362C31.3016 21.9362 31.3314 21.9483 31.3314 21.9782C31.3314 21.9962 31.3078 22.0142 31.2898 22.0142C31.2534 22.0142 31.1758 22.0201 31.1158 22.026C30.9602 22.0561 30.9304 22.1338 30.9183 22.3133C30.9124 22.4752 30.9124 22.619 30.9124 23.4089V24.319Z" stroke="white" stroke-width="0.0783167"/>
<path d="M33.4746 23.4089C33.4746 22.6187 33.4746 22.4749 33.4624 22.3133C33.4506 22.1518 33.4205 22.0558 33.2469 22.0319C33.2049 22.026 33.1152 22.0201 33.0673 22.0201C33.0493 22.0201 33.0254 21.9959 33.0254 21.9782C33.0254 21.948 33.0493 21.9362 33.1093 21.9362C33.3488 21.9362 33.6662 21.948 33.7141 21.948C33.7622 21.948 34.0915 21.9362 34.2471 21.9362C34.3071 21.9362 34.3369 21.948 34.3369 21.9782C34.3369 21.9959 34.313 22.0201 34.289 22.0201C34.253 22.0201 34.2232 22.0201 34.1573 22.0319C34.0194 22.0558 33.9896 22.1456 33.9775 22.3133C33.9657 22.4749 33.9657 22.6187 33.9657 23.4089V24.1215C33.9657 24.8577 34.1272 25.163 34.3549 25.3665C34.6124 25.6001 34.8401 25.642 35.1396 25.642C35.4629 25.642 35.7742 25.4982 35.954 25.2829C36.1994 24.9894 36.2535 24.5703 36.2535 24.0494V23.4089C36.2535 22.6187 36.2473 22.4749 36.2414 22.3133C36.2355 22.1518 36.2053 22.0558 36.0317 22.0319C35.9901 22.026 35.9 22.0201 35.8521 22.0201C35.8282 22.0201 35.8102 21.9959 35.8102 21.9782C35.8102 21.948 35.8341 21.9362 35.8941 21.9362C36.1277 21.9362 36.433 21.948 36.4628 21.948C36.4989 21.948 36.7505 21.9362 36.9061 21.9362C36.9661 21.9362 36.99 21.948 36.99 21.9782C36.99 21.9959 36.972 22.0201 36.948 22.0201C36.912 22.0201 36.8822 22.0201 36.8163 22.0319C36.6725 22.0617 36.6427 22.1456 36.6306 22.3133C36.6188 22.4749 36.6247 22.6187 36.6247 23.4089V23.9538C36.6247 24.5045 36.5526 25.1211 36.1336 25.4805C35.7502 25.8097 35.343 25.8517 35.0318 25.8517C34.8578 25.8517 34.3071 25.8396 33.9355 25.4923C33.6783 25.2528 33.4746 24.8996 33.4746 24.1572V23.4089Z" fill="white"/>
<path d="M33.4746 23.4089C33.4746 22.6187 33.4746 22.4749 33.4624 22.3133C33.4506 22.1518 33.4205 22.0558 33.2469 22.0319C33.2049 22.026 33.1152 22.0201 33.0673 22.0201C33.0493 22.0201 33.0254 21.9959 33.0254 21.9782C33.0254 21.948 33.0493 21.9362 33.1093 21.9362C33.3488 21.9362 33.6662 21.948 33.7141 21.948C33.7622 21.948 34.0915 21.9362 34.2471 21.9362C34.3071 21.9362 34.3369 21.948 34.3369 21.9782C34.3369 21.9959 34.313 22.0201 34.289 22.0201C34.253 22.0201 34.2232 22.0201 34.1573 22.0319C34.0194 22.0558 33.9896 22.1456 33.9775 22.3133C33.9657 22.4749 33.9657 22.6187 33.9657 23.4089V24.1215C33.9657 24.8577 34.1272 25.163 34.3549 25.3665C34.6124 25.6001 34.8401 25.642 35.1396 25.642C35.4629 25.642 35.7742 25.4982 35.954 25.2829C36.1994 24.9894 36.2535 24.5703 36.2535 24.0494V23.4089C36.2535 22.6187 36.2473 22.4749 36.2414 22.3133C36.2355 22.1518 36.2053 22.0558 36.0317 22.0319C35.9901 22.026 35.9 22.0201 35.8521 22.0201C35.8282 22.0201 35.8102 21.9959 35.8102 21.9782C35.8102 21.948 35.8341 21.9362 35.8941 21.9362C36.1277 21.9362 36.433 21.948 36.4628 21.948C36.4989 21.948 36.7505 21.9362 36.9061 21.9362C36.9661 21.9362 36.99 21.948 36.99 21.9782C36.99 21.9959 36.972 22.0201 36.948 22.0201C36.912 22.0201 36.8822 22.0201 36.8163 22.0319C36.6725 22.0617 36.6427 22.1456 36.6306 22.3133C36.6188 22.4749 36.6247 22.6187 36.6247 23.4089V23.9538C36.6247 24.5045 36.5526 25.1211 36.1336 25.4805C35.7502 25.8097 35.343 25.8517 35.0318 25.8517C34.8578 25.8517 34.3071 25.8396 33.9355 25.4923C33.6783 25.2528 33.4746 24.8996 33.4746 24.1572V23.4089Z" stroke="white" stroke-width="0.0783167"/>
<path d="M42.1218 25.127C42.1398 25.3065 42.1756 25.5821 42.3915 25.6538C42.5412 25.7017 42.6788 25.7017 42.7328 25.7017C42.7568 25.7017 42.7745 25.7138 42.7745 25.7377C42.7745 25.7675 42.7266 25.7855 42.6667 25.7855C42.5471 25.7855 41.96 25.7737 41.7683 25.7557C41.6428 25.7436 41.6186 25.7259 41.6186 25.7017C41.6186 25.684 41.6307 25.6659 41.6546 25.6597C41.6848 25.6538 41.6907 25.5762 41.6785 25.4802L41.4269 22.906H41.4151L40.1453 25.5041C40.0378 25.7259 40.0077 25.7737 39.9598 25.7737C39.912 25.7737 39.8818 25.7259 39.7803 25.5401C39.6424 25.2888 39.2951 24.6362 39.1634 24.3607C39.0077 24.0373 38.5825 23.1812 38.4927 22.9719H38.4688L38.265 25.2708C38.2591 25.3485 38.2591 25.4445 38.2591 25.528C38.2591 25.606 38.307 25.6538 38.3849 25.6718C38.4747 25.6958 38.5523 25.7017 38.5884 25.7017C38.6064 25.7017 38.6303 25.7197 38.6303 25.7377C38.6303 25.7737 38.5946 25.7855 38.5347 25.7855C38.3371 25.7855 38.0855 25.7675 38.0435 25.7675C37.9954 25.7675 37.7441 25.7855 37.6003 25.7855C37.5462 25.7855 37.5105 25.7737 37.5105 25.7377C37.5105 25.7197 37.5344 25.7017 37.5642 25.7017C37.6062 25.7017 37.6422 25.6958 37.7202 25.684C37.8938 25.6538 37.8997 25.4684 37.9236 25.2767L38.307 21.9539C38.3129 21.9002 38.3371 21.8642 38.3666 21.8642C38.4029 21.8642 38.4446 21.8822 38.4747 21.9422L40.0676 25.1031L41.6009 21.948C41.6248 21.9002 41.6487 21.8642 41.6848 21.8642C41.7205 21.8642 41.7503 21.9061 41.7624 22.0018L42.1218 25.127Z" fill="white"/>
<path d="M42.1218 25.127C42.1398 25.3065 42.1756 25.5821 42.3915 25.6538C42.5412 25.7017 42.6788 25.7017 42.7328 25.7017C42.7568 25.7017 42.7745 25.7138 42.7745 25.7377C42.7745 25.7675 42.7266 25.7855 42.6667 25.7855C42.5471 25.7855 41.96 25.7737 41.7683 25.7557C41.6428 25.7436 41.6186 25.7259 41.6186 25.7017C41.6186 25.684 41.6307 25.6659 41.6546 25.6597C41.6848 25.6538 41.6907 25.5762 41.6785 25.4802L41.4269 22.906H41.4151L40.1453 25.5041C40.0378 25.7259 40.0077 25.7737 39.9598 25.7737C39.912 25.7737 39.8818 25.7259 39.7803 25.5401C39.6424 25.2888 39.2951 24.6362 39.1634 24.3607C39.0077 24.0373 38.5825 23.1812 38.4927 22.9719H38.4688L38.265 25.2708C38.2591 25.3485 38.2591 25.4445 38.2591 25.528C38.2591 25.606 38.307 25.6538 38.3849 25.6718C38.4747 25.6958 38.5523 25.7017 38.5884 25.7017C38.6064 25.7017 38.6303 25.7197 38.6303 25.7377C38.6303 25.7737 38.5946 25.7855 38.5347 25.7855C38.3371 25.7855 38.0855 25.7675 38.0435 25.7675C37.9954 25.7675 37.7441 25.7855 37.6003 25.7855C37.5462 25.7855 37.5105 25.7737 37.5105 25.7377C37.5105 25.7197 37.5344 25.7017 37.5642 25.7017C37.6062 25.7017 37.6422 25.6958 37.7202 25.684C37.8938 25.6538 37.8997 25.4684 37.9236 25.2767L38.307 21.9539C38.3129 21.9002 38.3371 21.8642 38.3666 21.8642C38.4029 21.8642 38.4446 21.8822 38.4747 21.9422L40.0676 25.1031L41.6009 21.948C41.6248 21.9002 41.6487 21.8642 41.6848 21.8642C41.7205 21.8642 41.7503 21.9061 41.7624 22.0018L42.1218 25.127Z" stroke="white" stroke-width="0.0783167"/>
<path d="M44.3012 24.0795C44.3012 24.4747 44.3012 25.0854 44.3071 25.163C44.3251 25.4084 44.3251 25.4683 44.487 25.5463C44.6305 25.6122 44.852 25.6181 44.948 25.6181C45.2952 25.6181 45.7205 25.4864 45.7205 24.8337C45.7205 24.6064 45.6307 24.1693 45.2173 23.9059C45.038 23.7922 44.87 23.7981 44.7445 23.7742C44.6786 23.7621 44.4149 23.7621 44.331 23.7621C44.313 23.7621 44.3012 23.7742 44.3012 23.7981V24.0795ZM44.3012 23.5167C44.3012 23.5527 44.313 23.5648 44.3373 23.5707C44.3671 23.5766 44.4631 23.5947 44.6606 23.5947C44.9538 23.5947 45.0679 23.5825 45.1756 23.463C45.2893 23.3371 45.3791 23.1635 45.3791 22.9181C45.3791 22.5289 45.1635 22.0977 44.6364 22.0977C44.5768 22.0977 44.4509 22.104 44.3671 22.1217C44.3192 22.1338 44.3012 22.1459 44.3012 22.1757V23.5167ZM43.8458 23.4089C43.8458 22.6187 43.8458 22.4748 43.834 22.3133C43.8222 22.1397 43.7924 22.044 43.6184 22.0201C43.5765 22.0139 43.4867 22.008 43.4389 22.008C43.4209 22.008 43.397 21.9962 43.397 21.9782C43.397 21.948 43.4209 21.9362 43.4808 21.9362C43.7203 21.9362 44.0617 21.948 44.0915 21.948C44.2173 21.948 44.4631 21.9362 44.7085 21.9362C45.5888 21.9362 45.8162 22.445 45.8162 22.7143C45.8162 23.1157 45.5527 23.367 45.2834 23.6065C45.6848 23.7264 46.2116 24.0913 46.2116 24.6663C46.2116 25.2351 45.7863 25.7976 44.888 25.7976C44.7923 25.7976 44.6007 25.7917 44.4329 25.7796C44.2655 25.7737 44.1155 25.7678 44.0915 25.7678C44.0797 25.7678 43.9837 25.7737 43.876 25.7737C43.7682 25.7796 43.6424 25.7858 43.5585 25.7858C43.5048 25.7858 43.4746 25.7737 43.4746 25.7439C43.4746 25.7259 43.4867 25.7137 43.5166 25.7137C43.5644 25.7137 43.6306 25.696 43.6784 25.6901C43.78 25.6721 43.7924 25.5581 43.816 25.4084C43.8458 25.199 43.8458 24.798 43.8458 24.3069V23.4089" fill="white"/>
<path d="M44.3013 24.0794C44.3013 24.4745 44.3013 25.0852 44.3072 25.1628C44.3252 25.4082 44.3252 25.4682 44.487 25.5462C44.6305 25.612 44.852 25.6179 44.948 25.6179C45.2953 25.6179 45.7205 25.4862 45.7205 24.8336C45.7205 24.6062 45.6308 24.1692 45.2173 23.9058C45.0381 23.7921 44.87 23.798 44.7445 23.774C44.6787 23.7619 44.415 23.7619 44.3311 23.7619C44.3131 23.7619 44.3013 23.774 44.3013 23.798V24.0794Z" stroke="white" stroke-width="0.0783167"/>
<path d="M44.3013 23.5167C44.3013 23.5524 44.3131 23.5645 44.3373 23.5704C44.3671 23.5767 44.4631 23.5944 44.6607 23.5944C44.9539 23.5944 45.0679 23.5826 45.1757 23.4627C45.2894 23.3372 45.3792 23.1635 45.3792 22.9181C45.3792 22.5289 45.1636 22.0978 44.6364 22.0978C44.5768 22.0978 44.451 22.1037 44.3671 22.1217C44.3193 22.1338 44.3013 22.1456 44.3013 22.1757V23.5167Z" stroke="white" stroke-width="0.0783167"/>
<path d="M43.8461 23.4089C43.8461 22.6187 43.8461 22.4748 43.8344 22.3133C43.8226 22.1397 43.7924 22.044 43.6184 22.0201C43.5765 22.0139 43.4871 22.008 43.4392 22.008C43.4212 22.008 43.397 21.9958 43.397 21.9782C43.397 21.948 43.4212 21.9362 43.4808 21.9362C43.7207 21.9362 44.0621 21.948 44.0919 21.948C44.2177 21.948 44.4631 21.9362 44.7088 21.9362C45.5891 21.9362 45.8165 22.445 45.8165 22.7143C45.8165 23.1157 45.5531 23.367 45.2838 23.6065C45.6848 23.7264 46.2119 24.0913 46.2119 24.666C46.2119 25.2347 45.7867 25.7976 44.8883 25.7976C44.7927 25.7976 44.6007 25.7917 44.4333 25.7796C44.2655 25.7737 44.1158 25.7678 44.0919 25.7678C44.0801 25.7678 43.9841 25.7737 43.8763 25.7737C43.7685 25.7796 43.6427 25.7858 43.5588 25.7858C43.5051 25.7858 43.4749 25.7737 43.4749 25.7439C43.4749 25.7259 43.4871 25.7137 43.5169 25.7137C43.5647 25.7137 43.6306 25.696 43.6784 25.6898C43.7803 25.6718 43.7924 25.5581 43.8163 25.4084C43.8461 25.199 43.8461 24.798 43.8461 24.3069V23.4089Z" stroke="white" stroke-width="0.0783167"/>
<path d="M47.7788 24.3067C47.7788 24.7979 47.7788 25.1989 47.8027 25.4082C47.8207 25.5579 47.8388 25.6539 47.9944 25.6779C48.0724 25.6897 48.1861 25.7018 48.2342 25.7018C48.264 25.7018 48.2761 25.7257 48.2761 25.7437C48.2761 25.7676 48.2519 25.7856 48.1923 25.7856C47.8987 25.7856 47.5573 25.7676 47.5334 25.7676C47.5033 25.7676 47.174 25.7856 47.0125 25.7856C46.9584 25.7856 46.9286 25.7735 46.9286 25.7437C46.9286 25.7257 46.9404 25.7018 46.9702 25.7018C47.0184 25.7018 47.0842 25.6897 47.1321 25.6779C47.234 25.6539 47.2517 25.5579 47.2697 25.4082C47.2939 25.1989 47.2995 24.7979 47.2995 24.3067V23.4087C47.2995 22.6185 47.2995 22.4747 47.2877 22.3131C47.2759 22.1395 47.234 22.0615 47.12 22.0376C47.0603 22.0258 46.9945 22.0199 46.9584 22.0199C46.9345 22.0199 46.9165 21.9957 46.9165 21.978C46.9165 21.9478 46.9404 21.936 47.0004 21.936C47.174 21.936 47.5033 21.9478 47.5334 21.9478C47.5573 21.9478 47.8987 21.936 48.0602 21.936C48.1202 21.936 48.1441 21.9478 48.1441 21.978C48.1441 21.9957 48.1202 22.0199 48.1025 22.0199C48.0665 22.0199 48.0304 22.0199 47.9708 22.0317C47.8266 22.0615 47.7968 22.1336 47.7847 22.3131C47.7788 22.4747 47.7788 22.6185 47.7788 23.4087V24.3067Z" fill="white"/>
<path d="M47.7788 24.3067C47.7788 24.7979 47.7788 25.1989 47.8027 25.4082C47.8207 25.5579 47.8388 25.6539 47.9944 25.6779C48.0724 25.6897 48.1861 25.7018 48.2342 25.7018C48.264 25.7018 48.2761 25.7257 48.2761 25.7437C48.2761 25.7676 48.2519 25.7856 48.1923 25.7856C47.8987 25.7856 47.5573 25.7676 47.5334 25.7676C47.5033 25.7676 47.174 25.7856 47.0125 25.7856C46.9584 25.7856 46.9286 25.7735 46.9286 25.7437C46.9286 25.7257 46.9404 25.7018 46.9702 25.7018C47.0184 25.7018 47.0842 25.6897 47.1321 25.6779C47.234 25.6539 47.2517 25.5579 47.2697 25.4082C47.2939 25.1989 47.2995 24.7979 47.2995 24.3067V23.4087C47.2995 22.6185 47.2995 22.4747 47.2877 22.3131C47.2759 22.1395 47.234 22.0615 47.12 22.0376C47.0603 22.0258 46.9945 22.0199 46.9584 22.0199C46.9345 22.0199 46.9165 21.9957 46.9165 21.978C46.9165 21.9478 46.9404 21.936 47.0004 21.936C47.174 21.936 47.5033 21.9478 47.5334 21.9478C47.5573 21.9478 47.8987 21.936 48.0602 21.936C48.1202 21.936 48.1441 21.9478 48.1441 21.978C48.1441 21.9957 48.1202 22.0199 48.1025 22.0199C48.0665 22.0199 48.0304 22.0199 47.9708 22.0317C47.8266 22.0615 47.7968 22.1336 47.7847 22.3131C47.7788 22.4747 47.7788 22.6185 47.7788 23.4087V24.3067Z" stroke="white" stroke-width="0.0783167"/>
<path d="M51.337 24.157C51.3609 24.157 51.3609 24.1449 51.355 24.121L50.8341 22.7263C50.804 22.6483 50.7742 22.6483 50.7443 22.7263L50.2532 24.121C50.247 24.1449 50.2532 24.157 50.2712 24.157H51.337ZM50.7502 22.0376C50.8161 21.8699 50.84 21.8401 50.876 21.8401C50.9298 21.8401 50.9478 21.9118 51.0019 22.0258C51.0975 22.2411 51.9418 24.3428 52.2655 25.115C52.4568 25.5697 52.6007 25.6356 52.7143 25.6716C52.7923 25.6955 52.87 25.7018 52.924 25.7018C52.9542 25.7018 52.9902 25.7136 52.9902 25.7437C52.9902 25.7735 52.9303 25.7856 52.87 25.7856C52.7923 25.7856 52.4031 25.7856 52.0378 25.7735C51.9359 25.7676 51.8524 25.7676 51.8524 25.7375C51.8524 25.7136 51.8642 25.7136 51.8881 25.7018C51.9179 25.6897 51.9719 25.6477 51.9359 25.5638L51.4628 24.3965C51.451 24.3726 51.4448 24.3667 51.415 24.3667H50.1992C50.1753 24.3667 50.1572 24.3785 50.1451 24.4083L49.8457 25.2228C49.7978 25.3483 49.768 25.4741 49.768 25.5638C49.768 25.6657 49.8578 25.7018 49.9476 25.7018H49.9957C50.0377 25.7018 50.0494 25.7195 50.0494 25.7437C50.0494 25.7735 50.0196 25.7856 49.9715 25.7856C49.8457 25.7856 49.5583 25.7676 49.4987 25.7676C49.4446 25.7676 49.1812 25.7856 48.9657 25.7856C48.8995 25.7856 48.8638 25.7735 48.8638 25.7437C48.8638 25.7195 48.8877 25.7018 48.9116 25.7018C48.9476 25.7018 49.0256 25.6955 49.0676 25.6897C49.307 25.6598 49.4086 25.4803 49.5105 25.2228L50.7502 22.0376" fill="white"/>
<path d="M51.3371 24.1572C51.361 24.1572 51.361 24.1451 51.3551 24.1212L50.8342 22.7265C50.8041 22.6485 50.7742 22.6485 50.7444 22.7265L50.2533 24.1212C50.2471 24.1451 50.2533 24.1572 50.2713 24.1572H51.3371Z" stroke="white" stroke-width="0.0783167"/>
<path d="M50.7502 22.0378C50.8161 21.8701 50.84 21.8403 50.876 21.8403C50.9298 21.8403 50.9478 21.912 51.0019 22.026C51.0975 22.2413 51.9418 24.343 52.2652 25.1152C52.4568 25.5699 52.6007 25.6358 52.7143 25.6718C52.7923 25.6958 52.87 25.7017 52.924 25.7017C52.9542 25.7017 52.9902 25.7138 52.9902 25.7439C52.9902 25.7737 52.9303 25.7855 52.87 25.7855C52.7923 25.7855 52.4031 25.7855 52.0378 25.7737C51.9359 25.7675 51.852 25.7675 51.852 25.7377C51.852 25.7138 51.8642 25.7138 51.8881 25.7017C51.9179 25.6899 51.9719 25.6479 51.9359 25.564L51.4628 24.3967C51.451 24.3728 51.4448 24.3669 51.415 24.3669H50.1992C50.1753 24.3669 50.1572 24.3787 50.1451 24.4085L49.8457 25.223C49.7978 25.3485 49.768 25.4743 49.768 25.564C49.768 25.6659 49.8578 25.7017 49.9476 25.7017H49.9957C50.0373 25.7017 50.0494 25.7197 50.0494 25.7439C50.0494 25.7737 50.0193 25.7855 49.9715 25.7855C49.8457 25.7855 49.5583 25.7675 49.4987 25.7675C49.4446 25.7675 49.1812 25.7855 48.9657 25.7855C48.8995 25.7855 48.8638 25.7737 48.8638 25.7439C48.8638 25.7197 48.8877 25.7017 48.9116 25.7017C48.9476 25.7017 49.0256 25.6958 49.0672 25.6899C49.307 25.66 49.4086 25.4805 49.5105 25.223L50.7502 22.0378Z" stroke="white" stroke-width="0.0783167"/>
<path d="M60.1805 24.259C60.1805 23.7741 60.1504 23.7083 59.9109 23.6424C59.8634 23.6303 59.7615 23.6244 59.7074 23.6244C59.6835 23.6244 59.6596 23.6126 59.6596 23.5887C59.6596 23.5527 59.6894 23.5405 59.7556 23.5405C60.0249 23.5405 60.402 23.5586 60.4325 23.5586C60.4623 23.5586 60.8394 23.5405 61.0189 23.5405C61.0851 23.5405 61.1149 23.5527 61.1149 23.5887C61.1149 23.6126 61.091 23.6244 61.0668 23.6244C61.0251 23.6244 60.9891 23.6303 60.9174 23.6424C60.7555 23.6722 60.7077 23.7741 60.6956 23.9835C60.6838 24.1752 60.6838 24.355 60.6838 24.6063V25.277C60.6838 25.5463 60.6775 25.5584 60.6058 25.6C60.2225 25.8038 59.6835 25.8696 59.3362 25.8696C58.8808 25.8696 58.0307 25.8097 57.3659 25.2291C57.0006 24.9117 56.6533 24.2711 56.6533 23.5225C56.6533 22.5649 57.1202 21.8883 57.6532 21.5532C58.1922 21.2177 58.7852 21.1761 59.2465 21.1761C59.6236 21.1761 60.0488 21.2537 60.1628 21.2776C60.2883 21.3074 60.498 21.3314 60.6481 21.3376C60.7077 21.3435 60.7198 21.3674 60.7198 21.3913C60.7198 21.4752 60.6775 21.6429 60.6775 22.2415C60.6775 22.3375 60.6657 22.3673 60.6238 22.3673C60.594 22.3673 60.5881 22.3313 60.5819 22.2775C60.576 22.1937 60.5458 22.0259 60.4561 21.8824C60.3063 21.6547 59.8215 21.3975 59.0489 21.3975C58.6715 21.3975 58.2223 21.4333 57.7669 21.7927C57.4196 22.0679 57.1742 22.6127 57.1742 23.3132C57.1742 24.1575 57.5995 24.7678 57.8092 24.9716C58.2823 25.4326 58.8271 25.6121 59.3782 25.6121C59.5938 25.6121 59.9053 25.5764 60.0609 25.4863C60.1389 25.4444 60.1805 25.3785 60.1805 25.277V24.259Z" fill="#A8AAAE"/>
<path d="M60.1805 24.259C60.1805 23.7741 60.1504 23.7083 59.9109 23.6424C59.8634 23.6303 59.7615 23.6244 59.7074 23.6244C59.6835 23.6244 59.6596 23.6126 59.6596 23.5887C59.6596 23.5527 59.6894 23.5405 59.7556 23.5405C60.0249 23.5405 60.402 23.5586 60.4325 23.5586C60.4623 23.5586 60.8394 23.5405 61.0189 23.5405C61.0851 23.5405 61.1149 23.5527 61.1149 23.5887C61.1149 23.6126 61.091 23.6244 61.0668 23.6244C61.0251 23.6244 60.9891 23.6303 60.9174 23.6424C60.7555 23.6722 60.7077 23.7741 60.6956 23.9835C60.6838 24.1752 60.6838 24.355 60.6838 24.6063V25.277C60.6838 25.5463 60.6775 25.5584 60.6058 25.6C60.2225 25.8038 59.6835 25.8696 59.3362 25.8696C58.8808 25.8696 58.0307 25.8097 57.3659 25.2291C57.0006 24.9117 56.6533 24.2711 56.6533 23.5225C56.6533 22.5649 57.1202 21.8883 57.6532 21.5532C58.1922 21.2177 58.7852 21.1761 59.2465 21.1761C59.6236 21.1761 60.0488 21.2537 60.1628 21.2776C60.2883 21.3074 60.498 21.3314 60.6481 21.3376C60.7077 21.3435 60.7198 21.3674 60.7198 21.3913C60.7198 21.4752 60.6775 21.6429 60.6775 22.2415C60.6775 22.3375 60.6657 22.3673 60.6238 22.3673C60.594 22.3673 60.5881 22.3313 60.5819 22.2775C60.576 22.1937 60.5458 22.0259 60.4561 21.8824C60.3063 21.6547 59.8215 21.3975 59.0489 21.3975C58.6715 21.3975 58.2223 21.4333 57.7669 21.7927C57.4196 22.0679 57.1742 22.6127 57.1742 23.3132C57.1742 24.1575 57.5995 24.7678 57.8092 24.9716C58.2823 25.4326 58.8271 25.6121 59.3782 25.6121C59.5938 25.6121 59.9053 25.5764 60.0609 25.4863C60.1389 25.4444 60.1805 25.3785 60.1805 25.277V24.259Z" stroke="#A8AAAE" stroke-width="0.0783167"/>
<path d="M62.252 25.708C62.1685 25.6661 62.1626 25.6421 62.1626 25.4806C62.1626 25.1812 62.1862 24.9417 62.1924 24.846C62.198 24.7802 62.2104 24.75 62.2399 24.75C62.2763 24.75 62.2822 24.768 62.2822 24.8159C62.2822 24.8699 62.2822 24.9538 62.2999 25.0373C62.39 25.4806 62.7851 25.648 63.1864 25.648C63.7614 25.648 64.0428 25.2349 64.0428 24.8519C64.0428 24.4388 63.8692 24.1993 63.3538 23.7743L63.0845 23.5525C62.4499 23.0319 62.3061 22.6607 62.3061 22.2535C62.3061 21.613 62.7851 21.1759 63.5455 21.1759C63.7791 21.1759 63.9527 21.1999 64.1028 21.2359C64.2165 21.2598 64.2643 21.2657 64.3121 21.2657C64.36 21.2657 64.3721 21.2778 64.3721 21.3077C64.3721 21.3375 64.3485 21.535 64.3485 21.9423C64.3485 22.0379 64.3364 22.0799 64.3062 22.0799C64.2702 22.0799 64.2643 22.0501 64.2584 22.0022C64.2522 21.9301 64.2165 21.7686 64.1804 21.7028C64.1447 21.6369 63.9829 21.3856 63.4318 21.3856C63.0187 21.3856 62.6956 21.6428 62.6956 22.0799C62.6956 22.4213 62.8509 22.6368 63.4259 23.0857L63.5937 23.2174C64.3 23.7743 64.4681 24.1455 64.4681 24.6245C64.4681 24.8699 64.3721 25.3247 63.959 25.6182C63.7015 25.7978 63.3781 25.8695 63.0547 25.8695C62.773 25.8695 62.4978 25.8276 62.252 25.708Z" fill="#A8AAAE"/>
<path d="M62.252 25.708C62.1685 25.6661 62.1626 25.6421 62.1626 25.4806C62.1626 25.1812 62.1862 24.9417 62.1924 24.846C62.198 24.7802 62.2104 24.75 62.2399 24.75C62.2763 24.75 62.2822 24.768 62.2822 24.8159C62.2822 24.8699 62.2822 24.9538 62.2999 25.0373C62.39 25.4806 62.7851 25.648 63.1864 25.648C63.7614 25.648 64.0428 25.2349 64.0428 24.8519C64.0428 24.4388 63.8692 24.1993 63.3538 23.7743L63.0845 23.5525C62.4499 23.0319 62.3061 22.6607 62.3061 22.2535C62.3061 21.613 62.7851 21.1759 63.5455 21.1759C63.7791 21.1759 63.9527 21.1999 64.1028 21.2359C64.2165 21.2598 64.2643 21.2657 64.3121 21.2657C64.36 21.2657 64.3721 21.2778 64.3721 21.3077C64.3721 21.3375 64.3485 21.535 64.3485 21.9423C64.3485 22.0379 64.3364 22.0799 64.3062 22.0799C64.2702 22.0799 64.2643 22.0501 64.2584 22.0022C64.2522 21.9301 64.2165 21.7686 64.1804 21.7028C64.1447 21.6369 63.9829 21.3856 63.4318 21.3856C63.0187 21.3856 62.6956 21.6428 62.6956 22.0799C62.6956 22.4213 62.8509 22.6368 63.4259 23.0857L63.5937 23.2174C64.3 23.7743 64.4681 24.1455 64.4681 24.6245C64.4681 24.8699 64.3721 25.3247 63.959 25.6182C63.7015 25.7978 63.3781 25.8695 63.0547 25.8695C62.773 25.8695 62.4978 25.8276 62.252 25.708Z" stroke="#A8AAAE" stroke-width="0.0783167"/>
<path d="M21.0572 31.0493C20.6303 31.0493 20.3614 30.9173 20.2647 30.8616C20.2038 30.7495 20.1376 30.3892 20.1274 30.1503C20.153 30.1146 20.229 30.1048 20.2493 30.1352C20.3257 30.3941 20.534 30.8921 21.1231 30.8921C21.55 30.8921 21.7584 30.6126 21.7584 30.3079C21.7584 30.0845 21.7125 29.8355 21.3416 29.597L20.859 29.2818C20.6051 29.1144 20.3103 28.8247 20.3103 28.4083C20.3103 27.9257 20.6864 27.5349 21.3469 27.5349C21.5044 27.5349 21.6873 27.5601 21.8193 27.6007C21.8855 27.6158 21.9566 27.6312 21.9972 27.6312C22.0427 27.7531 22.0886 28.0375 22.0886 28.2507C22.0683 28.2812 21.987 28.2966 21.9615 28.2661C21.8956 28.0224 21.7584 27.6921 21.2705 27.6921C20.7725 27.6921 20.6661 28.0224 20.6661 28.256C20.6661 28.5505 20.9098 28.7589 21.0979 28.8808L21.5044 29.1347C21.8245 29.3326 22.1394 29.6271 22.1394 30.1097C22.1394 30.6683 21.7177 31.0493 21.0572 31.0493Z" fill="white"/>
<path d="M24.2535 28.9819C24.2941 29.0172 24.3298 29.0988 24.3298 29.185C24.3298 29.2764 24.279 29.3731 24.2181 29.3731C24.1925 29.3731 24.167 29.3626 24.1467 29.3373C24.035 29.2004 23.8469 29.068 23.6389 29.068C23.2831 29.068 22.9374 29.3475 22.9374 29.8861C22.9374 30.2822 23.212 30.7543 23.7555 30.7543C24.0503 30.7543 24.2027 30.6223 24.3197 30.4496C24.3603 30.4395 24.4058 30.4752 24.4111 30.5207C24.2381 30.8965 23.8571 31.0387 23.5625 31.0387C23.2932 31.0387 23.0442 30.9525 22.8666 30.7799C22.6887 30.6072 22.5718 30.3582 22.5718 30.028C22.5718 29.4795 22.9577 28.8954 23.8014 28.8954C23.918 28.8954 24.1162 28.9209 24.2535 28.9819Z" fill="white"/>
<path d="M24.8524 28.1032C24.8524 27.8034 24.8475 27.773 24.6952 27.6819L24.6441 27.6511C24.6188 27.636 24.6188 27.5649 24.6441 27.5495C24.7712 27.5089 25.01 27.4329 25.1928 27.3362C25.2132 27.3362 25.2335 27.3464 25.2436 27.3667C25.2387 27.5191 25.2286 27.773 25.2286 27.9967V29.0631C25.2286 29.1087 25.2335 29.1496 25.2489 29.1598C25.4317 29.0173 25.6754 28.8954 25.9346 28.8954C26.4172 28.8954 26.5902 29.1952 26.5902 29.5507V30.3989C26.5902 30.7645 26.6003 30.8205 26.7831 30.8408L26.9204 30.8559C26.9558 30.8815 26.9456 30.9676 26.9099 30.983C26.7271 30.9729 26.5797 30.9676 26.4021 30.9676C26.2193 30.9676 26.0666 30.9729 25.9297 30.983C25.894 30.9676 25.8838 30.8815 25.9192 30.8559L26.0211 30.8408C26.2091 30.8104 26.2141 30.7645 26.2141 30.3989V29.6725C26.2141 29.3475 26.0565 29.1293 25.7315 29.1293C25.5585 29.1293 25.4264 29.1903 25.335 29.2663C25.2436 29.3426 25.2286 29.3678 25.2286 29.5457V30.3989C25.2286 30.7645 25.2387 30.8153 25.4215 30.8408L25.5283 30.8559C25.5637 30.8762 25.5536 30.9676 25.5182 30.983C25.3655 30.9729 25.2181 30.9676 25.0405 30.9676C24.8577 30.9676 24.705 30.9729 24.5425 30.983C24.5068 30.9676 24.497 30.8815 24.5324 30.8559L24.6595 30.8408C24.8475 30.8205 24.8524 30.7645 24.8524 30.3989V28.1032Z" fill="white"/>
<path d="M28.206 29.0481C27.8705 29.0481 27.6219 29.3682 27.6219 29.9268C27.6219 30.3891 27.8302 30.8864 28.2771 30.8864C28.7243 30.8864 28.8613 30.4195 28.8613 30.0283C28.8613 29.5965 28.6886 29.0481 28.206 29.0481ZM29.2983 29.9471C29.2983 30.5817 28.8613 31.0391 28.2263 31.0391C27.6422 31.0391 27.1848 30.6276 27.1848 29.9926C27.1848 29.3528 27.6674 28.8957 28.267 28.8957C28.836 28.8957 29.2983 29.3223 29.2983 29.9471" fill="white"/>
<path d="M30.6596 29.0481C30.3241 29.0481 30.0755 29.3682 30.0755 29.9268C30.0755 30.3891 30.2838 30.8864 30.7307 30.8864C31.1779 30.8864 31.3149 30.4195 31.3149 30.0283C31.3149 29.5965 31.1422 29.0481 30.6596 29.0481ZM31.7519 29.9471C31.7519 30.5817 31.3149 31.0391 30.6799 31.0391C30.0958 31.0391 29.6384 30.6276 29.6384 29.9926C29.6384 29.3528 30.1213 28.8957 30.7206 28.8957C31.2897 28.8957 31.7519 29.3223 31.7519 29.9471" fill="white"/>
<path d="M32.7377 30.3992C32.7377 30.7648 32.7479 30.8156 32.9307 30.8408L33.0526 30.8562C33.0883 30.8818 33.0781 30.968 33.0424 30.983C32.875 30.9729 32.7276 30.968 32.5497 30.968C32.3669 30.968 32.2145 30.9729 32.0622 30.983C32.0265 30.968 32.0163 30.8818 32.052 30.8562L32.1687 30.8408C32.3567 30.8156 32.362 30.7648 32.362 30.3992V28.1035C32.362 27.8038 32.3567 27.7733 32.2044 27.6819L32.1536 27.6514C32.128 27.636 32.128 27.5652 32.1536 27.5498C32.2804 27.5092 32.5192 27.4329 32.7024 27.3366C32.7227 27.3366 32.743 27.3467 32.7531 27.367C32.7479 27.5194 32.7377 27.7733 32.7377 27.9967V30.3992Z" fill="white"/>
<path d="M35.6086 29.0481C35.2731 29.0481 35.0245 29.3682 35.0245 29.9268C35.0245 30.3891 35.2328 30.8864 35.6797 30.8864C36.1269 30.8864 36.2642 30.4195 36.2642 30.0283C36.2642 29.5965 36.0915 29.0481 35.6086 29.0481ZM36.7009 29.9471C36.7009 30.5817 36.2642 31.0391 35.6289 31.0391C35.0448 31.0391 34.5874 30.6276 34.5874 29.9926C34.5874 29.3528 35.07 28.8957 35.6695 28.8957C36.2386 28.8957 36.7009 29.3223 36.7009 29.9471" fill="white"/>
<path d="M37.8084 29.1801C37.7219 29.1801 37.7219 29.1903 37.7219 29.3275V30.3992C37.7219 30.7648 37.732 30.8258 37.9148 30.8408L38.098 30.8559C38.1337 30.8815 38.1232 30.968 38.0878 30.983C37.8591 30.9729 37.7117 30.968 37.5341 30.968C37.351 30.968 37.1987 30.9729 37.0463 30.983C37.0106 30.968 37.0004 30.8815 37.0362 30.8559L37.1531 30.8408C37.3408 30.8153 37.3461 30.7648 37.3461 30.3992V29.3275C37.3461 29.1903 37.3461 29.1801 37.2445 29.1801H37.0666C37.0362 29.1598 37.0309 29.1139 37.0512 29.0835L37.2698 28.977C37.3104 28.9567 37.3461 28.9262 37.3461 28.8754C37.3461 28.5806 37.3815 28.2657 37.5037 27.9813C37.6305 27.6917 37.9148 27.3362 38.4181 27.3362C38.6874 27.3362 38.9161 27.4581 38.9161 27.6413C38.9161 27.7428 38.8194 27.8237 38.7228 27.8237C38.6671 27.8237 38.6366 27.8038 38.6009 27.7631C38.5046 27.6514 38.3621 27.5397 38.1943 27.5397C38.0371 27.5397 37.9099 27.636 37.8336 27.8188C37.7422 28.0524 37.7219 28.4233 37.7219 28.6772V28.8246C37.7219 28.9616 37.7219 28.9668 37.8084 28.9668H38.3876C38.4436 29.0176 38.4079 29.1598 38.3519 29.1801H37.8084Z" fill="white"/>
<path d="M42.8684 30.4501C42.8684 30.6532 42.8989 30.7751 42.9903 30.8108C43.0057 30.8259 43.0057 30.8563 42.9854 30.8714C42.9245 30.8714 42.8327 30.8921 42.7364 30.9173C42.4671 30.9884 42.1015 31.0493 41.8269 31.0493C41.2221 31.0493 40.6684 30.8819 40.2773 30.4855C39.9726 30.1808 39.8101 29.7798 39.8101 29.3326C39.8101 28.9011 39.9522 28.464 40.2671 28.1289C40.6075 27.7734 41.1104 27.5349 41.8777 27.5349C42.1673 27.5349 42.4366 27.5906 42.5228 27.6109C42.6194 27.6312 42.777 27.6669 42.838 27.6568C42.838 27.8242 42.8684 28.0882 42.914 28.3929C42.8989 28.4336 42.8075 28.4388 42.777 28.4083C42.6345 27.8599 42.2538 27.6872 41.7355 27.6872C40.7497 27.6872 40.3179 28.388 40.3179 29.1501C40.3179 30.1248 40.8208 30.8921 41.8423 30.8921C42.1572 30.8921 42.3452 30.8259 42.4009 30.7397C42.4265 30.704 42.4517 30.6126 42.4517 30.4501V30.247C42.4517 29.8204 42.4366 29.7896 42.1218 29.7542L41.898 29.729C41.8574 29.7087 41.8626 29.6173 41.898 29.6019C42.0454 29.612 42.3249 29.6173 42.6247 29.6173C42.8229 29.6173 42.9956 29.612 43.163 29.6019C43.1987 29.6222 43.2036 29.6982 43.1682 29.729L43.087 29.7391C42.8737 29.7644 42.8684 29.9066 42.8684 30.1657V30.4501Z" fill="white"/>
<path d="M44.3021 29.5153C44.6782 29.5153 44.7896 29.495 44.8305 29.4645C44.8456 29.4543 44.861 29.434 44.861 29.3678C44.861 29.2257 44.7644 29.0481 44.4698 29.0481C44.17 29.0481 43.9109 29.3223 43.9057 29.4897C43.9057 29.4999 43.9057 29.5153 43.9414 29.5153H44.3021ZM43.9872 29.6676C43.8552 29.6676 43.85 29.6778 43.85 29.8046C43.85 30.3176 44.1497 30.7547 44.6933 30.7547C44.861 30.7547 45.0032 30.7036 45.1608 30.5057C45.2116 30.4903 45.2473 30.5208 45.2522 30.5666C45.0844 30.9119 44.7188 31.0391 44.4544 31.0391C44.1242 31.0391 43.865 30.8969 43.7179 30.7036C43.5652 30.5057 43.5046 30.2672 43.5046 30.0434C43.5046 29.4186 43.9161 28.8954 44.5258 28.8954C44.9626 28.8954 45.2473 29.1952 45.2473 29.4999C45.2473 29.571 45.2368 29.6116 45.227 29.6322C45.2116 29.6624 45.1405 29.6676 44.9272 29.6676H43.9872" fill="white"/>
<path d="M45.8209 29.51C45.8209 29.3121 45.8209 29.2866 45.6836 29.1952L45.638 29.1647C45.6177 29.1444 45.6177 29.0884 45.643 29.0733C45.7599 29.0327 46.0492 28.9006 46.1511 28.8246C46.1714 28.8246 46.197 28.8348 46.2071 28.86C46.197 28.9767 46.197 29.053 46.197 29.0989C46.197 29.1293 46.2173 29.1546 46.2527 29.1546C46.466 29.0225 46.7048 28.8954 46.9639 28.8954C47.3856 28.8954 47.5583 29.185 47.5583 29.5254V30.3989C47.5583 30.7645 47.5684 30.8153 47.7516 30.8408L47.8633 30.8559C47.8987 30.8815 47.8888 30.9676 47.8531 30.983C47.7008 30.9729 47.5533 30.9676 47.3754 30.9676C47.1926 30.9676 47.04 30.9729 46.903 30.983C46.8673 30.9676 46.8571 30.8815 46.8928 30.8559L46.9895 30.8408C47.1772 30.8104 47.1825 30.7645 47.1825 30.3989V29.6421C47.1825 29.3524 47.0504 29.1395 46.7048 29.1395C46.5118 29.1395 46.3441 29.2204 46.273 29.3171C46.2071 29.4032 46.197 29.4746 46.197 29.6217V30.3989C46.197 30.7645 46.2071 30.8104 46.3899 30.8408L46.4814 30.8559C46.5167 30.8815 46.5066 30.9676 46.4712 30.983C46.3339 30.9729 46.1865 30.9676 46.0089 30.9676C45.8258 30.9676 45.6734 30.9729 45.5312 30.983C45.4959 30.9676 45.4857 30.8815 45.5208 30.8559L45.6279 30.8408C45.8156 30.8153 45.8209 30.7645 45.8209 30.3989V29.51Z" fill="white"/>
<path d="M48.9511 29.5153C49.3269 29.5153 49.4389 29.495 49.4795 29.4645C49.4946 29.4543 49.5097 29.434 49.5097 29.3678C49.5097 29.2257 49.4134 29.0481 49.1185 29.0481C48.8191 29.0481 48.5599 29.3223 48.5547 29.4897C48.5547 29.4999 48.5547 29.5153 48.5904 29.5153H48.9511ZM48.6359 29.6676C48.5039 29.6676 48.499 29.6778 48.499 29.8046C48.499 30.3176 48.7984 30.7547 49.3423 30.7547C49.5097 30.7547 49.6522 30.7036 49.8098 30.5057C49.8606 30.4903 49.896 30.5208 49.9012 30.5666C49.7335 30.9119 49.3678 31.0391 49.1034 31.0391C48.7732 31.0391 48.514 30.8969 48.3666 30.7036C48.2143 30.5057 48.1533 30.2672 48.1533 30.0434C48.1533 29.4186 48.5648 28.8954 49.1745 28.8954C49.6116 28.8954 49.896 29.1952 49.896 29.4999C49.896 29.571 49.8858 29.6116 49.8756 29.6322C49.8606 29.6624 49.7892 29.6676 49.5759 29.6676H48.6359" fill="white"/>
<path d="M50.4698 29.51C50.4698 29.3121 50.4698 29.2866 50.3325 29.1952L50.287 29.1647C50.2664 29.1444 50.2664 29.0884 50.2919 29.0733C50.4089 29.0327 50.6782 28.9006 50.805 28.8246C50.8305 28.8296 50.8456 28.8394 50.8456 28.86V29.1546C50.8456 29.1801 50.8509 29.1952 50.861 29.2004C51.0389 29.053 51.2319 28.8954 51.4196 28.8954C51.5471 28.8954 51.6486 28.9767 51.6486 29.0989C51.6486 29.2663 51.5113 29.3325 51.4301 29.3325C51.3793 29.3325 51.3538 29.3171 51.3184 29.2967C51.242 29.246 51.1657 29.2155 51.0949 29.2155C51.0134 29.2155 50.9524 29.2614 50.9121 29.3171C50.861 29.3882 50.8456 29.5356 50.8456 29.7082V30.3989C50.8456 30.7645 50.8561 30.8254 51.0491 30.8408L51.2319 30.8559C51.2676 30.8815 51.2571 30.9676 51.2217 30.983C50.9829 30.9729 50.8355 30.9676 50.6579 30.9676C50.4747 30.9676 50.3224 30.9729 50.1904 30.983C50.155 30.9676 50.1448 30.8815 50.1802 30.8559L50.2769 30.8408C50.4646 30.8104 50.4698 30.7645 50.4698 30.3989V29.51Z" fill="white"/>
<path d="M52.5326 30.8104C52.6341 30.8104 52.7917 30.734 52.8425 30.6833C52.9034 30.6227 52.9087 30.5516 52.9087 30.4448L52.9188 30.145C52.9188 30.0893 52.8985 30.0791 52.8681 30.0791C52.8373 30.0791 52.7508 30.0994 52.6597 30.1299C52.3599 30.2315 52.2125 30.3078 52.2125 30.5057C52.2125 30.5922 52.2734 30.8104 52.5326 30.8104ZM52.8474 29.9166C52.9237 29.8911 52.929 29.8455 52.9339 29.7692L52.9391 29.5356C52.9441 29.3475 52.8831 29.0936 52.5679 29.0936C52.4261 29.0936 52.2534 29.1647 52.2433 29.3223C52.2377 29.4036 52.2328 29.4645 52.1922 29.495C52.1162 29.5559 51.9789 29.5916 51.9025 29.5916C51.8567 29.5916 51.8314 29.5661 51.8314 29.5202C51.8314 29.2561 52.4058 28.8957 52.7763 28.8957C53.1423 28.8957 53.3202 29.1087 53.3048 29.4897L53.2743 30.3737C53.2642 30.6073 53.31 30.8153 53.5082 30.8153C53.559 30.8153 53.6046 30.8002 53.635 30.7852C53.6606 30.7698 53.6858 30.7494 53.7012 30.7494C53.7212 30.7494 53.7369 30.7799 53.7369 30.8153C53.7369 30.8408 53.559 31.0391 53.31 31.0391C53.1881 31.0391 53.0659 30.9932 52.9798 30.8815C52.9595 30.851 52.929 30.8104 52.8985 30.8104C52.8628 30.8104 52.8019 30.8559 52.7003 30.9119C52.5886 30.9729 52.4769 31.0391 52.3344 31.0391C52.1872 31.0391 52.0654 30.9984 51.9789 30.9221C51.8822 30.8356 51.8213 30.7088 51.8213 30.5666C51.8213 30.3684 51.9179 30.2518 52.2433 30.1348L52.8474 29.9166" fill="white"/>
<path d="M54.5039 30.3992C54.5039 30.7648 54.514 30.8156 54.6969 30.8408L54.8187 30.8562C54.8544 30.8818 54.8443 30.968 54.8086 30.983C54.6412 30.9729 54.4937 30.968 54.3158 30.968C54.133 30.968 53.9807 30.9729 53.828 30.983C53.7926 30.968 53.7825 30.8818 53.8182 30.8562L53.9348 30.8408C54.1229 30.8156 54.1278 30.7648 54.1278 30.3992V28.1035C54.1278 27.8038 54.1229 27.7733 53.9705 27.6819L53.9194 27.6514C53.8942 27.636 53.8942 27.5652 53.9194 27.5498C54.0465 27.5092 54.2854 27.4329 54.4682 27.3366C54.4885 27.3366 54.5091 27.3467 54.5193 27.367C54.514 27.5194 54.5039 27.7733 54.5039 27.9967V30.3992Z" fill="white"/>
<path d="M57.3133 31.0493C56.8864 31.0493 56.6171 30.9173 56.5208 30.8616C56.4599 30.7495 56.3937 30.3892 56.3835 30.1503C56.4091 30.1146 56.4854 30.1048 56.5054 30.1352C56.5818 30.3941 56.7901 30.8921 57.3792 30.8921C57.8064 30.8921 58.0145 30.6126 58.0145 30.3079C58.0145 30.0845 57.9689 29.8355 57.5977 29.597L57.1151 29.2818C56.8612 29.1144 56.5667 28.8247 56.5667 28.4083C56.5667 27.9257 56.9425 27.5349 57.603 27.5349C57.7606 27.5349 57.9434 27.5601 58.0757 27.6007C58.1416 27.6158 58.2127 27.6312 58.2533 27.6312C58.2992 27.7531 58.3447 28.0375 58.3447 28.2507C58.3244 28.2812 58.2431 28.2966 58.2179 28.2661C58.1517 28.0224 58.0145 27.6921 57.5266 27.6921C57.0286 27.6921 56.9222 28.0224 56.9222 28.256C56.9222 28.5505 57.1659 28.7589 57.354 28.8808L57.7606 29.1347C58.0803 29.3326 58.3955 29.6271 58.3955 30.1097C58.3955 30.6683 57.9738 31.0493 57.3133 31.0493Z" fill="white"/>
<path d="M59.4379 29.1801C59.3514 29.1801 59.3465 29.1952 59.3465 29.302V30.2518C59.3465 30.5463 59.3819 30.8153 59.7174 30.8153C59.7681 30.8153 59.8137 30.8055 59.8543 30.7901C59.8998 30.775 59.966 30.719 59.9814 30.719C60.022 30.719 60.0424 30.775 60.0322 30.8055C59.9405 30.9119 59.7577 31.0391 59.4985 31.0391C59.0618 31.0391 58.9704 30.7953 58.9704 30.4906V29.3275C58.9704 29.1903 58.9651 29.1801 58.8636 29.1801H58.7214C58.6909 29.1598 58.6857 29.1038 58.706 29.0733C58.8534 29.0278 58.9805 28.9616 59.0313 28.9161C59.0975 28.8551 59.1938 28.7178 59.2446 28.6163C59.2701 28.6061 59.3311 28.6061 59.3514 28.6418V28.8702C59.3514 28.9616 59.3566 28.9668 59.4428 28.9668H60.0066C60.0679 29.0127 60.0578 29.1496 60.0119 29.1801H59.4379Z" fill="white"/>
<path d="M60.8751 30.2212C60.8751 30.5714 60.9612 30.8053 61.3475 30.8053C61.4845 30.8053 61.647 30.7493 61.759 30.653C61.8249 30.5921 61.8606 30.5157 61.8606 30.3581V29.5253C61.8606 29.1951 61.8249 29.1849 61.6725 29.124L61.6067 29.0987C61.571 29.0784 61.571 29.0073 61.6116 28.987C61.8147 28.9818 62.0942 28.9464 62.2062 28.8956C62.2315 28.9005 62.2465 28.9107 62.2518 28.931C62.2416 29.0276 62.2367 29.1849 62.2367 29.373V30.2264C62.2367 30.6274 62.2518 30.7798 62.394 30.7798C62.4549 30.7798 62.5211 30.7696 62.5918 30.7546C62.6226 30.7798 62.6279 30.8814 62.5873 30.9017C62.389 30.9423 62.0942 30.9931 61.9215 31.0897C61.8963 31.0897 61.8707 31.0743 61.8606 31.054V30.846C61.8606 30.8001 61.8455 30.7749 61.8147 30.7749C61.6627 30.8712 61.4134 31.0389 61.1136 31.0389C60.6667 31.0389 60.499 30.8152 60.499 30.404V29.5558C60.499 29.2357 60.499 29.1902 60.3466 29.124L60.2857 29.0987C60.2552 29.0732 60.2601 29.0024 60.2958 28.987C60.5294 28.9818 60.7273 28.9362 60.8394 28.8956C60.8698 28.9005 60.8849 28.9107 60.8905 28.931C60.88 29.0175 60.8751 29.124 60.8751 29.373V30.2212Z" fill="white"/>
<path d="M64.4322 29.4644C64.4322 29.3628 64.4119 29.3169 64.3762 29.2665C64.3002 29.1597 64.1475 29.0529 63.9496 29.0529C63.487 29.0529 63.2485 29.4542 63.2485 29.8962C63.2485 30.3581 63.5077 30.7952 64.0057 30.7952C64.1426 30.7952 64.3153 30.7339 64.3965 30.653C64.427 30.6225 64.4322 30.5462 64.4322 30.4649V29.4644ZM64.8083 30.2264C64.8083 30.6274 64.8133 30.8152 64.9551 30.8152C65.0115 30.8152 65.098 30.7899 65.174 30.7647C65.2094 30.7749 65.2149 30.9017 65.1691 30.9272C64.9551 30.9577 64.6409 31.0337 64.4981 31.0897C64.4676 31.0897 64.4424 31.0743 64.4424 31.0491V30.9626C64.4424 30.8863 64.4424 30.8257 64.4322 30.805H64.4119C64.1885 30.9577 64.0155 31.0389 63.7717 31.0389C63.2079 31.0389 62.8318 30.597 62.8318 30.0636C62.8318 29.3527 63.3704 28.8956 64.061 28.8956C64.234 28.8956 64.3457 28.9208 64.4018 28.9412C64.427 28.9412 64.4322 28.9107 64.4322 28.8701V28.1031C64.4322 27.8033 64.427 27.7732 64.2746 27.6818L64.2239 27.6513C64.1983 27.6359 64.1983 27.5648 64.2239 27.5497C64.351 27.5088 64.5895 27.4328 64.7723 27.3361C64.793 27.3361 64.8133 27.3463 64.8237 27.3666C64.8182 27.5193 64.8083 27.7732 64.8083 27.9966V30.2264" fill="white"/>
<path d="M66.1382 27.8647C66.1382 28.0423 66.0114 28.1238 65.8741 28.1238C65.7165 28.1238 65.6153 28.0118 65.6153 27.8749C65.6153 27.7071 65.7421 27.6055 65.8895 27.6055C66.0419 27.6055 66.1382 27.7222 66.1382 27.8647ZM65.7218 29.51C65.7218 29.3121 65.7218 29.2866 65.5845 29.1952L65.539 29.1647C65.5183 29.1447 65.5183 29.0887 65.5439 29.0733C65.6608 29.0327 65.9505 28.9006 66.0674 28.8246C66.0927 28.8246 66.1133 28.8348 66.1182 28.8551C66.1081 29.0327 66.0979 29.2768 66.0979 29.4848V30.3992C66.0979 30.7648 66.1081 30.8153 66.2909 30.8408L66.3973 30.8559C66.4331 30.8815 66.4229 30.968 66.3875 30.983C66.2348 30.9729 66.0874 30.968 65.9095 30.968C65.7267 30.968 65.5744 30.9729 65.4322 30.983C65.3965 30.968 65.3866 30.8815 65.422 30.8559L65.5288 30.8408C65.7165 30.8153 65.7218 30.7648 65.7218 30.3992V29.51" fill="white"/>
<path d="M67.4901 29.5153C67.8663 29.5153 67.9777 29.495 68.0186 29.4645C68.0337 29.4543 68.0491 29.434 68.0491 29.3678C68.0491 29.2257 67.9524 29.0481 67.6579 29.0481C67.3581 29.0481 67.099 29.3223 67.0941 29.4897C67.0941 29.4999 67.0941 29.5153 67.1294 29.5153H67.4901ZM67.1753 29.6676C67.0429 29.6676 67.038 29.6778 67.038 29.8046C67.038 30.3176 67.3378 30.7547 67.8813 30.7547C68.0491 30.7547 68.1913 30.7036 68.3489 30.5057C68.3996 30.4903 68.435 30.5208 68.4403 30.5666C68.2722 30.9119 67.9066 31.0391 67.6425 31.0391C67.3122 31.0391 67.0531 30.8969 66.9057 30.7036C66.7533 30.5057 66.6924 30.2672 66.6924 30.0434C66.6924 29.4186 67.1039 28.8954 67.7139 28.8954C68.1503 28.8954 68.435 29.1952 68.435 29.4999C68.435 29.571 68.4252 29.6116 68.4147 29.6322C68.3996 29.6624 68.3282 29.6676 68.1149 29.6676H67.1753" fill="white"/>
<path d="M69.9035 28.9871C69.949 29.0989 69.9847 29.2614 69.9847 29.3986C69.9644 29.434 69.8881 29.4442 69.8632 29.4137C69.7763 29.1903 69.6243 29.0432 69.4159 29.0432C69.2177 29.0432 69.0909 29.17 69.0909 29.3528C69.0909 29.5611 69.3042 29.6729 69.4818 29.7744C69.7508 29.9268 70.0001 30.0994 70.0001 30.4601C70.0001 30.8461 69.6443 31.0391 69.2682 31.0391C69.0297 31.0391 68.8518 30.9883 68.7247 30.8867C68.6844 30.7901 68.6539 30.5414 68.6637 30.3737C68.6893 30.3432 68.7551 30.3383 68.7807 30.3687C68.8672 30.6479 69.0297 30.892 69.3193 30.892C69.5021 30.892 69.6597 30.7852 69.6597 30.567C69.6597 30.333 69.4566 30.2059 69.2682 30.0994C68.974 29.932 68.7653 29.7541 68.7653 29.4747C68.7653 29.1041 69.0703 28.8957 69.4566 28.8957C69.6699 28.8957 69.8576 28.9465 69.9035 28.9871Z" fill="white"/>
<path d="M54.9941 20.4469V26.4476" stroke="#DBDBDB" stroke-width="0.293158"/>
<path d="M16.0643 24.4832C15.8428 24.5451 15.7039 24.453 15.7046 24.2745C15.7052 24.1339 15.7282 23.9966 15.817 23.9288C15.817 23.9288 16.2435 23.9262 16.2871 23.8882C16.3307 23.8505 16.3654 23.5943 16.3572 23.5429C16.349 23.4914 15.8923 23.5848 15.8681 23.535C15.8442 23.4852 15.9857 23.1943 15.9605 23.1451C15.9352 23.0957 15.5906 23.1474 15.5906 23.1474C15.5457 23.1687 15.5054 23.5173 15.4615 23.553C15.4176 23.5887 15.0916 23.5403 15.051 23.5766C15.01 23.613 14.9406 23.8944 14.9661 23.9301C14.9917 23.9662 15.3534 23.9108 15.3829 23.9495C15.4176 24.0635 15.3085 24.2564 15.1745 24.3737C15.0772 24.4592 14.9701 24.5094 14.8364 24.509C14.6326 24.5077 14.3879 24.2276 14.3105 23.7873C14.2565 23.4796 14.3859 22.8696 14.5153 22.5836C14.7928 21.9686 14.6244 22.0063 14.7014 21.9588C15.0143 21.7645 15.5457 21.603 15.9483 21.4834C16.3323 21.3691 16.7071 21.2921 17.0646 21.4281C17.6504 21.6518 17.5157 22.3972 17.2926 22.8526C16.9889 23.4724 16.4771 24.3678 16.0643 24.4832ZM13.5983 23.7873C13.5206 24.2276 13.2759 24.5077 13.0721 24.509C12.9388 24.5094 12.8316 24.4592 12.7343 24.3737C12.6003 24.2564 12.4906 24.0635 12.5256 23.9495C12.5558 23.9108 12.9168 23.9662 12.9427 23.9301C12.9683 23.8944 12.8988 23.613 12.8579 23.5766C12.8169 23.5403 12.4906 23.5887 12.447 23.553C12.4034 23.5173 12.3628 23.1687 12.3183 23.1474C12.3183 23.1474 11.9733 23.0957 11.9484 23.1451C11.9231 23.1943 12.0647 23.4852 12.0404 23.535C12.0165 23.5848 11.5595 23.4914 11.5516 23.5429C11.5434 23.5943 11.5778 23.8505 11.6214 23.8882C11.6653 23.9262 12.0915 23.9288 12.0915 23.9288C12.1803 23.9966 12.2036 24.1339 12.2039 24.2745C12.2046 24.453 12.066 24.5451 11.8445 24.4832C11.4317 24.3678 10.9199 23.4724 10.6162 22.8526C10.3931 22.3972 10.2585 21.6518 10.8443 21.4281C11.2014 21.2921 11.5765 21.3691 11.9605 21.4834C12.3631 21.603 12.8939 21.7645 13.2074 21.9588C13.2841 22.0063 13.116 21.9686 13.3935 22.5836C13.5226 22.8696 13.652 23.4796 13.5983 23.7873V23.7873ZM17.8859 21.8451C17.802 21.3579 17.4079 21.0185 16.9263 20.9799C16.0653 20.9107 15.3222 21.371 14.4871 21.5185C14.42 21.5303 14.3305 21.3881 14.2493 21.3068C14.6369 21.0149 14.5841 20.4429 14.1356 20.1955C14.1048 20.1605 14.1156 19.8309 14.1336 19.8158C14.17 19.7857 14.4563 19.8404 14.4966 19.805C14.5373 19.7696 14.5294 19.4266 14.5032 19.3938C14.4773 19.3611 14.1549 19.3961 14.1366 19.3742C14.1186 19.3519 14.1454 19.0433 14.1153 19.0187C14.0933 19.0017 14.0039 18.9997 13.9544 19C13.9046 18.9997 13.8152 19.0017 13.7932 19.0187C13.7631 19.0433 13.7903 19.3519 13.7719 19.3742C13.7539 19.3961 13.4315 19.3611 13.4053 19.3938C13.3794 19.4266 13.3716 19.7696 13.4119 19.805C13.4525 19.8404 13.7385 19.7857 13.7752 19.8158C13.7929 19.8309 13.804 20.1605 13.7732 20.1955C13.3247 20.4429 13.2723 21.0149 13.6595 21.3068C13.5783 21.3881 13.4885 21.5303 13.4217 21.5185C12.5863 21.371 11.8432 20.9107 10.9825 20.9799C10.5006 21.0185 10.1068 21.3579 10.0229 21.8451C9.8722 22.7225 10.5029 23.3968 10.8086 24.1414C10.9055 24.376 10.9907 24.6922 10.975 24.9638C10.975 24.9638 13.4754 24.9638 13.9203 24.9641C13.9203 24.9641 13.9325 24.9641 13.9544 24.9641C13.9767 24.9641 13.9885 24.9641 13.9885 24.9641C14.4334 24.9638 16.9335 24.9638 16.9335 24.9638C16.9184 24.6922 17.0033 24.376 17.0999 24.1414C17.4059 23.3968 18.0366 22.7225 17.8859 21.8451" fill="white"/>
<path d="M13.9884 25.3717H10.9077V25.8887H17.0006V25.3717H13.9884Z" fill="white"/>
</svg>
