<svg width="80" height="50" viewBox="0 0 80 50" fill="none" xmlns="http://www.w3.org/2000/svg">
<rect width="80" height="50" fill="black"/>
<path d="M18.3266 23.7115C18.0348 22.5438 16.8148 21.6266 15.7516 21.2408C15.2199 21.0528 14.6465 20.9903 14.0323 21.0012C12.6353 21.0952 11.3739 21.8665 10.6026 23.107C10.0189 24.0451 9.85214 25.3375 10.1334 26.4738C10.4984 27.9959 12.0099 29.4135 13.5631 29.6328C15.2414 29.9141 16.7635 29.3095 17.8058 27.9853C18.5566 27.037 18.765 25.8587 18.6502 24.5662H13.8549V26.2759L16.461 26.2965C16.3045 26.5989 16.1169 26.9016 15.8357 27.1515C15.1891 27.6932 14.1051 27.8291 13.3546 27.4327C12.5519 27.0367 11.9887 26.2131 12.0202 25.3061C12.0304 24.41 12.6141 23.5448 13.4483 23.2215C14.2924 22.8565 15.3347 23.065 15.9813 23.7115H18.3266Z" fill="white"/>
<path d="M33.369 23.7218C32.9937 22.3979 31.5967 21.397 30.3354 21.1051C28.4695 20.709 26.6764 21.4595 25.6658 23.0653C24.8214 24.3372 24.8108 26.3699 25.6761 27.6316C26.6975 29.2265 28.4698 29.9975 30.3357 29.6017C31.7115 29.3304 33.0669 28.1107 33.4838 26.766C33.9007 28.0694 35.2038 29.3096 36.5485 29.5809C38.3624 30.0081 40.1241 29.3195 41.1873 27.798C41.8444 26.8911 42.0003 25.7548 41.8964 24.5662H37.1113V26.2759L39.7069 26.2965C39.5192 26.7031 39.1857 27.1515 38.7585 27.3702C38.0494 27.798 36.9343 27.7461 36.2669 27.2349C35.5687 26.7137 35.1935 25.9632 35.2871 25.098C35.3394 24.2638 36.0065 23.4405 36.7987 23.1798C37.6431 22.8671 38.6126 23.0861 39.238 23.7218H41.5837C41.3646 22.7731 40.4368 21.9393 39.5924 21.4909C38.7168 21.0323 37.5703 20.8864 36.5485 21.1157C34.9748 21.439 33.5569 22.9922 33.3067 24.5662H28.8973V26.2759L31.4928 26.2965C31.3052 26.6717 31.0448 27.0681 30.6589 27.2974C29.9293 27.7875 28.7514 27.7772 28.0528 27.2349C27.3543 26.7137 26.9791 25.9632 27.0728 25.098C27.1247 24.2638 27.7921 23.4405 28.5843 23.1798C29.4287 22.8671 30.3982 23.0861 31.0236 23.7218H33.369Z" fill="white"/>
<path fill-rule="evenodd" clip-rule="evenodd" d="M23.205 28.2769C23.4134 28.6835 23.6116 29.1213 23.7992 29.5491H26.3531L21.8291 21.0948L17.2943 29.5591H19.8587L20.4529 28.2769H23.205ZM21.8811 25.2436L21.0783 26.9113H22.6107L21.8811 25.2436Z" fill="white"/>
<path fill-rule="evenodd" clip-rule="evenodd" d="M60.8581 29.5591H63.4014V29.5385L58.8774 21.0948L55.1661 28.027V28.0164L55.1555 21.251H52.9356L52.925 25.2019L47.7548 21.3242V29.5591H49.9225L49.9334 25.7958L49.9539 25.817L54.9262 29.5591L56.9175 29.5491L57.5012 28.2769H60.2744L60.8581 29.5591ZM58.9396 25.2436L58.1263 26.9113L59.6692 26.9013L58.9396 25.2436Z" fill="white"/>
<path d="M44.3822 23.2526H47.3796V21.251H42.1978V29.5591H47.3796V27.5059L44.3822 27.4953V26.265H47.1182V24.5242L44.3822 24.5034V23.2526Z" fill="white"/>
<path d="M65.5177 27.5055C64.8811 27.2865 64.4748 26.6194 64.4334 25.9729L64.4225 21.251H62.3174L62.3273 25.327C62.3379 25.952 62.4004 26.5566 62.5252 27.1403C62.8071 28.4016 64.1098 29.434 65.3295 29.6732C65.6941 29.7672 66.122 29.7672 66.5177 29.7467C67.0617 29.6983 67.5884 29.5311 68.0607 29.257C69.4054 28.5273 69.9686 27.1091 70 25.6502L69.958 21.251H67.8628V24.3677C67.8515 24.5903 67.8555 24.8218 67.8595 25.0548C67.8741 25.891 67.889 26.7462 67.1957 27.2762C66.7374 27.6095 66.0594 27.7554 65.5177 27.5055Z" fill="white"/>
</svg>
