<svg width="80" height="50" viewBox="0 0 80 50" fill="none" xmlns="http://www.w3.org/2000/svg">
<rect width="80" height="50" fill="black"/>
<path fill-rule="evenodd" clip-rule="evenodd" d="M62.2275 25.3348V23.7751H63.2869C64.4955 23.792 64.9593 23.9722 64.9593 24.5789C64.9593 25.1374 64.5779 25.3348 63.1713 25.3348H62.2275ZM52.6734 27.8286V28.9113C53.5498 29.0279 54.5739 29.1444 55.5595 29.1444C57.1789 29.1444 58.9315 28.6447 58.9315 27.0628C58.9315 24.4147 54.6569 25.6663 54.6569 24.3163C54.6569 23.7083 55.5927 23.6742 56.0617 23.6742C56.9307 23.6742 57.9554 23.7914 58.5674 23.8403V22.8242C57.9222 22.7572 56.8963 22.6409 56.1275 22.6409C54.9743 22.6409 52.7893 22.874 52.7893 24.5952C52.7893 27.1625 56.9636 25.8662 56.9636 27.2784C56.9636 28.0613 55.6603 28.0613 55.0908 28.0613C54.227 28.0617 53.4007 27.9282 52.6734 27.8286V27.8286ZM62.2275 28.0112V26.3306H62.9561C64.8258 26.3478 65.1407 26.5803 65.1407 27.1957C65.1407 27.6453 65.0079 28.0109 63.6019 28.0109H62.2275V28.0112V28.0112ZM66.7509 24.3495C66.7509 22.8414 64.6933 22.7415 63.5686 22.7415H60.3642V29.0454H63.7836C64.3956 29.0454 64.8922 29.0116 65.3231 28.9286C66.4686 28.7121 67 28.2111 67 27.3128C67 26.3143 66.1202 25.9157 65.34 25.8164V25.6005C66.3028 25.5006 66.7509 24.9901 66.7509 24.3495ZM46.2722 28.0112V23.7748H47.3172C48.2625 23.7748 49.739 24.1684 49.739 25.849C49.739 27.3457 48.7604 28.0109 47.2176 28.0109H46.2722V28.0112V28.0112ZM44.4093 22.7412V29.0451H47.7321C48.579 29.0451 51.665 28.5949 51.665 25.8991C51.665 23.3415 49.5569 22.7412 47.5002 22.7412H44.4093V22.7412ZM14.9795 17C17.7333 17 27.2497 18.5678 34.9981 23.025C34.5002 22.2291 33.7864 21.1999 32.7572 20.4031C33.8359 19.2575 35.6952 18.3279 37.2888 18.3279C39.4627 18.3279 40.492 19.9713 40.492 21.9957C40.492 26.3447 35.7281 32.47 31.3293 32.47C29.1554 32.47 28.1255 30.8269 28.1255 28.8019C28.1255 27.1748 28.724 25.5483 29.5697 24.1702C28.9229 24.0374 28.2424 23.9876 27.5784 23.9876C25.7025 23.9876 23.7934 24.3692 22.0504 25.0498C20.109 23.9544 14 18.9085 14 17.3979C14.0003 17.0332 14.7639 17 14.9795 17V17Z" fill="white"/>
</svg>
