<svg width="80" height="50" viewBox="0 0 80 50" fill="none" xmlns="http://www.w3.org/2000/svg">
<rect width="80" height="50" fill="black"/>
<path d="M40.4998 17.2397C29.2543 17.2397 20.2397 20.6105 20.2397 24.8367C20.2397 29.0371 29.3285 32.4339 40.4998 32.4339C51.6714 32.4339 60.7603 29.0257 60.7603 24.8367C60.7603 20.6476 51.6714 17.2397 40.4998 17.2397Z" fill="#003478"/>
<path d="M48.4803 26.4459C48.4857 26.4807 48.5313 26.5141 48.5756 26.5298C48.5919 26.5353 48.5998 26.5461 48.5828 26.5831C48.4567 26.8535 48.3407 27.0094 48.1825 27.2444C48.037 27.4614 47.8732 27.6308 47.6748 27.7937C47.3755 28.0414 46.96 28.3109 46.6164 28.1297C46.4638 28.0505 46.3978 27.8369 46.4007 27.664C46.408 27.1778 46.6243 26.6786 47.0237 26.188C47.5106 25.5886 48.0489 25.2777 48.4022 25.4476C48.7677 25.6219 48.6511 26.0451 48.4874 26.3773C48.4747 26.403 48.4747 26.4247 48.4801 26.4458L48.4803 26.4459ZM52.4024 22.6573C52.4286 22.6109 52.401 22.577 52.3424 22.577C52.0371 22.577 51.6365 22.5777 51.3184 22.5777C51.2427 22.5777 51.2036 22.5868 51.1679 22.6574C51.0504 22.8824 49.6196 25.0268 49.3533 25.4432C49.3083 25.5067 49.2536 25.4978 49.2472 25.4251C49.2202 25.1778 49.0066 24.8934 48.6701 24.7574C48.4136 24.6534 48.1629 24.6345 47.9022 24.6691C47.4316 24.7324 47.0124 24.9806 46.6438 25.2606C46.0882 25.683 45.6089 26.2304 44.9901 26.6349C44.6523 26.855 44.1897 27.0471 43.8802 26.7604C43.6001 26.5007 43.6318 25.9239 44.0603 25.4778C44.1055 25.431 44.1596 25.4705 44.1511 25.512C44.1107 25.7138 44.1602 25.9144 44.3135 26.0551C44.5005 26.2227 44.7681 26.2416 44.9971 26.1298C45.2674 25.9958 45.4262 25.7372 45.4725 25.4438C45.5441 24.9885 45.1937 24.587 44.7551 24.5547C44.3989 24.5297 44.0573 24.6537 43.7244 24.9284C43.5575 25.0669 43.4628 25.1691 43.3184 25.3744C43.2833 25.425 43.2292 25.43 43.2309 25.3554C43.2472 24.7725 43.0063 24.4445 42.5245 24.4338C42.1504 24.4248 41.7508 24.6278 41.4393 24.8762C41.0979 25.1504 40.7993 25.5138 40.4793 25.8552C40.4394 25.8973 40.4048 25.8953 40.3936 25.8137C40.3845 25.4275 40.2868 25.0535 40.1081 24.7878C40.0449 24.6954 39.9117 24.6497 39.7999 24.7121C39.7482 24.7403 39.5686 24.823 39.4377 24.9283C39.3728 24.9818 39.3475 25.0592 39.3763 25.1583C39.5488 25.7353 39.5109 26.3913 39.2768 26.9454C39.0618 27.4528 38.6441 27.9105 38.1531 28.0654C37.8297 28.168 37.4934 28.1178 37.2854 27.831C36.9996 27.4353 37.115 26.747 37.541 26.1755C37.9169 25.6723 38.4607 25.3526 39.003 25.1468C39.0668 25.1221 39.0801 25.0812 39.0619 25.027C39.0326 24.9378 38.9854 24.8164 38.9664 24.761C38.9166 24.6285 38.7773 24.6071 38.6072 24.6256C38.2132 24.6714 37.8576 24.8065 37.5065 24.9945C36.5869 25.4869 36.1259 26.4399 35.9239 26.9498C35.8266 27.1947 35.7434 27.3475 35.6359 27.483C35.4909 27.6652 35.3089 27.8311 34.9762 28.1233C34.9461 28.1501 34.9236 28.2059 34.949 28.2579C34.9829 28.3282 35.156 28.5727 35.2048 28.5945C35.259 28.6211 35.3218 28.5836 35.347 28.5658C35.5799 28.408 35.8584 28.1578 35.9947 27.9881C36.0426 27.93 36.0917 27.9544 36.1171 28.0427C36.2443 28.4966 36.5774 28.8671 37.038 29.0222C37.8812 29.3065 38.7557 28.895 39.4158 28.1785C39.8354 27.723 39.9867 27.4301 40.1476 27.2311C40.4201 26.8934 40.9576 26.1381 41.5979 25.6531C41.8327 25.4742 42.1106 25.3378 42.2503 25.4284C42.3625 25.5011 42.3987 25.67 42.2188 25.9972C41.5659 27.1893 40.6055 28.5898 40.4293 28.9295C40.3971 28.9884 40.4257 29.0347 40.487 29.0347C40.8286 29.0331 41.1672 29.0339 41.4773 29.0339C41.5289 29.0321 41.552 29.0078 41.5779 28.9714C42.0789 28.1872 42.5503 27.4408 43.0557 26.6691C43.0839 26.6237 43.11 26.6582 43.1111 26.6782C43.122 26.8572 43.1655 27.1021 43.2718 27.2629C43.4629 27.5602 43.7336 27.6879 44.0338 27.6899C44.2727 27.6935 44.3936 27.6564 44.6512 27.5601C44.8608 27.4824 45.029 27.3804 45.1582 27.288C45.2336 27.2355 45.2468 27.3234 45.245 27.3368C45.129 27.9593 45.2722 28.697 45.8909 29.0028C46.6314 29.3679 47.4448 28.8548 47.9129 28.3915C47.9588 28.3469 48.0079 28.3516 48.0126 28.4479C48.0234 28.6247 48.1025 28.8346 48.2488 28.9815C48.641 29.3752 49.4325 29.2191 50.2269 28.6043C50.7369 28.2107 51.2705 27.6545 51.7525 27.0656C51.7706 27.0428 51.7837 27.0062 51.7489 26.969C51.6755 26.8922 51.5693 26.8043 51.4965 26.7366C51.4633 26.7083 51.4146 26.7165 51.3867 26.7376C50.8926 27.2075 50.4478 27.7434 49.805 28.1865C49.5882 28.3379 49.2427 28.4599 49.0875 28.2498C49.027 28.1682 49.0339 28.0555 49.093 27.9075C49.2804 27.4401 52.2477 22.9224 52.4017 22.656" fill="white"/>
<path d="M38.4417 23.2024C38.4543 23.2695 38.4805 23.2825 38.5109 23.2769C38.662 23.2466 38.8274 23.1223 38.9254 22.9782C39.0145 22.8475 39.0564 22.659 38.9678 22.5834C38.8888 22.5155 38.7601 22.5347 38.6647 22.6189C38.4748 22.7867 38.4171 23.0248 38.4416 23.2025L38.4417 23.2024ZM30.8788 29.0178C29.7725 29.025 28.7978 28.3418 28.6859 27.1581C28.6237 26.5022 28.8091 25.9177 29.1803 25.4361C29.5096 25.007 30.0669 24.6505 30.5387 24.5634C30.6922 24.5353 30.8984 24.5525 30.9837 24.6547C31.1174 24.8104 31.079 24.9814 30.9452 25.0497C30.5853 25.2334 30.1523 25.548 29.938 25.9775C29.7642 26.3281 29.7291 26.7506 29.9946 27.1531C30.4389 27.8239 31.6774 27.8424 32.8289 26.7726C33.1141 26.5107 33.3693 26.2592 33.6287 25.9612C34.1359 25.3813 34.3046 25.17 34.9788 24.2348C34.986 24.2239 34.9896 24.2098 34.986 24.2029C34.9806 24.1902 34.9715 24.1884 34.9514 24.1866C34.5014 24.1993 34.109 24.3332 33.7276 24.6182C33.6177 24.6983 33.4597 24.6871 33.3905 24.5816C33.3134 24.4624 33.3687 24.3071 33.4954 24.2195C34.1089 23.7928 34.7792 23.7154 35.4636 23.5999C35.4631 23.5999 35.5111 23.6017 35.5503 23.5502C35.8312 23.1896 36.0434 22.8643 36.3429 22.4997C36.6447 22.1297 37.0345 21.7899 37.3324 21.5347C37.7481 21.1772 38.0147 21.0569 38.2857 20.9095C38.3571 20.8721 38.2766 20.8276 38.2549 20.8276C36.7421 20.5432 35.1696 20.1753 33.6671 20.7315C32.6266 21.1198 32.1706 21.945 32.3899 22.4963C32.546 22.8874 33.0604 22.951 33.5419 22.7154C33.9419 22.5194 34.3121 22.2035 34.5744 21.7969C34.7212 21.5711 35.0306 21.7341 34.8634 22.1261C34.4238 23.1595 33.5839 23.9792 32.5608 24.0138C31.69 24.0421 31.1283 23.4015 31.1301 22.6112C31.1337 21.0526 32.8689 20.0258 34.6925 19.8723C36.8886 19.6908 38.9687 20.2758 41.1493 20.5403C42.82 20.7426 44.4217 20.7468 46.101 20.3611C46.2995 20.3179 46.4388 20.4446 46.4259 20.6451C46.4095 20.9349 46.185 21.2141 45.6319 21.5157C45.0029 21.8607 44.3449 21.9654 43.6576 21.971C41.9958 21.9855 40.4478 21.337 38.8459 20.989C38.8477 21.0591 38.8662 21.1426 38.8075 21.1869C37.9202 21.8414 37.1181 22.506 36.581 23.4395C36.5628 23.4611 36.5719 23.4816 36.604 23.4794C37.0704 23.4546 37.4898 23.4426 37.9252 23.4078C38.0013 23.4006 38.0042 23.3824 37.9975 23.327C37.9589 23.0052 38.0529 22.6383 38.336 22.3859C38.6257 22.1262 38.9884 22.0967 39.2288 22.2837C39.5022 22.4967 39.478 22.8798 39.3285 23.1671C39.1762 23.4586 38.9248 23.6145 38.6836 23.6902C38.6836 23.6902 38.6328 23.7011 38.6404 23.7471C38.6495 23.8207 38.9787 24.0028 39.0068 24.0514C39.034 24.0976 39.0195 24.1692 38.97 24.2241C38.9352 24.264 38.8807 24.3013 38.8109 24.3C38.7545 24.2989 38.7203 24.2794 38.6482 24.2404C38.5007 24.1605 38.3163 24.0291 38.1933 23.8742C38.1515 23.8218 38.1301 23.8207 38.0255 23.8265C37.5543 23.8537 36.8197 23.9248 36.3219 23.9869C36.2012 24.0014 36.1834 24.0244 36.1586 24.0663C35.365 25.375 34.5176 26.7862 33.5872 27.7311C32.5893 28.7442 31.7598 29.011 30.8792 29.0179" fill="white"/>
<path d="M40.4993 18.4821C30.1537 18.4821 21.7678 21.3409 21.7678 24.8391C21.7678 28.3377 30.1537 31.1967 40.4993 31.1967C50.8448 31.1967 59.2302 28.3377 59.2302 24.8391C59.2302 21.3409 50.8448 18.4821 40.4993 18.4821ZM40.4993 31.7729C29.7771 31.7729 21.0852 28.6686 21.0852 24.8391C21.0852 21.0091 29.7771 17.9054 40.4993 17.9054C51.2206 17.9054 59.912 21.0091 59.912 24.8391C59.912 28.6686 51.2206 31.7729 40.4993 31.7729Z" fill="white"/>
</svg>
