<svg width="80" height="50" viewBox="0 0 80 50" fill="none" xmlns="http://www.w3.org/2000/svg">
<rect width="80" height="50" fill="black"/>
<path d="M21.4369 21H13V22.5998H21.4369V21Z" fill="#FCB53B"/>
<path d="M21.4369 24.1997H13V25.7995H21.4369V24.1997Z" fill="#F57F29"/>
<path d="M21.4369 27.3993H13V28.9991H21.4369V27.3993Z" fill="#E32213"/>
<path d="M54.2226 22.6013L55.5553 25.7978H52.8861L54.2226 22.6013ZM52.9297 21.0009L49.6909 28.9999H51.6252L52.2586 27.3966L56.1868 27.3981L56.8201 28.9999H58.744L55.3169 21.0009H52.9297Z" fill="white"/>
<path d="M24.8108 21.0009V28.9999H31.7328V27.4011L26.5029 27.3983V25.7995H31.7328V24.1966H26.5029V22.6018L31.7328 22.5965V21.0009H24.8108Z" fill="white"/>
<path d="M59.9136 28.9936H63.1849H64.4832C65.8458 28.9936 67.0001 28.1154 67.0001 26.6193C67.0001 26.0027 66.7505 25.3977 65.9719 24.9973C66.8733 24.5 67.0001 23.9918 67.0001 23.3752C67.0001 22.0738 65.8458 21.0009 64.4833 21.0009H63.1849H59.9136V22.6276H64.4047C64.863 22.6276 65.2346 22.9799 65.2346 23.4145C65.2346 23.8491 64.863 24.2014 64.4047 24.2014H63.508H60.7549V25.793H63.508H64.4047C64.863 25.793 65.2346 26.1454 65.2346 26.5799C65.2346 27.0145 64.863 27.3669 64.4047 27.3669H59.9136V28.9936H59.9136Z" fill="white"/>
<path d="M47.3574 21.0009H46.0591H42.7034V28.9999H44.3916V25.793H46.3821H47.3574C48.7532 25.793 49.8847 24.7203 49.8847 23.3969C49.8847 22.0736 48.7532 21.0009 47.3574 21.0009ZM47.2788 24.2014H44.3893V22.6276H47.2788C47.7372 22.6276 48.1088 22.9799 48.1088 23.4145C48.1088 23.8491 47.7372 24.2014 47.2788 24.2014Z" fill="white"/>
<path d="M39.8651 24.9972C40.7663 24.4999 40.8932 23.9918 40.8932 23.3752C40.8932 22.0738 39.7389 21.0009 38.3763 21.0009L38.3764 21.0009C38.376 21.0009 38.3757 21.0009 38.3753 21.0009H33.7634V28.9936H38.4597C39.8222 28.9936 40.9766 28.1154 40.9766 26.6193C40.9766 26.0027 40.6436 25.3978 39.8651 24.9972ZM35.4493 22.6277H38.2967C38.7551 22.6277 39.1266 22.9799 39.1266 23.4145C39.1266 23.8491 38.7551 24.2014 38.2967 24.2014H37.4422H35.4493V22.6277ZM38.3811 27.3669H35.4493V25.793H38.3811C38.8394 25.793 39.211 26.1454 39.211 26.5799C39.211 27.0145 38.8394 27.3669 38.3811 27.3669Z" fill="white"/>
</svg>
