<svg width="80" height="50" viewBox="0 0 80 50" fill="none" xmlns="http://www.w3.org/2000/svg">
<rect width="80" height="50" fill="black"/>
<path d="M52.1607 20C49.1479 20 46.9854 21.8466 46.9854 24.4105C46.9854 26.9736 49.1477 28.8081 52.1607 28.8081C55.19 28.8081 57.3615 26.9734 57.3615 24.4105C57.3615 21.8466 55.19 20 52.1607 20V20ZM52.1607 20.4716C54.2453 20.4716 55.0796 22.1193 55.0796 24.4679C55.0796 27.2315 53.7568 28.3367 52.1607 28.3367C50.011 28.3367 49.267 26.4994 49.267 24.4807C49.267 21.8316 50.2876 20.4718 52.1607 20.4718V20.4716Z" fill="white"/>
<path d="M17.3955 28.0253C15.5684 28.0253 13.7037 28.0931 13.7037 26.5023V21.8932C13.7037 21.2326 13.8787 20.9522 14.4221 20.7506C14.5614 20.6993 14.9389 20.6067 15.3045 20.5691V20.3465H10V20.5691C10.23 20.5875 10.6488 20.6708 10.821 20.7267C11.4423 20.9293 11.6027 21.2564 11.6027 21.9583V26.7387C11.6027 27.5405 11.533 27.8649 10.9823 28.1004C10.8284 28.1663 10.3702 28.2955 10.0027 28.2864V28.5631H19.8715V26.0872H19.5948C19.2649 27.4992 18.7783 28.0252 17.3956 28.0252" fill="white"/>
<path d="M28.562 27.291V28.562H32.1814V28.3375C31.9569 28.3182 31.6343 28.2348 31.4575 28.1679C30.8225 27.926 30.663 27.664 30.663 26.9492V22.1734C30.663 21.4293 30.7079 21.0335 31.3769 20.7806C31.5134 20.7293 31.8882 20.6221 32.1026 20.5964V20.3655H26.9994V20.5763C27.2175 20.5872 27.6564 20.689 27.7976 20.743C28.3519 20.9547 28.5563 21.2947 28.5618 21.9544V21.9782V26.6075C27.6821 27.5192 26.1463 27.927 25.3327 27.927C24.2248 27.927 23.5403 27.226 23.5403 26.0531V22.0597C23.5403 22.0304 23.5393 22.0038 23.5376 21.9763L23.5422 21.9781C23.5422 21.3018 23.7465 20.9573 24.3073 20.7429C24.4484 20.6888 24.8874 20.5871 25.1045 20.5761V20.3653H19.877V20.5761C20.0941 20.5871 20.533 20.6888 20.6742 20.7429C21.235 20.9573 21.4393 21.3018 21.4393 21.9781V25.6462C21.4393 27.5677 22.7102 28.8057 24.7132 28.8057C25.9026 28.8057 27.3888 28.4639 28.5618 27.291" fill="white"/>
<path d="M58.3303 20.5546V20.7649C58.5484 20.7759 58.9859 20.8765 59.127 20.9306C59.6878 21.145 59.8918 21.4899 59.8918 22.1671V25.8319V26.9791C59.8844 27.6334 59.6777 27.973 59.127 28.1837C58.9859 28.2378 58.5484 28.3448 58.3303 28.3558V28.5661H63.5566V28.3558C63.3385 28.3448 62.901 28.2378 62.7599 28.1837C62.3439 28.0243 62.1258 27.7983 62.0397 27.4125C62.0397 27.407 62.0341 27.3989 62.0334 27.3934C62.0214 27.3357 62.0142 27.2727 62.0079 27.2086C62.0079 27.1921 62.0023 27.1804 62.0015 27.164C61.9959 27.0971 61.9951 27.0288 61.9951 26.9536V25.5387C62.8418 25.5387 64.2486 25.5551 64.672 25.9785C65.4051 26.7115 66.1413 27.3218 67.1831 28.5597H70.0001V28.3685C69.5932 28.3034 69.2027 28.2164 68.8784 27.9415C67.9442 27.1509 66.1393 25.2458 66.1393 25.2458V25.2139C67.5074 24.8227 68.0577 23.9281 68.0577 22.9513C68.0577 21.6153 66.9992 20.5549 64.361 20.5549H59.8741H58.3317L58.3303 20.5546ZM61.9951 21.0899H63.7925C65.0955 21.0899 65.781 21.7605 65.781 22.9829C65.781 24.5626 63.8031 25.1333 61.9953 25.0033V21.0898L61.9951 21.0899Z" fill="white"/>
<path d="M39.5626 22.8091C39.4133 22.6598 39.2822 22.5288 39.2822 22.5288L37.0977 20.3671H33.7312L33.7322 20.5907L33.8074 20.5935C34.0877 20.6054 34.4204 20.6723 34.6687 20.7767C35.0554 20.9389 35.3211 21.1863 35.6822 21.5446C35.6822 21.5446 38.5852 24.4109 38.6933 24.5172C38.5852 24.6235 35.7803 27.3807 35.7803 27.3807C35.4193 27.7399 35.1535 27.9873 34.7678 28.1486C34.5185 28.2531 34.1859 28.32 33.9055 28.3319L33.8304 28.3356V28.5582H37.1961C37.1961 28.5582 39.1827 26.5826 39.7993 25.9696L39.5629 22.8091L39.5626 22.8091Z" fill="white"/>
<path d="M46.2879 28.5479V28.3244L46.2183 28.3161C45.7207 28.306 45.3578 28.1393 45.071 28.0137C44.6614 27.8341 44.2674 27.562 43.9641 27.2458C43.9641 27.2458 41.3719 24.6233 41.2663 24.5162C41.3717 24.4099 44.0814 21.6682 44.0814 21.6682C44.3856 21.353 44.7787 21.08 45.1892 20.9004C45.476 20.7748 45.838 20.608 46.3365 20.598L46.4061 20.5897V20.3661H42.8864C42.8864 20.3661 41.2003 22.033 40.4004 22.8247L40.1531 25.9732C40.7734 26.5871 42.7573 28.5509 42.7573 28.5509H46.277L46.2879 28.5479Z" fill="white"/>
<path d="M51.1286 31.364L50.249 33.429H50.7143L50.8991 32.9701H51.7659L51.9507 33.429H52.4224L51.5428 31.364H51.1286V31.364ZM51.3325 31.9058L51.6002 32.5686H51.0585L51.3325 31.9058H51.3325Z" fill="white"/>
<path d="M55.4914 32.2012C55.1377 32.1105 55.0497 32.0674 55.0497 31.9327V31.9263C55.0497 31.8273 55.1405 31.7485 55.3127 31.7485C55.4859 31.7485 55.6637 31.8246 55.8451 31.9501L56.0788 31.6111C55.8717 31.4443 55.6169 31.3508 55.3191 31.3508C54.9004 31.3508 54.6026 31.5964 54.6026 31.9675V31.973C54.6026 32.3799 54.8683 32.4935 55.2807 32.5989C55.6225 32.6869 55.693 32.7455 55.693 32.8591V32.8647C55.693 32.9847 55.5821 33.058 55.3979 33.058C55.1643 33.058 54.9709 32.9618 54.7868 32.8097L54.521 33.1276C54.7666 33.3475 55.079 33.4557 55.3888 33.4557C55.8305 33.4557 56.1402 33.2275 56.1402 32.8216V32.8152C56.1402 32.4587 55.9065 32.3094 55.4914 32.2012" fill="white"/>
<path d="M42.8056 32.5964H43.7705V32.196H42.8056V31.7809H43.9024V31.3805H42.3584V33.4266H43.9162V33.0262H42.8056V32.5964V32.5964Z" fill="white"/>
<path d="M28.1002 31.364L27.2207 33.429H27.6796L27.8644 32.9701H28.7312L28.9224 33.429H29.3877L28.5145 31.364H28.1003H28.1002ZM28.2978 31.9058L28.5719 32.5686H28.0302L28.2978 31.9058H28.2978Z" fill="white"/>
<path d="M39.1038 32.8208L38.5687 31.3794H38.072L38.8985 33.4402H39.2962L40.1237 31.3794H39.638L39.1038 32.8208H39.1038Z" fill="white"/>
<path d="M32.4728 32.2012C32.1191 32.1105 32.0312 32.0674 32.0312 31.9327V31.9263C32.0312 31.8273 32.1219 31.7485 32.2942 31.7485C32.4664 31.7485 32.6451 31.8246 32.8265 31.9501L33.0602 31.6111C32.8522 31.4443 32.5984 31.3508 32.2996 31.3508C31.8818 31.3508 31.584 31.5964 31.584 31.9675V31.973C31.584 32.3799 31.8497 32.4935 32.2621 32.5989C32.6039 32.6869 32.6744 32.7455 32.6744 32.8591V32.8647C32.6744 32.9847 32.5626 33.058 32.3784 33.058C32.1448 33.058 31.9524 32.9618 31.7682 32.8097L31.5024 33.1276C31.7471 33.3475 32.0605 33.4557 32.3702 33.4557C32.8119 33.4557 33.1216 33.2275 33.1216 32.8216V32.8152C33.1216 32.4587 32.8879 32.3094 32.4728 32.2012" fill="white"/>
<path d="M24.042 31.3804H23.592V33.4265H25.0618V33.0169H24.042V31.3804Z" fill="white"/>
<path d="M47.2059 32.6372H47.6586V32.9295C47.5449 33.011 47.3983 33.0523 47.2352 33.0523C46.8724 33.0523 46.6149 32.7774 46.6149 32.4026V32.3971C46.6149 32.0489 46.8751 31.7602 47.2022 31.7602C47.4396 31.7602 47.5798 31.8363 47.7374 31.9673L48.0214 31.6255C47.8079 31.4441 47.5862 31.3451 47.2178 31.3451C46.5975 31.3451 46.1448 31.8216 46.1448 32.4026V32.409C46.1448 33.0138 46.5828 33.4609 47.2206 33.4609C47.5944 33.4609 47.884 33.3152 48.0938 33.1366V32.2477H47.2059V32.6372V32.6372Z" fill="white"/>
</svg>
