<svg width="80" height="50" viewBox="0 0 80 50" fill="none" xmlns="http://www.w3.org/2000/svg">
<rect width="80" height="50" fill="black"/>
<path d="M26.1558 29.4435H30.7102C31.1107 29.4435 31.3786 29.1488 31.3786 28.7252V28.3606C31.1601 28.4106 30.8315 28.4331 30.2103 28.4331H28.7114L31.3179 23.4133H26.1934V24.4076H28.4864L26.3013 28.555C26.107 28.9195 26.0839 29.2116 26.1558 29.4435" fill="#0081E4"/>
<path d="M21.6155 26.2378L22.7955 28.5077C23.1246 29.1616 23.2707 29.4435 24.0142 29.4435H25.6941C25.5975 29.3678 25.5105 29.211 25.3403 28.9082L23.6223 25.7493L25.6329 23.4133H23.8435L21.6155 26.2378Z" fill="#0081E4"/>
<path d="M19.4111 29.4434H21.4937V22.2337C21.4937 21.4859 20.9455 21 20.1912 21H19.4111V29.4434Z" fill="#0081E4"/>
<path d="M18.4867 28.8964L16.4058 22.7094C16.1615 21.9702 15.9065 21.6309 14.8838 21.6309H13.8964L11 29.444H12.3137L12.9746 27.5118H15.7642L16.1615 28.7616C16.3081 29.2228 16.4901 29.4273 16.9899 29.4273H18.7433C18.6585 29.3431 18.5968 29.1997 18.4867 28.8964V28.8964ZM13.3 26.5658L14.4194 23.2968L15.463 26.5658H13.3Z" fill="#0081E4"/>
<path d="M34.8989 29.5862C36.6276 29.5862 38.0997 28.3503 38.0997 26.3005C38.0997 24.5525 36.7012 23.2565 34.9354 23.2565C33.182 23.2565 31.719 24.5283 31.719 26.5803C31.7195 28.3847 33.1825 29.5862 34.8989 29.5862ZM34.922 28.4722C34.2171 28.4722 33.961 27.6578 33.961 26.3848C33.961 25.1726 34.2053 24.3463 34.922 24.3463C35.6296 24.3463 35.8594 25.2198 35.8594 26.4927C35.8594 27.6964 35.6301 28.4722 34.922 28.4722Z" fill="#0081E4"/>
<path d="M39.0361 29.4435H40.3381V24.4618L43.6473 28.4352C44.1107 28.9952 44.4151 29.4435 44.9144 29.4435H45.8625V22.2859C45.8625 21.873 45.5839 21.6078 45.1581 21.6078H44.5853V26.3189L41.4032 22.5269C40.9286 21.9589 40.6854 21.6078 39.9928 21.6078H39.0361V29.4435Z" fill="#0081E4"/>
<path d="M49.9426 29.5862C51.6718 29.5862 53.1455 28.3503 53.1455 26.3005C53.1455 24.5552 51.7443 23.2565 49.9796 23.2565C48.2256 23.2565 46.7659 24.5283 46.7659 26.5803C46.7653 28.3863 48.2256 29.5862 49.9426 29.5862V29.5862ZM49.9673 28.4722C49.2602 28.4722 49.0046 27.6578 49.0046 26.3854C49.0046 25.1726 49.2484 24.3463 49.9673 24.3463C50.6722 24.3463 50.9041 25.222 50.9041 26.4949C50.9041 27.6964 50.6722 28.4722 49.9673 28.4722Z" fill="#0081E4"/>
<path d="M66.7685 26.5417C66.8055 26.3006 66.8178 26.0574 66.8178 25.8395C66.8178 24.4076 65.7586 23.2678 63.945 23.2678C62.1438 23.2678 60.8274 24.5284 60.8274 26.4461C60.8274 28.3016 61.9838 29.5863 63.8704 29.5863C65.7586 29.5863 66.4383 28.6049 66.4775 27.6578C66.0737 27.951 65.4542 28.119 64.7595 28.119C63.705 28.119 63.0232 27.5193 62.9244 26.5417H66.7685ZM62.9239 25.7068C62.9915 24.8205 63.3341 24.2627 63.9193 24.2627C64.7235 24.2627 64.8813 25.7068 64.8813 25.7068H62.9239Z" fill="#0081E4"/>
<path d="M57.6987 23.329C56.9922 23.329 56.4076 23.5841 56.1144 23.875V22.2376C56.1144 21.4865 55.5792 21.0006 54.8254 21.0006H54.0464V29.444H56.4811C58.8058 29.444 60.0964 28.2296 60.0964 25.9726C60.0964 24.4565 59.0629 23.329 57.6987 23.329ZM56.4306 28.4352H56.1144V24.5424C56.2486 24.5284 56.3592 24.5166 56.5659 24.5166C57.3584 24.5166 57.9554 25.2462 57.9554 26.2153C57.9554 27.6579 57.4056 28.4352 56.4306 28.4352Z" fill="#0081E4"/>
<path d="M67.6841 29.4434H69.7538V22.237C69.7538 21.4859 69.2056 21 68.4508 21H67.6836V29.4434H67.6841Z" fill="#0081E4"/>
</svg>
