<svg width="80" height="50" viewBox="0 0 80 50" fill="none" xmlns="http://www.w3.org/2000/svg">
<rect width="80" height="50" fill="black"/>
<path fill-rule="evenodd" clip-rule="evenodd" d="M23.0117 25.5274H23.355V24.5231L23.672 25.1305H23.7249L24.0419 24.5231V25.5274H24.3853V23.9682H24.0682L23.6983 24.6026L23.355 23.9682H23.0117V25.5274V25.5274ZM24.5702 24.7347C24.5702 25.3158 24.8872 25.5536 25.1776 25.5536C25.4418 25.5536 25.8117 25.3684 25.8117 24.7347C25.8117 24.1535 25.4684 23.9419 25.1776 23.9419C24.8869 23.9419 24.5702 24.2061 24.5702 24.7347V24.7347ZM24.9401 24.7347C24.9401 24.4439 24.993 24.259 25.178 24.259C25.3892 24.259 25.4421 24.4702 25.4421 24.7347C25.4421 25.1308 25.3366 25.2366 25.178 25.2366C24.993 25.2363 24.9401 25.051 24.9401 24.7347ZM26.1553 25.5274H26.4986V24.2327H26.8685V23.9682H25.7854V24.2327H26.1553V25.5274ZM26.8419 24.7347C26.8419 25.3158 27.1589 25.5536 27.4493 25.5536C27.7401 25.5536 28.0834 25.3684 28.0834 24.7347C28.0834 24.1535 27.7664 23.9419 27.4493 23.9419C27.1592 23.9419 26.8419 24.2061 26.8419 24.7347V24.7347ZM27.2118 24.7347C27.2118 24.4439 27.2644 24.259 27.4493 24.259C27.6606 24.259 27.7135 24.4702 27.7135 24.7347C27.7135 25.1308 27.6343 25.2366 27.4493 25.2366C27.2647 25.2363 27.2118 25.051 27.2118 24.7347ZM28.2687 25.5274H28.612V24.8667C28.7706 24.8667 28.7969 24.893 28.8761 25.2366L28.9816 25.5277H29.3515C29.2194 25.184 29.1665 24.8407 29.0082 24.7613C29.1931 24.6818 29.2723 24.5763 29.2723 24.3913C29.2723 24.1535 29.0873 23.9685 28.7703 23.9685H28.2683V25.5274H28.2687V25.5274ZM28.612 24.6026V24.2327H28.7177C28.8498 24.2327 28.929 24.2853 28.929 24.4176C28.929 24.5231 28.8498 24.6026 28.7177 24.6026H28.612V24.6026ZM29.4309 25.87C29.6951 25.8175 29.8271 25.6591 29.8271 25.4476C29.8271 25.2886 29.748 25.1834 29.6156 25.1834C29.5912 25.1828 29.5669 25.1872 29.5442 25.1963C29.5216 25.2053 29.501 25.2189 29.4837 25.2362C29.4664 25.2534 29.4528 25.274 29.4438 25.2967C29.4347 25.3194 29.4303 25.3437 29.4309 25.3681C29.4309 25.4476 29.4835 25.5001 29.563 25.5533C29.563 25.6854 29.5101 25.7643 29.4309 25.8175V25.87V25.87ZM30.4612 25.4216C30.5932 25.5004 30.7253 25.5536 30.8311 25.5536C31.0952 25.5536 31.2802 25.3684 31.2802 25.1042C31.2802 24.7343 30.7782 24.5231 30.7782 24.3381C30.7782 24.259 30.8311 24.2327 30.9369 24.2327C31.016 24.2327 31.0689 24.2327 31.2273 24.3381V24.0474C31.1215 23.9682 30.9894 23.9419 30.884 23.9419C30.6461 23.9419 30.4349 24.1269 30.4349 24.3381C30.4349 24.7347 30.9369 24.8927 30.9369 25.1305C30.9369 25.21 30.8574 25.2626 30.7782 25.2626C30.699 25.2626 30.5932 25.21 30.4612 25.078V25.4216V25.4216ZM31.835 25.5536H31.9934L32.2838 24.5231H32.3104L32.6274 25.5536H32.7595L33.2615 23.9682H32.9178L32.6803 24.7872L32.4425 23.9682H32.152L31.9142 24.7872L31.6764 23.9682H31.3331L31.835 25.5536V25.5536ZM33.3669 25.5274H33.7368V23.9682H33.3669V25.5274ZM34.2125 25.5274H34.5821V24.2327H34.9257V23.9682H33.8689V24.2327H34.2125V25.5274ZM36.0088 25.1305C35.9031 25.21 35.7976 25.2626 35.6918 25.2626C35.4806 25.2626 35.3748 25.078 35.3748 24.7343C35.3748 24.3907 35.5069 24.2324 35.7181 24.2324C35.7973 24.2324 35.8768 24.2587 35.9822 24.3378V24.0208C35.876 23.9668 35.7581 23.9396 35.6389 23.9416C35.2424 23.9416 35.0049 24.2587 35.0049 24.7606C35.0049 25.2363 35.269 25.5533 35.6389 25.5533C35.7973 25.5533 35.9031 25.527 36.0088 25.4213V25.1305V25.1305ZM36.1938 25.5274H36.5634V24.8664H36.9599V25.5274H37.3032V23.9682H36.9599V24.6026H36.5634V23.9682H36.1938V25.5274ZM38.6767 24.6814H38.1222V24.9462H38.3071V25.2103C38.2546 25.2366 38.2014 25.2629 38.1488 25.2629C37.9638 25.2629 37.8584 25.0514 37.8584 24.7609C37.8584 24.4176 37.9904 24.2327 38.2546 24.2327C38.3866 24.2327 38.4658 24.2853 38.6245 24.391V24.074C38.4661 23.9685 38.3337 23.9419 38.2017 23.9419C37.7792 23.9419 37.4885 24.2853 37.4885 24.7609C37.4885 25.2103 37.7792 25.5536 38.1488 25.5536C38.36 25.5536 38.5187 25.4742 38.6771 25.3684V24.6814H38.6767V24.6814ZM38.862 25.5274H39.7865V25.2626H39.2053V24.8664H39.7336V24.6026H39.2053V24.2327H39.7599V23.9682H38.862V25.5274V25.5274ZM39.8393 25.5274H40.183L40.2621 25.21H40.6055L40.6849 25.5274H41.0282L40.6055 23.9419H40.2355L39.8393 25.5274V25.5274ZM40.3147 24.9459L40.4205 24.391L40.5526 24.9459H40.3147V24.9459ZM41.1337 25.5274H41.4773V24.8667C41.6357 24.8667 41.662 24.893 41.7677 25.2366L41.8472 25.5277H42.2171C42.0851 25.184 42.0319 24.8407 41.8735 24.7613C42.0588 24.6818 42.1377 24.5763 42.1377 24.3913C42.1377 24.1535 41.953 23.9685 41.6357 23.9685H41.1337V25.5274ZM41.4773 24.6026V24.2327H41.5831C41.7152 24.2327 41.794 24.2853 41.794 24.4176C41.7946 24.4421 41.7903 24.4664 41.7812 24.489C41.7721 24.5117 41.7586 24.5323 41.7413 24.5496C41.724 24.5669 41.7035 24.5805 41.6808 24.5896C41.6581 24.5987 41.6338 24.6031 41.6094 24.6026H41.4773V24.6026ZM44.2241 25.5274L44.0132 25.1568C44.1189 24.9985 44.1715 24.8927 44.2241 24.7081H43.9337C43.9123 24.7717 43.8857 24.8334 43.8542 24.8927L43.7221 24.6811C43.8811 24.5491 43.9869 24.4436 43.9869 24.2849C43.9869 24.1003 43.8016 23.9416 43.5901 23.9416C43.3785 23.9416 43.2201 24.1003 43.2201 24.3115C43.2201 24.3907 43.2464 24.4965 43.2996 24.6286C43.0881 24.7606 42.9823 24.919 42.9823 25.1042C42.9823 25.3684 43.1676 25.5536 43.4317 25.5536C43.5638 25.5536 43.6695 25.5004 43.7753 25.3947L43.8542 25.5274H44.2241V25.5274ZM43.6436 25.1568C43.5904 25.2363 43.5378 25.2626 43.4583 25.2626C43.3788 25.2626 43.2999 25.1837 43.2999 25.078C43.2999 24.9985 43.3262 24.9459 43.432 24.8401L43.6436 25.1568V25.1568ZM43.5904 24.4702C43.5115 24.391 43.5115 24.3115 43.5115 24.259C43.5115 24.2061 43.5378 24.1798 43.6167 24.1798C43.6699 24.1798 43.7224 24.2327 43.7224 24.2853C43.7224 24.3381 43.6961 24.391 43.5904 24.4702ZM45.1226 25.5274H45.4925V24.2327H45.8361V23.9682H44.7793V24.2327H45.1226V25.5274ZM45.9682 25.5274H46.3381V24.8667C46.4701 24.8667 46.4964 24.893 46.6022 25.2366L46.6817 25.5277H47.0516C46.9195 25.184 46.867 24.8407 46.7343 24.7613C46.9195 24.6818 46.999 24.5763 46.999 24.3913C46.999 24.1535 46.8138 23.9685 46.4967 23.9685H45.9685V25.5274H45.9682ZM46.3378 24.6026V24.2327H46.4435C46.5756 24.2327 46.6282 24.2853 46.6282 24.4176C46.6288 24.4421 46.6244 24.4664 46.6153 24.489C46.6063 24.5117 46.5927 24.5323 46.5754 24.5496C46.5582 24.5669 46.5376 24.5805 46.5149 24.5896C46.4922 24.5987 46.468 24.6031 46.4435 24.6026H46.3378V24.6026ZM47.1305 25.5274H47.4741L47.5529 25.21H47.8966L47.976 25.5274H48.3197L47.9228 23.9419H47.5529L47.1305 25.5274ZM47.6061 24.9459L47.7382 24.391L47.844 24.9459H47.6061V24.9459ZM48.4245 25.5274H48.7681V24.6026L49.2172 25.5274H49.5345V23.9682H49.1909V24.8401L48.7681 23.9682H48.4245V25.5274ZM49.7192 25.4216C49.8512 25.5004 49.9833 25.5536 50.0891 25.5536C50.3532 25.5536 50.5385 25.3684 50.5385 25.1042C50.5385 24.7343 50.0365 24.5231 50.0365 24.3381C50.0365 24.259 50.0891 24.2327 50.1949 24.2327C50.2744 24.2327 50.3269 24.2327 50.4859 24.3381V24.0474C50.3532 23.9682 50.2481 23.9419 50.1423 23.9419C49.8782 23.9419 49.6929 24.1269 49.6929 24.3381C49.6929 24.7347 50.1949 24.8927 50.1949 25.1305C50.1949 25.21 50.116 25.2626 50.0365 25.2626C49.957 25.2626 49.8512 25.21 49.7192 25.078V25.4216V25.4216ZM50.6702 25.5274H51.0401V24.8664H51.4892V24.6026H51.0401V24.2327H51.5155V23.9682H50.6702V25.5274ZM51.595 24.7347C51.595 25.3158 51.9117 25.5536 52.2024 25.5536C52.4666 25.5536 52.8099 25.3684 52.8099 24.7347C52.8099 24.1535 52.4925 23.9419 52.2024 23.9419C51.9117 23.9419 51.595 24.2061 51.595 24.7347ZM51.9386 24.7347C51.9386 24.4439 52.0175 24.259 52.2027 24.259C52.4143 24.259 52.4669 24.4702 52.4669 24.7347C52.4669 25.1308 52.3611 25.2366 52.2027 25.2366C52.0175 25.2363 51.9386 25.051 51.9386 24.7347ZM52.9685 25.5274H53.3384V24.8667C53.4974 24.8667 53.4974 24.893 53.6026 25.2366L53.6821 25.5277H54.052C53.9199 25.184 53.8673 24.8407 53.7353 24.7613C53.9199 24.6818 53.9994 24.5763 53.9994 24.3913C53.9994 24.1535 53.8141 23.9685 53.4974 23.9685H52.9688V25.5274H52.9685V25.5274ZM53.3381 24.6026V24.2327H53.4439C53.576 24.2327 53.6292 24.2853 53.6292 24.4176C53.6292 24.5231 53.576 24.6026 53.4439 24.6026H53.3381V24.6026ZM54.1837 25.5274H54.527V24.5231L54.8444 25.1305H54.8969L55.214 24.5231V25.5274H55.5576V23.9682H55.2402L54.8706 24.6026L54.5007 23.9682H54.1837V25.5274V25.5274ZM55.7422 25.5274H56.667V25.2626H56.0858V24.8664H56.6138V24.6026H56.0858V24.2327H56.6407V23.9682H55.7422V25.5274V25.5274ZM56.8253 25.5274H57.169V24.8667C57.3273 24.8667 57.3542 24.893 57.4331 25.2366L57.5389 25.5277H57.9088C57.7767 25.184 57.7241 24.8407 57.5651 24.7613C57.7504 24.6818 57.8299 24.5763 57.8299 24.3913C57.8299 24.1535 57.6446 23.9685 57.3276 23.9685H56.8256V25.5274H56.8253V25.5274ZM57.169 24.6026V24.2327H57.2747C57.4068 24.2327 57.4863 24.2853 57.4863 24.4176C57.4863 24.5231 57.4068 24.6026 57.2747 24.6026H57.169V24.6026ZM58.6749 25.4216C58.8332 25.5004 58.939 25.5536 59.0711 25.5536C59.3089 25.5536 59.5205 25.3684 59.5205 25.1042C59.5205 24.7343 59.0182 24.5231 59.0182 24.3381C59.0182 24.259 59.0714 24.2327 59.1509 24.2327C59.2297 24.2327 59.3092 24.2327 59.4676 24.3381V24.0474C59.3355 23.9682 59.2297 23.9419 59.1239 23.9419C58.8598 23.9419 58.6752 24.1269 58.6752 24.3381C58.6752 24.7347 59.1509 24.8927 59.1509 25.1305C59.1509 25.21 59.0977 25.2626 59.0182 25.2626C58.913 25.2626 58.8335 25.21 58.6752 25.078V25.4216H58.6749V25.4216ZM59.6522 25.5274H60.5764V25.2626H59.9958V24.8664H60.5238V24.6026H59.9958V24.2327H60.5764V23.9682H59.6522V25.5274V25.5274ZM60.709 25.5274H61.0789V24.8667C61.211 24.8667 61.2373 24.893 61.3431 25.2366L61.4219 25.5277H61.7918C61.6598 25.184 61.6072 24.8407 61.4751 24.7613C61.6598 24.6818 61.7393 24.5763 61.7393 24.3913C61.7393 24.1535 61.5546 23.9685 61.2373 23.9685H60.709V25.5274V25.5274ZM61.0789 24.6026V24.2327H61.1841C61.3168 24.2327 61.3694 24.2853 61.3694 24.4176C61.3694 24.5231 61.3168 24.6026 61.1841 24.6026H61.0789V24.6026ZM62.2409 25.5536H62.4259L62.9279 23.9682H62.558L62.3467 24.7609H62.3204L62.0826 23.9682H61.739L62.2409 25.5536V25.5536ZM63.0336 25.5274H63.3769V23.9682H63.0336V25.5274ZM64.5389 25.1305C64.4601 25.21 64.3543 25.2626 64.2485 25.2626C64.037 25.2626 63.9049 25.078 63.9049 24.7343C63.9049 24.3907 64.0632 24.2324 64.2748 24.2324C64.3543 24.2324 64.4331 24.2587 64.5389 24.3378V24.0208C64.4315 23.9696 64.3143 23.9426 64.1953 23.9416C63.7991 23.9416 63.5353 24.2587 63.5353 24.7606C63.5353 25.2363 63.7994 25.5533 64.1953 25.5533C64.328 25.5533 64.4331 25.527 64.5389 25.4213V25.1305V25.1305ZM64.6979 25.5274H65.649V25.2626H65.0678V24.8664H65.5695V24.6026H65.0678V24.2327H65.622V23.9682H64.6979V25.5274V25.5274ZM65.7541 25.4216C65.9131 25.5004 66.0189 25.5536 66.1509 25.5536C66.4151 25.5536 66.5997 25.3684 66.5997 25.1042C66.5997 24.7343 66.0977 24.5231 66.0977 24.3381C66.0977 24.259 66.1509 24.2327 66.2298 24.2327C66.3093 24.2327 66.3888 24.2327 66.5471 24.3381V24.0474C66.4151 23.9682 66.3093 23.9419 66.2035 23.9419C65.9394 23.9419 65.7541 24.1269 65.7541 24.3381C65.7541 24.7347 66.2298 24.8927 66.2298 25.1305C66.2298 25.21 66.1772 25.2626 66.0977 25.2626C65.9919 25.2626 65.9131 25.21 65.7541 25.078V25.4216V25.4216Z" fill="white"/>
<path fill-rule="evenodd" clip-rule="evenodd" d="M20.3703 14.7226C19.1551 13.7187 17.57 12.9263 16.117 13.0055C15.7471 13.0055 13.8982 13.1375 13 14.5639C14.0565 14.0094 14.4001 13.8507 15.9589 13.6658C17.2796 13.5074 19.208 14.2998 20.3703 14.7226V14.7226ZM16.3548 16.1753C16.3548 16.4132 16.5398 16.5981 16.7513 16.5981C16.9892 16.5981 17.1741 16.4132 17.1741 16.1753C17.1741 15.9375 16.9892 15.7525 16.7513 15.7525C16.5398 15.7528 16.3548 15.9378 16.3548 16.1753Z" fill="white"/>
<path fill-rule="evenodd" clip-rule="evenodd" d="M26.7103 20.8516H25.0989V21.7232H25.6009V22.1988C24.7027 22.3309 24.1478 21.8818 24.1478 21.1423C24.1478 20.4291 24.6498 19.9537 25.4159 19.9537C25.7858 19.9537 26.2083 20.0858 26.6311 20.297V19.2668C26.182 19.0819 25.6801 19.0027 25.2044 19.0027C23.6988 19.0027 22.6948 19.8746 22.6948 21.1689C22.6948 22.0671 23.3026 23.256 25.0989 23.256C25.6009 23.256 26.2349 23.1765 26.7103 23.0444V20.8516V20.8516ZM27.0802 23.1762H28.5332V21.459H28.9294C29.3256 21.459 29.5634 21.8552 29.8539 22.5684L30.118 23.1759H31.5447L31.069 22.0931C30.8312 21.5911 30.6725 21.327 30.3821 21.1949C30.8312 20.9837 31.0424 20.6666 31.0424 20.2172C31.0424 19.5832 30.5668 19.0549 29.4574 19.0549H27.0799V23.1762H27.0802V23.1762ZM28.5332 20.825V19.7156H28.956C29.4051 19.7156 29.6692 19.9005 29.6692 20.2701C29.6692 20.6138 29.4051 20.8247 28.9297 20.8247H28.5332V20.825V20.825ZM31.5976 23.1762H33.024L33.3148 22.5159H35.164L35.4547 23.1762H36.8812L35.0053 19.0553H33.4731L31.5976 23.1762ZM33.6052 21.776L34.2392 20.1384L34.8733 21.776H33.6052ZM36.9337 23.1762H38.3868L38.3076 21.0628L40.4209 23.1762H41.6624V19.0553H40.1831L40.2623 21.1686L38.1755 19.0553H36.9337V23.1762V23.1762ZM42.0589 23.1762H44.3835C45.8102 23.1762 46.3908 22.1197 46.3908 21.1686C46.3908 20.2176 45.7307 19.0553 44.1194 19.0553H42.0589V23.1762ZM43.5119 22.1988V20.0326H43.9081C44.6739 20.0326 44.938 20.5609 44.938 21.1157C44.938 21.8555 44.5951 22.1988 43.8818 22.1988H43.5119ZM47.7123 23.1762H50.8559V22.3043H49.1651V21.5119H50.6969V20.64H49.1651V19.9268H50.829V19.0553H47.7123V23.1762V23.1762ZM50.9085 23.1762H52.3615L52.6257 22.5159H54.5015L54.7656 23.1762H56.2186L54.3165 19.0553H52.8109L50.9085 23.1762V23.1762ZM52.9164 21.776L53.5501 20.1384L54.1838 21.776H52.9164ZM59.7584 20.8516H58.1204V21.7232H58.6487V22.1988C57.7508 22.3309 57.1694 21.8818 57.1694 21.1423C57.1694 20.4291 57.6979 19.9537 58.4378 19.9537C58.834 19.9537 59.2561 20.0858 59.6792 20.297V19.2668C59.2298 19.0819 58.7282 19.0027 58.2262 19.0027C56.7469 19.0027 55.7164 19.8746 55.7164 21.1689C55.7164 22.0671 56.3501 23.256 58.1204 23.256C58.6224 23.256 59.283 23.1765 59.7584 23.0444V20.8516V20.8516ZM60.0488 23.1762H63.1398V22.146H61.5015V19.0553H60.0488V23.1762ZM63.4831 23.1762H66.5998V22.3043H64.9093V21.5119H66.4415V20.64H64.9093V19.9268H66.5735V19.0553H63.4831V23.1762V23.1762ZM67.6566 19.8739L67.5778 19.7156C67.4983 19.6098 67.4983 19.5835 67.4451 19.5569C67.5509 19.5306 67.6304 19.4777 67.6304 19.372C67.6304 19.2662 67.5509 19.1607 67.4188 19.1607H67.0489V19.8739H67.2072V19.5832H67.2604C67.313 19.5832 67.3662 19.6361 67.4451 19.7419L67.4983 19.8739H67.6566ZM67.2076 19.4777V19.2662H67.3402C67.4191 19.2662 67.4723 19.3191 67.4723 19.372C67.4723 19.4249 67.4191 19.4777 67.3402 19.4777H67.2076V19.4777ZM66.7056 19.504C66.7056 19.8739 66.9966 20.1644 67.3662 20.1644C67.7098 20.1644 67.9999 19.8739 67.9999 19.504C67.9999 19.1607 67.7095 18.87 67.3662 18.87C66.9966 18.87 66.7056 19.1607 66.7056 19.504ZM66.8377 19.504C66.8377 19.2136 67.0755 18.9758 67.3662 18.9758C67.6566 18.9758 67.8945 19.2136 67.8945 19.504C67.8945 19.8211 67.6566 20.0323 67.3662 20.0323C67.0755 20.0326 66.8377 19.8211 66.8377 19.504Z" fill="white"/>
<path fill-rule="evenodd" clip-rule="evenodd" d="M20.872 15.1188C20.2909 14.8547 19.9473 14.9338 19.7626 15.0659C19.4719 15.2771 19.3927 15.6208 19.4985 15.8849C19.6305 16.1756 19.6568 16.149 19.8421 16.4397C19.9213 16.5452 19.8158 16.2019 19.9742 16.0964C20.12 15.988 20.261 15.8734 20.397 15.7528L20.5553 15.5679C20.529 15.9378 20.3704 16.0435 20.1854 16.2282C20.0267 16.4131 19.9213 16.4394 19.8421 16.7564C19.7629 16.9943 19.7629 17.0735 19.7629 17.0735C19.7629 17.0735 19.71 17.0472 19.393 17.0735C18.9439 17.1264 18.8385 17.0206 18.4154 17.2055C18.1246 17.3376 17.9663 17.3639 17.7022 17.4697C17.438 17.6017 16.9361 17.6546 16.8303 17.6809C16.5924 17.7338 16.4075 18.0242 16.7245 18.0771C17.0149 18.13 17.3056 18.1829 17.7022 18.0508C18.0983 17.9453 18.2041 17.8659 18.3888 17.8925C18.6003 17.9187 18.8907 17.9979 18.8907 17.9979C18.8907 17.9979 18.4945 18.3415 18.0717 18.632C18.5208 18.6582 18.7321 18.6582 19.1283 18.5791C19.5245 18.5262 19.7357 18.3675 20.3434 18.3675C20.9772 18.3675 20.8188 18.3149 21.2945 18.3675C21.7965 18.3941 22.2722 18.3675 22.2722 18.3675C22.2722 18.3675 22.2459 17.628 21.4795 17.6543C20.9512 17.6543 20.5284 17.5751 20.2643 17.5488C20.0001 17.5222 20.0264 17.5751 19.4982 17.6017C18.9436 17.6543 18.4942 17.5754 18.1509 17.6543C17.8339 17.7072 17.147 17.8655 17.147 17.8655C17.147 17.8655 18.6 17.2844 19.0225 17.2844C19.4453 17.2844 19.8415 17.4165 19.9735 17.126C20.1056 16.809 20.079 16.677 20.1848 16.5183C20.3697 16.3862 20.581 16.175 20.6868 15.99C20.7922 15.8051 20.6339 15.3826 20.6339 15.3826C20.6339 15.3826 19.8415 15.9109 19.8149 16.0958C19.7357 16.0166 19.6299 15.7522 19.6562 15.5938C19.6825 15.3826 19.7883 15.2239 19.8941 15.171C20.1588 14.9867 20.5024 15.0925 20.872 15.1188V15.1188Z" fill="white"/>
<path fill-rule="evenodd" clip-rule="evenodd" d="M21.4002 15.2245C21.1098 15.2245 21.0303 15.2245 20.9774 15.3566C20.872 15.5681 21.0566 15.6473 21.0566 15.9114C21.0566 16.1493 20.7925 16.4134 20.6604 16.4926C20.5284 16.5717 20.3963 16.7304 20.2905 16.9682C20.1847 17.2853 20.2113 17.3644 20.2905 17.391C20.4226 17.4702 20.6604 17.4439 20.9508 17.4702C21.215 17.4965 21.6112 17.4702 21.9282 17.5228C22.2452 17.5757 22.6151 17.9193 22.6677 18.2363C22.694 18.5533 22.7206 18.4738 22.7206 19.2928C24.0159 15.9114 21.691 15.2245 21.4002 15.2245ZM16.7245 15.5152C16.6187 15.5152 16.4866 15.5415 16.3283 15.621C16.1696 15.6739 16.0641 15.8585 16.0112 16.0438C15.985 16.255 16.0641 16.44 16.1167 16.5458C16.1962 16.6249 16.3283 16.7044 16.5395 16.7307C16.0904 16.4929 16.0904 16.123 16.2488 15.8851C16.4071 15.6473 16.6979 15.621 16.962 15.6473C17.1998 15.7002 17.279 15.8322 17.3319 16.0172C17.3845 16.2021 17.2261 16.4926 17.1469 16.5717C17.279 16.5188 17.5697 16.2284 17.6223 16.0172C17.6223 16.0172 18.0188 15.938 18.0188 15.7265C18.0451 15.5415 17.8076 15.436 17.5431 15.3832C17.3848 15.3303 17.3319 15.3303 17.1203 15.304C16.9091 15.2511 16.8562 15.2777 16.6713 15.2777C16.4863 15.2514 16.1693 15.3569 16.0109 15.4626C15.8526 15.5947 15.7468 15.8588 15.5618 16.0438C15.4035 16.2287 14.8486 16.123 14.8486 16.123C14.9544 16.2287 15.0336 16.2287 15.2185 16.2816C15.4564 16.3079 15.5356 16.2816 15.6147 16.3608C15.6939 16.44 15.8789 16.8891 16.2222 17.0211C16.5658 17.1532 17.0412 17.0474 17.279 16.8625C17.6489 16.5983 17.7018 16.2021 17.7018 16.2021L17.279 16.6249C17.0674 16.8099 16.5921 16.942 16.3808 16.8625C16.143 16.8099 15.9843 16.6512 15.8789 16.44C15.7734 16.2021 15.8526 15.938 15.9052 15.8325C15.9843 15.7268 16.0901 15.5947 16.3013 15.4889C16.4863 15.3835 16.6975 15.4098 16.9088 15.4626C16.988 15.4626 17.12 15.5418 17.1995 15.5684C17.0678 15.5152 16.8302 15.5152 16.7245 15.5152V15.5152ZM17.9134 18.8966C17.438 19.0553 14.9547 20.5872 14.9018 20.7459C15.1131 20.8516 17.5172 19.557 17.5172 19.557C17.5172 19.557 16.117 21.01 16.1436 21.1683C16.3549 21.1683 17.8342 19.874 17.8342 19.874C17.8342 19.874 16.8831 21.4325 16.9094 21.644C17.2001 21.5649 18.0983 20.4288 18.0983 20.4288C18.0983 20.4288 17.57 21.7498 17.6226 21.961C17.8342 21.8819 18.3361 21.0629 18.3361 21.0629C18.3361 21.0629 18.1512 21.9876 18.3361 22.146C18.5737 22.0668 18.7323 21.5649 18.7323 21.5649C18.7323 21.5649 18.9436 22.0931 18.8381 22.4367C19.2343 22.648 19.2872 22.5425 19.8421 23.3615C20.3703 24.1539 20.3966 24.3126 20.7931 25.0517C21.665 26.716 23.7521 27.4032 23.7521 27.4032C23.7521 27.4032 22.1407 26.3727 21.3217 24.9992C21.5066 24.9466 21.5329 24.9466 21.6916 24.9197C21.3746 24.6555 21.0842 24.2597 21.0842 24.2597L21.507 24.286C21.507 24.286 21.1633 23.9689 21.0842 23.8106C20.9784 23.6785 20.8992 23.5199 20.7671 23.2294C20.8729 23.2294 20.9784 23.1765 21.1633 23.2031C21.005 22.9387 20.7934 22.6483 20.6351 22.305C20.3972 21.8559 20.2652 20.7728 20.3447 20.4292C20.4767 19.531 21.005 18.6328 21.005 18.6328C21.005 18.6328 20.2918 18.5536 19.8953 18.6857C19.3135 18.87 17.9134 18.8966 17.9134 18.8966V18.8966Z" fill="white"/>
<path fill-rule="evenodd" clip-rule="evenodd" d="M23.752 27.4027C26.9481 27.5879 29.2996 28.0896 31.8621 29.2785C34.0546 30.2821 36.9078 31.4178 40.4212 31.5505C44.4364 31.7088 57.4867 31.4447 66.31 26.9536C57.7771 28.3803 50.5915 27.9841 44.3841 26.61C39.0211 25.3948 25.4691 27.2443 23.752 27.4027ZM36.1679 34.8524C32.8923 34.4825 29.5372 31.4973 28.3749 30.7841C26.7901 29.8593 25.2313 29.1198 22.5105 28.4332C25.5749 29.4368 27.1334 31.7088 30.0923 35.0108C31.8358 36.9392 34.0546 36.3314 36.1679 34.8524Z" fill="white"/>
<path fill-rule="evenodd" clip-rule="evenodd" d="M48.3724 31.8412C45.7571 32.2374 39.734 32.6865 36.4847 31.7354C32.9712 30.6786 31.8355 30.0186 29.9331 29.2788C26.3667 27.9046 23.593 27.7729 21.0569 27.7466C24.3591 27.9049 27.0536 29.0675 29.4311 30.5997C31.1746 31.7092 32.4955 32.8186 34.0277 33.4786C35.7712 34.2187 38.9676 34.8002 40.8431 34.4828C43.353 34.0334 46.3382 32.8981 48.3724 31.8412V31.8412Z" fill="white"/>
</svg>
