<svg width="80" height="50" viewBox="0 0 80 50" fill="none" xmlns="http://www.w3.org/2000/svg">
<rect width="80" height="50" fill="black"/>
<path d="M69.0003 22.8256V24.0912H67.6194V27.4846C67.6194 27.8056 67.6703 28.0198 67.7759 28.1223C67.8845 28.2279 68.0975 28.2849 68.4179 28.2849C68.5241 28.2849 68.6235 28.277 68.7248 28.2696C68.8193 28.2586 68.9132 28.2469 69.0003 28.2279V29.6923C68.8414 29.7211 68.6652 29.734 68.4694 29.7402C68.2749 29.7531 68.0828 29.7549 67.8999 29.7549C67.6053 29.7549 67.3303 29.7359 67.067 29.6966C66.8062 29.6567 66.5766 29.5763 66.3778 29.4627C66.1789 29.348 66.0193 29.1829 65.9039 28.9705C65.7916 28.7625 65.7315 28.4832 65.7315 28.1376V24.0912H64.5899V22.8256H65.7315V20.7708H67.6194V22.8256H69.0003ZM61.6083 26.4971C61.4868 26.537 61.3579 26.5701 61.2228 26.5953C61.0884 26.6235 60.9411 26.6438 60.7926 26.6616C60.6435 26.6812 60.4906 26.7021 60.3396 26.7315C60.1979 26.753 60.061 26.7898 59.9266 26.8353C59.7848 26.8782 59.6682 26.9378 59.5682 27.0133C59.4644 27.09 59.3853 27.1839 59.3214 27.2993C59.2588 27.4134 59.23 27.5589 59.23 27.7369C59.23 27.9063 59.2588 28.0474 59.3214 28.1634C59.3853 28.277 59.4675 28.3678 59.5712 28.4335C59.6792 28.5028 59.8038 28.5452 59.9432 28.5753C60.0886 28.6023 60.2328 28.6127 60.3814 28.6127C60.7502 28.6127 61.0375 28.555 61.2437 28.4292C61.4469 28.3064 61.5948 28.1567 61.6948 27.9842C61.7881 27.8117 61.8501 27.635 61.8734 27.4607C61.8961 27.2827 61.9041 27.1421 61.9041 27.036V26.3314C61.8237 26.4013 61.7261 26.4553 61.6083 26.4971ZM57.8901 23.8303C58.0866 23.5382 58.3345 23.3043 58.6334 23.1294C58.9341 22.9502 59.2717 22.8268 59.6479 22.752C60.0229 22.6758 60.4016 22.6427 60.7822 22.6427C61.1252 22.6427 61.4775 22.6642 61.8304 22.7133C62.1809 22.7624 62.5062 22.8538 62.799 22.9975C63.0911 23.1405 63.3268 23.3387 63.5152 23.5867C63.6993 23.8377 63.7932 24.1765 63.7932 24.5877V28.1622C63.7932 28.4679 63.8104 28.7667 63.8466 29.0497C63.8798 29.332 63.9448 29.5444 64.0332 29.6862L62.1195 29.6923C62.0858 29.5843 62.0557 29.4762 62.0361 29.3645C62.0134 29.2547 61.9962 29.1411 61.987 29.0227C61.6874 29.332 61.3339 29.5499 60.927 29.6733C60.5189 29.7954 60.1046 29.8605 59.6792 29.8605C59.3527 29.8605 59.0471 29.8181 58.7617 29.7389C58.4794 29.661 58.2289 29.5352 58.0172 29.367C57.8036 29.2001 57.641 28.9877 57.5194 28.7324C57.4028 28.4752 57.3396 28.1677 57.3396 27.816C57.3396 27.4282 57.409 27.1084 57.5477 26.8561C57.6845 26.6033 57.8595 26.4013 58.0767 26.2504C58.294 26.1024 58.5401 25.9877 58.82 25.9146C59.0986 25.8398 59.3767 25.779 59.6639 25.7342C59.945 25.6906 60.2255 25.6575 60.5004 25.6274C60.7711 25.6041 61.0166 25.5617 61.232 25.5096C61.4407 25.4568 61.6107 25.3788 61.7329 25.2751C61.8575 25.1751 61.9121 25.0278 61.9041 24.835C61.9041 24.63 61.8734 24.4662 61.8053 24.3477C61.739 24.2329 61.6531 24.1384 61.5414 24.0709C61.4309 24.0059 61.3063 23.9604 61.1578 23.9383C61.0135 23.9138 60.8583 23.9052 60.6901 23.9052C60.3218 23.9052 60.0291 23.9819 59.8161 24.1427C59.6062 24.3023 59.4822 24.5625 59.4466 24.9314H57.5587C57.5876 24.4907 57.6956 24.1231 57.8901 23.8303ZM56.5135 22.8256V24.0912H55.1326V27.4846C55.1326 27.8056 55.1872 28.0198 55.2927 28.1223C55.3977 28.2279 55.6107 28.2849 55.9267 28.2849C56.0354 28.2849 56.1385 28.277 56.2324 28.2696C56.3324 28.2586 56.4257 28.2469 56.5135 28.2279V29.6923C56.3551 29.7211 56.1765 29.734 55.982 29.7402C55.788 29.7531 55.5996 29.7549 55.4106 29.7549C55.1203 29.7549 54.8416 29.7359 54.5814 29.6966C54.3187 29.6567 54.0892 29.5763 53.8885 29.4627C53.689 29.348 53.5319 29.1829 53.4202 28.9705C53.3023 28.7625 53.2453 28.4832 53.2453 28.1376V24.0912H52.1006V22.8256H53.2453V20.7708H55.1326V22.8256H56.5135ZM47.1691 27.9818C47.2538 28.1272 47.36 28.2469 47.495 28.342C47.6276 28.4329 47.7761 28.5059 47.9529 28.5452C48.1235 28.5955 48.3009 28.6127 48.4868 28.6127C48.6194 28.6127 48.7581 28.5973 48.9029 28.5685C49.0502 28.5397 49.1822 28.4863 49.3007 28.4206C49.4203 28.3555 49.5204 28.2672 49.5971 28.1567C49.6787 28.0437 49.7198 27.9063 49.7198 27.7369C49.7198 27.4545 49.5327 27.2416 49.1534 27.0986C48.7771 26.9562 48.2548 26.8169 47.5815 26.6794C47.3084 26.6119 47.0384 26.5376 46.7787 26.4554C46.5191 26.375 46.2871 26.2632 46.0809 26.1282C45.8778 25.9852 45.7157 25.8164 45.5911 25.609C45.4653 25.3979 45.4045 25.1431 45.4045 24.8399C45.4045 24.4011 45.4892 24.0359 45.6635 23.7542C45.8354 23.4719 46.0643 23.2485 46.3467 23.0846C46.6296 22.9232 46.9506 22.8047 47.3072 22.7378C47.657 22.6728 48.0216 22.6427 48.3929 22.6427C48.7636 22.6427 49.1239 22.6759 49.4725 22.7464C49.8266 22.817 50.136 22.9349 50.4128 23.1055C50.6847 23.27 50.9118 23.4958 51.0959 23.7726C51.2776 24.0537 51.3837 24.4036 51.4212 24.8271H49.6272C49.5965 24.4662 49.4633 24.2225 49.2147 24.0955C48.9686 23.969 48.6752 23.9052 48.3401 23.9052C48.2352 23.9052 48.1173 23.9107 47.9952 23.9273C47.8706 23.9383 47.7577 23.9641 47.657 24.0108C47.5564 24.0543 47.4674 24.1219 47.3974 24.2004C47.3262 24.2839 47.2894 24.3993 47.2894 24.5435C47.2894 24.7092 47.3538 24.8455 47.479 24.9492C47.6012 25.0584 47.7669 25.1431 47.9614 25.2119C48.1634 25.2751 48.3898 25.3395 48.6482 25.3917C48.9005 25.442 49.165 25.501 49.4302 25.5617C49.7045 25.6249 49.9703 25.6961 50.233 25.787C50.4932 25.8754 50.7258 25.9932 50.9296 26.1387C51.1339 26.2866 51.2978 26.4658 51.4212 26.6812C51.5427 26.8991 51.6047 27.1673 51.6047 27.4846C51.6047 27.9351 51.5151 28.3126 51.3353 28.6188C51.1524 28.9208 50.9185 29.1663 50.6233 29.3553C50.3312 29.5419 49.9979 29.669 49.6217 29.7469C49.2466 29.8242 48.8606 29.8605 48.4721 29.8605C48.075 29.8605 47.6846 29.8181 47.3084 29.7389C46.9254 29.661 46.5872 29.5247 46.2884 29.3418C45.9956 29.1528 45.7495 28.9091 45.5604 28.6047C45.3702 28.2972 45.2677 27.9149 45.2499 27.4496H47.0433C47.0433 27.6571 47.0838 27.8326 47.1691 27.9818ZM37.7964 24.7688C37.9622 24.3226 38.2034 23.9457 38.5121 23.6272C38.8202 23.3178 39.1927 23.0687 39.6242 22.8968C40.06 22.728 40.5467 22.6427 41.0862 22.6427C41.622 22.6427 42.1118 22.728 42.5518 22.8968C42.9876 23.0687 43.3607 23.3178 43.6713 23.6272C43.9812 23.9457 44.2175 24.3226 44.3863 24.7688C44.5563 25.2186 44.6392 25.7152 44.6392 26.2712C44.6392 26.8169 44.5563 27.3121 44.3863 27.7528C44.2175 28.199 43.9812 28.5759 43.6713 28.8938C43.3607 29.2062 42.9876 29.4505 42.5518 29.6156C42.1118 29.7844 41.622 29.8697 41.0862 29.8697C40.5467 29.8697 40.06 29.7844 39.6242 29.6156C39.1927 29.4505 38.8202 29.2062 38.5121 28.8938C38.2034 28.5759 37.9622 28.199 37.7964 27.7528C37.6283 27.3121 37.5442 26.8169 37.5442 26.2712C37.5442 25.7152 37.6283 25.2186 37.7964 24.7688ZM39.5119 27.0685C39.5647 27.3287 39.6543 27.5662 39.7801 27.7737C39.9078 27.983 40.0796 28.1481 40.2914 28.2714C40.5 28.3954 40.7652 28.4586 41.0862 28.4586C41.4029 28.4586 41.668 28.3954 41.8853 28.2714C42.1013 28.1481 42.2707 27.983 42.3984 27.7737C42.5273 27.5662 42.6181 27.3287 42.6727 27.0685C42.7249 26.8058 42.7476 26.5376 42.7476 26.2669C42.7476 25.992 42.7249 25.7195 42.6727 25.4537C42.6181 25.1904 42.5273 24.9559 42.3984 24.7516C42.2707 24.5496 42.1013 24.3796 41.8853 24.2526C41.668 24.1231 41.4029 24.0605 41.0862 24.0605C40.7652 24.0605 40.5 24.1231 40.2914 24.2526C40.0796 24.3796 39.9078 24.5496 39.7801 24.7516C39.6543 24.9559 39.5647 25.1904 39.5119 25.4537C39.4585 25.7195 39.4321 25.992 39.4321 26.2669C39.4321 26.5376 39.4585 26.8058 39.5119 27.0685ZM34.8652 22.8238V24.0985H34.8946C34.9818 23.8874 35.1021 23.6916 35.253 23.5099C35.4028 23.3277 35.5771 23.1748 35.7711 23.0447C35.9675 22.9171 36.1743 22.8182 36.3971 22.7464C36.6168 22.6759 36.8507 22.6427 37.0839 22.6427C37.2072 22.6427 37.3478 22.6593 37.4957 22.7065V24.46C37.4092 24.4416 37.3005 24.4269 37.179 24.4097C37.0556 24.3993 36.9378 24.3931 36.82 24.3931C36.475 24.3931 36.1853 24.4484 35.9405 24.5668C35.7048 24.6798 35.5108 24.84 35.3678 25.037C35.2224 25.2346 35.1168 25.4678 35.0542 25.7342C34.9904 25.9987 34.9609 26.2866 34.9609 26.5971V29.6923H33.0754V22.8238H34.8652ZM29.7458 29.7003V28.7391H29.7041C29.466 29.1411 29.1554 29.4265 28.7749 29.6051C28.3931 29.7813 28.0046 29.8697 27.6081 29.8697C27.1036 29.8697 26.6899 29.8046 26.3677 29.669C26.0424 29.5389 25.7883 29.348 25.603 29.1055C25.4158 28.8613 25.2838 28.5642 25.2114 28.2162C25.1378 27.8615 25.0991 27.4772 25.0991 27.0531V22.8256H26.9845V26.7088C26.9845 27.2747 27.0729 27.7019 27.2497 27.9762C27.4277 28.2561 27.7413 28.3954 28.1943 28.3954C28.7055 28.3954 29.0756 28.2438 29.3052 27.937C29.5396 27.6282 29.6507 27.1274 29.6507 26.4296V22.8256H31.5404V29.7003H29.7458ZM19.4624 28.0444C19.7435 28.3248 20.1504 28.4586 20.6844 28.4586C21.063 28.4586 21.3883 28.3617 21.6658 28.1757C21.9389 27.9842 22.1083 27.789 22.1709 27.5742H23.8329C23.5647 28.3954 23.1559 28.9877 22.6073 29.3406C22.0573 29.6905 21.3945 29.8697 20.6162 29.8697C20.0774 29.8697 19.5894 29.7831 19.1543 29.6113C18.721 29.437 18.3533 29.1896 18.0538 28.8742C17.7512 28.555 17.5198 28.1708 17.3541 27.732C17.1903 27.287 17.1111 26.7984 17.1111 26.2712C17.1111 25.752 17.1921 25.2751 17.3621 24.8314C17.5284 24.3901 17.7696 24.0059 18.079 23.683C18.3895 23.3571 18.7584 23.1055 19.1874 22.9189C19.6177 22.7299 20.0964 22.6427 20.6162 22.6427C21.2011 22.6427 21.7093 22.752 22.1445 22.979C22.5796 23.2043 22.9344 23.5069 23.2118 23.8874C23.4941 24.2679 23.6893 24.7006 23.8182 25.1904C23.9409 25.6765 23.9839 26.1853 23.9471 26.718H18.9978C19.0254 27.3257 19.1782 27.7712 19.4624 28.0444ZM21.5927 24.4318C21.3675 24.1851 21.025 24.0605 20.5641 24.0605C20.2621 24.0605 20.0105 24.1108 19.8122 24.2127C19.614 24.317 19.4556 24.4416 19.3359 24.5908C19.2156 24.7442 19.1328 24.9019 19.0812 25.0738C19.0358 25.2377 19.0064 25.3917 18.9978 25.5212H22.0653C21.9745 25.0456 21.8167 24.6798 21.5927 24.4318Z" fill="#2465FF"/>
<path d="M43.6924 20.3421H49.8803C55.1647 15.545 63.2159 12.7482 68.9907 12.7985V12C59.4125 12 52.3218 14.3077 43.6924 20.3421Z" fill="#2465FF"/>
<path d="M27.7211 31.876C23.7778 33.5043 19.4293 33.4294 15.1741 32.0957L14.9642 32.7886C17.4518 33.5466 20.0056 33.9468 22.5073 33.7934L22.5521 34.536C19.255 34.7422 15.9143 34.0211 12.7535 32.8212L12.4976 33.4988C16.444 34.9969 20.7489 35.7733 24.8966 34.9773L25.0335 35.7089C20.3616 36.6043 15.5633 35.5892 11.2737 33.8216L11 34.4924C14.2148 35.8071 17.6844 36.7283 21.265 36.7627L21.2601 37.5078C19.4354 37.4986 17.6378 37.2439 15.8984 36.8474L15.7351 37.5532C20.6949 38.7991 26.4464 38.3407 31.1195 35.9802C33.542 34.8061 35.6809 33.3429 37.6658 31.7796L37.6738 31.7925C37.7345 31.7434 37.8014 31.6845 37.864 31.6317H28.3011C28.1072 31.7146 27.9126 31.7999 27.7211 31.876Z" fill="#2465FF"/>
</svg>
