<svg width="80" height="50" viewBox="0 0 80 50" fill="none" xmlns="http://www.w3.org/2000/svg">
<rect width="80" height="50" fill="black"/>
<path d="M34.8752 24.1337H33.6377V22.4658H32.2119V26.9584H33.6646V25.3712H34.9021V26.9584H36.3548V22.4658H34.9021V24.1337H34.8752ZM48.2724 24.1337H47.0349V22.4658H45.5822V26.9584H47.0349V25.3712H48.2724V26.9584H49.7252V22.4658H48.2724V24.1337ZM70.3052 23.784H69.6058V22.4658H68.1531V26.9584H70.2783C71.2199 26.9584 71.9731 26.4473 71.9731 25.5326V25.2098C72 24.2951 71.2199 23.784 70.3052 23.784ZM70.1438 25.8555H69.6058V24.887H70.09C70.4935 24.887 70.6011 25.1829 70.6011 25.3712C70.6011 25.7747 70.2514 25.8555 70.1438 25.8555ZM60.9971 25.2636H62.6112V24.1875H60.9971V23.6495H62.7726V22.4927H59.5444V26.9853H62.8803V25.8016H60.9971V25.2636ZM59.2216 22.4658H57.6613L56.908 24.1606H56.5583V22.4658H55.1056V26.9584H56.5583V25.3712H56.908L57.6882 26.9584H59.3561L58.1455 24.6987L59.2216 22.4658ZM39.2064 22.412H38.507C37.5654 22.412 36.8122 23.0845 36.8122 24.1068V25.3712C36.8122 26.4204 37.5654 27.066 38.507 27.066H39.2064C40.148 27.066 40.9013 26.3935 40.9013 25.3712V24.1068C40.9282 23.0038 40.148 22.412 39.2064 22.412ZM39.4755 25.4519C39.4755 25.7478 39.2333 25.99 38.9374 25.99H38.8029C38.507 25.99 38.2649 25.7478 38.2649 25.4519V23.9992C38.2649 23.7033 38.507 23.4612 38.8029 23.4612H38.9374C39.2333 23.4612 39.4755 23.7033 39.4755 23.9992V25.4519ZM63.9832 24.8601C63.9832 25.5326 63.7949 25.6402 63.5528 25.7478C63.4452 25.8016 63.1493 25.8016 63.1493 25.8016V26.9853H63.7142C64.9248 26.9853 65.3821 26.2859 65.3821 24.6987V23.6764H66.1892V26.9853H67.6419V22.4658H64.0101V24.8601H63.9832ZM43.5377 22.4658H41.4124V26.9584H42.8651V25.8555H43.5646C44.5062 25.8555 45.2594 25.3443 45.2594 24.4296V23.9185C45.2325 22.9769 44.4793 22.4658 43.5377 22.4658ZM43.8336 24.2951C43.8336 24.4565 43.7529 24.7794 43.3225 24.7794H42.8382V23.5957H43.3763C43.5108 23.5957 43.8067 23.7033 43.8067 24.053V24.2951H43.8336ZM51.7159 24.7525V22.4927H50.3439V26.9853H51.6083L53.0879 24.7256V26.9853H54.4599V22.4658H53.1955L51.7159 24.7525Z" fill="white"/>
<path d="M14.7256 26.9046L21.4511 31.451V22.5464L14.7256 18V26.9046Z" fill="#00589C"/>
<path d="M8 24.7255C8 28.438 11.013 31.451 14.7255 31.451V18C11.013 18 8 21.013 8 24.7255ZM21.451 18V31.451C25.1635 31.451 28.1765 28.438 28.1765 24.7255C28.1765 21.013 25.1635 18 21.451 18Z" fill="#0080C8"/>
</svg>
