<svg width="80" height="50" viewBox="0 0 80 50" fill="none" xmlns="http://www.w3.org/2000/svg">
<rect width="80" height="50" fill="black"/>
<path fill-rule="evenodd" clip-rule="evenodd" d="M41.408 38.7422V36.0823C41.408 35.6105 41.408 34.7953 39.8434 34.7953C39.2938 34.7953 38.8709 34.9241 38.6594 34.9671C38.4058 35.0529 38.321 35.1816 38.321 35.3102V38.7422C38.321 38.871 38.3634 38.914 38.4479 38.914H38.8285C38.9554 38.914 38.9976 38.871 38.9976 38.7422V35.5677C38.9976 35.3959 39.2936 35.2246 39.8432 35.2246C40.7312 35.2246 40.7312 35.7823 40.7312 36.1681V38.742C40.7312 38.8707 40.7736 38.9138 40.9003 38.9138H41.3232C41.408 38.871 41.408 38.828 41.408 38.7422ZM45.4249 36.8975C45.4249 35.9966 45.1715 35.3959 44.706 35.0959C44.4526 34.8813 44.0718 34.7953 43.7336 34.7953C43.3529 34.7953 43.0147 34.8811 42.7185 35.0959C42.2958 35.3959 41.9998 35.9966 41.9998 36.8975C41.9998 37.841 42.2958 38.4417 42.7185 38.7422C43.0147 38.914 43.3526 38.9998 43.7336 38.9998C44.0718 38.9998 44.4526 38.914 44.706 38.7422C45.1715 38.4417 45.4249 37.8413 45.4249 36.8975V36.8975ZM44.7483 36.8975C44.7483 37.6269 44.5795 38.0986 44.368 38.3134C44.1566 38.5274 43.9877 38.5704 43.7339 38.5704C43.4376 38.5704 43.2688 38.5274 43.0573 38.3134C42.8459 38.0988 42.677 37.6269 42.677 36.8975C42.677 36.1681 42.8459 35.6965 43.0573 35.4817C43.2688 35.3099 43.4376 35.2246 43.7339 35.2246C43.9877 35.2246 44.1566 35.3099 44.368 35.4817C44.5795 35.6965 44.7483 36.1684 44.7483 36.8975ZM48.1735 35.1819C48.1735 34.9243 47.7084 34.7955 47.1583 34.7955C46.778 34.7955 46.4818 34.8813 46.3129 34.9243C46.0591 34.9673 45.9321 35.0961 45.9321 35.2249V38.7852C45.9321 38.871 46.0167 38.914 46.1014 38.914H46.4818C46.5663 38.914 46.6511 38.871 46.6511 38.7852V35.525C46.6511 35.3104 46.778 35.1819 47.0318 35.1819C47.4969 35.1819 47.5815 35.525 47.8349 35.525C48.0042 35.5247 48.1735 35.4389 48.1735 35.1819V35.1819ZM51.5138 38.4847V33.5943C51.5138 33.4655 51.4715 33.4655 51.3869 33.4655H51.0061C50.8792 33.4655 50.8373 33.5085 50.8373 33.6373V35.0101C50.6258 34.8813 50.3717 34.7955 50.0338 34.7955C48.85 34.7955 48.2156 35.9538 48.2156 36.8978C48.2156 38.3136 48.9767 39 50.1607 39C50.7104 38.9998 51.5138 38.7422 51.5138 38.4847ZM50.8373 38.2276C50.8373 38.4417 50.5411 38.5707 50.1607 38.5707C49.4418 38.5707 48.9346 37.9273 48.9346 36.8548C48.9346 35.9108 49.3997 35.2672 50.1184 35.2672C50.4987 35.2672 50.7104 35.3959 50.8373 35.5247V38.2276ZM53.1627 33.766C53.1629 33.7152 53.1532 33.6649 53.1342 33.6179C53.1151 33.571 53.0871 33.5283 53.0517 33.4924C53.0163 33.4565 52.9742 33.428 52.9279 33.4087C52.8816 33.3893 52.832 33.3795 52.7819 33.3797C52.5285 33.3797 52.3592 33.5515 52.3592 33.8091C52.3592 34.0231 52.5285 34.1949 52.7819 34.1949C53.0358 34.1949 53.2051 33.9801 53.1627 33.766V33.766ZM53.1206 38.7422V35.0531C53.1206 34.9243 53.0782 34.8813 52.9512 34.8813H52.5709C52.444 34.8813 52.444 34.9243 52.444 35.0531V38.7422C52.444 38.871 52.444 38.914 52.5285 38.914H52.9512C53.0782 38.914 53.1206 38.871 53.1206 38.7422ZM59.8856 38.828C59.8856 38.785 59.8432 38.7422 59.8432 38.6992L58.3636 36.7688C58.8709 36.3829 59.4205 35.7823 59.7167 35.1384C59.7587 35.0531 59.7586 35.0101 59.7586 34.9671C59.7586 34.8813 59.7167 34.8813 59.6322 34.8813H59.2936C59.1247 34.8813 59.0826 34.8813 59.0402 35.0101C58.8287 35.6535 58.2791 36.3829 57.6871 36.726L57.6447 36.769L57.6871 36.812L59.0402 38.7855C59.1247 38.9142 59.1247 38.9142 59.2512 38.9142H59.8013C59.8015 38.914 59.8856 38.871 59.8856 38.828V38.828ZM57.5602 38.7852V33.5515C57.5602 33.4227 57.5178 33.4227 57.3908 33.4227H57.0105C56.926 33.4227 56.8836 33.4227 56.8836 33.5515V38.7852C56.8836 38.871 56.8836 38.914 57.0105 38.914H57.3908C57.5178 38.914 57.5602 38.914 57.5602 38.7852ZM56.334 37.7982C56.334 36.5117 54.4737 36.726 54.4737 35.8683C54.4737 35.5677 54.6846 35.2672 55.1078 35.2672C55.5729 35.2672 55.6574 35.5677 55.9113 35.5677C55.9958 35.5677 56.1647 35.4819 56.1647 35.2672C56.1647 34.9671 55.6996 34.7953 55.15 34.7953C54.4734 34.7953 53.8393 35.1816 53.8393 35.9106C53.8393 36.597 54.3043 36.8545 54.854 37.1116C55.319 37.2834 55.742 37.4552 55.742 37.8838C55.742 38.2273 55.4881 38.5702 54.9385 38.5702C54.3889 38.5702 54.262 38.1843 54.0086 38.1843C53.8816 38.1843 53.7123 38.2273 53.7123 38.4414C53.7123 38.742 54.3043 38.9995 54.9385 38.9995C55.6151 38.9998 56.334 38.6564 56.334 37.7982V37.7982ZM25.0867 38.7422V36.0823C25.0867 35.6105 25.0444 34.7953 23.5222 34.7953C22.9302 34.7953 22.5496 34.9241 22.3382 34.9671C22.0845 35.0529 22 35.1816 22 35.3102V38.7422C22 38.871 22.0424 38.914 22.1267 38.914H22.5072C22.6342 38.914 22.6763 38.871 22.6763 38.7422V35.5677C22.6763 35.3959 22.9723 35.2246 23.4798 35.2246C24.41 35.2246 24.41 35.7823 24.41 36.1681V38.742C24.41 38.8707 24.4523 38.9138 24.5793 38.9138H24.9596C25.0444 38.871 25.0867 38.828 25.0867 38.7422ZM29.1036 36.8975C29.1036 35.9966 28.8079 35.3959 28.3849 35.0959C28.0889 34.8813 27.7508 34.7953 27.37 34.7953C27.0318 34.7953 26.6513 34.8811 26.3977 35.0959C25.9324 35.3959 25.679 35.9966 25.679 36.8975C25.679 37.841 25.9326 38.4417 26.3977 38.7422C26.6513 38.914 27.0318 38.9998 27.37 38.9998C27.7506 38.9998 28.0889 38.914 28.3849 38.7422C28.8079 38.4417 29.1036 37.8413 29.1036 36.8975ZM28.4271 36.8975C28.4271 37.6269 28.258 38.0986 28.0466 38.3134C27.8351 38.5274 27.666 38.5704 27.3698 38.5704C27.1162 38.5704 26.9471 38.5274 26.7356 38.3134C26.5241 38.0988 26.3551 37.6269 26.3551 36.8975C26.3551 36.1681 26.5241 35.6965 26.7356 35.4817C26.9468 35.3099 27.1162 35.2246 27.3698 35.2246C27.6658 35.2246 27.8349 35.3099 28.0466 35.4817C28.258 35.6965 28.4271 36.1684 28.4271 36.8975ZM36.0804 36.8975C36.0804 35.9966 35.7844 35.3959 35.3614 35.0959C35.0654 34.8813 34.7273 34.7953 34.3467 34.7953C34.0083 34.7953 33.6278 34.8811 33.3742 35.0959C32.9091 35.3959 32.6555 35.9966 32.6555 36.8975C32.6555 37.841 32.9093 38.4417 33.3742 38.7422C33.628 38.914 34.0086 38.9998 34.3467 38.9998C34.7273 38.9998 35.0654 38.914 35.3614 38.7422C35.7844 38.4417 36.0804 37.8413 36.0804 36.8975ZM35.4038 36.8975C35.4038 37.6269 35.2347 38.0986 35.0233 38.3134C34.8118 38.5274 34.6427 38.5704 34.3467 38.5704C34.0929 38.5704 33.9238 38.5274 33.7126 38.3134C33.5013 38.0988 33.332 37.6269 33.332 36.8975C33.332 36.1681 33.5013 35.6965 33.7126 35.4817C33.9238 35.3099 34.0931 35.2246 34.3467 35.2246C34.6427 35.2246 34.8118 35.3099 35.0233 35.4817C35.2347 35.6965 35.4038 36.1684 35.4038 36.8975ZM32.5707 34.9671C32.5707 34.8813 32.5285 34.8813 32.4862 34.8813H32.1056C32.0211 34.8813 32.0211 34.9243 32.0211 35.0101L31.0064 37.927L29.9914 35.0101C29.949 34.8813 29.9069 34.8813 29.8224 34.8813H29.3573C29.3151 34.8813 29.2303 34.8813 29.2303 34.9671C29.2303 35.0101 29.2303 35.0528 29.2727 35.0959L30.668 38.785C30.668 38.8707 30.7104 38.8707 30.7528 38.9138H31.0485C31.1333 38.9138 31.1754 38.8707 31.2178 38.785L32.5285 35.0959C32.5707 35.0101 32.5707 34.9671 32.5707 34.9671ZM36.5878 16.263C36.7993 16.1342 36.9262 16.0487 37.0105 15.9627C37.3489 15.6623 37.4759 15.8341 37.1375 16.349C36.7148 17.0354 36.0804 17.5073 35.2771 17.8931C35.1081 17.9789 34.8966 18.0646 35.2771 18.2364C35.5729 18.3652 36.3342 18.6653 37.0105 18.8798C37.3911 19.0086 40.0127 19.9096 42.4653 19.9096C44.2835 19.9096 45.89 19.6523 46.8204 19.5662C47.4969 19.5232 49.0193 19.3947 49.78 20.7673C50.4141 21.8828 50.2455 25.4864 50.2877 26.3013C50.3296 26.859 50.2877 31.6638 50.2877 32.0499C50.2877 32.3505 50.2877 32.565 50.0762 32.6075H48.8076C48.4695 32.6075 48.5114 32.7363 48.5114 32.8221C48.5114 32.9939 48.5538 33.2084 48.1732 33.2084H46.9047C46.7354 33.2084 46.6084 32.9939 46.7778 32.6933C48.3842 29.7334 48.2578 27.5024 47.3274 26.2583C47.2517 26.4818 47.1951 26.7114 47.1581 26.9447C47.0316 27.6311 46.9047 27.9317 46.7354 28.0605C45.0865 29.4328 44.2406 31.4493 43.8603 32.522C43.7758 32.7361 43.6489 32.6503 43.5641 32.7361C43.4372 32.9079 43.691 33.2084 43.1838 33.2084H41.8304C41.619 33.2084 41.4921 32.9509 41.7038 32.6503C42.211 32.0069 45.171 29.2187 45.0017 26.2583C45.0017 26.13 44.9172 25.5291 44.7903 25.4004C44.7903 25.3576 44.283 24.9285 43.2259 25.8295C43.099 25.915 43.099 25.915 42.9297 25.7864C42.7604 25.7007 41.4921 25.2288 40.5619 25.5291C39.9699 25.7007 39.2512 26.4729 39.5472 27.6311C39.9275 29.3045 40.7734 30.7203 41.0691 32.3932C41.1115 32.6933 40.8998 32.6073 40.8155 32.7363C40.6886 32.9081 40.9424 33.2086 40.4347 33.2086H39.1243C38.9128 33.2086 38.7437 33.1229 38.9128 32.6075C38.9549 32.4362 38.9973 32.1787 39.0819 31.6641C39.1243 31.1494 39.0819 30.6341 38.9973 30.0337C38.7013 28.1467 37.6442 27.2025 36.7986 26.6449C36.249 27.0307 35.3186 29.9051 35.0228 31.8358C34.9804 32.1359 34.9804 32.2217 34.9804 32.2647C34.9383 32.7793 34.6844 32.6078 34.5999 32.7366C34.4729 32.9083 34.6844 33.2089 34.1772 33.2089H32.951C32.6972 33.2089 32.655 32.9513 32.8662 32.6078C33.6273 31.1924 34.8535 28.9614 34.8535 26.6021C34.8535 26.3446 34.8535 25.5296 34.4729 25.0578C33.6273 24.0283 33.1622 22.827 32.7393 22.0548C32.4433 21.4972 31.9782 21.3684 31.7244 21.2826C31.4284 21.1969 31.1747 21.3256 30.8363 21.1538C30.7518 21.0681 30.5403 20.7678 30.3289 20.5532C30.1596 20.3389 29.9905 20.0386 30.202 19.781C30.5825 19.3092 30.9207 18.9658 30.963 18.6658C30.963 18.6228 30.9207 18.4512 30.963 18.3654C31.0476 18.1509 31.386 17.7648 31.5972 17.4645C31.7241 17.3357 31.6396 17.1214 31.4281 16.8639C31.2169 16.6493 30.6249 15.7914 30.6249 14.4185C30.6249 13.8609 30.7937 13.9037 30.9207 14.247C31.0897 14.6328 31.6396 16.263 33.373 16.7351C34.9809 17.1639 36.038 16.6921 36.5878 16.263V16.263ZM49.061 21.797C49.061 21.8828 49.1034 22.4407 49.0191 23.3841C48.9346 23.985 48.8076 24.4569 48.8922 24.9287C48.9767 25.3576 49.2303 26.8589 49.3149 26.9877C49.3994 27.1165 49.5687 27.0307 49.5687 26.9024C49.5687 26.8167 49.6952 22.8695 49.3573 21.883C49.2303 21.5825 49.1034 21.5395 49.061 21.797V21.797ZM34.5582 16.263C36.2916 16.263 37.6447 14.8474 37.6447 13.1315C37.6447 11.3726 36.2916 10 34.5582 10C32.8667 10 31.4715 11.3728 31.4715 13.1315C31.4715 14.8472 32.8667 16.263 34.5582 16.263ZM32.6131 12.7452C32.6131 11.5869 33.5433 10.6432 34.6849 10.6432C35.8265 10.6432 36.7567 11.5871 36.7567 12.7452C36.7567 13.9034 35.8265 14.8472 34.6849 14.8472C33.5433 14.8472 32.6131 13.9034 32.6131 12.7452V12.7452ZM31.3445 18.4937C31.3024 18.6223 31.3024 19.0084 31.1754 19.1802C31.0909 19.2659 30.9218 19.5235 30.7104 19.7808C30.4565 20.1239 30.668 20.2527 30.964 20.596C31.2178 20.9391 31.8944 20.596 32.6129 21.1536C32.9934 21.4539 33.1203 21.7112 33.5854 22.4407C33.7545 22.698 33.8393 22.5694 33.9659 22.2261C34.1353 21.7112 34.7694 20.3814 35.2345 19.6523C35.4036 19.4377 35.6151 19.1374 35.319 18.9228C35.0654 18.7513 34.5158 18.494 33.9659 18.1507C32.9512 17.593 32.4438 17.2497 32.0632 17.55C31.6829 17.8931 31.3872 18.3222 31.3445 18.4937V18.4937ZM40.7314 22.1401C40.7314 22.612 41.1122 22.6977 41.3658 22.7835C42 22.955 43.2688 22.9123 44.1563 22.4832C44.8329 22.1829 44.4526 20.9818 44.3257 20.7243C44.1987 20.424 43.9453 20.2954 43.6067 20.3382C43.3952 20.381 42.8456 20.3809 42.3805 20.3809C42 20.3809 41.704 20.3382 41.0698 20.3382C40.6047 20.2952 40.6471 20.5097 40.6893 20.81C40.7738 21.3682 40.7314 21.9686 40.7314 22.1401ZM46.1014 20.51C46.4401 20.8961 46.6511 21.5395 46.6935 21.8398C46.7358 22.0971 47.1166 22.0116 47.1585 21.754C47.2435 21.3682 47.1166 20.6815 46.8204 20.3384C46.6935 20.2096 46.4818 20.1239 46.2284 20.1666C45.9745 20.2096 45.8897 20.2957 46.1014 20.51V20.51ZM44.7907 24.4996C45.8059 24.5854 46.5241 24.9285 47.2012 25.3146C47.4122 25.4434 48.0889 25.958 48.3428 24.6712C48.4273 24.3711 48.5538 23.6845 48.5538 23.3841C48.5962 23.1268 48.977 20.1669 47.4122 20.1669C47.1583 20.2099 47.2012 20.2957 47.2433 20.3814C47.3274 20.5102 47.4122 20.6817 47.4543 20.9391C47.6236 21.6257 47.4967 22.0118 47.2433 22.2689C46.9895 22.4834 46.5239 22.5264 46.4398 22.1401C46.1436 21.0676 45.7209 20.1239 44.875 20.2527C44.7057 20.2957 44.7057 20.4242 44.7905 20.6387C44.8329 20.8533 44.9598 21.3682 45.002 21.797C45.0444 22.3546 44.7905 22.6122 44.41 22.8267C43.7758 23.2128 42.1686 23.4701 41.0272 23.1701C40.3507 22.9555 40.3085 22.4409 40.3085 22.2263C40.3085 22.012 40.3509 21.2824 40.3085 21.0681C40.2661 20.5532 40.224 20.2959 39.8856 20.2529C39.4205 20.2099 39.5898 20.2959 39.5474 20.7675C39.5474 20.7675 39.5474 22.741 38.1098 22.698C37.7714 22.698 37.6023 22.3546 37.6447 22.0973C37.7716 21.5397 37.8559 21.0248 37.8559 20.4242C37.8135 19.9953 37.8559 19.8666 36.9679 19.5662C35.9532 19.2659 36.0375 19.2659 35.5303 20.0383C35.1919 20.5102 34.7692 21.3682 34.558 21.9258C34.1774 23.0411 34.5156 23.7705 34.8116 24.2423C34.9385 24.5426 35.4036 24.9715 35.9534 25.2718C37.0103 25.9582 37.8562 26.5161 38.6173 27.1165C38.8711 27.331 38.9978 27.3741 38.9978 26.8589C39.0402 25.1861 40.6469 24.7572 40.816 24.6712C41.4501 24.4569 42.6768 24.3281 44.7907 24.4996ZM38.2791 20.2527C38.3636 21.1536 38.11 21.8828 38.11 22.0116C38.11 22.2259 38.3636 22.2689 38.5329 22.1831C38.8711 21.9686 39.0823 21.3682 39.0823 20.3812C39.0823 20.1666 39.0823 20.0809 38.7018 19.9951C38.3212 19.9523 38.2367 19.9523 38.2791 20.2527ZM31.9365 18.7941C32.2325 19.3089 32.8246 18.4507 32.74 18.2792C32.6976 18.1504 31.6408 18.2792 31.9365 18.7941ZM60.4357 32.2645H60.6891C60.816 32.2645 61.0277 32.2644 61.0277 32.4785C61.0277 32.6931 60.8162 32.6931 60.6891 32.6931H60.4357V32.2645ZM60.2242 33.4225H60.4357V32.8648H60.5621C60.7314 32.8648 60.816 32.9079 60.9853 33.2084L61.0694 33.4225H61.3656L61.1963 33.1654C61.0274 32.9079 60.9429 32.8648 60.8581 32.8218C61.1539 32.8218 61.2384 32.6073 61.2384 32.436C61.2384 32.3502 61.196 32.2642 61.1115 32.1784C61.0274 32.0927 60.8581 32.0927 60.6888 32.0927H60.2237V33.4225H60.2242V33.4225ZM60.7738 31.492C60.0973 31.492 59.5477 32.0497 59.5477 32.7361C59.5477 33.4225 60.0973 33.9801 60.7738 33.9801C61.4504 33.9801 62 33.4225 62 32.7361C62 32.0497 61.4504 31.492 60.7738 31.492V31.492ZM60.7738 31.7068C61.3234 31.7068 61.7885 32.1787 61.7885 32.7363C61.7885 33.2939 61.3234 33.7663 60.7738 33.7663C60.2242 33.7663 59.7586 33.2939 59.7586 32.7363C59.7586 32.1787 60.2242 31.7068 60.7738 31.7068V31.7068Z" fill="white"/>
</svg>
