<svg width="80" height="50" viewBox="0 0 80 50" fill="none" xmlns="http://www.w3.org/2000/svg">
<rect width="80" height="50" fill="black"/>
<path fill-rule="evenodd" clip-rule="evenodd" d="M37.7003 34.6903C32.801 34.4621 29.7955 31.3204 28.2092 26.4285L26.0676 26.385C27.9285 33.5246 32.3862 36.1307 37.7003 34.6903Z" fill="white"/>
<path fill-rule="evenodd" clip-rule="evenodd" d="M42.3 34.7095C47.1994 34.4802 50.2049 31.3391 51.7911 26.4472L53.9331 26.4032C52.0713 33.5433 47.6138 36.1493 42.3 34.7095Z" fill="white"/>
<path fill-rule="evenodd" clip-rule="evenodd" d="M37.5842 35.5838C29.5859 37.374 25.9937 31.0101 25.1437 26.4083L23.0002 26.4229C24.6394 35.2202 32.0128 39.101 37.5842 35.5838Z" fill="white"/>
<path fill-rule="evenodd" clip-rule="evenodd" d="M42.416 35.5838C50.4144 37.374 54.0066 31.0101 54.8576 26.4083L57 26.4229C55.3608 35.2202 47.9875 39.101 42.416 35.5838Z" fill="white"/>
<path fill-rule="evenodd" clip-rule="evenodd" d="M41.8294 36.0087V35.9856C41.8468 35.9674 42.0222 35.7817 42.0222 35.7817C42.024 35.7789 42.0562 35.7269 42.0562 35.7269C42.1035 35.654 42.1569 35.5716 42.1569 35.4739V35.3925C42.1569 35.2307 42.089 35.0645 42.0222 34.9723C42.0199 34.9696 41.9876 34.935 41.9876 34.935C41.9044 34.8489 41.8271 34.7671 41.735 34.7507C41.7433 34.754 41.647 34.7183 41.647 34.7183L41.6143 34.7119L41.5661 34.7019C41.4993 34.7019 41.459 34.7306 41.4497 34.7685C41.4215 34.7891 41.408 34.8312 41.408 34.8611C41.408 34.8656 41.4091 34.8868 41.411 34.8906L41.446 34.9555C41.451 34.9622 41.5423 35.0197 41.5423 35.0197C41.5789 35.0304 41.6449 35.1016 41.6658 35.1759C41.7023 35.2606 41.7233 35.3523 41.7233 35.4254C41.7233 35.5169 41.7015 35.6264 41.6668 35.7051C41.6485 35.7578 41.5885 35.8324 41.5188 35.8324C41.5024 35.8379 41.4549 35.8701 41.4549 35.8701L41.4375 35.8645C41.4211 35.8645 41.4076 35.8739 41.3954 35.8851C41.3599 35.8089 41.3103 35.741 41.2481 35.6896C41.1078 35.5941 40.9337 35.5377 40.7807 35.5377C40.6763 35.5377 40.545 35.5642 40.4365 35.6053C40.3574 35.6466 40.2686 35.7294 40.2053 35.8004C40.1559 35.7358 40.072 35.6694 40.0027 35.6339C39.8942 35.5698 39.7886 35.5381 39.6815 35.5381C39.5289 35.5381 39.3868 35.591 39.3007 35.6798C39.2758 35.7003 39.2104 35.7747 39.144 35.8707C39.1523 35.8462 39.1795 35.7645 39.1795 35.7645L39.2001 35.7134C39.2104 35.6806 39.2436 35.6194 39.2922 35.5821C39.2978 35.5754 39.3806 35.496 39.3806 35.496L39.4358 35.4467C39.4306 35.4516 39.602 35.3625 39.602 35.3625C39.5912 35.365 39.7557 35.333 39.7557 35.333L39.8396 35.311C39.8344 35.3116 39.9896 35.2759 39.9896 35.2759L40.0945 35.2461C40.0945 35.2446 40.2016 35.2226 40.2016 35.2226L40.2694 35.2068C40.2839 35.2031 40.3271 35.189 40.3271 35.1745V35.1655C40.3429 35.1587 40.3589 35.1525 40.3589 35.1525L40.3865 35.1372C40.3854 35.1376 40.3854 35.1376 40.3854 35.1372C40.3854 35.1323 40.4969 35.0651 40.4969 35.0651C40.4969 35.0645 40.6625 34.9205 40.6625 34.9205C40.7073 34.8466 40.749 34.7344 40.749 34.6468L40.7401 34.5557L40.7359 34.515C40.7359 34.4621 40.6606 34.4434 40.6405 34.4434C40.5928 34.4434 40.5436 34.471 40.5436 34.515C40.5498 34.4982 40.5185 34.5819 40.5185 34.5819V34.6202C40.5185 34.6221 40.5178 34.6605 40.489 34.6703C40.4805 34.6743 40.3153 34.7661 40.3153 34.7661C40.3327 34.7605 40.2433 34.7919 40.2433 34.7919C40.2261 34.8003 40.2325 34.8003 40.2325 34.8003L40.175 34.8223L40.1292 34.8395C40.1175 34.8424 39.9293 34.9323 39.9247 34.9346C39.9229 34.9335 39.8635 34.9391 39.8635 34.9391L39.7971 34.9448C39.7953 34.9458 39.799 34.9715 39.7971 34.9719L39.6446 35.014L39.4138 35.1197C39.4082 35.1226 39.2754 35.1983 39.2754 35.1983C39.2605 35.2095 39.1496 35.3354 39.1496 35.3354C39.0519 35.4515 38.9849 35.5898 38.9849 35.6764C38.9859 35.6727 38.9728 35.7544 38.9728 35.7544L38.9471 35.98V36.2307L38.9728 36.3486L38.9971 36.4376L39.011 36.481C39.0229 36.5563 39.0695 36.6484 39.1576 36.7757C39.1986 36.8613 39.2989 36.9081 39.3754 36.9081C39.4018 36.9081 39.4302 36.903 39.4574 36.8964L39.4612 36.9161C39.4612 36.9624 39.5116 37.0004 39.5444 37.0109C39.5537 37.0213 39.6809 37.1589 39.6809 37.1593C39.6815 37.1608 39.7118 37.2346 39.7118 37.2346L39.7469 37.3343C39.7494 37.3441 39.761 37.3936 39.761 37.3936V37.4293C39.7431 37.5472 39.4719 37.6383 39.1679 37.6267C38.932 37.6169 38.6749 37.5378 38.6622 37.3441V34.8137C38.6622 34.7984 38.6491 34.7854 38.6332 34.7854H38.4624C38.4516 34.7865 37.8664 35.0137 37.8664 35.0137C37.8551 35.0182 37.8477 35.0281 37.8477 35.0402V35.1718C37.8477 35.1807 37.8519 35.189 37.8589 35.1946C37.8655 35.1998 37.8753 35.2012 37.8842 35.1998C37.8842 35.1998 38.1606 35.1287 38.2195 35.1129V37.3227C38.2195 37.434 38.3903 37.6973 38.4534 37.7811C38.5947 37.9911 39.6801 37.9733 40.0318 37.8021C40.1638 37.733 40.262 37.5626 40.262 37.4049L40.2161 37.225L40.1904 37.1422C40.1904 37.0737 39.9513 36.9054 39.9495 36.9036C39.9412 36.8998 39.8682 36.8871 39.864 36.8871H39.8648C39.8648 36.8838 39.8331 36.8662 39.8331 36.8662C39.8196 36.8632 39.782 36.8478 39.782 36.8478C39.782 36.8478 39.7615 36.8408 39.7432 36.836C39.7405 36.8234 39.7353 36.8024 39.7339 36.7986C39.7413 36.7954 39.7611 36.7856 39.7611 36.7856C39.7853 36.7893 39.8088 36.7557 39.8171 36.735C39.8088 36.7469 39.8513 36.7112 39.8513 36.7112C39.858 36.7047 39.8621 36.6738 39.8621 36.6645V36.641C39.8598 36.6298 39.8457 36.5939 39.8457 36.5939C39.8472 36.5801 39.8308 36.5399 39.7189 36.5399C39.6924 36.5399 39.6585 36.5525 39.6264 36.5667C39.6227 36.5492 39.6183 36.5349 39.6183 36.5349L39.61 36.51V36.5091C39.61 36.4581 39.5299 36.4089 39.4776 36.4089L39.4056 36.3883C39.4056 36.3817 39.3813 36.3032 39.3813 36.203V36.1638L39.4462 35.9781L39.4813 35.8995C39.516 35.8304 39.609 35.7741 39.6942 35.7737C39.6984 35.776 39.7596 35.7998 39.7596 35.7998H39.7976C39.8252 35.8117 39.9061 35.8486 39.9379 35.8924C39.9715 35.9281 40.008 36.0248 40.008 36.0974V36.269C40.008 36.2864 40.0221 36.3008 40.0397 36.3008H40.3992C40.416 36.3008 40.4295 36.2864 40.4295 36.269V36.1231C40.4295 36.0173 40.4463 35.9307 40.4753 35.892C40.5179 35.8476 40.588 35.7994 40.6409 35.7994C40.6528 35.7994 40.664 35.7919 40.6695 35.7819C40.6695 35.7819 40.6722 35.777 40.6737 35.7732H40.7046C40.8061 35.7732 40.9244 35.8326 40.9563 35.9005L40.9707 35.9326C41.0039 36.0123 41.0428 36.103 41.0428 36.1891V36.2246C41.0391 36.2246 41.0227 36.2511 41.0227 36.2511C41.0171 36.2686 40.9907 36.4487 40.9907 36.4487C40.9907 36.4487 40.988 36.4603 40.9852 36.4734C40.9582 36.4834 40.9229 36.4965 40.9229 36.4965L40.8972 36.51C40.8773 36.5197 40.8528 36.5465 40.8528 36.5465L40.6633 36.7827C40.6166 36.8937 40.5648 37.0306 40.5648 37.1369C40.5648 37.3335 40.647 37.5248 40.7968 37.6729C40.9568 37.7927 41.1504 37.8591 41.3324 37.8591C41.6457 37.8591 41.8998 37.7586 42.034 37.5902C42.1959 37.4086 42.2749 37.228 42.2749 37.0396V37.0079C42.2749 36.7756 42.2044 36.3992 42.129 36.2958C42.0595 36.2019 41.9561 36.0662 41.8294 36.0087ZM41.0206 36.9576L41.0445 36.8965L41.074 36.8928C41.0987 36.8928 41.1178 36.8749 41.1993 36.7902C41.2512 36.751 41.3448 36.641 41.3844 36.5583C41.4238 36.4615 41.4634 36.3117 41.4634 36.1882C41.4634 36.1644 41.4589 36.1419 41.4566 36.1191L41.5425 36.1486C41.6103 36.2098 41.6913 36.2837 41.7006 36.365L41.7311 36.5443L41.7822 36.8778V36.9909C41.7822 37.2324 41.7394 37.4101 41.6599 37.5047C41.5935 37.5813 41.4935 37.6234 41.3779 37.6234C41.2552 37.6234 41.1608 37.5785 41.0967 37.4906C41.0475 37.3686 41.02 37.2473 41.02 37.1364V36.9576H41.0206Z" fill="white"/>
<path fill-rule="evenodd" clip-rule="evenodd" d="M37.588 38.5997C37.6066 38.5792 37.6085 38.5501 37.5936 38.5281C37.5795 38.5056 37.5525 38.4963 37.5261 38.5038C37.5261 38.5038 37.3298 38.565 37.3034 38.5729C37.0781 38.5299 37.0177 38.5028 36.9443 38.3419C36.8774 38.0504 36.8457 37.7542 36.8457 37.4573C36.8457 36.3749 37.2784 35.2948 38.0781 34.4522C38.0889 34.4404 38.0941 34.4266 38.0941 34.4119C38.0941 34.3979 38.09 34.3839 38.0806 34.3725C38.0595 34.3497 38.0258 34.345 38.0005 34.3628C36.6182 35.3321 36.0803 37.3305 36.7753 38.9112C36.7853 38.9331 36.8067 38.9467 36.8301 38.9467C37.18 38.9467 37.3508 38.8691 37.588 38.5997Z" fill="white"/>
<path fill-rule="evenodd" clip-rule="evenodd" d="M43.187 33.7835C43.0083 33.4492 42.6719 33.2203 42.1919 33.1118C41.0458 32.8521 39.3581 33.3627 38.7457 33.814C38.7218 33.8319 38.7154 33.8626 38.7281 33.8893C38.7415 33.9159 38.7725 33.9277 38.7996 33.9178C40.1103 33.4873 41.5922 33.0815 42.5999 33.733C42.6626 33.7986 42.6611 33.8006 42.6261 33.851L42.5455 34.0076C42.5339 34.033 42.541 34.0573 42.5615 34.0754C42.5831 34.0941 42.6149 34.0896 42.6369 34.074C42.7136 34.0195 42.817 34.0165 42.9147 34.0596C43.0793 34.3745 43.1546 34.7051 43.1546 35.0583C43.1546 35.7647 42.8637 36.5568 42.4306 37.4651C42.4258 37.4732 42.4239 37.4816 42.4239 37.4908C42.4239 37.5091 42.4339 37.5274 42.4497 37.5396C42.4735 37.556 42.5067 37.5531 42.5264 37.5322C43.2989 36.7303 43.9397 34.8732 43.187 33.7835Z" fill="white"/>
<path fill-rule="evenodd" clip-rule="evenodd" d="M41.698 38.1581C40.396 38.9253 39.3706 39.2714 37.6818 38.9094C37.6651 38.9048 37.6472 38.9094 37.6337 38.9187L37.3511 39.1279C37.3335 39.1405 37.3245 39.163 37.3278 39.185C37.3316 39.207 37.3469 39.2257 37.3681 39.2321C39.0917 39.7911 40.82 39.1437 41.769 38.2526C41.7905 38.2316 41.7939 38.1974 41.7756 38.1735C41.7569 38.1492 41.7231 38.1432 41.698 38.1581Z" fill="white"/>
<path d="M46.2153 25.0452C48.1724 24.7818 49.8672 23.4187 50.5326 21.5746C51.1991 19.7265 50.7079 17.7181 49.1849 16.0636C49.1291 16.0036 49.043 15.9845 48.9683 16.0158C48.8926 16.0467 48.8448 16.1221 48.8486 16.2026C48.966 18.9765 48.4186 20.7794 47.1766 21.7137C45.8986 22.6745 43.8865 22.7156 41.0377 21.8386C41.0433 21.7552 41.0359 21.672 41.0195 21.5887C44.3244 21.5564 45.8339 19.8728 46.4529 18.8273C47.4581 17.1277 47.4394 14.954 46.4041 13.2886C45.3671 11.6204 43.486 10.7602 41.244 10.9304C41.163 10.937 41.0952 10.9926 41.0724 11.0713C41.0504 11.1493 41.0807 11.2332 41.1452 11.2809C43.3949 12.9082 44.4709 14.4549 44.4334 16.0088C44.3946 17.6293 43.1432 19.2566 40.6189 20.9753C40.5999 20.9622 40.5787 20.9506 40.5577 20.9384C42.5371 18.2828 42.1089 16.0588 41.6501 14.933C40.905 13.1043 39.1614 11.8047 37.2088 11.6222C35.2519 11.439 33.4303 12.418 32.2103 14.3065C32.1663 14.3747 32.1697 14.4632 32.2184 14.5283C32.2674 14.5929 32.3516 14.6204 32.4292 14.5966C35.0863 13.7887 36.9687 13.8672 38.1846 14.8369C39.4467 15.8432 39.9875 17.8098 39.8368 20.8365C39.8088 20.8435 39.7808 20.8477 39.7536 20.857C38.841 17.7289 36.8392 16.7274 35.6759 16.4089C33.7715 15.8872 31.6799 16.479 30.3458 17.9169C29.0097 19.3583 28.6771 21.3993 29.432 23.5164C29.4597 23.5936 29.5318 23.6442 29.6132 23.645C29.6946 23.6461 29.7676 23.5961 29.7956 23.5197C30.7724 20.9207 31.9808 19.4751 33.4903 19.101C35.0415 18.716 36.9093 19.4636 39.1881 21.3833C39.1767 21.4105 39.1674 21.4381 39.1586 21.4657C36.1511 20.3621 34.1724 21.3486 33.2269 22.0812C31.6664 23.291 30.8832 25.3199 31.2327 27.2494C31.583 29.1825 33.0151 30.6737 35.1627 31.3409C35.2399 31.3657 35.3242 31.3391 35.3741 31.2739C35.4231 31.2089 35.4268 31.1205 35.3835 31.0522C33.8908 28.7108 33.4598 26.8762 34.0666 25.4453C34.6856 23.9848 36.3831 22.9449 39.2465 22.274C39.2601 22.297 39.2778 22.3165 39.2937 22.3381C36.4107 23.9381 35.8859 26.1334 35.8386 27.3463C35.7624 29.3194 36.8135 31.223 38.5162 32.1955C40.2224 33.1704 42.2854 33.032 44.1771 31.816C44.2454 31.7712 44.2796 31.6897 44.2618 31.6106C44.2435 31.5312 44.1786 31.4718 44.098 31.461C41.344 31.0995 39.6623 30.2503 38.9555 28.8652C38.224 27.431 38.5392 25.4237 39.9163 22.7409C39.4303 26.095 40.9043 27.8629 41.8643 28.632C43.4051 29.8677 45.5604 30.1555 47.3552 29.3653C49.154 28.5738 50.2692 26.8321 50.417 24.5886C50.4222 24.5073 50.3763 24.432 50.3024 24.3988C50.2279 24.366 50.141 24.3834 50.0849 24.4413C48.156 26.4393 46.4731 27.2864 44.9391 27.0305C43.3476 26.7658 41.9185 25.3104 40.5783 22.5935C40.619 22.5687 40.6578 22.5406 40.6943 22.5093C42.7643 25.0678 45.0144 25.2081 46.2153 25.0452Z" fill="#B01117"/>
</svg>
