<svg width="80" height="50" viewBox="0 0 80 50" fill="none" xmlns="http://www.w3.org/2000/svg">
<rect width="80" height="50" fill="black"/>
<path fill-rule="evenodd" clip-rule="evenodd" d="M37.2686 37.3819H34.7065V29.1347H37.2686V37.3819V37.3819ZM20.5623 37.3819H18V29.1559H21.3669C22.1714 29.1559 23.0715 29.1771 23.7808 29.6427C24.543 30.1507 25.0089 31.0722 25.0089 32.0778C25.0089 32.9671 24.702 33.8142 24.088 34.365C23.4527 34.9471 22.6376 35.0849 21.8434 35.0849H20.5623V37.3819V37.3819ZM21.2187 33.0837C21.801 33.0837 22.4998 33.052 22.4998 32.1733C22.4998 31.3474 21.8751 31.2841 21.2928 31.2841H20.5623V33.0837H21.2187ZM30.7046 37.3819L29.5082 34.9153H28.7143V37.3819H26.1522V29.1559H30.3445C31.0644 29.1559 31.8587 29.2615 32.4725 29.7279C33.1606 30.2041 33.4781 31.0296 33.4781 31.9511C33.4781 33.1684 33.0019 33.9097 32.0278 34.4071L33.5205 37.3817H30.7046V37.3819ZM29.6352 32.9141C30.1858 32.9141 30.8528 32.8191 30.8528 32.0143C30.8528 31.6968 30.7046 31.4003 30.4506 31.2523C30.2389 31.1251 29.9741 31.1251 29.7307 31.1251H28.7145V32.9141H29.6352V32.9141ZM43.6841 29.1136L43.7691 33.3271L41.6094 29.1136H38.9412V37.3608H41.2808L41.1858 33.2105L43.3034 37.3608H46.024V29.1136H43.6841V29.1136ZM58.4 35.5821V33.8457H61.1952V32.364H58.4V30.8711H61.7032V29.103H55.9123V37.3608H62V35.5821H58.4ZM50.1743 34.8095C50.1744 35.0789 50.2815 35.3373 50.472 35.5278C50.6625 35.7183 50.9208 35.8254 51.1903 35.8255C51.7622 35.8255 52.2173 35.3702 52.2173 34.8095V33.8669H54.9595V34.8095C54.9595 36.3974 53.2761 37.6891 51.1903 37.6891C49.4327 37.6891 47.9299 36.7575 47.5275 35.4976C47.5275 35.4976 47.2095 34.5767 47.2095 33.2211C47.2095 31.8659 47.5484 30.9344 47.5484 30.9344C47.9614 29.706 49.4438 28.7956 51.19 28.7956C53.2759 28.7956 54.9593 30.0767 54.9593 31.6646V32.6917H52.2065V31.6968H52.2171C52.2171 31.1355 51.7618 30.6804 51.19 30.6804C50.9205 30.6805 50.6621 30.7876 50.4716 30.9783C50.2811 31.1689 50.174 31.4273 50.174 31.6968C50.174 31.6968 50.1211 32.2366 50.1211 33.2208C50.1214 34.206 50.1743 34.8095 50.1743 34.8095V34.8095ZM43.2288 15.1599V17.0019H36.8979V15.1599H33.2984V21.9355H46.8071V15.1599H43.2288Z" fill="#CC2229"/>
<path fill-rule="evenodd" clip-rule="evenodd" d="M39.9682 16.2714C40.7413 16.282 41.5139 16.3772 42.2128 16.5574C42.234 16.5574 42.2763 16.5468 42.2867 16.5042C42.2549 15.4774 42.4668 14.5245 42.8264 13.6458C42.742 13.5506 42.5724 13.5611 42.4562 13.5929C42.3078 13.6564 42.2128 13.8046 42.2022 13.9633C42.17 14.154 42.4351 14.334 42.2552 14.4927C42.0223 14.4715 42.1813 14.1644 42.0012 14.0797C41.8951 13.9845 41.7255 13.9527 41.5988 14.0162C41.4927 14.0691 41.4186 14.1856 41.4186 14.302C41.6409 14.4184 41.8104 14.6512 41.8422 14.8843C41.8633 15.1385 41.7893 15.3605 41.5776 15.4984C41.5033 15.5407 41.3869 15.5621 41.2914 15.5195C41.1752 15.456 41.1434 15.329 41.1752 15.2018C41.1964 15.1489 41.2596 15.0748 41.313 15.0642C41.3869 15.0536 41.4398 15.0748 41.4927 15.1279C41.5461 15.0007 41.5139 14.8314 41.4398 14.715C41.3448 14.6197 41.2387 14.5562 41.1117 14.5454C40.9845 14.5454 40.8683 14.588 40.7834 14.6726C40.7199 14.7573 40.6566 14.8525 40.6672 14.9795C40.7201 14.9478 40.794 14.9372 40.8469 14.969C40.953 15.0221 40.953 15.1491 40.9318 15.2444C40.9106 15.3182 40.8257 15.3714 40.7622 15.4031C40.646 15.4137 40.5506 15.3819 40.4659 15.2973C40.3704 15.202 40.3175 15.075 40.3492 14.9269C40.3492 14.6515 40.5503 14.3869 40.8046 14.281C40.8789 14.2281 41.0797 14.3022 41.0585 14.1435C41.0691 14.0059 40.9741 13.8998 40.8683 13.8363C40.7728 13.7832 40.6566 13.794 40.5503 13.8257C40.3702 13.8998 40.3913 14.1115 40.2434 14.207C40.2181 14.2124 40.1918 14.2091 40.1687 14.1975C40.1455 14.186 40.127 14.1669 40.1162 14.1435C40.1162 13.9318 40.3807 13.8363 40.349 13.6141C40.3913 13.3495 40.19 13.127 39.9678 13C39.7561 13.127 39.5444 13.3492 39.5865 13.6141C39.5548 13.8363 39.8302 13.9318 39.8302 14.1435C39.8184 14.1661 39.7998 14.1844 39.777 14.1958C39.7542 14.2072 39.7283 14.2111 39.7032 14.207C39.5444 14.1115 39.555 13.8998 39.3855 13.8257C39.2796 13.794 39.1632 13.7832 39.0677 13.8363C38.9619 13.8998 38.8666 14.0056 38.877 14.1435C38.8558 14.3022 39.0571 14.2281 39.1312 14.281C39.3852 14.3869 39.5863 14.6515 39.5863 14.9269C39.6075 15.075 39.5651 15.202 39.4593 15.2973C39.3852 15.3819 39.2897 15.4139 39.1733 15.4031C39.1098 15.3714 39.0252 15.3184 39.004 15.2444C38.9828 15.1491 38.9828 15.0221 39.0887 14.969C39.1416 14.9372 39.2157 14.9478 39.2686 14.9795C39.2792 14.8525 39.2157 14.7573 39.1522 14.6726C39.0631 14.5896 38.9456 14.544 38.8238 14.5454C38.6968 14.556 38.591 14.6195 38.4955 14.715C38.4214 14.8314 38.3897 15.0007 38.4424 15.1279C38.4622 15.103 38.4885 15.0838 38.5183 15.0726C38.5482 15.0614 38.5805 15.0585 38.6119 15.0642C38.6754 15.0748 38.7389 15.1489 38.7601 15.2018C38.7919 15.329 38.7601 15.456 38.6434 15.5195C38.5482 15.5621 38.4318 15.5407 38.3577 15.4984C38.146 15.3608 38.072 15.1385 38.0931 14.8843C38.1249 14.6512 38.2942 14.4184 38.5167 14.302C38.5167 14.1856 38.4426 14.0691 38.3368 14.0162C38.2098 13.9527 38.0404 13.9845 37.9346 14.0797C37.7545 14.1644 37.9134 14.4715 37.6804 14.4927C37.5005 14.334 37.765 14.154 37.7333 13.9633C37.7267 13.8834 37.6986 13.8069 37.652 13.7416C37.6055 13.6764 37.5421 13.625 37.4687 13.5929C37.3629 13.5609 37.1935 13.5506 37.1086 13.6458C37.4687 14.5245 37.6698 15.4774 37.6486 16.5042C37.6592 16.5466 37.691 16.5574 37.7227 16.5574C38.4224 16.3775 39.1954 16.282 39.9682 16.2714V16.2714Z" fill="#9F8428"/>
<path fill-rule="evenodd" clip-rule="evenodd" d="M59.4694 19.903L59.3956 19.7971C59.0673 19.6172 58.6757 19.7971 58.4003 20.0088C56.9184 21.438 55.5734 23.005 54.2822 24.5824C53.9222 25.2176 53.234 25.5034 52.6726 25.8952C52.4819 25.9907 52.3236 26.1598 52.1011 26.128C52.0478 26.0542 52.1329 25.9907 52.1646 25.9164C52.62 25.3446 53.128 24.8049 53.3714 24.1379C53.4142 23.9368 53.393 23.6932 53.2129 23.545C52.9055 23.3016 52.4292 23.4074 52.1117 23.5768C50.968 24.4025 49.9941 25.3978 48.8615 26.2449C48.8192 26.2661 48.8086 26.3294 48.8192 26.3611H48.9036L49.465 25.9698C49.5179 25.9375 49.5917 25.8743 49.6552 25.8954C49.5496 26.2978 49.433 26.7002 49.6769 27.0704C49.8885 27.3355 50.2484 27.3143 50.5341 27.2294C50.8098 27.1238 51.0638 26.9542 51.3072 26.7741C51.4873 26.6579 51.6247 26.4357 51.8152 26.3399C52.2808 26.4778 52.6726 26.1704 53.0435 25.9481C53.0753 25.9799 53.107 25.8846 53.1491 25.9481C53.0647 26.033 53.0224 26.1492 52.9163 26.2021C51.9424 27.4305 51.0743 28.6586 50.111 29.8971C49.8036 30.4056 49.2745 30.8397 49.3591 31.5173C49.3909 31.6017 49.4652 31.6864 49.5499 31.7395C49.6771 31.7924 49.825 31.7501 49.9523 31.7183C51.1696 31.0831 52.0165 29.823 52.7046 28.7221C53.012 28.1612 53.2025 27.5471 53.4459 26.954C54.314 26.8585 55.0445 26.382 55.6374 25.7151C55.6691 25.6306 55.7641 25.5354 55.6797 25.4505C55.6374 25.4399 55.5953 25.4505 55.5525 25.4822C55.0339 25.927 54.4831 26.4672 53.8161 26.6471C53.7105 26.6471 53.5833 26.7315 53.4986 26.6577C53.7632 26.192 54.1656 25.7574 54.4513 25.3129C54.9492 24.7412 55.2667 24.0318 55.9125 23.5765C56.516 23.2167 57.0769 22.7296 57.6277 22.2849C58.3053 21.6603 58.9828 21.025 59.4379 20.231C59.4589 20.1146 59.5012 20.03 59.4694 19.903V19.903ZM52.0478 25.4505C51.7514 25.5777 51.603 25.8846 51.5715 26.1807C51.2331 26.562 50.8307 26.9644 50.3015 27.0382C50.1955 27.0594 50.1108 27.017 50.0365 26.9432C49.8885 26.5302 50.2376 26.1807 50.4706 25.8526C51.1482 25.0796 51.8257 24.275 52.62 23.6083C52.821 23.5236 53.0962 23.5765 53.1491 23.8199C53.1813 24.2327 52.8422 24.5504 52.6835 24.8891C52.5031 25.1118 52.3446 25.4081 52.0478 25.4505V25.4505ZM51.5083 29.8969C51.1059 30.3522 50.7246 30.9027 50.1955 31.2414C50.1425 31.2525 50.0894 31.2308 50.0894 31.1779C50.1216 30.9027 50.3333 30.6911 50.4706 30.458C51.2754 29.3463 52.1223 28.2348 53.0539 27.2289C52.7575 28.2033 52.1011 29.0394 51.5083 29.8969V29.8969ZM59.1094 20.316C58.3685 21.2052 57.4476 21.9571 56.5266 22.6135L56.4948 22.5711C56.6322 22.5923 56.4948 22.4335 56.611 22.4335C56.6216 22.3806 56.6428 22.37 56.6745 22.3171C57.2147 21.6078 57.85 20.9091 58.4958 20.2633C58.718 20.1045 58.9405 19.9138 59.2157 19.935L59.258 19.9879C59.2578 20.1146 59.1731 20.2099 59.1094 20.316V20.316ZM48.3424 23.4284C48.1522 23.2696 47.8876 23.3331 47.6654 23.386C47.2841 23.5871 46.9029 23.8094 46.5532 24.0636C45.3994 24.8893 44.7006 26.3397 43.3773 26.8583L43.3455 26.8482C43.7479 26.5093 44.1926 26.0434 44.3831 25.5354C44.7851 24.7517 44.2876 23.7247 45.0073 23.0789C45.1451 22.8882 45.452 22.8355 45.4734 22.5918C45.378 22.5389 45.325 22.6236 45.2401 22.6342C44.9017 22.8564 44.5732 23.1212 44.2557 23.3858L42.4243 24.9314L40.0842 26.858L39.8091 27.0064C39.7244 26.9959 39.608 27.0488 39.5654 26.9326C39.5548 26.8482 39.5654 26.7419 39.6077 26.6574C40.0101 26.1172 40.5289 25.6092 40.9629 25.0904L42.3601 23.5445L42.4029 23.4599H41.6616L38.7608 26.3501C38.4537 26.5935 38.1362 26.8479 37.7655 26.9747C37.702 26.9853 37.5856 27.017 37.5327 26.943C37.4798 26.7945 37.5856 26.6678 37.6491 26.5511C38.5066 25.5772 39.3218 24.5819 40.1581 23.5975L40.243 23.4493L39.4699 23.4387C39.2368 23.6715 39.004 23.9469 38.771 24.2115C38.2947 24.7303 37.7336 25.2913 37.2042 25.7468C36.8758 25.9691 36.5372 26.2017 36.1244 26.1487L36.135 26.0852C36.3149 25.8101 36.5372 25.545 36.7279 25.2699C37.0031 24.8148 37.3526 24.3806 37.3949 23.8195C37.3737 23.6819 37.2891 23.5549 37.1621 23.47C36.3361 23.0888 35.6797 23.8936 35.0656 24.3806L33.1176 26.0323C32.9906 26.1485 32.8424 26.244 32.821 26.4131C32.8422 26.4768 32.9163 26.4131 32.9692 26.4237L33.615 25.99H33.6891C33.6574 26.1697 33.5939 26.3075 33.5727 26.498C33.5515 26.7837 33.5833 27.112 33.8693 27.2494C34.3984 27.4716 34.9278 27.1226 35.362 26.8152C35.563 26.6779 35.7006 26.4662 35.9229 26.3705C36.4205 26.5401 36.8653 26.2226 37.2782 26.0003L37.31 26.0215C37.1936 26.2649 37.056 26.4977 37.056 26.7835C37.0772 26.9319 37.1301 27.0587 37.2571 27.1436C37.8394 27.3446 38.3688 26.9634 38.8347 26.6567C38.9617 26.5824 39.0675 26.4345 39.2051 26.4027C39.1522 26.6461 39.0464 26.9425 39.2369 27.1647C39.6075 27.4293 40.0099 27.1436 40.3168 26.9425C41.6402 25.9366 42.9318 24.8566 44.2234 23.7346L44.329 23.6817C44.3714 23.7028 44.3185 23.7134 44.3502 23.7346C44.2234 24.1052 44.0962 24.4862 43.9377 24.8463C43.5565 25.5664 43.1541 26.3602 42.4027 26.8155C42.1804 26.9215 41.8519 27.0911 41.6296 26.8792C41.5767 26.8155 41.6296 26.752 41.6296 26.6885C41.8203 26.4234 42.2225 26.6351 42.3389 26.2755C42.3389 26.18 42.3072 26.0744 42.2016 26.0003C42.0849 25.9469 41.9154 25.926 41.7992 26.0109C41.4812 26.1483 41.2695 26.4872 41.2907 26.8475C41.3335 27.0166 41.4814 27.1755 41.6614 27.2388C42.9106 27.6306 44.0118 26.9004 44.9433 26.1062C44.9751 26.1167 45.0068 26.0323 45.0388 26.085C45.0278 26.4662 44.9433 26.911 45.2712 27.1755C45.391 27.228 45.522 27.2498 45.6524 27.239C46.3194 27.1017 46.8914 26.7205 47.4415 26.3075C47.4737 26.2757 47.4737 26.2125 47.4415 26.1802C47.3991 26.1379 47.3464 26.1802 47.2935 26.1802C46.7533 26.5086 46.2559 26.9533 45.5995 26.9639C45.5045 26.9427 45.4511 26.8477 45.4405 26.7522C45.4727 26.3392 45.695 25.9902 46.0231 25.7146L47.4309 24.8889C47.8015 24.6346 48.2357 24.3806 48.4473 23.9573C48.4906 23.7884 48.5224 23.5556 48.3424 23.4284V23.4284ZM35.6383 26.1918C35.2465 26.6259 34.7808 26.9855 34.2303 27.049C34.1456 27.0279 34.0503 27.0278 34.0186 26.9328C33.9763 26.7739 34.0715 26.636 34.135 26.4987C34.8443 25.5243 35.6066 24.5189 36.5701 23.7673C36.7183 23.7038 36.9088 23.6297 37.0572 23.7461C37.29 24.1697 36.8561 24.5295 36.6759 24.8896C36.4323 25.3766 35.7336 25.62 35.6383 26.1918V26.1918ZM47.6437 24.3813C47.2413 24.7096 46.8182 24.9742 46.3526 25.1541L46.3415 25.1436C46.7016 24.5718 47.3474 24.0953 47.866 23.64C47.9614 23.5871 48.1416 23.5342 48.1839 23.6824C48.1945 24.0107 47.8554 24.18 47.6437 24.3813V24.3813Z" fill="white"/>
<path fill-rule="evenodd" clip-rule="evenodd" d="M34.0185 23.9788C34.1455 23.5235 34.3468 22.9203 33.9232 22.539C33.4785 22.2213 32.78 22.2533 32.3141 22.4967C30.9061 23.206 29.8367 24.6881 29.4874 26.1597C29.4134 26.4243 29.4345 26.7737 29.3816 27.0595C28.8734 26.6359 29.0004 25.9478 29.138 25.4083C29.5827 24.2436 30.3238 23.2909 31.2447 22.3591C31.753 22.158 32.2929 22.0414 32.8009 21.8403C33.3066 21.6613 33.7955 21.4381 34.2619 21.1733C34.9289 20.6442 35.8604 20.3793 36.2205 19.5007C36.2946 19.3208 36.3263 19.0242 36.1782 18.8549C35.7229 18.516 35.0559 18.7276 34.5902 18.9078C33.5949 19.4584 32.6528 20.1571 31.7424 20.9087C31.1601 21.417 30.6518 21.9146 30.0695 22.3591C29.7626 22.4226 29.4449 22.4544 29.1274 22.4544C29.0639 22.4332 28.9686 22.4014 29.011 22.3271C29.3073 21.6496 29.5615 20.8662 29.3179 20.1251C28.9896 19.3735 28.1958 19.3629 27.4757 19.384C27.0098 18.9922 26.3746 18.8652 25.7817 18.9605C24.522 19.2041 23.4103 20.1251 22.6587 21.2048C22.6481 21.2577 22.5949 21.3212 22.6481 21.3847C22.701 21.3742 22.7433 21.353 22.7857 21.3107C23.1984 20.8448 23.6114 20.3791 24.1196 19.9979C24.8183 19.4896 25.5806 19.0237 26.491 19.1507C26.724 19.2145 26.9886 19.2672 27.1262 19.4896C26.3428 19.8601 25.5277 20.3048 24.9559 21.0882C24.6596 21.5538 24.2466 22.2316 24.6702 22.7714C24.8924 23.015 25.2207 23.0785 25.5277 23.0256C25.5382 23.0256 25.5488 23.0362 25.5488 23.0468C26.6076 22.6021 27.5286 21.5223 27.7297 20.3683C27.7932 20.1246 27.7614 19.8283 27.6768 19.5952C27.8355 19.5423 28.0048 19.5741 28.1638 19.5847C28.3437 19.5952 28.4496 19.6484 28.6086 19.7011C28.9684 19.8706 28.9684 20.2516 28.9472 20.5905C28.7885 21.3528 28.3755 21.9986 27.9731 22.6444C27.1897 22.7714 26.4169 22.8986 25.6441 23.068C24.0559 23.5442 22.3409 23.8831 21.1763 25.2385C20.8376 25.7147 20.467 26.3288 20.7316 26.9113C21.0493 27.3982 21.6631 27.4722 22.1819 27.4299C22.9759 27.3455 23.7699 27.2498 24.458 26.9113C26.0037 26.0748 27.4329 24.7726 28.3964 23.2693C28.5234 23.0891 28.5872 22.888 28.7351 22.7293C29.0634 22.7505 29.4444 22.687 29.7621 22.7081C29.5505 23.0364 29.2539 23.3222 29.0634 23.6503C28.6293 24.4019 28.2377 25.1853 28.3435 26.1065C28.3753 26.7418 28.9576 27.3243 29.5397 27.5042C29.6137 27.7051 29.7621 27.8956 29.9315 28.0545C30.1855 28.2453 30.5349 28.3509 30.8524 28.2556C32.0065 27.9482 32.5782 26.7415 32.8111 25.7145L32.8851 25.6089C33.4573 25.2069 33.8066 24.5929 34.0185 23.9788V23.9788ZM32.007 21.5014C33.0126 20.6333 34.1137 19.8394 35.2358 19.183C35.4159 19.151 35.6064 18.9922 35.7864 19.1298C35.871 19.1933 35.8816 19.3205 35.8604 19.4264C35.7123 19.7121 35.4051 19.9132 35.1723 20.1357C34.5476 20.7286 33.796 20.9828 33.0973 21.385C32.6607 21.5664 32.2113 21.715 31.7527 21.8297C31.7847 21.7133 31.9117 21.5861 32.007 21.5014V21.5014ZM26.1206 22.2636C25.8348 22.5282 25.4747 22.793 25.0832 22.6343C24.8183 22.4649 24.808 22.1155 24.8609 21.8403C24.9138 21.6601 25.0197 21.4908 25.1255 21.3215C25.6866 20.5487 26.5124 20.0087 27.3698 19.7229L27.4016 19.8394C27.3804 20.8132 26.777 21.5543 26.1206 22.2636V22.2636ZM25.983 24.8998C24.8818 25.9054 23.6645 26.6997 22.3092 27.1126C21.8539 27.2182 21.2506 27.3349 20.9435 26.8582C20.7424 26.2973 21.0493 25.757 21.367 25.3128C21.7483 24.7622 22.3517 24.4656 22.9446 24.2542C24.3315 23.6719 25.8136 23.2166 27.3489 23.0684L27.5712 23.0896C27.1582 23.7354 26.5547 24.3389 25.983 24.8998V24.8998ZM32.1234 26.7843C31.7951 27.3351 31.2447 28.0021 30.5354 27.9487C30.2708 27.8958 30.0589 27.6947 29.9531 27.4513L30.0378 27.3775C30.7577 27.1446 31.4458 26.8483 32.0599 26.3504C32.134 26.2975 32.208 26.2131 32.2929 26.1808C32.3459 26.4137 32.1869 26.5936 32.1234 26.7843ZM32.621 23.4814C32.5893 23.4177 32.5469 23.3438 32.4729 23.3224C32.4199 23.3013 32.3776 23.3542 32.3459 23.3965C32.2929 23.6505 32.4411 23.8727 32.4623 24.127C32.5681 24.5929 32.6316 25.1329 32.494 25.5988C32.24 25.9268 31.9117 26.1491 31.5942 26.3819C31.213 26.647 30.8002 26.8481 30.3767 27.0066C30.1965 27.0489 30.0274 27.1126 29.8367 27.1232C29.6991 26.8158 29.8049 26.4457 29.8684 26.1279C29.9743 25.7573 30.1438 25.4186 30.3343 25.0905C31.0752 24.0212 32.1128 22.8356 33.4468 22.6978C33.5949 22.6978 33.7645 22.7719 33.8386 22.9306C33.955 23.3118 33.828 23.7246 33.701 24.0741C33.5528 24.487 33.2882 24.8575 32.9493 25.1752H32.9282C32.9068 24.6035 32.8327 24 32.621 23.4814V23.4814Z" fill="white"/>
</svg>
