<svg width="80" height="50" viewBox="0 0 80 50" fill="none" xmlns="http://www.w3.org/2000/svg">
<rect width="80" height="50" fill="black"/>
<path d="M12.6582 13.0003C13.0423 13.5479 13.6176 14.7493 13.6214 16.2257C13.6255 17.9306 13.9937 19.0917 14.8304 19.8911C14.4551 20.1833 13.5514 21.1896 13.2902 22.6335C13.9141 22.2182 14.6101 22.2127 14.6101 22.2127C13.646 23.065 12.3283 24.7184 12.2719 27.6468C12.2122 30.7454 14.5103 33.3062 16.6814 33.774C15.2141 32.5502 14.3995 30.8149 14.5809 29.1588C15.1929 31.2604 16.8058 32.7284 19.7083 33.8079C22.4987 34.8462 23.8589 36.3775 24.2016 37.4234C24.6411 36.5032 25.1431 34.1882 24.1185 32.1743C23.577 31.1157 22.7183 29.9345 22.7089 29.9245C22.3181 29.3853 22.2252 28.9163 22.2691 28.6551C22.3474 28.1922 22.6479 28.0264 22.882 28.0264C23.0204 28.0296 23.1349 28.0804 23.2095 28.1618C23.3736 28.3605 23.3258 28.5963 23.2856 28.7276H24.5865C25.1812 28.7276 25.4388 28.539 25.7048 27.8808C25.8318 28.166 26.079 28.8558 26.0173 29.6834C26.2274 29.4744 26.3904 29.2642 26.5011 29.0573C26.8486 28.4204 26.8857 27.5816 26.5392 26.6327C26.7049 26.475 26.8128 26.3178 26.7558 26.0947C26.7516 26.0769 26.7457 26.0524 26.7269 26.0387C26.7269 26.0387 26.477 25.8774 26.3459 25.787C26.221 25.8188 25.294 26.0445 24.5035 26.1438C24.5108 26.1401 25.7564 25.4895 25.9507 25.3881C26.1107 25.306 26.1547 25.213 26.3192 24.5494C26.3329 24.4674 26.4038 24.4041 26.4901 24.4041C26.5872 24.4041 26.6669 24.482 26.6669 24.5808C26.6726 24.8953 26.6558 25.1445 26.6471 25.2856C26.6471 25.305 26.6506 25.3572 26.6691 25.3786C26.6998 25.4136 26.7908 25.4812 26.9205 25.6128C27.3138 24.9618 27.4155 24.6347 27.417 24.598C27.4244 24.504 27.4259 24.3639 27.3497 24.1915C27.3235 24.1314 27.226 23.9273 27.226 23.9273L27.3508 23.5624C27.3733 23.5065 27.421 23.3875 27.409 23.3326C27.3802 23.1962 27.2648 23.071 27.1916 23.0501C27.1053 23.0266 27.008 23.0667 26.9318 23.2349L26.732 23.6751C26.7075 23.7499 26.6385 23.8047 26.5549 23.8047C26.4697 23.8047 26.4009 23.7483 26.3752 23.6715C26.3752 23.6715 26.2528 23.3696 26.1275 23.1544C26.0883 23.0832 26.0151 23.0597 25.9394 23.053C25.8531 23.0467 25.7632 23.0858 25.6916 23.1599L25.3626 23.5042L25.1859 23.116C25.0516 22.7744 25.2298 22.5137 25.4131 22.4229C25.4806 22.3879 25.6187 22.3465 25.8182 22.368C25.9254 22.379 26.0177 22.3924 26.1139 22.4149C26.1139 22.4149 26.4816 22.5 26.6804 22.5016C26.8287 22.5036 27.0201 22.4782 27.0895 22.439C26.857 22.2493 25.494 21.0979 25.494 21.0979C25.4057 21.0227 25.2847 20.9199 25.2957 20.7982C25.3061 20.6524 25.4587 20.5954 25.561 20.6346C25.5919 20.6465 26.0097 20.8662 26.2354 20.9555C26.2543 20.8201 26.2086 20.6184 26.0989 20.4988C25.7237 20.0291 25.4554 19.6053 25.4523 19.6012C25.4523 19.6012 25.7607 18.529 25.4373 17.1333C25.1624 15.9456 25.3457 15.2384 25.445 14.9791C24.4225 15.3226 23.0906 16.1433 22.4641 17.6116C21.7703 17.3195 20.9137 17.3196 20.9048 17.3196C20.3717 17.3196 19.8642 17.3865 19.3789 17.5282C18.293 15.7203 16.0046 13.6533 12.6582 13.0001L12.6582 13.0003ZM64.0806 19.1022C62.8222 19.1012 62.0866 19.4491 61.5483 19.9094C60.9609 20.4105 60.6657 21.2011 60.6657 21.8801C60.6657 23.6472 62.22 24.279 63.0607 24.4113L64.7802 24.6941C65.3643 24.7876 65.5915 25.1244 65.5757 25.4483C65.5523 25.7932 65.3508 26.0088 65.0792 26.1363C64.8895 26.2356 64.3992 26.3698 63.6132 26.3222C62.387 26.247 61.5189 25.8868 60.8889 25.5314V28.0658C61.3503 27.7904 61.9552 27.9069 62.286 27.9721C62.8858 28.0882 63.4351 28.2254 64.0341 28.2363C65.3571 28.2604 66.2503 27.8855 66.8221 27.3965C67.4277 26.8822 67.7366 26.0458 67.7293 25.329C67.7293 23.5001 66.1481 22.9211 65.3105 22.8077L63.5928 22.5227C63.2871 22.4747 62.8059 22.2867 62.8221 21.7637C62.8394 21.4707 63.0278 21.2385 63.2978 21.1135C63.2978 21.1135 63.6896 20.9036 64.5461 20.9448C65.7406 21.0044 66.456 21.3685 67.07 21.7165V19.2552C66.6268 19.5327 66.0582 19.4311 65.7087 19.3459C64.984 19.1688 64.5776 19.1033 64.0806 19.1022V19.1022ZM29.1907 19.2489C29.4124 19.4866 29.5622 19.8948 29.5622 20.3207V27.0203C29.5622 27.4461 29.4124 27.8524 29.1907 28.0892H34.0924C35.682 28.0892 36.7945 26.9379 36.7945 25.3909C36.7945 24.5578 36.3461 23.8585 35.7091 23.4635C36.1428 23.036 36.4443 22.4408 36.4443 21.8248C36.4443 20.1887 35.2308 19.249 33.5959 19.249H29.1907L29.1907 19.2489ZM39.4666 19.2489C39.6599 19.4988 39.714 19.9459 39.5881 20.3061L37.028 28.0892H39.6162C39.4233 27.8416 39.3696 27.3936 39.4965 27.0342L39.6883 26.4505H42.9648L43.1584 27.0342C43.2822 27.3936 43.2307 27.8416 43.0358 28.0892H45.6174L42.7104 19.2488H39.4664L39.4666 19.2489ZM44.8209 19.2489V21.435C45.0581 21.2124 45.4643 21.0625 45.8906 21.0625H47.4213V27.0203C47.4213 27.4461 47.271 27.8524 47.0495 28.0892H49.8602C49.6387 27.8524 49.4892 27.4461 49.4892 27.0203V21.0625H51.0191C51.4454 21.0625 51.8536 21.2124 52.0898 21.435V19.2489H44.8209H44.8209ZM52.9838 19.2489C53.2058 19.4866 53.3545 19.8948 53.3545 20.3207V27.0203C53.3545 27.4461 53.2058 27.8524 52.9838 28.0892H59.7785V25.9068C59.5403 26.1274 59.1346 26.2768 58.7093 26.2768H55.4243V24.543H58.3495V22.7166H55.4243V21.0622H58.5431C58.9699 21.0622 59.3776 21.2122 59.6149 21.4348V19.249H52.9837L52.9838 19.2489ZM21.8598 20.2142C22.2161 20.2173 22.4297 20.3291 22.5609 20.4096C22.969 20.661 23.2393 21.0546 23.3104 21.1492C23.3104 21.1492 23.1576 21.1232 23.0275 21.1305C22.7594 21.1435 22.5605 21.2199 22.4519 21.2648C22.3097 21.3249 22.1502 21.3604 22.0127 21.3541C21.7803 21.3373 21.5948 21.2104 21.4459 20.9659C21.3409 20.794 21.1594 20.7872 21.0602 20.7789C21.021 20.7757 20.9968 20.7627 20.9815 20.7397C20.9643 20.7104 20.9652 20.6761 20.9841 20.649C21.168 20.3683 21.4725 20.2173 21.8598 20.2142L21.8598 20.2142ZM31.6324 21.0621H33.544C33.9998 21.0621 34.371 21.4337 34.371 21.8895C34.371 22.3456 33.9998 22.7165 33.544 22.7165H31.6324V21.0621ZM41.3282 21.4646L42.3649 24.6248H40.2901L41.3282 21.4646H41.3282ZM20.0462 22.094C20.4276 22.0838 20.8477 22.1038 21.3046 22.1683C23.7538 22.5874 24.4048 23.7301 24.4048 23.7301C24.4048 23.7301 23.3593 23.0262 21.2493 22.7018C19.3405 22.4097 17.4703 22.7531 17.463 22.7545C17.4702 22.7499 18.3933 22.1385 20.0461 22.094L20.0462 22.094ZM16.1401 23.4418C15.4969 25.1781 16.1755 26.7234 16.408 27.0619C16.5266 26.9015 16.6755 26.7623 16.8526 26.651C16.8641 25.3087 17.3886 24.1141 18.242 23.6141C18.242 23.6141 17.4764 24.696 17.5134 26.5477C17.5282 27.3482 17.6993 27.862 17.7689 28.0397C17.8974 27.8798 18.0889 27.7431 18.242 27.6496C18.5707 25.5024 20.4045 25.1708 20.4223 25.1682C19.8742 25.5522 18.6069 26.703 18.7935 28.5659C18.9147 29.7828 19.8671 30.3966 20.1493 30.5519C20.1153 30.3235 20.0473 29.6991 20.2082 29.0575C20.3409 28.5183 20.727 27.8021 21.4784 27.5026C21.4726 27.51 20.8502 28.1806 20.7227 29.3348C20.6349 30.1227 20.7707 30.9339 21.0722 31.633C20.9107 31.6205 18.4188 31.0892 18.1992 28.6399C17.8335 28.9796 17.6075 29.4316 17.6064 29.4358C17.2176 28.8312 17.0004 28.1886 16.9038 27.4697C16.5997 27.8041 16.4504 28.1939 16.4504 28.1939C15.7973 27.5831 15.4338 26.7175 15.3768 25.6606C15.3302 24.7906 15.592 23.9723 16.1401 23.4419L16.1401 23.4418ZM21.7013 23.8191C23.4937 23.7971 24.3492 24.462 24.3492 24.462C24.3492 24.462 22.7098 24.1755 21.3311 24.3197C19.605 24.4996 18.395 25.102 18.3845 25.1082C18.8077 24.6417 19.8674 23.9232 21.3307 23.8333C21.4585 23.8254 21.5819 23.8205 21.7014 23.8191L21.7013 23.8191ZM31.6324 24.5429H33.853C34.331 24.5429 34.7213 24.9321 34.7213 25.4098C34.7213 25.8879 34.331 26.2767 33.853 26.2767H31.6324V24.5429V24.5429ZM23.7019 25.0896C24.154 25.0868 24.429 25.1573 24.429 25.1573C23.563 25.3371 22.9152 25.5634 22.109 25.9276C20.9928 26.4313 20.0126 27.249 20.0126 27.249C20.0126 27.249 20.6465 25.9851 21.9126 25.4621C22.6209 25.1687 23.2499 25.0924 23.702 25.0896L23.7019 25.0896ZM41.1987 30.1475C40.9625 30.148 40.728 30.1971 40.5104 30.299C40.0239 30.5257 39.6891 31.0161 39.6922 31.7101C39.6891 32.4013 40.0239 32.8913 40.5104 33.1207C40.7295 33.2227 41.0126 33.2711 41.2577 33.2678C41.4934 33.2736 41.88 33.2497 42.2113 33.06V32.3446C41.8711 32.5823 41.5358 32.6337 41.2792 32.6154C40.9668 32.594 40.4296 32.4765 40.4123 31.7101C40.429 30.9492 40.9668 30.8238 41.2705 30.8058C41.6717 30.7823 42.0101 30.9433 42.1564 31.0411V30.2013C41.9191 30.3387 41.6929 30.1911 41.4348 30.1629C41.3561 30.1523 41.2775 30.1474 41.1987 30.1475L41.1987 30.1475ZM34.3583 30.149C33.5776 30.149 32.8817 30.6983 32.8817 31.7101C32.8817 32.719 33.5776 33.2679 34.3583 33.2679C35.1373 33.2679 35.8337 32.719 35.8337 31.7101C35.8337 30.6983 35.1373 30.149 34.3583 30.149V30.149ZM49.9474 30.149C49.517 30.1475 49.2663 30.2667 49.0824 30.4234C48.8807 30.5948 48.7805 30.8658 48.7805 31.0979C48.7805 31.7013 49.3114 31.9167 49.5983 31.9622L50.1857 32.0584C50.3852 32.0899 50.4638 32.2058 50.4576 32.316C50.4502 32.4352 50.3805 32.5076 50.2874 32.551C50.2232 32.5855 50.0552 32.6306 49.7872 32.6154C49.3676 32.5882 49.0712 32.4663 48.8559 32.3446V33.21C49.0154 33.1149 49.2208 33.1561 49.3341 33.1771C49.5395 33.2168 49.7269 33.2657 49.9306 33.2682C50.3837 33.2766 50.6879 33.1491 50.8828 32.9824C51.0888 32.8061 51.1947 32.5201 51.1931 32.2751C51.1931 31.6506 50.6525 31.4532 50.3672 31.414L49.7795 31.3174C49.675 31.3007 49.5108 31.2354 49.5171 31.0583C49.5227 30.958 49.5862 30.8786 49.6792 30.8358C49.6792 30.8358 49.8127 30.7636 50.1059 30.7777C50.5145 30.7976 50.758 30.9241 50.968 31.0411V30.2013C50.817 30.2964 50.622 30.2608 50.5029 30.2309C50.2552 30.172 50.1173 30.149 49.9475 30.149L49.9474 30.149ZM29.7034 30.2002C29.7787 30.2808 29.8292 30.4196 29.8292 30.5654V32.8533C29.8292 32.9989 29.7787 33.1379 29.7034 33.2185H31.3779C31.9208 33.2185 32.2997 32.825 32.2997 32.2967C32.2997 32.013 32.1471 31.7738 31.9297 31.638C32.0776 31.4933 32.1793 31.2892 32.1793 31.0781C32.1793 30.5199 31.7658 30.2002 31.2077 30.2002H29.7033L29.7034 30.2002ZM36.4571 30.2002C36.5328 30.2808 36.584 30.4196 36.584 30.5654V32.8533C36.584 32.9989 36.5328 33.1379 36.4571 33.2185H38.1316C38.674 33.2185 39.0534 32.825 39.0534 32.2967C39.0534 32.013 38.9004 31.7738 38.683 31.638C38.831 31.4933 38.9352 31.2892 38.9352 31.0781C38.9352 30.5199 38.5197 30.2002 37.9618 30.2002H36.4571V30.2002ZM43.558 30.2002C43.6238 30.2833 43.6423 30.4366 43.6 30.5599L42.7258 33.2184H43.6088C43.5425 33.1337 43.524 32.9804 43.5675 32.8587L43.633 32.6577H44.752L44.8186 32.8587C44.8614 32.9804 44.8425 33.1337 44.7776 33.2184H45.6588L44.6667 30.2002H43.558L43.558 30.2002ZM45.7188 30.2002V30.9449C45.7993 30.8697 45.9376 30.819 46.0829 30.819H46.6065V32.8532C46.6065 32.999 46.5554 33.1378 46.4792 33.2184H47.4394C47.3637 33.1378 47.3131 32.999 47.3131 32.8532V30.819H47.8342C47.981 30.819 48.1197 30.8697 48.2013 30.9449V30.2002H45.7188H45.7188ZM34.3579 30.7864C34.567 30.7864 34.7548 30.8626 34.8849 31.0016C35.0333 31.16 35.1128 31.4059 35.1128 31.7101C35.1128 32.0115 35.0333 32.257 34.8849 32.4152C34.7548 32.5542 34.567 32.6322 34.3579 32.6322C34.1479 32.6322 33.9613 32.5542 33.828 32.4152C33.6797 32.257 33.6012 32.0116 33.6012 31.7101C33.6012 31.4059 33.6797 31.16 33.828 31.0016C33.9613 30.8626 34.1479 30.7864 34.3579 30.7864ZM30.5365 30.8187H31.1897C31.3449 30.8187 31.4715 30.9448 31.4715 31.1012C31.4715 31.2569 31.3449 31.3829 31.1897 31.3829H30.5365V30.8187ZM37.2903 30.8187H37.9431C38.0993 30.8187 38.2252 30.9448 38.2252 31.1012C38.2252 31.2569 38.0993 31.3829 37.9431 31.3829H37.2903V30.8187ZM44.1937 30.9562L44.5486 32.0343H43.8383L44.1937 30.9562ZM30.5365 32.0072H31.2955C31.4586 32.0072 31.5915 32.1396 31.5915 32.3036C31.5915 32.4667 31.4586 32.5997 31.2955 32.5997H30.5365V32.0072ZM37.2903 32.0072H38.0485C38.213 32.0072 38.3452 32.1396 38.3452 32.3036C38.3452 32.4667 38.213 32.5997 38.0485 32.5997H37.2903V32.0072Z" fill="#B30838"/>
</svg>
