<svg width="80" height="50" viewBox="0 0 80 50" fill="none" xmlns="http://www.w3.org/2000/svg">
<rect width="80" height="50" fill="black"/>
<path d="M25.4507 14.8909H25.0678C24.7804 14.8909 24.5396 15.1311 24.5396 15.4179V19.0298C24.5396 19.3166 24.7804 19.5568 25.0678 19.5568H25.4507C25.7384 19.5568 25.9786 19.3166 25.9786 19.0298V15.4179C25.9786 15.1311 25.7384 14.8909 25.4507 14.8909Z" fill="#D81435"/>
<path d="M23.2694 25.4065H22.8867C22.5991 25.4065 22.3584 25.6469 22.3584 25.9342V29.529C22.3584 29.833 22.5991 30.0742 22.8867 30.0742H23.2694C23.5574 30.0742 23.798 29.833 23.798 29.529V25.9342C23.798 25.6469 23.5574 25.4065 23.2694 25.4065Z" fill="#D81435"/>
<path d="M23.2694 30.6512H22.8867C22.5991 30.6512 22.3584 30.8926 22.3584 31.1789V34.7903C22.3584 35.0777 22.5991 35.3189 22.8867 35.3189H23.2694C23.5574 35.3189 23.798 35.0777 23.798 34.7903V31.1789C23.798 30.8926 23.5574 30.6512 23.2694 30.6512Z" fill="#D81435"/>
<path d="M21.0891 30.6512H20.7064C20.4187 30.6512 20.1787 30.8926 20.1787 31.1789V34.7903C20.1787 35.0777 20.4187 35.3189 20.7064 35.3189H21.0891C21.3773 35.3189 21.6168 35.0777 21.6168 34.7903V31.1789C21.6168 30.8926 21.3773 30.6512 21.0891 30.6512Z" fill="#F8A70D"/>
<path d="M25.4516 25.4065H25.0681C24.7813 25.4065 24.5403 25.6469 24.5403 25.9342V29.529C24.5403 29.833 24.7813 30.0742 25.0681 30.0742H25.4516C25.7393 30.0742 25.9795 29.833 25.9795 29.529V25.9342C25.9795 25.6469 25.7393 25.4065 25.4516 25.4065Z" fill="#226BE1"/>
<path d="M27.6267 14.8909H27.2441C26.9564 14.8909 26.7158 15.1311 26.7158 15.4179V19.0298C26.7158 19.3166 26.9564 19.5568 27.2441 19.5568H27.6267C27.9144 19.5568 28.1548 19.3166 28.1548 19.0298V15.4179C28.1548 15.1311 27.9144 14.8909 27.6267 14.8909Z" fill="#F8A70D"/>
<path d="M21.0937 9.62805H20.7058C20.4183 9.62805 20.1772 9.86833 20.1772 10.1691V13.7685C20.1772 14.0568 20.4183 14.2971 20.7058 14.2971H21.0937C21.3814 14.2971 21.6223 14.0568 21.6223 13.7685V10.1691C21.6223 9.86833 21.3814 9.62805 21.0937 9.62805Z" fill="#D81435"/>
<path d="M61.9371 29.4781L59.1468 24.3127C59.1049 24.2305 59.1204 24.0972 59.1731 24.0275L61.8022 20.6636C61.9464 20.473 61.9293 20.1412 61.4906 20.1412H61.0132C60.6582 20.1412 60.4117 20.2869 60.2055 20.5551L57.4184 24.1577C57.3486 24.2553 57.2324 24.2553 57.2246 24.0957V20.6481C57.2246 20.3722 56.9967 20.1428 56.7208 20.1428H56.2899C56.0139 20.1428 55.783 20.3722 55.783 20.6481L55.7861 29.5513C55.7861 29.8441 56.0155 30.0734 56.2914 30.0734H56.7208C56.9967 30.0734 57.2246 29.8441 57.2246 29.5513C57.2246 29.5513 57.2246 26.57 57.2246 26.4429C57.2246 26.3157 57.2618 26.2385 57.3176 26.1667C57.4881 25.9515 57.8447 25.4913 57.8896 25.4401C57.9749 25.3372 58.071 25.3521 58.1128 25.4401C58.164 25.5406 60.3606 29.6513 60.3606 29.6513C60.5326 29.9574 60.759 30.0725 61.0674 30.0725H61.5976C61.8813 30.0725 62.1169 29.8269 61.9371 29.4781Z" fill="#226BE1"/>
<path d="M54.1446 27.1444H53.6361C53.3385 27.1444 53.199 27.3312 53.1587 27.5882C53.061 28.1681 52.7494 28.99 51.6519 28.99C50.6366 28.99 49.9499 28.4324 49.9499 27.076V23.054C49.9499 21.8759 50.587 21.2295 51.6085 21.2295C52.5588 21.2295 52.8983 21.8666 53.0161 22.3518C53.0951 22.6618 53.2703 22.7703 53.5245 22.7703H54.0361C54.295 22.7703 54.4577 22.6091 54.4577 22.3518V22.282C54.3446 20.9101 53.2874 19.9677 51.6271 19.9677C49.7018 19.9677 48.5051 21.1985 48.5051 23.0664V27.0984C48.5051 29.3858 49.8941 30.2611 51.6504 30.2611C53.4982 30.2611 54.5693 29.0167 54.5693 27.5938C54.5693 27.3321 54.405 27.1444 54.1446 27.1444Z" fill="#226BE1"/>
<path d="M39.7097 28.8127H36.2916C36.2172 28.8127 36.1537 28.7509 36.1537 28.6755V25.627C36.1537 25.551 36.2172 25.4895 36.2916 25.4895H38.9967C39.2726 25.4895 39.485 25.2646 39.485 25.0011V24.6988C39.485 24.4399 39.2726 24.2275 38.9967 24.2275H36.2916C36.2172 24.2275 36.1537 24.1655 36.1537 24.0896V21.5613C36.1537 21.4869 36.2172 21.4248 36.2916 21.4248H39.5408C39.7996 21.4248 40.012 21.2125 40.012 20.9443V20.6126C40.012 20.3537 39.7996 20.1398 39.5408 20.1398H35.2716C34.9663 20.1398 34.6965 20.394 34.6965 20.6994V29.4979C34.6965 29.8191 34.9663 30.0735 35.2716 30.0735H39.7097C39.9671 30.0735 40.181 29.8597 40.181 29.5856V29.2841C40.181 29.0259 39.9671 28.8127 39.7097 28.8127Z" fill="#226BE1"/>
<path d="M44.3929 24.274H42.8458C42.7714 24.274 42.7094 24.2135 42.7094 24.1375V21.4899C42.7094 21.4139 42.7714 21.3535 42.8458 21.3535H44.4595C45.3757 21.3535 45.7415 21.9658 45.7415 22.7362C45.7415 23.6244 45.2733 24.274 44.3929 24.274ZM47.4715 29.4708C47.4715 29.4708 46.1631 26.7206 45.5338 25.4834C45.5028 25.3963 45.5214 25.326 45.5803 25.2803C45.633 25.2569 45.6841 25.2327 45.743 25.2016C46.8886 24.6491 47.2513 23.7252 47.2513 22.6974C47.2513 21.1721 46.3616 20.1412 44.7137 20.1412H41.7855C41.4662 20.1412 41.2336 20.3955 41.2336 20.7008V29.5001C41.2336 29.8657 41.4383 30.0715 41.7855 30.0715H42.1203C42.4676 30.0715 42.7094 29.8657 42.7094 29.5001V25.6167C42.7094 25.5406 42.7714 25.4801 42.8458 25.4801H43.7278C43.8643 25.4885 43.9666 25.5294 44.0348 25.6384C44.6192 26.801 45.8655 29.6319 45.8655 29.6319C45.9895 29.9047 46.174 30.0751 46.5073 30.0751H47.132C47.5149 30.0751 47.6048 29.7567 47.4715 29.4708Z" fill="#226BE1"/>
<path d="M32.6781 20.1412H31.3233C31.0938 20.1412 30.914 20.2807 30.8546 20.4807L28.9376 27.2749L27.0155 20.4823C26.951 20.2761 26.7442 20.1412 26.5463 20.1412H25.0975C24.7938 20.1412 24.5399 20.3955 24.5399 20.7008L24.5393 24.2786C24.5393 24.5654 24.7796 24.8072 25.0667 24.8072H25.4505C25.7382 24.8072 25.978 24.5654 25.978 24.2786C25.978 24.2786 25.9796 22.544 25.9796 22.499C25.9796 22.4556 26.0702 22.4339 26.0845 22.4835C26.1105 22.5672 28.1721 29.6806 28.1721 29.6806C28.2563 29.9452 28.4755 30.0734 28.7013 30.0734H29.1403C29.3656 30.0734 29.5717 29.9368 29.6412 29.6818C29.6412 29.6815 31.6894 22.4882 31.6894 22.4882C31.7012 22.4525 31.7943 22.4417 31.7943 22.5006C31.7943 22.5393 31.7943 29.4978 31.7943 29.4978C31.7943 29.819 32.0475 30.0734 32.3515 30.0734H32.6781C33.0001 30.0734 33.253 29.819 33.253 29.4978V20.7008C33.253 20.3955 33.0001 20.1412 32.6781 20.1412Z" fill="#226BE1"/>
<path d="M27.6276 35.8976H27.2447C26.957 35.8976 26.7166 36.1458 26.7166 36.4426V40.037C26.7166 40.3248 26.957 40.5831 27.2447 40.5831H27.6276C27.9153 40.5831 28.1557 40.3248 28.1557 40.037V36.4426C28.1557 36.1458 27.9153 35.8976 27.6276 35.8976Z" fill="#D81435"/>
<path d="M18.9133 20.1505H18.5277C18.2405 20.1505 17.9998 20.3908 17.9998 20.6791V24.291C17.9998 24.5778 18.2405 24.818 18.5277 24.818H18.9133C19.2011 24.818 19.4409 24.5778 19.4409 24.291V20.6791C19.4409 20.3908 19.2011 20.1505 18.9133 20.1505Z" fill="#F8A70D"/>
</svg>
