<svg width="80" height="50" viewBox="0 0 80 50" fill="none" xmlns="http://www.w3.org/2000/svg">
<rect width="80" height="50" fill="black"/>
<path fill-rule="evenodd" clip-rule="evenodd" d="M28.2563 28.6054V22.7308H29.8196L31.8003 27.1208L33.7516 22.7308H35.2492V28.6054H33.9601V25.1879L32.4729 28.6054H31.0988L29.5924 25.2065V28.6054H28.2563Z" fill="white"/>
<path fill-rule="evenodd" clip-rule="evenodd" d="M40.4369 26.3309L39.3584 23.8408L38.3045 26.3309H40.4369ZM37.3404 28.6054H35.8245L38.4302 22.7308H40.2965L42.9209 28.6054H41.4246L40.9081 27.4352H37.841L37.3404 28.6054Z" fill="white"/>
<path fill-rule="evenodd" clip-rule="evenodd" d="M43.5251 28.6054V22.7308H49.1341V23.9055H44.8799V25.0722H48.5274V26.2187H44.8799V27.4303H49.1444V28.6054H43.5251Z" fill="white"/>
<path fill-rule="evenodd" clip-rule="evenodd" d="M51.6094 25.4282H54.5565V23.9055H51.6094V25.4282ZM50.2356 28.6054V22.7308H54.9292C55.5562 22.7308 55.9203 23.0937 55.9203 23.7161V25.6897C55.9203 26.1437 55.5182 26.5541 54.7388 26.5541C54.6947 26.5563 54.6496 26.5541 54.6033 26.5541L55.9695 28.6054H54.4617L53.1663 26.5967H51.6094V28.6054H50.2356Z" fill="white"/>
<path fill-rule="evenodd" clip-rule="evenodd" d="M58.3914 28.6088H57.9263C57.3192 28.6088 57.0269 28.2579 57.0269 27.7471V26.9797H58.3914V27.4342H61.2907V26.2316C61.2907 26.2316 58.4957 26.2316 57.965 26.2316C57.4341 26.2316 57.0516 25.8747 57.0516 25.3792V23.6352C57.0516 23.1074 57.4679 22.7345 57.9743 22.7345C58.4805 22.7345 61.776 22.7345 61.776 22.7345C62.2898 22.7345 62.6454 23.118 62.6454 23.6724C62.6454 24.2262 62.6454 24.3734 62.6454 24.3734H61.2907V23.9091H58.3914V25.0661H61.7074C62.197 25.0661 62.6454 25.39 62.6454 26.0136V27.6902C62.6454 28.2614 62.3286 28.6088 61.7361 28.6088C61.1437 28.6088 58.3914 28.6088 58.3914 28.6088Z" fill="white"/>
<path fill-rule="evenodd" clip-rule="evenodd" d="M63.9551 28.6088V22.7338H65.3478V25.0835L68.0006 22.7338H69.8862L66.7216 25.4628L70.0002 28.6088H68.0479L65.3478 25.9366V28.6088H63.9551Z" fill="white"/>
<path fill-rule="evenodd" clip-rule="evenodd" d="M22.6366 30.815C22.6366 31.6547 21.9562 32.3354 21.1165 32.3354H11.5206C10.6807 32.3354 10 31.6547 10 30.815V20.5206C10 19.6809 10.6807 19 11.5206 19H21.1165C21.9562 19 22.6366 19.6809 22.6366 20.5206V30.815Z" fill="#42B0D5"/>
<path fill-rule="evenodd" clip-rule="evenodd" d="M18.3328 25.3217L20.8263 22.1946L20.8185 22.1845L17.2147 23.92L16.3246 20.0203H16.3121L15.4219 23.92L11.8182 22.1845L11.8104 22.1946L14.3042 25.3217L10.7002 27.0572L10.7034 27.0694H14.7031L13.8129 30.9694L13.8242 30.9745L16.3185 27.8474L18.8123 30.9745L18.8235 30.9689L17.9339 27.0694H21.9335L21.9365 27.0572L18.3328 25.3217Z" fill="#FFFFFE"/>
</svg>
