<svg width="80" height="50" viewBox="0 0 80 50" fill="none" xmlns="http://www.w3.org/2000/svg">
<rect width="80" height="50" fill="black"/>
<path d="M21.8422 24.9403H20.1644L15.2148 19V23.3466C14.7865 23.3467 14.3759 23.5147 14.0731 23.8135C13.7702 24.1124 13.6 24.5177 13.5999 24.9403H10.3071L15.2358 30.8806V26.5133C14.8665 26.4433 14.5339 26.2474 14.2962 25.9598C14.0584 25.6723 13.9308 25.3114 13.9354 24.9403C13.9383 24.5428 14.0897 24.1604 14.3606 23.8663C14.6315 23.5722 15.0029 23.3871 15.4035 23.3466C15.8042 23.3871 16.1755 23.5722 16.4465 23.8663C16.7174 24.1604 16.8688 24.5428 16.8716 24.9403H20.1434L16.0747 29.8664L16.9346 30.8806L22.4504 24.9403L16.9346 19L21.8422 24.9403Z" fill="white"/>
<path d="M13.516 19L8 24.9403L13.516 30.8806L8.58727 24.9403H10.3069L14.3757 20.0349L13.516 19Z" fill="white"/>
<path d="M70.4338 22.9264C70.4338 22.9264 68.5953 25.2951 68.4455 25.4762C68.2995 25.2803 66.4797 22.9264 66.4797 22.9264H65.551V27.3313H66.7418V24.7962C67.0376 25.1658 68.3032 26.8176 68.3032 26.8176H68.599C68.599 26.8176 69.8796 25.1732 70.1605 24.7962V27.3313H71.3475V22.9264H70.4338Z" fill="white"/>
<path d="M59.9682 25.8827V22.9264H58.7737V27.3313H59.7023C59.7023 27.3313 62.7952 24.6595 63.1023 24.375V27.3313H64.2968V22.9264H63.3681C63.3681 22.9264 60.2752 25.6129 59.9682 25.8827Z" fill="white"/>
<path d="M57.4071 22.1874H55.7858L54.3142 23.8133L52.7677 22.1874H50.9404C50.9404 22.1874 53.3257 24.5561 53.4605 24.6854C53.3406 24.8185 51.0003 27.3165 51.0003 27.3165H52.6517C52.6517 27.3165 54.1494 25.6019 54.2992 25.4689C54.4452 25.613 56.0816 27.3165 56.0816 27.3165H57.9538L55.1567 24.5413C55.2466 24.4415 57.4071 22.1874 57.4071 22.1874Z" fill="white"/>
<path d="M50.0041 23.1814C49.7337 22.9901 49.4033 22.8998 49.0717 22.9264H45.8627C45.5548 22.8925 45.2452 22.9728 44.994 23.1519C44.8076 23.4073 44.7247 23.7224 44.7619 24.0351V26.2523C44.7372 26.553 44.8207 26.8526 44.9978 27.0985C45.262 27.2993 45.595 27.3907 45.9264 27.3535H49.0905C49.416 27.3908 49.7435 27.3021 50.0041 27.1059C50.1745 26.8793 50.2581 26.6004 50.24 26.3188V24.0572C50.2651 23.7473 50.1819 23.4382 50.0041 23.1814ZM49.0455 26.3336H45.9226V23.9353H49.0418L49.0455 26.3336Z" fill="white"/>
<path d="M42.6988 22.9264H38.8982V27.3313H40.0927V25.7016H42.7138C42.9948 25.7202 43.274 25.6461 43.5076 25.491C43.6003 25.3971 43.6709 25.2841 43.7143 25.1602C43.7576 25.0363 43.7727 24.9044 43.7585 24.7741V23.8465C43.7585 23.4253 43.6387 22.9264 42.6988 22.9264ZM42.6239 24.5265C42.6291 24.5592 42.6263 24.5926 42.6159 24.6241C42.6055 24.6555 42.5877 24.6841 42.564 24.7076C42.4924 24.7483 42.4108 24.7688 42.3281 24.7667H40.0814V23.8909H42.2607C42.3618 23.8909 42.4966 23.8909 42.5528 23.9537C42.5755 23.9739 42.5928 23.9993 42.6032 24.0276C42.6137 24.056 42.6169 24.0864 42.6127 24.1163L42.6239 24.5265Z" fill="white"/>
<path d="M37.3517 25.0697C37.4354 25.0275 37.5145 24.9767 37.5876 24.9182C37.6618 24.8456 37.7198 24.7584 37.7579 24.6623C37.7959 24.5662 37.8132 24.4633 37.8085 24.3602V23.8466C37.8174 23.7222 37.7997 23.5974 37.7565 23.4802C37.7133 23.363 37.6455 23.2562 37.5576 23.1666C37.3227 22.9885 37.0291 22.9029 36.7338 22.9264H32.9519V27.3313H36.5241C36.8473 27.3456 37.1683 27.2727 37.4527 27.1207C37.5716 27.044 37.6684 26.9385 37.734 26.8143C37.7996 26.69 37.8317 26.5512 37.8272 26.4112V25.8827C37.8311 25.6466 37.741 25.4184 37.5763 25.2471C37.5076 25.1808 37.4323 25.1213 37.3517 25.0697ZM34.1427 23.8318H36.262C36.4979 23.8318 36.5429 23.8761 36.5429 23.8761C36.5641 23.895 36.5806 23.9186 36.591 23.9449C36.6014 23.9712 36.6054 23.9995 36.6028 24.0276V24.4046C36.6059 24.4292 36.6034 24.4542 36.5957 24.4779C36.5879 24.5015 36.575 24.5231 36.5578 24.5413C36.4614 24.5878 36.3541 24.6082 36.247 24.6004H34.1277V23.8318H34.1427ZM36.6477 26.1081C36.6536 26.1831 36.6324 26.2578 36.5878 26.3188C36.5578 26.352 36.4829 26.3816 36.307 26.3816H34.1576V25.5132H36.292C36.3993 25.499 36.5084 25.5198 36.6028 25.5723C36.6278 25.6017 36.6462 25.636 36.6565 25.673C36.6668 25.71 36.6689 25.7488 36.6627 25.7866V26.1007L36.6477 26.1081Z" fill="white"/>
<path d="M27.7845 25.1806H30.0949V24.1348H27.7845V23.2332H31.7275V22.1874H26.4141V27.3165H31.7724V26.2079H27.7696V25.1806H27.7845Z" fill="white"/>
</svg>
