<svg width="80" height="50" viewBox="0 0 80 50" fill="none" xmlns="http://www.w3.org/2000/svg">
<rect width="80" height="50" fill="black"/>
<path d="M32.2656 27.3052H35.7136V26.5244H33.1298V22.4231H32.2656V27.3052ZM36.6642 22.4231V27.3052H37.5284V22.4231H36.6642ZM43.2232 26.6274V24.5767H41.132V25.3232H42.3936V26.2327C42.2467 26.3443 42.0653 26.4301 41.8665 26.4987C41.6591 26.5673 41.4431 26.6017 41.2097 26.6017C40.9591 26.6017 40.7258 26.5588 40.527 26.473C40.3196 26.3872 40.1468 26.2585 39.9999 26.104C39.853 25.9496 39.7407 25.7608 39.6629 25.5463C39.5851 25.3318 39.5419 25.1001 39.5419 24.8513C39.5419 24.6111 39.5851 24.388 39.6629 24.1821C39.7407 23.9761 39.853 23.7874 39.9999 23.6329C40.1468 23.4785 40.311 23.3498 40.5098 23.264C40.6999 23.1696 40.9159 23.1267 41.1406 23.1267C41.2962 23.1267 41.4344 23.1353 41.564 23.161C41.6937 23.1867 41.8146 23.2211 41.9183 23.264C42.022 23.3069 42.1257 23.3669 42.2295 23.427C42.3245 23.4956 42.4196 23.5643 42.5146 23.6415L43.059 22.9894C42.9294 22.8864 42.7998 22.7921 42.6702 22.7063C42.5405 22.629 42.3936 22.5604 42.2467 22.5003C42.0998 22.4403 41.9356 22.3974 41.7628 22.3716C41.59 22.3373 41.3912 22.3287 41.1752 22.3287C40.8036 22.3287 40.4665 22.3974 40.1555 22.5347C39.8444 22.6719 39.5765 22.8521 39.3518 23.0838C39.1271 23.3155 38.9543 23.5814 38.8246 23.8903C38.7037 24.1992 38.6345 24.5253 38.6345 24.8685C38.6345 25.2288 38.695 25.5549 38.816 25.8638C38.937 26.1727 39.1098 26.4386 39.3345 26.6617C39.5592 26.8848 39.8271 27.065 40.1382 27.1937C40.4493 27.3224 40.8036 27.3825 41.1838 27.3825C41.3999 27.3825 41.6073 27.3653 41.806 27.3224C42.0048 27.2795 42.1863 27.228 42.3591 27.1594C42.5319 27.0907 42.6875 27.0049 42.8344 26.9191C42.9726 26.8333 43.1023 26.7304 43.2232 26.6274V26.6274ZM47.5613 25.246V27.3052H48.4255V22.4231H47.5613V24.4566H45.2195V22.4231H44.3553V27.3052H45.2195V25.246H47.5613ZM51.7698 23.2211H53.3253V22.4231H49.3329V23.2211H50.8884V27.3052H51.7698L51.7698 23.2211Z" fill="white"/>
<path d="M55.1053 23.6493C55.1053 23.5378 55.1313 23.4348 55.1831 23.3319C55.235 23.2375 55.3041 23.1517 55.3905 23.083C55.4856 23.0144 55.5893 22.9543 55.7189 22.9114C55.8485 22.8685 55.9954 22.8514 56.151 22.8514C56.4016 22.8514 56.6435 22.8943 56.8769 22.9801C57.1102 23.0659 57.3435 23.1946 57.5682 23.3833L57.888 22.9543C57.6373 22.757 57.3781 22.6025 57.1016 22.5082C56.8337 22.4052 56.5139 22.3623 56.1596 22.3623C55.9263 22.3623 55.7103 22.3966 55.5115 22.4653C55.3127 22.5339 55.1399 22.6283 55.0016 22.7484C54.8547 22.8685 54.7424 23.0058 54.6646 23.1688C54.5869 23.3319 54.5436 23.512 54.5436 23.7094C54.5436 23.9153 54.5782 24.0869 54.6387 24.2414C54.7078 24.3872 54.8029 24.5245 54.9412 24.6361C55.0794 24.7476 55.2523 24.842 55.4596 24.9192C55.6671 24.9964 55.909 25.0651 56.1942 25.1251C56.4534 25.1852 56.6608 25.2367 56.8337 25.2967C56.9979 25.3568 57.1275 25.4254 57.2226 25.5026C57.3176 25.5799 57.3781 25.6571 57.4213 25.7515C57.4559 25.8458 57.4818 25.9488 57.4818 26.0604C57.4818 26.3092 57.3781 26.5151 57.1793 26.6695C56.9806 26.824 56.7127 26.9012 56.3843 26.9012C56.0386 26.9012 55.7362 26.8412 55.4769 26.7296C55.2177 26.6181 54.9584 26.4465 54.6992 26.2062L54.3535 26.6095C54.6473 26.8755 54.9584 27.0728 55.2868 27.2015C55.6152 27.3302 55.9695 27.3903 56.367 27.3903C56.609 27.3903 56.8337 27.356 57.0411 27.2959C57.2485 27.2273 57.4213 27.1415 57.5682 27.0128C57.7151 26.8926 57.8275 26.7468 57.9139 26.5752C58.0003 26.4036 58.0435 26.2148 58.0435 26.0003C58.0435 25.6228 57.9139 25.331 57.6546 25.1165C57.3954 24.902 56.9892 24.739 56.4448 24.6103C56.1769 24.5588 55.9522 24.4988 55.7794 24.4301C55.6066 24.3701 55.4683 24.3014 55.3732 24.2242C55.2782 24.147 55.209 24.0612 55.1658 23.9668C55.1226 23.8638 55.1053 23.7609 55.1053 23.6493V23.6493ZM60.9298 22.9372H62.5804V22.4309H58.7175V22.9372H60.3681V27.3131H60.9298L60.9298 22.9372ZM67.1691 22.4224H63.6174V27.3045H67.2036V26.7982H64.1704V25.0908H66.858V24.5846H64.1704V22.92H67.1691L67.1691 22.4224ZM71.9997 23.984C71.9997 23.7437 71.9565 23.5206 71.8701 23.3319C71.7837 23.1431 71.6627 22.9801 71.4985 22.8428C71.3343 22.7141 71.1442 22.6111 70.9195 22.5339C70.6949 22.4653 70.4442 22.4224 70.1677 22.4224H68.3271V27.3045H68.8801V25.5799H70.0727C70.3319 25.5799 70.5825 25.5455 70.8158 25.4769C71.0492 25.4083 71.2566 25.3053 71.4294 25.1766C71.6022 25.0393 71.7405 24.8763 71.8442 24.6704C71.9565 24.4816 71.9997 24.2414 71.9997 23.984V23.984ZM71.438 24.0011C71.438 24.1641 71.4035 24.31 71.343 24.4473C71.2825 24.576 71.1874 24.6961 71.0665 24.7905C70.9455 24.8849 70.8072 24.9621 70.6344 25.0136C70.4702 25.065 70.2801 25.0908 70.0813 25.0908H68.8801V22.9457H70.1245C70.522 22.9457 70.8418 23.0316 71.0838 23.2117C71.3257 23.3833 71.438 23.6493 71.438 24.0011V24.0011Z" fill="white"/>
<path d="M12.2925 30.7193H18.4426C20.277 30.7193 21.6176 29.6812 22.6054 28.274C23.1933 27.432 23.8048 26.6822 24.9455 26.6822H28.6614V24.7675H23.5108C22.3702 24.7675 21.7705 25.5172 21.1707 26.3592C20.183 27.7664 18.8542 28.8046 17.0079 28.8046H12.2925V30.7193Z" fill="#2D36FB"/>
<path d="M9 28.1347H16.62C18.4544 28.1347 19.795 27.0966 20.7828 25.6894C21.3707 24.8474 21.9822 24.0976 23.1229 24.0976H30.3548V21.71H23.1229C20.8769 21.71 20.2066 22.7365 19.2776 23.9361C18.5956 24.8243 17.8665 25.7471 16.62 25.7471H9L9 28.1347Z" fill="#2D36FB"/>
<path d="M10.8335 25.1133H16.1369C17.3834 25.1133 18.1125 24.179 18.7945 23.3024C19.7235 22.1028 20.3938 21.0762 22.6398 21.0762H26.6967V19H21.605C19.359 19 18.6887 20.0266 17.7597 21.2262C17.0777 22.1143 16.3486 23.0371 15.1021 23.0371H10.8335V25.1133Z" fill="#2D36FB"/>
</svg>
