<svg width="80" height="50" viewBox="0 0 80 50" fill="none" xmlns="http://www.w3.org/2000/svg">
<rect width="80" height="50" fill="black"/>
<path d="M25.7783 20.5559L21.3338 23.667L20.0005 25.4447L24.4449 29.8892L34.6672 31.667L54.6671 30.3336L58.6671 28.1114L62.2227 25.4447L56.8894 21.8892L49.7783 19.667L39.556 18.7781L25.7783 20.5559Z" fill="white"/>
<path fill-rule="evenodd" clip-rule="evenodd" d="M33.6288 26.3193C33.6288 27.3518 32.9384 27.605 32.5928 27.605C32.3314 27.605 31.865 27.4935 31.865 27.0078C31.865 26.4306 32.3966 26.3196 32.6957 26.2686C33.2463 26.1668 33.1999 26.1976 33.6288 25.9954V26.3193ZM16 25.4447C22.2766 30.6809 30.7166 33.8889 39.9999 33.8889C49.2827 33.8889 57.7231 30.6809 64 25.4447C57.7231 20.208 49.2827 17 39.9999 17C30.7168 17 22.2769 20.208 16 25.4447V25.4447ZM25.4785 26.4805C25.4685 26.9413 25.6953 27.6694 26.8604 27.6694C27.4723 27.6694 28.0942 27.5513 28.0942 26.8984C28.0942 26.0842 27.1762 25.9344 26.337 25.7311C25.0934 25.431 24.0567 25.0886 24.0567 23.4188C24.0567 22.2086 24.8071 21.2022 26.8899 21.2022C28.8047 21.2022 29.4958 22.3801 29.5156 23.4724H27.9754C27.9364 23.0654 27.6701 22.6588 26.7914 22.6588C25.9822 22.6588 25.7254 23.0009 25.7254 23.3759C25.7254 24.0291 26.4953 24.1683 27.0875 24.2963C28.5383 24.5969 29.7627 24.9929 29.7627 26.6304C29.7627 27.2405 29.6049 29.1249 26.8406 29.1249C24.2937 29.1249 23.8399 27.4761 23.8301 26.4803H25.4785V26.4805V26.4805ZM39.5311 25.8741C39.5311 27.1495 38.9895 27.605 38.4199 27.605C37.7477 27.605 37.3185 26.947 37.3185 25.8741C37.3185 24.9829 37.6174 24.1425 38.4199 24.1425C39.1296 24.1422 39.5311 24.7599 39.5311 25.8741ZM40.8753 28.4457V21.3584H39.4562V23.8185C39.1391 23.3625 38.4946 23.1093 38.0282 23.1093C36.6745 23.1093 35.844 24.2337 35.844 25.8531C35.844 27.5037 36.665 28.6385 38.0002 28.6385C38.5975 28.6385 38.9708 28.3949 39.4377 27.828H39.4562V28.446H40.8753V28.4457V28.4457ZM44.2848 27.605C43.2765 27.605 43.1643 26.5223 43.1643 25.8639C43.1643 24.2235 43.9677 24.1425 44.2848 24.1425C44.6396 24.1425 45.4052 24.2237 45.4052 25.8639C45.4052 26.5121 45.3115 27.605 44.2848 27.605ZM44.2848 28.6382C45.7595 28.6382 46.8794 27.7567 46.8794 25.8636C46.8794 23.9905 45.7685 23.1098 44.2848 23.1098C42.9588 23.1098 41.6896 23.8385 41.6896 25.8636C41.6896 27.757 42.81 28.6382 44.2848 28.6382ZM49.1405 21.5512V28.6385H47.722V21.5512H49.1405V21.5512ZM51.4145 23.4948V28.6382H49.9959V23.4948H51.4145V23.4948ZM53.633 24.1122C54.0158 23.545 54.6413 23.3018 55.276 23.3018C55.92 23.3018 56.8631 23.4951 56.8631 25.4079V28.6385H55.4441V25.6609C55.4441 25.1552 55.3974 24.335 54.6413 24.335C53.7076 24.335 53.6892 25.5197 53.6892 25.7421V28.6385H52.2706V23.4948H53.6332V24.1122H53.633V24.1122ZM31.9861 24.9627C31.9861 24.203 32.6021 24.1422 32.8543 24.1422C33.0131 24.1422 33.6009 24.1527 33.6199 24.8202V24.9627C33.5919 25.4686 33.2186 25.3671 32.1726 25.5396C31.3141 25.6916 30.4087 25.9746 30.4087 27.1493C30.4087 27.5745 30.5485 28.6382 32.0612 28.6382C32.6398 28.6382 33.2745 28.4457 33.6481 27.9392H33.6755L33.7969 28.4457H35.2906V28.3542C35.0199 28.2837 35.0012 27.9392 35.0107 27.3825L35.0387 25.0334C35.0482 24.4357 35.0012 23.109 32.8635 23.109C32.3501 23.109 30.6978 23.1698 30.6327 24.9624H31.9861V24.9627V24.9627ZM49.9959 21.5512H51.4145V22.7553H49.9959V21.5512Z" fill="#CC2229"/>
</svg>
