<svg width="80" height="50" viewBox="0 0 80 50" fill="none" xmlns="http://www.w3.org/2000/svg">
<rect width="80" height="50" fill="black"/>
<path fill-rule="evenodd" clip-rule="evenodd" d="M13.4729 21.8815V25.0338L13.7671 25.0605C14.5152 25.0605 15.0493 24.9271 15.3967 24.66C15.744 24.4194 15.9041 24.0189 15.9041 23.458C15.9041 22.9502 15.7707 22.5765 15.4501 22.2826C15.1296 22.0152 14.702 21.8818 14.1411 21.8818H13.8737L13.4729 21.8815ZM13.4729 27.8123V27.9457C13.4729 28.1864 13.5 28.3732 13.5264 28.4531C13.5531 28.5601 13.6865 28.667 13.8737 28.7473C14.0606 28.8542 14.1675 28.9071 14.1943 28.9071C14.2477 28.9606 14.3012 29.0411 14.3012 29.1748V29.4419H10V29.1748C10 29.0678 10.0535 28.9609 10.1602 28.8807C10.2939 28.8272 10.4276 28.7473 10.5075 28.7209C10.6412 28.6403 10.7211 28.5604 10.7749 28.4802C10.8017 28.3996 10.8284 28.2662 10.8284 28.0791V22.4959C10.8274 22.3606 10.8094 22.2259 10.7749 22.0951C10.7146 22.0042 10.6316 21.9306 10.5342 21.8815C10.4009 21.8013 10.2671 21.7478 10.1602 21.6679C10.1111 21.6428 10.0701 21.6045 10.0418 21.5573C10.0135 21.5101 9.99903 21.4559 10 21.4008V21.1337H15.0758C17.4532 21.1337 18.6285 21.8818 18.6285 23.4045C18.6285 24.1523 18.3082 24.7399 17.6935 25.1407C17.0524 25.5412 16.1174 25.7281 14.8886 25.7281H13.4726V27.8123H13.4729V27.8123ZM21.2466 21C21.6203 21 21.9412 21.0802 22.2083 21.2938C22.4757 21.5074 22.6091 21.7478 22.6091 22.0419C22.6091 22.3361 22.5021 22.5761 22.235 22.7901C21.9676 23.0037 21.6474 23.0839 21.2466 23.0839C20.8725 23.0839 20.5519 23.004 20.3116 22.7901C20.0445 22.6032 19.9375 22.3625 19.9375 22.0419C19.9375 21.7481 20.0445 21.5074 20.3116 21.2938C20.5519 21.0799 20.8725 21 21.2466 21V21ZM22.5556 23.5646V28.2662C22.5556 28.534 22.689 28.7209 22.9828 28.8272C23.2499 28.9341 23.4104 29.0411 23.4104 29.1477V29.4419H19.2696V29.1477C19.2696 29.0679 19.3231 28.988 19.4301 28.9345C19.4301 28.9345 19.5367 28.881 19.7239 28.8011C19.9108 28.7212 20.0178 28.6406 20.0712 28.5604C20.098 28.4805 20.1247 28.3471 20.1247 28.1593V24.7132C20.1247 24.5263 20.098 24.3926 20.0712 24.3391C20.0178 24.3124 19.9375 24.2592 19.7774 24.2054C19.644 24.1787 19.5367 24.1255 19.4301 24.0988C19.3231 24.072 19.2696 23.9918 19.2696 23.9116V23.6712L22.5556 23.5646ZM27.2573 28.0526V28.2659C27.2573 28.4264 27.2573 28.5601 27.284 28.6136C27.3108 28.6935 27.4177 28.7469 27.5511 28.8004C27.7112 28.8803 27.7918 28.9338 27.8449 28.9602C27.871 28.9837 27.8917 29.0126 27.9056 29.0448C27.9194 29.0771 27.9261 29.112 27.9252 29.1471V29.4413H24.0519V29.1471C24.0519 29.0672 24.1053 28.9873 24.1852 28.9338C24.212 28.9338 24.3189 28.8803 24.5058 28.8004C24.6927 28.7205 24.7996 28.64 24.8264 28.5598C24.8799 28.4799 24.8799 28.3465 24.8799 28.1586V24.7132C24.8799 24.5263 24.8799 24.3926 24.8264 24.3391C24.7996 24.3124 24.693 24.2592 24.5593 24.2054C24.4256 24.1787 24.2922 24.1255 24.212 24.0988C24.105 24.072 24.0519 23.9918 24.0519 23.9116V23.6712L27.0971 23.5646V24.1255C27.8717 23.7247 28.7802 23.5111 29.7951 23.5111C30.8367 23.5111 31.5317 23.698 31.9058 24.0988C32.1996 24.4461 32.333 25.0338 32.333 25.8885V28.159C32.333 28.3465 32.3597 28.4802 32.3865 28.5601C32.4399 28.64 32.5466 28.7205 32.6806 28.8008C32.9477 28.9071 33.0811 28.9606 33.1078 28.9606C33.1339 28.984 33.1546 29.0129 33.1685 29.0452C33.1823 29.0774 33.189 29.1123 33.1881 29.1474V29.4416H29.3412V29.1474C29.3412 29.0411 29.4478 28.9341 29.6617 28.8268C29.8753 28.7205 30.0091 28.5333 30.0091 28.2659V25.5679C30.0091 25.1137 29.9288 24.7931 29.7684 24.6059C29.6083 24.419 29.3144 24.3121 28.8869 24.3121C28.2725 24.3121 27.7383 24.4989 27.2573 24.8195V28.0526V28.0526ZM33.9626 26.5297C33.9626 25.6482 34.3631 24.9271 35.1647 24.3659C35.993 23.8049 37.0346 23.5379 38.3169 23.5379C39.5728 23.5379 40.6141 23.8049 41.4428 24.3926C42.2444 24.9535 42.6713 25.6752 42.6713 26.5567C42.6713 27.4382 42.2444 28.1593 41.4157 28.7209C40.5877 29.3082 39.5457 29.5753 38.3169 29.5753C37.0614 29.5753 36.0194 29.3082 35.1914 28.7473C34.3631 28.159 33.9626 27.4382 33.9626 26.5297V26.5297ZM38.3169 24.1523C37.7293 24.1523 37.3017 24.3391 36.9811 24.7399C36.6606 25.1675 36.5272 25.7281 36.5272 26.5033C36.5272 28.1329 37.1149 28.9606 38.3169 28.9606C38.8778 28.9606 39.3054 28.7473 39.6263 28.3468C39.9469 27.9457 40.1067 27.3313 40.1067 26.5567C40.1067 24.9535 39.4923 24.1523 38.3169 24.1523V24.1523ZM46.6251 23.6712H48.1745V24.4461H46.6251V27.9721C46.6251 28.4802 46.8384 28.7473 47.2659 28.7473C47.3729 28.7473 47.4799 28.7209 47.5865 28.6938L47.9606 28.5069L48.3881 28.881C47.9606 29.362 47.3462 29.5756 46.5182 29.5756C45.5568 29.5756 44.9153 29.4422 44.5947 29.1481C44.354 28.9074 44.2477 28.427 44.2477 27.7591V24.4461H43.3392V24.2054C43.3392 24.072 43.3662 23.9651 43.419 23.8848C43.4725 23.8314 43.6059 23.7779 43.7667 23.698C44.1672 23.5379 44.354 23.2708 44.354 22.8696V22.0951L46.6251 21.8548V23.6712V23.6712ZM51.6206 26.4762V26.663C51.6206 27.358 51.8075 27.8922 52.235 28.2659C52.6355 28.64 53.17 28.8539 53.8376 28.8539C54.5325 28.8539 55.2806 28.5333 56.0288 27.9453L56.6432 28.3465C55.8145 29.1745 54.7197 29.575 53.3301 29.575C51.9947 29.575 50.8992 29.2808 50.0712 28.6935C49.2696 28.0791 48.8421 27.3309 48.8421 26.4494C48.8421 25.6478 49.2161 24.9535 49.9639 24.3926C50.712 23.8049 51.647 23.5379 52.7689 23.5379C53.9445 23.5379 54.8528 23.7782 55.5474 24.286C56.242 24.8202 56.5623 25.5148 56.5623 26.4234V26.4762H51.6206V26.4762ZM51.6206 25.8086H54.0244V25.6482C54.0244 25.1675 53.9181 24.8202 53.7038 24.5798C53.4906 24.3391 53.1964 24.2057 52.8223 24.2057C52.0207 24.2057 51.6203 24.6868 51.6203 25.6485V25.8086H51.6206V25.8086ZM58.1655 24.6864C58.0585 24.5795 57.8178 24.4458 57.4976 24.3124C57.2569 24.2054 57.1235 24.072 57.1235 23.9383V23.6712H61.6116V23.9383C61.6116 24.072 61.5053 24.179 61.2646 24.2592C61.0507 24.3391 60.9434 24.3926 60.9434 24.4728C60.9434 24.4996 60.9704 24.5263 60.9704 24.5531C60.9968 24.6065 61.0239 24.66 61.1038 24.7135L62.0652 25.702L63.0807 24.7135C63.1342 24.6333 63.187 24.5798 63.2405 24.4999V24.4732C63.2405 24.4197 63.1606 24.3395 62.947 24.2328C62.7331 24.1526 62.6265 24.046 62.6265 23.9387V23.6712H65.4842V23.9383C65.4842 24.0453 65.2974 24.179 64.8969 24.3391C64.6298 24.4461 64.4159 24.5527 64.2561 24.6864L62.6265 26.2626L64.5228 28.2395C64.7097 28.3993 64.8434 28.5337 64.9233 28.5865C65.0303 28.6935 65.1911 28.7734 65.3508 28.8272C65.5377 28.8807 65.6186 28.9071 65.645 28.9071C65.752 28.9606 65.7784 29.0411 65.7784 29.1748V29.4419H61.2639V29.1748C61.2639 29.0414 61.3973 28.9071 61.638 28.7737C61.7978 28.7209 61.8513 28.6674 61.8513 28.6139C61.8513 28.534 61.7714 28.4 61.5842 28.2128L60.7291 27.3313L59.8476 28.1593C59.6337 28.3468 59.527 28.5069 59.527 28.6139C59.527 28.6938 59.6333 28.8008 59.9011 28.8546C60.1418 28.9345 60.2481 29.0414 60.2481 29.1752V29.4422H57.1225V29.1752C57.1225 29.0147 57.2295 28.9074 57.4167 28.8546C57.63 28.8011 57.7908 28.7476 57.9512 28.7212C58.1645 28.6406 58.4316 28.4534 58.7257 28.1867L60.1682 26.7707L58.1655 24.6864V24.6864ZM68.5041 21.1066C67.6226 21.1066 67.0082 21.6943 67.0082 22.3889C67.0082 23.1103 67.6226 23.6712 68.5041 23.6712C69.3585 23.6712 70 23.1103 70 22.3889C70 21.6943 69.3585 21.1066 68.5041 21.1066ZM68.5041 21.3202C69.1713 21.3202 69.7062 21.8013 69.7062 22.3889C69.7062 23.0033 69.1717 23.4576 68.5041 23.4576C67.8362 23.4844 67.3284 23.0037 67.3284 22.3889C67.3284 21.8016 67.8359 21.3202 68.5041 21.3202ZM67.9967 22.7897C67.9967 22.9766 67.9696 23.0033 67.7827 23.0033V23.11H68.5308V23.0033C68.3176 23.0033 68.2902 22.9766 68.2902 22.7897V22.4959H68.3971C68.4506 22.4959 68.477 22.523 68.5305 22.5761C68.5576 22.6296 68.6639 22.7897 68.7438 22.9234C68.8778 23.0568 68.9845 23.1103 69.1984 23.1371H69.3054L69.3318 23.0301H69.3054C69.2783 23.0301 69.2248 23.0033 69.1713 22.9499C69.1185 22.8964 69.065 22.8161 68.9845 22.7363C68.9046 22.6293 68.8247 22.4956 68.7712 22.4157C68.9581 22.3622 69.1188 22.2288 69.1188 22.0684C69.1188 21.7745 68.7976 21.6943 68.5308 21.6943H67.7827V21.8013C67.9696 21.8013 67.9967 21.828 67.9967 22.0149V22.7897ZM68.2898 21.9082C68.2898 21.828 68.2898 21.828 68.4503 21.828C68.5837 21.828 68.7709 21.8815 68.7709 22.0951C68.7709 22.1753 68.7709 22.2823 68.6375 22.3622C68.6104 22.3622 68.5305 22.3889 68.4506 22.3889H68.2902V21.9082H68.2898V21.9082Z" fill="white"/>
</svg>
