<svg width="80" height="50" viewBox="0 0 80 50" fill="none" xmlns="http://www.w3.org/2000/svg">
<rect width="80" height="50" fill="black"/>
<path fill-rule="evenodd" clip-rule="evenodd" d="M25 12.5704V35.2924L39.8403 38.2746L55 35.2924V12.5704H25Z" fill="#C82E30"/>
<path fill-rule="evenodd" clip-rule="evenodd" d="M30.6804 32.985C31.0709 32.9494 31.4259 32.843 31.7455 32.6655C32.1005 32.4522 32.3492 32.1327 32.4912 31.7778C32.5976 31.4938 32.5976 31.1034 32.4912 30.8194C32.3847 30.4641 32.1005 30.1092 31.7455 29.9317C31.5679 29.8252 31.3549 29.7897 31.1775 29.7188C31.142 29.7188 31.1775 29.6832 31.1775 29.6832C31.3195 29.612 31.497 29.5768 31.639 29.5057C31.9232 29.3637 32.1716 29.044 32.2427 28.76C32.3138 28.5825 32.3492 28.4051 32.3492 28.2276C32.3492 28.0143 32.2427 27.8372 32.1716 27.6596C32.0296 27.3756 31.7455 27.1624 31.497 27.0204C30.858 26.7719 30.1125 26.8784 29.4025 26.8432H26.8105V32.9853H30.6804V32.985V32.985ZM31.8519 25.7067V24.464H28.1597V23.1505H31.0709V22.0497H28.1242V20.6652H31.7101V19.6355H26.8461V25.7067H31.8519Z" fill="white"/>
<path fill-rule="evenodd" clip-rule="evenodd" d="M30.29 31.8484C30.5029 31.8484 30.6806 31.742 30.8225 31.6355C31.0709 31.4223 31.0709 31.1031 31.0355 30.7834C30.9644 30.5705 30.7515 30.3574 30.5386 30.2862C30.3965 30.251 30.2189 30.251 30.0414 30.251H28.1953V31.8484H30.29ZM28.1953 29.2922V27.8369H30.1125C30.2189 27.8725 30.3256 27.8725 30.432 27.8725C30.6094 27.9076 30.7871 28.0141 30.858 28.1918C30.9644 28.4402 30.9644 28.7955 30.8225 29.0082C30.574 29.257 30.2189 29.2922 29.8994 29.2922H28.1953Z" fill="#C82E30"/>
<path fill-rule="evenodd" clip-rule="evenodd" d="M35.5089 25.6712L34.3372 23.9315L33.6981 24.5351V25.7419H32.4556V19.6355H33.6981V22.9728L35.4022 21.3042H36.7514L35.2249 22.8663C35.0829 23.0437 35.2602 23.1503 35.3313 23.2923C35.7573 23.8958 36.1833 24.5349 36.6093 25.1384L36.9288 25.671H35.5089V25.6712ZM33.2011 26.8429H34.3372V32.985H33.2011V26.8429V26.8429ZM35.2249 29.8251C35.2249 29.8251 35.2249 29.3991 35.2602 29.2571C35.3669 29.0796 35.4733 28.9018 35.6509 28.7598C35.9704 28.5114 36.361 28.405 36.787 28.3694C37.284 28.3339 37.8167 28.2981 38.2782 28.4403C38.4913 28.5116 38.6686 28.5471 38.8461 28.6536C39.1657 28.8311 39.3432 29.1505 39.3432 29.47C39.3788 30.1444 39.3432 30.8194 39.3432 31.4938C39.3432 31.7067 39.3788 31.9198 39.5207 32.0618C39.7338 32.2393 39.9467 32.2747 40.3018 32.2038V32.7006C40.1953 32.8782 40.0176 32.985 39.8403 33.0559C39.3788 33.1979 38.8461 33.0914 38.5266 32.7006C38.4557 32.5942 38.3493 32.4522 38.3135 32.3102C38.2782 32.2747 38.2425 32.2747 38.2071 32.3102C38.1006 32.3815 38.0296 32.5235 37.9231 32.6297C37.6036 32.8782 37.2485 33.0557 36.8581 33.0914C36.5385 33.1266 36.219 33.1266 35.8995 33.0559C35.651 32.985 35.3671 32.843 35.1895 32.6299C34.9764 32.3104 34.8344 31.9198 34.9053 31.5293L34.9764 31.3161C35.1184 30.9256 35.509 30.6417 35.8639 30.5352L36.4675 30.3932C36.7161 30.3577 36.9645 30.3219 37.1776 30.2864C37.4616 30.2512 37.7456 30.2512 38.0297 30.18C38.0653 30.1444 38.1362 30.109 38.1362 30.038C38.1717 29.8862 38.1717 29.7283 38.1362 29.5766C37.9942 29.2923 37.6391 29.2571 37.3551 29.2571C37.0001 29.2571 36.5385 29.2215 36.361 29.612L36.2899 29.8252H35.2249V29.8251V29.8251Z" fill="white"/>
<path fill-rule="evenodd" clip-rule="evenodd" d="M36.5385 31.1389C37.0001 30.9256 37.5327 30.8901 38.0297 30.8193C38.0653 30.8193 38.1362 30.8193 38.1362 30.8902C38.1717 31.3162 38.0297 31.7067 37.6745 31.9551C37.3905 32.1684 37.0354 32.1684 36.6804 32.1684C36.503 32.1328 36.3255 32.0619 36.2188 31.8844C36.1126 31.6 36.2546 31.2809 36.5385 31.1389V31.1389Z" fill="#C82E30"/>
<path fill-rule="evenodd" clip-rule="evenodd" d="M36.8579 24.4286C36.9644 24.3575 37.1419 24.4286 37.2484 24.393H37.8519C38.0294 24.4286 37.9941 24.6417 38.1005 24.7481C38.278 24.9967 38.5976 24.9967 38.9171 24.9967C39.2722 24.9967 39.7337 25.0323 39.9466 24.6772C40.0177 24.5708 39.9821 24.4288 39.9112 24.3577C39.8048 24.2157 39.5917 24.1446 39.4142 24.1092C38.9526 24.0382 38.4558 24.0028 37.9941 23.8962C37.639 23.8251 37.3195 23.6477 37.1066 23.3282C36.8224 22.9376 36.8581 22.2985 37.1066 21.9081C37.2841 21.6241 37.6034 21.411 37.8876 21.3046C38.2782 21.127 38.7042 21.0915 39.1302 21.127C39.1657 21.1626 39.1657 21.127 39.2013 21.127C39.6628 21.1626 40.0888 21.269 40.4438 21.5176C40.7278 21.7661 40.9763 22.1212 40.9407 22.5473C40.9055 22.5827 40.9055 22.6184 40.8343 22.6184C40.6567 22.654 40.4083 22.654 40.1954 22.654C40.0888 22.654 39.9468 22.6893 39.8403 22.6184C39.7692 22.512 39.7692 22.37 39.6983 22.2633C39.4853 22.0149 39.2013 22.0503 38.9173 22.0503C38.6687 22.0503 38.3847 22.0503 38.1718 22.1569C38.1007 22.228 37.9942 22.3342 37.9942 22.4764C37.9587 22.6186 38.1007 22.7606 38.2427 22.8315C38.3847 22.9024 38.5979 22.9024 38.7753 22.9379C39.379 23.009 39.9825 23.0799 40.5149 23.3286C40.8345 23.5061 41.1186 23.7901 41.1542 24.1805C41.1897 24.4647 41.1542 24.7485 41.0477 24.9971C40.8702 25.3522 40.5149 25.6362 40.1245 25.7424C39.7039 25.893 39.2564 25.9535 38.811 25.92C38.4466 25.954 38.0795 25.8928 37.7458 25.7424C37.4618 25.636 37.1778 25.4231 37.0003 25.1391C36.8938 24.9616 36.8583 24.784 36.8228 24.6065C36.8224 24.535 36.8579 24.4995 36.8579 24.4286V24.4286ZM43.7809 32.9137H44.9526V26.9136H43.7458L43.7809 29.0438C43.639 28.9018 43.4616 28.7954 43.355 28.6889C43.071 28.5114 42.7516 28.3694 42.4321 28.3337C41.7929 28.2981 41.2604 28.4757 40.8345 28.9374C40.5505 29.2213 40.4085 29.5766 40.2665 29.9315C40.2309 30.2155 40.1956 30.4995 40.1956 30.7836C40.2308 31.3516 40.3728 31.8842 40.6925 32.3457C40.9765 32.7717 41.4737 33.0559 41.9706 33.0914C42.219 33.1266 42.4678 33.0914 42.6807 33.0559C43.1067 32.9494 43.4971 32.6654 43.7813 32.3102V32.9137H43.7809V32.9137ZM44.6686 25.5647C44.7042 25.4227 44.6686 25.2805 44.6686 25.103C44.6331 25.0675 44.5977 25.0321 44.5622 25.0321C44.2426 25.0321 43.9233 25.103 43.6745 24.9608C43.2841 24.7124 43.4261 24.1798 43.3905 23.7894V22.1917H44.5622L44.5266 21.3753L43.639 21.3042C43.568 21.2687 43.4261 21.3042 43.355 21.2331V19.671H42.5741C42.5028 19.7064 42.5028 19.7775 42.4676 19.8486L42.3257 20.8071C42.3257 20.9136 42.2901 21.0202 42.2544 21.1267C42.1479 21.3751 41.8284 21.2687 41.58 21.3042H41.1183V22.1917H42.1479V23.7894C42.1479 24.2862 42.1124 24.8544 42.2899 25.2805C42.5739 25.8487 43.2483 25.9551 43.852 25.8839C43.9233 25.8839 43.994 25.8839 44.0296 25.8487L44.6686 25.5647V25.5647Z" fill="white"/>
<path fill-rule="evenodd" clip-rule="evenodd" d="M41.4378 30.3219C41.5087 29.9315 41.6153 29.541 42.0057 29.3278C42.1122 29.2569 42.2897 29.2213 42.4674 29.2213C42.5739 29.2213 42.6803 29.2213 42.7514 29.2569C43.0708 29.3278 43.3194 29.5764 43.4616 29.8602C43.6387 30.1797 43.6745 30.535 43.6387 30.9254C43.6035 31.2449 43.5323 31.5643 43.3194 31.8131C43.1418 32.026 42.8934 32.1324 42.6446 32.168C42.5026 32.2035 42.3606 32.168 42.2186 32.1324C41.9702 32.0973 41.7573 31.9195 41.6153 31.6711C41.5085 31.4578 41.4733 31.2094 41.4378 30.961C41.4378 30.7481 41.402 30.5352 41.4378 30.3219V30.3219Z" fill="#C82E30"/>
<path fill-rule="evenodd" clip-rule="evenodd" d="M48.3968 22.2272C48.2192 22.2628 47.9708 22.2272 47.7575 22.2272C47.4026 22.2983 47.0831 22.4401 46.8702 22.6887C46.6927 22.8663 46.4798 23.1147 46.4798 23.3989V25.7067H45.4146V21.2333H46.4798V21.8723C46.4798 21.9434 46.4085 22.0497 46.4798 22.0854C46.5507 22.0854 46.5862 22.0143 46.6214 21.9788C46.9767 21.4463 47.3671 21.0913 48.0415 21.1268L48.3968 21.0913V22.2272V22.2272ZM50.2786 31.5645C50.3138 31.742 50.2073 32.0262 50.1366 32.1682C49.9946 32.4166 49.7813 32.5941 49.5686 32.7361C49.3911 32.8429 49.2491 32.9494 49.0714 32.9849C48.7874 33.0558 48.5389 33.1266 48.2549 33.1266C47.7932 33.1621 47.3673 33.0556 46.9413 32.9137C46.6928 32.7717 46.4089 32.5941 46.1956 32.3457C45.9827 32.0617 45.8407 31.742 45.7343 31.4225C45.5923 30.9611 45.5923 30.3931 45.7343 29.9314C45.8763 29.6119 45.9827 29.2922 46.2667 29.0438C46.6571 28.6178 47.1544 28.3693 47.7223 28.3336C48.3612 28.2627 48.9649 28.4049 49.4264 28.7953C49.7813 29.0793 50.0653 29.4342 50.1718 29.825C50.2786 30.109 50.3138 30.4283 50.3138 30.7834L50.2786 30.9254H46.9054C46.9054 30.9254 46.9054 31.4223 47.0122 31.5998C47.2606 32.0258 47.6866 32.1678 48.1128 32.2035H48.3257C48.5032 32.168 48.7165 32.1322 48.8229 32.0615C48.8229 32.0615 49.1782 31.8131 49.2489 31.5643H50.2786V31.5645ZM46.9054 30.2154C46.9054 29.825 47.1894 29.4342 47.5091 29.2922C47.9351 29.1502 48.4323 29.1858 48.7163 29.4697C48.8227 29.5766 48.8935 29.683 48.9292 29.7537C48.9647 29.8957 49.0005 30.0733 49.0005 30.2154H46.9054V30.2154ZM48.5388 25.3871C48.2903 25.1387 48.2548 24.7125 48.2903 24.3575C48.3255 24.1799 48.3612 24.0379 48.4323 23.8604C48.7517 23.3278 49.3552 23.2567 49.9233 23.1147C50.3138 23.0793 50.7045 23.0436 51.0594 22.9727C51.237 22.9374 51.5211 22.9374 51.5211 22.6887C51.5211 22.5467 51.5211 22.3337 51.3792 22.2272C51.1659 21.9432 50.7403 21.9786 50.385 21.9786C50.2075 22.0141 50.0655 22.0497 49.9233 22.1561C49.8169 22.2626 49.7813 22.4046 49.7458 22.5112C49.6038 22.6176 49.4264 22.5821 49.2844 22.5821C49.1069 22.5821 48.8936 22.6176 48.7165 22.5821C48.6097 22.5112 48.6809 22.3692 48.6809 22.2626C48.7518 22.0141 48.8585 21.7655 49.0362 21.5524C49.4266 21.162 49.959 21.0909 50.5272 21.0555C50.8467 21.0911 51.2016 21.0555 51.5213 21.1266C51.983 21.2686 52.551 21.4817 52.6574 22.0141C52.6574 22.1206 52.693 22.2272 52.693 22.3692V24.3928C52.693 24.6059 52.835 24.8188 53.0479 24.9254C53.2254 24.9608 53.4387 24.9608 53.6159 24.9608C53.6871 24.9608 53.7223 24.9608 53.7578 25.0321C53.7934 25.1385 53.7578 25.2805 53.7578 25.4227C53.7223 25.6002 53.5449 25.6711 53.403 25.7067C53.1545 25.7776 52.9413 25.8838 52.6928 25.8487C52.302 25.8838 51.876 25.6354 51.734 25.245C51.6989 25.1739 51.6989 25.0674 51.6276 25.0674C51.5567 25.0321 51.5211 25.103 51.4856 25.1385C51.0952 25.7418 50.385 25.9196 49.7106 25.8487H49.6749C49.3196 25.8487 49.0005 25.7774 48.7165 25.5647L48.5745 25.4227L48.5388 25.3871V25.3871ZM49.7104 24.0379C49.8876 23.8249 50.1718 23.7895 50.4206 23.7184C50.7045 23.6473 51.0594 23.612 51.3434 23.5409C51.4147 23.5409 51.4502 23.5409 51.4854 23.612C51.5567 24.0379 51.379 24.4641 50.9885 24.7125C50.7753 24.8901 50.4913 24.9256 50.2428 24.961C49.9944 24.961 49.7104 24.9256 49.5684 24.677C49.4972 24.535 49.5329 24.3221 49.5684 24.1799L49.7104 24.0379V24.0379ZM51.379 28.2629C51.4854 28.1561 51.4854 27.6949 51.521 27.3752C51.5919 27.1977 51.521 26.9492 51.6985 26.8428H52.5149V28.4758H53.509V29.3635H52.5149V31.4225C52.5505 31.7777 52.5149 31.9904 52.7634 32.1326C53.0473 32.3101 53.3671 32.2039 53.6866 32.2039C53.7218 32.2039 53.793 32.2394 53.793 32.3103C53.8286 32.4879 53.8995 32.772 53.7218 32.914C53.3669 33.056 52.9764 33.0916 52.586 33.0916C52.3017 33.0916 52.0532 33.056 51.8403 32.914C51.3431 32.5945 51.2723 32.0263 51.3075 31.4584V29.3638H50.3847V28.5474C50.385 28.5469 51.3079 28.3338 51.379 28.2629V28.2629Z" fill="white"/>
</svg>
