<svg width="80" height="50" viewBox="0 0 80 50" fill="none" xmlns="http://www.w3.org/2000/svg">
<rect width="80" height="50" fill="black"/>
<path d="M17.256 33.4755C17.8448 33.4755 18.2111 33.7503 18.2111 34.2161C18.2195 34.3753 18.1683 34.532 18.0674 34.6555C17.9665 34.779 17.8232 34.8604 17.6655 34.884C18.0927 34.9474 18.3419 35.2268 18.3419 35.633C18.3419 36.1367 17.9442 36.4357 17.2756 36.4357H16V33.4755H17.256ZM16.3402 34.7525H17.2331C17.6302 34.7525 17.8624 34.5791 17.8624 34.2704C17.8624 33.9707 17.6302 33.802 17.2331 33.802H16.3402V34.7525ZM16.3402 36.1132H17.2331C17.7146 36.1132 17.9939 35.9169 17.9939 35.5852C17.9939 35.2634 17.7146 35.0737 17.2331 35.0737H16.3402V36.1132ZM20.9848 35.686L20.6551 36.4344H20.2953L21.6233 33.4742H21.9739L23.2973 36.4344H22.9297L22.6 35.686H20.9848ZM21.7829 33.8595L21.1287 35.3602H22.4567L21.7829 33.8595ZM27.5625 36.4344L25.7871 34.0597V36.4344H25.4489V33.467H25.7995L27.5756 35.8482V33.467H27.9027V36.4272L27.5625 36.4344ZM30.6797 36.1073H32.6618L32.6572 36.4344H30.2348V36.1642L32.196 33.8013H30.2898V33.4742H32.6402V33.7457L30.6797 36.1073ZM35.2425 35.6801L34.9115 36.4285H34.553L35.8797 33.4683H36.231L37.5544 36.4285H37.188L36.857 35.6801H35.2425ZM36.0452 33.8536L35.3858 35.3543H36.7138L36.0452 33.8536ZM39.7118 36.4285V33.4683H40.05V36.4285H39.7118ZM45.0649 33.9426L44.6293 34.4581C44.435 34.2226 44.1484 34.0734 43.8855 34.0734C43.4158 34.0734 43.0612 34.4463 43.0612 34.9317C43.0612 35.4263 43.4164 35.8031 43.8855 35.8031C44.1341 35.8031 44.4219 35.6677 44.6293 35.4564L45.0689 35.9221C44.7522 36.2473 44.2825 36.4631 43.8469 36.4631C42.9552 36.4631 42.2912 35.8077 42.2912 34.9409C42.2912 34.0865 42.9716 33.4363 43.8724 33.4363C44.3198 33.4415 44.7475 33.6207 45.0649 33.9361V33.9426ZM49.1123 35.7985V36.4285H47.104V33.4683H47.8563V35.7985H49.1123ZM54.1691 34.9442C54.1691 35.8077 53.4842 36.4618 52.5664 36.4618C51.6531 36.4618 50.9689 35.8109 50.9689 34.9442C50.9689 34.0819 51.6531 33.4435 52.5664 33.4435C53.4848 33.4435 54.1691 34.0859 54.1691 34.9442ZM51.7369 34.9487C51.7369 35.4472 52.1294 35.8319 52.5742 35.8319C53.0308 35.8319 53.3945 35.4394 53.3945 34.9487C53.3945 34.4581 53.0308 34.0734 52.5742 34.0734C52.1176 34.0734 51.7369 34.4496 51.7369 34.9487ZM58.921 35.1842C58.921 35.9666 58.4009 36.4618 57.5721 36.4618C56.7433 36.4618 56.2075 35.9666 56.2075 35.1842V33.467H56.9598V35.1836C56.9598 35.5859 57.2182 35.8378 57.578 35.8378C57.9325 35.8378 58.1667 35.5918 58.1667 35.1836V33.467H58.9158L58.921 35.1842ZM62.4274 33.4677C63.3576 33.4677 64 34.0682 64 34.9481C64 35.8234 63.3491 36.4278 62.3973 36.4278H61.1543V33.467L62.4274 33.4677ZM61.9073 35.8273H62.4437C62.9043 35.8273 63.234 35.4727 63.234 34.952C63.234 34.4313 62.8873 34.0689 62.4097 34.0689H61.906L61.9073 35.8273Z" fill="white"/>
<path d="M47.3767 15.3431C56.753 15.3431 56.5175 28.84 47.3767 28.84H23.99C37.5091 28.84 37.9272 15.3431 47.3767 15.3431V15.3431Z" fill="url(#paint0_linear)"/>
<path d="M23.915 17.3402C15.9256 17.3402 16.1265 28.8406 23.915 28.8406H43.8412C32.3225 28.8406 31.9666 17.3402 23.915 17.3402V17.3402Z" fill="url(#paint1_linear)"/>
<path d="M29.44 13C18.4355 13 18.7115 28.8408 29.44 28.8408H56.8891C41.0228 28.8408 40.5321 13 29.44 13V13Z" fill="url(#paint2_linear)"/>
<path d="M56.9491 19.0428C63.7564 19.0428 63.5863 28.8424 56.9491 28.8424H39.97C49.7845 28.8424 50.0874 19.0428 56.9484 19.0428H56.9491Z" fill="url(#paint3_linear)"/>
<path d="M50.9783 27.9706C49.6032 27.5284 48.3812 26.9383 47.2724 26.2469C44.1853 24.3216 41.9834 21.612 39.8246 19.1451C38.0878 20.9716 36.4648 23.1552 34.374 24.9889C32.4854 26.6439 30.2148 28.0112 27.1343 28.5698C26.1694 28.7445 25.126 28.8406 23.989 28.8406H56.894C54.6371 28.8406 52.6928 28.5136 50.9841 27.9706H50.9783Z" fill="url(#paint4_linear)"/>
<path d="M41.825 28.713C38.4972 28.2767 36.2318 26.7701 34.3674 24.9888C30.8826 21.6525 28.837 17.3402 23.9097 17.3402C23.1797 17.3402 22.5177 17.437 21.9243 17.6117C20.1999 21.7245 21.9845 27.2889 27.1342 28.5698C27.8394 28.7451 28.6074 28.8406 29.4388 28.8406H43.8437C43.1687 28.8421 42.4944 28.7995 41.825 28.713V28.713Z" fill="url(#paint5_linear)"/>
<path d="M53.965 19.7822C51.4398 21.1383 49.8567 24.0821 47.2728 26.2481C45.5098 27.7265 43.281 28.8419 39.9702 28.8419H47.3774C48.7917 28.8419 49.9941 28.5181 50.9786 27.9718C53.9172 26.3364 54.9364 22.7286 53.965 19.7829V19.7822Z" fill="url(#paint6_linear)"/>
<path d="M34.3747 24.9891C32.4854 26.6442 30.2089 28.0114 27.1343 28.5701C27.8395 28.7454 28.6075 28.8409 29.4389 28.8409H39.9692C40.5894 28.8426 41.2089 28.8 41.8231 28.7133C38.496 28.277 36.2299 26.7705 34.374 24.9891H34.3747Z" fill="#0D185C"/>
<path d="M47.2715 26.2469C45.8598 27.4245 44.1492 28.3815 41.8223 28.7132H41.8236C42.493 28.7996 43.1674 28.8422 43.8424 28.8407H47.3749C48.7892 28.8407 49.9916 28.5169 50.9761 27.9707C49.601 27.5285 48.379 26.9384 47.2702 26.2469H47.2715Z" fill="#061E5C"/>
<path d="M41.8241 28.7129C41.21 28.7995 40.5904 28.8422 39.9702 28.8405H43.8442C43.1692 28.8419 42.4949 28.7993 41.8255 28.7129H41.8241Z" fill="#040F42"/>
<defs>
<linearGradient id="paint0_linear" x1="860.152" y1="511.166" x2="1000.61" y2="-35.5614" gradientUnits="userSpaceOnUse">
<stop offset="0.403" stop-color="#3C8ECD"/>
<stop offset="0.994" stop-color="#82CEF2"/>
</linearGradient>
<linearGradient id="paint1_linear" x1="759.722" y1="424.327" x2="657.739" y2="27.3915" gradientUnits="userSpaceOnUse">
<stop offset="0.403" stop-color="#C18DBE"/>
<stop offset="1" stop-color="#9DB4DD"/>
</linearGradient>
<linearGradient id="paint2_linear" x1="1572.25" y1="619.988" x2="1378.78" y2="-133.104" gradientUnits="userSpaceOnUse">
<stop offset="0.403" stop-color="#454494"/>
<stop offset="1" stop-color="#76A1D6"/>
</linearGradient>
<linearGradient id="paint3_linear" x1="1089.8" y1="354.578" x2="1163.84" y2="66.4062" gradientUnits="userSpaceOnUse">
<stop offset="0.403" stop-color="#56BDC1"/>
<stop offset="0.994" stop-color="#82CEF2"/>
</linearGradient>
<linearGradient id="paint4_linear" x1="1446.27" y1="392.577" x2="1398.38" y2="111.028" gradientUnits="userSpaceOnUse">
<stop offset="0.006" stop-color="#13287A"/>
<stop offset="1" stop-color="#1A3D8E"/>
</linearGradient>
<linearGradient id="paint5_linear" x1="366.365" y1="93.496" x2="480.088" y2="479.836" gradientUnits="userSpaceOnUse">
<stop stop-color="#466BB3"/>
<stop offset="0.727" stop-color="#3C3079"/>
</linearGradient>
<linearGradient id="paint6_linear" x1="654.724" y1="304.681" x2="731.091" y2="95.1511" gradientUnits="userSpaceOnUse">
<stop offset="0.192" stop-color="#1972A0"/>
<stop offset="1" stop-color="#3B9FD9"/>
</linearGradient>
</defs>
</svg>
