<svg width="80" height="50" viewBox="0 0 80 50" fill="none" xmlns="http://www.w3.org/2000/svg">
<rect width="80" height="50" fill="black"/>
<path fill-rule="evenodd" clip-rule="evenodd" d="M27.3034 24.1089L25.1438 26.2686L27.3034 28.4283L29.4631 26.2686L27.3034 24.1089ZM27.3034 24.1089L25.1438 26.2686L27.3034 28.4283L29.4631 26.2686L27.3034 24.1089ZM27.3034 24.1089L25.1438 26.2686L27.3034 28.4283L29.4631 26.2686L27.3034 24.1089ZM27.3034 24.1089L25.1438 26.2686L27.3034 28.4283L29.4631 26.2686L27.3034 24.1089ZM27.3484 17L17 27.8883L17.8099 28.6532C17.9898 28.8332 22.1292 32.7026 27.3934 32.7026C32.6576 32.7026 36.797 28.7882 36.977 28.6532L37.7419 27.8883L27.3484 17ZM27.3484 30.498C24.2439 30.498 21.4993 28.7432 20.1495 27.7534L27.3484 20.1945L34.5473 27.7534C33.1975 28.7432 30.453 30.498 27.3484 30.498V30.498ZM25.1438 26.2686L27.3034 28.4283L29.4631 26.2686L27.3034 24.1089L25.1438 26.2686Z" fill="#2554FF"/>
<path fill-rule="evenodd" clip-rule="evenodd" d="M45.6608 21.9943V27.6634H46.9206V21.9943H45.6608ZM43.7711 23.434V24.0639C43.6361 23.839 43.4561 23.659 43.2312 23.479C43.0062 23.3441 42.7363 23.2541 42.4213 23.2541C42.1513 23.2541 41.9264 23.2991 41.7014 23.434C41.4765 23.569 41.2965 23.704 41.1165 23.884C40.9365 24.0639 40.8465 24.2889 40.7566 24.5589C40.6666 24.8288 40.6216 25.0988 40.6216 25.4137C40.6216 25.7287 40.6666 25.9987 40.7566 26.2686C40.8465 26.5386 40.9815 26.7635 41.1615 26.9885C41.3415 27.1685 41.5214 27.3484 41.7914 27.4384C42.0164 27.5284 42.2863 27.6184 42.6013 27.6184C42.8712 27.6184 43.1412 27.5734 43.3212 27.4384C43.5011 27.3035 43.6811 27.1235 43.8161 26.8985V27.5284H45.0759V23.3441H43.7711V23.434ZM43.7711 25.9987C43.6811 26.1786 43.5461 26.3136 43.4112 26.4036C43.2762 26.4936 43.0962 26.5836 42.9162 26.5836C42.7813 26.5836 42.6463 26.5386 42.5113 26.4936C42.3763 26.4486 42.2863 26.3586 42.1963 26.2686C42.1064 26.1786 42.0164 26.0436 41.9714 25.9087C41.9264 25.7737 41.8814 25.6387 41.8814 25.5037C41.8814 25.3688 41.8814 25.2338 41.9264 25.0988C41.9714 24.9638 42.0164 24.8288 42.1064 24.7388C42.1963 24.6489 42.2863 24.5589 42.4213 24.4689C42.5563 24.4239 42.6463 24.3789 42.7813 24.3789C42.9612 24.3789 43.1412 24.4239 43.3212 24.5589C43.5011 24.6939 43.6361 24.8738 43.6811 25.0988V25.9987H43.7711ZM50.4751 26.1336C50.4301 26.2686 50.2951 26.3586 50.2051 26.4486C50.0701 26.5386 49.9352 26.5836 49.8002 26.5836C49.6652 26.5836 49.5752 26.5386 49.4402 26.4936C49.3053 26.4486 49.2153 26.3586 49.1253 26.2686C49.0353 26.1786 48.9903 26.0436 48.9453 25.9087C48.9003 25.7737 48.9003 25.5937 48.9003 25.4587C48.9003 25.1438 48.9903 24.8738 49.1703 24.6489C49.3503 24.4689 49.5752 24.3339 49.8002 24.3339C50.1151 24.3339 50.3401 24.4689 50.5201 24.7388L51.6899 24.3789C51.5099 24.019 51.285 23.794 50.97 23.569C50.6551 23.3441 50.2501 23.2541 49.8002 23.2541C49.4402 23.2541 49.1253 23.2991 48.8553 23.434C48.5854 23.569 48.3604 23.704 48.1804 23.929C48.0005 24.1539 47.8655 24.3789 47.7755 24.6489C47.6855 24.9188 47.6405 25.1888 47.6405 25.5037C47.6405 25.8187 47.6855 26.0886 47.7755 26.3586C47.8655 26.6286 48.0005 26.8535 48.2254 27.0785C48.4054 27.2585 48.6304 27.4384 48.9003 27.5734C49.1703 27.7084 49.4852 27.7534 49.8452 27.7534C50.2951 27.7534 50.7001 27.6634 51.06 27.4384C51.3749 27.2135 51.6449 26.9435 51.7799 26.6286L50.4751 26.1336ZM52.0049 23.569V27.6634H53.2647V23.569H52.0049ZM52.0049 21.9943V23.1191H53.2647V21.9943H52.0049ZM57.0441 21.9943V24.2439C56.9091 24.019 56.7291 23.839 56.5042 23.704C56.2792 23.569 56.0092 23.479 55.7393 23.479C55.4693 23.479 55.2444 23.524 55.0194 23.659C54.7944 23.749 54.6145 23.929 54.4345 24.1089C54.2545 24.2889 54.1645 24.5139 54.0745 24.7838C53.9846 25.0538 53.9396 25.3238 53.9396 25.5937C53.9396 25.9087 53.9846 26.1786 54.0745 26.4036C54.1645 26.6736 54.2995 26.8985 54.4795 27.0785C54.6595 27.2585 54.8394 27.3934 55.1094 27.5284C55.3343 27.6184 55.6043 27.7084 55.8743 27.7084C56.4142 27.7084 56.8191 27.4834 57.0891 27.0335V27.6184H58.3489V21.9943H57.0441ZM57.0441 26.0436C56.9541 26.2236 56.8641 26.3586 56.6841 26.4486C56.5492 26.5836 56.3692 26.6286 56.1892 26.6286C56.0542 26.6286 55.9193 26.6286 55.7843 26.5386C55.6493 26.4936 55.5593 26.4036 55.4693 26.3136C55.3793 26.2236 55.2894 26.1336 55.2444 25.9987C55.1994 25.8637 55.1544 25.7287 55.1544 25.5937C55.1544 25.4587 55.1544 25.3238 55.1994 25.1888C55.2444 25.0538 55.2894 24.9638 55.3793 24.8288C55.4693 24.7388 55.5593 24.6489 55.6493 24.6039C55.7843 24.5589 55.8743 24.5139 56.0092 24.5139C56.1892 24.5139 56.3692 24.5589 56.5492 24.6939C56.7291 24.8288 56.8641 25.0088 56.9541 25.1888V26.0436H57.0441ZM62.8482 24.6039C62.7582 24.3339 62.6232 24.1089 62.4433 23.929C62.2633 23.749 62.0383 23.569 61.7684 23.434C61.4984 23.2991 61.1835 23.2541 60.8235 23.2541C60.4636 23.2541 60.1486 23.2991 59.8787 23.434C59.6087 23.569 59.3837 23.704 59.2038 23.929C59.0238 24.1089 58.8888 24.3789 58.7988 24.6489C58.7088 24.9188 58.6638 25.2338 58.6638 25.5037C58.6638 25.7737 58.7088 26.0436 58.7988 26.3136C58.8888 26.5836 59.0238 26.8085 59.2488 26.9885C59.4287 27.1685 59.6537 27.3484 59.9237 27.4384C60.1936 27.5734 60.5086 27.6184 60.8685 27.6184C61.3184 27.6184 61.7234 27.5284 62.0833 27.3035C62.3983 27.0785 62.6682 26.8085 62.8482 26.4936L61.7684 26.1786C61.7234 26.3586 61.5884 26.4486 61.4534 26.5386C61.2734 26.6286 61.0935 26.6736 60.9135 26.6736C60.6885 26.6736 60.4636 26.5836 60.2836 26.4486C60.1036 26.3136 60.0136 26.0886 59.9686 25.8187H62.9832C62.9832 25.7737 62.9832 25.6837 62.9832 25.6387C62.9832 25.5487 62.9832 25.5037 62.9832 25.4137C63.0282 25.1438 62.9832 24.8738 62.8482 24.6039V24.6039ZM59.9237 25.0538C59.9237 24.7838 60.0586 24.5589 60.1936 24.4239C60.3736 24.2439 60.5536 24.1989 60.7785 24.1989C61.0035 24.1989 61.2285 24.2889 61.3634 24.4239C61.5434 24.5589 61.6334 24.7838 61.6334 25.0538H59.9237Z" fill="#2554FF"/>
</svg>
