<svg width="80" height="50" viewBox="0 0 80 50" fill="none" xmlns="http://www.w3.org/2000/svg">
<rect width="80" height="50" fill="black"/>
<path d="M14.2518 31.3181C14.2406 31.3181 14.2296 31.3154 14.2197 31.3103C14.2097 31.3051 14.2011 31.2977 14.1946 31.2886L10.0129 25.3665C10.0058 25.3565 10.0014 25.3447 10.0003 25.3325C9.99917 25.3202 10.0013 25.3079 10.0064 25.2967L13.0352 18.7079C13.0403 18.6967 13.0483 18.687 13.0583 18.6799C13.0684 18.6728 13.0801 18.6685 13.0924 18.6674L20.3028 18.0005C20.315 17.999 20.3275 18.0009 20.3387 18.0061C20.35 18.0113 20.3596 18.0195 20.3664 18.0298L24.5482 23.9518C24.5553 23.9618 24.5596 23.9736 24.5608 23.9858C24.5619 23.9981 24.5598 24.0104 24.5546 24.0216L21.526 30.6106C21.5208 30.6218 21.5128 30.6314 21.5028 30.6385C21.4927 30.6456 21.481 30.6499 21.4688 30.6511L14.2583 31.3179C14.2562 31.3181 14.254 31.3181 14.2519 31.3181L14.2518 31.3181ZM10.1506 25.3186L14.2857 31.1746L21.4156 30.5152L24.4104 23.9997L20.2754 18.1437L13.1456 18.8031L10.1506 25.3186Z" fill="white"/>
<path d="M14.2265 31.3027L13.0691 25.2772L13.0635 18.6899L18.7021 20.3496L24.549 23.987L20.2065 27.8471L14.2265 31.3027ZM13.1337 18.7836L13.1385 25.2706L14.2767 31.1928L20.1657 27.7905L24.4325 23.9968L18.6691 20.4116L13.1337 18.7836Z" fill="white"/>
<path d="M18.7949 20.6259C18.9109 20.6259 19.0049 20.5319 19.0049 20.4159C19.0049 20.2999 18.9109 20.2059 18.7949 20.2059C18.679 20.2059 18.585 20.2999 18.585 20.4159C18.585 20.5319 18.679 20.6259 18.7949 20.6259Z" fill="white"/>
<path d="M18.7955 20.8497C18.7098 20.8498 18.626 20.8245 18.5547 20.7769C18.4834 20.7293 18.4278 20.6617 18.3949 20.5825C18.3621 20.5034 18.3534 20.4163 18.3701 20.3322C18.3868 20.2481 18.428 20.1709 18.4886 20.1102C18.5491 20.0496 18.6263 20.0083 18.7104 19.9915C18.7944 19.9748 18.8816 19.9833 18.9608 20.0161C19.04 20.0489 19.1077 20.1044 19.1553 20.1756C19.2029 20.2469 19.2284 20.3307 19.2284 20.4164C19.2283 20.5312 19.1827 20.6413 19.1015 20.7225C19.0204 20.8038 18.9103 20.8495 18.7955 20.8497ZM18.7955 20.4039L18.7825 20.4164C18.7826 20.4198 18.784 20.423 18.7864 20.4254C18.7889 20.4277 18.7921 20.429 18.7955 20.429V20.4039Z" fill="white"/>
<path d="M20.1975 28.0187C20.3135 28.0187 20.4075 27.9247 20.4075 27.8087C20.4075 27.6928 20.3135 27.5988 20.1975 27.5988C20.0816 27.5988 19.9875 27.6928 19.9875 27.8087C19.9875 27.9247 20.0816 28.0187 20.1975 28.0187Z" fill="white"/>
<path d="M20.1959 28.242C20.1102 28.2421 20.0264 28.2167 19.9551 28.1692C19.8838 28.1216 19.8282 28.054 19.7953 27.9748C19.7624 27.8956 19.7538 27.8085 19.7705 27.7244C19.7872 27.6403 19.8284 27.5631 19.889 27.5024C19.9496 27.4418 20.0268 27.4005 20.1109 27.3837C20.1949 27.367 20.2821 27.3755 20.3613 27.4083C20.4405 27.4411 20.5082 27.4966 20.5558 27.5679C20.6034 27.6392 20.6289 27.723 20.6289 27.8087C20.6288 27.9235 20.5832 28.0337 20.502 28.1149C20.4208 28.1961 20.3108 28.2419 20.1959 28.242V28.242ZM20.1959 27.7962L20.183 27.8087C20.1831 27.8121 20.1845 27.8153 20.1869 27.8176C20.1893 27.82 20.1926 27.8212 20.1959 27.8212V27.7962Z" fill="white"/>
<path d="M14.3023 31.4581C14.4182 31.4581 14.5123 31.364 14.5123 31.2481C14.5123 31.1321 14.4182 31.0381 14.3023 31.0381C14.1863 31.0381 14.0923 31.1321 14.0923 31.2481C14.0923 31.364 14.1863 31.4581 14.3023 31.4581Z" fill="white"/>
<path d="M14.3029 31.6815C14.2171 31.6815 14.1333 31.6562 14.062 31.6086C13.9907 31.5611 13.9351 31.4934 13.9022 31.4142C13.8694 31.3351 13.8607 31.2479 13.8774 31.1638C13.8941 31.0798 13.9353 31.0025 13.9959 30.9419C14.0565 30.8812 14.1337 30.8399 14.2178 30.8232C14.3019 30.8064 14.389 30.815 14.4682 30.8478C14.5474 30.8806 14.6151 30.9361 14.6627 31.0074C14.7104 31.0786 14.7358 31.1624 14.7358 31.2481C14.7357 31.363 14.6901 31.4731 14.6089 31.5543C14.5278 31.6356 14.4177 31.6813 14.3029 31.6815V31.6815ZM14.3029 31.2356L14.29 31.2481C14.29 31.2515 14.2914 31.2547 14.2938 31.2571C14.2962 31.2594 14.2995 31.2607 14.3029 31.2607V31.2356Z" fill="white"/>
<path d="M13.0982 25.5513C13.2141 25.5513 13.3082 25.4573 13.3082 25.3413C13.3082 25.2254 13.2141 25.1313 13.0982 25.1313C12.9822 25.1313 12.8882 25.2254 12.8882 25.3413C12.8882 25.4573 12.9822 25.5513 13.0982 25.5513Z" fill="white"/>
<path d="M13.0991 25.774C13.0134 25.7741 12.9296 25.7488 12.8583 25.7012C12.787 25.6537 12.7315 25.586 12.6986 25.5069C12.6658 25.4277 12.6571 25.3406 12.6738 25.2565C12.6905 25.1724 12.7317 25.0952 12.7923 25.0346C12.8529 24.974 12.9301 24.9327 13.0142 24.9159C13.0982 24.8992 13.1853 24.9078 13.2645 24.9406C13.3437 24.9734 13.4114 25.0289 13.459 25.1002C13.5066 25.1714 13.532 25.2552 13.532 25.3409C13.5319 25.4557 13.4862 25.5658 13.4051 25.6469C13.3239 25.7281 13.2139 25.7738 13.0991 25.774V25.774ZM13.0991 25.3282L13.0861 25.3409C13.0862 25.3443 13.0877 25.3475 13.0901 25.3498C13.0925 25.3522 13.0958 25.3535 13.0991 25.3534V25.3282Z" fill="white"/>
<path d="M24.4912 24.2128C24.6072 24.2128 24.7012 24.1188 24.7012 24.0028C24.7012 23.8869 24.6072 23.7928 24.4912 23.7928C24.3753 23.7928 24.2812 23.8869 24.2812 24.0028C24.2812 24.1188 24.3753 24.2128 24.4912 24.2128Z" fill="white"/>
<path d="M24.4921 24.4355C24.4064 24.4356 24.3226 24.4102 24.2513 24.3627C24.1801 24.3151 24.1245 24.2475 24.0916 24.1683C24.0588 24.0891 24.0502 24.002 24.0669 23.9179C24.0836 23.8339 24.1248 23.7567 24.1854 23.6961C24.246 23.6354 24.3232 23.5942 24.4073 23.5774C24.4913 23.5607 24.5784 23.5693 24.6576 23.6021C24.7368 23.6349 24.8045 23.6904 24.8521 23.7617C24.8997 23.8329 24.9251 23.9167 24.925 24.0024C24.9249 24.1172 24.8793 24.2273 24.7981 24.3085C24.717 24.3897 24.6069 24.4354 24.4921 24.4355ZM24.4921 23.9897L24.4792 24.0024C24.4793 24.0058 24.4807 24.009 24.4831 24.0113C24.4855 24.0137 24.4887 24.015 24.4921 24.0149V23.9897Z" fill="white"/>
<path d="M13.0982 18.9472C13.2141 18.9472 13.3082 18.8532 13.3082 18.7372C13.3082 18.6212 13.2141 18.5272 13.0982 18.5272C12.9822 18.5272 12.8882 18.6212 12.8882 18.7372C12.8882 18.8532 12.9822 18.9472 13.0982 18.9472Z" fill="white"/>
<path d="M13.099 19.1698C13.0133 19.1699 12.9295 19.1445 12.8582 19.097C12.7869 19.0494 12.7313 18.9818 12.6984 18.9026C12.6655 18.8235 12.6569 18.7363 12.6736 18.6523C12.6902 18.5682 12.7314 18.4909 12.792 18.4303C12.8526 18.3697 12.9298 18.3283 13.0138 18.3116C13.0979 18.2948 13.185 18.3034 13.2642 18.3361C13.3434 18.3689 13.4111 18.4244 13.4588 18.4957C13.5064 18.567 13.5318 18.6507 13.5318 18.7364C13.5318 18.8513 13.4861 18.9614 13.405 19.0426C13.3239 19.1238 13.2138 19.1696 13.099 19.1698ZM13.099 18.7239L13.086 18.7365C13.0861 18.7398 13.0875 18.7431 13.0899 18.7454C13.0923 18.7478 13.0956 18.7491 13.099 18.7491L13.099 18.7239Z" fill="white"/>
<path d="M21.4624 30.6513C21.4544 30.6514 21.4465 30.6501 21.439 30.6474L15.9413 28.7067L10.0358 25.3871C10.0261 25.3817 10.0179 25.3741 10.0117 25.3649C10.0056 25.3557 10.0017 25.3451 10.0005 25.3341C9.99919 25.3231 10.0006 25.312 10.0044 25.3016C10.0083 25.2913 10.0146 25.282 10.0228 25.2745L14.4659 21.2031L20.2755 18.0089C20.285 18.0036 20.2956 18.0006 20.3064 18.0002C20.3173 17.9997 20.3281 18.0018 20.338 18.0063C20.3479 18.0108 20.3566 18.0175 20.3635 18.0259C20.3703 18.0343 20.3752 18.0441 20.3776 18.0547L21.6792 23.7769L21.5324 30.5829C21.5321 30.594 21.5292 30.6048 21.524 30.6146C21.5187 30.6243 21.5113 30.6327 21.5022 30.639C21.4905 30.6471 21.4766 30.6514 21.4624 30.6513L21.4624 30.6513ZM10.1887 25.3124L15.999 28.5795L21.3944 30.4832L21.5409 23.7909L20.2615 18.1763L14.547 21.3161L10.1887 25.3124Z" fill="white"/>
<path d="M20.2191 27.8346L20.1905 27.8249L13.064 25.3473L13.0869 25.3274L18.806 20.3826L20.2191 27.8346ZM13.1328 25.334L20.1733 27.7818L18.7829 20.4489L13.1328 25.334Z" fill="white"/>
<path d="M15.9197 28.7723L14.4214 21.1476L21.7486 23.7674L15.9197 28.7723ZM14.6064 21.3625L16.0109 28.5095L21.4745 23.8182L14.6064 21.3625Z" fill="white"/>
<path d="M13.0369 18.771L13.1591 18.7023L14.5734 21.2199L14.4512 21.2885L13.0369 18.771Z" fill="white"/>
<path d="M14.2449 31.2105L15.9064 28.6028L16.0245 28.6784L14.363 31.2859L14.2449 31.2105Z" fill="white"/>
<path d="M21.6052 23.8618L21.6154 23.7222L24.4956 23.9326L24.4854 24.0722L21.6052 23.8618Z" fill="white"/>
<path d="M27.2241 22.8566L28.1612 22.8514L28.1697 24.436L29.9901 24.4263L29.9816 22.8418L30.9187 22.8369L30.9411 27.0869L30.004 27.0918L29.9943 25.255L28.1739 25.2647L28.1836 27.1014L27.2465 27.1066L27.2241 22.8566Z" fill="white"/>
<path d="M32.7811 25.2645L31.1699 22.8358L32.3353 22.8295L33.2449 24.4156L34.1917 22.8198L35.303 22.8141L33.7182 25.2596L33.7275 27.0725L32.7904 27.0774L32.7811 25.2645Z" fill="white"/>
<path d="M35.5559 22.813L37.1359 22.8049C37.3457 22.8026 37.5552 22.8216 37.7611 22.8616C37.9444 22.8955 38.1193 22.9649 38.276 23.0658C38.4244 23.1654 38.5449 23.3011 38.6263 23.4602C38.7198 23.6555 38.7653 23.8704 38.7589 24.0868C38.7666 24.3013 38.7267 24.5148 38.642 24.712C38.569 24.8725 38.4559 25.0115 38.3137 25.1157C38.1643 25.2209 37.9949 25.2943 37.816 25.3314C37.6109 25.3759 37.4015 25.3982 37.1915 25.3978L36.5066 25.4014L36.5153 27.0582L35.5783 27.063L35.5559 22.813ZM36.5027 24.609L37.1275 24.6057C37.2092 24.6056 37.2906 24.5972 37.3706 24.5806C37.4448 24.5656 37.5159 24.5377 37.5805 24.4982C37.6427 24.4594 37.694 24.4055 37.7297 24.3414C37.7698 24.2646 37.7891 24.1786 37.7855 24.092C37.7894 23.9991 37.7626 23.9075 37.7091 23.8314C37.6584 23.7653 37.592 23.7129 37.5159 23.6792C37.4329 23.6425 37.3446 23.6197 37.2543 23.6115C37.1625 23.6023 37.0703 23.5979 36.978 23.5982L36.4972 23.6006L36.5027 24.609Z" fill="white"/>
<path d="M39.3157 22.7929L42.2052 22.7778L42.2097 23.6421L40.2573 23.6524L40.2615 24.4448L42.1058 24.4349L42.1103 25.2992L40.266 25.3092L40.2705 26.1738L42.3311 26.1629L42.3356 27.0272L39.338 27.0429L39.3157 22.7929Z" fill="white"/>
<path d="M43.0046 22.7745L44.6508 22.7658C44.8576 22.7636 45.0641 22.7837 45.2666 22.8256C45.4488 22.8617 45.6224 22.932 45.7785 23.0327C45.9268 23.1323 46.0474 23.2681 46.1288 23.4272C46.2219 23.6205 46.2673 23.8333 46.2614 24.0478C46.2708 24.3217 46.1898 24.5911 46.0309 24.8145C45.8644 25.0325 45.6195 25.1771 45.3481 25.2174L46.4389 27.0064L45.3155 27.0124L44.418 25.3182L43.9553 25.3206L43.9641 27.0194L43.027 27.0245L43.0046 22.7745ZM43.9511 24.5282L44.504 24.5255C44.588 24.5249 44.6771 24.5215 44.7713 24.5149C44.8586 24.5099 44.9446 24.4912 45.0262 24.4597C45.1007 24.4301 45.1658 24.381 45.2146 24.3174C45.2684 24.238 45.2943 24.1429 45.288 24.0471C45.2921 23.9563 45.2686 23.8664 45.2207 23.7892C45.1779 23.7268 45.1198 23.6764 45.0519 23.6431C44.9779 23.6077 44.8986 23.5848 44.8172 23.5751C44.7315 23.5638 44.6451 23.5583 44.5587 23.5588L43.946 23.5618L43.9511 24.5282Z" fill="white"/>
<path d="M46.873 22.753L47.8101 22.7482L47.828 26.1339L49.5641 26.1248L49.5686 26.9891L46.8954 27.003L46.873 22.753Z" fill="white"/>
<path d="M50.0386 22.7373L52.9281 22.7222L52.9326 23.5865L50.9802 23.5967L50.9844 24.3892L52.8287 24.3795L52.8332 25.2438L50.9889 25.2535L50.9934 26.1181L53.054 26.1072L53.0585 26.9715L50.0609 26.9872L50.0386 22.7373Z" fill="white"/>
<path d="M53.7273 22.7176L55.1331 22.71C55.4599 22.7068 55.786 22.7433 56.104 22.8188C56.3937 22.8857 56.667 23.0099 56.9079 23.1842C57.1406 23.3572 57.3283 23.5836 57.4551 23.8443C57.599 24.154 57.6696 24.4926 57.6614 24.834C57.6697 25.1482 57.6044 25.46 57.4708 25.7445C57.3473 26.0008 57.1692 26.2271 56.949 26.4074C56.7232 26.59 56.4651 26.7288 56.1883 26.8166C55.8953 26.911 55.5895 26.9592 55.2817 26.9594L53.7496 26.9676L53.7273 22.7176ZM54.6822 26.0984L55.169 26.0957C55.3722 26.0961 55.5746 26.0728 55.7724 26.0265C55.9468 25.9867 56.111 25.9112 56.2547 25.8046C56.393 25.6988 56.5028 25.5601 56.5739 25.4011C56.6563 25.2086 56.6953 25.0003 56.6881 24.7911C56.6915 24.6032 56.6503 24.4172 56.5679 24.2484C56.4928 24.099 56.3841 23.9691 56.2505 23.8688C56.1104 23.7658 55.9521 23.6903 55.7839 23.6462C55.6007 23.5965 55.4116 23.5722 55.2219 23.574L54.6689 23.577L54.6822 26.0984Z" fill="white"/>
<path d="M62.0978 26.6238C61.8256 26.7681 61.5352 26.8748 61.2344 26.9409C60.9325 27.0066 60.6246 27.0404 60.3157 27.0418C60.0025 27.0465 59.691 26.9953 59.3958 26.8905C59.125 26.7941 58.8769 26.6431 58.6668 26.4469C58.4582 26.2496 58.294 26.0101 58.1851 25.7444C57.9537 25.1504 57.9503 24.4917 58.1755 23.8953C58.2816 23.6284 58.4432 23.3871 58.6496 23.1874C58.8577 22.9891 59.1043 22.8356 59.3741 22.7365C59.668 22.6282 59.979 22.5737 60.2922 22.5756C60.6097 22.5708 60.9263 22.6105 61.2329 22.6934C61.5147 22.7712 61.774 22.915 61.9894 23.1128L61.3322 23.8367C61.209 23.7092 61.0613 23.6078 60.898 23.5386C60.7061 23.466 60.5017 23.4324 60.2967 23.4399C60.1105 23.4381 59.9258 23.4737 59.7537 23.5447C59.5965 23.6105 59.4548 23.7083 59.3375 23.8319C59.2203 23.9579 59.1302 24.1066 59.0727 24.2689C58.9503 24.6241 58.9524 25.0103 59.0784 25.3642C59.1381 25.5245 59.2298 25.671 59.3478 25.7948C59.4662 25.9175 59.609 26.014 59.767 26.0781C59.94 26.1471 60.125 26.1807 60.3112 26.1772C60.4899 26.1796 60.6681 26.1554 60.8397 26.1053C60.9618 26.0693 61.0801 26.0214 61.193 25.9625L61.1894 25.2721L60.4266 25.276L60.422 24.4114L62.086 24.4027L62.0978 26.6238Z" fill="white"/>
<path d="M62.877 22.6691L65.7664 22.6537L65.771 23.518L63.8186 23.5283L63.8229 24.3207L65.6671 24.311L65.6717 25.1753L63.8274 25.185L63.8319 26.0496L65.8924 26.0388L65.897 26.9031L62.8994 26.9191L62.877 22.6691Z" fill="white"/>
<path d="M66.5659 22.6504L68.2118 22.6419C68.4187 22.6396 68.6253 22.6597 68.8279 22.7017C69.01 22.7379 69.1837 22.8081 69.3397 22.9089C69.4883 23.0083 69.6089 23.1441 69.6901 23.3033C69.7832 23.4966 69.8286 23.7094 69.8226 23.9239C69.832 24.1978 69.7511 24.4673 69.5922 24.6906C69.4255 24.9085 69.1807 25.0529 68.9094 25.0935L70.0002 26.8825L68.8768 26.8883L67.979 25.1944L67.5163 25.1968L67.525 26.8955L66.5882 26.9004L66.5659 22.6504ZM67.5121 24.4043L68.065 24.4013C68.149 24.401 68.2381 24.3974 68.3323 24.3911C68.4196 24.3861 68.5057 24.3673 68.5872 24.3355C68.6617 24.3062 68.7269 24.2571 68.7756 24.1936C68.8297 24.1142 68.8556 24.0191 68.8493 23.9233C68.8534 23.8325 68.8299 23.7426 68.782 23.6654C68.739 23.603 68.6808 23.5527 68.6128 23.5192C68.5389 23.4837 68.4596 23.4608 68.3782 23.4512C68.2925 23.4398 68.2061 23.4343 68.1197 23.4346L67.5069 23.4379L67.5121 24.4043Z" fill="white"/>
</svg>
