<svg width="80" height="50" viewBox="0 0 80 50" fill="none" xmlns="http://www.w3.org/2000/svg">
<rect width="80" height="50" fill="black"/>
<path d="M50.3631 30.0573C50.3602 30.0602 50.3564 30.0602 50.3564 30.064C47.8857 31.8127 44.9605 33.6492 41.8131 35.5774L41.689 35.6493C41.6464 35.6783 41.6368 35.7375 41.6658 35.7798C41.6948 35.8221 41.754 35.832 41.7963 35.803L41.9007 35.7473L50.7224 31.0079C50.738 30.998 50.7544 30.9892 50.7714 30.9818C50.6015 30.7005 50.4611 30.3931 50.3654 30.0602L50.3631 30.0573ZM66.5739 16.935C62.6813 12.6407 37.6299 16.5037 26.9789 18.828L26.7304 18.8802C26.7184 18.8824 26.7069 18.8869 26.6966 18.8934C26.6863 18.9 26.6774 18.9086 26.6703 18.9186C26.6633 18.9286 26.6584 18.9399 26.6558 18.9518C26.6531 18.9638 26.6529 18.9761 26.655 18.9881C26.6571 19.0002 26.6616 19.0117 26.6682 19.022C26.6748 19.0323 26.6833 19.0412 26.6933 19.0482C26.7135 19.0623 26.7386 19.0678 26.7629 19.0635L27.0079 19.0142C35.8325 17.4424 54.1864 15.2654 58.1347 19.181C59.3411 20.3772 59.0531 21.9133 57.6542 23.7304C58.4059 24.2142 58.9418 24.9757 59.1836 25.9266C64.6414 22.3054 68.3055 18.8443 66.5728 16.9323L66.5739 16.935Z" fill="#D03027"/>
<path d="M51.9387 28.9297C51.988 30.4397 52.945 31.6783 54.1905 31.6783C56.6062 31.6783 57.6357 28.7108 57.5632 26.7301C57.511 25.2169 56.5308 23.9815 55.2852 23.9815C53.21 23.9786 51.8668 26.9328 51.9387 28.9297V28.9297ZM50.6641 28.8479C50.576 26.2693 52.5955 23.6318 55.5303 23.6318C57.4913 23.6318 58.7783 24.9391 58.8479 26.9427C58.9427 29.662 57.0536 32.1588 53.9846 32.1588C52.017 32.1588 50.7326 30.8547 50.6641 28.8479V28.8479ZM22.8685 28.1682C22.7641 28.2073 22.6299 28.2465 22.4625 28.2824C22.2958 28.3216 21.9887 28.3741 21.5441 28.446C21.2367 28.4953 21.0245 28.5571 20.9061 28.6452C20.7919 28.7302 20.7234 28.8314 20.7031 28.959C20.6799 29.093 20.7229 29.1977 20.8371 29.2826C20.9549 29.3644 21.1509 29.4068 21.4287 29.4068C21.6353 29.4071 21.8405 29.374 22.0365 29.3087C22.2358 29.2435 22.406 29.1551 22.5333 29.044C22.6281 28.9622 22.6966 28.8578 22.7491 28.7302C22.7818 28.6452 22.8245 28.4591 22.8732 28.1682H22.8685ZM25.4205 26.5831C25.4107 26.8151 25.3683 27.0276 25.3063 27.3904L24.8747 29.8119C24.8388 30.0277 24.9174 30.1947 25.1166 30.3118L25.1035 30.4067L22.6328 30.4038L22.6096 29.789C22.2371 30.0091 21.8373 30.1794 21.4206 30.2956C21.0285 30.3971 20.7113 30.4394 20.2374 30.4394C19.4399 30.4394 18.9823 30.3577 18.6656 30.0799C18.3455 29.7957 18.1886 29.606 18.2016 29.2136C18.2147 28.988 18.3321 28.6974 18.4992 28.4944C18.6691 28.2914 18.9043 28.1546 19.156 28.0304C19.4112 27.9095 19.7116 27.8216 20.1463 27.7526C20.5813 27.6807 21.1921 27.612 22.0061 27.5438C22.4341 27.5079 22.6957 27.4099 22.8166 27.3611C22.9866 27.2959 23.0553 27.2205 23.0782 27.0833C23.124 26.8348 23.0454 26.6912 22.7122 26.6257C21.8234 26.4517 20.1533 26.74 19.2938 26.9525L19.7612 25.691C20.8922 25.5243 21.9574 25.4199 23.0788 25.4199C24.8666 25.4199 25.4353 25.9265 25.4156 26.5799L25.4205 26.5831ZM32.582 30.4038L33.4383 25.5608H35.8047L34.9484 30.4038H32.582ZM33.5691 24.4426C33.641 24.0439 34.2686 23.7234 34.9681 23.7234C35.6707 23.7234 36.1837 24.047 36.1153 24.4426C36.0399 24.8413 35.4158 25.1676 34.71 25.1676C34.0105 25.1676 33.5007 24.844 33.5694 24.4426H33.5691ZM44.2062 28.1778C44.0708 28.2221 43.9334 28.2603 43.7944 28.292C43.6277 28.3309 43.3206 28.3802 42.876 28.4521C42.5721 28.5014 42.3563 28.5632 42.2386 28.6513C42.1243 28.7331 42.0588 28.8375 42.0356 28.9616C42.0066 29.0956 42.0588 29.2035 42.1696 29.2853C42.2905 29.367 42.4865 29.4062 42.7641 29.4062C42.9701 29.4065 43.1751 29.3756 43.3719 29.3145C43.5749 29.2458 43.7413 29.1609 43.8718 29.0498C43.9635 28.968 44.0319 28.8601 44.0806 28.736C44.1134 28.6542 44.156 28.468 44.2082 28.1772L44.2062 28.1778ZM46.7582 26.5894C46.7483 26.8281 46.706 27.0372 46.6404 27.3968L46.2124 29.8218C46.1764 30.0343 46.255 30.2045 46.4543 30.3217L46.4412 30.4067L43.9704 30.4096L43.9507 29.7919C43.58 30.0137 43.1809 30.1841 42.7643 30.2985C42.3723 30.4029 42.055 30.4455 41.5748 30.4455C40.7773 30.4455 40.3232 30.3672 40.0088 30.0859C39.6852 29.7983 39.5318 29.6121 39.5448 29.2197C39.5547 28.9877 39.6724 28.7 39.8423 28.5005C40.0123 28.2917 40.2475 28.1607 40.5027 28.0365C40.7579 27.9124 41.0583 27.8277 41.4898 27.7552L43.3527 27.5464C43.7776 27.5105 44.0392 27.4159 44.1601 27.3666C44.3332 27.3014 44.3988 27.226 44.4249 27.0853C44.4675 26.8403 44.3921 26.6967 44.0624 26.6277C43.1669 26.4537 41.5034 26.742 40.6439 26.9546L41.1079 25.6931C42.2453 25.5263 43.304 25.4219 44.4254 25.4219C46.2066 25.4248 46.7753 25.9352 46.7591 26.5854L46.7582 26.5894ZM17.8844 28.6647C17.113 28.8184 16.6818 28.8772 15.9202 28.8772C14.7892 28.8772 13.8902 28.3152 13.9395 27.2857C13.9755 26.5993 14.7863 25.1548 16.8482 25.1548C17.4987 25.1548 18.0082 25.2691 18.6882 25.6583L18.989 23.9783C18.061 23.6286 17.4462 23.5764 16.6487 23.5828C13.9424 23.6118 11.3476 24.8413 11.0239 27.3411C10.6974 29.8806 13.7989 30.5148 15.1749 30.5148C15.9695 30.5119 16.7989 30.4789 17.5674 30.4006L17.8844 28.6647ZM37.1112 25.5373L37.2811 24.5502L39.7548 24.0108L39.49 25.5339H40.7022L40.4702 26.5077L39.2937 26.5048L38.5791 30.3971C38.5791 30.3971 36.1965 30.3809 36.1866 30.3971L36.8992 26.5112H36.0039L36.1866 25.531H37.1083L37.1112 25.5373ZM50.306 23.7167L49.1556 30.4003L46.7469 30.4032L47.9591 23.6509L50.306 23.7167ZM29.4509 26.6973C29.1475 26.6953 28.8521 26.7942 28.6111 26.9783C28.3625 27.168 28.2059 27.4423 28.1436 27.8048C28.0682 28.2265 28.1146 28.5304 28.2808 28.7166C28.4507 28.9028 28.6925 28.9979 29.0127 28.9979C29.2285 28.9979 29.4477 28.9587 29.6142 28.8769C29.8172 28.7691 29.9572 28.658 30.0782 28.4782C30.2087 28.292 30.2939 28.0826 30.3397 27.8408C30.4085 27.458 30.3496 27.1738 30.173 26.9844C29.9999 26.7948 29.7612 26.6967 29.448 26.6967L29.4509 26.6973ZM25.1436 32.0739L26.2972 25.5895H28.3759L28.2158 26.416C28.3956 26.1675 28.6833 25.9651 29.082 25.8012C29.4839 25.638 29.9346 25.517 30.4253 25.517C30.9676 25.517 31.3011 25.546 31.7065 25.7557C32.1084 25.9683 32.3929 26.2754 32.5431 26.6741C32.6997 27.0662 32.7328 27.5108 32.6475 27.9913C32.5069 28.7917 32.118 29.4195 31.4774 29.8835C30.8435 30.3475 30.271 30.4684 29.4576 30.4722C29.1699 30.4722 28.928 30.4432 28.7288 30.3939C28.5328 30.3417 28.3759 30.2797 28.2581 30.2043C28.1439 30.1289 28.0261 30.0216 27.8695 29.8513L27.4838 32.0739H25.1436ZM68.0938 27.2924C68.0808 26.9038 67.885 26.6387 67.4828 26.6387C66.5122 26.6387 65.4818 28.5411 65.3029 29.3056C66.8944 29.3085 68.1333 28.361 68.0941 27.2924H68.0938ZM68.3026 30.273L68.4888 30.4006C68.0149 31.3648 67.0504 32.1394 65.92 32.1394C64.992 32.1394 64.2337 31.5217 64.1945 30.3646C64.1191 28.2894 66.0638 26.3644 67.6556 26.3644C68.3386 26.3644 68.9728 26.6619 68.9989 27.3968C69.0578 29.0498 66.7404 29.5506 65.2144 29.5863C65.1651 29.7594 65.1457 29.9328 65.1556 30.1941C65.1846 30.8771 65.5906 31.4527 66.4498 31.4527C67.1885 31.4527 67.9271 30.8582 68.3058 30.273H68.3026Z" fill="#007BC9"/>
<path d="M58.8124 27.24L59.3547 27.1878C59.5279 27.1878 59.6911 27.2206 59.7013 27.3908C59.7042 27.4923 59.5215 28.2275 59.4823 28.3971L59.1129 30.0246L58.6584 31.9397H59.6062L60.1389 29.3611C61.7629 27.6681 62.3907 27.1159 62.7732 27.1159C62.9463 27.1159 63.0641 27.2075 63.0739 27.4134C63.0838 27.711 62.8999 28.3872 62.8353 28.5836L62.293 30.4628C62.1689 30.8844 62.0772 31.2666 62.09 31.5381C62.1062 31.9499 62.3547 32.1326 62.7274 32.1326C63.4234 32.1326 63.9236 31.4076 64.3615 30.7011L64.2339 30.4691C64.0599 30.7533 63.6452 31.3777 63.3222 31.3777C63.2207 31.3777 63.1229 31.309 63.1192 31.139C63.1093 30.9201 63.201 30.5901 63.2662 30.3711L63.8708 28.1683C64.0344 27.5605 64.1095 27.1716 64.1028 26.9619C64.0866 26.5501 63.8476 26.3573 63.4785 26.3573C62.8541 26.3573 62.0273 26.8149 60.2723 28.8309H60.2433L60.4654 27.8473C60.5863 27.3079 60.7041 26.7459 60.8152 26.3567C60.2073 26.5756 59.3379 26.8207 58.802 26.9251L58.8124 27.24Z" fill="#007BC9"/>
</svg>
