<svg width="80" height="50" viewBox="0 0 80 50" fill="none" xmlns="http://www.w3.org/2000/svg">
<rect width="80" height="50" fill="black"/>
<path d="M22.9229 31.6922H56.9227C57.6924 31.6922 58.6154 31.5385 59.2309 31.3847C62.0003 30.4613 64 27.8462 64 24.7693C64 21.6923 62.0003 19.2308 59.2309 18.3077C58.6154 18.1537 57.6924 18 56.9227 18H22.9229C19.0768 18 16 21.0769 16 24.7693C16 28.6154 19.0768 31.6922 22.9229 31.6922Z" fill="#CC0001"/>
<path d="M53.231 21.8461H57.8464V23.0768H56.3079V27.5382H54.7694V23.0767H53.231V21.8461V21.8461Z" fill="white"/>
<path d="M36.3066 25.077C36.6143 25.077 37.0759 25.077 37.3835 24.923C37.6914 24.7693 37.9991 24.6156 37.9991 24C37.9991 23.5385 37.6914 23.2308 37.2299 23.0768C36.7683 22.9231 36.3066 23.0768 36.3066 23.0768V25.077V25.077ZM34.7683 21.8462C34.9222 21.8462 37.3837 21.6923 38.1529 22.0002C38.9222 22.3076 39.3839 22.9231 39.3839 24C39.3839 25.231 38.9222 25.6922 38.3069 25.9997C37.8451 26.1539 37.2299 26.3077 36.3066 26.3077V27.5382H34.7683V21.8462Z" fill="white"/>
<path d="M40.6147 24.9268C40.6147 26.7019 42.0671 28.1542 44.0034 28.1542C45.778 28.1542 47.2303 26.702 47.2303 24.9268C47.2303 22.9906 45.7781 21.5385 44.0034 21.5385C42.0671 21.5383 40.6147 22.9906 40.6147 24.9268ZM45.6169 24.7655C45.6169 26.2177 44.6485 26.702 44.0035 26.702C43.1963 26.702 42.2283 26.2179 42.2283 24.7655C42.2283 23.4746 43.1963 22.9906 44.0035 22.9906C44.8097 22.9906 45.6169 23.4746 45.6169 24.7655Z" fill="white"/>
<path d="M49.9998 28.9228L49.2301 27.6924C49.8457 27.3845 50.4611 27.077 50.4611 26.1539C50.4611 25.6922 49.8455 25.3847 49.5377 25.231C49.2301 24.7693 49.0765 24.6156 48.9226 24.1538C48.6152 23.5385 48.7689 22.7693 49.2301 22.3076C49.5377 22.1539 49.8457 21.8462 50.3074 21.8462C50.7686 21.6924 51.3842 21.8462 51.8458 21.8462V22.9231C50.9225 22.9231 50.3074 22.9231 50.3074 23.6924C50.3074 23.8464 50.4611 24.0001 50.6149 24.3078C50.9225 24.4614 51.8458 24.923 51.9995 25.9998C52.1532 26.4615 51.9995 27.077 51.692 27.5382C51.3842 27.9999 50.7686 28.4616 49.9998 28.9228Z" fill="white"/>
<path d="M22.9229 18C19.0768 18 16 21.0769 16 24.7693H17.5385C17.5385 21.8462 19.8462 19.3846 22.9231 19.3846V18H22.9229Z" fill="#323498"/>
<path d="M22.9229 18C26.6152 18 29.6921 21.0769 29.6921 24.7693H28.1536C28.1536 21.8462 25.8458 19.3846 22.9229 19.3846V18V18Z" fill="#309932"/>
<path d="M23.9995 26.9231C23.8456 26.9231 23.6918 27.077 23.6918 27.2307V27.3844C23.8455 27.3844 23.9995 27.2307 23.9995 27.0768V26.9231ZM21.8456 28.1542H21.6919C21.5379 28.1542 21.5379 28.1542 21.5379 28.0001H21.6919C21.3841 27.8462 21.2301 27.8462 21.0764 27.6924C20.9227 27.5382 20.9227 27.5382 20.9227 27.5382L21.3843 27.2307L21.5379 27.077C21.5379 27.2307 21.6919 27.3845 21.8456 27.3845C21.6919 27.2307 21.6919 27.077 21.5379 26.9231H21.6919V26.7695C21.8456 26.9231 21.8456 26.9231 21.9996 27.077C21.9996 27.077 22.1533 26.9231 22.1533 27.077L21.8456 28.1542ZM21.3841 25.077C21.6918 24.6154 22.1533 24.3078 22.9226 24.3078C23.5381 24.3078 23.9995 24.6154 24.3072 25.077V25.231C23.9995 24.7693 23.3841 24.3078 22.9226 24.3078C22.307 24.3078 21.6918 24.7693 21.3841 25.231V25.077ZM22.9226 25.5385C22.7689 25.5385 22.6149 25.5385 22.461 25.6922L21.6918 25.3847C21.9995 24.923 22.307 24.6154 22.9226 24.6154C23.3841 24.6154 23.8455 24.923 23.9995 25.3847L23.2303 25.6922C23.2303 25.5385 23.0764 25.5385 22.9226 25.5385ZM23.0764 25.8461H22.9226C22.7689 25.8461 22.6149 25.9998 22.6149 25.9998C22.4612 25.8461 22.9226 25.6922 23.0764 25.8461ZM24.6147 24.7693C24.6147 24.7693 24.6147 24.923 24.7687 24.923H24.6147C24.3073 24.4616 23.5381 24.0001 22.9226 24.0001C22.1533 24.0001 21.3841 24.4616 21.0764 24.923C21.0764 24.923 21.0764 24.7693 21.2301 24.7693C20.9226 24.7693 20.7686 24.7693 20.4609 24.7693C20.6149 24.3078 20.6149 24.1538 20.6149 24.1538C20.3072 24.1538 19.9993 24.3078 19.5379 24.6154C19.2302 24.7693 18.7687 25.077 18.615 25.231C19.5379 25.3848 19.9995 26.3078 20.4609 26.9231L20.3072 27.077H20.4609L20.3072 27.2307L20.4609 27.3844L21.0764 27.077L20.6149 27.3845V27.5382L21.3841 27.077L21.5379 26.7695L22.9226 26.1539H23.0764C23.0764 26.3078 22.9226 26.3078 22.7689 26.3078L22.6149 26.4615C22.6149 26.4615 22.7689 26.4615 22.9226 26.4615C22.9226 26.4615 23.0763 26.4615 23.2303 26.4615C23.2303 26.3078 23.2303 26.3078 23.2303 26.3078L23.3841 26.1539V25.9998H23.2303H23.0764L24.7687 25.077C24.7687 25.231 24.9224 25.231 24.9224 25.3847C25.0764 25.077 25.3841 24.7691 25.3841 24.6154C25.3843 24.6156 24.9226 24.7693 24.6147 24.7693ZM19.5379 24.4616C19.0764 24.7693 18.615 25.0771 18.461 25.231C18.3073 25.3847 18.3073 25.3847 18.1533 25.231C18.1533 25.231 18.1533 25.231 18.3073 25.077C18.615 24.923 18.9226 24.6154 19.3842 24.3078C19.8456 24.1538 20.3072 23.8464 20.7687 23.6924C20.9227 23.6924 20.9227 23.6924 20.9227 23.8464C20.9227 23.8464 20.9227 23.8464 20.7687 24.0001C20.4609 24.0001 19.9995 24.3078 19.5379 24.4616ZM22.3072 25.9998V26.1539L21.6919 26.6156C21.5379 26.4615 21.5379 26.1539 21.5379 25.9998C21.5379 25.8461 21.5379 25.6922 21.5379 25.5385L21.3841 25.3848C21.2301 25.5385 21.2301 25.8461 21.2301 25.9999C21.2301 26.1541 21.2301 26.4616 21.3841 26.6159H21.2301C21.2301 26.4615 21.0764 26.1539 21.0764 25.9998C21.0764 25.8461 21.2301 25.5385 21.2301 25.3847L20.9226 25.231C20.9227 25.5385 20.7687 25.6922 20.7687 25.9998C20.7687 25.9998 20.7687 25.9998 20.7687 26.1539C20.7687 25.9998 20.7687 25.9998 20.7687 25.8459C20.6149 25.5385 20.6149 25.231 20.4609 25.077C20.4609 24.923 20.3072 24.923 20.3072 24.7693V24.6156C20.3072 24.7693 20.6149 25.0771 20.7687 25.3848C20.9227 25.2311 20.9227 25.2311 20.9227 25.0771L22.3072 25.8461C22.3072 25.8461 22.3072 25.8461 22.3072 25.9998ZM25.2303 25.9998C25.0766 25.8461 25.0766 25.8461 25.0766 25.8461H24.9226V25.9998C24.9226 26.3078 24.9226 26.4615 24.9226 26.7695L24.7687 26.6158C24.7687 26.4615 24.9226 26.3078 24.9226 25.9998C24.9226 25.8461 24.9226 25.6922 24.7689 25.3847V25.231L24.4612 25.3847C24.6149 25.5384 24.6149 25.8459 24.6149 25.9998C24.6149 26.1539 24.6149 26.3078 24.4612 26.6158V26.4616C24.461 26.3078 24.461 26.1539 24.461 25.9998C24.461 25.8461 24.461 25.5385 24.461 25.3847L24.1533 25.5385C24.1533 25.6922 24.1533 25.8461 24.1533 25.9998C24.1533 26.1539 24.1533 26.3078 24.1533 26.4615H23.9995L23.3841 26.1539C23.3841 26.3078 23.3841 26.3078 23.3841 26.3078L23.8456 26.6158L24.1533 27.077L24.9226 27.3845V27.2308L24.3073 27.077L24.461 26.9231L25.0766 27.2307H25.2303L25.0766 27.3844H24.9226L25.0766 27.5381L24.1533 27.077C23.9996 27.2307 23.8456 27.3845 23.6918 27.5382L23.5381 28.1542C24.1533 27.8462 24.461 27.5382 24.461 27.5382L24.3073 28.1542C24.3073 28.3079 24.461 28.4616 24.7687 28.4616C25.0764 28.4616 25.2303 28.3079 25.2303 28.1541V27.6924V27.8462L25.3843 28.1542C25.3843 28.3079 25.2303 28.3079 25.2303 28.4616H25.0766C24.9226 28.4616 24.9226 28.4616 24.7687 28.4616V28.6155C24.7687 28.7692 24.9224 28.923 25.2303 28.923C25.538 28.923 25.6918 28.7693 25.6918 28.6155C25.6918 28.6155 25.538 27.6924 25.538 27.5382C25.538 27.3845 25.538 27.3845 25.3843 27.3845C25.538 27.3845 25.538 27.2307 25.538 27.2307C25.538 27.077 25.3843 27.077 25.2303 27.077C25.3843 27.077 25.3843 27.077 25.3843 27.077C25.3843 26.9231 25.2303 26.9231 25.2303 26.9231C25.2303 26.9231 25.2303 26.3076 25.2303 26.1539C25.3843 26.1539 25.538 25.8459 25.3843 25.6922L25.2303 25.5385H25.0766H24.9226V25.6922H25.0766C25.0766 25.6922 25.2303 25.6922 25.2303 25.8459V25.9998ZM25.538 25.3848C25.6917 25.3848 25.9995 25.2311 25.9995 25.0771C26.1535 25.0771 26.1535 25.0771 26.3072 25.0771C26.3072 24.9231 26.3072 24.9231 25.9995 24.6156C25.6918 24.4616 25.6918 24.4616 25.538 24.4616C25.538 24.6156 25.538 24.6156 25.6917 24.7693C25.538 24.923 25.3841 25.077 25.3841 25.231C25.3841 25.231 25.3841 25.231 25.2301 25.3847V25.231C25.0764 25.231 25.0764 25.231 25.0764 25.3847C25.2303 25.3848 25.2303 25.3848 25.2303 25.5385C25.3843 25.5385 25.3843 25.5385 25.3843 25.6922C25.3843 25.6922 25.3843 25.6922 25.538 25.6922C25.538 25.6922 25.6917 25.6922 25.538 25.5385C25.538 25.3848 25.538 25.3848 25.538 25.3848ZM23.3841 28.1542C23.3841 28.3079 23.3841 28.3079 23.3841 28.3079C23.2304 28.3079 23.2304 28.3079 23.2304 28.1542L23.3841 27.2307C23.5381 26.9231 23.5381 26.9231 23.8456 26.9231C23.8456 26.9231 23.6918 26.9231 23.6918 27.077L23.3841 28.1542ZM23.3841 27.2307L23.0764 28.3079C23.0764 28.3079 23.0764 28.4616 22.9226 28.4616V28.3079L23.0764 27.3845C23.2303 27.2307 23.2303 27.077 23.2303 27.077C23.3841 27.077 23.3841 27.2307 23.3841 27.2307ZM22.7689 27.3845L22.4612 28.3079C22.4612 28.3079 22.3072 28.4616 22.3072 28.3079H22.1533L22.461 27.3845C22.6149 27.2307 22.6149 27.2307 22.6149 27.2307C22.7689 27.2307 22.7689 27.2307 22.7689 27.3845ZM22.1533 28.1542C22.1533 28.3079 21.9996 28.3079 21.9996 28.3079C21.8456 28.3079 21.8456 28.3079 21.8456 28.1542L22.3072 27.2308C22.3072 27.2308 22.3072 27.0771 22.4612 27.0771V27.2308L22.1533 28.1542ZM22.7689 28.3079C22.7689 28.3079 22.7689 28.4616 22.6149 28.4616V28.3079L22.7689 27.3845C22.9226 27.2307 22.9226 27.2307 22.9226 27.2307C23.0763 27.2307 23.0763 27.2307 23.0763 27.3844L22.7689 28.3079ZM22.6149 22.0002C22.6149 22.0002 22.6149 22.1539 22.6149 22.0002C22.3072 21.8462 22.3072 22.0002 22.3072 22.3077C22.3072 22.4616 22.4612 22.6154 22.6149 22.4616C22.7689 22.7693 22.1533 22.9231 22.1533 22.6153C22.307 22.6153 22.1533 22.3076 22.1533 22.3076C22.1533 22.1539 21.9996 22.0002 21.8456 22.1539C21.8456 22.1539 21.8456 22.1539 21.8456 22.0002C21.9996 21.8462 21.8456 21.8462 21.6919 21.8462C21.5379 21.5385 21.9996 21.3847 22.4612 21.6925C22.4612 21.6925 22.4612 21.6925 22.6149 21.6925C22.4612 21.5385 22.4612 21.5385 22.4612 21.5385C22.4612 21.3847 22.4612 21.3847 22.3072 21.3847C22.3072 21.3847 22.3072 21.3847 22.3072 21.5384C22.3072 21.5384 22.3072 21.3847 22.1533 21.3847V21.231L21.9996 21.3847C21.9996 21.231 21.8456 21.231 21.8456 21.231C21.8456 21.231 21.6919 21.231 21.6919 21.3847H21.5379C21.3841 21.3847 21.3841 21.3847 21.3841 21.3847C21.3841 21.5384 21.3841 21.5384 21.5379 21.5384C21.3841 21.6924 21.3841 22.0002 21.6919 22.1539C21.5379 22.3076 21.5379 22.4616 21.6919 22.4616C21.6919 22.6154 21.8456 22.6154 21.8456 22.6154C21.8456 22.9231 21.5379 22.9231 21.3841 22.6154V22.4616C21.3841 22.3076 21.2301 22.3076 21.2301 22.3076C21.0764 22.0002 21.0764 21.6924 21.3841 21.6924C21.3841 21.6924 21.3841 21.6924 21.3841 21.5384H21.2301C21.2301 21.3847 21.2301 21.3847 21.0764 21.3847C21.0764 21.3847 20.9227 21.3847 20.9227 21.5384C20.9227 21.5384 20.9227 21.5384 21.0764 21.5384C20.9227 21.6924 20.9227 21.6924 20.9227 21.6924C20.7687 21.6924 20.7687 21.6924 20.7687 21.8462C20.7687 21.8462 20.7687 21.8462 20.9227 21.8462C20.9227 22.0002 20.9227 22.0002 20.9227 22.0002L20.7687 22.1539L20.9227 22.3076C20.9227 22.3076 20.9227 22.3076 20.9227 22.1539C20.9227 22.3076 21.0764 22.3076 21.0764 22.3076C20.9227 22.3076 20.9227 22.4616 20.9227 22.4616C20.9227 22.4616 20.9227 22.4616 21.0764 22.4616C21.2301 22.4616 21.2301 22.6153 21.3841 22.9231C21.3841 23.0771 21.3841 23.0771 21.5378 23.0771C21.8455 23.0771 22.461 22.9231 22.9224 22.9231C23.2301 22.9231 23.8453 23.0771 24.1532 23.0771C24.3072 23.0771 24.3072 23.0771 24.4609 22.9231C24.4609 22.6154 24.4609 22.4616 24.6146 22.4616C24.7687 22.4616 24.7687 22.4616 24.7687 22.4616C24.7687 22.4616 24.7687 22.3076 24.6147 22.3076C24.7687 22.3076 24.7687 22.3076 24.7687 22.1539C24.7687 22.3076 24.7687 22.3076 24.7687 22.3076C24.9226 22.3076 24.9226 22.1539 24.9226 22.1539C24.9226 22.1539 24.9226 22.0002 24.7689 22.0002C24.7689 22.0002 24.7689 22.0002 24.7689 21.8462C24.9226 21.8462 24.9226 21.8462 24.9226 21.8462C24.9226 21.6924 24.9226 21.6924 24.9226 21.6924C24.7687 21.6924 24.7687 21.6924 24.7687 21.6924C24.7687 21.6924 24.7687 21.6924 24.7687 21.5384C24.7687 21.3847 24.6147 21.3847 24.6147 21.3847C24.6147 21.3847 24.461 21.3847 24.461 21.5384C24.461 21.5384 24.461 21.5384 24.3073 21.5384C24.3073 21.6924 24.3073 21.6924 24.3073 21.6924C24.6149 21.6924 24.7689 22.0001 24.461 22.3076C24.461 22.3076 24.3073 22.3076 24.3073 22.4616V22.6154C24.1533 22.9231 23.8456 22.9231 23.8456 22.6154C23.9995 22.6154 23.9995 22.6154 24.1533 22.4616C24.1533 22.4616 24.1533 22.3076 23.9996 22.1539C24.3073 22.0002 24.3073 21.6924 24.1533 21.5384C24.3073 21.5384 24.3073 21.5384 24.3073 21.3847C24.3073 21.3847 24.3073 21.3847 24.1533 21.3847C23.9995 21.3847 23.9995 21.3847 23.9995 21.3847C23.9995 21.231 23.9995 21.231 23.8456 21.231C23.8456 21.231 23.8456 21.231 23.8456 21.3847C23.6918 21.3847 23.6918 21.3847 23.6918 21.3847C23.6918 21.3847 23.6918 21.231 23.5381 21.231V21.3847L23.3841 21.5384C23.3841 21.3847 23.3841 21.3847 23.3841 21.3847C23.2303 21.3847 23.2303 21.3847 23.2303 21.5384C23.2303 21.5384 23.2303 21.5384 23.2303 21.6924C23.6918 21.3847 24.1533 21.5384 23.9995 21.8462C23.8456 21.8462 23.8456 21.8462 23.8456 22.0002C23.8456 22.1539 23.8456 22.1539 23.8456 22.1539C23.692 22.0002 23.5381 22.1539 23.5381 22.3076C23.5381 22.3076 23.3841 22.6153 23.6918 22.6153C23.5381 22.9231 22.9226 22.7693 23.0764 22.4616C23.3841 22.6153 23.3841 22.4616 23.3841 22.3076C23.5381 22.0001 23.3841 21.8461 23.0764 22.0001C23.0764 22.1537 23.0764 22.0001 23.0764 22.0001C23.2303 21.6924 23.0764 21.6924 22.9226 21.6924C22.7689 21.6924 22.4612 21.6924 22.6149 22.0002ZM24.3073 23.2308V23.6924C23.8456 23.6924 23.3841 23.5385 22.9226 23.5385C22.3072 23.5385 21.8456 23.6924 21.3841 23.6924V23.2308C21.6918 23.0771 22.461 23.0771 22.9226 23.0771C23.2303 23.0771 23.9995 23.0771 24.3073 23.2308ZM23.0764 23.5385C23.0764 23.5385 23.0764 23.3845 23.0764 23.2308H22.9226C22.9226 23.3847 22.9226 23.3847 22.9226 23.3847C22.9226 23.3847 22.9226 23.3847 22.6149 23.3847L22.7689 23.5385C22.9226 23.5385 23.0764 23.5385 23.0764 23.5385ZM21.8456 23.5385C21.9996 23.5385 21.9996 23.5385 21.9996 23.3845L21.8456 23.5385C21.8456 23.5385 21.8456 23.3847 21.6919 23.3847C21.8456 23.5385 21.8456 23.5385 21.8456 23.5385ZM23.8456 23.5385C23.8456 23.5385 23.8456 23.5385 23.9995 23.3847C23.8456 23.3847 23.8456 23.5385 23.8456 23.5385L23.6918 23.3847C23.6918 23.5385 23.8456 23.5385 23.8456 23.5385ZM22.9226 20.3077C22.9226 20.4614 22.9226 20.4614 22.9226 20.4614C23.0763 20.4614 23.0763 20.4614 23.0763 20.4614C23.0763 20.4614 23.0764 20.6154 22.9226 20.6154H23.0764C23.2303 20.6154 23.2303 20.6154 23.2303 20.6154C23.3841 20.6154 23.3841 20.6154 23.3841 20.7691C23.3841 20.7691 23.3841 20.7691 23.2304 20.7691C23.2303 20.9231 23.2303 20.9231 23.0764 20.9231C23.0764 20.9231 23.0764 20.9231 23.0764 20.7691H22.9226V20.9231C23.0764 20.9231 23.2303 21.077 23.2303 21.231C23.2303 21.3847 23.0764 21.5384 22.9226 21.5384C22.6149 21.5384 22.461 21.3847 22.461 21.2308C22.461 21.0768 22.6147 20.9231 22.7687 20.9231V20.7691H22.6149C22.6149 20.9231 22.6149 20.9231 22.6149 20.9231C22.6149 20.9231 22.4612 20.9231 22.4612 20.7691H22.3072C22.3072 20.6154 22.4612 20.6154 22.4612 20.6154H22.6149H22.7689L22.6149 20.4614H22.7689C22.7689 20.4614 22.7689 20.4614 22.7689 20.3077C22.7689 20.3077 22.7689 20.3077 22.9226 20.3077Z" fill="#FDFE00"/>
<path d="M29.6921 24.7692C29.6921 28.6153 26.6152 31.6921 22.9229 31.6921V30.1538C25.8458 30.1538 28.1536 27.8461 28.1536 24.7692H29.6921Z" fill="#FDFE00"/>
</svg>
