<svg width="80" height="50" viewBox="0 0 80 50" fill="none" xmlns="http://www.w3.org/2000/svg">
<rect width="80" height="50" fill="black"/>
<path fill-rule="evenodd" clip-rule="evenodd" d="M50.2373 34.5193C52.9888 33.2799 55 30.4913 55 27.1867C55 23.8815 52.9888 21.0933 50.2373 19.8539V24.0882C50.872 24.8112 51.2954 25.947 51.2954 27.1865C51.2954 28.4256 50.872 29.5618 50.2373 30.3878V34.5193ZM50.2373 18.4081H51.9307V15H50.2373V18.4081ZM48.4376 15H50.2371V18.4081H48.4376V15ZM50.2373 19.854V24.0884C49.4963 23.1588 48.4378 22.6424 47.2737 22.6424C46.1093 22.6424 45.1569 23.1588 44.4159 23.985V19.854C45.2628 19.5441 46.215 19.2343 47.2737 19.2343C48.3319 19.2343 49.2845 19.5441 50.2373 19.854ZM50.2373 30.3882V34.5195C49.2845 34.9323 48.3319 35.1389 47.2737 35.1389C46.2152 35.1389 45.2628 34.9323 44.4159 34.5195V30.3882C45.1569 31.2145 46.1093 31.731 47.2737 31.731C48.4377 31.731 49.4963 31.2144 50.2373 30.3882ZM44.4159 15H46.1093V18.4081H44.4159V15ZM39.9707 18.4081H40.394V15H39.9707V18.4081ZM42.6168 15H44.4159V18.4081H42.6168V15ZM44.4159 19.854V23.985C43.6749 24.8114 43.2516 25.9474 43.2516 27.1869C43.2516 28.426 43.6749 29.5621 44.4159 30.3882V34.5195C42.2992 33.6931 40.7113 32.0409 39.9707 29.8721V24.5015C40.7115 22.4358 42.2992 20.6802 44.4159 19.854ZM39.9707 15H36.7955C36.3721 15 35.9488 15 35.6313 15.1033V35.1389H36.7955V23.0555H39.5473V20.2671H36.7955V19.2343C36.7955 18.7181 37.0072 18.4081 37.5363 18.4081H39.9705V15H39.9707ZM39.9707 24.5015V29.8719C39.6532 29.0455 39.5473 28.116 39.5473 27.1867C39.5473 26.2572 39.6532 25.3275 39.9707 24.5015ZM35.6313 15.1033C33.4087 15.31 32.7738 16.4459 32.7738 18.9245V20.2671H30.8686V23.0555H32.7738V35.1387H35.6313V15.1033ZM27.9052 15H29.916V35.1387H27.9052V15ZM26 35.1387H27.9052V15H26V35.1387Z" fill="#1798E1"/>
</svg>
