<svg width="80" height="50" viewBox="0 0 80 50" fill="none" xmlns="http://www.w3.org/2000/svg">
<rect width="80" height="50" fill="black"/>
<path d="M22 17V31.6934C22 31.6934 24.6033 30.0365 30.9919 30.1197C38.6675 30.2182 41.0677 32.8985 48.762 32.9976C53.9581 33.0648 58 31.6934 58 31.6934V17H22Z" fill="#C4161D"/>
<path d="M31.205 27.9177L27.4656 24.0928L27.4812 27.9117L24.7219 27.9161L24.709 19.7378L27.4428 19.7338L27.4467 23.3006L29.6739 19.7162L32.7202 19.7249L30.3621 23.4827L34.969 27.9142L31.205 27.9177Z" fill="white"/>
<path d="M38.2831 21.8634L36.1213 21.8559L36.1147 25.7302H38.44C40.4087 25.7257 41.3138 25.3723 41.2656 23.728C41.2133 22.2619 40.0245 21.8359 38.2831 21.8634ZM39.521 27.9066L35.9888 27.9246L33.4317 25.406L33.4248 19.7248L39.5096 19.7175C42.0226 19.7121 44.0641 21.5513 44.0673 23.8108C44.0707 26.0691 42.0355 27.9028 39.521 27.9066Z" fill="white"/>
<path d="M50.5463 27.8922L47.8192 27.896L43.1775 19.7121L46.0808 19.7065L49.1689 25.5051L52.2959 19.6994L55.1609 19.6935L50.5463 27.8922Z" fill="white"/>
</svg>
