<svg width="80" height="50" viewBox="0 0 80 50" fill="none" xmlns="http://www.w3.org/2000/svg">
<rect width="80" height="50" fill="black"/>
<path d="M43.1127 19H44.5786C46.7843 19.3665 48.4956 21.019 49.3288 23.0381C48.3504 23.0588 47.372 23.0657 46.3971 23.0588C45.6987 22.4711 44.9658 21.7381 43.9735 21.8107C42.5007 21.6967 41.1248 22.7822 40.7583 24.1859C40.1256 26.1634 41.8646 28.4936 43.977 28.2931C45.2423 28.3691 46.117 27.3562 46.8845 26.5057C45.7333 26.4677 44.582 26.4538 43.4273 26.4573C43.4342 25.5515 43.4377 24.6422 43.4411 23.7364C45.474 23.7364 47.5103 23.7468 49.5432 23.7191C49.5466 22.3432 49.5501 20.9637 49.5604 19.5877C51.334 19.5877 53.111 19.5877 54.8881 19.5946C54.8881 20.5004 54.8881 21.4062 54.8881 22.3155C53.9546 22.319 53.0212 22.312 52.0912 22.3155C52.0877 22.6716 52.0842 23.3803 52.0842 23.7364C53.0177 23.7399 53.9546 23.7364 54.8915 23.7399C54.8881 24.6457 54.8881 25.5515 54.895 26.4573C53.9581 26.4642 53.0212 26.4607 52.0877 26.4677C52.0877 26.8099 52.0877 27.4945 52.0877 27.8367C53.0212 27.8367 53.9546 27.8333 54.8915 27.8367C54.8881 28.7218 54.8881 29.6103 54.8881 30.4953C53.111 30.5023 51.334 30.4988 49.557 30.5057C49.5501 29.2957 49.5432 28.0891 49.5604 26.8825C49.0488 27.8713 48.5855 28.9361 47.7143 29.6656C46.7808 30.4781 45.5604 30.8238 44.3815 31.1004H43.2268C42.1412 30.803 41.0245 30.4504 40.1636 29.6933C39.3305 28.9811 38.8776 27.9543 38.3659 27.0104C38.3901 28.1755 38.3832 29.3406 38.3763 30.5057C37.5085 30.5023 36.6407 30.5023 35.7764 30.5057C35.7522 28.3553 35.8144 26.2084 35.7142 24.0614C34.4799 25.9802 34.3105 28.2965 34.1446 30.5057C33.2595 30.5023 32.3779 30.4988 31.4929 30.4953C31.4652 28.2793 31.237 25.9836 30.0339 24.0614C29.9544 26.2084 30.0097 28.3553 29.9959 30.5023C29.0901 30.4988 28.1877 30.4988 27.2854 30.4953C27.2923 26.7788 27.2819 23.0623 27.2923 19.3457C30.1964 19.5946 32.0564 22.2187 32.8792 24.784C33.6606 22.2083 35.5171 19.6638 38.3693 19.3146C38.3901 20.4555 38.3866 21.5929 38.359 22.7338C39.2164 20.7839 40.9796 19.3042 43.1127 19Z" fill="white"/>
<path d="M21.9854 20.8323C23.2472 19.6637 24.9828 19.3318 26.6492 19.3387C26.6526 23.0691 26.6457 26.796 26.6492 30.5229C25.7814 30.5264 24.9102 30.5264 24.0424 30.5298C24.0355 29.6137 24.0424 28.701 24.039 27.7848C22.8946 27.7848 21.7503 27.7848 20.6025 27.7813C20.3432 28.694 20.0839 29.6033 19.8349 30.5195C18.8877 30.5264 17.9438 30.5229 17 30.5298V30.2602C18.2342 26.9447 19.1712 23.2108 21.9854 20.8323ZM21.6915 25.1469C22.4763 25.1642 23.2611 25.1676 24.0459 25.1711C24.039 24.3275 24.0355 23.4805 24.0113 22.6369C23.1643 23.4045 22.4002 24.2549 21.6915 25.1469Z" fill="white"/>
<path d="M55.5761 19.4496C57.7507 20.4038 59.3514 22.2119 60.7101 24.0961C60.7066 22.5957 60.7032 21.0952 60.6928 19.5913C61.6263 19.5879 62.5563 19.5879 63.4897 19.5913C63.4966 23.2284 63.4793 26.8619 63.5001 30.4989C62.5908 30.4989 61.6816 30.4989 60.7723 30.4989C60.4024 28.6286 59.6141 26.8585 58.4076 25.3753C58.3799 27.0832 58.4076 28.7911 58.3868 30.5024C57.4395 30.4989 56.4957 30.4989 55.5484 30.5024C55.5657 26.8204 55.5138 23.135 55.5761 19.4496Z" fill="white"/>
</svg>
