<svg width="80" height="50" viewBox="0 0 80 50" fill="none" xmlns="http://www.w3.org/2000/svg">
<rect width="80" height="50" fill="black"/>
<path d="M38.7171 24.3206L41.0761 19.3585H43.4965L43.7975 24.3159L43.8574 24.3214L46.0794 19.2193H48.2572L44.6079 27.3624H42.0848L41.6322 22.0612L41.5754 22.0511L41.0815 23.14L39.3082 27.1377C39.2343 27.3057 39.1527 27.3866 38.9567 27.3819L36.9392 27.3764C36.8692 27.3764 36.8015 27.3663 36.7058 27.3593L36.2446 19.234H38.5624L38.6635 24.3027L38.7171 24.3206ZM48.7837 19.2232H51.2274L51.9741 24.0764L54.3642 19.1998L56.3848 19.2053H56.6632L56.1157 20.2319L52.146 27.6051C51.8193 28.2118 51.4475 28.7896 50.9591 29.2827C50.1813 30.0605 49.2301 30.3537 48.1592 30.2759C47.7734 30.2479 47.3915 30.1647 46.9715 30.1009L47.8068 28.4272C50.0904 28.806 50.1635 26.7208 50.0546 26.1795L48.7837 19.3305C48.7783 19.3009 48.7829 19.2706 48.7829 19.2239L48.7837 19.2232ZM65.0701 23.9644C64.9269 24.7468 65.3835 25.4328 66.1683 25.6654C66.806 25.8551 67.4399 25.7704 68.0722 25.6381L68.8733 25.4297C68.8733 25.523 68.885 25.6039 68.871 25.6786L68.5785 27.1906C68.5785 27.1906 68.339 27.2777 68.2519 27.2994C67.5288 27.4851 66.7784 27.5402 66.036 27.462C65.4838 27.4099 64.9456 27.2932 64.4463 27.0436C63.4243 26.5333 62.8674 25.6724 62.7531 24.5485C62.6007 23.0552 62.9522 21.6786 63.8886 20.4932C64.7908 19.3515 66.0119 18.9494 67.4134 19.0412C68.0108 19.0801 68.5692 19.2512 69.0763 19.598C70.2663 20.4108 70.3931 22.5131 68.9441 23.3896C68.4098 23.7132 67.8264 23.8796 67.2143 23.9574C66.557 24.0435 65.8915 24.0466 65.2334 23.9667C65.1844 23.9605 65.1346 23.966 65.0685 23.966L65.0701 23.9644ZM65.2567 22.4221C65.8945 22.5333 66.4988 22.5388 67.0845 22.3171C67.2813 22.2421 67.4585 22.1232 67.6024 21.9694C68.0053 21.5261 67.8187 20.8907 67.2525 20.7095C66.7446 20.5477 66.1667 20.7445 65.8089 21.2072C65.5398 21.5549 65.3656 21.9492 65.2567 22.4221ZM58.6846 27.3609H56.2526L57.8532 19.2255H59.5588L59.7377 20.7165C59.9866 20.1036 60.2822 19.5996 60.86 19.3492C61.4255 19.1034 62.3004 19.1158 63.1918 19.3943L62.1931 21.4437L61.2271 21.2555C60.5217 21.1855 60.0356 21.4701 59.796 22.1475C59.628 22.622 59.5301 23.1229 59.4289 23.6253L58.6862 27.3702L58.6846 27.3609Z" fill="white"/>
<path d="M23.7931 24.6543H31.4408L27.3055 34.9075C26.7159 36.3643 25.3144 37.3155 23.7589 37.3155H16.1104L20.2457 27.0957C20.8353 25.6389 22.2368 24.6551 23.7923 24.6551" fill="#A9CAFF"/>
<path d="M18.3564 31.6922H22.603C24.1586 31.6922 24.6548 31.63 25.9513 30.4852L31.4299 24.5835H23.7922C22.2367 24.5835 20.8352 25.5666 20.2456 27.0233L18.3564 31.6922Z" fill="#0408E0"/>
<path d="M21.2373 18.3986H28.8851L24.7505 28.5935C24.1609 30.0502 22.7594 30.9268 21.2039 30.9268H13.5562L17.6915 20.7894C18.2811 19.3327 19.6826 18.4071 21.2381 18.4071" fill="#0384FF"/>
<path d="M15.7598 25.4716H20.053C21.6085 25.4716 22.1047 25.2616 23.4013 24.1152L28.8658 18.3621H21.2438C19.6882 18.3621 18.2867 19.2853 17.6972 20.742L15.7598 25.4716Z" fill="#0408E0"/>
<path d="M18.6827 12H26.3305L22.1951 22.2781C21.9097 22.9837 21.4191 23.5874 20.7868 24.0111C20.1545 24.4349 19.4096 24.6592 18.6485 24.655H11L15.1354 14.4663C15.7249 13.0095 17.1264 12.0008 18.682 12.0008" fill="#004EFF"/>
</svg>
