<svg width="80" height="50" viewBox="0 0 80 50" fill="none" xmlns="http://www.w3.org/2000/svg">
<rect width="80" height="50" fill="black"/>
<path d="M32.9526 28.233H34.506V34.3009H32.9526V28.233ZM46.8361 29.9806C46.7875 29.932 46.3021 29.6408 45.5254 29.6408C44.5545 29.6408 43.8264 30.3204 43.8264 31.2427C43.8264 32.165 44.506 32.8446 45.5254 32.8446C46.2535 32.8446 46.739 32.5534 46.8361 32.5048V34.1553C46.6419 34.2039 46.1079 34.3495 45.4283 34.3495C43.6807 34.3495 42.1759 33.1844 42.1759 31.1942C42.1759 29.398 43.5351 28.0388 45.4283 28.0388C46.1565 28.0388 46.6904 28.233 46.8361 28.233V29.9806ZM30.8167 29.9806C30.7681 29.932 30.2827 29.6408 29.506 29.6408C28.5351 29.6408 27.807 30.3204 27.807 31.2427C27.807 32.165 28.4866 32.8446 29.506 32.8446C30.2342 32.8446 30.7196 32.5534 30.8167 32.5048V34.1553C30.6225 34.2039 30.0885 34.3495 29.4089 34.3495C27.7099 34.3495 26.1565 33.1844 26.1565 31.1942C26.1565 29.398 27.5157 28.0388 29.4089 28.0388C30.1371 28.0388 30.6711 28.233 30.8167 28.233V29.9806ZM54.8458 31.2912C54.8458 33.0388 53.4865 34.4466 51.6419 34.4466C49.7972 34.4466 48.438 33.0388 48.438 31.2912C48.438 29.5437 49.7972 28.1359 51.6419 28.1359C53.5351 28.1359 54.8458 29.5437 54.8458 31.2912ZM51.6419 29.6893C50.7196 29.6893 50.04 30.4175 50.04 31.2912C50.04 32.165 50.7196 32.8932 51.6419 32.8932C52.5642 32.8932 53.2438 32.165 53.2438 31.2912C53.2438 30.4175 52.5642 29.6893 51.6419 29.6893ZM40.2827 29.6408C40.2827 29.6408 39.6031 29.4466 39.0691 29.4466C38.438 29.4466 38.0982 29.6408 38.0982 29.932C38.0982 30.3204 38.5351 30.4175 38.7778 30.5145L39.2147 30.6602C40.1856 31 40.671 31.6796 40.671 32.4077C40.671 33.9126 39.3118 34.4466 38.1468 34.4466C37.3215 34.4466 36.5448 34.3009 36.4963 34.3009V32.8932C36.6419 32.9417 37.273 33.1359 37.9526 33.1359C38.7293 33.1359 39.0691 32.8932 39.0691 32.5534C39.0691 32.2621 38.7778 32.0679 38.3895 31.9709C38.2924 31.9223 38.1468 31.8738 38.0497 31.8738C37.1759 31.5825 36.4963 31.0971 36.4963 30.0777C36.4963 28.9611 37.3701 28.1844 38.7778 28.1844C39.506 28.1844 40.2341 28.3786 40.2827 28.3786V29.6408Z" fill="#0096D6"/>
<path d="M24.5535 21.7281C24.5548 21.6257 24.5356 21.5241 24.497 21.4293C24.4584 21.3345 24.4013 21.2483 24.3289 21.1759C24.2565 21.1036 24.1703 21.0464 24.0755 21.0078C23.9807 20.9693 23.8791 20.9501 23.7768 20.9514C23.6744 20.9501 23.5728 20.9693 23.478 21.0078C23.3832 21.0464 23.297 21.1036 23.2246 21.1759C23.1523 21.2483 23.0951 21.3345 23.0565 21.4293C23.018 21.5241 22.9988 21.6257 23.0001 21.7281V23.33C22.9988 23.4324 23.018 23.5339 23.0565 23.6288C23.0951 23.7236 23.1523 23.8097 23.2246 23.8821C23.297 23.9545 23.3832 24.0117 23.478 24.0502C23.5728 24.0888 23.6744 24.108 23.7768 24.1067C23.8791 24.108 23.9807 24.0888 24.0755 24.0502C24.1703 24.0117 24.2565 23.9545 24.3289 23.8821C24.4013 23.8097 24.4584 23.7236 24.497 23.6288C24.5356 23.5339 24.5548 23.4324 24.5535 23.33V21.7281Z" fill="#0096D6"/>
<path d="M28.7293 19.6408C28.7306 19.5385 28.7114 19.4369 28.6728 19.3421C28.6342 19.2472 28.5771 19.1611 28.5047 19.0887C28.4323 19.0163 28.3462 18.9592 28.2513 18.9206C28.1565 18.882 28.0549 18.8628 27.9526 18.8641C27.5157 18.8641 27.2244 19.2039 27.2244 19.6408V23.3301C27.2231 23.4325 27.2423 23.5341 27.2809 23.6289C27.3195 23.7237 27.3766 23.8099 27.449 23.8823C27.5214 23.9546 27.6075 24.0118 27.7024 24.0504C27.7972 24.089 27.8988 24.1082 28.0011 24.1068C28.1035 24.1082 28.2051 24.089 28.2999 24.0504C28.3947 24.0118 28.4809 23.9546 28.5532 23.8823C28.6256 23.8099 28.6828 23.7237 28.7214 23.6289C28.7599 23.5341 28.7791 23.4325 28.7778 23.3301V19.6408H28.7293ZM32.9526 16.7768C32.9539 16.6744 32.9347 16.5728 32.8961 16.478C32.8575 16.3832 32.8004 16.297 32.728 16.2246C32.6556 16.1523 32.5695 16.0951 32.4746 16.0565C32.3798 16.018 32.2782 15.9988 32.1759 16.0001C32.0735 15.9988 31.9719 16.018 31.8771 16.0565C31.7823 16.0951 31.6961 16.1523 31.6238 16.2246C31.5514 16.297 31.4942 16.3832 31.4556 16.478C31.4171 16.5728 31.3979 16.6744 31.3992 16.7768V24.835C31.3979 24.9374 31.4171 25.0389 31.4556 25.1338C31.4942 25.2286 31.5514 25.3147 31.6238 25.3871C31.6961 25.4595 31.7823 25.5167 31.8771 25.5552C31.9719 25.5938 32.0735 25.613 32.1759 25.6117C32.2782 25.613 32.3798 25.5938 32.4746 25.5552C32.5695 25.5167 32.6556 25.4595 32.728 25.3871C32.8004 25.3147 32.8575 25.2286 32.8961 25.1338C32.9347 25.0389 32.9539 24.9374 32.9526 24.835V16.7768ZM37.1273 19.6408C37.1286 19.5385 37.1094 19.4369 37.0709 19.3421C37.0323 19.2472 36.9751 19.1611 36.9027 19.0887C36.8304 19.0163 36.7442 18.9592 36.6494 18.9206C36.5546 18.882 36.453 18.8628 36.3506 18.8641C36.2483 18.8628 36.1467 18.882 36.0519 18.9206C35.957 18.9592 35.8709 19.0163 35.7985 19.0887C35.7261 19.1611 35.669 19.2472 35.6304 19.3421C35.5918 19.4369 35.5726 19.5385 35.5739 19.6408V23.3301C35.5726 23.4325 35.5918 23.5341 35.6304 23.6289C35.669 23.7237 35.7261 23.8099 35.7985 23.8823C35.8709 23.9546 35.957 24.0118 36.0519 24.0504C36.1467 24.089 36.2483 24.1082 36.3506 24.1068C36.453 24.1082 36.5546 24.089 36.6494 24.0504C36.7442 24.0118 36.8304 23.9546 36.9027 23.8823C36.9751 23.8099 37.0323 23.7237 37.0709 23.6289C37.1094 23.5341 37.1286 23.4325 37.1273 23.3301V19.6408Z" fill="#0096D6"/>
<path d="M41.3008 21.7281C41.3021 21.6257 41.2829 21.5241 41.2443 21.4293C41.2057 21.3345 41.1486 21.2483 41.0762 21.1759C41.0038 21.1036 40.9177 21.0464 40.8228 21.0078C40.728 20.9693 40.6264 20.9501 40.5241 20.9514C40.4217 20.9501 40.3201 20.9693 40.2253 21.0078C40.1305 21.0464 40.0443 21.1036 39.972 21.1759C39.8996 21.2483 39.8424 21.3345 39.8038 21.4293C39.7653 21.5241 39.7461 21.6257 39.7474 21.7281V23.33C39.7461 23.4324 39.7653 23.5339 39.8038 23.6288C39.8424 23.7236 39.8996 23.8097 39.972 23.8821C40.0443 23.9545 40.1305 24.0117 40.2253 24.0502C40.3201 24.0888 40.4217 24.108 40.5241 24.1067C40.6264 24.108 40.728 24.0888 40.8228 24.0502C40.9177 24.0117 41.0038 23.9545 41.0762 23.8821C41.1486 23.8097 41.2057 23.7236 41.2443 23.6288C41.2829 23.5339 41.3021 23.4324 41.3008 23.33V21.7281Z" fill="#0096D6"/>
<path d="M45.4758 19.6409C45.4758 19.4349 45.3939 19.2373 45.2483 19.0917C45.1026 18.946 44.9051 18.8642 44.6991 18.8642C44.4931 18.8642 44.2955 18.946 44.1499 19.0917C44.0042 19.2373 43.9224 19.4349 43.9224 19.6409V23.3302C43.9224 23.5362 44.0042 23.7338 44.1499 23.8794C44.2955 24.0251 44.4931 24.1069 44.6991 24.1069C44.9051 24.1069 45.1026 24.0251 45.2483 23.8794C45.3939 23.7338 45.4758 23.5362 45.4758 23.3302V19.6409ZM49.6505 16.7768C49.6505 16.5708 49.5687 16.3733 49.423 16.2276C49.2774 16.082 49.0798 16.0001 48.8738 16.0001C48.6678 16.0001 48.4703 16.082 48.3246 16.2276C48.1789 16.3733 48.0971 16.5708 48.0971 16.7768V24.8351C48.0971 25.0411 48.1789 25.2386 48.3246 25.3843C48.4703 25.5299 48.6678 25.6118 48.8738 25.6118C49.0798 25.6118 49.2774 25.5299 49.423 25.3843C49.5687 25.2386 49.6505 25.0411 49.6505 24.8351V16.7768ZM53.8253 19.6409C53.8253 19.5389 53.8052 19.4379 53.7661 19.3437C53.7271 19.2494 53.6699 19.1638 53.5978 19.0917C53.5257 19.0196 53.44 18.9624 53.3458 18.9233C53.2516 18.8843 53.1506 18.8642 53.0486 18.8642C52.9466 18.8642 52.8456 18.8843 52.7513 18.9233C52.6571 18.9624 52.5715 19.0196 52.4994 19.0917C52.4272 19.1638 52.37 19.2494 52.331 19.3437C52.292 19.4379 52.2719 19.5389 52.2719 19.6409V23.3302C52.2719 23.4322 52.292 23.5332 52.331 23.6274C52.37 23.7217 52.4272 23.8073 52.4994 23.8794C52.5715 23.9515 52.6571 24.0088 52.7513 24.0478C52.8456 24.0868 52.9466 24.1069 53.0486 24.1069C53.1506 24.1069 53.2516 24.0868 53.3458 24.0478C53.44 24.0088 53.5257 23.9515 53.5978 23.8794C53.6699 23.8073 53.7271 23.7217 53.7661 23.6274C53.8052 23.5332 53.8253 23.4322 53.8253 23.3302V19.6409ZM58 21.7283C58 21.5223 57.9182 21.3247 57.7725 21.1791C57.6269 21.0334 57.4293 20.9516 57.2233 20.9516C57.0173 20.9516 56.8198 21.0334 56.6741 21.1791C56.5285 21.3247 56.4466 21.5223 56.4466 21.7283V23.3302C56.4466 23.5362 56.5285 23.7338 56.6741 23.8794C56.8198 24.0251 57.0173 24.1069 57.2233 24.1069C57.4293 24.1069 57.6269 24.0251 57.7725 23.8794C57.9182 23.7338 58 23.5362 58 23.3302V21.7283Z" fill="#0096D6"/>
</svg>
