<svg width="80" height="50" viewBox="0 0 80 50" fill="none" xmlns="http://www.w3.org/2000/svg">
<rect width="80" height="50" fill="black"/>
<path fill-rule="evenodd" clip-rule="evenodd" d="M32.0642 27.171V23.152H34.6669V23.8962H33.0381V24.7608H34.2569V25.505H33.0381V27.171H32.0642ZM38.7325 25.1501C38.7325 24.7989 38.6367 24.5183 38.4449 24.3084C38.2532 24.0985 37.9969 23.9936 37.6761 23.9936C37.3553 23.9936 37.099 24.0985 36.9073 24.3084C36.7155 24.5183 36.6196 24.7989 36.6196 25.15C36.6196 25.5012 36.7155 25.7817 36.9073 25.9916C37.099 26.2015 37.3553 26.3065 37.6761 26.3065C37.9969 26.3065 38.2532 26.2015 38.4449 25.9916C38.6367 25.7817 38.7325 25.5012 38.7325 25.15V25.1501ZM35.6287 25.1501C35.6287 24.5546 35.827 24.0632 36.2238 23.6758C36.6206 23.2884 37.1066 23.0947 37.6817 23.0947C38.257 23.0947 38.7411 23.2883 39.1341 23.6758C39.527 24.0632 39.7235 24.5546 39.7235 25.15C39.7235 25.7455 39.5261 26.2378 39.1312 26.6271C38.7363 27.0164 38.2523 27.2111 37.6789 27.2111C37.1056 27.2111 36.6206 27.0164 36.2238 26.6271C35.827 26.2378 35.6286 25.7455 35.6286 25.15L35.6287 25.1501ZM41.847 25.608V27.171H40.8732V23.152H42.4509C42.914 23.152 43.2747 23.2722 43.5329 23.5127C43.791 23.7531 43.9201 24.0432 43.9201 24.3828C43.9201 24.6157 43.8499 24.8428 43.7095 25.0642C43.569 25.2855 43.3393 25.442 43.0203 25.5336L43.9999 27.171H42.8608L41.961 25.608H41.847ZM41.847 23.8962V24.8638H42.4508C42.5989 24.8638 42.7156 24.8199 42.801 24.7322C42.8864 24.6444 42.9292 24.5289 42.9292 24.3857C42.9292 24.2426 42.8855 24.1252 42.7982 24.0336C42.7109 23.9421 42.595 23.8962 42.4508 23.8962L41.847 23.8962ZM49.7285 23.152V27.171H48.7546V24.9039L47.8263 27.171H47.103L46.1747 24.9039V27.171H45.2008V23.152H46.3171L47.4675 25.9229L48.6122 23.152H49.7285ZM52.1625 23.9649C52.0847 24.0299 52.0457 24.1233 52.0457 24.2454C52.0457 24.3676 52.0818 24.4659 52.154 24.5403C52.2261 24.6147 52.3201 24.6719 52.4359 24.712C52.5516 24.7521 52.6808 24.7903 52.8231 24.8266C52.9655 24.8628 53.1069 24.9067 53.2474 24.9582C53.3825 25.0071 53.5115 25.0715 53.6318 25.1501C53.7477 25.2263 53.8416 25.3342 53.9137 25.4735C53.9859 25.6128 54.0219 25.7798 54.0219 25.9745C54.0219 26.3141 53.8844 26.6052 53.6091 26.8475C53.3338 27.0899 52.9711 27.2111 52.5213 27.2111C52.0713 27.2111 51.7087 27.1024 51.4335 26.8847C51.1582 26.6672 51.0206 26.358 51.0206 25.9572H52.0571C52.0837 26.2779 52.2469 26.4382 52.5469 26.4382C52.6874 26.4382 52.7974 26.401 52.8772 26.3265C52.957 26.2521 52.9968 26.1576 52.9968 26.0432C52.9968 25.9286 52.9607 25.8351 52.8886 25.7626C52.8164 25.6901 52.7225 25.6329 52.6067 25.5909C52.4796 25.5454 52.3504 25.5063 52.2194 25.4735C52.0755 25.4368 51.9339 25.3918 51.7951 25.3389C51.6607 25.2885 51.5319 25.2243 51.4107 25.1472C51.2949 25.0727 51.201 24.9659 51.1288 24.8266C51.0567 24.6873 51.0206 24.5222 51.0206 24.3314C51.0206 23.9573 51.1591 23.6577 51.4363 23.4325C51.7135 23.2073 52.0675 23.0947 52.4985 23.0947C52.9295 23.0947 53.2778 23.193 53.5435 23.3895C53.8093 23.5861 53.9479 23.8962 53.9593 24.3199H52.9C52.8848 24.1749 52.8383 24.0632 52.7605 23.9849C52.6826 23.9067 52.583 23.8676 52.4614 23.8676C52.34 23.8676 52.2403 23.9 52.1625 23.9649L52.1625 23.9649ZM58.361 24.3828C58.361 24.6539 58.2642 24.9153 58.0706 25.1672C57.968 25.297 57.8151 25.4029 57.612 25.485C57.4089 25.567 57.1688 25.6081 56.8916 25.6081H56.2879V27.171H55.314V23.152H56.8917C57.3548 23.152 57.7155 23.2722 57.9737 23.5127C58.2318 23.7531 58.361 24.0432 58.361 24.3828V24.3828ZM56.2879 24.8638H56.8917C57.0397 24.8638 57.1564 24.8199 57.2418 24.7322C57.3272 24.6444 57.37 24.5289 57.37 24.3857C57.37 24.2426 57.3263 24.1252 57.239 24.0336C57.1517 23.9421 57.0359 23.8962 56.8916 23.8962H56.2879V24.8638L56.2879 24.8638ZM60.4447 25.608V27.171H59.4707V23.152H61.0484C61.5116 23.152 61.8723 23.2722 62.1304 23.5127C62.3886 23.7531 62.5177 24.0432 62.5177 24.3828C62.5177 24.6157 62.4475 24.8428 62.307 25.0642C62.1665 25.2855 61.9368 25.442 61.6179 25.5336L62.5974 27.171H61.4584L60.5586 25.608H60.4447ZM60.4447 23.8962V24.8638H61.0484C61.1965 24.8638 61.3132 24.8199 61.3986 24.7322C61.4841 24.6444 61.5268 24.5289 61.5268 24.3857C61.5268 24.2426 61.4831 24.1252 61.3958 24.0336C61.3085 23.9421 61.1926 23.8962 61.0484 23.8962H60.4447ZM66.2189 23.1405V23.8847H64.7723V24.7493H66.048V25.4935H64.7723V26.4267H66.2189V27.171H63.7984V23.1405H66.2189ZM69.9998 23.1405V23.8847H68.5532V24.7493H69.8289V25.4935H68.5532V26.4267H69.9998V27.171H67.5793V23.1405H69.9998Z" fill="white"/>
<path d="M20.105 34.3059C25.1335 34.3059 29.2099 30.208 29.2099 25.1529C29.2099 20.0979 25.1335 16 20.105 16C15.0764 16 11 20.0979 11 25.1529C11 30.208 15.0764 34.3059 20.105 34.3059Z" fill="#C4001A"/>
<path fill-rule="evenodd" clip-rule="evenodd" d="M15.9666 20.6144H24.2438V23.1106H15.9666V20.6144ZM15.9666 23.9427H24.2438V26.4389H15.9666V23.9427ZM15.9666 27.2711H20.1052V29.7673H15.9666V27.2711Z" fill="#E3E3DA"/>
</svg>
