<svg width="80" height="50" viewBox="0 0 80 50" fill="none" xmlns="http://www.w3.org/2000/svg">
<rect width="80" height="50" fill="black"/>
<path d="M40.8751 26.3769H40.377V26.5092H42.0981V26.3769H41.6V24.7531H42.2344C43.4757 24.7531 43.8979 24.1549 43.8979 23.4296C43.8979 22.2306 42.7522 22.0811 42.241 22.0811H40.377V22.2134H40.8751V26.3769ZM41.6 24.6234V22.2055H42.0469C43.0563 22.2055 43.0825 22.9029 43.0825 23.194V23.689C43.0825 24.1085 42.8885 24.6234 42.0469 24.6234H41.6Z" fill="#F7F7F7"/>
<path d="M47.2827 22.8961C47.3309 22.7655 47.3613 22.6288 47.3731 22.4899C47.3763 22.4509 47.3709 22.4117 47.3572 22.3751C47.3436 22.3385 47.3221 22.3054 47.2942 22.2782C47.2664 22.251 47.233 22.2303 47.1963 22.2177C47.1596 22.2051 47.1206 22.2009 47.0821 22.2053H46.993V22.073H48.0928V22.2053C47.9622 22.2081 47.8358 22.253 47.7323 22.3335C47.6287 22.414 47.5534 22.5259 47.5173 22.6527L46.6102 25.1314C46.1383 26.4178 45.7044 26.5872 45.4305 26.5872C44.9455 26.5872 44.543 26.2351 44.543 25.8011C44.543 25.5179 44.6912 25.2717 44.969 25.2717C45.0226 25.2668 45.0766 25.273 45.1277 25.29C45.1788 25.307 45.2259 25.3344 45.266 25.3705C45.3062 25.4066 45.3386 25.4506 45.3613 25.4999C45.3839 25.5491 45.3963 25.6025 45.3977 25.6568C45.3949 25.7639 45.3507 25.8656 45.2745 25.94C45.205 26.0287 45.0359 26.1173 45.0359 26.2047C45.0359 26.3278 45.1919 26.4694 45.4829 26.4694C45.7739 26.4694 45.943 26.1571 46.0846 25.8937L44.4211 22.2053H43.9741V22.073H45.7556V22.2053H45.2116L46.487 25.0229L47.2827 22.8961Z" fill="#F7F7F7"/>
<path d="M51.1822 22.0029V23.4455H51.0511C50.9672 22.6514 50.7024 22.1313 49.9448 22.1313C49.5161 22.1313 48.8187 22.4093 48.8187 23.8517V24.9502C48.8187 26.1413 49.4742 26.4536 49.929 26.4536C50.4167 26.4536 50.9475 26.1135 51.1415 25.0323H51.2975L51.2438 26.5079H51.0773C51.0773 26.447 51.0445 26.2432 50.8715 26.2432C50.7466 26.2629 50.6285 26.3139 50.5281 26.3914C50.2962 26.5123 50.0405 26.5792 49.7796 26.5873C48.6706 26.5873 48.0034 25.5034 48.0034 24.1496C48.0034 22.9029 48.8777 22.0043 49.9054 22.0029C50.4101 22.0029 50.5097 22.2213 50.7666 22.2134C50.8401 22.2134 50.9607 22.2134 51.0288 22.0029H51.1822Z" fill="#F7F7F7"/>
<path d="M54.5627 26.3769H53.9872V26.5093H55.7686V26.3769H55.3269L53.8509 22.0771H53.7342L52.3041 25.9151C52.2333 26.1043 52.059 26.3558 51.7732 26.3756V26.5079H52.8743V26.3756C52.5178 26.3558 52.4601 26.2433 52.4601 26.058C52.4705 25.9021 52.5119 25.75 52.582 25.6107L52.8153 25.0085H54.0816L54.5627 26.3769ZM54.0383 24.8735H52.8494L53.4825 23.1941L54.0383 24.8735Z" fill="#F7F7F7"/>
<path d="M58.0508 22.2052C57.2892 22.2052 57.3849 22.4699 57.3377 24.3227L57.3128 25.4119C57.2931 26.239 57.1909 26.5845 56.6666 26.5845C56.2051 26.5845 55.9023 26.3396 55.9023 25.9399C55.9023 25.6501 56.0636 25.4397 56.348 25.4397C56.4475 25.4331 56.5456 25.4666 56.6208 25.5328C56.6959 25.599 56.7421 25.6926 56.7491 25.793C56.7465 25.9084 56.711 26.0205 56.6469 26.1159C56.6097 26.1679 56.5874 26.2293 56.5826 26.2933C56.5826 26.3476 56.6285 26.4256 56.7557 26.4256C57.1634 26.4256 57.1634 25.8711 57.1778 25.4159L57.204 24.3267C57.2355 22.9728 57.2223 23.3169 57.2223 22.8974C57.2223 22.6327 57.1974 22.2066 56.66 22.2066H56.5053V22.0742H60V22.2066H59.5019V26.3767H60V26.509H58.2763V26.3767H58.7744V22.2052H58.0508Z" fill="#F7F7F7"/>
<path fill-rule="evenodd" clip-rule="evenodd" d="M36.6306 16H20V26.5093H24.1658C23.4745 25.6078 23.1049 24.497 23.1172 23.3569C23.1189 22.527 23.3158 21.7093 23.6917 20.9712C24.0675 20.2331 24.6116 19.5956 25.2791 19.1112C25.9467 18.6269 26.7185 18.3094 27.5313 18.1851C28.3441 18.0607 29.1745 18.1329 29.9542 18.3959C30.7339 18.6588 31.4406 19.1048 32.0163 19.6974C32.5919 20.2899 33.0199 21.0119 33.2652 21.8041C33.5104 22.5962 33.5658 23.4358 33.4269 24.2539C33.288 25.0719 32.9587 25.8449 32.4661 26.5093H36.6306V16Z" fill="#F7F7F7"/>
<path fill-rule="evenodd" clip-rule="evenodd" d="M38.6835 34.9248H26.2188V22.3338C26.2335 22.3184 26.2528 22.3082 26.2738 22.3047L26.304 22.3338C27.1714 25.2975 28.758 27.9956 30.9198 30.1834C33.0815 32.3713 35.7501 33.9797 38.6835 34.8626C38.7123 34.8626 38.7123 34.8626 38.7123 34.8891C38.7123 34.8968 38.7093 34.9042 38.7039 34.9097C38.6984 34.9151 38.6911 34.9182 38.6835 34.9182V34.9248Z" fill="#F7F7F7"/>
</svg>
