<svg width="80" height="50" viewBox="0 0 80 50" fill="none" xmlns="http://www.w3.org/2000/svg">
<rect width="80" height="50" fill="black"/>
<path d="M22.9092 14C20.0159 14 17.2411 15.1494 15.1952 17.1952C13.1494 19.2411 12 22.0159 12 24.9092C12 27.8025 13.1494 30.5773 15.1952 32.6232C17.2411 34.6691 20.0159 35.8184 22.9092 35.8184C25.8025 35.8184 28.5773 34.6691 30.6232 32.6232C32.6691 30.5773 33.8184 27.8025 33.8184 24.9092C33.8184 22.0159 32.6691 19.2411 30.6232 17.1952C28.5773 15.1494 25.8025 14 22.9092 14V14ZM29.8714 24.433L29.8519 27.071C29.8519 27.349 29.6337 27.5671 29.3558 27.5671C29.0779 27.5671 28.8597 27.3289 28.8597 27.0515L28.8793 24.4134C28.8793 22.9062 27.6495 21.696 26.1619 21.696C24.7934 21.696 23.5837 22.8861 23.4842 24.3536V24.4526L23.4444 25.4638V25.5231C23.3852 27.4872 21.7583 29.0934 19.7354 29.0934C17.6919 29.0934 16.0455 27.4522 16.0455 25.4246C16.0455 25.4246 16.065 25.4246 16.065 25.405H16.0455V22.8861C16.0455 22.6082 16.2636 22.4297 16.5415 22.4297C16.8195 22.4297 17.0376 22.6283 17.0376 22.8861L17.018 25.405C17.018 26.9122 18.2478 28.1225 19.7354 28.1225C21.2426 28.1225 22.4529 26.8926 22.4529 25.405V25.3256L22.4926 24.4134V24.2742C22.6313 22.2709 24.238 20.7039 26.1423 20.7039C28.1858 20.7039 29.8513 22.3699 29.8513 24.4129C29.8709 24.4129 29.8709 24.4325 29.8709 24.4325L29.8714 24.433Z" fill="#37D97A"/>
<path d="M38.6853 27.126C38.6853 27.6025 38.6853 28.1849 39.0177 28.6221C39.2115 28.8445 39.572 29.1484 40.237 29.1484C40.9019 29.1484 41.2624 28.8434 41.4562 28.6221C41.7887 28.179 41.7887 27.6247 41.7887 27.126V23.0803H42.9798V27.2642C42.9798 28.1234 42.8967 28.7603 42.3424 29.3421C41.7336 30.0071 40.9014 30.2014 40.2089 30.2014C39.5164 30.2014 38.7128 29.979 38.0754 29.3421C37.5211 28.7333 37.438 28.0954 37.438 27.2642V23.0803H38.6292V27.126H38.6853ZM54.1746 19.6169C54.4022 19.6179 54.6202 19.7088 54.7811 19.8697C54.9421 20.0306 55.0329 20.2486 55.0339 20.4762C55.0329 20.7038 54.9421 20.9217 54.7811 21.0827C54.6202 21.2436 54.4022 21.3344 54.1746 21.3354C53.9471 21.3344 53.7291 21.2436 53.5682 21.0827C53.4072 20.9217 53.3164 20.7038 53.3154 20.4762C53.3164 20.2486 53.4072 20.0306 53.5682 19.8697C53.7291 19.7088 53.9471 19.6179 54.1746 19.6169V19.6169ZM54.7835 23.0803V30.0076H53.5642V23.0803H54.7835ZM58.4973 24.1894V30.0129H57.3061V24.1894H56.558V23.0809H57.3061V20.5926H58.4973V23.0809H59.6884V24.1894H58.4973ZM60.6308 26.5718C60.6308 24.4658 62.1819 22.9189 64.3154 22.9189C66.4489 22.9189 68.0001 24.47 68.0001 26.5718C68.0001 28.6735 66.4209 30.2014 64.3154 30.2014C62.1819 30.2289 60.6308 28.6767 60.6308 26.5718ZM61.85 26.5718C61.85 28.2897 63.0411 29.1489 64.2884 29.1489C65.5357 29.1489 66.7269 28.2622 66.7269 26.5718C66.7269 24.8538 65.5632 23.9946 64.2884 23.9946C63.0136 23.9946 61.85 24.8814 61.85 26.5718ZM46.7487 30.1188H45.5294V25.9349C45.5294 25.0757 45.6126 24.4388 46.1668 23.857C46.7757 23.192 47.6079 22.9977 48.3004 22.9977C48.9928 22.9977 49.7965 23.2201 50.4339 23.857C50.9882 24.4658 51.0713 25.1037 51.0713 25.9349V30.1188H49.8801V26.0731C49.8801 25.5966 49.8801 25.0142 49.5476 24.577C49.3539 24.3546 48.9933 24.0507 48.3284 24.0507C47.6635 24.0507 47.303 24.3557 47.1092 24.577C46.7767 25.0201 46.7767 25.5744 46.7767 26.0731V30.1188H46.7487Z" fill="white"/>
</svg>
