<svg width="80" height="50" viewBox="0 0 80 50" fill="none" xmlns="http://www.w3.org/2000/svg">
<rect width="80" height="50" fill="black"/>
<path d="M54.7182 24.5042C54.7355 24.4959 54.7426 24.4887 54.7487 24.4897C55.9833 24.5 57.228 24.3446 58.4474 24.5999C59.687 24.8593 60.5708 25.7117 60.8443 27.0602C61.0253 27.9568 60.9826 28.8308 60.6389 29.6821C60.2901 30.5406 59.6687 31.1078 58.8196 31.3714C58.364 31.5134 57.8738 31.5824 57.3969 31.603C56.5599 31.639 55.7179 31.6143 54.8779 31.6143C54.8291 31.6143 54.7802 31.6081 54.7162 31.6019V24.5042H54.7182ZM56.1938 28.035C56.1938 28.7083 56.1948 29.3805 56.1938 30.0547C56.1938 30.1721 56.1887 30.2719 56.3535 30.2668C56.808 30.2534 57.2667 30.2812 57.7182 30.2369C58.3874 30.1721 58.9314 29.8653 59.2121 29.2003C59.4643 28.6053 59.4806 27.9805 59.3555 27.3505C59.1816 26.4703 58.5938 25.9237 57.7243 25.8537C57.286 25.8177 56.8436 25.8342 56.4043 25.8115C56.2284 25.8033 56.1887 25.8702 56.1918 26.038C56.1979 26.705 56.1938 27.37 56.1938 28.035ZM46.368 31.6153C45.7813 31.6153 45.2514 31.6174 44.7216 31.6102C44.6707 31.6102 44.6087 31.5556 44.5731 31.5093C44.0097 30.764 43.4555 30.0146 42.887 29.2744C42.824 29.1931 42.6948 29.1324 42.5911 29.1231C42.3582 29.1005 41.6921 29.1118 41.6921 29.1118C41.6921 29.1118 41.684 29.1694 41.686 29.3269C41.6921 29.993 41.688 30.658 41.688 31.324V31.5999H40.2124V24.4918C40.2704 24.4856 40.3192 24.4753 40.368 24.4753C41.385 24.4774 42.4019 24.4702 43.4199 24.4877C43.9294 24.4949 44.4135 24.6359 44.8589 24.9056C45.4619 25.2711 45.7518 25.8362 45.7996 26.53C45.8219 26.8378 45.7955 27.1621 45.7304 27.4637C45.586 28.1256 45.1569 28.5549 44.5619 28.8205C44.4857 28.8544 44.4094 28.8905 44.3107 28.9358C44.9931 29.8252 45.6643 30.6981 46.3691 31.6164L46.368 31.6153ZM41.686 27.8333C42.165 27.8333 42.6196 27.8343 43.0721 27.8322C43.1911 27.8322 43.3141 27.8333 43.4321 27.8086C44.023 27.6892 44.3219 27.3268 44.2975 26.7719C44.2731 26.2408 43.9406 25.8897 43.3487 25.8444C42.8453 25.8064 42.3399 25.8249 41.8335 25.8146C41.7216 25.8105 41.684 25.8589 41.685 25.969C41.6891 26.2469 41.685 26.5259 41.685 26.8039V27.8322L41.686 27.8333ZM54.0287 31.6133C53.5324 31.6133 53.0636 31.6184 52.5958 31.6081C52.544 31.6071 52.4708 31.5217 52.4463 31.4599C52.3121 31.1294 52.187 30.7959 52.0691 30.4603C52.0243 30.3337 51.9623 30.2802 51.823 30.2802C50.8833 30.2864 49.9446 30.2864 49.005 30.2812C48.8606 30.2802 48.7924 30.3275 48.7436 30.4706C48.6246 30.8134 48.4843 31.15 48.345 31.4856C48.3216 31.5381 48.2565 31.6071 48.2077 31.6092C47.7389 31.6194 47.2711 31.6143 46.7697 31.6143C46.9304 31.2015 47.0758 30.8175 47.2294 30.4346C47.9952 28.5086 48.765 26.5846 49.5267 24.6575C49.5806 24.5206 49.6467 24.4692 49.7891 24.4743C50.2091 24.4825 50.6301 24.4794 51.0491 24.4764C51.1569 24.4764 51.228 24.4939 51.2769 24.6174C52.1789 26.9037 53.085 29.189 53.9911 31.4743C54.0013 31.5072 54.0084 31.5422 54.0297 31.6153L54.0287 31.6133ZM50.4023 26.0287C50.0321 27.019 49.666 28 49.2928 29.0027H51.5209C51.1436 28.0021 50.7755 27.018 50.4013 26.0287H50.4023ZM27.2921 31.6184H25.8124V24.498C26.268 24.498 26.7145 24.4939 27.1579 24.5031C27.2046 24.5042 27.2585 24.5731 27.2941 24.6225C28.2175 25.9474 29.1379 27.2753 30.0582 28.6022C30.1691 28.7608 30.2819 28.9172 30.4202 29.1118V24.5062H31.8867V31.6287C31.4382 31.6287 30.9928 31.6339 30.5484 31.6225C30.4975 31.6215 30.4375 31.5412 30.3989 31.4856C29.4104 30.064 28.424 28.6414 27.4375 27.2187C27.404 27.1693 27.3623 27.124 27.2941 27.0417L27.2921 31.6184ZM22.3467 24.5052H23.8111V31.6122H22.3467V24.5052ZM38.687 31.1809C38.687 31.2406 38.6107 31.3343 38.5487 31.359C37.7413 31.7986 36.3541 31.9293 35.2182 31.6153C33.8921 31.2489 33.0175 30.3975 32.7531 28.9965C32.5202 27.7705 32.6738 26.598 33.5148 25.6139C34.0213 25.023 34.6802 24.6966 35.4185 24.5278C36.4192 24.3014 37.3884 24.4269 38.3402 24.7934C38.4897 24.8511 38.5385 24.9334 38.5324 25.0961C38.5202 25.4842 38.5274 25.8733 38.5274 26.2943C38.447 26.2572 38.3992 26.2377 38.3514 26.214C37.486 25.7672 36.588 25.6283 35.6514 25.9289C34.6701 26.2439 34.1026 27.1302 34.1667 28.1894C34.2023 28.7433 34.3101 29.2662 34.6731 29.6965C35.086 30.1865 35.6392 30.3842 36.2443 30.4356C36.5301 30.4593 36.7284 30.4583 36.9023 30.4253C37.1382 30.379 37.2755 30.378 37.2816 29.994C37.2745 29.6656 37.2735 29.3084 37.2735 28.9502H36.0796V27.5708H37.2755V27.5667C37.6223 27.5667 37.9558 27.5656 38.2843 27.5708H38.4694V27.5718C38.507 27.5739 38.5446 27.5728 38.5823 27.5739C38.6748 27.5739 38.686 27.6644 38.686 27.7149C38.6921 28.7947 38.6921 30.098 38.685 31.1799L38.687 31.1809Z" fill="white"/>
<path d="M20.4664 33.5156V21.9851L30.4214 16.5776V22.5997H31.8868V14.0957L19 21.0957V34.9989H31.8868V33.5145L20.4664 33.5156Z" fill="#FFC141"/>
</svg>
