<svg width="80" height="50" viewBox="0 0 80 50" fill="none" xmlns="http://www.w3.org/2000/svg">
<rect width="80" height="50" fill="black"/>
<path d="M19.4471 27.9389H16.1164C16.0743 27.942 16.0347 27.9601 16.0048 27.99C15.975 28.0199 15.9568 28.0595 15.9538 28.1016V28.9683C15.9568 29.0104 15.975 29.05 16.0048 29.0798C16.0347 29.1097 16.0743 29.1278 16.1164 29.1309H18.2828V30.268C18.0663 30.4307 17.7682 30.5667 17.4162 30.7283C17.0113 30.8896 16.5794 30.9724 16.1436 30.972C15.6562 30.972 15.1687 30.8637 14.7356 30.6733C14.3025 30.4829 13.9772 30.1587 13.7607 29.7528C13.5441 29.3469 13.4087 28.8051 13.4087 28.1821C13.408 27.697 13.5096 27.2173 13.7068 26.7741C13.8151 26.5304 13.9777 26.2866 14.1671 26.0968C14.3564 25.8802 14.6273 25.7181 14.9521 25.6093C15.2775 25.4738 15.6828 25.4199 16.1436 25.4199C16.5223 25.4199 16.8743 25.4743 17.173 25.6093C17.4716 25.7176 17.7143 25.8802 17.8503 26.0696C18.013 26.2589 18.149 26.557 18.2567 26.909C18.2834 26.9634 18.3378 27.0173 18.3922 27.0173H18.4188L19.3602 26.7752C19.3869 26.7752 19.4413 26.7485 19.4413 26.6941C19.4679 26.6674 19.4679 26.613 19.4679 26.5858C19.3325 26.0712 19.1159 25.6381 18.845 25.3133C18.574 24.9885 18.1943 24.7175 17.7079 24.5549C17.2204 24.3655 16.7052 24.2839 16.11 24.2839C15.2977 24.2839 14.5937 24.4466 13.9713 24.7442C13.3484 25.0695 12.8609 25.5565 12.5089 26.1789C12.17 26.8019 11.995 27.5007 12.0001 28.2098C12.0001 28.9683 12.1628 29.6445 12.5148 30.2408C12.8401 30.8637 13.3543 31.3235 14.0044 31.6488C14.6545 31.9742 15.3857 32.1363 16.1708 32.1363C16.7666 32.1363 17.3351 32.028 17.9042 31.8376C18.4732 31.6472 19.0146 31.3501 19.5287 30.9437C19.5831 30.9171 19.5831 30.8627 19.5831 30.8083V28.1005C19.5762 28.06 19.5575 28.0221 19.5287 27.9922C19.5287 27.9656 19.4743 27.9378 19.4477 27.9378L19.4471 27.9389ZM23.645 26.5565C23.3271 26.3619 22.9617 26.2587 22.589 26.2584C22.3453 26.2584 22.1016 26.3394 21.885 26.4749C21.7496 26.556 21.6413 26.6914 21.5063 26.8536V26.5549C21.5063 26.4738 21.4519 26.3922 21.3437 26.3922H20.477C20.3959 26.3922 20.3143 26.4466 20.3143 26.5549V31.8894C20.3143 31.9704 20.3687 32.052 20.477 32.052H21.4519C21.533 32.052 21.6146 31.9976 21.6146 31.8894V29.0467C21.6146 28.6947 21.669 28.3426 21.7773 28.044C21.8317 27.8546 21.94 27.7186 22.076 27.6376C22.2114 27.5293 22.3746 27.4749 22.5634 27.4749C22.78 27.4749 22.9965 27.5293 23.1864 27.6642C23.213 27.6642 23.2408 27.6909 23.2674 27.6909H23.3218C23.3762 27.6642 23.4029 27.6365 23.4029 27.6098L23.7282 26.7704C23.7282 26.6621 23.7016 26.581 23.6472 26.5538L23.645 26.5565ZM25.1907 26.3645H24.2136C24.1325 26.3645 24.0509 26.4189 24.0509 26.5272V31.8616C24.0509 31.9427 24.1053 32.0243 24.2136 32.0243H25.1885C25.2696 32.0243 25.3512 31.9699 25.3512 31.8616V26.5032C25.3512 26.4221 25.2701 26.3677 25.1885 26.3677L25.1907 26.3645ZM25.1885 24.3367H24.2136C24.1715 24.3398 24.1319 24.358 24.102 24.3878C24.0721 24.4177 24.054 24.4573 24.0509 24.4994V25.5288C24.0509 25.6098 24.1053 25.6914 24.2136 25.6914H25.1885C25.2696 25.6914 25.3512 25.637 25.3512 25.5288V24.4994C25.3481 24.4573 25.33 24.4177 25.3001 24.3878C25.2702 24.358 25.2306 24.3398 25.1885 24.3367V24.3367ZM28.492 31.0797C28.1134 31.0797 27.788 30.9171 27.5171 30.6195C27.2461 30.3219 27.084 29.8344 27.084 29.1848C27.084 28.5074 27.2195 28.0205 27.4904 27.7224C27.7613 27.4242 28.059 27.2893 28.4654 27.2893C28.8718 27.2893 29.196 27.452 29.468 27.7496C29.74 28.0472 29.8744 28.5618 29.8744 29.2659C29.8744 29.8888 29.739 30.3485 29.468 30.6472C29.1694 30.9181 28.8723 31.0803 28.4931 31.0803L28.492 31.0797ZM30.875 24.3378H29.9272C29.8851 24.3409 29.8455 24.359 29.8157 24.3889C29.7858 24.4187 29.7677 24.4584 29.7646 24.5005V26.7752C29.6291 26.6669 29.4936 26.5586 29.3315 26.4765C29.0259 26.3349 28.6933 26.261 28.3566 26.26C27.8792 26.2605 27.4109 26.3917 27.0019 26.6386C26.5955 26.8552 26.2979 27.2072 26.0813 27.668C25.8814 28.1483 25.78 28.664 25.7832 29.1843C25.7832 29.7528 25.8915 30.2669 26.1085 30.7005C26.3194 31.1271 26.6484 31.4842 27.0563 31.7294C27.4627 31.9731 27.8958 32.108 28.3832 32.108C28.979 32.108 29.4659 31.9187 29.8179 31.5667V31.8376C29.8179 31.9187 29.8723 32.0003 29.9806 32.0003H30.8745C30.9555 32.0003 31.0371 31.9459 31.0371 31.8376V24.4989C31.034 24.4568 31.0159 24.4171 30.986 24.3873C30.9562 24.3574 30.9166 24.3393 30.8745 24.3362" fill="#EC1C24"/>
<path d="M39.2695 27.9931C39.2428 27.9664 39.2151 27.9387 39.1612 27.9387H35.8295C35.7484 27.9387 35.6668 27.9931 35.6668 28.1014V28.9681C35.6668 29.0491 35.7212 29.1307 35.8295 29.1307H37.9959V30.2678C37.7793 30.4305 37.4812 30.5665 37.1292 30.7281C36.7244 30.8894 36.2925 30.9722 35.8567 30.9718C35.3692 30.9718 34.8817 30.8635 34.4486 30.6731C34.0156 30.4827 33.6902 30.1585 33.4737 29.7526C33.23 29.2923 33.1217 28.7777 33.1217 28.128C33.121 27.643 33.2226 27.1632 33.4198 26.72C33.5281 26.4763 33.6908 26.2326 33.8801 26.0427C34.0694 25.8262 34.3404 25.664 34.6652 25.5552C34.9905 25.4198 35.3959 25.3659 35.8567 25.3659C36.2353 25.3659 36.5873 25.4203 36.886 25.5552C37.1847 25.6635 37.4273 25.8262 37.5633 26.0155C37.726 26.2048 37.862 26.503 37.9697 26.855C37.9964 26.9094 38.0508 26.9632 38.1052 26.9632H38.1319L39.0796 26.7195C39.1063 26.7195 39.1607 26.6928 39.1607 26.6384C39.1874 26.6118 39.1874 26.5574 39.1874 26.5302C39.0519 26.0155 38.8354 25.5824 38.5644 25.2576C38.2935 24.9328 37.9137 24.6619 37.4273 24.4992C36.9399 24.3099 36.4247 24.2283 35.8295 24.2283C35.0172 24.2283 34.3132 24.3909 33.6908 24.6885C33.0678 25.0139 32.5804 25.5008 32.2284 26.1232C31.902 26.7696 31.7349 27.4846 31.7409 28.2086C31.7409 28.967 31.9035 29.6433 32.2555 30.2395C32.5809 30.8625 33.095 31.3222 33.7452 31.6476C34.3953 31.9729 35.1265 32.135 35.9116 32.135C36.5073 32.135 37.0759 32.0268 37.6449 31.8364C38.214 31.646 38.7554 31.3489 39.2695 30.9425C39.2978 30.9126 39.3175 30.8747 39.3239 30.8342V28.0992C39.3239 28.0448 39.2972 28.0182 39.2695 27.991V27.9931ZM41.0562 30.4017C41.0502 30.2753 41.0885 30.1508 41.1644 30.0497C41.2455 29.9414 41.3271 29.8603 41.4898 29.8059C41.6525 29.7515 41.9229 29.6977 42.3021 29.6433C42.8978 29.5622 43.3581 29.4806 43.7101 29.3723V29.4806C43.7101 29.8593 43.6557 30.1313 43.5746 30.3201C43.4391 30.5638 43.2759 30.7531 43.0061 30.8886C42.7362 31.0241 42.4375 31.1051 42.0855 31.1051C41.7335 31.1051 41.4898 31.0241 41.3271 30.8886C41.1378 30.7531 41.0562 30.6177 41.0562 30.4011V30.4017ZM45.037 31.1862C45.0104 30.9697 44.9826 30.4555 44.9826 29.6155V28.4241C44.9826 28.0176 44.956 27.72 44.9282 27.5574C44.8738 27.2864 44.7656 27.0427 44.6029 26.88C44.4402 26.6907 44.1965 26.5547 43.8722 26.447C43.5479 26.3392 43.1415 26.2843 42.6263 26.2843C42.1111 26.2843 41.6786 26.3387 41.2716 26.4736C40.8647 26.6086 40.5676 26.799 40.3511 27.0694C40.1346 27.3131 39.9991 27.6379 39.8908 28.0443C39.8908 28.0987 39.8908 28.1254 39.9175 28.1526C39.9442 28.1798 39.9719 28.207 40.0258 28.207L40.9735 28.3153H41.0002C41.0546 28.3153 41.1356 28.2608 41.1356 28.207C41.2167 27.855 41.3794 27.6384 41.5687 27.503C41.7581 27.3675 42.0562 27.3136 42.4893 27.3136C42.9495 27.3136 43.2743 27.3947 43.4919 27.5846C43.6274 27.6928 43.7085 27.9366 43.7085 28.2352V28.3707C43.3565 28.479 42.8146 28.5601 42.1106 28.6417L41.2439 28.7771C40.973 28.8582 40.7292 28.9665 40.5132 29.1025C40.2874 29.2428 40.101 29.4385 39.9719 29.671C39.8345 29.9102 39.76 30.1803 39.7554 30.4561C39.7554 30.9435 39.9447 31.35 40.3239 31.6748C40.6759 31.9734 41.2178 32.135 41.8674 32.135C42.2738 32.135 42.6258 32.0806 42.9778 31.9457C43.2487 31.8374 43.5463 31.6748 43.8445 31.4854C43.8699 31.6475 43.9251 31.8036 44.0071 31.9457C44.0199 31.9705 44.0393 31.9913 44.0633 32.0056C44.0872 32.0199 44.1147 32.0273 44.1426 32.0268H45.1453C45.1732 32.0273 45.2007 32.0199 45.2246 32.0056C45.2486 31.9913 45.268 31.9705 45.2808 31.9457C45.3074 31.8913 45.3074 31.8374 45.2808 31.783C45.1453 31.5665 45.0642 31.3766 45.037 31.1873V31.1862ZM46.9053 26.367H45.9309C45.8498 26.367 45.7682 26.4214 45.7682 26.5296V31.8641C45.7682 31.9452 45.8226 32.0268 45.9309 32.0268H46.9058C46.9869 32.0268 47.0685 31.9724 47.0685 31.8641V26.503C47.0685 26.4219 47.0141 26.3675 46.9058 26.3675L46.9053 26.367ZM46.9058 24.3365H45.9309C45.8888 24.3396 45.8492 24.3578 45.8193 24.3876C45.7894 24.4175 45.7713 24.4571 45.7682 24.4992V25.5286C45.7682 25.6096 45.8226 25.6912 45.9309 25.6912H46.9058C46.9869 25.6912 47.0685 25.6368 47.0685 25.5286V24.4992C47.0685 24.4181 47.0141 24.3365 46.9058 24.3365ZM52.755 27.6672C52.7034 27.4021 52.5923 27.1521 52.4302 26.936C52.2675 26.7195 52.0238 26.5574 51.7262 26.4214C51.4286 26.2854 51.0755 26.232 50.7235 26.232C50.0461 26.232 49.4776 26.4486 49.0717 26.855V26.503C49.0686 26.4608 49.0505 26.4212 49.0207 26.3914C48.9908 26.3615 48.9512 26.3434 48.9091 26.3403H48.0163C47.9352 26.3403 47.8536 26.3947 47.8536 26.503V31.8374C47.8536 31.9185 47.908 32.0001 48.0163 32.0001H48.9912C49.0723 32.0001 49.1539 31.9457 49.1539 31.8374V28.9403C49.1539 28.3174 49.2893 27.8843 49.5603 27.6678C49.8312 27.4512 50.156 27.3424 50.5352 27.3424C50.7518 27.3424 50.9683 27.3968 51.131 27.4779C51.2785 27.5518 51.394 27.6769 51.4558 27.8299C51.5102 27.9926 51.564 28.263 51.564 28.5883V31.838C51.564 31.919 51.6184 32.0006 51.7267 32.0006H52.7016C52.7827 32.0006 52.8643 31.9462 52.8643 31.838V28.5617L52.756 27.6678" fill="white"/>
<path d="M57.7914 24.9601L57.2501 25.2587C57.0874 25.367 56.8981 25.4481 56.7354 25.5574L56.2479 25.8561C56.0853 25.9372 55.9493 26.0454 55.7877 26.127C55.7333 26.2625 55.7066 26.4257 55.6522 26.5601L55.4895 27.0204L55.3269 27.5078L55.1375 28.0492L56.1125 27.5617L56.6271 27.318L57.1957 27.0742L57.3583 26.5057L57.521 25.9644C57.5754 25.8017 57.6021 25.6124 57.6565 25.4497C57.7109 25.287 57.7376 25.1243 57.792 24.9622L57.7914 24.9601ZM58.1173 22.6331L57.6298 22.9585L57.1695 23.2838L56.3029 23.9345C56.2762 24.0427 56.2485 24.151 56.2485 24.2598L56.1674 24.6118L56.0863 24.9905C56.0597 25.1259 56.0319 25.2614 55.9781 25.3969C56.1135 25.2886 56.2767 25.2075 56.4111 25.0982L56.8714 24.7995L57.3589 24.5009L57.8736 24.1755L57.9546 23.7425C57.9813 23.607 58.009 23.4715 58.009 23.3638L58.0634 23.0118L58.1178 22.6331H58.1173ZM56.8991 28.103L56.3306 28.3196L55.7893 28.5361C55.6266 28.6172 55.4373 28.6716 55.2746 28.7527L54.7871 28.9692L54.5434 29.6465L54.2724 30.3772L53.9738 31.1356L53.6484 31.9479C53.8111 31.8935 53.9738 31.8396 54.1359 31.8124C54.2986 31.758 54.4879 31.7314 54.6506 31.677C54.8282 31.6279 55.0091 31.5917 55.1919 31.5687L55.7877 31.4604L56.113 30.5127L56.3839 29.646L56.6277 28.8337C56.7631 28.6172 56.8442 28.3462 56.8986 28.103H56.8991ZM61.2043 20.6022L60.5536 21.0086L59.9578 21.3872L59.3893 21.7659C59.2 21.8742 59.0373 22.0096 58.848 22.1179C58.848 22.2262 58.8213 22.3344 58.8213 22.4699C58.8213 22.5782 58.7946 22.7137 58.7946 22.8486C58.768 22.9841 58.768 23.1195 58.7402 23.255C58.7125 23.3905 58.7136 23.5259 58.6858 23.6881L59.2816 23.3627L59.9045 23.0107L60.5818 22.6587L61.2859 22.28V21.3862C61.2859 21.2507 61.2859 21.1152 61.2592 21.0075L61.2048 20.6011L61.2043 20.6022ZM60.9883 26.8572L60.0944 27.1009L59.2821 27.3446L58.5237 27.5884L57.8197 27.8321L57.6031 28.6172L57.3594 29.4839L57.0885 30.4044L56.7898 31.4071L57.5205 31.326L58.3328 31.2716L59.2266 31.2449H60.2293L60.473 29.9991L60.6896 28.862L60.8789 27.8326L60.9872 26.8577L60.9883 26.8572ZM66.647 20.6566L65.4283 21.144L64.3179 21.6043L63.3152 22.0374L62.4213 22.4438V23.0667L62.3947 23.7707L62.368 24.5291L62.3136 25.3686L63.3696 25.0699L64.5339 24.7713L65.8608 24.4459L67.3771 24.0939L67.2145 23.0646L67.0518 22.144L66.8625 21.3318C66.7814 21.1424 66.727 20.8987 66.6459 20.6544L66.647 20.6566ZM65.6432 18.0005L64.6683 18.5419L63.7744 19.0565L62.9621 19.544L62.2037 20.0043C62.2304 20.1126 62.2581 20.248 62.2581 20.3563C62.2848 20.4918 62.2848 20.6272 62.3125 20.7627C62.3403 20.8982 62.3392 21.0614 62.3669 21.1958C62.3669 21.3584 62.3936 21.5211 62.3936 21.6832L63.2603 21.2502L64.208 20.7899L65.2374 20.3024L66.3744 19.7878C66.32 19.5984 66.239 19.4357 66.1851 19.2731C66.1312 19.1104 66.0496 18.9477 65.9958 18.8128C65.9419 18.6779 65.8603 18.5141 65.8064 18.4064C65.7617 18.2673 65.7073 18.1315 65.6438 18L65.6432 18.0005ZM67.5665 25.6092L65.9686 25.8529L64.5606 26.0966L63.3147 26.3404L62.232 26.5569L62.1237 27.5596L61.9883 28.67L61.8256 29.8887L61.6091 31.2433L62.8549 31.3244L64.2896 31.4599L65.9963 31.6492L68.0001 31.9202L67.919 29.9975L67.8107 28.3185L67.6753 26.8561L67.567 25.6102" fill="#EC1C24"/>
</svg>
