<svg width="80" height="50" viewBox="0 0 80 50" fill="none" xmlns="http://www.w3.org/2000/svg">
<rect width="80" height="50" fill="black"/>
<path d="M36.9218 24.9999C36.9218 23.9125 36.7134 22.8751 36.3489 21.9122C36.2518 25.0794 32.9894 27.5324 31.0739 29.1557H35.869C36.5395 27.9158 36.9218 26.5024 36.9218 24.9999ZM33.4552 18.0255C31.9377 16.8586 30.0341 16.1578 27.9604 16.1578C23.0117 16.1578 19 20.1165 19 24.9999C19 29.8833 23.0117 33.842 27.9604 33.842C30.2274 33.842 32.2912 33.0059 33.8683 31.6366H27.3807L27.3614 29.7561C31.2702 26.4031 33.6667 24.1354 33.6667 21.945C33.6667 21.1309 33.3524 20.1036 31.9387 20.1036C30.819 20.1036 29.7386 20.7437 29.9344 23.418H27.6564C27.0862 20.3174 28.7954 17.8547 32.0562 17.8547C32.5607 17.8547 33.0291 17.9149 33.4552 18.0255Z" fill="#AFCA0B"/>
<path d="M45.2334 22.2695H47.3531C47.4252 20.6783 46.8821 18.1577 43.3857 18.1577C40.8133 18.1577 38.9463 19.6774 38.9463 22.8413C38.9463 23.2704 38.9646 25.4871 38.9646 26.864C38.9646 30.2959 41.3746 31.0471 43.4035 31.0471C44.6177 31.0471 46.3744 30.7786 47.1902 29.9028V24.4325H43.2045V26.4172H44.9801V28.8299C43.639 29.2767 41.1934 29.456 41.1934 26.4172V22.8413C41.1934 20.7143 42.1898 19.9808 43.2944 19.9808C44.4365 19.9808 45.2334 20.5532 45.2334 22.2695ZM60.9989 27.5792C61.0903 22.6808 55.4017 24.3073 55.456 21.5719C55.4737 20.6069 56.1082 19.9808 57.1407 19.9808C58.2452 19.9808 58.898 20.6246 58.8792 22.3054H60.9629C61.0177 20.7852 60.6558 18.1931 57.2138 18.1931C55.0758 18.1931 53.318 19.2306 53.2819 21.5365C53.1911 26.2378 58.9157 24.701 58.8249 27.5427C58.7888 28.7048 57.9376 29.223 56.9772 29.223C55.8544 29.223 54.9484 28.5796 55.1296 26.6492H53.0276C52.7926 29.2052 53.9342 31.0294 56.9595 31.0294C59.5137 31.0294 60.9629 29.6343 60.9989 27.5792ZM51.4291 30.8678H49.2911V18.3542H51.4291V30.8678ZM51.4291 30.8678H49.2911V18.3542H51.4291V30.8678Z" fill="white"/>
</svg>
