<svg width="80" height="50" viewBox="0 0 80 50" fill="none" xmlns="http://www.w3.org/2000/svg">
<rect width="80" height="50" fill="black"/>
<path fill-rule="evenodd" clip-rule="evenodd" d="M65.7432 32.7916H70.0585L70.3728 31.0571H68.1415L69.1373 25.5645H67.0544L65.7432 32.7916Z" fill="white"/>
<path fill-rule="evenodd" clip-rule="evenodd" d="M59.8982 32.7916H64.3623L64.6773 31.0571H62.2961L62.5059 29.9003H64.6634L64.9522 28.3108H62.7944L62.978 27.299H65.3588L65.6731 25.5645H61.2093L59.8982 32.7916Z" fill="white"/>
<path fill-rule="evenodd" clip-rule="evenodd" d="M51.5979 32.7916H53.6811L54.2059 29.9003H56.7359L56.2108 32.7916H58.2944L59.6056 25.5645H57.5222L57.0501 28.1662H54.5205L54.9926 25.5645H52.9094L51.5979 32.7916Z" fill="white"/>
<path fill-rule="evenodd" clip-rule="evenodd" d="M50.7244 30.4071C50.2725 30.789 49.5937 31.1918 48.8174 31.1918C47.6271 31.1918 47.0707 30.334 47.269 29.2402C47.4846 28.0527 48.4 27.1646 49.5484 27.1646C50.3456 27.1646 50.8515 27.598 51.1554 28.0321L51.5359 25.936C50.984 25.5231 50.2586 25.3579 49.6 25.3579C47.5805 25.3579 45.5714 26.7625 45.1334 29.1781C44.7136 31.4906 46.0341 33.0001 48.2452 33.0001C48.8825 33.0001 49.6013 32.907 50.3518 32.4614L50.7244 30.4071Z" fill="white"/>
<path fill-rule="evenodd" clip-rule="evenodd" d="M38.9624 32.7916H43.4261L43.7411 31.0571H41.3603L41.5701 29.9003H43.7275L44.016 28.3108H41.8586L42.0425 27.299H44.423L44.7376 25.5645H40.2735L38.9624 32.7916Z" fill="white"/>
<path fill-rule="evenodd" clip-rule="evenodd" d="M28.9297 32.7916H30.9276L32.2412 28.5996L32.7349 32.7916H34.0743L36.0885 28.5996L35.8809 32.7916H37.8791L38.1063 25.5645H36.023L33.9157 29.9735L33.4081 25.5645H31.3248L28.9297 32.7916Z" fill="white"/>
<path fill-rule="evenodd" clip-rule="evenodd" d="M15.0315 28.7487C14.5751 30.2829 13.349 32.7247 11.4605 32.8118C9.23435 32.9142 9.33261 30.2776 9.9667 28.4264C12.7584 20.2745 20.787 17.6214 25.9448 17.1812C21.6552 19.1085 16.9343 22.3578 15.0315 28.7487Z" fill="#A8A8A8"/>
<path fill-rule="evenodd" clip-rule="evenodd" d="M21.3016 28.7487C20.8445 30.2829 19.6184 32.7247 17.7298 32.8118C15.5041 32.9142 15.603 30.2776 16.2365 28.4264C19.0284 20.2745 27.0566 17.6214 32.2144 17.1812C27.9256 19.1085 23.2044 22.3578 21.3016 28.7487Z" fill="#4793C4"/>
<path fill-rule="evenodd" clip-rule="evenodd" d="M27.6427 28.735C27.1856 30.2698 25.9598 32.7102 24.0709 32.7987C21.8448 32.9012 21.9434 30.2639 22.5771 28.4126C25.3695 20.2611 33.3973 17.6077 38.5555 17.1677C34.2667 19.0951 29.5451 22.344 27.6427 28.735Z" fill="#323233"/>
</svg>
