<svg width="80" height="50" viewBox="0 0 80 50" fill="none" xmlns="http://www.w3.org/2000/svg">
<rect width="80" height="50" fill="black"/>
<path d="M26.4029 21.048H28.3089V23.459H30.3426V21.048H32.2486V27.6352H30.3426V25.0265H28.3086V27.6352H26.4026V21.048H26.4029ZM39.05 21.048V27.6352H37.2083V22.6094H36.0019V24.5C36.0019 25.3496 35.9376 26.3906 35.4304 26.9768C34.9236 27.629 33.9679 27.8266 32.8895 27.629V25.9956C33.9038 26.1933 34.1603 25.7983 34.1603 24.4941V21.0359H39.05V21.048ZM40.6412 21.048H42.5472L43.6253 24.9608L44.7033 21.048H46.6093L47.501 27.6352H45.7233L45.2805 24.1112L44.2602 27.6349H42.9897L41.9757 24.1112L41.5329 27.6349H39.7552L40.6409 21.0477L40.6412 21.048ZM48.2002 21.048H50.1062V23.7224L51.9479 21.048H54.0459L51.6334 24.3085L54.1106 27.6352H51.8258L50.1122 24.9608V27.6352H48.2062V21.048H48.2005H48.2002ZM40 14C28.565 14 21 18.242 21 24.5C21 30.6981 28.5593 35 40 35C51.499 35 59 30.6922 59 24.5C59 18.242 51.5047 14 40 14ZM40 34.0247C29.2586 34.0247 22.084 30.1777 22.084 24.5C22.084 18.7624 29.2646 14.9753 40 14.9753C50.7998 14.9753 57.9216 18.7565 57.9216 24.5C57.9216 30.1777 50.8055 34.0247 40 34.0247ZM40 15.8906C29.8998 15.8906 23.1624 19.3488 23.1624 24.5C23.1624 29.6512 29.8998 33.1094 40 33.1094C50.1002 33.1094 56.8376 29.6512 56.8376 24.5C56.8436 19.3488 50.1062 15.8906 40 15.8906ZM40 32.9179C30.0222 32.9179 23.3548 29.5258 23.3548 24.5059C23.3548 19.4863 30.0278 16.0941 40 16.0941C49.9722 16.0941 56.6452 19.4863 56.6452 24.5059C56.6512 29.5258 49.9778 32.9182 40 32.9182V32.9179Z" fill="white"/>
</svg>
