<svg width="80" height="50" viewBox="0 0 80 50" fill="none" xmlns="http://www.w3.org/2000/svg">
<rect width="80" height="50" fill="black"/>
<path d="M12.9474 23.1278C9.67386 23.2078 9.39517 25.2419 10.1606 26.1468C11.0268 27.0664 12.066 27.8883 13.1002 28.5327C12.8159 28.3496 12.6414 28.0647 12.6125 27.7555C12.4452 26.6544 13.4499 25.6904 15.7102 25.7909C18.5772 25.9176 21.6263 27.3628 24.12 28.057C25.4115 28.4174 27.7287 29.2417 30.2553 27.9127C30.8836 27.5183 31.4558 27.0542 31.9491 26.5251C30.6424 27.8884 28.4166 27.8532 25.517 26.9025C24.0421 26.4198 21.0782 25.1526 19.5089 24.5835C17.5407 23.871 15.12 23.1256 13.1341 23.1256C13.071 23.1256 13.0092 23.1262 12.9474 23.1278Z" fill="#C4CBD1"/>
<path d="M9.81411 25.3175C9.71487 24.3576 10.4809 23.1883 12.9473 23.1278C14.9661 23.0785 17.4785 23.848 19.5089 24.5835C21.0781 25.1526 24.042 26.4198 25.517 26.9025C28.3853 27.8432 30.5937 27.8867 31.9069 26.569C31.9743 26.5021 32.0874 26.3744 32.1528 26.3001C30.8898 27.5577 28.9844 27.6992 25.8742 26.6698C24.3733 26.1727 22.0393 25.0483 19.6857 24.1783C17.5847 23.4011 15.2668 22.6541 13.2845 22.6541C10.6051 22.6541 9.63139 24.0202 9.81411 25.3175Z" fill="#96A2AD"/>
<path d="M11.6251 19.4851C9.60632 19.584 7.9339 20.5638 8.04826 22.2765C8.04793 22.2753 8.0476 22.2733 8.0476 22.272C8.0476 22.2733 8.04793 22.2753 8.04826 22.2765C8.04826 22.2775 8.04859 22.2781 8.04859 22.2785C8.21324 23.6141 9.04206 24.9588 10.1568 26.1434C9.97012 25.9203 9.84655 25.6303 9.81402 25.3176C9.6313 24.0203 10.605 22.6542 13.2844 22.6542C15.2667 22.6542 17.5846 23.4013 19.6856 24.1784C22.0393 25.0484 24.3732 26.1729 25.8741 26.6699C27.1229 27.0832 28.1775 27.3076 29.0743 27.3469H29.6255C30.6856 27.2967 31.502 26.9465 32.1491 26.3038C32.4011 26.0122 32.6299 25.7027 32.8323 25.3749C32.8862 25.2885 32.9302 25.2037 32.9654 25.1217C32.7025 25.6607 31.9548 26.0743 30.6764 26.0743C28.704 26.0743 26.7052 25.0542 26.1091 24.7856C25.0436 24.3049 22.3518 22.9525 21.0724 22.329C19.3573 21.4927 15.5359 19.4755 12.0471 19.4752C11.9051 19.4752 11.7648 19.4784 11.6251 19.4851ZM10.1604 26.1469C10.1594 26.1457 10.1584 26.1447 10.1568 26.1434C10.1584 26.1447 10.1588 26.1457 10.1604 26.1469Z" fill="#C5CBD2"/>
<path d="M11.0597 19.107C9.32676 19.358 8.06151 20.4162 8.02832 21.8821V22.0006C8.03029 22.0918 8.03719 22.1843 8.0487 22.2784C7.93203 20.5647 9.60544 19.584 11.6252 19.4851C15.2228 19.31 19.2874 21.459 21.0725 22.329C22.3519 22.9525 25.0437 24.3048 26.1092 24.7856C26.7053 25.0541 28.7041 26.0742 30.6766 26.0742C31.9556 26.0742 32.7036 25.66 32.9655 25.1197C33.3263 24.2763 32.7151 23.6371 31.695 23.367L31.6953 23.3676C32.4347 23.5718 32.9044 24.0139 32.9044 24.5308C32.9044 25.2436 32.0614 25.8204 30.7748 25.821C29.0429 25.821 26.824 24.7055 26.3701 24.501C25.303 23.9895 22.3387 22.473 21.3272 21.9609C18.7662 20.6642 15.3428 19.0267 12.2158 19.0267C11.8244 19.0267 11.4389 19.0517 11.0597 19.107Z" fill="#BDC5CD"/>
<path d="M12.5972 27.4355V27.6103C12.6001 27.6583 12.6051 27.7069 12.6126 27.7556C12.5413 26.9938 13.354 26.0873 15.5789 26.1955C18.5274 26.3395 21.7332 27.7895 24.0393 28.3836C25.9565 28.8778 27.7482 29.1643 29.6901 28.2412C29.8814 28.1375 30.0697 28.0305 30.2567 27.9128C27.7305 29.2417 25.412 28.4185 24.1201 28.0571C21.6264 27.3629 18.5773 25.9177 15.7103 25.7909C15.6016 25.7858 15.4961 25.7836 15.3929 25.7836C13.5663 25.7836 12.6517 26.5265 12.5972 27.4355Z" fill="#94A0AB"/>
<path d="M13.1048 28.5352C14.1502 29.1866 15.1916 29.6558 16.0451 29.8604C15.4555 29.7074 15.1561 29.4081 15.1637 28.9929C15.1702 28.6511 15.6021 28.3025 16.3592 28.1979C17.5289 28.0365 19.3084 28.4834 19.8135 28.6159L21.8064 29.1392C24.4703 29.8405 27.3896 29.4718 29.6887 28.2411C27.7474 29.1642 25.956 28.8777 24.0391 28.3835C21.7331 27.7894 18.5272 26.3395 15.5787 26.1954C15.4555 26.19 15.3369 26.1868 15.2225 26.1868C12.4228 26.1868 12.1514 27.9261 13.1048 28.5352Z" fill="#C8CED5"/>
<path d="M15.1639 28.9931C15.1576 29.335 15.5763 29.698 16.3296 29.8276C17.493 30.0286 19.2877 29.6416 19.797 29.5258L21.668 29.1052L19.8135 28.6161C19.3087 28.4836 17.5291 28.0361 16.3591 28.1981C15.6023 28.303 15.1701 28.6513 15.1639 28.9931Z" fill="#F05133"/>
<path d="M30.7433 23.2454C28.9739 23.2454 26.8443 24.2956 26.3701 24.5008C26.8236 24.7053 29.0429 25.8208 30.7749 25.8208C32.0618 25.8205 32.9044 25.2437 32.9044 24.5309C32.9044 23.8171 32.0089 23.2457 30.7433 23.2454Z" fill="#F05133"/>
<path d="M32.8093 25.3613C32.154 26.4179 31.2009 27.327 30.0264 28.0209V28.0212C30.0375 28.0164 30.3678 27.873 30.3682 27.8727C31.407 27.2018 32.2562 26.3568 32.8556 25.3882C32.9368 25.2583 32.9976 25.1296 33.038 25.0035L32.8093 25.3613Z" fill="#D3D8DD"/>
<path d="M15.1637 28.9954C15.1571 29.4083 15.4555 29.707 16.0438 29.8603C16.1302 29.8811 16.2153 29.8996 16.2978 29.9144C17.2058 30.0824 18.6095 29.8641 19.8192 29.6045C20.8429 29.3843 21.8065 29.1391 21.8065 29.1391L21.6159 29.0882L21.5564 29.103L19.7913 29.4999C19.2027 29.6337 18.0695 29.858 17.0885 29.858C16.8046 29.858 16.5509 29.8391 16.3346 29.802C15.9823 29.7412 15.6869 29.626 15.4792 29.4695C15.2915 29.327 15.187 29.1593 15.189 28.9954H15.1637Z" fill="#9EA9B3"/>
<path d="M11.6229 19.459C10.9903 19.4897 10.4079 19.604 9.89163 19.7977C9.35695 19.9987 8.92479 20.2742 8.60602 20.6164C8.39799 20.8408 8.24222 21.0917 8.14395 21.3632C8.04372 21.6384 8.00133 21.938 8.01907 22.252L8.02104 22.2815C8.12456 23.1198 8.49198 24.0019 9.11277 24.9032C9.42497 25.3571 9.80455 25.8155 10.2354 26.2639L10.1605 26.1468C10.1121 26.0901 10.0684 26.0287 10.0297 25.965C9.70103 25.6036 9.40788 25.2374 9.15878 24.8741C8.54292 23.9805 8.17879 23.1066 8.07626 22.2764C8.05489 21.9592 8.09499 21.6576 8.19555 21.3801C8.29217 21.1157 8.44367 20.8706 8.64742 20.6513C8.95996 20.3152 9.38521 20.0448 9.91168 19.8466C10.4224 19.6552 10.9995 19.5422 11.6258 19.5115C11.7635 19.5054 11.9052 19.5016 12.0472 19.5016C12.801 19.5016 13.6246 19.5973 14.4948 19.7871C15.2389 19.949 16.0378 20.1837 16.8695 20.4849C18.3869 21.0338 19.7566 21.7098 20.663 22.1566C20.8043 22.2271 20.9381 22.2924 21.0603 22.3525C21.4543 22.5439 21.9874 22.808 22.5523 23.0874C23.8682 23.7385 25.3592 24.4759 26.0973 24.8088C26.1502 24.8332 26.215 24.8629 26.2899 24.8978C27.0632 25.2582 28.8739 26.1016 30.6765 26.1016C31.8481 26.1016 32.6917 25.7476 32.9904 25.1308L32.9914 25.1305C33.1324 24.7995 33.133 24.4891 32.994 24.2083C32.8107 23.8374 32.3805 23.5394 31.7847 23.3662C31.9802 23.4264 32.158 23.5039 32.3131 23.5986C32.4347 23.6725 32.5399 23.7545 32.6266 23.8428C32.7673 23.9597 32.8747 24.0902 32.9444 24.2311C33.0769 24.4974 33.0752 24.7938 32.9405 25.1097C32.6509 25.706 31.8254 26.0485 30.6765 26.0485C28.8871 26.0485 27.0839 25.2089 26.3139 24.8498C26.2389 24.8155 26.1745 24.7855 26.1213 24.7611C25.3832 24.4289 23.8928 23.6917 22.5783 23.041C22.0124 22.7616 21.4787 22.4972 21.0853 22.3052C20.9634 22.2459 20.8293 22.18 20.688 22.1099C19.7803 21.6624 18.4095 20.9858 16.8889 20.4349C16.0545 20.1334 15.2536 19.8978 14.507 19.7362C13.6325 19.5454 12.805 19.4491 12.0472 19.4491C11.9045 19.4491 11.7619 19.452 11.6229 19.459Z" fill="#D9E0E9"/>
<path d="M10.3033 23.6334C9.88196 24.0947 9.69891 24.6942 9.78698 25.3203C9.78731 25.3222 9.78731 25.3241 9.78731 25.325C9.78731 25.3241 9.78731 25.3222 9.78698 25.3199C9.76496 25.1084 9.78534 24.8987 9.84515 24.6993C9.90529 24.3178 10.0745 23.9641 10.345 23.668C10.7555 23.2167 11.5991 22.6806 13.2846 22.6806C15.288 22.6806 17.6394 23.4497 19.6756 24.2025C20.8272 24.6286 21.9925 25.1228 23.0208 25.5584C24.1352 26.0315 25.0981 26.4405 25.8655 26.6944C27.2579 27.1553 28.3992 27.3796 29.3549 27.3796C30.421 27.3796 31.2755 27.0957 31.9594 26.5141L32.3379 26.1189C32.3379 26.1189 31.8696 26.525 31.73 26.6271C31.0904 27.097 30.3083 27.3265 29.3549 27.3265C28.4055 27.3265 27.2704 27.1031 25.8832 26.6447C25.1181 26.3912 24.1566 25.9831 23.0428 25.5107C22.0139 25.0741 20.8482 24.5796 19.695 24.1536C17.6548 23.3988 15.2975 22.6277 13.2846 22.6277C11.5787 22.6277 10.7216 23.1744 10.3033 23.6334Z" fill="#8C98A3"/>
<path d="M12.9463 23.1012C11.3732 23.1402 10.6019 23.6261 10.2325 24.0281C9.89661 24.3924 9.73854 24.851 9.78685 25.32C9.81905 25.6333 9.94427 25.9332 10.1395 26.1631L10.1398 26.164C10.5854 26.6371 11.0882 27.097 11.6348 27.5314C12.1412 27.9331 12.6733 28.3044 13.2175 28.636L13.1047 28.5352C13.0341 28.49 12.9707 28.4395 12.9138 28.3831C12.4872 28.1079 12.0702 27.8089 11.6696 27.4907C11.1257 27.0577 10.6249 26.6003 10.1815 26.1298C9.99323 25.907 9.87262 25.618 9.8414 25.3145C9.79474 24.8613 9.94788 24.4161 10.2736 24.0627C10.6357 23.6693 11.3942 23.1921 12.948 23.1543C13.0091 23.1527 13.0712 23.1514 13.134 23.1514C14.0279 23.1514 15.1009 23.307 16.3214 23.6127C17.259 23.8479 18.2985 24.1734 19.4993 24.6084C20.1691 24.851 21.0817 25.2172 22.0476 25.6036C23.3332 26.1189 24.6625 26.6512 25.5081 26.9284C26.9143 27.3893 28.0836 27.6127 29.084 27.6127C30.3095 27.6127 31.2411 27.2773 31.9283 26.5875C32.1193 26.3916 32.2612 26.2069 32.3378 26.1189C32.208 26.2476 31.9024 26.5676 31.7587 26.6729C31.0959 27.2699 30.2188 27.5605 29.084 27.5605C28.0902 27.5605 26.9262 27.3371 25.5255 26.8778C24.6816 26.6016 23.3536 26.0696 22.0693 25.5546C21.1024 25.1686 20.1898 24.8021 19.5191 24.5595C18.3159 24.1235 17.2751 23.797 16.3349 23.5618C15.1098 23.2545 14.0331 23.0989 13.134 23.0989C13.0709 23.0989 13.0078 23.0996 12.9463 23.1012Z" fill="#D7DBE0"/>
<path d="M13.7752 26.3645C13.4134 26.4862 13.1255 26.6571 12.9185 26.8744C12.6743 27.1311 12.5557 27.4445 12.5849 27.7585C12.5856 27.7633 12.5862 27.7694 12.5869 27.7748L12.6418 27.7703C12.6415 27.7649 12.6405 27.7591 12.6398 27.7534C12.6119 27.4554 12.7256 27.1555 12.9592 26.91C13.1604 26.6997 13.4404 26.5329 13.793 26.4148C14.1913 26.2804 14.6721 26.2138 15.2239 26.2138C15.3379 26.2138 15.4572 26.2164 15.5772 26.2218C17.5996 26.3197 19.7449 27.0351 21.6375 27.6657C22.4972 27.9521 23.3093 28.2233 24.0316 28.4092C24.9636 28.6496 25.9676 28.8717 26.9939 28.8711C27.9565 28.8711 28.8415 28.6736 29.7006 28.2652L29.7016 28.2646C29.9602 28.1266 30.2093 27.9787 30.4486 27.8203L29.7315 28.1881C29.7124 28.198 29.694 28.2089 29.6756 28.2181C28.8248 28.6221 27.948 28.8186 26.9939 28.8196C25.9739 28.8196 24.9745 28.5971 24.0467 28.3586C23.3264 28.1724 22.5146 27.9019 21.6556 27.6164C19.7594 26.9842 17.6107 26.2682 15.5801 26.1696C15.4588 26.1632 15.3392 26.1603 15.2239 26.1603C14.6665 26.1603 14.1791 26.2295 13.7752 26.3645Z" fill="#D9E0E9"/>
<path d="M13.8811 25.9769C13.4834 26.1133 13.1676 26.3101 12.9418 26.5604C12.7118 26.8155 12.5856 27.117 12.5688 27.4454V27.5972C12.5715 27.6506 12.5767 27.7044 12.5849 27.7585C12.5856 27.7604 12.5856 27.762 12.5856 27.7633C12.5856 27.7614 12.5856 27.7597 12.5849 27.7585C12.5721 27.6167 12.5889 27.4752 12.6342 27.3385C12.6701 27.0639 12.788 26.812 12.9842 26.5943C13.2038 26.3511 13.511 26.1603 13.8995 26.0265C14.3182 25.8822 14.821 25.8095 15.3935 25.8095C15.4957 25.8095 15.6018 25.8114 15.7083 25.8169C16.5946 25.8559 17.5782 26.0256 18.7156 26.3364C19.7203 26.6103 20.7134 26.9547 21.6737 27.2883C22.5331 27.5869 23.3441 27.8692 24.1131 28.0837C24.2045 28.1086 24.3008 28.1365 24.403 28.1659C25.1395 28.3775 26.1481 28.6685 27.2993 28.6685C28.1485 28.6685 28.9658 28.5065 29.7371 28.1864C29.9165 28.1112 30.3901 27.859 30.4486 27.8206C30.4486 27.8206 29.8919 28.0641 29.7134 28.1374C28.9497 28.455 28.1406 28.6157 27.2993 28.6157C26.1569 28.6157 25.1516 28.3269 24.4181 28.115C24.3162 28.0856 24.2196 28.0581 24.1276 28.0328C23.3619 27.819 22.5511 27.537 21.6921 27.2387C20.7308 26.9045 19.737 26.5591 18.7308 26.2851C17.5888 25.974 16.6009 25.8041 15.7113 25.7641C15.6035 25.7596 15.4967 25.757 15.3935 25.757C14.8144 25.757 14.306 25.8306 13.8811 25.9769ZM12.5856 27.7642C12.5856 27.7639 12.5856 27.7636 12.5856 27.7633C12.5856 27.7636 12.5856 27.7639 12.5856 27.7642Z" fill="#919CA7"/>
<path d="M16.0368 29.8864C16.1249 29.9072 16.2107 29.9257 16.2925 29.9408C16.491 29.9776 16.723 29.9974 16.9833 30H17.101C17.8062 29.9933 18.6978 29.8723 19.8251 29.63C20.8383 29.4133 21.8038 29.1671 21.8133 29.1649L21.8656 29.1521L21.7489 29.1252L21.7003 29.139C21.4282 29.2065 20.6362 29.4018 19.8129 29.5788C18.6577 29.8265 17.7507 29.9469 17.0408 29.9469C16.7605 29.9469 16.5121 29.928 16.3024 29.8886C16.2222 29.8739 16.1368 29.8553 16.0503 29.8345C15.7631 29.7599 15.5445 29.6495 15.3999 29.5061C15.2576 29.3649 15.1876 29.1927 15.1916 28.994L15.1364 28.993C15.1285 29.4213 15.4397 29.7305 16.0368 29.8864Z" fill="#BDC5CD"/>
<path d="M16.3551 28.1719C15.9926 28.2221 15.6846 28.3303 15.4638 28.4856C15.2561 28.6315 15.1394 28.8121 15.1365 28.9929C15.1365 28.999 15.1365 29.0051 15.1368 29.0115L15.1917 29.0108V28.9939C15.1966 28.7 15.5657 28.3345 16.3636 28.224C16.5292 28.201 16.7166 28.1898 16.9203 28.1898C17.9362 28.1898 19.1646 28.4731 19.8071 28.6414L21.799 29.1648C22.6896 29.3991 23.6216 29.5178 24.5687 29.5178H24.5691C26.2517 29.5178 27.9097 29.1443 29.3629 28.4375C29.477 28.3822 29.5894 28.3245 29.7008 28.265C29.4635 28.3774 29.2243 28.4747 28.9817 28.5557C27.6241 29.1517 26.1071 29.465 24.5691 29.465H24.5687C23.6259 29.465 22.6994 29.3472 21.8138 29.1139L19.8212 28.5905C19.1768 28.4212 17.9431 28.137 16.9203 28.137C16.7139 28.137 16.524 28.1488 16.3551 28.1719Z" fill="#A9B1B9"/>
<path d="M30.6704 23.2194C29.0841 23.244 27.243 24.0778 26.5433 24.3941C26.4664 24.4293 26.3406 24.4847 26.3406 24.4847L26.4066 24.5164L26.5673 24.4415C27.2746 24.122 29.1527 23.2719 30.7427 23.2719C31.3428 23.2719 31.8903 23.4041 32.2844 23.6428L32.3133 23.5987C31.9258 23.3631 31.3941 23.2287 30.8101 23.2194H30.6704Z" fill="#CFD4DA"/>
<path d="M12.1613 19C11.7804 19.0026 11.4087 19.0298 11.0554 19.081C10.5848 19.1492 10.1464 19.2762 9.7527 19.459C9.35998 19.6415 9.0228 19.8741 8.75003 20.1504C8.47037 20.4333 8.26563 20.7557 8.1414 21.1077C8.01159 21.4736 7.97084 21.8663 8.02046 22.2751L8.02112 22.2815C8.02112 22.2815 8.0553 22.0491 8.0553 21.9387C8.0553 21.278 8.30539 20.6772 8.79013 20.1866C9.05829 19.9145 9.39054 19.6863 9.77735 19.5067C10.1655 19.3255 10.5986 19.2004 11.0636 19.1328C11.4307 19.08 11.8185 19.0531 12.2152 19.0531C12.9506 19.0531 13.7502 19.1453 14.5922 19.3281C15.3336 19.4891 16.1348 19.7256 16.9738 20.0319C18.4987 20.5882 19.9611 21.2985 21.3147 21.9838C21.5349 22.0962 21.8501 22.2555 22.2146 22.4415C23.532 23.1118 25.5233 24.1245 26.3583 24.5239C26.3977 24.5422 26.45 24.5665 26.5154 24.5969C27.1766 24.9065 29.1875 25.8472 30.7748 25.8472C32.025 25.8462 32.9327 25.2925 32.9327 24.5307C32.9327 24.1719 32.7125 23.8409 32.3132 23.5986C32.304 23.5925 32.2948 23.5874 32.2859 23.5823L32.2553 23.6258C32.2649 23.6316 32.2741 23.637 32.2843 23.6428C32.6668 23.8751 32.8771 24.1901 32.8771 24.5307C32.8771 25.2624 31.9931 25.794 30.7748 25.7947C29.2003 25.7947 27.1976 24.8578 26.5394 24.5502C26.4737 24.5188 26.4214 24.4948 26.383 24.4769C25.5482 24.0774 23.5577 23.0644 22.2402 22.3945C21.8757 22.2088 21.5606 22.0491 21.3407 21.9371C19.9854 21.2508 18.521 20.5399 16.9932 19.9823C16.1519 19.6757 15.348 19.4379 14.6043 19.2766C13.7788 19.0976 12.994 19.0045 12.27 19H12.1613Z" fill="#A7AFB7"/>
<path d="M41.3836 21.1877C40.9659 21.2101 40.9196 21.3295 40.9423 21.617L41.1746 24.1949C41.2035 24.5224 41.2558 24.6302 41.5812 24.6414V24.8671H40.0372V24.6414C40.4378 24.6302 40.4671 24.5224 40.4434 24.2343L40.2811 22.2959C40.2696 22.1317 40.2633 21.8717 40.2633 21.7303V21.6115H40.2341C40.217 21.7245 40.1588 22.0356 40.0954 22.2443L39.306 24.8671H38.8531L38.0526 22.3804C37.971 22.1259 37.8955 21.7245 37.8784 21.6058H37.8432C37.8432 21.7187 37.8258 22.0526 37.8084 22.3692L37.6986 24.2282C37.6809 24.5224 37.6986 24.6353 38.0986 24.6414V24.8671H36.8625V24.6414C37.1935 24.6302 37.2513 24.5342 37.2743 24.1949L37.4666 21.617C37.4896 21.3343 37.4544 21.2047 37.0252 21.1877V20.956H38.3483L39.0736 23.194C39.1611 23.46 39.2071 23.782 39.2186 23.9123H39.2478C39.2656 23.7929 39.3178 23.4658 39.3927 23.2001L40.054 20.956H41.3836V21.1877Z" fill="white"/>
<path d="M42.5868 23.1938H43.6661C43.6661 22.5098 43.5212 22.2729 43.1551 22.2729C42.8129 22.2729 42.6266 22.4877 42.5868 23.1938ZM44.2057 24.2958L44.3336 24.5109C44.0378 24.7708 43.6717 24.9344 43.2076 24.9344C42.3371 24.9344 41.8264 24.3861 41.8264 23.4371C41.8264 22.4986 42.3778 21.956 43.1551 21.956C43.9855 21.956 44.3858 22.4653 44.3858 23.3298V23.5273H42.5806C42.5983 24.2507 42.8537 24.5109 43.4337 24.5109C43.6776 24.5109 43.9737 24.4261 44.2057 24.2958Z" fill="white"/>
<path d="M46.3588 22.4144H45.7499V24.0199C45.7499 24.4434 45.8077 24.5794 46.0982 24.5794C46.2021 24.5794 46.301 24.5567 46.4285 24.517L46.4988 24.7657C46.2895 24.8841 46.0686 24.9459 45.8077 24.9459C45.3203 24.9459 45.0416 24.7487 45.0416 24.155V22.4144H44.6933V22.1711L45.0824 22.03C45.1228 21.77 45.2102 21.4813 45.3496 21.2666L45.8018 21.1993C45.7732 21.4029 45.7499 21.7473 45.7499 22.0357H46.4462L46.3588 22.4144Z" fill="white"/>
<path d="M48.2738 23.494C47.7578 23.494 47.5136 23.663 47.5136 24.0475C47.5136 24.4095 47.6586 24.517 47.9317 24.517C48.141 24.517 48.3434 24.3864 48.4595 24.2117L48.4772 23.4995C48.4302 23.4995 48.3208 23.494 48.2738 23.494ZM49.5739 24.5794V24.7993C49.4697 24.856 49.2781 24.9011 49.0691 24.9011C48.6859 24.9011 48.5472 24.7433 48.5061 24.5055C48.4072 24.6921 48.1522 24.9459 47.7052 24.9459C47.1715 24.9459 46.7772 24.6806 46.7772 24.1268C46.7772 23.4547 47.3339 23.2002 48.2449 23.2002C48.3145 23.2002 48.4135 23.2002 48.4887 23.2053V22.9515C48.4887 22.4935 48.3786 22.2896 48.025 22.2896C47.6181 22.2896 47.5077 22.5216 47.4611 22.8039H46.9507V22.2611C47.2294 22.1094 47.6878 21.9564 48.1233 21.9564C48.7848 21.9564 49.2022 22.2448 49.2022 22.906C49.2022 23.0751 49.1792 23.5561 49.1792 24.0705C49.1792 24.494 49.2373 24.5625 49.5739 24.5794Z" fill="white"/>
<path d="M50.8738 24.2343C50.8738 24.562 50.9316 24.6302 51.2685 24.6414V24.8674H49.7712V24.6414C50.0962 24.6248 50.1656 24.5678 50.1656 24.2458V21.5833C50.1656 21.1704 50.0729 21.1144 49.7475 21.1032V20.8881L50.6996 20.73H50.787C50.8219 20.8148 50.8738 21.0008 50.8738 21.2895V24.2343Z" fill="white"/>
<path d="M52.7712 24.2343C52.7712 24.562 52.829 24.6302 53.1662 24.6414V24.8674H51.6686V24.6414C51.994 24.6248 52.0633 24.5678 52.0633 24.2458V21.5833C52.0633 21.1704 51.9703 21.1144 51.6456 21.1032V20.8881L52.597 20.73H52.6841C52.7193 20.8148 52.7712 21.0008 52.7712 21.2895V24.2343Z" fill="white"/>
<path d="M54.7905 22.2787C54.3258 22.2787 54.1641 22.6285 54.1641 23.431C54.1641 24.2507 54.3206 24.6246 54.8135 24.6246C55.226 24.6246 55.4347 24.2392 55.4347 23.4371C55.4347 22.5949 55.2138 22.2787 54.7905 22.2787ZM54.7905 24.9344C53.937 24.9344 53.3922 24.3919 53.3922 23.4547C53.3922 22.5383 53.961 21.956 54.8079 21.956C55.6614 21.956 56.207 22.5098 56.207 23.4371C56.207 24.4312 55.5799 24.9344 54.7905 24.9344Z" fill="white"/>
<path d="M57.1994 21.6398C56.9555 21.6398 56.758 21.4474 56.758 21.2099C56.758 20.9728 56.9555 20.7804 57.205 20.7804C57.4541 20.7804 57.646 20.9728 57.646 21.2099C57.646 21.4474 57.4485 21.6398 57.1994 21.6398ZM56.503 24.8672V24.6412C56.8162 24.6246 56.8852 24.5679 56.8852 24.2456V22.8833C56.8852 22.4711 56.8103 22.4144 56.4971 22.4032V22.1881L57.4837 21.9788H57.5934V24.2456C57.5934 24.5679 57.6401 24.63 57.9714 24.6412V24.8672H56.503Z" fill="white"/>
<path d="M61.233 24.2453C61.233 24.5673 61.2968 24.6243 61.5926 24.6409V24.8672H60.1472V24.6409C60.4778 24.6297 60.5245 24.5618 60.5245 24.268V22.9339C60.5245 22.5949 60.3796 22.4707 60.1239 22.4707C59.8229 22.4707 59.6253 22.5892 59.4397 22.7479V24.268C59.4397 24.5618 59.486 24.6297 59.8166 24.6409V24.8672H58.3483V24.6409C58.6618 24.6243 58.7314 24.5673 58.7314 24.2453V22.883C58.7314 22.4707 58.6562 22.4138 58.3423 22.4026V22.1881L59.1955 21.9618H59.2829C59.3177 22.0354 59.4045 22.2496 59.4163 22.4646C59.671 22.1939 59.9675 21.9672 60.4203 21.9672C60.8899 21.9672 61.233 22.2383 61.233 22.7812V24.2453Z" fill="white"/>
<path d="M62.7853 24.8956L61.8977 22.6348C61.7872 22.3519 61.7172 22.2952 61.503 22.2671V22.0356H62.9477V22.2671C62.6867 22.2725 62.6003 22.3288 62.6003 22.4421C62.6003 22.4876 62.6111 22.5327 62.6345 22.6006L63.064 23.782C63.1159 23.9235 63.1685 24.1207 63.1856 24.2452H63.2148C63.2263 24.1837 63.2786 23.9625 63.3424 23.782L63.7545 22.6006C63.7781 22.5382 63.7893 22.4876 63.7893 22.4479C63.7893 22.3237 63.691 22.2725 63.4301 22.2671V22.0356H64.5899V22.2671C64.3579 22.2952 64.2826 22.3458 64.1784 22.6348L63.3315 24.8956H62.7853Z" fill="white"/>
<path d="M65.4145 23.1938H66.4938C66.4938 22.5095 66.3485 22.2723 65.9824 22.2723C65.6403 22.2723 65.4546 22.4874 65.4145 23.1938ZM67.0337 24.2958L67.1613 24.5103C66.8652 24.7705 66.4997 24.9344 66.035 24.9344C65.1648 24.9344 64.6537 24.3861 64.6537 23.4367C64.6537 22.4982 65.2049 21.9557 65.9824 21.9557C66.8132 21.9557 67.2132 22.4646 67.2132 23.3292V23.5273H65.4086C65.426 24.2507 65.6814 24.5103 66.2618 24.5103C66.5053 24.5103 66.8007 24.4255 67.0337 24.2958Z" fill="white"/>
<path d="M67.6048 24.697V24.1151H68.0925C68.1385 24.5049 68.3363 24.6295 68.6896 24.6295C68.9975 24.6295 69.2296 24.5104 69.2296 24.2111C69.2296 23.9454 69.0787 23.8436 68.777 23.7758L68.3767 23.6852C67.918 23.5834 67.6281 23.3296 67.6281 22.8546C67.6281 22.2605 68.1211 21.9616 68.7248 21.9616C69.2125 21.9616 69.5198 22.0915 69.6653 22.159V22.7189H69.2066C69.154 22.4081 68.9742 22.2781 68.6669 22.2781C68.3656 22.2781 68.1911 22.4135 68.1911 22.6568C68.1911 22.8661 68.3008 22.9785 68.5914 23.0409L68.9742 23.1257C69.5372 23.2557 69.8274 23.5274 69.8274 23.9906C69.8274 24.5786 69.3807 24.9345 68.6324 24.9345C68.0517 24.9345 67.7612 24.7818 67.6048 24.697Z" fill="white"/>
<path d="M71.86 22.4139H71.2511V24.0192C71.2511 24.4433 71.3086 24.579 71.5991 24.579C71.7036 24.579 71.8019 24.5566 71.9297 24.5166L72 24.7653C71.791 24.8837 71.5702 24.9461 71.3086 24.9461C70.8215 24.9461 70.5432 24.7486 70.5432 24.1549V22.4139H70.1948V22.1707L70.5836 22.0295C70.6243 21.7696 70.7118 21.4812 70.8501 21.2664L71.3033 21.1989C71.2741 21.4025 71.2511 21.7472 71.2511 22.0356H71.9474L71.86 22.4139Z" fill="white"/>
</svg>
