<svg width="80" height="50" viewBox="0 0 80 50" fill="none" xmlns="http://www.w3.org/2000/svg">
<rect width="80" height="50" fill="black"/>
<path d="M51.2153 24.0069H49.0133V28.3655C49.0133 29.7862 50.5178 31 52.3779 31C54.238 31 55.8655 29.7724 55.8655 28.3655V24.0069H53.6635V27.9379C53.6635 28.5862 53.1165 29.1103 52.4463 29.1103C51.7624 29.1103 51.2153 28.5862 51.2153 27.9241V24.0069ZM16.2841 21.6069V30.6552H14V19.7448H18.1168C19.9085 19.7448 21.3719 21.2069 21.3719 22.9862C21.3719 24.5034 20.3188 25.7724 18.8964 26.1034L22.0695 30.6552H19.3477L17.0637 27.0828V24.4759H17.5971C18.4451 24.4759 19.1289 23.8414 19.1289 23.0552C19.1289 22.269 18.4861 21.6069 17.6381 21.6069H16.2841ZM37.3057 30.6552V19.2207H35.1448V24.6138C34.5703 24.0483 33.8454 23.731 33.0111 23.731C31.2331 23.731 29.7833 25.3172 29.7833 27.2897C29.7833 29.2483 31.2331 30.8483 33.0111 30.8483C33.8591 30.8483 34.6524 30.5172 35.1448 29.9103V30.6552H37.3057ZM33.6266 28.9862C32.7513 28.9862 32.0401 28.2 32.0401 27.2345C32.0401 26.269 32.7513 25.4828 33.6266 25.4828C34.5019 25.4828 35.2132 26.269 35.2132 27.2345C35.1995 28.2 34.4883 28.9862 33.6266 28.9862ZM46.3873 24.7241C46.9754 24.1724 47.3447 23.4276 47.3447 22.6138C47.3447 21.869 47.0575 21.1931 46.5651 20.6552C46.0454 20.0896 45.1427 19.7448 43.9118 19.7448H40.2326V30.6552H44.9923C46.8113 30.6276 48.2884 29.2345 48.2884 27.5241C48.2748 26.2828 47.8371 25.4 46.3873 24.7241ZM44.5546 28.7655H42.4894V21.7034H43.9391C44.5683 21.7034 45.1017 22.1862 45.1017 22.8345C45.1017 23.4828 44.5683 24.0069 43.9391 24.0069H43.1732V25.9793H44.582C45.3479 25.9793 45.9223 26.6138 45.9223 27.3862C45.8949 28.1586 45.3889 28.7241 44.5546 28.7655Z" fill="#E21B4D"/>
<path d="M23.984 26.4759C23.984 25.7448 24.5721 25.1517 25.297 25.1517C26.0219 25.1517 26.61 25.7448 26.61 26.4759H23.984ZM28.7436 27.7172C28.7573 27.5655 28.771 27.4138 28.771 27.2621C28.7983 24.9034 27.2665 23.6207 25.297 23.6207C23.3275 23.6207 21.7273 25.2483 21.7273 27.2621C21.7273 29.2759 23.3275 30.9034 25.297 30.9034C26.8015 30.9034 27.9777 30.2138 28.5795 29.1379L26.8288 28.3241C26.61 28.8069 26.0903 29.1517 25.4748 29.1517C24.6679 29.1517 23.9977 28.531 23.9977 27.7172H28.7436ZM56.8773 19.2207H59.0383V30.6552H56.8773V19.2207ZM60.5565 19.2207H62.7174V30.6552H60.5565V19.2207Z" fill="#E21B4D"/>
<path d="M64.9742 19.1517C65.2204 19.1517 65.4256 19.2345 65.5897 19.4138C65.7538 19.5793 65.8495 19.8 65.8495 20.0345C65.8495 20.2828 65.7675 20.4897 65.5897 20.6552C65.4256 20.8345 65.2067 20.9172 64.9742 20.9172C64.728 20.9172 64.5229 20.8345 64.3451 20.6552C64.1809 20.4897 64.0852 20.269 64.0852 20.0345C64.0852 19.7862 64.1673 19.5793 64.3451 19.4138C64.5229 19.2483 64.728 19.1517 64.9742 19.1517ZM66 20.0345C66 19.7586 65.9043 19.5103 65.6991 19.3034C65.4939 19.1103 65.2614 19 64.9742 19C64.687 19 64.4545 19.0966 64.2493 19.3034C64.0442 19.5103 63.9484 19.7448 63.9484 20.0345C63.9484 20.3241 64.0442 20.5586 64.2493 20.7655C64.4545 20.9724 64.687 21.069 64.9742 21.069C65.2614 21.069 65.4939 20.9724 65.6991 20.7655C65.8906 20.5724 66 20.3241 66 20.0345ZM65.2478 19.8138C65.2478 19.8966 65.2067 19.9655 65.1247 19.9931C65.0836 20.0069 65.0152 20.0207 64.9332 20.0207H64.7554V19.6069H64.9195C65.0289 19.6069 65.111 19.6207 65.1657 19.6483C65.2204 19.6897 65.2478 19.731 65.2478 19.8138ZM64.5639 19.469V20.6H64.7554V20.1586H64.9058C65.0152 20.1586 65.0836 20.1724 65.1247 20.2C65.193 20.2414 65.2341 20.3241 65.2341 20.4621V20.6H65.4256L65.4119 20.5862C65.4119 20.5724 65.3982 20.5586 65.3982 20.531V20.3655C65.3982 20.3103 65.3708 20.2552 65.3435 20.1862C65.3025 20.131 65.2341 20.0897 65.152 20.0759C65.2204 20.0621 65.2751 20.0483 65.3161 20.0207C65.3845 19.9793 65.4256 19.8966 65.4256 19.8C65.4256 19.6621 65.3708 19.5655 65.2478 19.5103C65.1794 19.4828 65.0836 19.469 64.9332 19.469H64.5639Z" fill="#E21B4D"/>
</svg>
