<svg width="80" height="50" viewBox="0 0 80 50" fill="none" xmlns="http://www.w3.org/2000/svg">
<rect width="80" height="50" fill="black"/>
<path d="M20.2626 30.6134H18.5707C18.5136 30.6134 18.4675 30.6537 18.4675 30.7029V32.9489C18.4675 33.0023 18.5102 33.0395 18.5707 33.0395H18.8995C18.9612 33.0395 19.0027 33.002 19.0027 32.9489V31.0659H20.2629C20.3223 31.0659 20.3661 31.0293 20.3661 30.977V30.7026C20.3658 30.6534 20.3192 30.6134 20.2626 30.6134ZM27.3213 30.5623C26.8384 30.5623 26.5476 30.7574 26.4419 30.8446C26.416 30.7856 26.3808 30.6995 26.3674 30.6731C26.3558 30.6475 26.3299 30.6134 26.2691 30.6134H26.0147C25.9772 30.6134 25.9488 30.6358 25.9391 30.6699C25.9357 30.6759 25.9343 30.683 25.9343 30.6887V33.8429C25.9343 33.8867 25.9744 33.9222 26.0244 33.9222H26.3854C26.4351 33.9222 26.4754 33.8867 26.4754 33.8429V33.0259C26.5667 33.0483 26.7841 33.0898 27.1354 33.0898C28.0608 33.0898 28.4393 32.7205 28.4393 31.8174C28.4393 30.9253 28.1153 30.5623 27.3213 30.5623ZM27.1371 32.6364C26.8253 32.6364 26.5616 32.5944 26.4754 32.5787V31.2347C26.532 31.1918 26.7784 31.025 27.1695 31.025C27.6026 31.025 27.8524 31.1577 27.8524 31.8361C27.8524 32.4557 27.6913 32.6364 27.1371 32.6364ZM60.1601 30.5623C59.792 30.5623 59.4206 30.6015 59.3023 30.6239C59.2489 30.6333 59.2168 30.6685 59.2168 30.7245V30.9927C59.2168 31.0719 59.2691 31.0924 59.3163 31.0816C59.4311 31.058 59.7886 31.0145 60.1328 31.0145C60.7063 31.0145 60.8484 31.1171 60.8493 31.5395C60.7444 31.529 60.4625 31.5006 60.1504 31.5006C59.3089 31.5006 58.9826 31.7239 58.9826 32.2998C58.9826 32.877 59.2617 33.0912 60.0117 33.0912C60.4781 33.0912 60.7788 32.9029 60.8806 32.827C60.9004 32.8674 60.9323 32.9304 60.9573 32.9807C60.976 33.0188 61.0107 33.0398 61.0562 33.0398H61.3108C61.3575 33.0398 61.3907 33.0071 61.3907 32.9586V31.5557C61.3907 30.729 60.9203 30.5623 60.1601 30.5623ZM60.8493 32.4472C60.7853 32.4898 60.5278 32.6378 60.1231 32.6378C59.634 32.6378 59.5553 32.5552 59.5553 32.2915C59.5553 32.0347 59.6224 31.9222 60.249 31.9222C60.525 31.9222 60.7632 31.9458 60.849 31.9543V32.4472H60.8493ZM36.6209 30.6134H36.2139C36.1736 30.6134 36.1179 30.6222 36.0928 30.6904C36.0718 30.7483 35.6117 32.0148 35.3619 32.6995C35.1476 32.0938 34.6707 30.7387 34.653 30.6904C34.6292 30.6222 34.5726 30.6134 34.5325 30.6134H34.117C34.09 30.6134 34.0676 30.6253 34.0531 30.6449C34.04 30.6665 34.0389 30.6924 34.0494 30.7185C34.0741 30.781 34.5914 32.127 34.8125 32.7015L34.9088 32.9537C34.9313 33.0128 34.9725 33.0398 35.0398 33.0398H35.2388L35.2101 33.1157C35.1251 33.3415 35.0785 33.3995 34.8517 33.3995H34.7767C34.7247 33.3995 34.6871 33.4421 34.6871 33.5037V33.8321C34.6871 33.8927 34.7249 33.9353 34.7767 33.9353H34.8622C35.2763 33.9353 35.4963 33.785 35.6452 33.3983C35.6452 33.3983 36.6596 30.7904 36.6877 30.7171C36.6985 30.6909 36.6965 30.664 36.6817 30.6449C36.6695 30.6253 36.6479 30.6134 36.6209 30.6134ZM53.0076 30.6134H50.8445C50.7971 30.6134 50.7601 30.6489 50.7601 30.6952V32.9586C50.7601 33.0046 50.7971 33.0398 50.8445 33.0398H51.2069C51.2558 33.0398 51.2953 33.0032 51.2953 32.9586V31.0571H52.5586V32.9586C52.5586 33.0032 52.5975 33.0398 52.6484 33.0398H53.0076C53.0577 33.0398 53.0926 33.0032 53.0926 32.9586V30.6952C53.0923 30.6489 53.0574 30.6134 53.0076 30.6134ZM44.678 30.6134H42.514C42.4668 30.6134 42.4305 30.6489 42.4305 30.6952V32.9586C42.4305 33.0032 42.4668 33.0398 42.514 33.0398H42.8761C42.9256 33.0398 42.9651 33.0032 42.9651 32.9586V31.0571H44.227V32.9586C44.227 33.0032 44.2676 33.0398 44.3168 33.0398H44.678C44.7277 33.0398 44.7633 33.0046 44.7633 32.9586V30.6952C44.7633 30.6489 44.7277 30.6134 44.678 30.6134Z" fill="#2171C8"/>
<path d="M20.525 17.6274C19.3125 17.6274 18.6353 18.3005 18.6353 19.5166V27.3411H25.113C25.6538 27.3411 25.9238 27.0706 25.9238 26.5309V20.3266H31.0541C31.5924 20.3255 31.8607 20.0559 31.8607 19.5178V17.6277H20.525V17.6274ZM35.9727 20.3266H36.7926V20.3277C37.2007 20.3277 37.4116 20.4624 37.5213 20.8709H37.5236L38.3154 23.7527H35.0248L35.9727 20.3266ZM34.2901 17.6274L31.3216 27.3411H34.0312L34.4874 25.6905H38.8486L39.1106 26.6416C39.2817 27.1595 39.5622 27.3411 40.0676 27.3411H47.0682L44.4569 19.7232H44.4558C43.8913 18.0791 43.1982 17.6274 41.039 17.6274H34.2901ZM48.1707 17.6274V19.5201C48.1724 20.0564 48.4421 20.3263 48.9804 20.3263H53.5141C53.8433 20.3263 54.1093 20.5425 54.1093 20.9198C54.1093 21.2973 53.8433 21.5144 53.5141 21.5144H50.3304V23.453H53.5141C53.8433 23.453 54.1093 23.6706 54.1093 24.0482C54.1093 24.4255 53.8433 24.6428 53.5141 24.6428H48.171V26.5326C48.171 27.0706 48.4407 27.3411 48.9807 27.3411H59.2373C60.5879 27.3411 61.3967 26.5317 61.3967 25.4519V24.3914C61.3967 23.186 60.5347 22.5911 59.7719 22.4774V22.247C60.5347 22.1345 61.3967 21.5445 61.3967 20.3397V19.5169C61.3967 18.3027 60.724 17.6277 59.5073 17.6277H48.1707V17.6274Z" fill="#2171C8"/>
</svg>
