<svg width="80" height="50" viewBox="0 0 80 50" fill="none" xmlns="http://www.w3.org/2000/svg">
<rect width="80" height="50" fill="black"/>
<path fill-rule="evenodd" clip-rule="evenodd" d="M25.4402 17.0891H25.6503C25.122 18.0258 24.5898 18.236 24.0402 19.3531C23.5116 20.4761 22.8049 22.9424 22.7803 22.9918C21.3418 26.4922 21.1807 26.4438 21.1005 26.792C24.7436 22.6028 26.5225 17.5874 30.1651 17.0487C30.8628 16.9242 31.1945 17.0504 31.7401 17.2911C31.7416 17.5137 31.709 17.476 31.7401 17.5742C31.0669 17.2188 30.7206 17.261 30.3052 17.372C28.8337 17.8553 27.6067 22.3439 27.2601 22.9915C26.5638 24.3655 26.6126 26.2654 23.4101 28.166H23.1299C23.2105 27.9713 23.9316 26.3867 25.3001 23.0724C26.9979 19.0126 28.188 18.7373 28.3101 18.1402C23.9597 21.1714 22.8537 27.2117 19.0698 28.6514C19.0384 28.5539 19.0031 28.4651 18.9998 28.3278C19.0031 28.2061 19.1851 28.0526 19.5599 26.9531C19.5844 26.896 20.8934 22.5216 20.8898 22.5064C21.838 20.2331 23.2242 19.0689 23.3398 18.5444C19.0663 21.5193 18.1213 28.6673 14.2399 28.6514C12.9058 28.6673 12.003 28.0446 12 26.7916C12.003 25.9988 12.3529 25.5943 12.98 25.5791C13.725 25.5943 13.7532 26.2007 13.7502 26.5493C13.7532 27.4465 13.2632 27.0904 13.2602 27.6812C13.2632 28.101 13.8792 28.5055 14.3803 28.4896C16.1403 28.5055 18.4224 24.7455 19.7002 22.6682C22.1044 18.8265 22.7696 18.5838 25.4402 17.0891Z" fill="white"/>
<path fill-rule="evenodd" clip-rule="evenodd" d="M31.4603 22.6682C32.1153 22.6834 33.2144 23.0312 33.2105 23.8811C33.2144 25.2713 30.7294 25.9583 30.2004 25.7409C31.7516 24.6887 31.7237 23.936 31.8456 23.6788C31.8512 23.6622 31.9952 23.4838 31.9853 23.1937C31.9605 22.841 31.5343 22.9261 31.5304 22.9109C30.2531 23.2172 29.2941 25.837 29.2905 27.0347C29.2944 28.0045 29.8125 28.4249 30.4106 28.4094C33.4317 28.4249 34.2716 23.0073 35.3106 22.9921H36.7106V23.3963C36.3576 24.2123 36.1406 24.2769 36.0805 24.771C36.4837 24.5117 37.9468 22.9185 38.1105 22.8303C38.241 22.7892 39.13 22.8296 39.5805 22.6685V23.1536C39.3051 23.7998 39.025 24.196 39.0205 24.8516C39.0247 25.4815 39.2138 25.5946 39.6503 25.5794C39.7598 25.5946 41.6151 22.8455 43.2904 22.8303H44.0603C44.4991 22.8455 45.3252 23.1934 45.3204 23.8814C45.3252 24.7216 44.5688 25.2717 44.0603 25.2561C43.2599 25.2713 44.1698 23.0073 43.3604 22.9921C43.1129 23.0073 41.4046 24.9318 41.4001 26.8732C41.4046 27.665 41.7477 28.5062 42.3801 28.4903C45.1007 28.5062 46.137 22.9268 47.2104 22.9112H48.1901C48.3769 22.9264 48.4469 22.8618 48.6101 23.2348L46.2999 27.9243C46.431 28.1583 46.5776 28.4249 46.7902 28.4094C48.062 28.4249 50.3438 23.1124 50.8499 23.0727C52.675 22.9828 52.2128 23.1781 52.32 23.0727C52.5043 23.3676 52.3834 23.2857 52.32 23.4769C52.1215 24.2099 50.0849 27.034 50.0801 28.1663C50.0852 28.4246 50.1971 28.4733 50.2899 28.5708C53.5712 26.3221 51.7791 27.333 54.42 23.0727C54.9714 23.0879 55.3563 23.1124 56.0999 23.0727V23.4769L55.4701 24.6089L55.6102 24.6898C56.1684 24.0664 57.3023 22.8455 57.8501 22.83H58.9001C58.9193 22.9665 58.9055 22.9828 58.9001 23.0727C58.9055 23.6459 58.3454 23.9129 58.3401 24.7707C58.3457 25.3035 58.4505 25.4732 58.6903 25.7412C60.7538 24.3333 60.2216 23.0073 61.4202 22.9918H62.6103V23.396C60.5647 27.3655 60.3058 27.4222 60.3004 27.9239C60.3058 28.2306 60.2662 28.1584 60.3004 28.288C60.304 28.3893 60.3614 28.5262 60.3701 28.5304C61.8455 28.7122 63.2736 25.6755 64.57 23.1532C65.5057 23.1688 65.0378 23.1778 66.04 23.1937C66.0499 23.1778 66.237 23.1674 66.3202 23.2342C66.3953 23.304 66.3259 23.4921 66.3202 23.4765L63.8351 28.2472C65.2507 28.1511 67.4708 25.6202 67.8252 25.1749C67.9368 25.1095 67.8857 25.2274 68 25.1749C65.9759 27.8524 63.6657 28.6673 63.66 28.6514C63.5152 29.0317 63.6726 28.7641 62.6803 30.4306C61.0756 33.1877 58.3805 34.004 56.9401 33.9881C56.5881 34.004 56.5881 34.004 56.0999 33.9881C54.9502 34.004 54.0749 32.6538 54.0701 31.7241C54.0752 30.0583 55.1812 29.9449 55.6799 29.7025H56.4501C56.2663 30.228 55.685 30.7695 55.6799 32.1283C55.6853 32.9045 56.3223 33.8425 57.0802 33.8263C59.3464 33.8425 62.1535 28.3599 62.1203 27.7621C61.9018 27.9312 60.6138 28.9909 59.7403 28.975C58.9968 28.9909 58.8358 28.3357 58.8304 27.6003C58.8358 26.3383 59.1506 26.6858 59.0402 25.8214C58.3945 25.9825 58.4296 26.1603 57.9204 26.145C57.0155 26.1606 56.4555 25.4003 56.4504 24.3661C54.4742 25.1417 53.8444 28.7479 53.1605 28.7323H51.7605C51.539 28.6524 51.7515 28.3838 52.0407 27.7618C51.8006 27.8582 50.2884 28.9906 49.6607 28.9747C48.6083 28.9906 48.6714 27.7611 48.4005 27.3576C48.2515 27.4783 46.8371 28.9906 46.0906 28.9747C45.1292 28.9906 44.8703 28.1898 44.8307 27.3576C44.2052 27.5187 43.0782 28.9093 41.8204 28.8938H41.2601C40.3824 28.9093 39.6548 27.9713 39.6503 27.034C39.6548 27.0495 39.7386 26.9282 39.7903 25.902C39.3605 25.7073 39.6197 25.9984 38.6703 25.9829C37.1416 25.9984 37.2044 24.8824 37.2003 24.1231C35.4615 24.8094 34.4605 28.6424 33.7702 28.651C33.2282 28.6832 32.9202 28.6345 32.3703 28.651L32.2305 28.5297C32.2033 28.2448 32.3433 28.1677 32.5104 27.6809C32.5143 27.6964 30.4564 28.9093 29.3605 28.8938C28.0483 28.9093 27.6771 28.0363 27.4706 27.1145C27.1102 27.2355 25.7871 28.7475 23.2707 28.732C22.9241 28.7475 23.1971 28.7475 21.3107 28.732C21.2999 28.6262 21.314 28.6099 21.3107 28.4892C21.314 28.2137 21.3212 28.2624 21.6606 28.2469L23.3407 28.5705C28.2931 28.5864 27.6418 22.6834 31.4603 22.6682Z" fill="white"/>
</svg>
