<svg width="80" height="50" viewBox="0 0 80 50" fill="none" xmlns="http://www.w3.org/2000/svg">
<rect width="80" height="50" fill="black"/>
<path d="M34.0477 27.452V25.1682H31.2747V27.452H30.1924V21.8088H31.2747V24.181H34.0475V21.8088H35.1151V27.452H34.0477Z" fill="#169BD6"/>
<path d="M40.5125 26.3765H37.547L37.0725 27.4374H35.916L38.4516 21.8088H39.6229L42.1586 27.4374H40.9873L40.5125 26.3765ZM39.0298 22.9876L37.977 25.3893H40.0825L39.0298 22.9876Z" fill="#256EA5"/>
<path d="M45.6726 25.7871H44.071V27.4374H43.0034V21.8102H45.6712C48.444 21.7955 48.444 25.7885 45.6712 25.7885L45.6726 25.7871ZM44.071 24.8146H45.6724C47.0514 24.8146 47.0365 22.8108 45.6724 22.8108H44.071V24.8146ZM53.6352 27.4374H52.3601L50.7142 25.5514H49.6924V27.4374H48.6247V21.7942H51.3086C52.6431 21.809 53.3549 22.6782 53.3549 23.6655C53.3549 24.6528 52.9992 25.2126 51.9166 25.4337L53.6367 27.3491L53.6352 27.4374ZM49.6924 22.7949V24.6072H51.3235C51.9907 24.6072 52.2873 24.1505 52.2873 23.6937C52.2873 23.2368 51.9908 22.7949 51.3235 22.7949H49.6924ZM59.7739 24.6527C59.7591 26.1113 58.8546 27.5687 56.8677 27.5687C54.8809 27.5687 53.9467 26.1394 53.9467 24.666C53.9467 23.1926 54.9105 21.7046 56.8677 21.7046C58.825 21.7046 59.7888 23.178 59.7739 24.6514V24.6527ZM55.0141 24.6821C55.029 25.6103 55.5331 26.5975 56.8689 26.5975C58.2046 26.5975 58.7075 25.5956 58.7236 24.6662C58.7397 23.7367 58.2046 22.6623 56.8689 22.6623C55.5331 22.6623 54.9857 23.7378 55.0141 24.6821ZM63.7773 21.809H64.9486V21.8532L63.021 24.5924L64.9931 27.4067V27.4361H63.8068L62.3535 25.328L60.9002 27.4361H59.714V27.4067L61.6861 24.5924L59.7733 21.8532V21.809H60.9446L62.3546 23.9012L63.7773 21.809ZM68.2109 24.137L69.7099 21.809H70.9999V21.8532L68.7461 25.1094V27.4374H67.6785V25.1094L65.4985 21.8532V21.809H66.7737L68.2109 24.137Z" fill="#24405D"/>
<path d="M18.6292 22.3958L16.8228 20.3657" stroke="#284A6A" stroke-width="0.121582" stroke-miterlimit="10"/>
<path d="M12.9343 20.8345L14.3482 22.884" stroke="#284A6A" stroke-width="0.0607908" stroke-miterlimit="10"/>
<path d="M18.629 22.3952L22.9098 22.883M18.629 22.3952L20.4159 20.3464L18.629 22.3952ZM20.7891 24.6586L22.9098 22.883L20.7891 24.6586ZM20.7891 24.6587L22.9098 26.5125L20.7891 24.6587ZM20.4356 28.8542L18.6291 26.8639L20.4356 28.8542ZM16.8224 28.854L18.6289 26.8636L16.8224 28.854ZM14.3481 26.4344L16.3904 24.6588L14.3481 26.4344ZM14.3481 22.883L16.3904 24.6586L14.3481 22.883ZM18.629 22.3952L14.3481 22.883L18.629 22.3952Z" stroke="#284A6A" stroke-width="0.121582" stroke-miterlimit="10"/>
<path d="M20.7886 24.6588L20.4352 28.8541M20.7886 24.6588L20.4155 20.3467L20.7886 24.6588Z" stroke="#284A6A" stroke-width="0.121582" stroke-miterlimit="10"/>
<path d="M14.3481 26.4346L18.629 26.8656M22.9098 26.5129L18.629 26.8656L22.9098 26.5129Z" stroke="#284A6A" stroke-width="0.121582" stroke-miterlimit="10"/>
<path d="M16.8223 20.3657L16.3904 24.6586M16.8223 28.8538L16.3904 24.6586L16.8223 28.8538Z" stroke="#284A6A" stroke-width="0.121582" stroke-miterlimit="10"/>
<path d="M17.2911 17.9856L20.4134 20.3467M12.3831 23.4294L14.3468 22.8831L12.3831 23.4294ZM14.7593 18.9026L16.821 20.366L14.7593 18.9026ZM17.2911 17.9856L16.821 20.3661L17.2911 17.9856Z" stroke="#284A6A" stroke-width="0.0607908" stroke-miterlimit="10"/>
<path d="M22.9101 22.8831L24.9131 23.4294M19.9451 17.9856L20.4151 20.3467L19.9451 17.9856ZM22.4782 18.9026L20.4164 20.3467L22.4782 18.9026ZM24.324 20.8343L20.4164 20.3465L24.324 20.8343ZM22.9101 22.8831L24.324 20.8343L22.9101 22.8831Z" stroke="#284A6A" stroke-width="0.0607908" stroke-miterlimit="10"/>
<path d="M19.9446 17.9856L16.8223 20.366M22.9097 22.8831L24.8734 25.8491L22.9097 22.8831Z" stroke="#284A6A" stroke-width="0.0607908" stroke-miterlimit="10"/>
<path d="M22.9099 26.5132L24.8737 25.8497M22.9099 22.8839L22.478 18.9033L22.9099 22.8839Z" stroke="#284A6A" stroke-width="0.0607908" stroke-miterlimit="10"/>
<path d="M20.4358 28.8541L22.478 30.3371M22.9101 26.5125L24.9129 23.4294L22.9101 26.5125ZM22.9101 26.5125L24.324 28.4052L22.9101 26.5125ZM22.9101 26.5125L22.4781 30.337L22.9101 26.5125Z" stroke="#284A6A" stroke-width="0.0607908" stroke-miterlimit="10"/>
<path d="M16.8237 28.854L17.2938 31.2549M20.4356 28.854L24.3237 28.405L20.4356 28.854ZM20.4356 28.854L19.9656 31.2549L20.4356 28.854ZM20.4356 28.854L17.2938 31.2536L20.4356 28.854Z" stroke="#284A6A" stroke-width="0.0607908" stroke-miterlimit="10"/>
<path d="M14.3482 26.4348L12.9343 28.4251M16.8224 28.8545L19.9642 31.2532L16.8224 28.8545ZM16.8224 28.8545L14.7606 30.3375L16.8224 28.8545ZM16.8224 28.8545L12.9343 28.4253L16.8224 28.8545Z" stroke="#284A6A" stroke-width="0.0607908" stroke-miterlimit="10"/>
<path d="M14.3483 22.8828L12.365 25.8291M14.3483 26.434L14.7606 30.3365L14.3483 26.434ZM14.3483 26.434L12.365 25.8291L14.3483 26.434Z" stroke="#284A6A" stroke-width="0.0607908" stroke-miterlimit="10"/>
<path d="M14.7605 18.9036L14.3483 22.884M14.348 26.4353L12.3843 23.4303L14.348 26.4353Z" stroke="#284A6A" stroke-width="0.0607908" stroke-miterlimit="10"/>
<path d="M12.9343 20.836L16.8224 20.3669" stroke="#284A6A" stroke-width="0.0607908" stroke-miterlimit="10"/>
<path d="M17.2937 17.9862L14.6428 17.2639M14.7606 18.9035L13.2485 18.2009L14.7606 18.9035ZM14.7606 18.9035L14.6429 17.2639L14.7606 18.9035Z" stroke="#24405D" stroke-width="0.0472332" stroke-miterlimit="10"/>
<path d="M19.9453 17.9872L17.7656 16.3279M17.2943 17.9872L16.1554 16.6012L17.2943 17.9872ZM17.2943 17.9872L17.7644 16.3279L17.2943 17.9872ZM14.7612 18.9045L16.1554 16.6012L14.7612 18.9045Z" stroke="#24405D" stroke-width="0.0472332" stroke-miterlimit="10"/>
<path d="M22.4783 18.9043L21.084 16.6009M19.9452 17.9868L19.4544 16.269L19.9452 17.9868ZM17.2942 17.9868L19.4542 16.269L17.2942 17.9868ZM19.9452 17.9868L21.084 16.6009L19.9452 17.9868Z" stroke="#24405D" stroke-width="0.0472332" stroke-miterlimit="10"/>
<path d="M22.4779 18.9035L25.1682 19.3122M22.4779 18.9035L22.6154 17.2639L22.4779 18.9035ZM19.9448 17.9862L22.6154 17.2639L19.9448 17.9862ZM22.4779 18.9035L24.0278 18.1228L22.4779 18.9035Z" stroke="#24405D" stroke-width="0.0472332" stroke-miterlimit="10"/>
<path d="M24.3235 20.8338L26.7389 22.1997M24.3235 20.8338L25.1679 19.3106L24.3235 20.8338ZM24.3235 20.8338L24.0288 18.1216L24.3235 20.8338ZM24.3235 20.8338L26.0909 20.6973L24.3235 20.8338Z" stroke="#24405D" stroke-width="0.0472332" stroke-miterlimit="10"/>
<path d="M24.8738 25.8481L26.9553 23.8385M24.9132 23.4285L26.0914 20.6968L24.9132 23.4285ZM24.9132 23.4285L26.7394 22.1992L24.9132 23.4285ZM24.9132 23.4285L26.9554 23.8382L24.9132 23.4285Z" stroke="#24405D" stroke-width="0.0472332" stroke-miterlimit="10"/>
<path d="M24.3237 28.405L26.6998 27.0586M24.8734 25.8489L27.014 25.4585L24.8734 25.8489ZM24.9128 23.4292L27.014 25.4584L24.9128 23.4292ZM24.8734 25.8489L26.6997 27.0587L24.8734 25.8489Z" stroke="#24405D" stroke-width="0.0472332" stroke-miterlimit="10"/>
<path d="M24.3242 28.4043L24.01 31.0969M24.3242 28.4043L26.0718 28.5811L24.3242 28.4043ZM24.8739 25.8494L26.0718 28.5811L24.8739 25.8494ZM24.3242 28.4043L25.1489 29.9444L24.3242 28.4043Z" stroke="#24405D" stroke-width="0.0472332" stroke-miterlimit="10"/>
<path d="M22.4777 30.3363L21.0835 32.6788M24.0094 31.0976L22.4777 30.3364L24.0094 31.0976ZM22.4777 30.3363L22.5955 32.0345L22.4777 30.3363ZM22.4777 30.3363L25.1483 29.9458L22.4777 30.3363Z" stroke="#24405D" stroke-width="0.0472332" stroke-miterlimit="10"/>
<path d="M19.9638 31.2522L17.7644 33.009M19.9638 31.2522L21.0817 32.6772L19.9638 31.2522ZM19.9638 31.2522L22.5951 32.033L19.9638 31.2522ZM19.9638 31.2522L19.4531 33.009L19.9638 31.2522Z" stroke="#24405D" stroke-width="0.0472332" stroke-miterlimit="10"/>
<path d="M14.7622 30.3369L16.1761 32.6794M17.294 31.2532L17.7641 33.01L17.294 31.2532ZM17.294 31.2532L19.454 33.01L17.294 31.2532ZM17.294 31.2532L16.1761 32.6782L17.294 31.2532Z" stroke="#24405D" stroke-width="0.0472332" stroke-miterlimit="10"/>
<path d="M12.9343 28.4241L13.229 31.1753M17.2936 31.2521L14.623 32.0716L17.2936 31.2521ZM14.7605 30.3363L14.623 32.0729L14.7605 30.3363ZM14.7605 30.3363L13.2288 31.1753L14.7605 30.3363Z" stroke="#24405D" stroke-width="0.0472332" stroke-miterlimit="10"/>
<path d="M12.3649 25.829L10.2441 25.4583M14.7606 30.3364L12.0704 29.9657L14.7606 30.3364ZM12.9345 28.4256L12.0707 29.9657L12.9345 28.4256ZM12.9345 28.4256L11.1672 28.6024L12.9345 28.4256ZM12.9345 28.4256L10.4996 27.0792L12.9345 28.4256ZM12.3649 25.829L10.4994 27.0778L12.3649 25.829Z" stroke="#24405D" stroke-width="0.0472332" stroke-miterlimit="10"/>
<path d="M12.3842 23.4292L10.2437 25.4584M12.3646 25.8293L11.1667 28.6001L12.3646 25.8293Z" stroke="#24405D" stroke-width="0.0472332" stroke-miterlimit="10"/>
<path d="M12.3844 23.4293L10.5582 22.2195M12.3649 25.8295L10.2441 23.8391L12.3649 25.8295Z" stroke="#24405D" stroke-width="0.0472332" stroke-miterlimit="10"/>
<path d="M12.3842 23.4285L11.1667 20.6968M12.3842 23.4285L10.2437 23.8382L12.3842 23.4285Z" stroke="#24405D" stroke-width="0.0472332" stroke-miterlimit="10"/>
<path d="M12.9339 20.8351L13.248 18.2009M12.9339 20.8351L11.1666 20.6985L12.9339 20.8351ZM12.9339 20.8351L10.5579 22.2205L12.9339 20.8351ZM12.9339 20.8351L12.0895 19.3909L12.9339 20.8351Z" stroke="#24405D" stroke-width="0.0472332" stroke-miterlimit="10"/>
<path d="M14.7604 18.9033L12.0898 19.3931" stroke="#24405D" stroke-width="0.0472332" stroke-miterlimit="10"/>
<path d="M15.3384 25.6726L15.3527 23.6238L17.4183 23.6382L17.404 25.687L15.3384 25.6726ZM17.5732 23.413L17.5875 21.3643L19.6531 21.3786L19.6388 23.4274L17.5732 23.413ZM17.5729 27.9126L17.5873 25.8639L19.6529 25.8783L19.6385 27.927L17.5729 27.9126ZM19.8273 25.6531L19.8417 23.6043L21.9073 23.6187L21.8929 25.6674L19.8273 25.6531Z" fill="#256EA5"/>
<path d="M19.7096 21.0597L19.7197 19.6353L21.1591 19.6454L21.1464 21.0698L19.7096 21.0597ZM16.1107 21.0594L16.1208 19.635L17.5601 19.6451L17.55 21.0695L16.1107 21.0594ZM13.6188 23.5942L13.629 22.1698L15.0683 22.1799L15.0582 23.6043L13.6188 23.5942ZM13.6169 27.1777L13.6319 25.7534L15.0712 25.7686L15.0563 27.1925L13.6169 27.1777ZM22.202 27.15L22.2122 25.7255L23.6515 25.7356L23.6413 27.1601L22.202 27.15ZM22.2309 23.6091L22.2458 22.1848L23.6852 22.2L23.6702 23.6243L22.2309 23.6091Z" fill="#3378BC"/>
<path d="M12.4525 21.2985L12.4591 20.3619L13.3997 20.3684L13.3931 21.3051L12.4525 21.2985ZM14.292 19.3926L14.2986 18.456L15.2392 18.4625L15.2326 19.3992L14.292 19.3926ZM16.8229 18.4497L16.8295 17.513L17.7701 17.5196L17.7635 18.4562L16.8229 18.4497ZM11.8999 23.8924L11.9065 22.9557L12.8412 22.962L12.8346 23.8987L11.8999 23.8924ZM23.8489 20.375L24.7915 20.3684L24.7981 21.3031L23.8555 21.3096L23.8489 20.375ZM22.0094 18.4365L22.952 18.43L22.9586 19.3646L22.016 19.3712L22.0094 18.4365ZM19.4697 17.5176L20.4123 17.511L20.4189 18.4456L19.4763 18.4522L19.4697 17.5176ZM24.3987 22.9663L25.3413 22.9597L25.3479 23.8944L24.4053 23.9009L24.3987 22.9663Z" fill="#169BD6"/>
<path d="M16.0916 29.6076L16.1017 28.1826L17.541 28.1927L17.5309 29.6177L16.0916 29.6076ZM19.6907 29.6076L19.7009 28.1826L21.1402 28.1927L21.13 29.6177L19.6907 29.6076Z" fill="#3378BC"/>
<path d="M23.8421 28.8841L23.8487 27.9475L24.7892 27.954L24.7826 28.8907L23.8421 28.8841ZM22.0239 30.8108L22.0305 29.8742L22.9711 29.8808L22.9645 30.8174L22.0239 30.8108ZM19.4912 31.7331L19.4978 30.7965L20.4384 30.803L20.4318 31.7397L19.4912 31.7331ZM24.3957 26.2902L24.4023 25.3535L25.3429 25.3601L25.3363 26.2967L24.3957 26.2902ZM12.4536 27.947L13.3962 27.9404L13.4028 28.875L12.4602 28.8816L12.4536 27.947ZM14.2933 29.866L15.2359 29.8594L15.2425 30.7941L14.2999 30.8006L14.2933 29.866ZM16.8132 30.785L17.7558 30.7784L17.7624 31.713L16.8198 31.7196L16.8132 30.785ZM11.9053 25.3569L12.8479 25.3503L12.8545 26.285L11.9119 26.2915L11.9053 25.3569Z" fill="#169BD6"/>
<path d="M25.8198 20.9503L25.8234 20.4407L26.3437 20.4445L26.3402 20.9541L25.8198 20.9503Z" fill="#00A8DA"/>
<path d="M26.4915 22.4827L26.495 21.9731L27.0154 21.9769L27.0118 22.4865L26.4915 22.4827Z" fill="#00A8DA"/>
<path d="M24.9099 19.5941L24.9135 19.0845L25.4338 19.0883L25.4303 19.5979L24.9099 19.5941Z" fill="#00A8DA"/>
<path d="M12.9854 18.4354L12.9889 17.9258L13.5092 17.9296L13.5057 18.4392L12.9854 18.4354Z" fill="#00A8DA"/>
<path d="M10 24.0938L10.0036 23.5842L10.5239 23.588L10.5203 24.0976L10 24.0938Z" fill="#00A8DA"/>
<path d="M23.7632 18.4354L23.7667 17.9258L24.2871 17.9296L24.2835 18.4392L23.7632 18.4354Z" fill="#00A8DA"/>
<path d="M10.2969 22.4825L10.3004 21.9729L10.8208 21.9767L10.8172 22.4863L10.2969 22.4825Z" fill="#00A8DA"/>
<path d="M15.9124 16.8646L15.9159 16.355L16.4362 16.3588L16.4327 16.8684L15.9124 16.8646Z" fill="#00A8DA"/>
<path d="M10.9287 20.9498L10.9323 20.4402L11.4526 20.444L11.449 20.9536L10.9287 20.9498Z" fill="#00A8DA"/>
<path d="M11.8586 19.575L11.8622 19.0654L12.3825 19.0692L12.379 19.5788L11.8586 19.575Z" fill="#00A8DA"/>
<path d="M14.3799 17.0058L14.8906 17.0023L14.8944 17.5195L14.3837 17.523L14.3799 17.0058ZM17.5342 16.0082L18.0449 16.0046L18.0487 16.5219L17.538 16.5254L17.5342 16.0082Z" fill="#00A8DA"/>
<path d="M22.3787 17.532L22.3822 17.0225L22.9026 17.0263L22.899 17.5358L22.3787 17.532Z" fill="#00A8DA"/>
<path d="M26.7498 24.075L26.7533 23.5654L27.2737 23.5692L27.2701 24.0788L26.7498 24.075Z" fill="#00A8DA"/>
<path d="M19.1948 16.5096L19.1984 16L19.7187 16.0038L19.7152 16.5134L19.1948 16.5096Z" fill="#00A8DA"/>
<path d="M20.8164 16.8455L20.82 16.3359L21.3403 16.3397L21.3367 16.8493L20.8164 16.8455Z" fill="#00A8DA"/>
<path d="M23.7627 31.3641L23.7663 30.8545L24.2866 30.8583L24.283 31.3679L23.7627 31.3641Z" fill="#00A8DA"/>
<path d="M26.7498 25.7051L26.7533 25.1956L27.2737 25.1994L27.2701 25.7089L26.7498 25.7051Z" fill="#00A8DA"/>
<path d="M12.9849 31.3638L12.9884 30.8542L13.5088 30.8581L13.5052 31.3676L12.9849 31.3638Z" fill="#00A8DA"/>
<path d="M26.4915 27.3365L26.495 26.8269L27.0154 26.8307L27.0118 27.3403L26.4915 27.3365Z" fill="#00A8DA"/>
<path d="M20.8159 32.9559L20.8195 32.4463L21.3398 32.4501L21.3363 32.9597L20.8159 32.9559Z" fill="#00A8DA"/>
<path d="M25.8188 28.8694L25.8224 28.3599L26.3427 28.3637L26.3392 28.8733L25.8188 28.8694Z" fill="#00A8DA"/>
<path d="M24.9099 30.2444L24.9135 29.7349L25.4338 29.7387L25.4303 30.2483L24.9099 30.2444Z" fill="#00A8DA"/>
<path d="M22.3573 31.8004L22.868 31.7969L22.8718 32.3141L22.3611 32.3177L22.3573 31.8004ZM19.2224 32.7591L19.7331 32.7556L19.7369 33.2728L19.2262 33.2764L19.2224 32.7591Z" fill="#00A8DA"/>
<path d="M14.3899 32.327L14.3934 31.8174L14.9138 31.8212L14.9102 32.3308L14.3899 32.327Z" fill="#00A8DA"/>
<path d="M10.9094 28.8492L10.913 28.3396L11.4333 28.3434L11.4298 28.853L10.9094 28.8492Z" fill="#00A8DA"/>
<path d="M10.2964 27.3362L10.2999 26.8267L10.8203 26.8305L10.8167 27.34L10.2964 27.3362Z" fill="#00A8DA"/>
<path d="M11.8381 30.244L11.8417 29.7344L12.362 29.7382L12.3585 30.2478L11.8381 30.244Z" fill="#00A8DA"/>
<path d="M10 25.7049L10.0036 25.1953L10.5239 25.1991L10.5203 25.7087L10 25.7049Z" fill="#00A8DA"/>
<path d="M17.5535 33.2701L17.557 32.7605L18.0774 32.7643L18.0738 33.2739L17.5535 33.2701Z" fill="#00A8DA"/>
<path d="M15.8931 32.9366L15.8966 32.427L16.417 32.4308L16.4134 32.9404L15.8931 32.9366Z" fill="#00A8DA"/>
</svg>
