<svg width="80" height="50" viewBox="0 0 80 50" fill="none" xmlns="http://www.w3.org/2000/svg">
<rect width="80" height="50" fill="black"/>
<path d="M11.8756 33.6335C11.8756 33.6335 8.72762 26.1041 14.3696 20.4892C19.4952 15.3921 27.2279 14.6043 28.5697 14.5668C28.5697 14.5668 30.6466 21.3819 25.462 29.1091C20.2837 36.837 13.1063 34.7407 13.1063 34.7407C13.1063 34.7407 20.1956 25.6939 19.3376 25.755C18.7427 25.7911 15.0179 29.8907 11.8756 33.6405" fill="#90BA24"/>
<path d="M51.8727 19.1739L52.0254 19.7132L52.5294 21.1827H51.2146L51.7186 19.7139L51.8713 19.1739H51.8727ZM52.5842 17.3504H51.1681L48.7289 24.0627H49.6174C49.8534 24.0627 50.0339 24.0336 50.1727 23.9239C50.3116 23.8142 50.4018 23.6615 50.4782 23.4498L50.8516 22.3961H52.875L53.2499 23.4498C53.3193 23.6629 53.4123 23.8226 53.5608 23.9253C53.7094 24.028 53.8906 24.0641 54.1266 24.0641H55.0061L52.5842 17.3504ZM42.0644 22.6731L41.9589 22.7237L42.0631 22.671L41.2426 21.0189C41.1315 20.8024 41.0114 20.6746 40.9163 20.6024C41.0038 20.5219 41.1197 20.3907 41.2308 20.188L42.7857 17.342H41.203L39.8654 19.8389C39.8358 19.8952 39.7863 19.9385 39.7266 19.9604C39.671 19.9833 39.5711 19.9881 39.4489 19.9867H38.8755V18.0876C38.8755 17.8585 38.827 17.6676 38.6951 17.5343C38.5632 17.401 38.3709 17.3497 38.137 17.3497H37.4255V24.0621H38.8748V21.2334H39.3746C39.501 21.2334 39.6065 21.2376 39.6787 21.2591C39.713 21.2676 39.7451 21.2838 39.7723 21.3064C39.7996 21.329 39.8214 21.3574 39.8362 21.3896L40.8934 23.5137C41.0024 23.7358 41.126 23.883 41.296 23.967C41.4661 24.0509 41.657 24.0627 41.9027 24.0641H42.7808L42.6906 23.892L42.0624 22.6731H42.0644ZM48.209 17.3559H47.6349C47.4059 17.3552 47.2136 17.4073 47.0796 17.5399C46.9457 17.6725 46.895 17.864 46.8957 18.0938V20.1027H44.7452V18.0938C44.7452 17.8647 44.6966 17.6745 44.5647 17.5406C44.4329 17.4066 44.2399 17.3559 44.006 17.3566H43.3139V24.069H44.7438V21.35H46.8943V24.0627H48.3242V17.3504L48.209 17.3559ZM60.521 17.349H59.9463C59.7117 17.349 59.5201 17.4004 59.3882 17.5336C59.2563 17.6669 59.2077 17.8578 59.2077 18.0869V21.0522L59.2188 21.3688L58.9301 20.869L56.7969 17.3497H55.4191V24.0621H56.1132C56.3451 24.0621 56.5297 24.0135 56.6685 23.8816C56.8074 23.7497 56.849 23.5574 56.849 23.3235V20.3664L56.8386 20.0541C56.9262 20.2251 57.023 20.3913 57.1287 20.5518L59.2695 24.0607H60.637V17.3469L60.521 17.349ZM33.0787 30.5808L32.1972 28.1998C32.0827 27.8875 31.9404 27.3377 31.9404 27.3377H31.9216L31.6648 28.1998L30.7922 30.5808H33.0787ZM31.5808 26.6241H32.2992L34.8287 33.2893H34.6315C34.1574 33.2893 34.029 33.1942 33.8576 32.7395L33.2662 31.1659H30.6284L30.0273 32.7395C29.8565 33.1942 29.7371 33.2893 29.2623 33.2893H29.0701L31.5808 26.6241ZM44.4641 30.5808L43.5825 28.1998C43.4687 27.8875 43.3257 27.3377 43.3257 27.3377H43.307L43.0501 28.1998L42.1783 30.5808H44.4641ZM42.9661 26.6241H43.6832L46.2126 33.2893H46.0155C45.5414 33.2893 45.413 33.1942 45.2422 32.7395L44.6508 31.1659H42.0131L41.4119 32.7395C41.2412 33.1942 41.1218 33.2893 40.6484 33.2893H40.454L42.9661 26.6241ZM57.5917 26.6172H58.2651L60.0282 30.4947L60.3614 31.2811H60.3801L60.7022 30.4947L62.4653 26.6172H63.1386L63.719 33.2824H63.5274C63.1199 33.2824 62.9776 33.1109 62.9491 32.7034L62.6368 28.6552L62.6076 27.725H62.5889C62.5889 27.725 62.4084 28.313 62.2474 28.6552L60.6647 32.0392H60.0678L58.4934 28.6552C58.3407 28.3234 58.1429 27.707 58.1429 27.707H58.1235L58.0957 28.6552L57.7833 32.7034C57.7556 33.1109 57.6126 33.2824 57.2051 33.2824H57.0496L57.5917 26.6172ZM66.0242 30.3822L63.7023 26.6172H63.8994C64.3541 26.6172 64.5242 26.6831 64.8018 27.1482L65.9305 29.0349L66.3373 29.7846H66.3567L66.7642 29.0349L67.8921 27.1482C68.1698 26.6831 68.3468 26.6172 68.8029 26.6172H69L66.6795 30.3815V33.2831H66.0159L66.0242 30.3822Z" fill="white"/>
<path d="M39.7962 28.2353C39.5393 27.6883 38.8126 27.0552 37.747 27.0552C36.2685 27.0552 35.1301 28.2124 35.1301 29.8318C35.1301 31.4249 36.2581 32.7056 37.7679 32.7056C38.4898 32.7056 39.0687 32.4654 39.4296 32.1988C39.867 31.8767 40.3279 32.2495 40.3279 32.2495C40.3279 32.2495 39.4081 33.3296 37.7581 33.3296C35.8048 33.3296 34.4304 31.7747 34.4304 29.8311C34.4304 27.9062 35.843 26.4298 37.7207 26.4298C38.6689 26.4298 39.8378 26.8505 40.2807 27.8556C40.4889 28.3116 40.5146 28.5289 40.5146 28.5289C40.5146 28.5289 39.9607 28.5955 39.7885 28.229L39.7962 28.2353ZM48.6041 32.6938H47.4935C47.4651 32.6986 47.4359 32.6966 47.4084 32.6878C47.3809 32.6791 47.356 32.6639 47.3356 32.6435C47.3152 32.6231 47.3 32.5981 47.2912 32.5706C47.2825 32.5431 47.2804 32.5139 47.2853 32.4855V27.2052H48.6125C50.2437 27.2052 51.3335 28.1721 51.3335 29.9449C51.3335 31.7275 50.2527 32.6938 48.6125 32.6938H48.6041ZM48.6784 26.6165H46.621V32.6965C46.621 33.104 46.7924 33.2748 47.1992 33.2748H48.6777C50.688 33.2748 52.0235 32.06 52.0235 29.9373C52.0235 27.8341 50.6866 26.6096 48.6777 26.6096L48.6784 26.6165ZM55.7927 32.6938H53.4514C53.3125 32.6938 53.2431 32.6278 53.2431 32.4855V30.2205H55.7455V29.6326H53.2431V27.2052H56.3529V27.1968C56.3529 26.7803 56.1814 26.6179 55.774 26.6179H52.5788V32.6965C52.5788 33.104 52.7503 33.2748 53.157 33.2748H56.0398C56.4466 33.2748 56.6173 33.104 56.6173 32.6965V32.6868L55.7927 32.6938Z" fill="white"/>
</svg>
