<svg width="80" height="50" viewBox="0 0 80 50" fill="none" xmlns="http://www.w3.org/2000/svg">
<rect width="80" height="50" fill="black"/>
<path d="M24.8853 23.9512H28.2971V27.1307L30.1681 23.9512H33.9468L31.0486 28.1148L34.0202 32.7326H30.0947L28.2971 29.4017V32.7326H24.8853V23.9512Z" fill="#006FBA"/>
<path d="M24.0413 32.4677C23.491 32.7705 22.7573 32.9976 21.7668 32.9976C18.9786 32.9976 16.9976 31.1429 16.9976 28.342C16.9976 25.1625 19.5289 23.6863 21.6934 23.6863C22.3905 23.6863 23.3443 23.8755 24.0413 24.3676V27.4335C23.5277 26.7522 22.7573 26.4873 22.1703 26.4873C20.8863 26.4873 20.2993 27.3578 20.2993 28.4177C20.2993 29.5532 21.1064 30.1967 22.1703 30.1967C22.9408 30.1967 23.6011 29.856 24.078 29.4018C24.0413 29.4018 24.0413 32.4677 24.0413 32.4677Z" fill="#006FBA"/>
<path d="M12.4118 27.2442V25.9951H12.742C13.329 25.9951 13.5124 26.2979 13.5124 26.6008C13.5124 26.9036 13.3657 27.2064 12.742 27.2064L12.4118 27.2442ZM9 23.9133V32.7326H14.0627C16.4107 32.7326 16.9243 31.1807 16.9243 30.2723C16.9243 29.0611 16.1172 28.2283 15.0166 28.0391V28.0012C15.7136 27.7741 16.5207 27.1685 16.5207 26.1465C16.5207 25.4652 16.2639 23.9133 13.8059 23.9133C13.8059 23.9133 9 23.9133 9 23.9133ZM12.4118 30.5751V29.2503H12.8154C13.1456 29.2503 13.6592 29.326 13.6592 29.8938C13.6592 30.4994 13.1089 30.5751 12.8154 30.5751H12.4118Z" fill="#006FBA"/>
<path d="M53.9775 25.0868L52.987 25.1246L52.9136 24.8597L51.9598 24.8218V24.6326H50.9692L51.116 24.9732L51.5562 25.0489L51.5195 24.8975L51.9231 25.2003L52.5834 25.3517H53.0237L54.161 25.2003L53.9775 25.0868Z" fill="#52B9E9"/>
<path d="M51.4829 24.2162L51.006 24.1405C51.006 24.1405 51.006 23.989 50.8226 23.8755C50.6391 23.7998 50.6758 23.8755 50.6758 23.8755L50.4924 23.7619L50.1622 23.7241L50.1255 23.497L49.722 23.4591V23.3456L49.3918 23.3077L49.2451 23.1942L49.2817 23.0428L49.2084 22.9292L48.8048 22.74L48.4746 22.6264L48.2545 22.3615L47.9977 22.1343L47.6675 21.7937L46.8238 21.4909L46.0533 20.9231L45.7232 20.7717L45.393 20.6203L44.6959 20.2418L43.632 19.6362L41.3208 18.5006L40.6604 18.1978C40.2936 18.0464 40.2202 17.9329 40.2202 17.895C39.89 17.8193 39.78 17.7436 39.5965 17.5922C39.4131 17.5922 39.0096 17.3651 38.8995 17.2516C38.8995 17.2516 38.2025 17.0623 38.1658 16.9866C38.1658 16.9488 36.4048 16.3053 36.1847 16.2674C36.038 16.2674 35.5977 16.1917 35.5243 16.1539C35.451 16.1539 35.1942 16.0782 35.0841 16.0403C34.7172 16.0025 34.3504 15.9268 33.9835 15.9268C33.7267 15.9268 33.5433 15.9268 33.3232 15.8511C33.2498 15.8889 32.6995 15.8132 32.4794 15.9646C32.2593 15.9646 31.7456 16.0782 31.5989 16.1539C31.3054 16.1539 30.7918 16.4945 30.6084 16.5702C30.535 16.6081 30.4249 16.6459 30.3516 16.6838C30.9019 16.8731 31.5255 17.1002 31.5255 17.138C31.5622 17.1759 32.2593 17.3651 32.2593 17.403C32.4427 17.5544 32.8462 17.7815 33.0297 17.7815C33.2131 17.9707 33.3232 18.0086 33.6533 18.0843C33.6533 18.1221 33.7267 18.2357 34.0936 18.3871L34.7539 18.6899L37.0652 19.8254L38.1291 20.4311L38.8261 20.8096L39.1563 20.961L39.4865 21.1124L39.7433 21.3016L40.2569 21.4909L41.3942 21.8694L42.7883 22.3993L43.3019 22.5886L43.8155 22.74L44.0723 22.7021L44.3291 22.7778L44.6226 23.0428L44.9161 22.9292L45.1362 22.9671L45.2829 23.1942L45.393 23.3077L45.6498 23.3834L45.9066 23.4213L46.2001 23.3456L46.567 23.3834L46.677 23.6105L47.1906 23.6862L47.5575 23.7241L47.9243 23.7619L48.2178 23.8755L48.4746 24.1405L48.8415 24.2162L49.7954 24.3676L50.6391 24.254L51.1894 24.2919L51.4829 24.2162Z" fill="#52B9E9"/>
<path d="M43.8152 25.6167H44.8424V25.806L45.7596 25.8817L45.8696 26.1088L46.8235 26.0709L47.0436 26.2223L45.9063 26.3737L45.4661 26.3359L44.8057 26.1845L44.4022 25.9195L44.4389 26.0331L43.9986 25.9952L43.8152 25.6167Z" fill="#006FBA"/>
<path d="M43.9254 25.2003C43.9254 25.2003 43.9254 25.0489 43.742 24.9353C43.5585 24.8596 43.5952 24.9353 43.5952 24.9353L43.4118 24.8218L43.1183 24.7461V24.519L42.7148 24.4811V24.3676L42.3846 24.3297L42.2378 24.2161L42.2745 24.0647L42.2011 23.9512L41.7976 23.7619L41.4674 23.6484L41.2473 23.3834L40.9905 23.1563L40.6603 22.8157L39.8165 22.5129L39.0461 21.9451L38.7159 21.7937L38.3858 21.6423L37.6887 21.2638L36.6248 20.6582L34.3136 19.5226L33.6532 19.2198C33.2864 19.0684 33.213 18.9549 33.213 18.917C32.8828 18.8413 32.7727 18.7656 32.5893 18.6142C32.4059 18.6142 32.0023 18.3871 31.8923 18.2735C31.8923 18.2735 31.1952 18.0843 31.1585 18.0086C31.1585 17.9707 29.3976 17.3273 29.1775 17.2894C29.0307 17.2894 28.5905 17.2137 28.5171 17.1759C28.4437 17.1759 28.1869 17.1002 28.0769 17.0623C27.71 17.0245 27.3432 16.9487 26.9763 16.9487C26.7195 16.9487 26.5361 16.9487 26.3159 16.873C26.2426 16.9109 25.6923 16.8352 25.4722 16.9866C25.252 16.9866 24.7384 17.1002 24.5917 17.1759C24.2982 17.1759 23.7846 17.5165 23.6011 17.5922C23.4544 17.6679 23.271 17.7436 23.1242 17.8193C23.0508 17.8572 22.097 18.3492 22.0236 18.4249C22.0236 18.4628 21.0698 19.0306 20.9964 19.1063C20.9597 19.1441 20.7029 19.2577 20.6295 19.3334C20.5562 19.4091 20.2994 19.6362 20.226 19.674C20.1893 19.7497 19.9325 19.8633 19.8958 19.939C19.8224 20.0147 19.529 20.1661 19.4923 20.2039C19.4923 20.2039 19.3088 20.3553 19.1988 20.4689C19.1621 20.5446 19.0887 20.6203 19.052 20.696C18.9787 20.7339 18.7219 20.8853 18.6485 20.9231C18.6485 21.0745 18.6485 21.3395 18.4284 21.2638C18.4284 21.2638 18.1349 21.453 18.1349 21.4152C18.1716 21.4152 17.9881 21.6801 17.8414 21.8694C17.768 21.9829 17.3278 22.1343 17.2544 22.2479C17.071 22.475 16.8875 22.7021 16.7041 22.9292C16.7041 22.9292 16.7041 22.9292 16.7408 22.9292C16.7408 22.9671 16.8875 22.9671 16.9242 23.0049C16.9609 23.0806 16.8508 23.1563 16.8508 23.2699C16.8508 23.2699 16.8508 23.2699 16.8875 23.2699C16.9976 23.2699 17.1443 23.1185 17.2544 23.0806C17.3278 23.0428 17.4378 23.0049 17.5112 22.9671C17.6579 22.8914 17.8047 22.7778 17.9881 22.7021C19.1254 22.0586 20.2994 21.453 21.4366 20.8096C21.9869 20.5067 22.4272 20.2418 23.0508 19.9011C23.1976 19.8254 23.7479 19.4469 24.1514 19.4091C24.665 19.3712 25.3254 19.5226 25.4722 19.5983C25.6189 19.674 26.0224 19.8633 26.2426 19.9011C26.3159 19.939 26.426 20.0147 26.4627 20.0147C26.4994 20.0525 26.8662 20.0904 27.0497 20.1661C27.123 20.2039 27.1964 20.2418 27.2698 20.2796C27.6 20.3932 28.4071 20.5824 28.7006 20.6582C28.9574 20.7339 29.1041 20.8853 29.2142 20.9231C29.3976 21.0367 29.4343 20.9988 29.6177 21.0745C29.9479 21.1124 30.1313 21.2259 30.1313 21.2259C30.2414 21.2638 30.2781 21.3016 30.3881 21.3395C30.4615 21.3395 30.6449 21.4909 30.6816 21.4909C30.755 21.4909 31.2686 21.6801 31.342 21.6801C31.4153 21.6801 31.7822 21.8315 31.8556 21.8694C31.9656 21.9072 32.0757 21.9451 32.1858 21.9829L33.2497 22.3993L34.3869 22.7778L35.781 23.3077L36.2946 23.497L36.8082 23.6484L37.0651 23.6105L37.3219 23.6862L37.6153 23.9512L37.9088 23.8376L38.129 23.8755L38.2757 24.1026L38.3858 24.2161L38.6426 24.2919L38.8994 24.3297L39.1929 24.254L39.5597 24.2919L39.6698 24.519L40.1834 24.5947L40.5503 24.6325L40.9171 24.6704L41.2106 24.7839L41.4674 25.0489L41.8343 25.1246L42.7881 25.276L43.6319 25.1624L44.1822 25.2003L44.3656 25.0489L43.9254 25.2003Z" fill="#006FBA"/>
<path d="M36.8817 32.392C36.7349 32.4677 36.5148 32.5434 36.2213 32.5434C35.7444 32.5434 35.4509 32.392 35.2308 32.1649C34.9006 31.8621 34.7905 31.5214 34.7905 31.1051C34.7905 30.613 35.0106 30.2345 35.2308 30.0453C35.4876 29.7803 35.8544 29.6667 36.2213 29.6667C36.4047 29.6667 36.6615 29.7046 36.8817 29.8182V30.4616C36.6248 30.1588 36.3314 30.1588 36.2213 30.1588C35.671 30.1588 35.3041 30.613 35.3041 31.1051C35.3041 31.7107 35.7811 32.0514 36.2213 32.0514C36.4781 32.0514 36.6982 31.9378 36.845 31.7486C36.8817 31.7864 36.8817 32.392 36.8817 32.392Z" fill="#006FBA"/>
<path d="M38.4225 32.5055H37.8722V30.2345H37.2485V29.7803H39.0095V30.2345H38.3858L38.4225 32.5055Z" fill="#006FBA"/>
<path d="M40.1101 30.1966H40.2935C40.4036 30.1966 40.5503 30.1966 40.6604 30.2723C40.7338 30.348 40.8071 30.4238 40.8071 30.5752C40.8071 30.6887 40.7705 30.8023 40.6604 30.878C40.5503 31.0294 40.4403 31.0294 40.3302 31.0294H40.1101V30.1966ZM39.5598 29.7424V32.5056H40.1101V31.4836H40.4403C40.7705 31.4836 40.9906 31.4079 41.1373 31.2565C41.3574 31.0294 41.3574 30.7644 41.3574 30.6509C41.3574 30.4616 41.2841 30.1966 41.064 29.9695C40.8805 29.7803 40.6604 29.7424 40.3302 29.7424H39.5598Z" fill="#006FBA"/>
<path d="M42.4947 31.4836L42.8982 30.4995L43.2651 31.4836H42.4947ZM43.6687 32.5056H44.219L43.0817 29.7046H42.6781L41.5042 32.5056H42.0911L42.3479 31.9378H43.4485L43.6687 32.5056Z" fill="#006FBA"/>
<path d="M45.4297 31.0672L44.6226 29.7803H45.2462L45.7232 30.613L46.2368 29.7803H46.8604L46.0167 31.0672L46.9338 32.5055H46.3101L45.7232 31.4836L45.0995 32.5055H44.4758L45.4297 31.0672Z" fill="#006FBA"/>
<path d="M48.9147 32.0892C48.3644 32.0892 47.9976 31.7107 47.9976 31.1429C47.9976 30.5752 48.3644 30.1967 48.9147 30.1967C49.465 30.1967 49.8319 30.5752 49.8319 31.1429C49.8319 31.6728 49.4283 32.0892 48.9147 32.0892ZM48.9147 29.7046C48.0709 29.7046 47.4473 30.3102 47.4473 31.1429C47.4473 31.9757 48.0342 32.5813 48.9147 32.5813C49.7585 32.5813 50.3822 31.9757 50.3822 31.1429C50.3822 30.3102 49.7585 29.7046 48.9147 29.7046Z" fill="#006FBA"/>
<path d="M51.593 30.1967H51.7397C51.9598 30.1967 52.1433 30.2724 52.1433 30.5373C52.1433 30.878 51.8131 30.878 51.7397 30.878H51.593V30.1967ZM51.0793 29.7424V32.5056H51.9965C52.2166 32.5056 52.4734 32.4677 52.6935 32.2785C52.877 32.1271 52.9137 31.8999 52.9137 31.7107C52.9137 31.5593 52.877 31.37 52.7302 31.1808C52.6569 31.1051 52.5468 31.0294 52.3634 30.9915C52.4367 30.9537 52.6569 30.8023 52.6569 30.4616C52.6569 30.2345 52.5468 30.0074 52.4001 29.8938C52.1799 29.7046 51.8864 29.7046 51.7397 29.7046L51.0793 29.7424ZM51.593 31.2943H51.7764C51.8864 31.2943 52.0332 31.2943 52.1433 31.3322C52.3267 31.4079 52.3267 31.5593 52.3267 31.635C52.3267 31.7485 52.29 31.8621 52.1433 31.9378C52.0332 32.0135 51.8864 32.0135 51.7764 32.0135H51.5563V31.2943H51.593Z" fill="#006FBA"/>
<path d="M54.9313 32.0892C54.381 32.0892 54.0142 31.7107 54.0142 31.1429C54.0142 30.5752 54.381 30.1967 54.9313 30.1967C55.4449 30.1967 55.8485 30.5752 55.8485 31.1429C55.8485 31.6728 55.4816 32.0892 54.9313 32.0892ZM54.9313 29.7046C54.0875 29.7046 53.4639 30.3102 53.4639 31.1429C53.4639 31.9757 54.0508 32.5813 54.9313 32.5813C55.7751 32.5813 56.3988 31.9757 56.3988 31.1429C56.3988 30.3102 55.7751 29.7046 54.9313 29.7046Z" fill="#006FBA"/>
<path d="M57.6094 29.7424V31.5971L59.1135 29.7045H59.4804V32.5055H58.9301V30.6508L57.4259 32.5434H57.0591V29.7424C57.0958 29.7424 57.6094 29.7424 57.6094 29.7424ZM57.9396 28.8718C58.0129 29.0989 58.2697 29.0989 58.3064 29.0989C58.3431 29.0989 58.5999 29.0989 58.6733 28.8718L59.0401 29.0232C58.9301 29.2882 58.6733 29.4774 58.3064 29.4774C57.9396 29.4774 57.6827 29.2882 57.5727 29.0232L57.9396 28.8718Z" fill="#006FBA"/>
<path d="M62.2687 30.1966H63.0758V32.0135H61.9752C62.0486 31.9378 62.122 31.8242 62.1954 31.6728C62.2321 31.5593 62.3054 31.3322 62.3054 30.9158V30.1966H62.2687ZM61.7551 29.7424V30.9537C61.7551 31.3322 61.7184 31.5214 61.6451 31.6728C61.5717 31.8621 61.425 32.0513 61.2048 32.0513V33.149H61.6818V32.5434H63.3693V33.149H63.8463V32.0513H63.5528V29.7803H61.7551V29.7424Z" fill="#006FBA"/>
<path d="M65.7538 32.0892C65.2035 32.0892 64.8367 31.7107 64.8367 31.1429C64.8367 30.5752 65.2035 30.1967 65.7538 30.1967C66.3041 30.1967 66.671 30.5752 66.671 31.1429C66.671 31.6728 66.3041 32.0892 65.7538 32.0892ZM65.7538 29.7046C64.91 29.7046 64.2864 30.3102 64.2864 31.1429C64.2864 31.9757 64.8734 32.5813 65.7538 32.5813C66.5976 32.5813 67.2213 31.9757 67.2213 31.1429C67.2213 30.3102 66.6343 29.7046 65.7538 29.7046Z" fill="#006FBA"/>
<path d="M67.7715 32.5056L68.2851 29.7046H68.652L69.3857 31.4836L70.1561 29.7046H70.523L70.9999 32.5056H70.4496L70.1928 30.8023L69.4591 32.5434H69.3123L68.5786 30.8023L68.2851 32.5056H67.7715Z" fill="#006FBA"/>
</svg>
