<svg width="80" height="50" viewBox="0 0 80 50" fill="none" xmlns="http://www.w3.org/2000/svg">
<rect width="80" height="50" fill="black"/>
<path fill-rule="evenodd" clip-rule="evenodd" d="M35.9536 28.372V21.3966H33.4768V22.2211C33.4768 23.6697 33.412 24.7097 33.3472 25.2817C33.2644 26.3403 33.1168 27.618 32.1808 28.2049C31.7757 28.4218 31.3268 28.5376 30.8704 28.5429L30.64 27.5326C30.8056 27.4991 31.216 27.4323 31.4608 27.2986C31.8028 27.1129 32.0656 26.6114 32.1988 25.7349C32.2636 25.2966 32.3608 24.4906 32.3608 22.1543V20.3714H37.12V28.372H35.9536ZM50.8072 28.5429V24.6986H47.5528V28.5429H46.48V20.3714H47.5528V23.6994H50.8072V20.3714H51.88V28.5429H50.8072ZM59.0728 28.5429V22.0874H59.0584L56.0344 28.5429H54.76V20.3714H55.8292V26.8454H55.8616L58.8856 20.3714H60.16V28.5429H59.0728ZM64.8616 21.3669V28.5429H63.7384V21.3669H61.6V20.3714H67V21.3669H64.8616ZM40.6984 20.3714L38.2 28.5429H39.2944L39.9316 26.4406H43.2148L43.8268 28.5429H45.04L42.4768 20.3714H40.6984ZM40.2016 25.4637L41.5336 20.7577H41.5552L42.9232 25.4637H40.2016ZM21.3988 24.9771C21.586 25.2446 21.7588 25.512 21.9136 25.7794C21.748 25.9577 21.5896 26.1434 21.4456 26.344L21.3772 26.4406L21.2512 26.6263C21.0964 26.3291 20.92 26.032 20.7184 25.7163C20.9262 25.4496 21.1549 25.2012 21.4024 24.9734L21.3988 24.9771ZM22.342 26.5891C22.5112 26.9309 22.648 27.2614 22.7704 27.5734C22.7524 27.5957 22.7344 27.618 22.7236 27.6403L22.6696 27.722C22.432 28.0749 22.2592 28.3794 22.108 28.7026C21.9906 28.2908 21.8438 27.8885 21.6688 27.4991C21.8626 27.173 22.0882 26.868 22.342 26.5891ZM20.2108 28.6691C20.056 28.2383 19.8868 27.8446 19.6708 27.4434C19.822 27.1203 20.002 26.7823 20.2144 26.4406C20.4304 26.786 20.6068 27.1203 20.7544 27.4434C20.5419 27.8364 20.3601 28.2463 20.2108 28.6691ZM19.174 26.6226L19.03 26.4071L18.9616 26.3106C18.8248 26.1211 18.6736 25.9391 18.5188 25.772C18.6772 25.5046 18.8464 25.2371 19.0372 24.966C19.264 25.1777 19.4908 25.4229 19.714 25.7126C19.5124 26.0246 19.3324 26.3254 19.174 26.6226ZM18.5872 27.9077C18.4827 28.1655 18.3902 28.4283 18.31 28.6951C18.1262 28.2985 17.9068 27.9205 17.6548 27.566C17.7772 27.2503 17.9176 26.9197 18.0868 26.578C18.336 26.8613 18.5601 27.1671 18.7564 27.4917C18.6952 27.6291 18.6412 27.7666 18.5872 27.9077ZM20.2216 23.5731C20.4376 23.7886 20.6536 24.0189 20.8552 24.264C20.6263 24.4894 20.4134 24.7315 20.218 24.9883C20.02 24.7283 19.8076 24.4831 19.5844 24.2603C19.7896 24.0151 20.0056 23.7849 20.2216 23.5731ZM27.4 20.8543V20.0371C26.212 20.0483 22.81 20.26 20.2252 22.3771C17.6296 20.2229 14.188 20.0074 13 20V20.8171C14.0728 20.7837 17.0032 20.91 19.5592 22.9826C19.3432 23.2054 19.1344 23.4394 18.94 23.6957C18.2794 23.1898 17.5406 22.803 16.7548 22.5517C15.5401 22.1553 14.274 21.9524 13 21.95V22.8043C13.1368 22.8043 13.2988 22.8043 13.4896 22.8154C14.4544 22.8674 16.5496 23.12 18.0976 24.2194C18.2056 24.29 18.3064 24.3643 18.4108 24.4423C18.2308 24.7097 18.0688 24.9697 17.9176 25.2223C17.3632 24.7951 16.7296 24.4794 16.06 24.3049C15.0622 24.0286 14.0331 23.8912 13 23.8963L13 24.7989L13.1944 24.8063C13.8388 24.8434 15.9124 24.992 17.0392 25.7609C17.176 25.85 17.3164 25.9391 17.464 26.0431C17.3128 26.3403 17.1796 26.6263 17.0644 26.8974C16.5842 26.4629 15.9978 26.1726 15.3688 26.058C14.5804 25.8723 13.558 25.8463 13 25.8463V26.8009C13.5184 26.8231 15.322 26.9011 15.9808 27.3023C16.1788 27.4137 16.4308 27.5029 16.7188 27.7703C16.5748 28.1937 16.4668 28.5651 16.3948 28.8771C16.2103 28.5716 15.9581 28.3156 15.6589 28.1302C15.3597 27.9449 15.0222 27.8355 14.674 27.8111C14.1163 27.7861 13.558 27.7799 13 27.7926V28.7806C13.6012 28.7731 14.7136 28.7694 14.9188 28.8437C15.0772 28.8994 15.3904 28.8251 15.8044 29.5011C16.0492 29.8986 16.1284 30.2403 16.1788 30.4669C16.1968 30.5411 16.204 31.0314 16.204 31.5663L16.1968 33H17.0284C17.032 32.7771 17.0644 30.7454 17.0284 30.3889L17.0104 30.3183V29.9097C17.0104 29.9097 17.0788 29.3786 17.3164 28.5651C17.536 28.9514 17.6692 29.3006 17.7628 29.5866C17.932 29.9951 17.986 30.6526 18.0004 31.1206L17.9932 33H18.8248C18.8248 32.8329 18.8248 31.7854 18.832 31.3657C18.832 31.1577 18.832 30.8829 18.8104 30.5931V30.3926C18.8104 30.2626 18.8968 29.4491 19.2424 28.4611C19.2784 28.5429 19.3144 28.6246 19.3432 28.7063C19.5994 29.3304 19.7515 29.9947 19.7932 30.6711L19.7896 30.9237V33H20.6176C20.6159 32.2262 20.6159 31.4524 20.6176 30.6786C20.6645 29.9094 20.8539 29.1567 21.1756 28.4611C21.3964 29.0706 21.538 29.7076 21.5968 30.3554V30.6229C21.5752 30.9163 21.5752 31.1911 21.5752 31.3991L21.5824 33H22.414L22.4068 31.1503C22.406 30.2436 22.6477 29.3542 23.1052 28.58C23.332 29.3637 23.3932 29.88 23.3932 29.88V30.3517C23.3932 30.3777 23.3824 30.4 23.3788 30.426C23.3428 30.764 23.3716 32.6471 23.3788 33H24.2104L24.2032 31.5663C24.2032 31.0463 24.2104 30.5709 24.2284 30.5003C24.2949 30.1575 24.4218 29.8302 24.6028 29.5346C25.0168 28.866 25.33 28.9329 25.4884 28.8809C25.6936 28.8066 26.7952 28.8066 27.4 28.8177V27.8297C26.8444 27.8171 26.2885 27.8233 25.7332 27.8483C25.389 27.8723 25.0552 27.9797 24.7587 28.1617C24.4622 28.3436 24.2115 28.5951 24.0268 28.8957C23.9392 28.522 23.831 28.1536 23.7028 27.7926C23.9872 27.5326 24.232 27.4509 24.4264 27.3357C25.0816 26.9383 26.8744 26.8603 27.4 26.838V25.8834C26.842 25.8834 25.8232 25.9094 25.0384 26.0951C24.4204 26.2072 23.8432 26.4896 23.368 26.9123C23.2492 26.6411 23.116 26.3551 22.9684 26.058L23.3644 25.798C24.4948 25.0291 26.5684 24.8769 27.2128 24.8434L27.4 24.8286V23.9371C26.7592 23.9371 25.4812 23.9966 24.3436 24.3457C23.6842 24.5177 23.064 24.8218 22.5184 25.2409C22.3634 24.9743 22.2001 24.7129 22.0288 24.4571L22.306 24.2566C23.854 23.1609 25.9528 22.9083 26.9212 22.8563C27.1012 22.8451 27.2668 22.8414 27.4 22.8414V21.9871C26.68 21.9909 25.15 22.0726 23.6524 22.5889C22.881 22.8362 22.1547 23.214 21.5032 23.7069C21.3119 23.4556 21.1063 23.2162 20.8876 22.99C23.4256 20.9471 26.32 20.8209 27.4 20.8543Z" fill="#009EDE"/>
</svg>
