<svg width="80" height="50" viewBox="0 0 80 50" fill="none" xmlns="http://www.w3.org/2000/svg">
<rect width="80" height="50" fill="black"/>
<path fill-rule="evenodd" clip-rule="evenodd" d="M33.2588 32.6225L32.8791 32.2471C32.8527 32.2121 32.7997 32.2121 32.7644 32.2383H32.7555C32.6496 32.3256 32.5083 32.3693 32.3582 32.3693C31.9962 32.3693 31.7049 32.0812 31.7049 31.7318C31.7049 31.3826 31.9962 31.0945 32.3582 31.0945C32.5083 31.0945 32.6407 31.1469 32.7555 31.2254C32.7555 31.2254 32.7644 31.2254 32.7644 31.2342C32.7997 31.2604 32.8438 31.2604 32.8791 31.2254L33.2588 30.85V30.8412C33.2941 30.8063 33.2941 30.7539 33.2588 30.719L33.25 30.7102C33.0116 30.5094 32.6937 30.3784 32.3582 30.3784C31.5989 30.3784 30.9897 30.9809 30.9897 31.7318C30.9897 32.4741 31.5989 33.0853 32.3582 33.0853C32.6937 33.0853 33.0116 32.9543 33.25 32.7535L33.2588 32.7447C33.2941 32.7185 33.2941 32.6574 33.2588 32.6225Z" fill="#7C7CFF"/>
<path fill-rule="evenodd" clip-rule="evenodd" d="M37.3197 31.4786C37.3373 31.3302 37.3815 31.208 37.4698 31.1119C37.558 31.0159 37.664 30.9635 37.8052 30.9635C37.8936 30.9635 37.9642 30.9809 38.026 31.0071C38.079 31.0333 38.1231 31.0683 38.1584 31.1119C38.1937 31.1556 38.2114 31.208 38.229 31.2691C38.2467 31.3302 38.2467 31.4001 38.2467 31.4699H37.3197V31.4786ZM38.8471 31.8454C38.9089 31.7842 38.9442 31.6707 38.9442 31.4961C38.9442 31.1381 38.8471 30.8674 38.6528 30.6666C38.4586 30.4745 38.1673 30.3784 37.7788 30.3784C37.5934 30.3784 37.4256 30.4134 37.2755 30.4657C37.1254 30.5269 36.993 30.6142 36.887 30.7364C36.7811 30.85 36.6928 30.9984 36.6398 31.1643C36.578 31.3302 36.5515 31.5223 36.5515 31.7406C36.5515 32.2034 36.6575 32.5352 36.8605 32.7535C37.0636 32.9631 37.3903 33.0766 37.8229 33.0766C37.9642 33.0766 38.1143 33.0591 38.2732 33.0242C38.4321 32.9893 38.5734 32.9369 38.697 32.8495C38.697 32.8495 38.7146 32.8321 38.7235 32.8321C38.75 32.8059 38.75 32.7709 38.7411 32.736L38.5822 32.3955V32.3868C38.5734 32.378 38.5734 32.3693 38.5645 32.3606C38.5469 32.3431 38.5116 32.3256 38.4851 32.3344C38.4763 32.3344 38.4586 32.3431 38.4498 32.3431C38.3615 32.378 38.2732 32.413 38.1673 32.4304C38.0701 32.4566 37.973 32.4653 37.8759 32.4653C37.7964 32.4653 37.7169 32.4566 37.6463 32.4392C37.5845 32.4217 37.5139 32.3955 37.4609 32.3518C37.4079 32.3082 37.3638 32.2558 37.3373 32.1859C37.3108 32.1161 37.2843 32.0288 37.2843 31.924H38.5557C38.697 31.9414 38.7853 31.9065 38.8471 31.8454Z" fill="#7C7CFF"/>
<path fill-rule="evenodd" clip-rule="evenodd" d="M21.5251 29.6798V29.6711C21.5251 29.6536 21.5163 29.6362 21.4986 29.6187C21.481 29.6012 21.4633 29.5925 21.4368 29.5925H21.428H18.8764H18.8676C18.8499 29.5925 18.8323 29.6012 18.8058 29.6187C18.7881 29.6362 18.7793 29.6536 18.7793 29.6711V29.6798V29.6886V30.1252C18.7793 30.1339 18.7793 30.1514 18.7881 30.1601C18.797 30.1776 18.797 30.1863 18.8146 30.195C18.8323 30.2125 18.8411 30.2212 18.8676 30.2212C18.8676 30.2212 18.8764 30.2212 18.8852 30.2212H19.7682V32.9281C19.7682 32.9368 19.7682 32.9368 19.7682 32.9456C19.7682 32.963 19.777 32.9805 19.7858 32.9892C19.7946 32.998 19.8123 33.0067 19.83 33.0154C19.8388 33.0154 19.8564 33.0154 19.8653 33.0154H20.4303H20.4392C20.4568 33.0154 20.4745 33.0067 20.4921 32.9892C20.5098 32.9718 20.5186 32.9543 20.5186 32.9281V32.9194V30.2125H21.4192C21.428 30.2125 21.4368 30.2125 21.4368 30.2125C21.4545 30.2125 21.4722 30.2038 21.4898 30.1863C21.4986 30.1776 21.5075 30.1689 21.5075 30.1514C21.5075 30.1427 21.5163 30.1252 21.5163 30.1165V29.6798H21.5251Z" fill="#7C7CFF"/>
<path fill-rule="evenodd" clip-rule="evenodd" d="M30.4073 30.536C30.4073 30.5186 30.3985 30.4924 30.3808 30.4749C30.3632 30.4575 30.3455 30.4487 30.3279 30.4487H30.319H30.3013H29.7804C29.7804 30.4487 29.754 30.4487 29.7451 30.4487C29.7274 30.4487 29.7186 30.4575 29.7098 30.4749C29.6921 30.4924 29.6833 30.5011 29.6833 30.5273C29.6745 30.536 29.6745 30.536 29.6745 30.5448V30.9203V31.3918H28.7474V30.5448C28.7474 30.5273 28.7386 30.5011 28.7209 30.4837C28.7033 30.4662 28.6856 30.4575 28.668 30.4575H28.6503H28.6415H28.1206C28.1206 30.4575 28.0941 30.4575 28.0853 30.4575C28.0676 30.4575 28.0588 30.4662 28.05 30.4837C28.0411 30.5011 28.0234 30.5099 28.0234 30.536C28.0234 30.5448 28.0234 30.5448 28.0234 30.5535V32.9461C28.0234 32.9548 28.0234 32.9548 28.0234 32.9635C28.0234 32.981 28.0323 32.9985 28.05 33.0072C28.0588 33.0247 28.0764 33.0247 28.0853 33.0334C28.0941 33.0334 28.1206 33.0421 28.1206 33.0421H28.6415H28.6503H28.668C28.6856 33.0421 28.7033 33.0334 28.7209 33.0159C28.7386 32.9985 28.7474 32.981 28.7474 32.9548V31.9594H29.6745V32.9548C29.6745 32.9635 29.6745 32.9635 29.6833 32.9723C29.6833 32.9897 29.6921 33.0072 29.7098 33.0159C29.7186 33.0334 29.7274 33.0334 29.7451 33.0421C29.754 33.0421 29.7716 33.0509 29.7804 33.0509H30.3013H30.319H30.3279C30.3455 33.0509 30.372 33.0421 30.3808 33.0247C30.3985 33.0072 30.4073 32.9897 30.4073 32.9635V32.9548V30.536Z" fill="#7C7CFF"/>
<path fill-rule="evenodd" clip-rule="evenodd" d="M36.4563 29.6798C36.4563 29.6711 36.4563 29.6711 36.4563 29.6711C36.4563 29.6536 36.4387 29.6362 36.4298 29.6187C36.4121 29.6012 36.3945 29.5925 36.368 29.5925H36.3592H33.8076H33.7988C33.7723 29.5925 33.7546 29.6012 33.7369 29.6187C33.7193 29.6362 33.7104 29.6536 33.7104 29.6711V29.6798V29.6886V30.1252C33.7104 30.1339 33.7104 30.1514 33.7193 30.1601C33.7281 30.1776 33.7281 30.1863 33.7369 30.195C33.7546 30.2125 33.7723 30.2212 33.7899 30.2212C33.7988 30.2212 33.7988 30.2212 33.8076 30.2212H34.6817V32.9281C34.6817 32.9368 34.6817 32.9368 34.6817 32.9456C34.6905 32.963 34.6905 32.9805 34.7081 32.9892C34.717 32.998 34.7258 33.0067 34.7435 33.0154C34.7523 33.0154 34.7788 33.0154 34.7788 33.0154H35.3438H35.3527H35.3615C35.3792 33.0154 35.3968 33.0067 35.4145 32.9892C35.4321 32.9718 35.4409 32.9543 35.4409 32.9281V32.9194V30.2125H36.3415C36.3504 30.2125 36.3504 30.2125 36.3592 30.2125C36.3768 30.2125 36.3945 30.2038 36.4033 30.1863C36.4121 30.1776 36.421 30.1689 36.4298 30.1514C36.4298 30.1427 36.4387 30.1252 36.4387 30.1165V29.6798H36.4563Z" fill="#7C7CFF"/>
<path fill-rule="evenodd" clip-rule="evenodd" d="M23.4328 32.2906C23.3268 32.4041 23.1944 32.4565 23.0266 32.4565C22.9737 32.4565 22.9119 32.4565 22.8412 32.4477C22.7706 32.439 22.6911 32.4303 22.6117 32.4041V31.0594C22.6647 31.0419 22.7353 31.0332 22.8059 31.0245C22.8765 31.0157 22.9383 31.007 22.9913 31.007C23.0884 31.007 23.1679 31.0157 23.2474 31.0419C23.318 31.0681 23.3798 31.103 23.4416 31.1642C23.4946 31.2165 23.5299 31.2951 23.5564 31.3824C23.5829 31.4698 23.6005 31.5833 23.6005 31.723C23.5917 31.9937 23.5387 32.1858 23.4328 32.2906ZM24.2804 31.2078C24.2362 31.0419 24.1656 30.9022 24.0685 30.7887C23.9714 30.6665 23.8389 30.5704 23.6712 30.5005C23.5122 30.4307 23.318 30.3958 23.0796 30.3958C22.903 30.3958 22.7176 30.4132 22.5146 30.4394C22.3556 30.4656 22.2055 30.5093 22.0643 30.5617H22.0554C21.9583 30.6053 21.8877 30.7014 21.8877 30.8149V33.9322V33.9497C21.8877 33.9671 21.8965 33.9846 21.9142 33.9933C21.923 34.002 21.9318 34.0108 21.9495 34.0195C21.9583 34.0195 21.976 34.0195 21.9848 34.0195H22.5057H22.5146H22.5234C22.541 34.0195 22.5587 34.0108 22.5764 33.9933C22.594 33.9758 22.6029 33.9584 22.6029 33.9322V33.9235V32.9979C22.7088 33.0241 22.8059 33.0328 22.8854 33.0415C22.9737 33.0503 23.062 33.059 23.1591 33.059C23.3621 33.059 23.5387 33.0241 23.6888 32.9542C23.8301 32.8844 23.9537 32.7883 24.0508 32.666C24.1479 32.5438 24.2185 32.4041 24.2716 32.2382C24.3157 32.081 24.3422 31.9064 24.3422 31.723C24.3422 31.5484 24.3157 31.3737 24.2804 31.2078Z" fill="#7C7CFF"/>
<path fill-rule="evenodd" clip-rule="evenodd" d="M57.3443 30.4487H57.1059C57.0618 30.4487 57.0265 30.4487 57 30.4575C56.9735 30.4662 56.947 30.4749 56.9205 30.4837C56.9029 30.4924 56.8764 30.5099 56.8588 30.536C56.8411 30.5622 56.8234 30.5884 56.7969 30.6146C56.691 30.798 56.5939 30.9465 56.5144 31.0687C56.435 31.1997 56.3643 31.3132 56.3025 31.4005C56.2849 31.4354 56.2672 31.4616 56.2495 31.4966C56.2319 31.5228 56.2054 31.5577 56.1789 31.6101C56.1524 31.6537 56.1171 31.7061 56.0729 31.776C56.0288 31.8458 55.9758 31.9332 55.914 32.0292H55.8875V30.5448V30.536C55.8875 30.5186 55.8787 30.5011 55.8611 30.4837C55.8434 30.4662 55.8169 30.4575 55.7992 30.4575H55.2518C55.2342 30.4575 55.2077 30.4662 55.1901 30.4837C55.1724 30.5011 55.1636 30.5186 55.1636 30.5448V32.7539C55.1636 32.9111 55.2872 33.0334 55.4461 33.0334H55.6756C55.7551 33.0334 55.8169 33.0247 55.8522 33.0072C55.8876 32.9897 55.9317 32.9461 55.9847 32.8762C56.0641 32.7539 56.1348 32.6404 56.223 32.5182C56.2937 32.396 56.3731 32.2825 56.4526 32.1602C56.5232 32.0467 56.5939 31.9332 56.6645 31.8196C56.7263 31.7061 56.8057 31.5926 56.8852 31.4791H56.9117V32.9373V32.9461C56.9117 32.9635 56.9205 32.9897 56.9382 33.0072C56.9558 33.0247 56.9735 33.0334 57 33.0334H57.0088H57.5474C57.5739 33.0334 57.5916 33.0247 57.6092 33.0072C57.6269 32.9897 57.6357 32.9723 57.6357 32.9461V30.7282C57.6269 30.5797 57.5032 30.4487 57.3443 30.4487Z" fill="#7C7CFF"/>
<path fill-rule="evenodd" clip-rule="evenodd" d="M53.7333 32.2737C53.7245 32.3086 53.7068 32.3348 53.6803 32.3698C53.6538 32.396 53.6273 32.4221 53.5832 32.4396C53.539 32.4571 53.4861 32.4658 53.4242 32.4658H52.7974V31.8982H53.4242C53.5302 31.8982 53.6097 31.9244 53.6626 31.9768C53.7156 32.0292 53.7421 32.0991 53.7421 32.1864C53.7421 32.2126 53.7421 32.2475 53.7333 32.2737ZM52.7974 30.9989H53.4066C53.4772 30.9989 53.5214 31.0251 53.5655 31.06C53.6008 31.1037 53.6185 31.1473 53.6185 31.2084C53.6185 31.287 53.6008 31.3394 53.5478 31.3743C53.4949 31.4092 53.4508 31.4267 53.3978 31.4267H52.7974V30.9989ZM54.4043 31.8808C54.3425 31.7672 54.2365 31.6799 54.0864 31.6188V31.5926C54.1836 31.5402 54.2542 31.4704 54.3072 31.3831C54.3601 31.287 54.3778 31.1997 54.3778 31.1037C54.3778 30.9901 54.3601 30.8853 54.316 30.798C54.2718 30.7107 54.21 30.6496 54.1306 30.5972C54.0511 30.5448 53.9628 30.5011 53.8569 30.4837C53.7509 30.4575 53.645 30.4487 53.5302 30.4487H52.3736C52.2235 30.4487 52.0911 30.571 52.0911 30.7282V32.7452C52.0911 32.8937 52.2147 33.0159 52.3559 33.0247H52.3736H52.3824H52.3912H53.539C53.6803 33.0247 53.8039 33.0072 53.9275 32.9635C54.0423 32.9286 54.1394 32.8675 54.2277 32.7976C54.316 32.7277 54.3778 32.6492 54.422 32.5444C54.4749 32.4483 54.5014 32.3348 54.5014 32.2213C54.4926 32.1166 54.4573 31.9943 54.4043 31.8808Z" fill="#7C7CFF"/>
<path fill-rule="evenodd" clip-rule="evenodd" d="M41.8321 32.8937L41.011 31.6537L41.735 30.5884V30.5797C41.7614 30.5448 41.7526 30.5011 41.7261 30.4749C41.7085 30.4575 41.6908 30.4487 41.6643 30.4487H41.1876H41.1787C41.0728 30.4487 40.9845 30.5099 40.9403 30.5972L40.6137 31.1822L40.3047 30.6146L40.2958 30.5972C40.2428 30.5186 40.1546 30.4575 40.0574 30.4575H40.031H39.5542C39.5277 30.4575 39.51 30.4662 39.4924 30.4837C39.4571 30.5186 39.4571 30.5535 39.4747 30.5884L40.1899 31.6712L39.3688 32.8937C39.3423 32.9286 39.3511 32.9723 39.3776 32.9985C39.3952 33.0159 39.4129 33.0247 39.4305 33.0247H39.4483H39.9074C39.9162 33.0247 39.925 33.0247 39.925 33.0247C40.0133 33.0247 40.1016 32.9723 40.1546 32.8937L40.5872 32.1602L41.0022 32.8937C41.0463 32.9723 41.1346 33.0247 41.2405 33.0247H41.7261C41.7791 33.0247 41.8144 32.9897 41.8144 32.9373C41.8409 32.9286 41.8321 32.9111 41.8321 32.8937Z" fill="#7C7CFF"/>
<path fill-rule="evenodd" clip-rule="evenodd" d="M60.4966 32.6225L60.1169 32.2471C60.0816 32.2121 60.0375 32.2121 60.0021 32.2383C59.8874 32.3256 59.7549 32.3693 59.6048 32.3693C59.2517 32.3693 58.9603 32.0812 58.9603 31.7318C58.9603 31.3826 59.2517 31.0945 59.6048 31.0945C59.7549 31.0945 59.8962 31.1469 60.0021 31.2254C60.0021 31.2254 60.0021 31.2254 60.0021 31.2342C60.0375 31.2604 60.0904 31.2604 60.1169 31.2254L60.4966 30.85V30.8412C60.5319 30.8063 60.5319 30.7539 60.4966 30.719L60.4877 30.7102C60.2493 30.5094 59.9403 30.3784 59.596 30.3784C58.8455 30.3784 58.2363 30.9809 58.2363 31.7318C58.2363 32.4741 58.8455 33.0853 59.596 33.0853C59.9403 33.0853 60.2493 32.9543 60.4877 32.7535L60.4966 32.7447C60.523 32.7185 60.523 32.6574 60.4966 32.6225Z" fill="#7C7CFF"/>
<path fill-rule="evenodd" clip-rule="evenodd" d="M46.6438 31.4786C46.6526 31.3302 46.7056 31.208 46.7939 31.1119C46.8822 31.0159 46.9882 30.9635 47.1294 30.9635C47.2177 30.9635 47.2883 30.9809 47.3501 31.0071C47.4031 31.0333 47.4473 31.0683 47.4826 31.1119C47.5179 31.1556 47.5356 31.208 47.5532 31.2691C47.5709 31.3302 47.5797 31.4001 47.5797 31.4699H46.6438V31.4786ZM48.1801 31.8454C48.2419 31.7842 48.2772 31.6707 48.2772 31.4961C48.2772 31.1381 48.1801 30.8674 47.9858 30.6666C47.7916 30.4745 47.5002 30.3784 47.1118 30.3784C46.9263 30.3784 46.7498 30.4134 46.6085 30.4657C46.4584 30.5269 46.326 30.6142 46.22 30.7364C46.1141 30.85 46.0258 30.9984 45.9728 31.1643C45.911 31.3302 45.8845 31.5223 45.8845 31.7406C45.8845 32.2034 45.9817 32.5352 46.1935 32.7535C46.3966 32.9631 46.7233 33.0766 47.1559 33.0766C47.2883 33.0766 47.4473 33.0591 47.6062 33.0242C47.7651 32.9893 47.9064 32.9369 48.03 32.8495C48.0388 32.8495 48.0564 32.8321 48.0564 32.8321C48.083 32.8059 48.0918 32.7709 48.0742 32.736L47.9152 32.3955V32.3868C47.9064 32.378 47.9064 32.3693 47.8975 32.3606C47.8799 32.3431 47.8534 32.3256 47.8181 32.3344C47.8093 32.3344 47.7916 32.3431 47.7827 32.3431C47.6945 32.378 47.5974 32.413 47.5002 32.4304C47.4031 32.4566 47.2972 32.4653 47.2089 32.4653C47.1206 32.4653 47.0499 32.4566 46.9793 32.4392C46.9087 32.4217 46.8469 32.3955 46.7939 32.3518C46.7409 32.3082 46.6968 32.2558 46.6703 32.1859C46.6438 32.1161 46.6173 32.0288 46.6173 31.924H47.8887C48.0211 31.9414 48.1095 31.9065 48.1801 31.8454Z" fill="#7C7CFF"/>
<path fill-rule="evenodd" clip-rule="evenodd" d="M50.4843 32.2905C50.3784 32.4041 50.246 32.4565 50.0782 32.4565C50.0252 32.4565 49.9635 32.4565 49.9016 32.4477C49.831 32.439 49.7515 32.4303 49.6633 32.4041V31.0593C49.7251 31.0419 49.7869 31.0331 49.8663 31.0244C49.937 31.0157 49.9988 31.007 50.0517 31.007C50.14 31.007 50.2283 31.0157 50.2989 31.0419C50.3784 31.0681 50.4402 31.103 50.4932 31.1641C50.5462 31.2165 50.5815 31.2951 50.6079 31.3824C50.6345 31.4698 50.6433 31.5833 50.6433 31.723C50.6433 31.9937 50.5903 32.1857 50.4843 32.2905ZM51.332 31.2078C51.2878 31.0419 51.2172 30.9022 51.12 30.7887C51.0229 30.6664 50.8905 30.5704 50.7316 30.5005C50.5726 30.4307 50.3784 30.3958 50.14 30.3958C49.9635 30.3958 49.778 30.4132 49.575 30.4394C49.4072 30.4656 49.2571 30.5093 49.1159 30.5617C49.1159 30.5617 49.1159 30.5617 49.107 30.5617C49.0099 30.6053 48.9304 30.7014 48.9304 30.8149V33.9321V33.9496C48.9393 33.9671 48.9393 33.9845 48.9569 33.9933C48.9746 34.002 48.9834 34.0107 48.9923 34.0195C49.0011 34.0195 49.0276 34.0195 49.0276 34.0195H49.5485H49.5573H49.5661C49.5838 34.0195 49.6014 34.0107 49.6191 33.9933C49.6367 33.9758 49.6456 33.9583 49.6456 33.9321V33.9234V32.9978C49.7515 33.024 49.8487 33.0328 49.937 33.0415C50.0252 33.0502 50.1135 33.0589 50.2195 33.0589C50.4137 33.0589 50.5903 33.024 50.7404 32.9542C50.8905 32.8843 51.0053 32.7883 51.1024 32.666C51.1995 32.5438 51.2701 32.4041 51.3143 32.2381C51.3673 32.081 51.3849 31.9063 51.3849 31.723C51.3938 31.5484 51.3761 31.3737 51.332 31.2078Z" fill="#7C7CFF"/>
<path fill-rule="evenodd" clip-rule="evenodd" d="M26.5119 32.4566C26.4766 32.4741 26.4413 32.4828 26.406 32.4915C26.3618 32.5003 26.3265 32.509 26.2912 32.509C26.247 32.5177 26.2205 32.5177 26.1852 32.5177C26.1499 32.5177 26.1234 32.5177 26.1058 32.5177C25.9733 32.5177 25.8674 32.4915 25.7879 32.4479C25.7085 32.4042 25.6731 32.3256 25.6731 32.2121C25.6731 32.1336 25.6908 32.0724 25.7173 32.0288C25.7438 31.9851 25.7879 31.9414 25.8321 31.924C25.8762 31.8978 25.9203 31.889 25.9822 31.8803C26.0351 31.8716 26.0881 31.8716 26.1322 31.8716H26.5296V32.4566H26.5119ZM26.9798 30.6054C26.8121 30.457 26.5472 30.3784 26.1852 30.3784C26.0175 30.3784 25.8585 30.3872 25.6996 30.4134C25.5318 30.4395 25.3817 30.4745 25.2317 30.5269H25.2228C25.214 30.5356 25.2052 30.5356 25.1963 30.5443C25.1699 30.5618 25.161 30.5967 25.1699 30.6229V30.6404L25.2494 30.9809C25.2582 30.9984 25.2582 31.0071 25.2758 31.0246C25.2935 31.0421 25.32 31.0508 25.3553 31.0508H25.3641C25.3641 31.0508 25.3729 31.0508 25.3817 31.0421C25.4347 31.0333 25.4789 31.0159 25.5407 31.0071C25.5937 30.9984 25.6643 30.9897 25.7173 30.9809C25.7791 30.9722 25.8409 30.9635 25.9027 30.9635C25.9645 30.9547 26.0175 30.9547 26.0792 30.9547C26.1675 30.9547 26.247 30.9635 26.3 30.9809C26.3529 30.9984 26.3971 31.0246 26.4324 31.0595C26.4677 31.0945 26.4854 31.1294 26.4942 31.1731C26.503 31.2167 26.5119 31.2604 26.5119 31.304V31.3826H25.9645C25.7879 31.3826 25.629 31.4001 25.4965 31.4524C25.3641 31.4961 25.2582 31.5572 25.1699 31.6358C25.0904 31.7144 25.0198 31.8104 24.9757 31.9152C24.9403 32.02 24.9138 32.1423 24.9138 32.2645C24.9138 32.378 24.9315 32.4828 24.9668 32.5876C25.0021 32.6836 25.0639 32.7709 25.1522 32.8495C25.2405 32.9281 25.3641 32.9805 25.5054 33.0242C25.6554 33.0679 25.8409 33.0853 26.0616 33.0853C26.1499 33.0853 26.2293 33.0766 26.3265 33.0766C26.4236 33.0679 26.5119 33.0591 26.6002 33.0504C26.6885 33.0417 26.7767 33.0155 26.865 32.998C26.9268 32.9805 26.9975 32.9543 27.0416 32.9369C27.1476 32.8932 27.2094 32.7971 27.2094 32.6836V31.2866C27.2359 30.9897 27.1476 30.7626 26.9798 30.6054Z" fill="#7C7CFF"/>
<path fill-rule="evenodd" clip-rule="evenodd" d="M45.5043 32.5706C45.5043 32.5444 45.4954 32.5269 45.4778 32.5095L45.0451 32.0816C45.0098 32.0467 44.948 32.0467 44.9127 32.0816C44.7449 32.2301 44.5242 32.3086 44.2682 32.3086C43.9945 32.3086 43.7384 32.1951 43.553 32.0205C43.3676 31.8458 43.2617 31.5926 43.2617 31.3219C43.2617 31.0512 43.3764 30.8067 43.553 30.6234C43.7296 30.44 43.9857 30.3265 44.2682 30.3265C44.5154 30.3265 44.7361 30.4138 44.9127 30.5622C44.948 30.5972 45.0098 30.5972 45.0363 30.5622L45.4689 30.1344C45.4778 30.1169 45.4954 30.0908 45.4954 30.0733C45.4954 30.0558 45.4866 30.0296 45.4689 30.0122C45.4689 30.0122 45.4689 30.0122 45.4601 30.0122C45.1422 29.7327 44.7273 29.5581 44.2682 29.5581C43.7737 29.5581 43.3235 29.7589 42.9968 30.082C42.6701 30.4051 42.467 30.8417 42.467 31.3307C42.467 31.8196 42.6701 32.265 42.988 32.5793C43.3146 32.9024 43.7649 33.0945 44.2505 33.0945C44.7096 33.0945 45.1334 32.9198 45.4424 32.6404C45.4513 32.6404 45.4513 32.6404 45.4513 32.6317C45.4954 32.6142 45.5043 32.588 45.5043 32.5706Z" fill="#7C7CFF"/>
<path fill-rule="evenodd" clip-rule="evenodd" d="M24.6238 21.1314C24.7298 21.1314 24.8181 21.0878 24.8799 21.0267L28.3143 17.63C28.4556 17.4902 28.4556 17.2632 28.3143 17.1148C28.3055 17.1148 28.2967 17.106 28.2967 17.0973C28.2967 17.0973 28.2879 17.0973 28.2879 17.0886C26.1866 15.2898 23.0611 15.2898 20.9598 17.0886C20.9509 17.0973 20.9421 17.106 20.9333 17.106C20.9333 17.106 20.9333 17.1148 20.9244 17.1148C20.8626 17.1759 20.8273 17.2545 20.8185 17.3331C20.8097 17.4379 20.8362 17.5426 20.9244 17.6212L24.3589 21.0179C24.4296 21.0965 24.5179 21.1314 24.6238 21.1314Z" fill="#D90008"/>
<path fill-rule="evenodd" clip-rule="evenodd" d="M24.6238 21.8738C24.7298 21.8738 24.8181 21.9175 24.8799 21.9786L28.3143 25.3753C28.4556 25.515 28.4556 25.742 28.3143 25.8817C28.3055 25.8904 28.2967 25.8904 28.2967 25.8992L28.2879 25.9079C26.1866 27.7067 23.0611 27.7067 20.9598 25.9166C20.9509 25.9079 20.9421 25.8992 20.9333 25.8992C20.9333 25.8904 20.9333 25.8904 20.9244 25.8904C20.8626 25.8293 20.8273 25.7507 20.8185 25.6721C20.8097 25.5674 20.8362 25.4626 20.9244 25.384L24.3589 21.9873C24.4296 21.9175 24.5179 21.8738 24.6238 21.8738Z" fill="#7C7CFF"/>
<path fill-rule="evenodd" clip-rule="evenodd" d="M20.1036 24.8512C20.0065 24.8512 19.9093 24.8075 19.8564 24.7289C19.1589 23.7859 18.7969 22.6682 18.7969 21.4981C18.7969 20.328 19.1677 19.2104 19.8564 18.2586C19.9535 18.1189 20.1477 18.0927 20.289 18.1887C20.4303 18.2848 20.4567 18.4769 20.3596 18.6166C19.0971 20.3368 19.0971 22.6507 20.3596 24.3709C20.4567 24.5106 20.4303 24.694 20.289 24.7901C20.236 24.8337 20.1654 24.8512 20.1036 24.8512Z" fill="#7C7CFF"/>
<path fill-rule="evenodd" clip-rule="evenodd" d="M29.1438 24.8512C29.082 24.8512 29.0202 24.8337 28.9672 24.7901C28.826 24.694 28.7994 24.5019 28.8966 24.3709C30.1591 22.6507 30.1591 20.3368 28.8966 18.6166C28.7906 18.4769 28.826 18.2848 28.9672 18.1887C29.0997 18.0927 29.2939 18.1189 29.3998 18.2586C30.0973 19.2016 30.4593 20.3193 30.4593 21.4981C30.4593 22.6682 30.0973 23.7859 29.3998 24.7289C29.3292 24.8163 29.2409 24.8512 29.1438 24.8512Z" fill="#D90008"/>
<path fill-rule="evenodd" clip-rule="evenodd" d="M60.9911 25.0609C60.9911 24.9736 60.9558 24.895 60.9028 24.8251C60.894 24.8164 60.894 24.8164 60.8852 24.8077L59.446 23.3931C59.3842 23.332 59.2959 23.2883 59.1988 23.2883C59.1193 23.2883 59.0487 23.3232 58.9869 23.3669C58.5543 23.7162 58.0069 23.9258 57.4153 23.9258C56.0557 23.9258 54.952 22.8343 54.952 21.4896C54.952 20.1449 56.0557 19.0534 57.4153 19.0534C58.0069 19.0534 58.5543 19.2629 58.9781 19.6035C58.9781 19.6035 58.9781 19.6035 58.9869 19.6122C59.0487 19.6646 59.1281 19.6995 59.2076 19.6995C59.3136 19.6995 59.4019 19.6559 59.4637 19.586C59.5785 19.4725 60.4614 18.5993 60.9028 18.1627C60.9116 18.154 60.9116 18.1453 60.9205 18.1453C60.9293 18.1365 60.9381 18.1191 60.9469 18.1103L60.9558 18.1016C60.9823 18.0492 60.9999 17.9968 60.9999 17.927C60.9999 17.8309 60.9646 17.7436 60.894 17.6825C59.9757 16.8529 58.7574 16.3552 57.4153 16.3552C54.5459 16.3552 52.2239 18.6517 52.2239 21.4896C52.2239 24.3274 54.5459 26.6239 57.4153 26.6239C58.7485 26.6239 59.9669 26.1262 60.8852 25.3141C60.8852 25.3141 60.8852 25.3141 60.894 25.3054C60.9469 25.253 60.9911 25.1657 60.9911 25.0609Z" fill="#D90008"/>
<path fill-rule="evenodd" clip-rule="evenodd" d="M50.8646 18.9748H48.2512V26.1524C48.2512 26.2746 48.2335 26.3619 48.1982 26.4056C48.1629 26.4492 48.0569 26.4754 47.8892 26.4754H45.7173C45.4877 26.4754 45.3641 26.3707 45.3641 26.1611V18.9748H42.8125C42.6006 18.9748 42.4858 18.8612 42.4858 18.6255V16.9315C42.4858 16.7656 42.5123 16.6608 42.5564 16.6259C42.6006 16.5909 42.6889 16.5735 42.8125 16.5735H50.8646C50.9794 16.5735 51.0677 16.5909 51.1118 16.6259C51.1559 16.6608 51.1824 16.7656 51.1824 16.9315V18.6255C51.1912 18.8525 51.0765 18.9748 50.8646 18.9748Z" fill="#D90008"/>
<path fill-rule="evenodd" clip-rule="evenodd" d="M40.8162 16.9227C40.8162 16.7219 40.6573 16.5647 40.4542 16.5647C37.7967 16.5647 35.1391 16.5647 32.4816 16.5647C32.2874 16.5647 32.1196 16.7219 32.1196 16.9227V18.6254C32.1196 18.6341 32.1196 18.6429 32.1196 18.6516C32.1373 18.835 32.2962 18.9747 32.4816 18.9747C32.4904 18.9747 32.4904 18.9747 32.4992 18.9747H34.9979V26.1086V26.1174V26.1261C34.9979 26.1348 35.0067 26.1523 35.0067 26.161C35.0244 26.3269 35.1568 26.4492 35.3245 26.4666C35.3422 26.4666 35.3511 26.4666 35.3599 26.4666H37.523C37.5318 26.4666 37.5318 26.4666 37.5406 26.4666H37.5495C37.7172 26.4579 37.8585 26.3269 37.8761 26.161C37.885 26.1523 37.885 26.1348 37.885 26.1261V18.9747H40.4454C40.4542 18.9747 40.4542 18.9747 40.4542 18.9747C40.4631 18.9747 40.4631 18.9747 40.4719 18.9747H40.4807C40.4895 18.9747 40.5072 18.9747 40.516 18.966C40.6749 18.9398 40.8074 18.8088 40.8162 18.6429C40.8162 18.6342 40.8162 18.6341 40.8162 18.6254V16.9227Z" fill="#D90008"/>
</svg>
