<svg width="80" height="50" viewBox="0 0 80 50" fill="none" xmlns="http://www.w3.org/2000/svg">
<rect width="80" height="50" fill="black"/>
<path d="M56.453 18.2396C56.7182 18.2396 56.9775 18.161 57.198 18.0136C57.4186 17.8663 57.5904 17.6569 57.6919 17.4118C57.7934 17.1668 57.82 16.8971 57.7682 16.637C57.7165 16.3769 57.5888 16.1379 57.4012 15.9504C57.2137 15.7628 56.9747 15.6351 56.7146 15.5834C56.4545 15.5316 56.1848 15.5582 55.9398 15.6597C55.6948 15.7612 55.4853 15.9331 55.338 16.1536C55.1906 16.3741 55.112 16.6334 55.112 16.8986C55.1119 17.0747 55.1466 17.2491 55.2139 17.4119C55.2813 17.5746 55.3801 17.7225 55.5046 17.847C55.6292 17.9715 55.777 18.0703 55.9397 18.1377C56.1025 18.2051 56.2769 18.2397 56.453 18.2396V18.2396ZM40.4746 14.6594V16.2878C29.166 16.2878 20 20.8406 20 26.4571C20 32.1834 29.166 36.8264 40.4746 36.8264C51.8103 36.8264 61 32.0848 61 26.2359C61 19.8426 51.8103 14.6594 40.4746 14.6594" fill="white"/>
<path d="M56.2949 16.492H56.4197C56.4529 16.4913 56.486 16.4951 56.5182 16.5033C56.541 16.5092 56.5623 16.5199 56.5806 16.5349C56.5958 16.5475 56.6068 16.5645 56.6122 16.5835C56.6179 16.6024 56.6207 16.622 56.6205 16.6417C56.6216 16.6631 56.6182 16.6846 56.6107 16.7046C56.6032 16.7247 56.5917 16.7431 56.5768 16.7586C56.5465 16.7881 56.4937 16.8026 56.4151 16.8026H56.2933V16.492H56.2949ZM56.0438 17.4451C56.0811 17.4548 56.1196 17.4586 56.1581 17.4563C56.1949 17.4589 56.2319 17.4551 56.2675 17.4451C56.2754 17.4416 56.282 17.4357 56.2864 17.4282C56.2908 17.4208 56.2928 17.4121 56.292 17.4035V17.0139H56.366C56.4154 17.0104 56.4644 17.0252 56.5037 17.0555C56.5422 17.0955 56.5695 17.145 56.5827 17.1989L56.6413 17.3902C56.6438 17.4029 56.6492 17.4149 56.6571 17.4251L56.685 17.4447C56.7003 17.45 56.7162 17.4534 56.7324 17.4547C56.7507 17.4547 56.7764 17.4567 56.808 17.4567C56.8396 17.4567 56.8712 17.4567 56.8912 17.4547C56.9112 17.4526 56.9265 17.4497 56.9386 17.4472L56.9594 17.4339L56.9627 17.4131C56.9597 17.3847 56.9533 17.3568 56.9436 17.3299L56.8767 17.1523C56.8561 17.0925 56.8219 17.0383 56.7769 16.9939C56.7407 16.9607 56.6983 16.9351 56.6521 16.9187C56.7255 16.9033 56.793 16.8674 56.8467 16.8151C56.8723 16.7872 56.892 16.7544 56.9045 16.7186C56.9171 16.6829 56.9223 16.645 56.9199 16.6072C56.921 16.5555 56.9102 16.5043 56.8883 16.4575C56.8679 16.4157 56.8368 16.3801 56.7981 16.3544C56.7546 16.3241 56.7053 16.3033 56.6534 16.2933C56.5891 16.279 56.5234 16.2721 56.4575 16.2729H56.1386C56.1216 16.2717 56.1045 16.2742 56.0886 16.2802C56.0726 16.2862 56.0582 16.2957 56.0463 16.3078C56.0247 16.3352 56.0138 16.3695 56.0155 16.4043V17.4023C56.015 17.4113 56.0175 17.4203 56.0226 17.4278C56.0277 17.4353 56.0352 17.4409 56.0438 17.4438V17.4451ZM56.45 16.03C56.9149 16.03 57.2912 16.4184 57.2912 16.8979C57.2912 17.3773 56.917 17.7657 56.45 17.7657C55.9831 17.7657 55.6092 17.3773 55.6092 16.8979C55.6092 16.4184 55.9835 16.03 56.45 16.03ZM56.45 17.9844C56.6648 17.9845 56.8747 17.9209 57.0533 17.8016C57.2319 17.6824 57.3711 17.5129 57.4534 17.3145C57.5356 17.1161 57.5572 16.8978 57.5153 16.6871C57.4735 16.4765 57.3701 16.283 57.2183 16.1311C57.0665 15.9793 56.873 15.8758 56.6624 15.8339C56.4518 15.792 56.2335 15.8134 56.035 15.8956C55.8366 15.9778 55.667 16.1169 55.5477 16.2955C55.4284 16.474 55.3647 16.6839 55.3647 16.8987C55.3648 17.1865 55.4792 17.4626 55.6827 17.6661C55.8862 17.8697 56.1622 17.9842 56.45 17.9844V17.9844ZM46.3177 15.8142C46.238 16.0277 46.1321 16.2305 46.0025 16.418C48.8758 17.0534 51.9255 18.1412 54.111 19.7184C54.2046 19.7866 54.1218 19.9147 54.0345 19.8693C50.3275 17.9428 45.4773 16.9669 40.4742 16.9669C29.9019 16.9669 21.3306 21.2158 21.3306 26.4572C21.3306 31.8088 29.9006 36.1458 40.4733 36.1458C51.0714 36.1458 59.6622 31.7086 59.6622 26.2368C59.6622 21.3563 54.0565 17.223 46.3144 15.8138" fill="#40B93C"/>
<path d="M50.7791 33.4092C50.8972 33.3859 50.9363 33.499 50.8277 33.5419C48.1091 34.643 44.3459 35.2675 40.4738 35.2675C31.0608 35.2675 23.4297 31.323 23.4297 26.4571C23.4297 21.5912 31.0608 17.6471 40.4746 17.6471C51.0781 17.6471 57.5715 22.227 57.5387 26.2359C57.5058 29.7704 52.8179 33.1119 43.3322 33.1119C39.3818 33.1119 34.3699 32.3734 30.3585 30.7654C30.1797 30.6939 30.0957 30.9505 30.2575 31.0357C34.6461 33.3785 42.597 35.013 50.7779 33.4092" fill="#0B4919"/>
<path d="M40.4746 35.2675C31.0608 35.2675 23.4297 31.323 23.4297 26.4571C23.4297 21.5912 31.0608 17.6471 40.4746 17.6471C51.0365 17.6471 57.5208 22.1912 57.5387 26.1889V26.2359C57.5058 29.7704 52.8179 33.1119 43.3322 33.1119C39.3818 33.1119 34.3699 32.3734 30.3585 30.7654C30.3394 30.7576 30.3189 30.7533 30.2982 30.753C30.2805 30.7538 30.263 30.7582 30.247 30.7658C30.2309 30.7735 30.2165 30.7843 30.2047 30.7976C30.1928 30.8108 30.1837 30.8264 30.178 30.8432C30.1722 30.86 30.1698 30.8778 30.171 30.8956C30.1708 30.9247 30.1789 30.9533 30.1942 30.978C30.2095 31.0028 30.2314 31.0228 30.2575 31.0357C33.4269 32.7277 38.455 34.05 44.0848 34.0504C46.3318 34.0529 48.5738 33.8382 50.7795 33.4092C50.7895 33.407 50.7997 33.4058 50.8099 33.4059C50.8627 33.4059 50.893 33.4367 50.893 33.4704C50.893 33.4965 50.8722 33.5248 50.829 33.5419C48.1104 34.643 44.3472 35.2675 40.475 35.2675H40.4746ZM40.4962 17.9161H40.4701C38.8707 17.9134 37.2733 18.0318 35.6918 18.2704C32.4069 18.7694 29.6042 19.7757 27.6998 21.0876C27.0523 21.5329 26.508 22.0174 26.0847 22.5276C25.6614 23.0378 25.357 23.578 25.1903 24.1377C25.0136 24.7243 24.9943 25.3471 25.1341 25.9436C25.2801 26.5569 25.5882 27.1494 26.0398 27.7058C26.4706 28.2377 26.9708 28.7915 27.6436 29.2552C29.5473 30.5658 32.411 31.5567 35.6968 32.0557C37.2013 32.2844 38.8051 32.3647 40.475 32.3647C42.2456 32.3647 43.6199 32.3002 45.247 32.0557C48.9212 31.5031 51.5355 30.434 53.3451 29.2311C54.0142 28.7674 54.4753 28.2268 54.9061 27.6975C55.3577 27.1399 55.6658 26.5486 55.808 25.934C55.8702 25.6728 55.9016 25.4053 55.9016 25.1369C55.9016 24.7959 55.8516 24.4567 55.7532 24.1302C55.5868 23.5705 55.2837 23.0324 54.86 22.5214C54.4363 22.0103 53.8924 21.5296 53.2449 21.083C51.3945 19.806 48.4268 18.7328 45.2516 18.2704C43.6778 18.0304 42.0878 17.912 40.4958 17.9161" fill="#0A4919"/>
<path d="M40.3856 32.8774C49.1489 32.8774 56.253 29.2279 56.253 24.7261C56.253 20.2242 49.1489 16.5747 40.3856 16.5747C31.6224 16.5747 24.5183 20.2242 24.5183 24.7261C24.5183 29.2279 31.6224 32.8774 40.3856 32.8774Z" fill="url(#paint0_radial)"/>
<path d="M51.0404 24.6582C50.8553 26.5859 50.094 28.5137 48.8939 28.5137C48.4028 28.5137 48.0489 28.1253 48.0489 27.482C48.0489 25.8262 49.3667 24.1168 51.0404 24.6582ZM52.8563 24.5023C52.9669 23.9114 52.8035 23.6561 52.2716 23.5043C48.7837 22.5213 46.137 24.7468 46.137 27.7677C46.137 28.9179 46.7121 29.9998 47.9633 29.9998C48.9613 29.9998 49.8761 29.3067 50.5168 28.5287C50.5168 28.5287 50.4836 29.0501 50.5485 29.3861C50.6524 29.9266 51.2038 30.2019 52.4546 29.7965C52.2633 29.0326 52.3564 27.1689 52.8563 24.5023ZM44.9033 25.842C45.512 22.6789 45.6808 20.9466 45.6808 20.3969C45.6808 20.2447 45.6102 20.006 45.1199 20.006C44.4604 20.006 44.0284 20.1627 43.6512 20.3623C43.7019 20.5482 43.8633 21.8847 42.6948 27.3985C42.1988 29.7412 42.6441 30.2606 44.6134 29.9179C44.4263 29.342 44.4301 28.2771 44.9033 25.842ZM41.6307 23.2423C40.8145 23.2423 39.7683 24.0232 39.1358 25.3347C39.219 24.7422 39.2606 24.0324 39.1928 23.6299C39.1712 23.4997 39.0917 23.3937 38.7021 23.4103C38.263 23.4274 37.6875 23.6132 37.3494 23.7995C37.3494 23.7995 37.6376 24.5896 37.0051 28.5815C36.8134 29.7874 37.6389 30.1408 39.0181 29.9183C38.4776 29.1391 39.4635 24.3085 41.7122 25.3056C42.5963 23.9243 42.3539 23.2423 41.6307 23.2423V23.2423ZM30.562 26.2637C31.1599 25.1152 32.0253 23.8303 32.4798 22.8739C32.5629 23.7193 32.9263 26.0603 32.9263 26.0603C32.1332 26.0422 31.3404 26.1104 30.562 26.2637V26.2637ZM36.0729 29.8772C35.3597 28.623 34.6175 25.3447 33.894 21.1237C33.8407 20.8135 33.7825 20.7137 33.5197 20.7183C33.1625 20.7241 32.2344 20.8193 31.8635 20.9549C31.5928 21.6393 31.2107 22.2942 29.9482 24.2087C26.7502 29.0592 26.6005 30.3587 29.4006 29.9217C29.3332 29.4813 29.3632 28.8314 29.8879 27.8338C29.8879 27.8338 30.5599 27.4596 33.165 27.4317C33.6436 30.093 34.0316 30.1196 36.0716 29.8772" fill="white"/>
<path d="M33.2274 14.9097C32.2394 15.5896 32.3051 17.5377 33.4328 18.9137C34.5455 20.2717 36.329 20.5004 37.4742 19.8846C37.2509 21.1674 37.9478 22.5089 40.5729 21.6593C43.2196 20.8023 43.3589 19.0268 42.827 17.7244C44.3099 17.8334 45.8758 17.2134 46.369 15.6723C46.7295 14.5451 46.5025 13.1541 45.3216 12.4381C45.3794 10.8239 43.3751 9.41881 41.4062 9.45706C40.3928 9.47702 39.7541 10.1224 39.7192 10.954C38.411 9.50946 36.6421 9.47453 34.9372 10.9399C33.2918 12.3512 32.9949 14.3222 33.854 15.1438C33.7351 15.1193 33.2997 14.9642 33.2303 14.9085" fill="white"/>
<path d="M34.3938 19.0338C37.1669 21.0377 39.2065 17.3003 38.8847 16.9106C38.1587 16.0374 38.6572 14.6515 40.1908 14.8702C40.9958 14.985 39.9579 10.4766 37.4746 10.4766C35.1727 10.4766 31.8295 14.6207 35.907 15.9775C35.0787 16.0037 33.9942 15.9264 33.3705 15.6449C32.8216 16.1963 33.1339 18.1103 34.3938 19.0338ZM45.3204 13.1475C45.0334 13.5055 44.4837 14.0053 44.055 14.1039C46.0734 11.6863 43.1993 10.0288 41.4324 10.0841C40.9185 10.1003 40.4636 10.3012 40.3596 10.8164C40.0931 12.1408 41.2619 13.6643 40.8636 15.6357C40.5933 16.9759 45.0534 18.2745 45.8722 15.3072C46.0144 14.7891 45.969 13.6747 45.3204 13.1475ZM40.3305 16.6154C41.6399 16.3684 44.2584 19.8701 40.3937 21.1159C35.7781 22.6041 39.1837 16.8329 40.3305 16.6154Z" fill="url(#paint1_radial)"/>
<defs>
<radialGradient id="paint0_radial" cx="0" cy="0" r="1" gradientUnits="userSpaceOnUse" gradientTransform="translate(40.4664 24.6342) scale(15.4304 6.20399)">
<stop stop-color="#40B93C"/>
<stop offset="0.17" stop-color="#40B93C" stop-opacity="0.98"/>
<stop offset="0.32" stop-color="#41B93D" stop-opacity="0.93"/>
<stop offset="0.46" stop-color="#41BA3D" stop-opacity="0.83"/>
<stop offset="0.59" stop-color="#42BA3E" stop-opacity="0.7"/>
<stop offset="0.72" stop-color="#43BA3F" stop-opacity="0.52"/>
<stop offset="0.85" stop-color="#45BB41" stop-opacity="0.31"/>
<stop offset="0.97" stop-color="#47BC43" stop-opacity="0.07"/>
<stop offset="1" stop-color="#47BC43" stop-opacity="0"/>
</radialGradient>
<radialGradient id="paint1_radial" cx="0" cy="0" r="1" gradientUnits="userSpaceOnUse" gradientTransform="translate(36.7161 18.4244) rotate(-7.18911) scale(9.78117)">
<stop stop-color="#FDE17B"/>
<stop offset="0.3" stop-color="#FCD205"/>
<stop offset="1" stop-color="#F89C0E"/>
</radialGradient>
</defs>
</svg>
