<svg width="80" height="50" viewBox="0 0 80 50" fill="none" xmlns="http://www.w3.org/2000/svg">
<rect width="80" height="50" fill="black"/>
<path d="M32.6001 29.1705C32.6001 29.1705 33.9559 29.3117 34.7693 29.3117C35.5824 29.3117 36.1906 29.2231 36.8291 28.762C37.5299 28.2553 37.7532 27.4797 37.7532 26.9162C37.7532 26.1769 37.507 24.9426 35.6049 24.4827C34.1228 24.1247 33.661 23.8578 33.4216 23.334C33.1987 22.8466 33.356 22.1407 33.7479 21.85C34.0886 21.5981 34.3449 21.3679 35.3406 21.4364L37.0503 22.3265L37.367 21.3136C36.9184 21.2439 36.3974 21.1724 35.5152 21.1424C32.9135 21.053 32.6005 22.6051 32.6025 23.2572C32.6057 24.3833 33.3452 25.2249 34.9266 25.5449C36.7253 26.0357 36.9566 26.8702 36.9385 27.4792C36.9192 28.1321 36.5459 28.8163 35.8225 28.9558C35.4198 29.0331 35.2058 29.0523 34.6687 29.0097L32.9449 28.1004L32.6001 29.1705Z" fill="white"/>
<path d="M11.0676 21.2837V22.4098L12.715 21.564H13.7795V28.5466L13.2368 29.1656H15.4068L14.8641 28.5466V21.564H15.9399L17.5756 22.4098V21.2837H11.0676Z" fill="white"/>
<path d="M24.3557 22.3199L25.7883 25.7884H22.9256L24.3557 22.3199ZM21.219 29.1659H22.3716L21.9516 28.1488L22.8093 26.0695H25.9046L26.9268 28.5457L26.6404 29.1655L28.363 29.1643L25.1113 21.2861L24.4724 21.2844L21.219 29.1659Z" fill="white"/>
<path d="M54.5259 21.2837L55.0682 21.904V28.5453L54.5259 29.1656H56.6951L56.1528 28.5453V21.904L56.6951 21.2837H54.5259Z" fill="white"/>
<path d="M47.2897 21.2837L47.8312 21.904V24.9431H44.0367V21.904L44.5782 21.2837H42.4102L42.9521 21.904V28.5453L42.4102 29.1656H44.579L44.0367 28.5453V25.2247H47.8312V28.5453L47.2897 29.1656H49.4581L48.9162 28.5453V21.904L49.4581 21.2837H47.2897Z" fill="white"/>
<path d="M63.4131 25.5041V21.5631H64.3601C65.429 21.5631 66.1234 22.5263 66.1234 23.5372C66.1234 24.7017 65.4697 25.5041 64.4961 25.5041H63.4131ZM68.0001 29.1656L67.3375 28.5466L65.8551 25.5304C66.1673 25.4055 66.3402 25.2602 66.5848 25.0693C66.9759 24.7648 67.272 24.1307 67.2378 23.3964C67.2012 22.6115 66.7627 21.9336 66.123 21.617C65.4825 21.3008 64.7677 21.2837 63.9542 21.2837H61.7854L62.3277 21.9035V28.5449L61.7854 29.1648H63.9542L63.4123 28.5449V25.7852H64.1159C64.2535 25.7852 64.4671 25.7877 64.7081 25.7731L66.4026 29.1652H68.0001V29.1656Z" fill="white"/>
</svg>
