<svg width="80" height="50" viewBox="0 0 80 50" fill="none" xmlns="http://www.w3.org/2000/svg">
<rect width="80" height="50" fill="black"/>
<path d="M24.3832 26.1331C24.1965 27.0892 22.7183 28.1361 21.0192 28.3387C20.134 28.4443 19.261 28.5414 18.3315 28.4987C16.8106 28.4294 15.6102 28.1361 15.6102 28.1361C15.6102 28.2843 15.6192 28.4251 15.6368 28.5574C15.8341 30.0586 17.1247 30.1481 18.348 30.1903C19.582 30.2329 20.6806 29.8863 20.6806 29.8863L20.7313 31.0019C20.7313 31.0019 19.8673 31.4659 18.3304 31.5512C17.4772 31.5976 16.4298 31.5299 15.2038 31.2056C12.5454 30.5006 12.0878 27.6652 12.0121 24.7839C11.9908 23.9306 12.0041 23.1243 12.0041 22.4513C12.0041 19.5103 13.9314 18.6479 13.9314 18.6479C14.903 18.2016 16.5711 18.0133 18.3043 18H18.347C20.0801 18.0144 21.7493 18.2016 22.7199 18.6479C22.7199 18.6479 24.6471 19.5103 24.6471 22.4513C24.6471 22.4513 24.6711 24.6218 24.3784 26.1277" fill="#3088D4"/>
<path d="M14.677 21.7436C14.677 21.3153 15.0236 20.9682 15.4524 20.9682C15.8812 20.9682 16.2278 21.3148 16.2278 21.7436C16.2278 22.1723 15.8812 22.519 15.4524 22.519C15.0236 22.519 14.677 22.1723 14.677 21.7436ZM25.7943 22.6843V26.2455H24.3838V22.7899C24.3838 22.0614 24.0771 21.6913 23.4639 21.6913C22.7866 21.6913 22.4453 22.1302 22.4453 22.9978V24.8899H21.0428V22.9978C21.0428 22.1302 20.7031 21.6913 20.0242 21.6913C19.4109 21.6913 19.1043 22.0609 19.1043 22.7899V26.2466H17.6932V22.6853C17.6932 21.9574 17.8783 21.3788 18.2511 20.9511C18.635 20.5234 19.1379 20.3037 19.7618 20.3037C20.4839 20.3037 21.031 20.581 21.3921 21.1356L21.744 21.7249L22.096 21.1356C22.4576 20.581 23.0042 20.3037 23.7262 20.3037C24.3502 20.3037 24.8531 20.5224 25.237 20.9511C25.6093 21.3793 25.7948 21.9574 25.7948 22.6853" fill="white"/>
<path d="M30.6555 24.4543C30.9467 24.1466 31.0875 23.7594 31.0875 23.2918C31.0875 22.8241 30.9472 22.4374 30.6555 22.1409C30.375 21.8332 30.0193 21.685 29.5879 21.685C29.1565 21.685 28.8008 21.8332 28.5203 22.1409C28.2397 22.4369 28.099 22.8246 28.099 23.2918C28.099 23.7589 28.2392 24.1461 28.5203 24.4543C28.8008 24.7503 29.1565 24.8985 29.5879 24.8985C30.0193 24.8985 30.375 24.7503 30.6555 24.4543ZM31.0875 20.444H32.4793V26.1411H31.0875V25.4691C30.6662 26.0275 30.0849 26.3011 29.3298 26.3011C28.6072 26.3011 27.9923 26.0163 27.475 25.435C26.9684 24.8484 26.7092 24.1359 26.7092 23.2928C26.7092 22.4609 26.9679 21.7431 27.475 21.1618C27.9923 20.5752 28.6072 20.2846 29.3298 20.2846C30.0844 20.2846 30.6672 20.5582 31.0875 21.1165V20.444ZM37.1594 23.1904C37.569 23.4981 37.7743 23.9317 37.7631 24.4778C37.7631 25.0644 37.5583 25.5145 37.1375 25.8339C36.7162 26.1416 36.2096 26.3011 35.5953 26.3011C34.4845 26.3011 33.7288 25.8451 33.3304 24.9449L34.5383 24.2271C34.6999 24.7178 35.0556 24.9684 35.5953 24.9684C36.0912 24.9684 36.3392 24.8084 36.3392 24.4778C36.3392 24.2378 36.0155 24.0218 35.358 23.8512L34.7431 23.6576C34.5165 23.5669 34.3218 23.464 34.1608 23.3387C33.7619 23.031 33.5571 22.6209 33.5571 22.0961C33.5571 21.5378 33.7512 21.0936 34.1394 20.7736C34.5383 20.443 35.0236 20.283 35.606 20.283C36.5339 20.283 37.2127 20.6819 37.6548 21.4909L36.4683 22.1756C36.2955 21.7884 36.0043 21.5943 35.6054 21.5943C35.1841 21.5943 34.9799 21.7543 34.9799 22.0615C34.9799 22.3015 35.3036 22.5174 35.9611 22.6881C36.4677 22.8022 36.8677 22.9729 37.1583 23.1894L37.1594 23.1904ZM41.5803 21.8562H40.3612V24.2261C40.3612 24.5108 40.4689 24.682 40.6743 24.7615C40.8252 24.8185 41.1275 24.8297 41.5808 24.8068V26.14C40.6423 26.2541 39.9634 26.1629 39.564 25.8552C39.1651 25.5593 38.971 25.0127 38.971 24.2261V21.8556H38.0324V20.4424H38.971V19.2916L40.3628 18.8474V20.4419H41.5814L41.5803 21.8562ZM46.0129 24.4196C46.2934 24.1231 46.4342 23.7477 46.4342 23.2918C46.4342 22.8358 46.294 22.4598 46.0129 22.1639C45.7319 21.8679 45.3874 21.7196 44.9666 21.7196C44.5459 21.7196 44.2008 21.8679 43.9203 22.1639C43.6505 22.4716 43.5097 22.8475 43.5097 23.2918C43.5097 23.736 43.65 24.113 43.9203 24.4196C44.053 24.564 44.215 24.6783 44.3955 24.7549C44.5759 24.8315 44.7707 24.8686 44.9666 24.8639C45.1626 24.8686 45.3574 24.8315 45.5378 24.7549C45.7183 24.6783 45.8803 24.564 46.0129 24.4196V24.4196ZM42.9391 25.4339C42.3898 24.8473 42.1195 24.1466 42.1195 23.2918C42.1195 22.4492 42.3893 21.742 42.9391 21.1613C43.4889 20.5806 44.1683 20.2841 44.9666 20.2841C45.765 20.2841 46.4438 20.58 46.9942 21.1613C47.5445 21.7426 47.8245 22.4604 47.8245 23.2918C47.8245 24.1343 47.544 24.8527 46.9942 25.4339C46.4444 26.0152 45.7756 26.3 44.9666 26.3C44.1577 26.3 43.4895 26.0152 42.9391 25.4339V25.4339ZM52.4726 24.4543C52.7531 24.1466 52.8939 23.7594 52.8939 23.2918C52.8939 22.8241 52.7536 22.4374 52.4726 22.1409C52.1921 21.8332 51.8364 21.685 51.4049 21.685C50.9735 21.685 50.6178 21.8332 50.3266 22.1409C50.0461 22.4369 49.9054 22.8246 49.9054 23.2918C49.9054 23.7589 50.0456 24.1461 50.3266 24.4543C50.6178 24.7503 50.9842 24.8985 51.4049 24.8985C51.8369 24.8985 52.1921 24.7503 52.4726 24.4543ZM52.8939 18.1648H54.2857V26.1405H52.8939V25.4686C52.4843 26.027 51.902 26.3005 51.1468 26.3005C50.4242 26.3005 49.7987 26.0158 49.2814 25.4345C48.7748 24.8479 48.5156 24.1354 48.5156 23.2923C48.5156 22.4604 48.7743 21.7426 49.2814 21.1613C49.7987 20.5747 50.4248 20.2841 51.1468 20.2841C51.9014 20.2841 52.4843 20.5576 52.8939 21.116V18.1648ZM59.1706 24.4202C59.4511 24.1237 59.5919 23.7482 59.5919 23.2923C59.5919 22.8363 59.4516 22.4604 59.1706 22.1644C58.8895 21.8684 58.545 21.7202 58.1243 21.7202C57.7035 21.7202 57.3585 21.8684 57.078 22.1644C56.8081 22.4721 56.6674 22.8481 56.6674 23.2923C56.6674 23.7365 56.8076 24.1135 57.078 24.4202C57.3585 24.7162 57.7035 24.8644 58.1243 24.8644C58.3203 24.8692 58.515 24.832 58.6955 24.7554C58.8759 24.6788 59.0379 24.5645 59.1706 24.4202V24.4202ZM56.0967 25.4345C55.5475 24.8479 55.2771 24.1471 55.2771 23.2923C55.2771 22.4497 55.5464 21.7426 56.0967 21.1618C56.6471 20.5811 57.326 20.2846 58.1243 20.2846C58.9226 20.2846 59.6015 20.5806 60.1518 21.1618C60.7022 21.7431 60.9821 22.4609 60.9821 23.2923C60.9821 24.1349 60.7016 24.8532 60.1518 25.4345C59.602 26.0158 58.9333 26.3005 58.1243 26.3005C57.3153 26.3005 56.6471 26.0158 56.0967 25.4345V25.4345ZM67.0002 22.6428V26.1411H65.6084V22.8257C65.6084 22.4497 65.5113 22.1644 65.3172 21.9484C65.1337 21.7548 64.8746 21.6519 64.5407 21.6519C63.7536 21.6519 63.3547 22.1191 63.3547 23.0651V26.1421H61.9628V20.4435H63.3547V21.0813C63.6891 20.5459 64.2176 20.2841 64.9615 20.2841C65.5545 20.2841 66.0398 20.4894 66.4173 20.9107C66.8056 21.332 66.9997 21.9026 66.9997 22.6428" fill="#3088D4"/>
</svg>
