<svg width="80" height="50" viewBox="0 0 80 50" fill="none" xmlns="http://www.w3.org/2000/svg">
<rect width="80" height="50" fill="black"/>
<path d="M34.2373 22.0802C35.4791 22.0802 36.0773 22.6922 36.0773 23.6727C36.0773 24.41 35.7435 24.8587 35.0578 25.0262C35.9573 25.1747 36.4017 25.6655 36.4017 26.5271C36.4017 27.5003 35.7435 28.1681 34.3816 28.1681H31.8738V22.0802H34.2373ZM32.7069 22.8775V24.6944H34.1246C34.9124 24.6944 35.2368 24.3331 35.2368 23.7465C35.2368 23.1598 34.8851 22.8754 34.1246 22.8754L32.7069 22.8775ZM32.7069 25.4359V27.3318H34.4132C35.2105 27.3318 35.5718 27.0442 35.5718 26.4323C35.5718 25.7835 35.2284 25.4317 34.3953 25.4317L32.7069 25.4359ZM40.501 27.336C40.204 27.9479 39.6479 28.2629 38.9348 28.2629C37.7025 28.2629 37.0811 27.2159 37.0811 25.853C37.0811 24.5459 37.7299 23.4431 39.0275 23.4431C39.7037 23.4431 40.223 23.7486 40.5021 24.351V23.5358H41.2994V28.1702H40.501V27.336ZM39.1476 27.5214C39.8617 27.5214 40.501 27.0674 40.501 26.0384V25.6676C40.501 24.6386 39.9175 24.1846 39.2371 24.1846C38.3376 24.1846 37.8742 24.7776 37.8742 25.853C37.8795 26.9652 38.325 27.5214 39.1497 27.5214H39.1476ZM46.4446 28.1702H45.6473V25.3706C45.6473 24.5364 45.3134 24.1657 44.554 24.1657C43.8167 24.1657 43.3027 24.6565 43.3027 25.5928V28.1702H42.5022V23.5358H43.2996V24.2963C43.4414 24.0331 43.6532 23.8142 43.9115 23.6636C44.1698 23.5131 44.4647 23.4368 44.7636 23.4431C45.5514 23.4431 46.0886 23.8413 46.3203 24.5743C46.5794 23.8602 47.2008 23.4431 47.9697 23.4431C49.0082 23.4431 49.5823 24.1478 49.5823 25.4549V28.1702H48.7849V25.5928C48.7849 24.6386 48.4511 24.1657 47.6917 24.1657C46.9544 24.1657 46.4404 24.6565 46.4404 25.5928L46.4446 28.1702ZM52.9695 28.2629C52.2934 28.2629 51.7741 27.9574 51.495 27.3549V28.1702H50.6977V21.5989H51.495V24.37C51.792 23.7581 52.3481 23.4431 53.0612 23.4431C54.2935 23.4431 54.9149 24.4901 54.9149 25.853C54.916 27.159 54.2672 28.2629 52.9695 28.2629V28.2629ZM52.8495 24.1846C52.1354 24.1846 51.496 24.6386 51.496 25.6676V26.0384C51.496 27.0674 52.0795 27.5214 52.7599 27.5214C53.6594 27.5214 54.1229 26.9284 54.1229 25.853C54.1188 24.7408 53.6731 24.1846 52.8484 24.1846H52.8495ZM55.5627 25.8435C55.5627 24.4532 56.3779 23.4431 57.7682 23.4431C59.1585 23.4431 59.9558 24.4532 59.9558 25.8435C59.9558 27.2338 59.149 28.266 57.7682 28.266C56.3874 28.266 55.5627 27.2338 55.5627 25.8435ZM56.341 25.8435C56.341 26.724 56.7771 27.5214 57.7682 27.5214C58.7593 27.5214 59.1796 26.7272 59.1796 25.8435C59.1796 24.9598 58.7583 24.1846 57.7714 24.1846C56.7845 24.1846 56.3431 24.963 56.3431 25.8435H56.341ZM60.6067 25.8435C60.6067 24.4532 61.422 23.4431 62.8123 23.4431C64.2026 23.4431 64.9999 24.4532 64.9999 25.8435C64.9999 27.2338 64.1931 28.266 62.8123 28.266C61.4314 28.266 60.6067 27.2338 60.6067 25.8435ZM61.3851 25.8435C61.3851 26.724 61.8212 27.5214 62.8123 27.5214C63.8034 27.5214 64.2215 26.7272 64.2215 25.8435C64.2215 24.9598 63.8002 24.1846 62.8133 24.1846C61.8264 24.1846 61.3851 24.963 61.3851 25.8435V25.8435Z" fill="white"/>
<path d="M28.2801 26.0176H24.9817C24.8776 26.0164 24.7767 26.0529 24.6974 26.1203C24.6181 26.1877 24.5658 26.2815 24.5502 26.3843C24.4596 27.0326 24.1376 27.6262 23.6436 28.0556C23.1495 28.485 22.5169 28.7212 21.8623 28.7206L22.7554 32.8C24.3248 32.5949 25.7751 31.8537 26.8606 30.7017C27.9461 29.5498 28.6 28.0581 28.7115 26.4793C28.7157 26.4201 28.7076 26.3607 28.6878 26.3049C28.668 26.249 28.6368 26.1978 28.5964 26.1545C28.5559 26.1111 28.5069 26.0766 28.4525 26.0531C28.3981 26.0295 28.3394 26.0175 28.2801 26.0176V26.0176ZM22.572 25.9141L27.318 21.8347C27.3639 21.7942 27.4006 21.7444 27.4258 21.6887C27.451 21.6329 27.464 21.5724 27.464 21.5111C27.464 21.4499 27.451 21.3894 27.4258 21.3336C27.4006 21.2778 27.3639 21.228 27.318 21.1876L22.572 17.1017C22.5093 17.0488 22.4328 17.0149 22.3514 17.0039C22.2701 16.9929 22.1873 17.0054 22.1128 17.0398C22.0383 17.0742 21.9751 17.1292 21.9308 17.1982C21.8864 17.2673 21.8626 17.3476 21.8623 17.4296V25.5862C21.8626 25.6682 21.8864 25.7485 21.9308 25.8176C21.9751 25.8866 22.0383 25.9416 22.1128 25.976C22.1873 26.0105 22.2701 26.0229 22.3514 26.0119C22.4328 26.001 22.5093 25.967 22.572 25.9141V25.9141Z" fill="#2684FF"/>
<path d="M15.0647 26.9085C15.2842 28.5562 16.0942 30.0682 17.3444 31.1636C18.5946 32.2591 20.1999 32.8635 21.8622 32.8647V28.7206C21.1447 28.7206 20.4565 28.436 19.9485 27.9293C19.4406 27.4226 19.1544 26.7351 19.1527 26.0176L15.0647 26.9085Z" fill="url(#paint0_linear)"/>
<path d="M15 25.9527V26.0175H19.1527C19.1544 25.3 19.4406 24.6125 19.9486 24.1057C20.4565 23.599 21.1447 23.3144 21.8622 23.3144L20.9712 19.2351C19.334 19.4485 17.8287 20.2453 16.7317 21.4794C15.6348 22.7134 15.0199 24.3018 15 25.9527" fill="url(#paint1_linear)"/>
<defs>
<linearGradient id="paint0_linear" x1="18.4645" y1="19.287" x2="18.4645" y2="28.6343" gradientUnits="userSpaceOnUse">
<stop stop-color="#0052CC"/>
<stop offset="1" stop-color="#2684FF"/>
</linearGradient>
<linearGradient id="paint1_linear" x1="124.177" y1="-111.461" x2="124.177" y2="182.419" gradientUnits="userSpaceOnUse">
<stop stop-color="#0052CC"/>
<stop offset="1" stop-color="#2684FF"/>
</linearGradient>
</defs>
</svg>
