<svg width="80" height="50" viewBox="0 0 80 50" fill="none" xmlns="http://www.w3.org/2000/svg">
<rect width="80" height="50" fill="black"/>
<path d="M16.1525 33.1706H30.8034L23.4785 18.5599L16.1525 33.1706ZM23.4785 16L32.6613 34.3153H14.2952L23.4785 16Z" fill="white"/>
<path fill-rule="evenodd" clip-rule="evenodd" d="M12 30.876L18.8871 17.1394L25.7737 30.876H12ZM35.3784 27.7612H33.7604L35.7819 22.5541H37.169L39.2424 27.7612H37.5788L37.2432 26.8908H35.6919L35.3784 27.7612ZM36.4818 24.2049L35.9375 25.6704H36.9816L36.4818 24.2049ZM43.0232 27.7607H40.5692V22.553H43.0232C44.5448 22.553 45.6784 23.721 45.6784 25.1563C45.6784 26.5996 44.5453 27.7597 43.0232 27.7597V27.7607ZM42.8114 23.8925H42.1363V26.4217H42.8077C43.6124 26.4217 44.1128 25.9241 44.1128 25.1574C44.1128 24.3844 43.613 23.8857 42.8077 23.8931L42.8114 23.8925ZM49.8224 27.8423C48.0619 27.8423 47.003 26.6076 47.003 25.1569C47.003 23.7062 48.0619 22.4715 49.8224 22.4715C51.5828 22.4715 52.638 23.7072 52.638 25.1579C52.638 26.6086 51.5791 27.8433 49.8187 27.8433L49.8224 27.8423ZM49.8224 26.5027C50.6203 26.5027 51.0756 25.8854 51.0756 25.1563C51.0756 24.4273 50.6203 23.81 49.8224 23.81C49.0245 23.81 48.5745 24.4273 48.5745 25.1563C48.5745 25.8854 49.0298 26.5027 49.8277 26.5027H49.8224ZM57.5349 27.7597H58.7505V22.553H57.1844V24.9927L55.4414 22.553H54.2237V27.7602H55.7898V25.276L57.5349 27.7597ZM62.1591 22.5525H60.593V27.7597H62.1591V22.5525ZM63.6807 26.2121C63.8375 27.2604 64.6576 27.8412 65.8663 27.8412C66.9993 27.8412 68 27.3356 68 26.2264C67.9778 25.4851 67.6119 24.9843 66.4487 24.5824L65.8663 24.3812C65.5455 24.2753 65.4412 24.1356 65.4412 23.9868C65.4412 23.7644 65.6794 23.6596 65.9336 23.6596C66.3063 23.6596 66.4556 23.8904 66.5599 24.18L67.8131 23.8232C67.515 22.9528 66.8882 22.4694 65.9039 22.4694C64.7629 22.4694 63.9132 23.1164 63.9132 24.1213C63.928 25.2294 65.196 25.5646 65.4496 25.6461L66.0389 25.8685C66.4116 25.9876 66.4784 26.1512 66.4784 26.2777C66.4784 26.5308 66.2242 26.6494 65.8668 26.6494C65.3522 26.6494 65.0462 26.3963 64.9419 25.9203L63.6807 26.2121Z" fill="white"/>
</svg>
