<svg width="80" height="50" viewBox="0 0 80 50" fill="none" xmlns="http://www.w3.org/2000/svg">
<rect width="80" height="50" fill="black"/>
<path d="M32.2363 26.505C31.2151 26.505 30.1839 26.1467 29.1827 25.7784C28.2015 25.42 27.2003 25.0518 26.1991 25.0518C25.4883 25.0518 24.8275 25.2309 24.2168 25.6191V27.2714C24.8275 26.9131 25.4683 26.724 26.1991 26.724C27.2204 26.724 28.2516 27.0823 29.2528 27.4506C30.2339 27.789 31.2351 28.1772 32.2163 28.1772C33.0373 28.1772 33.7681 27.9283 34.469 27.4108V25.7784C33.7781 26.276 33.0573 26.505 32.2363 26.505Z" fill="#FF5252"/>
<path d="M29.181 22.5438C28.1998 22.1854 27.1986 21.8171 26.1974 21.8171C25.4866 21.8171 24.8258 21.9963 24.2151 22.3845V24.0368C24.8258 23.6785 25.4666 23.4893 26.1974 23.4893C27.2187 23.4893 28.2499 23.8477 29.2511 24.216C30.2322 24.5544 31.2334 24.9426 32.2146 24.9426C33.0356 24.9426 33.7664 24.6937 34.4673 24.1761V22.5438C33.7864 23.0215 33.0356 23.2505 32.2146 23.2505C31.2034 23.2704 30.1822 22.9021 29.181 22.5438Z" fill="#FF5252"/>
<path d="M29.2528 30.7154C30.2339 31.0737 31.2351 31.442 32.2163 31.442C33.0373 31.442 33.7681 31.1931 34.469 30.6755V29.0432C33.7882 29.5209 33.0373 29.7499 32.2163 29.7499C31.1951 29.7499 30.1639 29.3915 29.1627 29.0232C28.1815 28.6649 27.1803 28.2966 26.1791 28.2966C25.4683 28.2966 24.8075 28.4758 24.1968 28.864V30.5163C24.8075 30.158 25.4483 29.9688 26.1791 29.9688C27.2404 29.9887 28.2716 30.357 29.2528 30.7154Z" fill="#FF5252"/>
<path d="M58.5376 23.3103C57.8267 22.6733 56.9157 22.3547 55.7142 22.3547C54.5128 22.3547 53.5917 22.6733 52.8909 23.3103C51.7996 24.3057 51.6594 25.6892 51.6594 26.6348C51.6594 27.5804 51.7996 28.944 52.8909 29.9593C53.6017 30.5963 54.5128 30.9148 55.7142 30.9148C56.9257 30.9148 57.8368 30.5963 58.5376 29.9593C59.6289 28.9639 59.7691 27.5804 59.7691 26.6348C59.7691 25.6892 59.6389 24.3057 58.5376 23.3103ZM57.4463 27.2917C57.4463 27.6998 57.4463 28.3767 56.9457 28.8545C56.6453 29.1232 56.2148 29.2825 55.7843 29.2825C55.3538 29.2825 54.9233 29.1232 54.6229 28.8545C54.1224 28.3767 54.1224 27.6998 54.1224 27.2917V25.8186C54.1224 25.4105 54.1224 24.7337 54.6229 24.2559C54.9233 23.9871 55.3538 23.8279 55.7843 23.8279C56.2148 23.8279 56.6453 23.9871 56.9457 24.2559C57.4463 24.7337 57.4463 25.4105 57.4463 25.8186V27.2917ZM47.6747 30.6262V24.2161L46.7836 22.4941H49.9474V30.6262H47.6747ZM64.3545 24.1066C64.1543 24.2161 63.8939 24.4052 63.7438 24.5147L63.6937 24.5644V30.6361H61.441V24.1165L60.55 22.5041H63.2832V23.3899L63.4634 23.2108C63.7638 22.942 64.0341 22.733 64.3745 22.6036C64.8351 22.4045 65.2355 22.305 65.8363 22.305C66.8575 22.305 67.6084 22.5538 68.159 23.0714C69 23.8677 69 24.883 69 25.4901V30.656H66.7473V25.2712C66.7473 24.9128 66.7473 24.5047 66.3869 24.1663C66.1366 23.9374 65.7762 23.808 65.3657 23.808C64.9452 23.808 64.6048 23.9672 64.3545 24.1066ZM19.3211 23.808C18.7704 23.808 18.3199 24.1265 17.9795 24.4151L17.9294 24.4351V30.6262H15.6767V25.0522C15.6767 24.873 15.6767 24.445 15.3564 24.0966C15.1561 23.8976 14.8758 23.7781 14.5154 23.7781C13.9647 23.7781 13.5142 24.0966 13.1738 24.3853L13.1237 24.4052V30.5864H10.8911V24.0867L10 22.4543H12.7332V23.3103L13.0937 23.0117C13.7044 22.514 14.4353 22.2652 15.3063 22.2652C16.1773 22.2652 16.8081 22.5339 17.3087 23.151L17.3988 23.2605L17.4889 23.151C17.9895 22.5638 18.6703 22.2652 19.5613 22.2652C20.993 22.2652 22.7251 22.7828 22.7251 25.3209V30.6162H20.4724V25.0522C20.4724 24.8531 20.4724 24.4151 20.152 24.0966C19.9518 23.8976 19.6615 23.808 19.3211 23.808ZM42.2983 23.8777L40.5863 24.6739C40.4061 24.3156 40.0156 24.0867 39.5851 24.0867C39.1946 24.0867 38.8342 24.2459 38.654 24.4948C38.4237 24.7635 38.3136 25.2214 38.3136 25.8286V30.6262H36.0609V22.4742H37.9532V23.7383L38.3436 23.1909C38.5038 22.9619 39.0945 22.2652 40.306 22.2652C40.5362 22.2652 41.2671 22.2652 41.7377 22.6235C41.9179 22.8126 42.2783 23.2207 42.2983 23.8777ZM49.9574 20.0455C49.9574 20.792 49.3667 21.3793 48.6158 21.3793C47.8649 21.3793 47.2742 20.792 47.2742 20.0455C47.2742 19.299 47.8649 18.7117 48.6158 18.7117C49.3367 18.7117 49.9574 19.299 49.9574 20.0455ZM45.2819 18.3335V30.6262H43.0292V18.3335H45.2819Z" fill="white"/>
</svg>
