<svg width="80" height="50" viewBox="0 0 80 50" fill="none" xmlns="http://www.w3.org/2000/svg">
<rect width="80" height="50" fill="black"/>
<path d="M33.2913 21.2954C32.6932 21.2954 32.4214 21.5673 32.4214 22.1653V23.1983H33.7263L33.9437 24.6119H32.4214V30.0488H30.736V24.6119H29.7573V23.1983H30.736V21.9479C30.736 20.4255 31.7146 19.8818 33.0738 19.8818C33.3457 19.8818 33.5631 19.8818 33.7806 19.9362L33.9981 21.3498C33.7806 21.3498 33.5631 21.2954 33.2913 21.2954V21.2954ZM35.6835 22.0566C35.0855 22.0566 34.6505 21.676 34.6505 21.078C34.6505 20.4799 35.0855 20.0993 35.6835 20.0993C36.2272 20.0993 36.6622 20.5343 36.6622 21.078C36.7165 21.676 36.2272 22.0566 35.6835 22.0566ZM34.8136 30.0488V23.1983H36.4991V30.0488H34.8136ZM40.468 30.2119C39.4894 30.2119 38.4563 29.8857 37.8039 29.5595L38.0214 28.1459C38.7282 28.6352 39.6525 28.9614 40.5224 28.9614C41.2292 28.9614 41.6641 28.6896 41.6641 28.2547C41.6641 27.7653 41.3923 27.5479 40.2505 27.3304C38.6195 26.8954 37.9127 26.4061 37.9127 25.21C37.9127 24.0139 38.8369 23.1983 40.4136 23.1983C41.2835 23.1983 42.1534 23.3614 42.8059 23.6877L42.5884 25.1013C41.8816 24.7207 41.1204 24.5032 40.4136 24.5032C39.7612 24.5032 39.4894 24.775 39.4894 25.1013C39.4894 25.4818 39.7612 25.6993 40.7942 25.9712C42.534 26.4061 43.2408 26.8954 43.2408 28.2003C43.2408 29.3964 42.3165 30.2119 40.468 30.2119V30.2119ZM46.7204 30.2119C45.7418 30.2119 44.7088 29.8857 44.0563 29.5595L44.2738 28.1459C44.9806 28.6352 45.9049 28.9614 46.7748 28.9614C47.4816 28.9614 47.9165 28.6896 47.9165 28.2547C47.9165 27.7653 47.6447 27.5479 46.5029 27.3304C44.8719 26.8954 44.1651 26.4061 44.1651 25.21C44.1651 24.0139 45.0894 23.1983 46.6661 23.1983C47.536 23.1983 48.4059 23.3614 49.0583 23.6877L48.8408 25.1013C48.134 24.7207 47.3728 24.5032 46.6661 24.5032C46.0136 24.5032 45.7418 24.775 45.7418 25.1013C45.7418 25.4818 46.0136 25.6993 47.0466 25.9712C48.7864 26.4061 49.4932 26.8954 49.4932 28.2003C49.4389 29.3964 48.5146 30.2119 46.7204 30.2119ZM51.6136 22.0566C51.0156 22.0566 50.5806 21.676 50.5806 21.078C50.5806 20.4799 51.0156 20.0993 51.6136 20.0993C52.1573 20.0993 52.5923 20.5343 52.5923 21.078C52.5923 21.676 52.1573 22.0566 51.6136 22.0566ZM50.7437 30.0488V23.1983H52.4292V30.0488H50.7437ZM56.9418 30.2119C55.0932 30.2119 53.734 28.9071 53.734 26.678C53.734 24.4488 55.0932 23.0896 56.9418 23.0896C58.7903 23.0896 60.1495 24.3945 60.1495 26.6236C60.1495 28.8527 58.7903 30.2119 56.9418 30.2119ZM56.9418 24.4488C55.9631 24.4488 55.4194 25.3731 55.4194 26.6236C55.4194 27.8741 55.9631 28.7983 56.9418 28.7983C57.9748 28.7983 58.5185 27.9284 58.5185 26.6236C58.5185 25.3731 57.9204 24.4488 56.9418 24.4488ZM65.3146 30.0488V25.5906C65.3146 24.9925 65.0427 24.6119 64.4447 24.6119C63.901 24.6119 63.4117 24.9381 62.868 25.4818V30.1032H61.1826V23.1983H62.5961L62.7592 24.177C63.4117 23.5789 64.1185 23.0896 65.0427 23.0896C66.3476 23.0896 67 23.8508 67 25.1556V30.1032H65.3146V30.0488Z" fill="white"/>
<path d="M17.7958 33.0928C17.9459 33.0928 18.0676 32.9711 18.0676 32.8209C18.0676 32.6708 17.9459 32.5491 17.7958 32.5491C17.6456 32.5491 17.5239 32.6708 17.5239 32.8209C17.5239 32.9711 17.6456 33.0928 17.7958 33.0928Z" fill="#662C91"/>
<path d="M19.2102 32.4955C19.4204 32.4955 19.5908 32.3251 19.5908 32.115C19.5908 31.9048 19.4204 31.7344 19.2102 31.7344C19 31.7344 18.8296 31.9048 18.8296 32.115C18.8296 32.3251 19 32.4955 19.2102 32.4955Z" fill="#662C91"/>
<path d="M20.1881 31.6251C20.4583 31.6251 20.6774 31.406 20.6774 31.1358C20.6774 30.8656 20.4583 30.6465 20.1881 30.6465C19.9178 30.6465 19.6987 30.8656 19.6987 31.1358C19.6987 31.406 19.9178 31.6251 20.1881 31.6251Z" fill="#662C91"/>
<path d="M20.895 30.4292C21.2854 30.4292 21.6018 30.1128 21.6018 29.7224C21.6018 29.3321 21.2854 29.0156 20.895 29.0156C20.5047 29.0156 20.1882 29.3321 20.1882 29.7224C20.1882 30.1128 20.5047 30.4292 20.895 30.4292Z" fill="#662C91"/>
<path d="M20.5145 33.0928C20.6647 33.0928 20.7864 32.9711 20.7864 32.8209C20.7864 32.6708 20.6647 32.5491 20.5145 32.5491C20.3644 32.5491 20.2427 32.6708 20.2427 32.8209C20.2427 32.9711 20.3644 33.0928 20.5145 33.0928Z" fill="#662C91"/>
<path d="M21.6025 32.0605C21.8127 32.0605 21.9831 31.8901 21.9831 31.6799C21.9831 31.4697 21.8127 31.2993 21.6025 31.2993C21.3923 31.2993 21.2219 31.4697 21.2219 31.6799C21.2219 31.8901 21.3923 32.0605 21.6025 32.0605Z" fill="#662C91"/>
<path d="M22.1995 30.9178C22.4698 30.9178 22.6888 30.6988 22.6888 30.4285C22.6888 30.1583 22.4698 29.9392 22.1995 29.9392C21.9293 29.9392 21.7102 30.1583 21.7102 30.4285C21.7102 30.6988 21.9293 30.9178 22.1995 30.9178Z" fill="#662C91"/>
<path d="M22.3626 29.6133C22.7529 29.6133 23.0694 29.2969 23.0694 28.9065C23.0694 28.5161 22.7529 28.1997 22.3626 28.1997C21.9722 28.1997 21.6558 28.5161 21.6558 28.9065C21.6558 29.2969 21.9722 29.6133 22.3626 29.6133Z" fill="#662C91"/>
<path d="M23.0702 32.1694C23.2203 32.1694 23.342 32.0477 23.342 31.8976C23.342 31.7474 23.2203 31.6257 23.0702 31.6257C22.92 31.6257 22.7983 31.7474 22.7983 31.8976C22.7983 32.0477 22.92 32.1694 23.0702 32.1694Z" fill="#662C91"/>
<path d="M23.7229 30.809C23.9331 30.809 24.1034 30.6386 24.1034 30.4284C24.1034 30.2182 23.9331 30.0479 23.7229 30.0479C23.5127 30.0479 23.3423 30.2182 23.3423 30.4284C23.3423 30.6386 23.5127 30.809 23.7229 30.809Z" fill="#662C91"/>
<path d="M23.8858 29.5592C24.156 29.5592 24.3751 29.3401 24.3751 29.0699C24.3751 28.7996 24.156 28.5806 23.8858 28.5806C23.6156 28.5806 23.3965 28.7996 23.3965 29.0699C23.3965 29.3401 23.6156 29.5592 23.8858 29.5592Z" fill="#662C91"/>
<path d="M23.5051 28.2547C23.8955 28.2547 24.2119 27.9382 24.2119 27.5479C24.2119 27.1575 23.8955 26.8411 23.5051 26.8411C23.1148 26.8411 22.7983 27.1575 22.7983 27.5479C22.7983 27.9382 23.1148 28.2547 23.5051 28.2547Z" fill="#662C91"/>
<path d="M25.1903 30.4285C25.3404 30.4285 25.4621 30.3067 25.4621 30.1566C25.4621 30.0065 25.3404 29.8848 25.1903 29.8848C25.0402 29.8848 24.9185 30.0065 24.9185 30.1566C24.9185 30.3067 25.0402 30.4285 25.1903 30.4285Z" fill="#662C91"/>
<path d="M25.299 28.9064C25.5092 28.9064 25.6796 28.736 25.6796 28.5258C25.6796 28.3157 25.5092 28.1453 25.299 28.1453C25.0889 28.1453 24.9185 28.3157 24.9185 28.5258C24.9185 28.736 25.0889 28.9064 25.299 28.9064Z" fill="#662C91"/>
<path d="M24.9725 27.7111C25.2427 27.7111 25.4618 27.492 25.4618 27.2217C25.4618 26.9515 25.2427 26.7324 24.9725 26.7324C24.7022 26.7324 24.4832 26.9515 24.4832 27.2217C24.4832 27.492 24.7022 27.7111 24.9725 27.7111Z" fill="#662C91"/>
<path d="M24.1033 26.6226C24.4936 26.6226 24.8101 26.3061 24.8101 25.9158C24.8101 25.5254 24.4936 25.209 24.1033 25.209C23.7129 25.209 23.3965 25.5254 23.3965 25.9158C23.3965 26.3061 23.7129 26.6226 24.1033 26.6226Z" fill="#662C91"/>
<path d="M26.6034 28.0361C26.7535 28.0361 26.8752 27.9144 26.8752 27.7643C26.8752 27.6141 26.7535 27.4924 26.6034 27.4924C26.4533 27.4924 26.3315 27.6141 26.3315 27.7643C26.3315 27.9144 26.4533 28.0361 26.6034 28.0361Z" fill="#662C91"/>
<path d="M26.115 26.623C26.3251 26.623 26.4955 26.4526 26.4955 26.2424C26.4955 26.0322 26.3251 25.8618 26.115 25.8618C25.9048 25.8618 25.7344 26.0322 25.7344 26.2424C25.7344 26.4526 25.9048 26.623 26.115 26.623Z" fill="#662C91"/>
<path d="M25.3533 25.5907C25.6236 25.5907 25.8427 25.3716 25.8427 25.1014C25.8427 24.8311 25.6236 24.6121 25.3533 24.6121C25.0831 24.6121 24.864 24.8311 24.864 25.1014C24.864 25.3716 25.0831 25.5907 25.3533 25.5907Z" fill="#662C91"/>
<path d="M24.1033 24.8831C24.4936 24.8831 24.8101 24.5666 24.8101 24.1763C24.8101 23.7859 24.4936 23.4695 24.1033 23.4695C23.7129 23.4695 23.3965 23.7859 23.3965 24.1763C23.3965 24.5666 23.7129 24.8831 24.1033 24.8831Z" fill="#662C91"/>
<path d="M27.0929 25.3188C27.243 25.3188 27.3647 25.1971 27.3647 25.047C27.3647 24.8969 27.243 24.7751 27.0929 24.7751C26.9428 24.7751 26.821 24.8969 26.821 25.047C26.821 25.1971 26.9428 25.3188 27.0929 25.3188Z" fill="#662C91"/>
<path d="M26.115 24.1764C26.3251 24.1764 26.4955 24.0061 26.4955 23.7959C26.4955 23.5857 26.3251 23.4153 26.115 23.4153C25.9048 23.4153 25.7344 23.5857 25.7344 23.7959C25.7344 24.0061 25.9048 24.1764 26.115 24.1764Z" fill="#662C91"/>
<path d="M25.0269 23.4703C25.2972 23.4703 25.5162 23.2513 25.5162 22.981C25.5162 22.7108 25.2972 22.4917 25.0269 22.4917C24.7567 22.4917 24.5376 22.7108 24.5376 22.981C24.5376 23.2513 24.7567 23.4703 25.0269 23.4703Z" fill="#662C91"/>
<path d="M23.5051 23.2525C23.8955 23.2525 24.2119 22.936 24.2119 22.5457C24.2119 22.1553 23.8955 21.8389 23.5051 21.8389C23.1148 21.8389 22.7983 22.1553 22.7983 22.5457C22.7983 22.936 23.1148 23.2525 23.5051 23.2525Z" fill="#662C91"/>
<path d="M26.6034 22.6548C26.7535 22.6548 26.8752 22.5331 26.8752 22.3829C26.8752 22.2328 26.7535 22.1111 26.6034 22.1111C26.4533 22.1111 26.3315 22.2328 26.3315 22.3829C26.3315 22.5331 26.4533 22.6548 26.6034 22.6548Z" fill="#662C91"/>
<path d="M25.2446 21.8386C25.4548 21.8386 25.6252 21.6682 25.6252 21.458C25.6252 21.2478 25.4548 21.0774 25.2446 21.0774C25.0344 21.0774 24.864 21.2478 24.864 21.458C24.864 21.6682 25.0344 21.8386 25.2446 21.8386Z" fill="#662C91"/>
<path d="M23.9402 21.6207C24.2105 21.6207 24.4296 21.4017 24.4296 21.1314C24.4296 20.8612 24.2105 20.6421 23.9402 20.6421C23.67 20.6421 23.4509 20.8612 23.4509 21.1314C23.4509 21.4017 23.67 21.6207 23.9402 21.6207Z" fill="#662C91"/>
<path d="M22.417 21.9468C22.8074 21.9468 23.1238 21.6304 23.1238 21.24C23.1238 20.8496 22.8074 20.5332 22.417 20.5332C22.0266 20.5332 21.7102 20.8496 21.7102 21.24C21.7102 21.6304 22.0266 21.9468 22.417 21.9468Z" fill="#662C91"/>
<path d="M25.2447 20.2624C25.3949 20.2624 25.5166 20.1407 25.5166 19.9906C25.5166 19.8405 25.3949 19.7188 25.2447 19.7188C25.0946 19.7188 24.9729 19.8405 24.9729 19.9906C24.9729 20.1407 25.0946 20.2624 25.2447 20.2624Z" fill="#662C91"/>
<path d="M23.6684 19.9902C23.8786 19.9902 24.049 19.8198 24.049 19.6096C24.049 19.3994 23.8786 19.229 23.6684 19.229C23.4582 19.229 23.2878 19.3994 23.2878 19.6096C23.2878 19.8198 23.4582 19.9902 23.6684 19.9902Z" fill="#662C91"/>
<path d="M22.3082 20.2076C22.5784 20.2076 22.7975 19.9886 22.7975 19.7183C22.7975 19.4481 22.5784 19.229 22.3082 19.229C22.0379 19.229 21.8188 19.4481 21.8188 19.7183C21.8188 19.9886 22.0379 20.2076 22.3082 20.2076Z" fill="#662C91"/>
<path d="M20.895 21.0779C21.2854 21.0779 21.6018 20.7615 21.6018 20.3711C21.6018 19.9807 21.2854 19.6643 20.895 19.6643C20.5047 19.6643 20.1882 19.9807 20.1882 20.3711C20.1882 20.7615 20.5047 21.0779 20.895 21.0779Z" fill="#662C91"/>
<path d="M23.1788 18.5229C23.329 18.5229 23.4507 18.4012 23.4507 18.2511C23.4507 18.101 23.329 17.9792 23.1788 17.9792C23.0287 17.9792 22.907 18.101 22.907 18.2511C22.907 18.4012 23.0287 18.5229 23.1788 18.5229Z" fill="#662C91"/>
<path d="M21.5483 18.7949C21.7585 18.7949 21.9289 18.6245 21.9289 18.4143C21.9289 18.2041 21.7585 18.0337 21.5483 18.0337C21.3381 18.0337 21.1677 18.2041 21.1677 18.4143C21.1677 18.6245 21.3381 18.7949 21.5483 18.7949Z" fill="#662C91"/>
<path d="M20.2969 19.4459C20.5672 19.4459 20.7863 19.2268 20.7863 18.9566C20.7863 18.6864 20.5672 18.4673 20.2969 18.4673C20.0267 18.4673 19.8076 18.6864 19.8076 18.9566C19.8076 19.2268 20.0267 19.4459 20.2969 19.4459Z" fill="#662C91"/>
<path d="M19.21 20.7515C19.6003 20.7515 19.9168 20.435 19.9168 20.0447C19.9168 19.6543 19.6003 19.3379 19.21 19.3379C18.8196 19.3379 18.5032 19.6543 18.5032 20.0447C18.5032 20.435 18.8196 20.7515 19.21 20.7515Z" fill="#662C91"/>
<path d="M20.569 17.5437C20.7191 17.5437 20.8408 17.422 20.8408 17.2718C20.8408 17.1217 20.7191 17 20.569 17C20.4188 17 20.2971 17.1217 20.2971 17.2718C20.2971 17.422 20.4188 17.5437 20.569 17.5437Z" fill="#662C91"/>
<path d="M19.1557 18.3596C19.3659 18.3596 19.5363 18.1892 19.5363 17.979C19.5363 17.7688 19.3659 17.5984 19.1557 17.5984C18.9455 17.5984 18.7751 17.7688 18.7751 17.979C18.7751 18.1892 18.9455 18.3596 19.1557 18.3596Z" fill="#662C91"/>
<path d="M18.1763 19.4459C18.4466 19.4459 18.6657 19.2268 18.6657 18.9566C18.6657 18.6864 18.4466 18.4673 18.1763 18.4673C17.9061 18.4673 17.687 18.6864 17.687 18.9566C17.687 19.2268 17.9061 19.4459 18.1763 19.4459Z" fill="#662C91"/>
<path d="M17.4707 21.0235C17.8611 21.0235 18.1775 20.707 18.1775 20.3167C18.1775 19.9263 17.8611 19.6099 17.4707 19.6099C17.0804 19.6099 16.7639 19.9263 16.7639 20.3167C16.7639 20.707 17.0804 21.0235 17.4707 21.0235Z" fill="#662C91"/>
<path d="M17.8502 17.5437C18.0003 17.5437 18.1221 17.422 18.1221 17.2718C18.1221 17.1217 18.0003 17 17.8502 17C17.7001 17 17.5784 17.1217 17.5784 17.2718C17.5784 17.422 17.7001 17.5437 17.8502 17.5437Z" fill="#662C91"/>
<path d="M16.709 18.7949C16.9191 18.7949 17.0895 18.6245 17.0895 18.4143C17.0895 18.2041 16.9191 18.0337 16.709 18.0337C16.4988 18.0337 16.3284 18.2041 16.3284 18.4143C16.3284 18.6245 16.4988 18.7949 16.709 18.7949Z" fill="#662C91"/>
<path d="M16.1651 20.1532C16.4353 20.1532 16.6544 19.9341 16.6544 19.6639C16.6544 19.3936 16.4353 19.1746 16.1651 19.1746C15.8949 19.1746 15.6758 19.3936 15.6758 19.6639C15.6758 19.9341 15.8949 20.1532 16.1651 20.1532Z" fill="#662C91"/>
<path d="M16.0017 21.8938C16.3921 21.8938 16.7085 21.5774 16.7085 21.187C16.7085 20.7967 16.3921 20.4802 16.0017 20.4802C15.6114 20.4802 15.2949 20.7967 15.2949 21.187C15.2949 21.5774 15.6114 21.8938 16.0017 21.8938Z" fill="#662C91"/>
<path d="M15.2403 18.4685C15.3905 18.4685 15.5122 18.3468 15.5122 18.1966C15.5122 18.0465 15.3905 17.9248 15.2403 17.9248C15.0902 17.9248 14.9685 18.0465 14.9685 18.1966C14.9685 18.3468 15.0902 18.4685 15.2403 18.4685Z" fill="#662C91"/>
<path d="M14.5888 20.0446C14.799 20.0446 14.9694 19.8742 14.9694 19.664C14.9694 19.4538 14.799 19.2834 14.5888 19.2834C14.3786 19.2834 14.2083 19.4538 14.2083 19.664C14.2083 19.8742 14.3786 20.0446 14.5888 20.0446Z" fill="#662C91"/>
<path d="M14.48 21.5118C14.7503 21.5118 14.9694 21.2928 14.9694 21.0225C14.9694 20.7523 14.7503 20.5332 14.48 20.5332C14.2098 20.5332 13.9907 20.7523 13.9907 21.0225C13.9907 21.2928 14.2098 21.5118 14.48 21.5118Z" fill="#662C91"/>
<path d="M14.8606 23.2525C15.251 23.2525 15.5674 22.936 15.5674 22.5457C15.5674 22.1553 15.251 21.8389 14.8606 21.8389C14.4703 21.8389 14.1538 22.1553 14.1538 22.5457C14.1538 22.936 14.4703 23.2525 14.8606 23.2525Z" fill="#662C91"/>
<path d="M13.12 20.208C13.2701 20.208 13.3918 20.0863 13.3918 19.9362C13.3918 19.786 13.2701 19.6643 13.12 19.6643C12.9699 19.6643 12.8481 19.786 12.8481 19.9362C12.8481 20.0863 12.9699 20.208 13.12 20.208Z" fill="#662C91"/>
<path d="M13.0656 21.9472C13.2758 21.9472 13.4462 21.7768 13.4462 21.5666C13.4462 21.3564 13.2758 21.186 13.0656 21.186C12.8555 21.186 12.6851 21.3564 12.6851 21.5666C12.6851 21.7768 12.8555 21.9472 13.0656 21.9472Z" fill="#662C91"/>
<path d="M13.3919 23.3617C13.6622 23.3617 13.8812 23.1426 13.8812 22.8724C13.8812 22.6021 13.6622 22.3831 13.3919 22.3831C13.1217 22.3831 12.9026 22.6021 12.9026 22.8724C12.9026 23.1426 13.1217 23.3617 13.3919 23.3617Z" fill="#662C91"/>
<path d="M14.2625 24.8831C14.6528 24.8831 14.9693 24.5666 14.9693 24.1763C14.9693 23.7859 14.6528 23.4695 14.2625 23.4695C13.8721 23.4695 13.5557 23.7859 13.5557 24.1763C13.5557 24.5666 13.8721 24.8831 14.2625 24.8831Z" fill="#662C91"/>
<path d="M11.7613 22.6003C11.9115 22.6003 12.0332 22.4786 12.0332 22.3285C12.0332 22.1783 11.9115 22.0566 11.7613 22.0566C11.6112 22.0566 11.4895 22.1783 11.4895 22.3285C11.4895 22.4786 11.6112 22.6003 11.7613 22.6003Z" fill="#662C91"/>
<path d="M12.2512 24.2306C12.4614 24.2306 12.6318 24.0603 12.6318 23.8501C12.6318 23.6399 12.4614 23.4695 12.2512 23.4695C12.041 23.4695 11.8706 23.6399 11.8706 23.8501C11.8706 24.0603 12.041 24.2306 12.2512 24.2306Z" fill="#662C91"/>
<path d="M13.011 25.4818C13.2813 25.4818 13.5004 25.2627 13.5004 24.9925C13.5004 24.7222 13.2813 24.5032 13.011 24.5032C12.7408 24.5032 12.5217 24.7222 12.5217 24.9925C12.5217 25.2627 12.7408 25.4818 13.011 25.4818Z" fill="#662C91"/>
<path d="M14.2625 26.6226C14.6528 26.6226 14.9693 26.3061 14.9693 25.9158C14.9693 25.5254 14.6528 25.209 14.2625 25.209C13.8721 25.209 13.5557 25.5254 13.5557 25.9158C13.5557 26.3061 13.8721 26.6226 14.2625 26.6226Z" fill="#662C91"/>
<path d="M11.2718 25.2644C11.422 25.2644 11.5437 25.1427 11.5437 24.9925C11.5437 24.8424 11.422 24.7207 11.2718 24.7207C11.1217 24.7207 11 24.8424 11 24.9925C11 25.1427 11.1217 25.2644 11.2718 25.2644Z" fill="#662C91"/>
<path d="M12.2512 26.6774C12.4614 26.6774 12.6318 26.507 12.6318 26.2968C12.6318 26.0867 12.4614 25.9163 12.2512 25.9163C12.041 25.9163 11.8706 26.0867 11.8706 26.2968C11.8706 26.507 12.041 26.6774 12.2512 26.6774Z" fill="#662C91"/>
<path d="M13.3375 27.6022C13.6077 27.6022 13.8268 27.3831 13.8268 27.1129C13.8268 26.8426 13.6077 26.6235 13.3375 26.6235C13.0672 26.6235 12.8481 26.8426 12.8481 27.1129C12.8481 27.3831 13.0672 27.6022 13.3375 27.6022Z" fill="#662C91"/>
<path d="M14.8064 28.2547C15.1968 28.2547 15.5132 27.9382 15.5132 27.5479C15.5132 27.1575 15.1968 26.8411 14.8064 26.8411C14.4161 26.8411 14.0996 27.1575 14.0996 27.5479C14.0996 27.9382 14.4161 28.2547 14.8064 28.2547Z" fill="#662C91"/>
<path d="M11.7613 27.9831C11.9115 27.9831 12.0332 27.8614 12.0332 27.7113C12.0332 27.5612 11.9115 27.4395 11.7613 27.4395C11.6112 27.4395 11.4895 27.5612 11.4895 27.7113C11.4895 27.8614 11.6112 27.9831 11.7613 27.9831Z" fill="#662C91"/>
<path d="M13.0656 29.0153C13.2758 29.0153 13.4462 28.8449 13.4462 28.6347C13.4462 28.4245 13.2758 28.2542 13.0656 28.2542C12.8555 28.2542 12.6851 28.4245 12.6851 28.6347C12.6851 28.8449 12.8555 29.0153 13.0656 29.0153Z" fill="#662C91"/>
<path d="M14.4256 29.4503C14.6958 29.4503 14.9149 29.2312 14.9149 28.961C14.9149 28.6908 14.6958 28.4717 14.4256 28.4717C14.1554 28.4717 13.9363 28.6908 13.9363 28.961C13.9363 29.2312 14.1554 29.4503 14.4256 29.4503Z" fill="#662C91"/>
<path d="M15.9473 29.5589C16.3376 29.5589 16.6541 29.2424 16.6541 28.8521C16.6541 28.4617 16.3376 28.1453 15.9473 28.1453C15.5569 28.1453 15.2405 28.4617 15.2405 28.8521C15.2405 29.2424 15.5569 29.5589 15.9473 29.5589Z" fill="#662C91"/>
<path d="M13.12 30.3755C13.2701 30.3755 13.3918 30.2538 13.3918 30.1036C13.3918 29.9535 13.2701 29.8318 13.12 29.8318C12.9699 29.8318 12.8481 29.9535 12.8481 30.1036C12.8481 30.2538 12.9699 30.3755 13.12 30.3755Z" fill="#662C91"/>
<path d="M14.6433 30.8635C14.8535 30.8635 15.0239 30.6931 15.0239 30.4829C15.0239 30.2727 14.8535 30.1023 14.6433 30.1023C14.4331 30.1023 14.2627 30.2727 14.2627 30.4829C14.2627 30.6931 14.4331 30.8635 14.6433 30.8635Z" fill="#662C91"/>
<path d="M16.0018 30.8634C16.272 30.8634 16.4911 30.6443 16.4911 30.3741C16.4911 30.1038 16.272 29.8848 16.0018 29.8848C15.7315 29.8848 15.5125 30.1038 15.5125 30.3741C15.5125 30.6443 15.7315 30.8634 16.0018 30.8634Z" fill="#662C91"/>
<path d="M17.4707 30.4292C17.8611 30.4292 18.1775 30.1128 18.1775 29.7224C18.1775 29.3321 17.8611 29.0156 17.4707 29.0156C17.0804 29.0156 16.7639 29.3321 16.7639 29.7224C16.7639 30.1128 17.0804 30.4292 17.4707 30.4292Z" fill="#662C91"/>
<path d="M15.1862 32.115C15.3363 32.115 15.458 31.9933 15.458 31.8431C15.458 31.693 15.3363 31.5713 15.1862 31.5713C15.036 31.5713 14.9143 31.693 14.9143 31.8431C14.9143 31.9933 15.036 32.115 15.1862 32.115Z" fill="#662C91"/>
<path d="M16.8178 32.0605C17.028 32.0605 17.1984 31.8901 17.1984 31.6799C17.1984 31.4697 17.028 31.2993 16.8178 31.2993C16.6076 31.2993 16.4373 31.4697 16.4373 31.6799C16.4373 31.8901 16.6076 32.0605 16.8178 32.0605Z" fill="#662C91"/>
<path d="M18.0677 31.6251C18.3379 31.6251 18.557 31.406 18.557 31.1358C18.557 30.8656 18.3379 30.6465 18.0677 30.6465C17.7974 30.6465 17.5784 30.8656 17.5784 31.1358C17.5784 31.406 17.7974 31.6251 18.0677 31.6251Z" fill="#662C91"/>
<path d="M19.1558 30.7556C19.5461 30.7556 19.8626 30.4392 19.8626 30.0488C19.8626 29.6585 19.5461 29.342 19.1558 29.342C18.7654 29.342 18.449 29.6585 18.449 30.0488C18.449 30.4392 18.7654 30.7556 19.1558 30.7556Z" fill="#662C91"/>
</svg>
