<svg width="80" height="50" viewBox="0 0 80 50" fill="none" xmlns="http://www.w3.org/2000/svg">
<rect width="80" height="50" fill="black"/>
<path d="M20.7697 16C18.4808 16.0003 16.2827 16.895 14.6443 18.4933C13.0059 20.0916 12.057 22.2668 12 24.555C12.3357 24.3928 12.7 24.2985 13.0722 24.2775C13.7464 24.2398 14.1356 24.7684 14.4193 25.1564C14.4977 25.2742 14.59 25.3821 14.6943 25.4778C14.7445 25.4589 15.0245 25.2832 15.2229 23.7276C15.4828 21.6774 15.7025 20.7144 16.2624 20.7332C16.5462 20.747 16.6654 21.0735 16.7998 21.7113C16.8864 22.1243 16.9768 22.6981 17.0697 23.4137C17.2254 24.6265 17.3346 25.8532 17.3359 25.8657C17.3886 27.0484 17.5506 28.4094 17.7477 28.9681C17.9599 28.2976 18.2009 26.4068 18.329 24.7496C18.5951 21.6108 19.0722 21.6284 19.2756 21.6372C19.479 21.646 19.9322 21.6661 20.28 25.0722C20.3842 26.2763 20.6102 27.425 20.7885 27.7515C20.963 27.4514 21.184 26.4621 21.3007 25.4213C21.5958 23.1099 22.054 23.1312 22.2286 23.14C22.6215 23.1576 22.9618 23.8029 23.2405 25.0547C23.366 25.6159 23.6083 26.1846 23.7502 26.28C23.8758 26.1909 24.1043 25.6937 24.2273 25.2166C24.5311 24.0352 24.9944 23.9096 25.1827 23.9096C25.3221 23.9096 25.803 23.9887 26.1357 24.9881C26.2612 25.2216 26.4885 25.474 26.614 25.474C26.7396 25.474 27.0446 25.1312 27.2531 24.7797C27.3861 24.511 27.7276 23.9096 28.1394 23.9096C28.5161 23.9096 28.9794 24.1859 29.5444 24.619C29.5039 22.3188 28.5615 20.1265 26.9203 18.5144C25.279 16.9023 23.0702 15.9993 20.7697 16V16Z" fill="#1D52D6"/>
<path d="M27.7088 25.0169L27.6937 25.0395C27.5619 25.263 27.0911 25.995 26.6052 25.995C26.103 25.995 25.7264 25.3471 25.6611 25.2165L25.6448 25.1764C25.5192 24.7746 25.2757 24.4306 25.174 24.4306C25.0597 24.462 24.8362 24.9165 24.727 25.3484C24.3868 26.6855 23.9272 26.8311 23.6937 26.7972C23.1802 26.7269 22.8776 25.7464 22.7421 25.1651C22.6027 24.5373 22.383 23.9096 22.2323 23.7062C22.0955 23.9573 21.9147 24.7206 21.818 25.4777C21.7565 26.0301 21.5167 27.8719 21.0471 28.2323C21.0034 28.2676 20.9528 28.2935 20.8986 28.3084C20.8444 28.3233 20.7877 28.3269 20.732 28.3189C20.4382 28.2737 20.1934 27.9623 19.9561 26.5913C19.8305 25.8543 19.764 25.1412 19.7602 25.1111C19.6498 24.0125 19.4388 22.752 19.258 22.2824C19.0961 22.7156 18.9228 23.8192 18.8425 24.7809C18.8425 24.7897 18.7546 25.9108 18.6115 27.0408C18.3277 29.2869 18.098 29.5518 17.8695 29.6334C17.832 29.6467 17.7925 29.6535 17.7527 29.6535C17.7055 29.6524 17.6591 29.642 17.6159 29.6228C17.5728 29.6036 17.534 29.5761 17.5016 29.5417C16.9994 29.0395 16.8563 26.6139 16.8236 25.8832C16.6617 24.0577 16.3993 22.0414 16.1959 21.376C16.049 21.72 15.892 22.5285 15.7339 23.784C15.538 25.3283 15.2317 25.9874 14.6868 25.9874C14.4005 25.9874 14.2084 25.7288 14.0063 25.4551C13.7665 25.1375 13.494 24.7746 13.0986 24.7884C12.7088 24.8131 12.3313 24.9344 12 25.1412C12.0969 27.39 13.0544 29.5156 14.6743 31.0784C16.2943 32.6411 18.4529 33.5216 20.7037 33.5377C22.9545 33.5539 25.1255 32.7044 26.7677 31.165C28.4098 29.6256 29.3976 27.514 29.5268 25.2668C29.2355 25.032 28.4822 24.4256 28.1319 24.4256C28.0578 24.4532 27.8431 24.7407 27.7088 25.0169L27.7088 25.0169Z" fill="#1D52D6"/>
<path d="M33.4176 26.9906V20.6816H32.8955V27.4845H36.8828V26.9906H33.4176Z" fill="white"/>
<path d="M47.8359 22.0366C46.31 22.0366 45.1069 23.2155 45.1069 24.8128C45.1069 26.4102 46.314 27.5871 47.854 27.5871C49.1476 27.5871 50.2249 26.7522 50.4804 25.4848H49.9503C49.73 26.4595 48.8941 27.1314 47.848 27.1314C46.6067 27.1234 45.6421 26.1849 45.631 24.8792H50.5599C50.5674 24.7575 50.565 24.6354 50.5528 24.5141C50.4985 23.8336 50.1877 23.1991 49.6833 22.7392C49.1789 22.2792 48.5185 22.028 47.8359 22.0366V22.0366ZM45.6592 24.4859C45.7047 23.9387 45.9543 23.4287 46.3583 23.0569C46.7623 22.6851 47.2914 22.4787 47.8404 22.4787C48.3895 22.4787 48.9185 22.6851 49.3226 23.0569C49.7266 23.4287 49.9762 23.9387 50.0217 24.4859H45.6592Z" fill="white"/>
<path d="M54.3348 22.0356C53.861 22.029 53.3954 22.1605 52.9951 22.4142C52.5948 22.6679 52.277 23.0326 52.0806 23.464V20.0017H51.5586V27.4845H52.0806V26.1769C52.2777 26.6058 52.5957 26.9678 52.9956 27.2185C53.3955 27.4692 53.8599 27.5977 54.3318 27.5881C55.8185 27.5881 56.9532 26.4173 56.9532 24.8119C56.9532 23.2065 55.7984 22.0366 54.3348 22.0356V22.0356ZM54.2524 27.0952C53.0181 27.0952 52.0756 26.1406 52.0746 24.8149C52.0736 23.4891 53.0252 22.5285 54.2534 22.5285C55.4765 22.5285 56.4341 23.4781 56.4321 24.8129C56.4301 26.1477 55.4886 27.0962 54.2524 27.0952V27.0952Z" fill="white"/>
<path d="M67.4777 20.0017V23.464C67.2812 23.0327 66.9634 22.668 66.5631 22.4144C66.1628 22.1607 65.6973 22.0291 65.2235 22.0356C63.7589 22.0356 62.6082 23.1964 62.6082 24.8119C62.6082 26.4273 63.7368 27.5871 65.2265 27.5881C65.6987 27.5974 66.1634 27.4685 66.5633 27.2173C66.9633 26.966 67.2811 26.6033 67.4777 26.1738V27.4815H67.9997V20.0017H67.4777ZM65.3059 27.0952C64.0687 27.0952 63.1242 26.1326 63.1252 24.8129C63.1262 23.4931 64.0818 22.5275 65.3049 22.5285C66.5321 22.5285 67.4827 23.4851 67.4827 24.8149C67.4827 26.1447 66.5402 27.0962 65.3059 27.0952Z" fill="white"/>
<path d="M58.2527 20.3478C58.1794 20.3507 58.1086 20.3752 58.049 20.418C57.9895 20.4609 57.9439 20.5203 57.9179 20.5889C57.8919 20.6575 57.8866 20.7322 57.9027 20.8038C57.9188 20.8753 57.9555 20.9406 58.0084 20.9914C58.0613 21.0422 58.128 21.0764 58.2001 21.0897C58.2723 21.1029 58.3467 21.0947 58.4142 21.066C58.4817 21.0373 58.5393 20.9894 58.5798 20.9282C58.6203 20.867 58.6419 20.7953 58.6419 20.7219C58.6421 20.6715 58.6321 20.6215 58.6124 20.575C58.5927 20.5285 58.5638 20.4865 58.5274 20.4516C58.491 20.4166 58.4479 20.3893 58.4007 20.3715C58.3534 20.3537 58.3031 20.3456 58.2527 20.3478V20.3478Z" fill="white"/>
<path d="M57.9912 22.1392H58.5133V27.4834H57.9912V22.1392Z" fill="white"/>
<path d="M42.1524 24.9798V27.4795H42.6554V24.9788C42.6554 24.6258 42.6554 23.6893 43.2428 23.0978C43.6059 22.7337 44.1481 22.5486 44.8522 22.5486V22.0457C44.0093 22.0457 43.3484 22.28 42.8877 22.7427C42.1484 23.4821 42.1514 24.5704 42.1524 24.9798V24.9798Z" fill="white"/>
<path d="M59.638 24.9798V27.4795H60.141V24.9788C60.141 24.6258 60.141 23.6893 60.7284 23.0978C61.0915 22.7337 61.6337 22.5486 62.3378 22.5486V22.0457C61.4959 22.0457 60.835 22.28 60.3733 22.7427C59.635 23.4821 59.637 24.5704 59.638 24.9798V24.9798Z" fill="white"/>
<path d="M39.1791 26.7884L37.5003 22.1482H36.938L38.9146 27.4865V27.4965C38.7637 27.8154 38.3623 28.6613 37.5747 28.942C37.401 29.0023 37.2184 29.0332 37.0346 29.0335V29.5365C37.2744 29.5348 37.5124 29.4933 37.7387 29.4137C38.7234 29.0637 39.1851 28.1503 39.3652 27.7098L41.5067 22.1392H40.9444L39.1791 26.7884Z" fill="white"/>
</svg>
