<svg width="80" height="50" viewBox="0 0 80 50" fill="none" xmlns="http://www.w3.org/2000/svg">
<rect width="80" height="50" fill="black"/>
<path d="M55.9936 31.6077H57.5872L57.6832 31.5237V27.269L55.8976 29.0546V31.5237L55.9936 31.6077ZM59.9373 22.8832C59.1462 22.9014 58.3725 23.1155 57.6842 23.5062V23.2307L57.5882 23.1347H55.9581L55.8621 23.2307V24.7216L57.6717 26.5312V25.4886C58.1152 24.9606 59.0142 24.5896 59.9248 24.5896C61.4589 24.5896 62.1779 25.4886 62.1779 26.9387V31.541L62.2739 31.637H63.904L64 31.541V26.8336C64 24.4 62.6574 22.8784 59.9373 22.8784V22.8832ZM33.7379 22.8707C32.5379 22.8573 31.3845 23.3277 30.5363 24.1754C29.6882 25.023 29.2178 26.177 29.2317 27.377C29.2319 28.572 29.7068 29.718 30.5518 30.5631C31.3968 31.4081 32.5429 31.8829 33.7379 31.8832C34.933 31.8829 36.079 31.4081 36.924 30.5631C37.7691 29.718 38.2439 28.572 38.2442 27.377C38.2439 26.1819 37.7691 25.0359 36.924 24.1908C36.079 23.3458 34.933 22.871 33.7379 22.8707V22.8707ZM33.7259 30.1571C32.2158 30.1571 31.1253 29.0066 31.1253 27.3765C31.1253 25.7464 32.2158 24.5718 33.7259 24.5958C35.236 24.5958 36.3266 25.7464 36.3266 27.3765C36.3266 29.0066 35.26 30.1571 33.7259 30.1571ZM46.6456 23.1347H44.836L44.74 23.2307L42.3904 29.176L40.0413 23.2312L39.9453 23.1352H38.1597L38.0637 23.2312L41.5034 31.5246L41.5994 31.6206H43.2294L43.3254 31.5246L46.7411 23.2312L46.6456 23.1347ZM25.696 19L25.6 19.096C25.552 21.3251 24.1139 23.1347 21.8848 23.1347C19.6317 23.1347 18.1696 21.3251 18.1696 19.096L18.0736 19H16.096L16 19.096V31.5246L16.096 31.6206H17.7261L17.8221 31.5246V22.8352C18.9126 24.1058 20.1117 24.9208 21.9088 24.9208C23.7059 24.9208 24.905 24.1058 25.9955 22.8232V31.5002L26.0915 31.5962H27.7216L27.8176 31.5002V19.096L27.6976 19H25.696ZM51.2118 30.1576C49.6778 30.1576 48.5872 29.151 48.3592 27.8085H54.34L54.52 27.7125C54.5887 27.575 54.6217 27.4225 54.616 27.269C54.616 24.8354 53.0819 22.853 50.824 22.853C48.2234 22.853 46.4973 24.8306 46.4973 27.2872C46.4973 29.7918 48.5949 31.8654 51.1955 31.8654C52.5381 31.8654 53.7962 31.2304 54.6112 30.7029L54.6472 30.7149V28.8093L54.5512 28.7133C53.6522 29.6243 52.3701 30.1514 51.2075 30.1514L51.2118 30.1576ZM50.848 24.5776C51.8656 24.6054 52.708 25.3763 52.8256 26.3872H48.4269C48.5689 25.8577 48.8849 25.3913 49.324 25.0631C49.7631 24.7348 50.2999 24.5638 50.848 24.5776V24.5776Z" fill="white"/>
</svg>
