<svg width="80" height="50" viewBox="0 0 80 50" fill="none" xmlns="http://www.w3.org/2000/svg">
<rect width="80" height="50" fill="black"/>
<path d="M19.668 25.8085L21.31 22.0957L23.0541 25.8085H19.668ZM17 29.6183H17.9222L19.2579 26.5718H23.3621L24.6961 29.6183H25.62L21.31 20.0954L17 29.6183Z" fill="white"/>
<path d="M35.0602 28.7613C34.548 29.143 34.0341 29.4275 33.4182 29.6184C32.8039 29.8092 32.188 29.8092 31.572 29.8092C30.1342 29.8092 29.0061 29.4275 27.9801 28.4751C27.0561 27.618 26.544 26.4764 26.544 24.9515C26.544 23.619 27.0561 22.4757 27.9801 21.5233C28.904 20.5725 30.0321 20.0954 31.572 20.0954C32.188 20.0954 32.8039 20.1908 33.3161 20.2863C33.9321 20.4771 34.4459 20.7617 35.0602 21.1433V22.1912C34.4459 21.7141 33.9321 21.3341 33.3161 21.1433C32.7001 20.9525 32.188 20.857 31.572 20.857C30.4422 20.857 29.5199 21.2387 28.6981 22.0957C27.9801 22.8574 27.57 23.8098 27.57 24.9515C27.57 26.1902 27.9801 27.1426 28.6981 27.9042C29.5199 28.6659 30.4422 29.1429 31.572 29.1429C32.188 29.1429 32.8039 28.9521 33.4182 28.7613C34.0341 28.5705 34.548 28.1905 35.0602 27.8088V28.7613Z" fill="white"/>
<path d="M37.6261 24.5715V21.0479H38.858C39.474 21.0479 39.9861 21.2387 40.3979 21.4295C40.808 21.6187 41.0122 22.0957 41.0122 22.8574C41.0122 23.3328 40.9101 23.8098 40.5 24.0944C40.192 24.4761 39.474 24.5715 38.55 24.5715H37.6261ZM36.7022 29.6184H37.6261V25.3331H37.9341L41.3201 29.6184H42.3462L38.9601 25.3331C40.0899 25.3331 40.9101 25.0469 41.3201 24.5715C41.7319 24.0944 42.0399 23.5236 42.0399 22.8574C42.0399 21.9049 41.7319 21.2387 41.116 20.857C40.5 20.477 39.884 20.3816 39.2681 20.3816H36.7022V29.6184Z" fill="white"/>
<path d="M45.5281 27.9042C44.7079 27.0472 44.2961 26.0947 44.2961 24.9515C44.2961 23.8098 44.7079 22.8574 45.5281 22.0957C46.3499 21.2387 47.2721 20.857 48.6061 20.857C49.8381 20.857 50.8641 21.2387 51.5821 22.0003C52.404 22.8574 52.8141 23.8098 52.8141 24.9515C52.8141 26.0947 52.404 27.0472 51.5821 27.9042C50.8641 28.6659 49.8381 29.1429 48.6061 29.1429C47.2721 29.1429 46.2461 28.6659 45.5281 27.9042ZM44.81 21.5233C43.784 22.4757 43.3739 23.619 43.3739 24.9515C43.3739 26.2856 43.784 27.5226 44.81 28.4751C45.7339 29.4275 46.9642 29.8092 48.6061 29.8092C50.146 29.8092 51.378 29.3321 52.3019 28.3797C53.3279 27.5226 53.8401 26.2856 53.8401 24.9515C53.8401 23.619 53.3279 22.4757 52.3019 21.5233C51.378 20.5725 50.146 20.0954 48.6061 20.0954C46.9642 20.0954 45.7339 20.5725 44.81 21.5233Z" fill="white"/>
<path d="M55.7901 20L63.0761 27.7134V20.3816H64V30L56.714 22.2866V29.6184H55.7901V20Z" fill="white"/>
</svg>
