<svg width="80" height="50" viewBox="0 0 80 50" fill="none" xmlns="http://www.w3.org/2000/svg">
<rect width="80" height="50" fill="black"/>
<path d="M19.7446 34.5803L19.859 35.3123L21.8863 35.3913L21.9836 34.7822L20.0792 34.9595L20.0414 34.5552L19.7383 34.5792L19.7446 34.5803ZM18.4802 32.8315L18.6603 34.2938L20.0866 34.184C19.8979 33.9266 19.6989 33.675 19.4701 33.452C19.1876 33.1775 18.8307 33.0019 18.4807 32.8315H18.4802ZM20.0723 31.6505L20.2553 33.6235C20.2696 33.8923 20.4955 34.0788 20.6082 34.3098C21.0697 33.7379 21.1612 32.9487 21.0102 32.247L20.0723 31.6522V31.6505ZM18.1262 24.455L19.4873 32.9807L19.9368 33.3822L19.7212 31.0861C20.6545 31.5218 21.5609 32.0514 22.3107 32.7651L23.6203 24.6357C22.9483 25.0418 22.2792 25.6308 22.1563 26.4486C22.1414 26.6202 22.0373 26.8346 21.8343 26.8352C21.2944 26.8444 20.7523 26.8524 20.2136 26.8306C19.9013 26.782 19.9345 26.4046 19.8464 26.1764C19.5605 25.3843 18.8485 24.8336 18.125 24.4607L18.1262 24.455ZM16.009 22.8366L18.9691 32.5387C18.9657 32.2281 18.8936 31.925 18.8467 31.6196L17.6286 24.1948C17.027 23.8231 16.4768 23.3696 16.0102 22.836L16.009 22.8366ZM26.939 21.7694L26.5129 23.0241C27.2884 23.3993 28.057 23.8419 28.9149 23.9878C28.4276 23.1145 27.651 22.454 26.9384 21.7688L26.939 21.7694ZM17.1019 16.6813C17.389 16.9455 17.707 17.1731 18.0146 17.4116C19.6388 18.6669 21.3219 19.8479 23.0416 20.9688C23.5122 20.1452 23.7656 19.2131 23.8554 18.2723C25.121 18.5857 26.386 18.9214 27.6052 19.3875C27.5664 19.6241 27.5231 19.8599 27.4754 20.0949C28.1606 20.08 28.8554 20.0835 29.5228 19.9096C29.4084 19.7381 29.21 19.658 29.039 19.5568C27.806 18.926 26.4615 18.5588 25.1353 18.1819C22.4983 17.4829 19.8129 16.9815 17.1013 16.6819L17.1019 16.6813ZM16.0891 15.8698L16.8966 15.9344C17.0076 15.3082 17.226 14.7083 17.5074 14.1387C16.9195 14.6076 16.4368 15.2024 16.0891 15.8692V15.8698ZM18.6432 13.4661C17.9426 14.125 17.5623 15.0577 17.3753 15.9859C19.5599 16.2261 21.7262 16.6104 23.8679 17.1011C23.7879 15.9098 23.3681 14.6877 22.4868 13.8516C21.9024 13.2929 21.0834 12.952 20.2679 13.0366C19.7103 13.0996 19.1499 13.2208 18.6426 13.4656L18.6432 13.4661ZM13.2645 12.9795C13.8118 13.8544 14.6142 14.5236 15.3548 15.2293C15.615 14.8673 15.8695 14.4973 16.1692 14.1701C15.5475 13.851 14.9133 13.5536 14.2648 13.2929C13.9422 13.1585 13.6111 13.0384 13.2651 12.9795H13.2645ZM16.6324 13.7206C17.6881 12.7713 19.0532 12.1811 20.4612 12.0255C21.9916 11.8883 23.5666 12.3081 24.8247 13.1911C26.0649 14.0558 26.9703 15.3206 27.3891 16.7734C27.5263 17.2252 27.5869 17.6953 27.6396 18.1631C28.3087 18.3975 28.9778 18.6492 29.5926 19.0049C29.9185 19.2033 30.2977 19.4555 30.3549 19.8667C30.4046 20.2396 30.0649 20.5187 29.7407 20.6125C28.94 20.8527 28.0936 20.7955 27.2684 20.776L27.1466 21.1552C27.8872 21.8243 28.6438 22.4917 29.2397 23.2998C29.4113 23.5457 29.5908 23.8236 29.5697 24.137C29.5525 24.3967 29.3169 24.5985 29.0641 24.6186C28.6427 24.6586 28.2349 24.5065 27.8449 24.3686C26.987 24.037 26.1624 23.6223 25.3617 23.17C23.0307 21.8821 20.8163 20.394 18.666 18.8259C17.7236 18.1185 16.7828 17.4093 15.8798 16.6527C15.7465 16.5155 15.5424 16.5589 15.3708 16.54C14.5044 16.5183 13.6151 16.4514 12.7704 16.683C12.8899 16.7971 13.0254 16.8932 13.1725 16.9684C13.6059 17.2 14.0532 17.4087 14.5135 17.582C14.5493 17.3504 14.5969 17.1208 14.6559 16.894C14.9991 16.9043 15.3405 16.9226 15.6831 16.9444C15.42 18.0081 15.4966 19.1564 15.9118 20.1698C16.2115 20.9053 16.693 21.5595 17.2855 22.0857C17.0893 20.6691 16.828 19.2548 16.7605 17.8251C16.9284 17.9537 17.0941 18.0853 17.2575 18.2197C17.3678 19.5779 17.5926 20.9236 17.7762 22.2727C17.7922 22.347 17.7888 22.4328 17.8334 22.4986C18.4968 23.0178 19.3729 23.1803 20.1953 23.059C21.0502 22.9595 21.8069 22.4711 22.393 21.8603C23.3309 22.478 24.2963 23.0499 25.2668 23.6132C24.9054 23.902 24.5205 24.1565 24.1139 24.3755L22.9129 31.6236C22.8568 32.0377 22.7442 32.4472 22.7367 32.8664L25.718 23.8637C25.8634 23.9301 26.0061 24.0022 26.1458 24.0798L22.9472 33.5046C23.2041 33.8576 23.4272 34.234 23.6135 34.6289C23.2532 34.669 22.8929 34.6998 22.5326 34.7342L22.3015 35.4124C22.5497 35.417 22.7991 35.441 23.0473 35.433C23.4476 35.3873 23.8308 35.2357 24.2368 35.2237C24.1407 35.3529 23.9806 35.3913 23.8388 35.4467C23.6043 35.5308 23.3738 35.6212 23.1456 35.7184C23.0141 35.978 22.9095 36.2805 22.6607 36.4527C22.3965 36.5785 22.1014 36.6162 21.8183 36.6814C21.0645 36.8187 20.3182 36.9983 19.5593 37.1075C19.4106 37.1189 19.2545 37.159 19.111 37.1081C18.9491 36.9914 18.8891 36.789 18.809 36.6162C18.5631 36.6048 18.316 36.5076 18.1811 36.2914C17.9266 35.9197 17.8648 35.4542 17.878 35.0138C18.1799 35.0338 18.4842 35.0275 18.7838 35.0653C18.9074 35.111 18.988 35.2323 19.1121 35.2769C19.215 35.2917 19.318 35.2929 19.4221 35.298C19.3517 35.0716 19.2825 34.8445 19.2007 34.6215C18.9011 34.6541 18.6003 34.6747 18.2989 34.697L18.0404 32.2716C18.2044 32.3221 18.3672 32.3763 18.5288 32.434L15.0094 21.2776C14.5993 20.334 14.3894 19.3017 14.4375 18.2723C13.9171 18.0819 13.4052 17.8617 12.9151 17.6032C12.6332 17.4471 12.3432 17.2829 12.1373 17.029C11.9909 16.8517 11.9458 16.5812 12.0801 16.3805C12.2311 16.1289 12.5239 16.0202 12.795 15.9516C13.4813 15.7926 14.1916 15.8012 14.8921 15.8029C14.1561 15.1298 13.4052 14.4589 12.8104 13.6526C12.6206 13.3746 12.4101 13.0544 12.4696 12.7004C12.5154 12.4007 12.8253 12.2131 13.113 12.22C13.5156 12.2194 13.8993 12.3618 14.2716 12.5014C15.0997 12.8239 15.8689 13.2734 16.6364 13.7166" fill="white"/>
<path d="M36.2263 22.6593L36.9892 22.6628L36.9989 26.4796H36.6872L34.5106 24.2406V26.4807L33.71 26.4784L33.7145 22.6433C33.9044 22.6422 34.0748 22.7097 34.1915 22.8629L36.2103 24.9606L36.2257 22.6599L36.2263 22.6593ZM39.8458 22.6656L40.635 22.6599V26.479H39.8481L39.8458 22.6656ZM44.5959 25.1002L45.6127 25.0887L45.1169 23.7637L44.6022 25.0996L44.5959 25.1002ZM44.7194 22.6656L45.488 22.6645L46.9561 26.4767L46.1143 26.4778L45.8958 25.9048L44.3099 25.906L44.0926 26.479H43.2434L44.7131 22.6656H44.7194ZM49.5702 22.6616L49.871 22.6731L52.0676 24.9629V22.6708L52.8454 22.6673L52.8523 26.4876L52.5406 26.4841L50.356 24.2155V26.4859C50.0918 26.4859 49.8281 26.4847 49.5639 26.4847L49.5656 22.6679L49.5702 22.6616ZM55.5247 22.6639H58.7159L58.7187 23.436C58.3173 23.436 57.9169 23.436 57.5155 23.4348L57.5149 26.4796H56.7274L56.7257 23.436C56.3261 23.4344 55.9266 23.4352 55.527 23.4383L55.5241 22.6651L55.5247 22.6639ZM61.3528 22.6639L62.1392 22.6605V26.4784H61.3528L61.3511 22.6639H61.3528ZM65.4905 23.0642C66.211 22.4695 67.3205 22.593 67.9999 23.1929L67.4778 23.7877C67.0946 23.5149 66.5753 23.3788 66.1338 23.5961C65.3984 23.9467 65.3904 25.1654 66.1012 25.5422C66.5473 25.771 67.086 25.6486 67.4738 25.369L67.9925 25.9609C67.3108 26.5711 66.1842 26.6826 65.4664 26.0775C64.5497 25.3524 64.5583 23.7774 65.4836 23.0637" fill="white"/>
</svg>
