<svg width="80" height="50" viewBox="0 0 80 50" fill="none" xmlns="http://www.w3.org/2000/svg">
<rect width="80" height="50" fill="black"/>
<path fill-rule="evenodd" clip-rule="evenodd" d="M11.2435 20.625H8.41406L11.6651 25.186L8.41406 29.7627H11.2435L14.4957 25.186L11.2435 20.625Z" fill="#F78F1E"/>
<path d="M14.8386 22.6692H16.1969L17.2413 24.3706L18.3221 22.6692H19.6041L17.8981 25.2113L19.7532 27.9957H18.3586L17.1964 26.1527L16.0101 27.9957H14.6968L16.5555 25.2042L14.8386 22.6692Z" fill="white"/>
<path d="M21.2764 23.549L21.0678 24.7364L21.0835 24.751C21.229 24.6068 21.3828 24.5025 21.5465 24.4407C21.7101 24.3774 21.8966 24.3474 22.105 24.3474C22.3644 24.3474 22.5932 24.3947 22.792 24.4891C22.9905 24.5837 23.1592 24.7097 23.296 24.8683C23.4329 25.0269 23.5373 25.2135 23.6097 25.4307C23.6825 25.6465 23.7188 25.8753 23.7188 26.1188C23.7188 26.3891 23.6655 26.6374 23.5613 26.8666C23.4574 27.0981 23.3153 27.2989 23.1396 27.4676C22.9615 27.6371 22.7568 27.7655 22.5242 27.8575C22.2893 27.9498 22.0419 27.9934 21.7777 27.9884C21.5233 27.9884 21.2809 27.9546 21.0497 27.887C20.8193 27.8202 20.6146 27.717 20.4353 27.579C20.2558 27.4385 20.113 27.2667 20.0064 27.0604C19.8997 26.8546 19.8439 26.6145 19.8391 26.3407H20.8983C20.9226 26.5795 21.012 26.7697 21.1672 26.9099C21.32 27.052 21.5163 27.1235 21.755 27.1235C21.8944 27.1235 22.0203 27.0954 22.1306 27.0386C22.2432 26.9814 22.3378 26.9077 22.4152 26.8155C22.4915 26.7236 22.5509 26.6169 22.5934 26.4958C22.637 26.3734 22.6576 26.2484 22.6576 26.1202C22.6576 25.9869 22.637 25.8598 22.5968 25.7411C22.5582 25.6234 22.4976 25.5194 22.4189 25.4298C22.3387 25.3399 22.2455 25.2698 22.134 25.2214C22.0251 25.1715 21.8991 25.1486 21.7548 25.1486C21.5657 25.1486 21.4119 25.1801 21.2932 25.248C21.172 25.3158 21.0606 25.4202 20.9564 25.5655H20.0027L20.5177 22.6766H23.4356V23.5493H21.2764" fill="white"/>
<path d="M27.1253 22.6692C27.3432 22.6692 27.5506 22.6948 27.748 22.7507C27.943 22.8049 28.115 22.8873 28.2618 23.0012C28.4085 23.1129 28.5249 23.2568 28.612 23.4327C28.698 23.6094 28.743 23.818 28.743 24.0579C28.743 24.3958 28.6558 24.6904 28.4813 24.9373C28.3066 25.1861 28.0496 25.3445 27.7058 25.4148V25.4307C27.8803 25.4559 28.0245 25.5011 28.1395 25.5678C28.2534 25.6354 28.3479 25.7203 28.4207 25.8247C28.4922 25.9314 28.5442 26.0501 28.5769 26.1883C28.6095 26.324 28.6302 26.4717 28.6411 26.6304C28.6458 26.72 28.6508 26.8292 28.6556 26.9588C28.6604 27.0886 28.6699 27.2182 28.6858 27.3505C28.699 27.4824 28.7244 27.6072 28.7573 27.7222C28.7888 27.8409 28.8324 27.9306 28.8869 27.9962H28.3245C28.2943 27.9453 28.2712 27.8847 28.253 27.8132C28.236 27.7418 28.2239 27.6664 28.2167 27.5892C28.2094 27.5128 28.2022 27.4365 28.1974 27.3614C28.1924 27.286 28.1876 27.2232 28.1815 27.1673C28.1717 26.9797 28.1572 26.7917 28.1343 26.6052C28.1112 26.4198 28.0639 26.2539 27.9913 26.107C27.9198 25.9593 27.8157 25.8431 27.6788 25.7532C27.5429 25.6622 27.3552 25.6234 27.1167 25.6332H25.1971V27.9959H24.6858V22.6694H27.1253V22.6692ZM27.0865 25.197C27.2403 25.197 27.3881 25.1738 27.5263 25.1266C27.6656 25.0794 27.788 25.0102 27.8921 24.9217C27.9963 24.8332 28.0789 24.7229 28.1418 24.598C28.2024 24.4723 28.2328 24.3268 28.2328 24.1621C28.2328 23.8339 28.1393 23.5756 27.9505 23.3866C27.7626 23.1975 27.4755 23.104 27.0865 23.104H25.1973V25.1967H27.0865V25.197Z" fill="white"/>
<path d="M33.1873 22.6692V23.1043H30.0188V25.0222H32.9862V25.4586H30.0188V27.5595H33.2247V27.9957H29.5095V22.6692H33.1873Z" fill="white"/>
<path d="M37.7237 22.6692V23.1043H35.8663V27.9957H35.3584V23.1043H33.5083V22.6692H37.7237Z" fill="white"/>
<path d="M39.6018 22.6692L41.6884 27.9957H41.1456L40.496 26.3381H38.0724L37.4315 27.9957H36.8948L39.0347 22.6692H39.6018ZM40.3254 25.9023L39.2957 23.1723L38.2304 25.9023H40.3254Z" fill="white"/>
<path d="M42.7183 22.6669H42.2092V27.9957H42.7183V22.6669Z" fill="white"/>
<path d="M44.3374 22.6692V27.5595H47.3204V27.9957H43.8281V22.6692H44.3374Z" fill="white"/>
<path d="M50.3274 28.1974C49.9103 28.1974 49.5372 28.1232 49.2102 27.9686C48.8879 27.8168 48.6151 27.6121 48.3984 27.3497C48.1823 27.091 48.0198 26.7851 47.9104 26.4387C47.8004 26.0926 47.7463 25.7227 47.7463 25.3333C47.7463 24.9357 47.8058 24.565 47.9225 24.2153C48.0416 23.8656 48.2118 23.5597 48.4326 23.3018C48.6544 23.0402 48.9262 22.8343 49.2447 22.6857C49.5647 22.5366 49.9285 22.4617 50.3322 22.4617C50.6386 22.4617 50.9227 22.5057 51.1842 22.5926C51.4447 22.6804 51.6751 22.8066 51.8748 22.9685C52.0729 23.1325 52.237 23.3279 52.3627 23.5547C52.4914 23.7827 52.577 24.0401 52.6244 24.3197L52.6414 24.4196H52.54H52.3178L52.3051 24.3485C52.2631 24.1109 52.1857 23.8978 52.0747 23.7033C51.9622 23.5102 51.8237 23.3468 51.6544 23.2106C51.4858 23.0733 51.2911 22.968 51.0684 22.8933C50.8481 22.8189 50.6018 22.7826 50.3318 22.7826C49.9693 22.7826 49.6507 22.8493 49.3731 22.9823C49.0922 23.1166 48.8566 23.2984 48.6639 23.527C48.4699 23.7571 48.3214 24.0258 48.2202 24.3365C48.1188 24.647 48.0684 24.9804 48.0684 25.3335C48.0684 25.6889 48.1176 26.0232 48.215 26.3353C48.3101 26.6448 48.4535 26.9158 48.6451 27.1439C48.8339 27.3708 49.0729 27.5524 49.3568 27.6879C49.6393 27.8197 49.9695 27.8883 50.3515 27.8883C50.6365 27.8883 50.9 27.8393 51.1458 27.7412C51.3952 27.6429 51.6127 27.5063 51.794 27.3336C51.9769 27.1614 52.1192 26.9548 52.2252 26.7138C52.3291 26.4728 52.3813 26.2132 52.3813 25.9311V25.7404H50.317V25.6551V25.5069V25.4213H52.7047V28.0789H52.6192H52.3811L52.3836 27.0626C52.2275 27.3627 52.0071 27.61 51.7264 27.802C51.3369 28.0667 50.8699 28.1974 50.3311 28.1974C50.3306 28.1974 50.3293 28.1974 50.3274 28.1974Z" fill="white"/>
<path d="M53.2238 28.0809H53.1384V22.5856H55.4082C55.9776 22.5863 56.407 22.695 56.6913 22.938C56.9746 23.179 57.1139 23.5517 57.1262 24.0344C57.1271 24.0514 57.1271 24.0682 57.1271 24.0853C57.1271 24.4375 57.0243 24.7398 56.8198 24.9815C56.6648 25.1653 56.4608 25.3051 56.2129 25.4011C56.3119 25.4299 56.4006 25.4653 56.4794 25.508C56.6303 25.5911 56.7499 25.7023 56.8318 25.8416C56.9119 25.9764 56.9662 26.1346 56.993 26.3144C57.0166 26.4889 57.0288 26.6813 57.0288 26.9006C57.0288 26.9696 57.0336 27.064 57.0374 27.1754C57.0422 27.2862 57.0504 27.3956 57.0592 27.5029C57.0703 27.6107 57.0817 27.7074 57.0958 27.7959C57.1087 27.8796 57.1293 27.933 57.1405 27.9459L57.2394 28.0816H57.071H56.8534L56.8305 28.0335C56.7978 27.9668 56.7767 27.8874 56.7594 27.788C56.7449 27.6949 56.7326 27.5928 56.7261 27.4861C56.7195 27.3808 56.7122 27.2755 56.7104 27.167C56.7079 27.0583 56.7059 26.9632 56.7059 26.8765C56.7059 26.6621 56.6909 26.4714 56.6587 26.3055C56.6285 26.1469 56.5692 26.018 56.4819 25.9131C56.3938 25.8108 56.2649 25.7277 56.0951 25.6696C55.9227 25.6122 55.6853 25.5806 55.3834 25.5806H53.4625V28.0814H53.3765H53.2238V28.0809ZM55.3698 25.2636C55.562 25.2636 55.7434 25.2391 55.9195 25.1898C56.0899 25.1444 56.2413 25.0707 56.37 24.9676C56.5002 24.8664 56.6028 24.7409 56.6834 24.5825C56.7603 24.4307 56.8003 24.2455 56.8003 24.0222C56.7946 23.6602 56.6886 23.3951 56.4844 23.1995C56.2853 23.0111 55.9417 22.9072 55.4461 22.9076L53.4625 22.9072V25.2638H55.3698V25.2636Z" fill="white"/>
<path d="M58.8295 27.9685C58.5134 27.816 58.2463 27.6088 58.0327 27.3455C57.8203 27.0822 57.6578 26.7772 57.5475 26.4286C57.4386 26.0832 57.3816 25.7165 57.3816 25.3304C57.3816 24.9437 57.4386 24.576 57.5475 24.2311C57.6576 23.882 57.8203 23.5775 58.0327 23.3146C58.246 23.0507 58.5134 22.8417 58.8289 22.6892C59.1486 22.5326 59.5138 22.455 59.9212 22.455C60.3304 22.455 60.6953 22.5326 61.0132 22.6892C61.3294 22.8417 61.5974 23.0509 61.8112 23.3146C62.0241 23.5775 62.1866 23.882 62.2969 24.2304C62.406 24.576 62.461 24.9437 62.461 25.3304C62.461 25.716 62.4063 26.0823 62.2969 26.4286C62.1868 26.7772 62.0241 27.0822 61.8112 27.3455C61.5976 27.6088 61.3294 27.816 61.0132 27.9685C60.6948 28.1228 60.3304 28.1979 59.9212 28.1979C59.5142 28.1979 59.1493 28.1228 58.8295 27.9685ZM58.3082 27.1746C58.4966 27.3986 58.726 27.5743 58.9982 27.7018C59.2678 27.8271 59.5742 27.8902 59.9209 27.8902C60.2693 27.8902 60.5759 27.8273 60.8464 27.7025C61.1183 27.5743 61.3471 27.3986 61.5357 27.1753C61.7218 26.9513 61.8695 26.6826 61.973 26.3698C62.077 26.053 62.1317 25.711 62.1364 25.337C62.1317 24.9632 62.077 24.6196 61.973 24.3048C61.8695 23.9919 61.722 23.7218 61.5357 23.4971C61.3471 23.2745 61.1183 23.0999 60.8464 22.9717C60.5759 22.8453 60.2693 22.7822 59.9209 22.7822C59.5742 22.7822 59.2678 22.8453 58.9986 22.9717C58.7254 23.0999 58.4966 23.2733 58.3082 23.4971C58.1205 23.7218 57.9742 23.9919 57.8693 24.3048C57.7667 24.6189 57.7125 24.9632 57.7077 25.335C57.7125 25.7108 57.7667 26.0528 57.8693 26.3694V26.3692C57.9742 26.6826 58.1205 26.9513 58.3082 27.1746Z" fill="white"/>
<path d="M66.9134 22.5831H66.9992V26.0089C66.9992 26.7365 66.8292 27.2905 66.4747 27.6552C66.1225 28.0197 65.6112 28.1979 64.9614 28.1979C64.96 28.1979 64.9587 28.1979 64.958 28.1979C64.3057 28.1986 63.7946 28.0204 63.442 27.6552C63.0861 27.2905 62.9175 26.7365 62.9175 26.0089V22.5831H63.0035H63.2409V26.0089C63.2416 26.6385 63.3845 27.1015 63.6585 27.4133C63.9308 27.7213 64.3561 27.8824 64.958 27.8833C65.5594 27.8824 65.984 27.7213 66.2566 27.4133C66.5298 27.101 66.6753 26.6383 66.6753 26.0089V22.5831H66.7609H66.9134Z" fill="white"/>
<path d="M67.5645 28.081H67.4785V22.5879H69.7244C70.2491 22.5879 70.6692 22.7138 70.974 22.9753C71.2779 23.2383 71.4306 23.6291 71.43 24.1282C71.43 24.3726 71.3843 24.5925 71.2951 24.7868C71.2053 24.9793 71.0805 25.142 70.92 25.2729C70.7618 25.4018 70.5728 25.4992 70.3576 25.5634C70.1422 25.6295 69.9044 25.6603 69.6495 25.6603H67.8024V28.0812H67.7168H67.5645V28.081ZM69.7226 25.3363C69.923 25.3363 70.1082 25.3099 70.278 25.2552C70.4479 25.2015 70.5918 25.1232 70.7155 25.0185C70.8369 24.9157 70.9316 24.7891 71.0019 24.6413C71.0707 24.4947 71.1059 24.3238 71.1059 24.1255C71.105 23.719 70.9917 23.4228 70.7702 23.2188C70.5521 23.0164 70.2074 22.9077 69.7228 22.9077L67.8021 22.9072V25.3365H69.7226V25.3363Z" fill="white"/>
</svg>
