<svg width="80" height="50" viewBox="0 0 80 50" fill="none" xmlns="http://www.w3.org/2000/svg">
<rect width="80" height="50" fill="black"/>
<path fill-rule="evenodd" clip-rule="evenodd" d="M8.08228 26.4079C8.08228 26.4079 10.0256 26.4265 10.9059 26.5839C13.7091 27.079 13.8166 29.6639 13.8166 29.6639C13.8166 29.6639 13.3602 29.6894 12.1557 29.6894C9.34634 29.6894 8.08266 26.4079 8.08266 26.4079H8.08228ZM19.9373 26.4079C19.9373 26.4079 17.9944 26.4265 17.1137 26.5839C14.3113 27.079 14.2042 29.6639 14.2042 29.6639C14.2042 29.6639 14.6602 29.6894 15.8647 29.6894C18.6744 29.6894 19.9377 26.4079 19.9377 26.4079H19.9373ZM15.0571 26.1077C15.0571 26.6688 14.5883 27.1233 14.01 27.1233C13.4313 27.1233 12.9625 26.6688 12.9625 26.1077C12.9625 25.5471 13.4313 25.0921 14.01 25.0921C14.5883 25.0921 15.0571 25.5471 15.0571 26.1077ZM17.1972 25.1083C17.1972 25.669 16.7284 26.1239 16.1502 26.1239C15.5719 26.1239 15.1031 25.669 15.1031 25.1083C15.1031 24.5473 15.5719 24.0927 16.1502 24.0927C16.7284 24.0927 17.1972 24.5473 17.1972 25.1083ZM16.2449 21.0605C16.2449 21.6212 15.7761 22.0761 15.1979 22.0761C14.6192 22.0761 14.1504 21.6212 14.1504 21.0605C14.1504 20.4995 14.6192 20.0449 15.1979 20.0449C15.7761 20.0449 16.2449 20.4995 16.2449 21.0605ZM13.8692 21.0605C13.8692 21.6212 13.4004 22.0761 12.8221 22.0761C12.2439 22.0761 11.7751 21.6212 11.7751 21.0605C11.7751 20.4995 12.2439 20.0449 12.8221 20.0449C13.4004 20.0449 13.8692 20.4995 13.8692 21.0605ZM12.9169 25.1083C12.9169 25.669 12.4481 26.1239 11.8698 26.1239C11.2912 26.1239 10.8224 25.669 10.8224 25.1083C10.8224 24.5473 11.2912 24.0927 11.8698 24.0927C12.4481 24.0927 12.9169 24.5473 12.9169 25.1083ZM17.726 22.8622C17.726 23.4228 17.2572 23.8774 16.6789 23.8774C16.1003 23.8774 15.6315 23.4228 15.6315 22.8626C15.6315 22.3015 16.1003 21.8469 16.6789 21.8469C17.2572 21.8469 17.726 22.3015 17.726 22.8626V22.8622ZM12.3881 22.8622C12.3881 23.4228 11.9193 23.8774 11.3411 23.8774C10.7624 23.8774 10.294 23.4228 10.294 22.8622C10.294 22.3011 10.7624 21.8466 11.3411 21.8466C11.9193 21.8466 12.3881 22.3011 12.3881 22.8622ZM25.1561 28.7884C24.0196 28.7976 22.0315 28.4758 22.0315 26.2169C22.0315 23.9854 24.0196 23.6084 25.1561 23.6455V22.9382H27.0119V23.6455C28.148 23.6084 30.1365 23.9851 30.1365 26.2169C30.1365 28.4758 28.1483 28.7976 27.0119 28.7884V29.6882H25.1561V28.7884ZM25.2887 24.9308C24.8246 24.9219 23.8873 25.0782 23.8873 26.2169C23.8873 27.3552 24.8246 27.5115 25.2887 27.5027V24.9308ZM26.8793 27.5027C27.3434 27.5115 28.2806 27.3556 28.2806 26.2169C28.2806 25.0782 27.3434 24.9219 26.8793 24.9308V27.5027ZM30.8246 26.4739C30.8246 24.7568 31.961 23.0759 34.3847 23.0759C36.8088 23.0759 37.9449 24.7564 37.9449 26.4739C37.9449 28.1914 36.8088 29.8719 34.3847 29.8719C31.961 29.8719 30.825 28.1914 30.825 26.4739H30.8246ZM36.0321 26.4739C36.0321 25.2341 35.2461 24.619 34.3847 24.619C33.5233 24.619 32.737 25.2341 32.737 26.4739C32.737 27.7137 33.5233 28.3288 34.3847 28.3288C35.2461 28.3288 36.0325 27.7137 36.0325 26.4739H36.0321ZM43.8076 29.3946C43.2111 29.7893 42.5861 29.8719 42.0183 29.8719C40.0487 29.8719 38.6283 28.531 38.6283 26.4739C38.6283 24.3246 40.191 23.0759 41.9896 23.0759C42.5768 23.0759 43.2491 23.223 43.8076 23.5903V25.4541C43.4672 25.069 42.9458 24.6831 42.236 24.6831C41.2133 24.6831 40.5411 25.4726 40.5411 26.5287C40.5411 27.5027 41.1754 28.2647 42.236 28.2647C42.9268 28.2647 43.4668 27.9067 43.8076 27.5667V29.3946ZM46.6456 23.2596H48.8987L51.2566 29.6882H49.2684L48.8987 28.5769H46.6456L46.2762 29.6882H44.288L46.6456 23.2596ZM47.0149 27.1627H48.5297L47.7723 24.7935L47.0149 27.1627ZM51.903 23.2596H55.8797V24.8023H53.7588V29.6886H51.903V23.2596ZM56.6119 23.2596H59.4046C61.2891 23.2596 61.819 24.5272 61.819 25.4089C61.819 26.2995 61.2794 27.5667 59.4046 27.5667H58.4674V29.6882H56.6119V23.2596ZM58.4674 26.1525H58.9973C59.8215 26.1525 59.9066 25.684 59.9066 25.4085C59.9066 25.0871 59.7929 24.6742 58.9977 24.6742H58.4677V26.1525H58.4674ZM62.4448 26.4739C62.4448 24.7568 63.5812 23.0759 66.0053 23.0759C68.429 23.0759 69.5651 24.7564 69.5651 26.4739C69.5651 28.1914 68.429 29.8719 66.0053 29.8719C63.5812 29.8719 62.4448 28.1914 62.4448 26.4739ZM67.6523 26.4739C67.6523 25.2341 66.8667 24.619 66.0053 24.619C65.1431 24.619 64.3576 25.2341 64.3576 26.4739C64.3576 27.7137 65.1431 28.3288 66.0053 28.3288C66.8667 28.3288 67.6523 27.7137 67.6523 26.4739ZM72 23.958C72 24.538 71.5555 24.9744 70.9525 24.9744C70.3491 24.9744 69.9047 24.538 69.9047 23.9584C69.9047 23.3758 70.3491 22.9366 70.9525 22.9366C71.5559 22.9366 72 23.3761 72 23.9584V23.958ZM70.0776 23.958C70.0776 24.4481 70.4384 24.8235 70.9525 24.8235C71.4662 24.8235 71.8267 24.4485 71.8267 23.9584C71.8267 23.4657 71.4662 23.0879 70.9525 23.0879C70.4384 23.0879 70.078 23.4657 70.078 23.9584L70.0776 23.958ZM70.9049 23.365C71.038 23.365 71.3381 23.3873 71.3381 23.7203C71.3381 23.8994 71.2283 24.0144 71.0724 24.0452L71.4762 24.5407H71.2163L70.8585 24.0761H70.8009V24.5407H70.5932V23.365H70.9049ZM70.8009 23.8913H70.879C70.9653 23.8913 71.1301 23.8828 71.1301 23.7203C71.1301 23.5498 70.9626 23.5498 70.8848 23.5498H70.8009V23.8913Z" fill="white"/>
</svg>
