<svg width="80" height="50" viewBox="0 0 80 50" fill="none" xmlns="http://www.w3.org/2000/svg">
<rect width="80" height="50" fill="black"/>
<path d="M39.4329 20H36.8998V30H39.1532V23.4091H39.293L41.6862 27.2121H42.8828L45.276 23.4091H45.4158V30H47.6846V20H45.1982L42.3389 24.5303L39.4329 20Z" fill="white"/>
<path d="M52.3931 20H50.1087V30H52.3931V25.7273H53.5276L56.6822 30H59.6504L55.439 24.6667L59.2774 20H56.4335L53.512 23.6818L52.3931 23.803V20Z" fill="white"/>
<path d="M69.5026 20H61.2974V30H65.9595C66.5503 30 67.0785 29.9243 67.5759 29.7879C68.0728 29.6363 68.4928 29.4243 68.8503 29.1666C69.2077 28.8788 69.4872 28.5455 69.7046 28.1515C69.8913 27.7272 70 27.2879 70 26.7576C70 26.2272 69.8913 25.7576 69.7046 25.3334C69.4872 24.9394 69.2077 24.6061 68.8656 24.3485C68.4928 24.0758 68.0728 23.8788 67.5759 23.7576C67.0785 23.6212 66.5503 23.5606 65.9595 23.5606H63.582V22.0152H67.4672L69.5026 20ZM63.5974 28V25.5152H66.0374C66.5656 25.5152 66.9697 25.6212 67.2492 25.8485C67.5446 26.0606 67.6846 26.3485 67.6846 26.7576C67.6846 27.1363 67.5446 27.4243 67.2492 27.6667C66.9697 27.8788 66.5344 28 65.9749 28H63.5974Z" fill="white"/>
<path d="M22.7584 20.0152L17.6302 25L15.0816 22.5L17.6457 20H12.5175L10 22.5L17.6923 30L24.2502 23.5455H28.1818L31.8027 20.0152H22.7584Z" fill="white"/>
<path d="M18.749 29.894L24.5454 24.2424H31.8182L28.1818 27.7728H26.0373L23.8928 29.894H18.749Z" fill="white"/>
</svg>
