<svg width="80" height="50" viewBox="0 0 80 50" fill="none" xmlns="http://www.w3.org/2000/svg">
<rect width="80" height="50" fill="black"/>
<path d="M51.028 20.1843C51.028 20.1089 50.9829 20.0849 50.8796 20.0849H50.78V20.2983C50.7944 20.2983 50.8668 20.3009 50.8796 20.3009C50.9829 20.3009 51.028 20.2673 51.028 20.1967V20.1843V20.1843ZM51.1835 20.7135H51.0653C51.0547 20.7135 51.0453 20.7069 51.0408 20.6982L50.8796 20.4319C50.8767 20.4265 50.8628 20.42 50.8573 20.42H50.7849V20.6841C50.7849 20.6982 50.775 20.7135 50.756 20.7135H50.6491C50.6358 20.7135 50.6224 20.6982 50.6224 20.6841V20.016C50.6224 19.9774 50.6378 19.9612 50.6714 19.9562C50.7091 19.9514 50.8116 19.948 50.8668 19.948C51.0631 19.948 51.1817 20.0045 51.1817 20.1843V20.1967C51.1817 20.308 51.125 20.3667 51.037 20.3955L51.204 20.6709C51.2051 20.6765 51.209 20.6841 51.209 20.6906C51.209 20.7014 51.2023 20.7134 51.1835 20.7134L51.1835 20.7135ZM50.903 19.8275C50.6123 19.8275 50.3772 20.0615 50.3772 20.3433C50.3772 20.6254 50.6123 20.8557 50.903 20.8557C51.1922 20.8557 51.4296 20.6254 51.4296 20.3433C51.4296 20.0615 51.1922 19.8275 50.903 19.8275ZM50.903 20.962C50.5498 20.962 50.2681 20.6841 50.2681 20.3433C50.2681 20.003 50.5498 19.7244 50.903 19.7244C51.2524 19.7244 51.5395 20.003 51.5395 20.3433C51.5395 20.6841 51.2524 20.962 50.903 20.962Z" fill="#0071C5"/>
<path d="M21.985 19L15 31.0909H15.9691L21.985 20.73V22.4345L16.9718 31.0909H17.9745L21.985 24.1727V25.9104L18.9773 31.0909H19.98L21.9854 27.6486V29.3532L20.9827 31.0909H28.9704L21.985 19Z" fill="#DA291C"/>
<path d="M29.2104 24.8318H32.3636V25.5054H29.9654V26.6054H32.1009V27.279H29.9654V28.4122H32.3964V29.0859H29.2145L29.2104 24.8318ZM37.2095 24.8318L35.7313 26.9013L37.2754 29.0695H36.3891L35.2727 27.4436L34.1559 29.0695H33.3014L34.8286 26.9013L33.3504 24.8104H34.2368L35.2882 26.3377L36.3563 24.8104H37.2109L37.2095 24.8318ZM37.8832 26.9672C37.8832 25.7518 38.8032 24.7663 40.1168 24.7663C41.4145 24.7663 42.3341 25.7518 42.3341 26.9509C42.3341 28.1499 41.4141 29.1518 40.1004 29.1518C38.8027 29.1518 37.8832 28.1663 37.8832 26.9672V26.9672ZM41.5459 26.9672C41.5459 26.1295 40.9382 25.4563 40.1004 25.4563C39.2627 25.4563 38.6713 26.1299 38.6713 26.9509C38.6713 27.7718 39.2791 28.4618 40.1168 28.4618C40.9545 28.4618 41.5459 27.7881 41.5459 26.9672ZM43.2541 28.4618L43.6977 27.9199C44.1082 28.2654 44.5191 28.479 45.0445 28.479C45.5045 28.479 45.8 28.2654 45.8 27.9372V27.9209C45.8 27.6254 45.6363 27.4609 44.8472 27.264C43.9441 27.0504 43.4345 26.7713 43.4345 25.9995V25.9831C43.4345 25.2559 44.0422 24.7559 44.88 24.7559C45.5041 24.7559 45.9968 24.9363 46.4241 25.2977L46.03 25.8568C45.6527 25.5777 45.2581 25.4131 44.88 25.4131C44.4363 25.4131 44.19 25.6431 44.19 25.9222V25.9386C44.19 26.2672 44.3872 26.4149 45.2081 26.6122C46.1113 26.8259 46.5718 27.154 46.5718 27.8604V27.8768C46.5718 28.6649 45.9477 29.1413 45.0609 29.1413C44.3964 29.146 43.7533 28.9062 43.2541 28.4677V28.4618ZM47.5736 26.9672C47.5736 25.7518 48.4768 24.7663 49.7581 24.7663C50.5463 24.7663 51.0227 25.0454 51.4336 25.4231L50.9572 25.9822C50.6118 25.6699 50.2509 25.4568 49.7581 25.4568C48.9536 25.4568 48.3627 26.1136 48.3627 26.9513C48.3627 27.789 48.9536 28.4622 49.7581 28.4622C50.2836 28.4622 50.6127 28.2486 50.9736 27.9204L51.4545 28.4136C51.0109 28.8736 50.5181 29.169 49.73 29.169C48.5027 29.1527 47.5781 28.1836 47.5781 26.9681L47.5736 26.9672ZM54.094 24.799H54.784L56.6568 29.0695H55.8636L55.4363 28.0513H53.4363L52.9927 29.0695H52.2209L54.094 24.799ZM55.1622 27.3899L54.4231 25.6981L53.6959 27.3899H55.1622ZM57.7245 24.8277H58.4636V28.3913H60.6972V29.0649H57.7245V24.8277ZM61.8145 24.8277H64.9681V25.5013H62.5699V26.6013H64.7054V27.2749H62.5699V28.4081H64.9999V29.0909H61.8181L61.8145 24.8277Z" fill="white"/>
</svg>
