<svg width="80" height="50" viewBox="0 0 80 50" fill="none" xmlns="http://www.w3.org/2000/svg">
<rect width="80" height="50" fill="black"/>
<path d="M30.1343 27.0747L31.3268 26.1363C31.6607 26.7242 32.2009 27.0581 32.821 27.0581C33.4888 27.0581 33.8543 26.6288 33.8543 26.1519C33.8543 25.5795 33.171 25.4053 32.4233 25.1823C31.5015 24.8961 30.4687 24.5467 30.4687 23.2111C30.4687 22.0985 31.4382 21.2244 32.7577 21.2244C33.8864 21.2244 34.5221 21.6537 35.0784 22.226L33.9974 23.0525C33.7112 22.6232 33.3141 22.4008 32.7738 22.4008C32.1537 22.4008 31.8354 22.7347 31.8354 23.1639C31.8354 23.6886 32.5032 23.8794 33.2342 24.1179C34.1726 24.4202 35.221 24.8334 35.221 26.1524C35.221 27.2495 34.3468 28.2988 32.836 28.2988C31.5969 28.3144 30.7539 27.7907 30.1338 27.0752L30.1343 27.0747ZM40.7058 23.4984H41.9932V24.023C42.2954 23.6415 42.7563 23.403 43.2966 23.403C44.4092 23.403 45.077 24.1184 45.077 25.342V28.2195H43.7575V25.5173C43.7575 24.8816 43.4713 24.5156 42.8834 24.5156C42.3908 24.5156 41.9932 24.8495 41.9932 25.6443V28.2195H40.7043L40.7058 23.4984ZM45.3793 25.8667C45.3793 24.1972 46.6028 23.403 47.6683 23.403C48.2884 23.403 48.7654 23.6259 49.0837 23.9593V21.3203H50.371V28.219H49.0827V27.6943C48.7648 28.0598 48.2718 28.3144 47.6517 28.3144C46.65 28.3144 45.3787 27.5196 45.3787 25.8662L45.3793 25.8667ZM49.1148 25.8511C49.1148 25.1512 48.6067 24.5794 47.9068 24.5794C47.7387 24.5756 47.5717 24.6059 47.4157 24.6685C47.2597 24.7311 47.118 24.8246 46.9991 24.9435C46.8803 25.0623 46.7867 25.2041 46.7241 25.36C46.6616 25.516 46.6312 25.6831 46.635 25.8511C46.6297 26.0196 46.659 26.1873 46.7211 26.344C46.7832 26.5007 46.8766 26.643 46.9958 26.7621C47.115 26.8813 47.2573 26.9748 47.4139 27.0368C47.5706 27.0989 47.7383 27.1282 47.9068 27.1229C48.6067 27.1229 49.1148 26.5506 49.1148 25.8511ZM50.6728 24.7702C50.6728 22.7989 52.1504 21.2254 54.2015 21.2254C55.2187 21.2254 56.0773 21.5909 56.6974 22.1794C56.9514 22.4179 57.1588 22.6875 57.333 22.9903L56.1887 23.6902C55.7595 22.9115 55.1077 22.4977 54.2175 22.4977C52.9618 22.4977 51.9923 23.531 51.9923 24.7707C51.9923 26.0425 52.9463 27.0436 54.2652 27.0436C55.2669 27.0436 55.9814 26.4712 56.2199 25.5919H54.0579V24.3362H57.6342V24.8609C57.6342 26.7045 56.3147 28.3102 54.2642 28.3102C52.1022 28.3102 50.6712 26.6729 50.6712 24.7655L50.6728 24.7702ZM57.9531 23.4984H59.2342V24.2771C59.4727 23.7845 59.902 23.4984 60.5376 23.4984H61.0623L60.5853 24.7541H60.2354C59.552 24.7541 59.2503 25.1196 59.2503 25.9932V28.2185H57.9469L57.9531 23.4984ZM61.4024 23.4984H62.6898V28.2195H61.4024V24.7541H60.9254L61.4024 23.4984ZM62.0541 22.7829C62.4834 22.7829 62.8329 22.4329 62.8329 22.0041C62.8329 21.5754 62.4829 21.2254 62.0541 21.2254C61.6254 21.2254 61.2754 21.5754 61.2754 22.0041C61.2754 22.4329 61.6254 22.7829 62.0541 22.7829ZM63.0081 25.8667C63.0081 24.1972 64.2317 23.403 65.2971 23.403C65.9172 23.403 66.3937 23.6259 66.7126 23.9593V21.3203H67.9999V28.219H66.7126V27.6943C66.3947 28.0598 65.9017 28.3144 65.2816 28.3144C64.2799 28.3144 63.0086 27.5196 63.0086 25.8662L63.0081 25.8667ZM66.7437 25.8511C66.7437 25.1512 66.2356 24.5794 65.5356 24.5794C65.3676 24.5756 65.2005 24.6059 65.0445 24.6685C64.8885 24.7311 64.7468 24.8246 64.628 24.9435C64.5091 25.0623 64.4156 25.2041 64.353 25.36C64.2904 25.516 64.2601 25.6831 64.2638 25.8511C64.2586 26.0196 64.2879 26.1873 64.35 26.344C64.412 26.5007 64.5055 26.643 64.6247 26.7621C64.7438 26.8813 64.8861 26.9748 65.0428 27.0368C65.1995 27.0989 65.3672 27.1282 65.5356 27.1229C66.2356 27.1229 66.7437 26.5506 66.7437 25.8511ZM40.4041 25.8511C40.4041 24.484 39.419 23.403 37.9725 23.403C36.6053 23.403 35.5087 24.5 35.5087 25.8667C35.5087 27.2334 36.5259 28.3305 38.0046 28.3305C39.0218 28.3305 39.7534 27.8379 40.1666 27.138L39.1333 26.5179C38.9104 26.9311 38.4977 27.2012 38.0046 27.2012C37.3213 27.2012 36.892 26.8673 36.7489 26.3427H40.3885V25.8501L40.4041 25.8511ZM36.8111 25.2788C37.0019 24.8339 37.4312 24.5322 37.9714 24.5322C38.5117 24.5322 38.9254 24.7862 39.1001 25.2788H36.8111Z" fill="white"/>
<path d="M12 22.1648H17.195V27.3598H12V22.1648Z" fill="white"/>
<path d="M12 22.1648H17.195V27.3598H12V22.1648Z" fill="#99E1F4"/>
<path d="M17.1951 27.3599H22.3605V32.5253H17.1951V27.3599Z" fill="white"/>
<path d="M17.1951 27.3599H22.3605V32.5253H17.1951V27.3599Z" fill="#99E1F4"/>
<path d="M12 32.5259H17.195V32.5559H12V32.5259ZM12 27.3599H17.195V32.5253H12V27.3599Z" fill="#1A82E2"/>
<path d="M17.1951 17H22.3605V22.1655H17.1951V17ZM22.3611 22.1961H27.5561V27.3615H22.3611V22.1961Z" fill="#00B3E3"/>
<path d="M22.361 27.3598V22.1648H17.1956V27.3598H22.361Z" fill="#009DD9"/>
<path d="M22.3608 17H27.5559V22.1655H22.3608V17Z" fill="#1A82E2"/>
<path d="M22.3608 22.165H27.5559V22.1951H22.3608V22.165Z" fill="#1A82E2"/>
</svg>
