<svg width="80" height="50" viewBox="0 0 80 50" fill="none" xmlns="http://www.w3.org/2000/svg">
<rect width="80" height="50" fill="black"/>
<path d="M26.0478 22.9283H24.8227C24.8227 22.835 24.5902 22.1229 23.6058 22.1229C22.8849 22.1229 22.7322 22.5074 22.7322 22.7635C22.7322 23.3587 23.7089 23.4788 24.291 23.6289C24.9484 23.7982 26.237 24.145 26.237 25.4645C26.237 26.1965 25.8498 26.6729 25.5078 26.9482C25.0565 27.3052 24.4261 27.4885 23.6876 27.4885C21.8597 27.4885 21.0608 26.427 20.9753 25.4096H22.3688C22.3959 25.6363 22.6775 26.3893 23.7322 26.3893C24.6335 26.3893 24.7416 25.9039 24.7416 25.7021C24.7416 25.126 23.9484 24.99 23.2495 24.8054C22.5272 24.6138 21.2902 24.3015 21.2902 22.9461C21.2902 21.9479 22.0024 21.0237 23.6781 21.0237C25.8133 21.0243 26.0478 22.6025 26.0478 22.9283Z" fill="white"/>
<path d="M31.2427 25.8504C31.178 26.1921 30.7418 27.4893 29.0428 27.4893C28.2854 27.4893 27.7266 27.1859 27.384 26.8391C27.0685 26.5185 26.7266 25.9494 26.7266 25.0712C26.7266 24.0461 27.1766 23.4681 27.5368 23.1571C28.0692 22.6998 28.6455 22.6353 29.051 22.6353C29.9253 22.6353 30.4753 23.0383 30.7814 23.4145C31.0611 23.753 31.3131 24.3112 31.3131 25.0993V25.3369H28.166C28.166 25.9513 28.3985 26.5741 29.105 26.5741C29.7072 26.5741 29.9517 26.1027 30.0064 25.8504H31.2427ZM29.9347 24.559C29.9347 24.3316 29.8335 23.5511 29.0692 23.5511C28.3055 23.5511 28.166 24.2358 28.166 24.559H29.9347Z" fill="white"/>
<path d="M33.7163 22.7272H34.671V23.6891H33.7163V25.7852C33.7163 25.95 33.7163 26.1519 33.8602 26.3071C33.9771 26.4265 34.1299 26.4444 34.2744 26.4444H34.7704V27.4069C34.4643 27.4516 34.0683 27.4893 33.7791 27.4893C33.446 27.4893 32.9953 27.4158 32.6974 27.0952C32.3561 26.7299 32.3737 26.2707 32.3737 25.8229V23.6891H31.6521V22.7272H32.3737L32.4994 21.2991H33.7163V22.7272Z" fill="white"/>
<path d="M43.2773 27.3973H42.5199L42.2955 26.7113C42.1415 26.9221 41.9341 27.1041 41.7361 27.2242C41.403 27.4164 40.9699 27.4899 40.5921 27.4899C40.0334 27.4899 39.3306 27.3698 38.7448 26.7113C38.2049 26.1065 37.9246 25.1542 37.9246 24.3399C37.9246 23.5057 38.159 22.572 38.6989 21.9397C39.3394 21.1892 40.1408 21.0244 40.7807 21.0244C42.6463 21.0244 43.1724 22.2897 43.2591 23.2407H41.8618C41.8354 23.012 41.7455 22.7374 41.6104 22.5534C41.4665 22.3523 41.205 22.1236 40.7543 22.1236C40.4023 22.1236 39.9881 22.2699 39.7178 22.8013C39.6462 22.9475 39.4752 23.332 39.4752 24.2479C39.4752 24.7882 39.5374 25.3835 39.7631 25.768C39.9529 26.088 40.276 26.3913 40.8077 26.3913C41.1421 26.3913 41.4118 26.263 41.5922 26.0797C41.7719 25.8964 41.9083 25.586 41.9083 25.2558V25.0993H40.6726V24.0275H43.278V27.3973H43.2773Z" fill="white"/>
<path d="M44.2742 27.3972V22.7271H45.4464V23.7618H45.4647C45.5087 23.4047 45.6809 23.1576 45.7978 23.0298C45.9505 22.865 46.2384 22.6357 46.7073 22.6357C46.789 22.6357 46.8701 22.646 46.9512 22.6543V23.8812H46.735C46.5099 23.8812 46.2931 23.9272 46.1215 24.037C45.6802 24.3206 45.6168 24.7607 45.6168 25.2544V27.3966H44.2742V27.3972Z" fill="white"/>
<path d="M51.1945 23.2765C51.4107 23.4968 51.879 24.073 51.879 25.0527C51.879 25.8038 51.5911 26.4725 51.1587 26.8941C50.8437 27.1962 50.3296 27.4893 49.5998 27.4893C48.8688 27.4893 48.3559 27.1962 48.0404 26.8941C47.6079 26.4725 47.3201 25.8038 47.3201 25.0527C47.3201 24.073 47.789 23.4962 48.0058 23.2765C48.5376 22.7451 49.1492 22.6353 49.6005 22.6353C50.0499 22.6353 50.6627 22.7451 51.1945 23.2765ZM48.9593 23.9177C48.7425 24.2563 48.7249 24.7046 48.7249 25.0527C48.7249 25.6844 48.8236 25.9865 48.9323 26.1794C49.1033 26.4815 49.3566 26.5734 49.5998 26.5734C49.8425 26.5734 50.0958 26.4808 50.2667 26.1794C50.3755 25.9865 50.4742 25.685 50.4742 25.0527C50.4742 24.7046 50.4566 24.2563 50.2403 23.9177C50.087 23.6706 49.8883 23.5511 49.5998 23.5511C49.3113 23.5511 49.1121 23.6712 48.9593 23.9177Z" fill="white"/>
<path d="M53.8821 22.7271V25.5386C53.8821 25.7117 53.8821 26.0419 54.0342 26.2431C54.1335 26.3804 54.3045 26.4538 54.493 26.4538C54.7093 26.4538 54.9437 26.3535 55.0977 26.1428C55.2768 25.9052 55.3051 25.6222 55.3051 25.3834V22.7277H56.6471V27.3978H55.4032V26.5643H55.3862C55.1511 27.1142 54.6822 27.4898 54.0078 27.4898C53.5923 27.4898 53.2868 27.3614 53.0524 27.1589C52.6011 26.7744 52.5376 26.2431 52.5376 25.7589V22.7277H53.8821V22.7271Z" fill="white"/>
<path d="M57.6289 28.8988V22.7271H58.8728V23.4782C59.1519 22.9289 59.6931 22.6357 60.2695 22.6357C61.3965 22.6357 61.9999 23.634 61.9999 25.0174C61.9999 26.7751 61.1073 27.4898 60.2154 27.4898C59.6661 27.4898 59.2525 27.2605 58.9721 26.8026V28.8994H57.6289V28.8988ZM58.9721 25.5297C58.9721 26.1798 59.2688 26.5739 59.7553 26.5739C60.4235 26.5739 60.5925 25.8318 60.5925 25.0443C60.5925 23.9821 60.2688 23.551 59.7553 23.551C59.2776 23.551 58.9721 23.9636 58.9721 24.5224V25.5297Z" fill="white"/>
<path d="M37.1426 20.4458H35.7773V27.3833H37.1426V20.4458Z" fill="white"/>
<path d="M37.1364 20.4478H35.7705V27.3846H37.1364V20.4478Z" fill="white"/>
<path d="M18.0005 16.2874V35.7125H37.1387V28.7968H35.7716V34.3227H19.3852L19.3802 17.6823L35.7716 17.6771V19.0676H37.1387V16.2874H18.0005Z" fill="#ED1C24"/>
</svg>
