<svg width="80" height="50" viewBox="0 0 80 50" fill="none" xmlns="http://www.w3.org/2000/svg">
<rect width="80" height="50" fill="black"/>
<path d="M57.3417 27.0806C57.8447 27.103 58.311 26.8175 58.5196 26.3592C58.7281 25.901 58.6368 25.3613 58.2886 24.9974C57.9405 24.6336 57.407 24.5173 56.939 24.7043C56.7104 24.7956 56.5144 24.9534 56.3764 25.1572C56.2384 25.361 56.1647 25.6016 56.1648 25.8477C56.1567 26.1677 56.2766 26.4774 56.4973 26.7092C56.6066 26.8238 56.7375 26.9157 56.8826 26.9794C57.0276 27.0432 57.1838 27.0775 57.3422 27.0806H57.3417ZM55.4769 24.0138C55.8407 23.6462 56.3049 23.3941 56.8114 23.2891C57.3178 23.1842 57.844 23.2311 58.3239 23.424C58.8038 23.6169 59.2161 23.9471 59.5091 24.3734C59.802 24.7996 59.9627 25.3028 59.9708 25.82C59.9804 26.1665 59.9188 26.5113 59.79 26.833C59.6612 27.1548 59.4677 27.4468 59.2217 27.691C58.976 27.942 58.6818 28.1403 58.357 28.2739C58.0321 28.4074 57.6835 28.4734 57.3323 28.4679C56.9798 28.4777 56.6293 28.4118 56.3045 28.2746C55.9796 28.1374 55.688 27.9321 55.4492 27.6726C54.9748 27.1813 54.7117 26.5226 54.7189 25.8388C54.7173 25.4995 54.7835 25.1633 54.9137 24.85C55.0439 24.5367 55.2354 24.2525 55.4769 24.0143V24.0138ZM46.6163 27.0806C47.1193 27.103 47.5856 26.8175 47.7941 26.3592C48.0026 25.901 47.9113 25.3613 47.5632 24.9974C47.215 24.6336 46.6816 24.5173 46.2135 24.7043C45.9849 24.7956 45.7889 24.9534 45.6509 25.1572C45.5129 25.361 45.4392 25.6016 45.4393 25.8477C45.4317 26.1672 45.5512 26.4769 45.7727 26.7083C45.9942 26.9396 46.2972 27.0734 46.6167 27.0806H46.6163ZM44.7671 24.0138C45.1314 23.6493 45.5948 23.4 46.0997 23.2969C46.6046 23.1938 47.1286 23.2415 47.6066 23.434C48.0846 23.6265 48.4954 23.9554 48.7879 24.3796C49.0804 24.8039 49.2417 25.3048 49.2516 25.82C49.2695 26.5208 48.9979 27.1983 48.4998 27.6906C48.2546 27.9422 47.9605 28.1409 47.6355 28.2745C47.3106 28.4081 46.9617 28.4738 46.6104 28.4674C46.2585 28.4768 45.9086 28.4107 45.5843 28.2735C45.26 28.1363 44.9689 27.9313 44.7305 27.6722C44.2547 27.1809 43.9912 26.5222 43.997 25.8383C43.995 25.4987 44.0613 25.1622 44.192 24.8488C44.3227 24.5354 44.5151 24.2514 44.7578 24.0138H44.7671ZM28.8322 28.3287H30.284V21.4402L28.8322 21.7534V28.3336V28.3287ZM26.6104 28.3332H28.0648V23.3537H26.6104V28.3332Z" fill="#2A62AA"/>
<path d="M27.3376 21.0024C27.1007 21.0028 26.8736 21.0971 26.7061 21.2646C26.5386 21.4321 26.4443 21.6592 26.4439 21.8961C26.4443 22.133 26.5386 22.3601 26.7061 22.5276C26.8736 22.6952 27.1007 22.7894 27.3376 22.7898C27.5745 22.7894 27.8016 22.6952 27.9691 22.5276C28.1367 22.3601 28.2309 22.133 28.2313 21.8961C28.2309 21.6592 28.1367 21.4321 27.9691 21.2646C27.8016 21.0971 27.5745 21.0028 27.3376 21.0024V21.0024ZM33.3105 26.2419L32.386 23.342H30.7588L32.5771 28.0239L31.8713 29.941H33.3445L35.9401 23.3545H34.3649L33.311 26.2423L33.3105 26.2419ZM17.7524 27.0187C17.2458 27.0492 16.7679 26.7659 16.5594 26.3045C16.3508 25.8432 16.4385 25.2994 16.7903 24.9334C17.142 24.5673 17.6826 24.4545 18.1507 24.6492C18.3798 24.7444 18.5749 24.9064 18.7106 25.1141C18.8463 25.3218 18.9163 25.5656 18.9115 25.8136C18.9152 25.969 18.8881 26.1237 18.8318 26.2685C18.7754 26.4134 18.6909 26.5457 18.5831 26.6578C18.4754 26.7698 18.3465 26.8594 18.2039 26.9214C18.0613 26.9833 17.9079 27.0164 17.7524 27.0187V27.0187ZM19.9282 25.823C19.925 25.2902 20.0599 24.7657 20.3198 24.3006V21.4249L18.8564 21.7381V23.8951C18.6905 23.6858 18.4769 23.5192 18.2335 23.4093C17.99 23.2993 17.7238 23.2493 17.4571 23.2633C16.8341 23.2597 16.2363 23.5076 15.799 23.9506C15.5457 24.1872 15.3441 24.4736 15.2067 24.7918C15.0693 25.11 14.9992 25.4531 15.0007 25.7997C14.9921 26.1711 15.0658 26.5397 15.2166 26.8792C15.3674 27.2186 15.5915 27.5204 15.8729 27.763C16.2981 28.1493 16.8548 28.3589 17.4293 28.3488C17.7024 28.3613 17.9751 28.3155 18.2291 28.2144C18.4831 28.1133 18.7127 27.9593 18.9025 27.7625V28.3206H20.3202V27.3777C20.0607 26.9055 19.9264 26.3752 19.9286 25.8364L19.9282 25.823ZM43.7035 24.4527C43.6573 24.207 43.5512 23.9765 43.3947 23.7815C43.2492 23.624 43.0736 23.4973 42.8783 23.4089C42.683 23.3205 42.4719 23.2722 42.2576 23.2668C41.9045 23.232 41.5492 23.3037 41.2373 23.4727C40.9669 23.6439 40.7212 23.8512 40.5069 24.0889C40.2348 23.5966 39.7162 23.2923 39.1541 23.2937C38.8759 23.2769 38.5986 23.3392 38.3543 23.4733C38.11 23.6075 37.9087 23.808 37.7735 24.0518V23.3581H36.4489V28.3326H37.8389V25.7129C37.8389 25.167 37.9651 24.6282 38.7017 24.6282C39.3371 24.6282 39.3864 25.1459 39.3864 25.5742V28.3479H40.8184V25.6973C40.8184 24.8559 41.1853 24.6232 41.6874 24.6232C42.0902 24.6232 42.3654 24.8049 42.3654 25.5693V28.3429H43.7975V27.3781C43.54 26.9054 43.4064 26.3752 43.409 25.8369C43.4061 25.3602 43.5115 24.889 43.7174 24.459L43.7035 24.4527ZM51.6383 21.4401L50.1557 21.7534V23.3899H49.5394V24.8291H50.1557V28.3331H51.6383V24.8224H52.2979V23.3832H51.6383V21.4446V21.4401ZM53.6655 22.7871C54.0235 22.7884 54.3546 22.571 54.4934 22.2367C54.5609 22.0732 54.5785 21.8934 54.5439 21.72C54.5093 21.5465 54.4241 21.3872 54.299 21.2621C54.1739 21.1371 54.0146 21.0519 53.8412 21.0173C53.6678 20.9827 53.4879 21.0003 53.3245 21.0678C52.9902 21.202 52.7727 21.5341 52.774 21.8957C52.7752 22.1315 52.8694 22.3573 53.0362 22.5241C53.2029 22.6908 53.4288 22.785 53.6646 22.7862L53.6655 22.7871ZM54.394 24.5655V23.3541H52.9548V28.3286H54.4092V27.1418C54.2308 26.7305 54.1395 26.2866 54.1412 25.8382C54.142 25.4 54.2334 24.9667 54.4097 24.5655H54.394ZM63.3151 23.2615C62.7343 23.2243 62.1829 23.5179 61.8831 24.0195L61.901 23.3536H60.511V28.3282H61.9431V25.6252C61.9431 24.9593 62.2563 24.6174 62.8215 24.6174C63.3867 24.6174 63.5366 24.9307 63.5366 25.6252V28.3219H65V25.0488C65 23.9086 64.331 23.261 63.3048 23.261" fill="#2A62AA"/>
<path d="M23.2784 27.0312C23.5916 27.0267 23.8896 26.8969 24.1062 26.671C24.3228 26.445 24.441 26.142 24.4338 25.8296C24.4396 25.6671 24.4125 25.5051 24.3542 25.3533C24.2959 25.2015 24.2075 25.063 24.0944 24.9462C23.9813 24.8294 23.8457 24.7366 23.6959 24.6734C23.5461 24.6102 23.385 24.5779 23.2224 24.5784C22.5422 24.5936 22.0021 25.1579 22.0173 25.839C22.0325 26.5201 22.5968 27.0594 23.2779 27.0442L23.2784 27.0312ZM24.4249 27.783C24.04 28.1795 23.503 28.3916 22.9517 28.3657C22.3778 28.3757 21.8214 28.1675 21.3952 27.783C20.8555 27.3019 20.5405 26.6172 20.5271 25.8945C20.5136 25.1718 20.8009 24.4759 21.3214 23.9738C21.76 23.5326 22.3574 23.286 22.9794 23.2891C23.2449 23.2725 23.5106 23.3199 23.754 23.4271C23.9975 23.5343 24.2117 23.6983 24.3788 23.9053V23.3504H25.8421V28.3281H24.4244V27.7821" fill="#2A62AA"/>
</svg>
