<svg width="80" height="50" viewBox="0 0 80 50" fill="none" xmlns="http://www.w3.org/2000/svg">
<rect width="80" height="50" fill="black"/>
<path d="M22.1638 19.8057L13.2285 17.2577C12.9376 17.1744 12.6245 17.2327 12.383 17.4148C12.1416 17.5968 12 17.8822 12 18.1847V34.6536C12 34.9489 12.1349 35.2276 12.3664 35.4108C12.5979 35.594 12.901 35.6606 13.188 35.5917L22.1227 33.4601C22.3341 33.4105 22.5224 33.2908 22.657 33.1204C22.7916 32.95 22.8645 32.739 22.8638 32.5219V20.7333C22.8621 20.3031 22.5773 19.9256 22.1643 19.8062L22.1638 19.8057Z" fill="#1A237E"/>
<path d="M28.2501 19.2202C28.2479 18.7911 27.9637 18.4153 27.5507 18.2953L16.1851 15.0373C15.8942 14.9541 15.58 15.0118 15.3385 15.1939C15.097 15.3759 14.9544 15.6613 14.9544 15.9644V28.4602C14.9532 28.7561 15.0887 29.0359 15.3207 29.2185C15.5528 29.4012 15.857 29.4672 16.144 29.3973L27.524 26.6561C27.7352 26.606 27.9232 26.4859 28.0574 26.3154C28.1915 26.1448 28.264 25.9338 28.2629 25.7168L28.2501 19.2202Z" fill="#10A6FA"/>
<path d="M22.1639 19.8059L14.9473 17.748V28.4608C14.9462 28.7567 15.0816 29.0365 15.3137 29.2191C15.5457 29.4018 15.8499 29.4678 16.1369 29.3979L22.8633 27.7791V20.733C22.8617 20.3027 22.5763 19.9252 22.1628 19.8059H22.1639Z" fill="#3351FF"/>
<path d="M55.423 27.0101L55.408 27.0335C55.1837 27.3832 54.8779 27.6757 54.5176 27.8828C54.1506 28.1084 53.7293 28.2302 53.2985 28.2353C52.5902 28.2364 51.9107 27.9283 51.4544 27.3915C50.9548 26.843 50.6906 26.1203 50.7161 25.3797C50.7192 24.6703 50.9916 23.9885 51.4783 23.4723C51.6997 23.2207 51.9724 23.0192 52.278 22.8815C52.5836 22.7437 52.915 22.6728 53.2503 22.6735C54.1829 22.6652 54.8856 23.0499 55.3997 23.8504L55.4147 23.8737H55.4291L56.0353 23.4995C55.7838 23.0757 55.4421 22.7123 55.0344 22.4354C54.5207 22.093 53.917 21.9105 53.2997 21.9108C52.8655 21.9005 52.4342 21.9832 52.0348 22.1535C51.6353 22.3237 51.2769 22.5775 50.9837 22.8978C50.3386 23.5617 50.01 24.4077 50.01 25.4147C49.995 26.3484 50.3403 27.2522 50.9731 27.9394C51.5505 28.6022 52.387 28.9814 53.2658 28.9775H53.2991C54.4293 28.9703 55.4707 28.3624 56.032 27.381L55.423 27.0101ZM59.9489 22.0013H59.1251L56.0664 28.8498H57.0423L57.9893 26.5738L58.3241 25.8633H58.3219L59.5542 22.9727L60.7611 25.8633H59.0291L58.7138 26.5738H61.0436L61.9973 28.8498H62.8578L59.9489 22.0013ZM67.3337 22.6274C66.8665 22.2126 66.2586 21.9916 65.634 22.0096H63.4179V28.8504H64.2251V22.7473H65.6684C66.0516 22.7395 66.425 22.869 66.7209 23.1126C67.0112 23.3263 67.1872 23.6611 67.1983 24.0214C67.2372 24.4188 67.0762 24.8096 66.7692 25.065C66.4794 25.3259 66.1003 25.4647 65.7106 25.4547H64.8745V26.1747H65.8421C66.3998 26.1844 66.9397 25.9786 67.3493 25.6001C67.553 25.4235 67.7164 25.2051 67.8283 24.9598C67.9403 24.7146 67.9982 24.4481 67.9982 24.1785C68.0108 23.8865 67.9575 23.5955 67.842 23.327C67.7266 23.0586 67.5521 22.8197 67.3315 22.628L67.3337 22.6274Z" fill="white"/>
<path d="M37.2614 22.1361H38.0686V22.9433H37.2614V22.1361ZM37.2614 23.9447H38.0686V28.8604H37.2614V23.9447ZM49.4214 28.3691V26.2524C49.4198 25.8995 49.3486 25.5505 49.212 25.2252C49.0755 24.8998 48.8762 24.6046 48.6255 24.3563C48.3748 24.1079 48.0777 23.9114 47.751 23.778C47.4244 23.6445 47.0747 23.5767 46.7219 23.5783C46.3819 23.5863 46.0469 23.6623 45.7368 23.802C45.4267 23.9417 45.1478 24.1422 44.9166 24.3916C44.4375 24.8868 44.1739 25.5574 44.1838 26.2413C44.1772 26.9629 44.4642 27.6568 44.9788 28.162C45.2222 28.4169 45.5174 28.6166 45.8445 28.7477C46.1716 28.8788 46.523 28.9382 46.8751 28.922C47.5523 28.9064 48.1963 28.6178 48.6587 28.1215V28.4562L49.4214 28.3691ZM48.6587 28.4562C48.6591 28.6761 48.6123 28.8935 48.5215 29.0937C48.4307 29.2939 48.298 29.4724 48.1324 29.617C47.803 29.9392 47.3603 30.1194 46.8995 30.1188C46.5032 30.1206 46.1173 29.9919 45.8015 29.7524C45.5483 29.5815 45.3463 29.345 45.2175 29.0685L44.5991 29.4255C44.7556 29.7285 44.9756 29.9941 45.2441 30.2043C45.6949 30.554 46.2467 30.7483 46.8168 30.7594H46.9317C47.5468 30.7609 48.1434 30.5486 48.6193 30.1588C48.8699 29.9725 49.0729 29.7296 49.2118 29.4499C49.3508 29.1703 49.4216 28.8617 49.4187 28.5495V28.3619L48.6587 28.4562ZM48.6398 26.3023C48.6343 26.7942 48.44 27.2644 48.0941 27.6147C47.7705 27.9699 47.3092 28.1681 46.8285 28.1587C46.5849 28.1638 46.3429 28.1187 46.1175 28.026C45.8922 27.9334 45.6884 27.7952 45.5189 27.6202C45.1598 27.2749 44.9566 26.7986 44.9571 26.3001C44.9498 26.0545 44.9912 25.8098 45.0789 25.5803C45.1667 25.3508 45.299 25.1409 45.4684 24.9628C45.7876 24.592 46.2467 24.37 46.7357 24.3494H46.8329C47.0715 24.3468 47.3079 24.3959 47.5258 24.4932C47.7437 24.5906 47.938 24.7339 48.0952 24.9134C48.2787 25.0951 48.422 25.3132 48.516 25.5537C48.6099 25.7942 48.6525 26.0516 48.6409 26.3096L48.6398 26.3023ZM35.8253 22.6274C35.3581 22.2125 34.7501 21.9916 34.1255 22.0096H31.9089V28.8504H32.7161V22.7473H34.1616C34.5448 22.7394 34.9182 22.869 35.2141 23.1126C35.5045 23.3263 35.6804 23.6611 35.6916 24.0213C35.7304 24.4188 35.5694 24.8096 35.2624 25.065C34.9727 25.3259 34.5935 25.4647 34.2038 25.4547H33.3661V26.1747H34.3337C34.8914 26.1844 35.4313 25.9786 35.8409 25.6001C36.0446 25.4235 36.2079 25.2051 36.3199 24.9598C36.4319 24.7145 36.4898 24.4481 36.4898 24.1784C36.502 23.8865 36.4485 23.5957 36.333 23.3273C36.2176 23.0589 36.0434 22.8199 35.8231 22.628L35.8253 22.6274ZM41.2378 23.6433C40.9371 23.6362 40.6381 23.6914 40.3598 23.8053C40.0814 23.9193 39.8296 24.0896 39.6202 24.3056C39.1916 24.7441 38.9596 25.337 38.9762 25.9487V28.8393H39.7551V25.8782C39.7495 25.4896 39.9077 25.1055 40.1936 24.8335C40.3288 24.6933 40.4912 24.5821 40.6708 24.5068C40.8505 24.4315 41.0436 24.3936 41.2384 24.3955C41.4306 24.3937 41.6211 24.4316 41.7979 24.507C41.9748 24.5824 42.1341 24.6935 42.2659 24.8335C42.5546 25.1044 42.7155 25.483 42.7128 25.8782V28.8387H43.4972V25.9482C43.5053 25.645 43.4525 25.3433 43.3419 25.061C43.2313 24.7786 43.0651 24.5214 42.8532 24.3044C42.6452 24.089 42.3948 23.9189 42.1178 23.805C41.8409 23.691 41.5433 23.6356 41.2439 23.6422L41.2378 23.6433Z" fill="white"/>
</svg>
