<svg width="80" height="50" viewBox="0 0 80 50" fill="none" xmlns="http://www.w3.org/2000/svg">
<rect width="80" height="50" fill="black"/>
<path fill-rule="evenodd" clip-rule="evenodd" d="M55.466 22.3653C56.3009 22.266 57.12 22.2228 57.9124 22.225L58.9532 17.9799C58.7965 17.9642 58.6413 17.9516 58.4861 17.9389C56.9269 17.8069 55.3922 17.8472 53.9165 18.0471C53.7837 18.0657 53.6524 18.0859 53.5196 18.1068C51.5135 18.4209 49.6169 19.0289 47.9175 19.898L49.8602 23.9044C51.4531 23.1613 53.3704 22.6129 55.4661 22.3653" fill="#E6F183"/>
<path fill-rule="evenodd" clip-rule="evenodd" d="M53.8787 16.1093C51.9665 16.1555 50.1178 16.4331 48.375 16.9158C48.2116 16.9605 48.0483 17.006 47.8864 17.0545C45.7765 17.6939 43.8337 18.6339 42.141 19.8306C42.1404 19.8312 42.1374 19.8318 42.135 19.8336L42.5961 20.5931L42.89 21.0787L44.6134 23.9197C44.7238 23.8362 44.8395 23.7571 44.9536 23.6758C45.0081 23.6392 45.0588 23.5997 45.1133 23.5631C45.3222 23.4206 45.5348 23.2811 45.7556 23.1483C46.6822 22.5873 47.7677 22.0919 48.8092 21.7412L47.9132 19.8955V19.8949C49.6068 18.8318 51.5368 18.0364 53.6154 17.5567C53.7668 17.5216 53.9205 17.4896 54.0735 17.4582L54.4465 16.0981C54.2563 16.0981 54.0683 16.1056 53.8788 16.1094" fill="#CCE75E"/>
<path fill-rule="evenodd" clip-rule="evenodd" d="M48.2378 14.7304C46.2279 14.8557 44.2897 15.2138 42.4678 15.7771C42.288 15.8331 42.1097 15.8913 41.9329 15.951C39.3619 16.8134 37.0327 18.0854 35.0757 19.6887H35.0745L35.4661 20.2386L35.7907 20.6922L38.09 23.9211C38.2042 23.8234 38.3206 23.7264 38.4385 23.6294C38.4817 23.5936 38.5258 23.5608 38.5698 23.525C38.8607 23.2922 39.1629 23.0662 39.4807 22.8506C40.5334 22.138 41.6793 21.5457 42.8902 21.0809L42.5955 20.5952L42.1352 19.8357C42.1364 19.8351 42.1393 19.8333 42.1411 19.8327C43.8138 18.4175 45.7923 17.2626 47.9813 16.4337C48.1663 16.3643 48.3536 16.2942 48.5423 16.23L48.9154 14.6931C48.6878 14.7021 48.4633 14.717 48.2379 14.7304" fill="#B5DC17"/>
<path fill-rule="evenodd" clip-rule="evenodd" d="M27.6838 19.6433C30.0526 16.9015 33.2203 14.6596 36.9123 13.174L37.2174 11C29.8672 11.7341 24.1136 15.0586 20.0962 19.535L24.3809 23.927C24.9061 23.3399 25.4865 22.7774 26.1192 22.2439C26.851 21.6277 27.6345 21.0666 28.4581 20.5593L27.674 19.6528C27.6775 19.6516 27.6799 19.6469 27.6837 19.6431" fill="#799E14"/>
<path fill-rule="evenodd" clip-rule="evenodd" d="M42.2224 13.0009C40.3155 13.2247 38.4794 13.6388 36.744 14.2215C33.2263 15.4025 30.1256 17.2721 27.6863 19.6416C27.6827 19.6452 27.6809 19.6498 27.6765 19.6513L28.4607 20.5578L31.3718 23.924C31.4859 23.8069 31.6038 23.6905 31.7239 23.5756C31.7605 23.5398 31.7985 23.5048 31.8358 23.4697C32.1835 23.1414 32.5491 22.8228 32.9377 22.5184C33.8226 21.8246 34.779 21.2158 35.7922 20.6914L35.4676 20.237L35.0767 19.6879H35.0773L35.0767 19.6867C36.9903 17.8201 39.3472 16.2839 42.0091 15.1872C42.2128 15.1036 42.418 15.0231 42.6254 14.9432L43.0051 12.9192C42.7432 12.9423 42.4829 12.9714 42.2225 13.0012" fill="#9CC015"/>
<path fill-rule="evenodd" clip-rule="evenodd" d="M15 27.7542H16.8189V34.3666H20.5216V35.9281H15.0001V27.7543L15 27.7542Z" fill="white"/>
<path fill-rule="evenodd" clip-rule="evenodd" d="M23.946 32.0097C24.2616 31.9701 24.4876 31.9217 24.6241 31.8627C24.8673 31.7598 24.9889 31.6001 24.9889 31.3845C24.9889 31.1204 24.8949 30.9391 24.7069 30.8384C24.5212 30.7377 24.2466 30.6884 23.8848 30.6884C23.4782 30.6884 23.1909 30.7862 23.0208 30.9824C22.9007 31.1286 22.8201 31.3248 22.7806 31.5732H21.1497C21.1855 31.0115 21.3459 30.5511 21.6272 30.1923C22.0771 29.6275 22.8485 29.3447 23.9423 29.3447C24.6548 29.3447 25.2874 29.4835 25.8409 29.7595C26.3938 30.0363 26.6698 30.5638 26.6698 31.3397V34.2948C26.6698 34.5 26.674 34.7492 26.6826 35.0394C26.6938 35.258 26.7266 35.405 26.7825 35.4826C26.8363 35.5601 26.9198 35.625 27.0295 35.675V35.925H25.1852C25.1337 35.7944 25.0979 35.6735 25.0778 35.5586C25.0592 35.4452 25.042 35.3154 25.0308 35.1699C24.7966 35.4199 24.5242 35.634 24.2184 35.8109C23.8521 36.019 23.438 36.1227 22.9769 36.1227C22.3868 36.1227 21.9003 35.9563 21.5162 35.6236C21.1327 35.2923 20.9395 34.8201 20.9395 34.2105C20.9395 33.4197 21.2498 32.8475 21.8683 32.4946C22.207 32.3006 22.7061 32.1626 23.3656 32.0805L23.9461 32.0097L23.946 32.0097ZM24.9822 32.796C24.8733 32.8624 24.7644 32.9162 24.654 32.9587C24.5428 32.999 24.3913 33.0378 24.1981 33.0736L23.8132 33.1444C23.4498 33.2071 23.1909 33.284 23.032 33.3742C22.7657 33.5287 22.6336 33.7667 22.6336 34.089C22.6336 34.3762 22.7142 34.5843 22.8768 34.7127C23.041 34.841 23.2394 34.9044 23.4722 34.9044C23.8437 34.9044 24.1831 34.7985 24.4958 34.5851C24.8084 34.3732 24.971 33.9846 24.9822 33.422V32.796L24.9822 32.796Z" fill="white"/>
<path fill-rule="evenodd" clip-rule="evenodd" d="M32.8875 29.8675C33.312 30.2159 33.5238 30.7926 33.5238 31.5977V35.9263H31.7893V32.0155C31.7893 31.6775 31.7422 31.4193 31.6535 31.2373C31.4871 30.9068 31.1738 30.7419 30.7105 30.7419C30.1382 30.7419 29.7466 30.9829 29.5347 31.4671C29.425 31.723 29.3698 32.0497 29.3698 32.4466V35.9262H27.677V29.5131H29.3176V30.4479C29.534 30.1181 29.7392 29.8801 29.9324 29.7354C30.2793 29.475 30.7202 29.3467 31.2507 29.3467C31.9177 29.3467 32.463 29.5198 32.8876 29.8674" fill="white"/>
<path fill-rule="evenodd" clip-rule="evenodd" d="M38.057 29.6052C38.3621 29.776 38.6106 30.0132 38.8001 30.3161V27.4326H40.5153V35.9288H38.8747V35.0372C38.6322 35.4177 38.3569 35.6945 38.0473 35.8668C37.7385 36.0414 37.3535 36.1265 36.8931 36.1265C36.1351 36.1265 35.4988 35.8243 34.981 35.2163C34.4639 34.609 34.2043 33.8301 34.2043 32.8789C34.2043 31.7836 34.4595 30.9197 34.969 30.293C35.4786 29.6641 36.1597 29.3493 37.011 29.3493C37.4034 29.3493 37.7518 29.4343 38.0569 29.6052L38.057 29.6052ZM38.4792 34.1815C38.7276 33.8286 38.8545 33.3698 38.8545 32.8081C38.8545 32.0217 38.6523 31.4614 38.2494 31.122C38.0047 30.919 37.7204 30.8168 37.3966 30.8168C36.9012 30.8168 36.5387 31.0033 36.3081 31.3734C36.0761 31.7449 35.9604 32.2053 35.9604 32.7558C35.9604 33.3482 36.079 33.8219 36.314 34.1778C36.5498 34.5337 36.9072 34.7112 37.3869 34.7112C37.8651 34.7112 38.2299 34.5344 38.4791 34.1815" fill="white"/>
<path fill-rule="evenodd" clip-rule="evenodd" d="M44.7649 29.4909C45.1775 29.661 45.5117 29.9721 45.7653 30.4257V29.5095H47.4156V35.586C47.4156 36.4134 47.2761 37.0349 46.9934 37.4556C46.5092 38.1763 45.5818 38.5352 44.2113 38.5352C43.3824 38.5352 42.7065 38.3756 42.1843 38.0533C41.6613 37.731 41.3726 37.2505 41.3159 36.6104H43.1565C43.2035 36.8066 43.2818 36.9484 43.3877 37.0349C43.5705 37.1893 43.8794 37.2662 44.3129 37.2662C44.9246 37.2662 45.3342 37.0662 45.5401 36.6656C45.6759 36.4082 45.743 35.9763 45.743 35.3705V34.9616C45.5811 35.2347 45.4051 35.4384 45.2193 35.5749C44.8821 35.8285 44.4434 35.9539 43.9039 35.9539C43.0691 35.9539 42.4044 35.6637 41.9052 35.084C41.4069 34.5036 41.1584 33.7187 41.1584 32.7279C41.1584 31.773 41.3972 30.9695 41.8776 30.3196C42.3566 29.6676 43.0363 29.3423 43.9159 29.3423C44.2412 29.3423 44.5239 29.3915 44.7649 29.4908V29.4909ZM45.3356 34.1126C45.608 33.8135 45.743 33.339 45.743 32.6877C45.743 32.0766 45.6139 31.6096 45.355 31.2895C45.0969 30.9702 44.7515 30.8106 44.3172 30.8106C43.7241 30.8106 43.3175 31.0889 43.0922 31.6469C42.9736 31.9408 42.9146 32.3071 42.9146 32.7406C42.9146 33.1166 42.9773 33.4501 43.1034 33.7418C43.3324 34.2857 43.7435 34.5588 44.3352 34.5588C44.7291 34.5588 45.0626 34.4103 45.3356 34.1126" fill="white"/>
<path fill-rule="evenodd" clip-rule="evenodd" d="M51.0737 32.0097C51.3893 31.9701 51.6146 31.9217 51.7511 31.8627C51.9951 31.7598 52.1152 31.6001 52.1152 31.3845C52.1152 31.1204 52.0219 30.9391 51.8354 30.8384C51.6489 30.7377 51.3736 30.6884 51.0125 30.6884C50.6059 30.6884 50.3171 30.7862 50.1485 30.9824C50.0284 31.1286 49.9471 31.3248 49.9076 31.5732H48.2774C48.3133 31.0115 48.4722 30.5511 48.7542 30.1923C49.204 29.6275 49.9754 29.3447 51.0699 29.3447C51.7825 29.3447 52.4151 29.4835 52.9686 29.7595C53.5207 30.0363 53.7976 30.5638 53.7976 31.3397V34.2948C53.7976 34.5 53.7999 34.7492 53.8095 35.0394C53.8207 35.258 53.855 35.405 53.9087 35.4826C53.9639 35.5601 54.0467 35.625 54.1564 35.675V35.925H52.3121C52.2614 35.7944 52.2256 35.6735 52.2069 35.5586C52.1861 35.4452 52.1696 35.3154 52.1577 35.1699C51.9227 35.4199 51.6526 35.634 51.3453 35.8109C50.9782 36.019 50.5657 36.1227 50.1031 36.1227C49.5145 36.1227 49.0281 35.9563 48.6431 35.6236C48.2589 35.2923 48.0671 34.8201 48.0671 34.2105C48.0671 33.4197 48.3768 32.8475 48.996 32.4946C49.3347 32.3006 49.8338 32.1626 50.494 32.0805L51.0737 32.0097L51.0737 32.0097ZM52.1092 32.796C52.001 32.8624 51.8929 32.9162 51.7809 32.9587C51.6705 32.999 51.5183 33.0378 51.3251 33.0736L50.9394 33.1444C50.5768 33.2071 50.3172 33.284 50.1598 33.3742C49.8942 33.5287 49.7606 33.7667 49.7606 34.089C49.7606 34.3762 49.842 34.5843 50.0054 34.7127C50.168 34.841 50.3657 34.9044 50.6 34.9044C50.97 34.9044 51.3117 34.7985 51.6236 34.5851C51.9369 34.3732 52.098 33.9846 52.1092 33.422V32.796L52.1092 32.796Z" fill="white"/>
<path fill-rule="evenodd" clip-rule="evenodd" d="M54.3738 30.763V29.5759H55.278V27.7742H56.9507V29.5759H58.0018V30.763H56.9507V34.1523C56.9507 34.4142 56.9842 34.5783 57.0507 34.6425C57.1178 34.7082 57.3244 34.7402 57.6684 34.7402C57.7214 34.7402 57.7751 34.7384 57.8325 34.7349C57.8899 34.7319 57.9459 34.7266 58.0019 34.7192V35.9681L57.2014 36.0106C56.4016 36.0382 55.8548 35.9017 55.563 35.5988C55.3735 35.4071 55.278 35.1101 55.278 34.7102V30.7628H54.3738L54.3738 30.763Z" fill="white"/>
<path fill-rule="evenodd" clip-rule="evenodd" d="M63.3093 29.6465C63.7606 29.8464 64.1329 30.1612 64.4276 30.5932C64.6917 30.9737 64.8633 31.4146 64.9409 31.9167C64.9872 32.2114 65.0058 32.6352 64.9983 33.1887H60.2877C60.3153 33.8303 60.5384 34.2816 60.9644 34.5398C61.2233 34.701 61.5337 34.7808 61.8978 34.7808C62.2827 34.7808 62.5954 34.6831 62.8363 34.4898C62.9676 34.3847 63.0833 34.2384 63.184 34.0519H64.9052C64.8597 34.4332 64.6515 34.8181 64.2792 35.2105C63.6995 35.8335 62.8885 36.1446 61.847 36.1446C60.9876 36.1446 60.2281 35.882 59.5708 35.3567C58.9135 34.8308 58.5845 33.9743 58.5845 32.7888C58.5845 31.6794 58.8821 30.8274 59.4753 30.2343C60.0691 29.6427 60.8406 29.3457 61.7881 29.3457C62.3513 29.3457 62.8579 29.4449 63.3093 29.6464L63.3093 29.6465ZM60.7809 31.1004C60.543 31.3399 60.3922 31.6644 60.3296 32.074H63.2437C63.2131 31.6375 63.0609 31.3063 62.7931 31.0802C62.5237 30.8542 62.188 30.7408 61.7911 30.7408C61.3554 30.7408 61.0204 30.8609 60.7809 31.1004" fill="white"/>
</svg>
