<svg width="80" height="50" viewBox="0 0 80 50" fill="none" xmlns="http://www.w3.org/2000/svg">
<rect width="80" height="50" fill="black"/>
<path d="M24.7349 24.6773H27.0371C27.3072 24.6717 27.7006 24.6648 28.0141 24.7071C28.7371 24.8049 29.4728 25.1245 29.4728 25.9998C29.4728 26.7342 29.0386 27.0789 28.5162 27.19V27.2347C29.2719 27.3682 29.7061 27.7688 29.7061 28.5692C29.7061 29.8763 28.4574 30.237 27.4473 30.2849C27.1998 30.2924 26.8834 30.2929 26.6703 30.2929H24.7351V24.6773H24.7349ZM26.3472 29.2256H27.0033C27.5594 29.2256 28.1042 29.0583 28.1042 28.5242C28.1042 28.024 27.6926 27.8463 26.9258 27.8463H26.3472V29.2256V29.2256ZM26.3802 26.8559H26.8698C27.5371 26.8559 27.9377 26.7227 27.9377 26.2894C27.9377 25.9447 27.6926 25.7444 27.0368 25.7444H26.3802V26.8559Z" fill="white"/>
<path d="M16.7587 30.4014C14.3236 30.4014 13 28.6442 13 26.4424C13 24.2182 14.5572 22.3947 17.1143 22.3947C17.7928 22.3947 18.3823 22.4836 18.8934 22.7505V24.1855C18.215 23.7851 17.6705 23.7073 17.1703 23.7073C15.4354 23.7073 14.7567 24.9862 14.7567 26.3321C14.7567 27.8326 15.6024 29.0227 17.0139 29.0227C17.6372 29.0227 18.1489 28.8781 18.7496 28.556L19.172 29.6902C18.2712 30.2568 17.5038 30.4014 16.7587 30.4014ZM44.2262 30.4014C42.4242 30.4014 41.5015 29.0784 41.5015 27.4991C41.5015 25.7309 42.725 24.5634 44.3599 24.5634C45.0821 24.5634 45.4606 24.7075 45.7608 24.8857V26.1537C45.3604 25.8644 45.0373 25.764 44.593 25.764C43.67 25.764 43.1027 26.4424 43.1027 27.4216C43.1027 28.2998 43.5363 29.1564 44.5706 29.1564C44.8594 29.1564 45.2491 29.0451 45.6606 28.8336L46.0386 29.8671C45.5719 30.179 44.7933 30.4014 44.2262 30.4014ZM49.2081 25.9419V30.2904H47.6067V25.9419H46.05V24.674H50.9648L50.5647 25.9419H49.2081ZM56.9027 25.3306C56.9027 27.2879 56.826 28.3107 56.4693 28.7774C56.2919 29.0115 56.0133 29.1668 55.7246 29.2113L56.1691 30.4014C56.5359 30.3905 57.1038 30.235 57.4925 29.8453C58.0039 29.345 58.1712 28.7111 58.249 28.0435C58.3161 27.4767 58.36 26.8092 58.36 26.2202V25.9419H59.6125V30.2904H61.2139V24.674H56.9027V25.3306ZM20.5955 27.9208C20.6291 28.6775 21.3408 29.145 22.0851 29.145C22.6306 29.145 23.0419 29.0448 23.6761 28.7446L24.0314 29.7566C23.2528 30.2459 22.4971 30.4014 21.8187 30.4014C19.8167 30.4014 18.9941 28.978 18.9941 27.4991C18.9941 25.9201 19.9392 24.5634 21.6186 24.5634C23.1535 24.5634 24.2208 25.6976 24.2208 27.4325V27.921H20.5955V27.9208ZM21.5739 25.7312C20.9282 25.7312 20.5617 26.3092 20.5617 26.8212H22.5858C22.5525 26.2866 22.2521 25.7312 21.5739 25.7312ZM31.6269 27.9208C31.66 28.6775 32.3717 29.145 33.117 29.145C33.6617 29.145 34.0735 29.0448 34.7078 28.7446L35.0628 29.7566C34.2845 30.2459 33.5283 30.4014 32.8501 30.4014C30.8481 30.4014 30.0255 28.978 30.0255 27.4991C30.0255 25.9201 30.9706 24.5634 32.6503 24.5634C34.1841 24.5634 35.2522 25.6976 35.2522 27.4325V27.921H31.6269V27.9208ZM32.6056 25.7312C31.9602 25.7312 31.5936 26.3092 31.5936 26.8212H33.6175C33.5842 26.2866 33.2832 25.7312 32.6056 25.7312ZM54.0339 29.7893C53.6562 30.1345 53.2114 30.4014 52.4887 30.4014C51.4206 30.4014 50.6201 29.6897 50.6201 28.5774C50.6201 27.3875 51.5764 26.7756 52.9999 26.7314L53.9455 26.6978V26.587C53.9455 25.9978 53.4674 25.7637 52.9107 25.7637C52.3441 25.7637 51.8545 25.9307 51.4874 26.1534L50.9984 25.1747C51.7658 24.6737 52.4994 24.5632 53.2668 24.5632C54.7462 24.5632 55.5357 25.1521 55.5357 26.6318V30.2901H54.2904L54.0339 29.7893ZM53.2332 27.7769C52.5441 27.7996 52.2213 28.0329 52.2213 28.4551C52.2213 28.8893 52.522 29.1562 53.0667 29.1562C53.4895 29.1562 53.7899 29.0222 53.9338 28.9002V27.7551L53.2332 27.7769ZM37.3648 30.1676V32.5364L35.7639 33.0263V24.674H37.1091L37.287 25.1859C37.6986 24.8631 38.1764 24.5634 38.7992 24.5634C40.0895 24.5634 41.1014 25.5418 41.1014 27.3212C41.1014 28.99 40.1009 30.4014 38.4436 30.4014C38.0323 30.4014 37.6541 30.3234 37.3648 30.1676ZM37.3648 26.3644V29.0225C37.543 29.1453 37.7654 29.2451 38.055 29.2451C39.1447 29.2451 39.5003 28.2556 39.5003 27.299C39.5003 26.1422 39.122 25.7312 38.4772 25.7312C38.055 25.7312 37.5539 26.0759 37.3648 26.3644Z" fill="white"/>
<path d="M63.4852 26.5028V24.4336L61.8838 24.9237V30.2945H63.9298C65.4201 30.2945 66.81 29.8944 66.81 28.3487C66.81 27.0363 65.6873 26.5025 64.308 26.5025H63.4852V26.5028ZM63.4852 29.1827V27.6146H64.0193C64.5861 27.6146 65.2094 27.7033 65.2094 28.3705C65.2094 29.0271 64.6751 29.1827 64.0416 29.1827H63.4852Z" fill="white"/>
<path d="M64.142 16.0508C63.6801 16.2628 63.2926 16.4901 62.9705 16.7229C62.633 16.9677 62.3219 17.2724 62.2356 17.6083C62.149 17.9428 62.2724 18.3597 62.4487 18.7372C62.6208 19.0946 62.8493 19.4803 63.1487 19.8895C63.1373 19.7725 63.141 19.6612 63.1637 19.5576C63.2353 19.231 63.5123 18.9377 63.8147 18.7047C64.0344 18.5355 64.288 18.3706 64.5818 18.2145C65.0533 17.9626 65.6244 17.7316 66.3132 17.5406H66.3135C67.0034 17.3491 67.6128 17.2524 68.1466 17.2258C68.1575 16.8941 68.1418 16.591 68.1056 16.3161C68.0553 15.9379 67.9399 15.5514 67.6925 15.3258C67.6131 15.2538 67.5159 15.1936 67.4077 15.1449C66.9083 15.2006 66.3542 15.3069 65.7416 15.4773H65.741C65.1281 15.6473 64.5986 15.8415 64.142 16.0508Z" fill="url(#paint0_linear)"/>
<path d="M70.2353 17.9224C70.2814 17.4179 70.2782 16.9706 70.2417 16.5761C70.2038 16.1609 70.089 15.7403 69.8429 15.4979C69.5971 15.2557 69.1733 15.1537 68.7572 15.1183C68.3622 15.0839 67.9123 15.0885 67.4075 15.1452C67.5156 15.1939 67.6129 15.2541 67.6922 15.3261C67.9397 15.5517 68.0548 15.9382 68.1054 16.3164C68.1419 16.5913 68.1573 16.8944 68.1464 17.2261C68.1294 17.7604 68.0428 18.3704 67.8638 19.0627V19.063C67.685 19.7558 67.464 20.3314 67.22 20.8077C67.5013 20.9824 67.7703 21.1201 68.0263 21.2259C68.3797 21.3713 68.7716 21.4643 69.091 21.3628C69.194 21.3308 69.2937 21.2762 69.3903 21.2064C69.5915 20.7467 69.7763 20.2153 69.9351 19.601C70.0952 18.9817 70.1895 18.4239 70.2353 17.9224Z" fill="url(#paint1_linear)"/>
<path d="M65.563 22.2682C65.1539 21.9778 64.7215 21.6172 64.2695 21.1713C63.8143 20.7248 63.4459 20.2955 63.1486 19.8898C63.1372 19.7728 63.1409 19.6615 63.1635 19.5579C63.2352 19.2313 63.5122 18.938 63.8146 18.705C64.0343 18.5358 64.2879 18.3709 64.5817 18.2148C64.871 18.6639 65.2596 19.1423 65.7694 19.6434C66.2795 20.1452 66.7649 20.5248 67.2201 20.8074C67.5014 20.9822 67.7704 21.1199 68.0264 21.2256C68.3799 21.3711 68.7717 21.464 69.0911 21.3625C69.1941 21.3306 69.2938 21.276 69.3905 21.2062C69.1885 21.6689 68.9701 22.0575 68.7448 22.3822C68.505 22.7285 68.2027 23.0489 67.8663 23.1421C67.5301 23.2359 67.1055 23.1166 66.7222 22.9432C66.3618 22.7809 65.974 22.5596 65.563 22.2682Z" fill="url(#paint2_linear)"/>
<path d="M27.194 35.9311C27.2585 35.9311 27.2942 35.9524 27.2942 36.0307V36.9137C27.2942 36.9784 27.2694 37 27.2084 37H26.9732C26.9023 37 26.8805 36.9822 26.8805 36.9039V36.3048H25.4197V36.9137C25.4197 36.9784 25.3947 37 25.335 37H25.0993C25.0284 37 25.0066 36.9822 25.0066 36.9039V36.0307C25.0066 35.9524 25.042 35.9311 25.1065 35.9311H25.1566C25.4874 35.4679 25.623 34.9018 25.623 34.3883V33.9392C25.623 33.8606 25.6595 33.8387 25.7231 33.8387H26.9412C27.0054 33.8387 27.0414 33.8606 27.0414 33.9392V35.9311H27.194V35.9311ZM26.0614 34.3592C26.0614 34.8765 25.9509 35.45 25.623 35.9308H26.5822V34.2101H26.0617V34.3592H26.0614Z" fill="white"/>
<path d="M28.3703 36.3477C27.7894 36.3477 27.5222 35.9554 27.5222 35.436C27.5222 34.9224 27.8357 34.5314 28.3916 34.5314C28.9723 34.5314 29.24 34.9155 29.24 35.4394C29.24 35.9524 28.9265 36.3477 28.3703 36.3477ZM28.3884 34.8689C28.0709 34.8689 27.9673 35.1432 27.9673 35.4285C27.9673 35.7207 28.0568 36.0095 28.3738 36.0095C28.6876 36.0095 28.7941 35.7311 28.7941 35.4394C28.7941 35.1464 28.7012 34.8689 28.3884 34.8689Z" fill="white"/>
<path d="M30.7501 35.9342C30.7895 35.9201 30.8143 35.9167 30.8284 35.9662L30.8742 36.1231C30.8822 36.1484 30.886 36.1697 30.886 36.1836C30.886 36.2121 30.8679 36.2262 30.8359 36.2411C30.6649 36.3194 30.508 36.3476 30.3191 36.3476C29.7701 36.3476 29.4673 36.0054 29.4673 35.4574C29.4673 34.9045 29.7989 34.531 30.3511 34.531C30.512 34.531 30.6785 34.563 30.8284 34.6301C30.8742 34.6514 30.8742 34.6764 30.8644 34.7231L30.818 34.9114C30.8109 34.9439 30.7965 34.962 30.7752 34.962C30.7648 34.962 30.7501 34.9551 30.736 34.9471C30.6324 34.9042 30.5192 34.8685 30.394 34.8685C30.0877 34.8685 29.9129 35.0861 29.9129 35.4356C29.9129 35.7776 30.0698 36.0123 30.3759 36.0123C30.5288 36.0126 30.6255 35.9846 30.7501 35.9342Z" fill="white"/>
<path d="M31.0562 34.8725C31.0139 34.8725 30.9851 34.855 30.9851 34.8083V34.6408C30.9851 34.595 31.0136 34.5774 31.0562 34.5774H32.4424C32.485 34.5774 32.5138 34.595 32.5138 34.6408V34.8083C32.5138 34.855 32.4853 34.8725 32.4424 34.8725H31.9648V36.2158C31.9648 36.2798 31.936 36.3048 31.8761 36.3048H31.6263C31.5618 36.3048 31.5338 36.2798 31.5338 36.2158V34.8725H31.0562Z" fill="white"/>
<path d="M33.8851 34.8442V34.6655C33.8851 34.6018 33.9131 34.577 33.9778 34.577H34.2276C34.2881 34.577 34.3163 34.6018 34.3163 34.6655V36.2155C34.3163 36.2794 34.2881 36.3044 34.2276 36.3044H33.9778C33.9133 36.3044 33.8851 36.2794 33.8851 36.2155V35.3032L33.201 36.0266V36.2155C33.201 36.2794 33.1723 36.3044 33.1118 36.3044H32.8622C32.7986 36.3044 32.7695 36.2794 32.7695 36.2155V34.6655C32.7695 34.6018 32.7983 34.577 32.8622 34.577H33.1118C33.1723 34.577 33.201 34.6018 33.201 34.6655V35.5671L33.8851 34.8442Z" fill="white"/>
<path d="M35.7273 34.6657C35.7273 34.6021 35.7553 34.5773 35.82 34.5773H36.0699C36.1304 34.5773 36.1586 34.6021 36.1586 34.6657V36.2157C36.1586 36.2797 36.1304 36.3047 36.0659 36.3047H35.816C35.7553 36.3047 35.7273 36.2797 35.7273 36.2157V35.7136C35.6024 35.7637 35.396 35.8055 35.221 35.8055C34.8006 35.8055 34.6589 35.5671 34.6589 35.1463V34.6655C34.6589 34.6018 34.6872 34.577 34.7514 34.577H35.0004C35.0614 34.577 35.0899 34.6018 35.0899 34.6655V35.1042C35.0899 35.3175 35.115 35.4355 35.3715 35.4355C35.4924 35.4355 35.6384 35.4062 35.7279 35.3777V34.6657H35.7273Z" fill="white"/>
<path d="M37.039 35.2218C37.1487 35.1936 37.2877 35.1686 37.4481 35.1686C37.7899 35.1686 38.1716 35.2935 38.1716 35.717C38.1716 36.2162 37.6583 36.3481 37.1985 36.3481C37.0462 36.3481 36.8781 36.3305 36.7326 36.3052C36.6682 36.295 36.6072 36.2663 36.6072 36.1701V34.6662C36.6072 34.6025 36.6359 34.5778 36.6999 34.5778H36.9497C37.0105 34.5778 37.0392 34.6025 37.0392 34.6662V35.2218H37.039ZM37.0318 36.0271C37.1029 36.0375 37.1879 36.0455 37.263 36.0455C37.463 36.0455 37.7299 35.9954 37.7299 35.7602C37.7299 35.5425 37.5088 35.4858 37.32 35.4858C37.2132 35.4858 37.1167 35.5037 37.0318 35.5247V36.0271Z" fill="white"/>
<path d="M40.7721 33.754C40.8217 33.7503 40.8574 33.7687 40.8574 33.8179V34.035C40.8574 34.0848 40.8294 34.1099 40.7788 34.1133L40.4799 34.1421C40.1699 34.1706 39.9594 34.2556 39.8492 34.388C39.753 34.5017 39.7357 34.6405 39.721 34.8443C39.8601 34.7164 40.0487 34.6405 40.27 34.6405C40.6903 34.6405 40.9719 34.9042 40.9719 35.4391C40.9719 35.9843 40.6408 36.3474 40.1062 36.3474C39.4006 36.3474 39.2754 35.7598 39.2754 35.2574C39.2754 34.7409 39.3369 34.3525 39.5822 34.1096C39.7498 33.9418 40.0276 33.8243 40.4016 33.7932L40.7721 33.754ZM39.7178 35.218C39.7178 35.7675 39.8422 36.0094 40.1201 36.0094C40.4048 36.0094 40.5228 35.7528 40.5228 35.4678C40.5228 35.2433 40.4586 34.9798 40.1555 34.9798C39.9775 34.9798 39.8313 35.0616 39.7178 35.1863V35.218Z" fill="white"/>
<path d="M42.0654 36.3477C41.4842 36.3477 41.2168 35.9554 41.2168 35.436C41.2168 34.9224 41.5308 34.5314 42.0873 34.5314C42.6677 34.5314 42.9351 34.9155 42.9351 35.4394C42.9351 35.9524 42.6214 36.3477 42.0654 36.3477ZM42.0836 34.8689C41.766 34.8689 41.6624 35.1432 41.6624 35.4285C41.6624 35.7207 41.7517 36.0095 42.0694 36.0095C42.3819 36.0095 42.4892 35.7311 42.4892 35.4394C42.4892 35.1464 42.3968 34.8689 42.0836 34.8689Z" fill="white"/>
<path d="M43.9004 35.0896C43.9004 35.6168 43.8109 36.2374 43.2054 36.3266C43.1628 36.3338 43.1271 36.3195 43.1205 36.2766L43.0848 36.0739C43.077 36.0414 43.0949 36.0054 43.1383 35.9953C43.4297 35.9204 43.4872 35.539 43.4872 35.1685V34.6597C43.4872 34.5987 43.5224 34.5774 43.5794 34.5774H44.6878C44.7448 34.5774 44.7807 34.5987 44.7807 34.6597V36.2161C44.7807 36.28 44.7522 36.3051 44.6878 36.3051H44.4382C44.3772 36.3051 44.3487 36.28 44.3487 36.2161V34.8728H43.9004V35.0896Z" fill="white"/>
<path d="M45.6597 35.2218C45.7703 35.1936 45.9096 35.1686 46.0697 35.1686C46.4117 35.1686 46.7931 35.2935 46.7931 35.717C46.7931 36.2162 46.2798 36.3481 45.8209 36.3481C45.6669 36.3481 45.4996 36.3305 45.3537 36.3052C45.2895 36.295 45.229 36.2663 45.229 36.1701V34.6662C45.229 34.6025 45.2575 34.5778 45.3212 34.5778H45.571C45.6315 34.5778 45.6597 34.6025 45.6597 34.6662V35.2218V35.2218ZM45.6528 36.0271C45.7244 36.0375 45.8097 36.0455 45.8848 36.0455C46.084 36.0455 46.3515 35.9954 46.3515 35.7602C46.3515 35.5425 46.1304 35.4858 45.9418 35.4858C45.835 35.4858 45.7383 35.5037 45.6528 35.5247V36.0271Z" fill="white"/>
<path d="M48.026 36.0094V34.6658C48.026 34.6022 48.0545 34.5774 48.1184 34.5774H48.3571C48.4181 34.5774 48.4466 34.6022 48.4466 34.6658V36.0094H48.9702V34.6658C48.9702 34.6022 48.9985 34.5774 49.0627 34.5774H49.3125C49.3735 34.5774 49.402 34.6022 49.402 34.6658V36.2233C49.402 36.284 49.3661 36.3051 49.3093 36.3051H47.164C47.1064 36.3051 47.0713 36.284 47.0713 36.2233V34.6658C47.0713 34.6022 47.0998 34.5774 47.164 34.5774H47.4136C47.4746 34.5774 47.5023 34.6022 47.5023 34.6658V36.0094H48.026Z" fill="white"/>
<path d="M51.1471 35.9166C51.186 35.9017 51.2217 35.8956 51.2363 35.9486L51.2861 36.1305C51.2896 36.1484 51.2933 36.1627 51.2933 36.1731C51.2933 36.1982 51.2784 36.2157 51.2363 36.2341C51.0621 36.3119 50.8227 36.3479 50.6378 36.3479C50.0779 36.3479 49.7471 35.9917 49.7471 35.4361C49.7471 34.9017 50.0997 34.5315 50.6295 34.5315C50.8474 34.5315 51.0254 34.6133 51.1506 34.7446C51.3141 34.9159 51.3607 35.1396 51.3607 35.3828V35.4361C51.3607 35.5216 51.3328 35.5392 51.2427 35.5392H50.1996C50.2273 35.8133 50.4271 36.0024 50.7092 36.0024C50.8581 36.0021 51.0078 35.9702 51.1471 35.9166ZM50.9372 35.2576C50.9372 35.2504 50.9372 35.2249 50.9372 35.2179C50.93 35.0331 50.8227 34.8621 50.6056 34.8621C50.3741 34.8621 50.2348 35.0469 50.2066 35.2576H50.9372Z" fill="white"/>
<path d="M52.1158 36.2157C52.1158 36.2797 52.0876 36.3047 52.0271 36.3047H51.7778C51.7133 36.3047 51.6848 36.2797 51.6848 36.2157V34.6593C51.6848 34.5983 51.7202 34.577 51.7778 34.577H52.7711C52.8145 34.577 52.8433 34.5946 52.8433 34.6404V34.808C52.8433 34.8546 52.8145 34.8722 52.7711 34.8722H52.1158V36.2157Z" fill="white"/>
<path d="M53.7444 36.3477C53.1634 36.3477 52.896 35.9554 52.896 35.436C52.896 34.9224 53.2095 34.5314 53.7652 34.5314C54.3461 34.5314 54.6138 34.9155 54.6138 35.4394C54.6138 35.9524 54.3 36.3477 53.7444 36.3477ZM53.7617 34.8689C53.4447 34.8689 53.3414 35.1432 53.3414 35.4285C53.3414 35.7207 53.4303 36.0095 53.747 36.0095C54.0614 36.0095 54.1679 35.7311 54.1679 35.4394C54.1682 35.1464 54.0755 34.8689 53.7617 34.8689Z" fill="white"/>
<path d="M55.8213 34.6593C55.8213 34.5983 55.8573 34.577 55.9135 34.577H56.5549C56.9688 34.577 57.2533 34.7014 57.2533 35.0077C57.2533 35.1859 57.1609 35.3322 56.9579 35.378V35.3895C57.2038 35.41 57.3644 35.5567 57.3644 35.7704C57.3644 36.1907 57.0037 36.3047 56.5834 36.3047H55.9132C55.857 36.3047 55.821 36.2837 55.821 36.2229V34.6593H55.8213ZM56.2523 35.2749H56.4555C56.6793 35.2749 56.8183 35.2216 56.8183 35.0578C56.8183 34.8945 56.683 34.8548 56.4444 34.8548H56.2523V35.2749ZM56.2523 36.0269H56.5157C56.7368 36.0269 56.9259 35.9733 56.9259 35.7847C56.9259 35.5959 56.7222 35.5423 56.5059 35.5423H56.2523V36.0269Z" fill="white"/>
<path d="M58.7172 35.8813L59.1061 34.6624C59.1271 34.595 59.1697 34.5774 59.2315 34.5774H59.5698C59.6268 34.5774 59.6655 34.5987 59.6697 34.6658L59.7366 36.2158C59.7408 36.2798 59.7086 36.3048 59.6439 36.3048H59.4273C59.3661 36.3048 59.3376 36.2798 59.3376 36.2158L59.316 35.0577H59.3053L58.9492 36.2158C58.9281 36.2875 58.8885 36.3048 58.8349 36.3048H58.5536C58.4998 36.3048 58.4647 36.2875 58.4434 36.2193L58.0691 35.0547H58.0584L58.0374 36.2158C58.0374 36.2798 58.0086 36.3048 57.9479 36.3048H57.738C57.6741 36.3048 57.6416 36.2798 57.6453 36.2158L57.7199 34.6658C57.7236 34.5987 57.7625 34.5774 57.8192 34.5774H58.1754C58.2364 34.5774 58.2793 34.595 58.3008 34.6624L58.7068 35.8813H58.7172Z" fill="white"/>
<path d="M61.4427 35.9166C61.4821 35.9017 61.5181 35.8956 61.5322 35.9486L61.5823 36.1305C61.5863 36.1484 61.589 36.1627 61.589 36.1731C61.589 36.1982 61.5748 36.2157 61.5322 36.2341C61.358 36.3119 61.1191 36.3479 60.9337 36.3479C60.374 36.3479 60.0432 35.9917 60.0432 35.4361C60.0432 34.9017 60.3956 34.5315 60.9262 34.5315C61.1438 34.5315 61.3221 34.6133 61.4464 34.7446C61.6105 34.9159 61.6569 35.1396 61.6569 35.3828V35.4361C61.6569 35.5216 61.6278 35.5392 61.5391 35.5392H60.4952C60.5237 35.8133 60.7235 36.0024 61.0056 36.0024C61.1545 36.0021 61.3045 35.9702 61.4427 35.9166ZM61.2328 35.2576C61.2328 35.2504 61.2328 35.2249 61.2328 35.2179C61.2256 35.0331 61.1191 34.8621 60.9012 34.8621C60.6705 34.8621 60.5312 35.0469 60.5024 35.2576H61.2328Z" fill="white"/>
<path d="M63.1469 35.9342C63.1855 35.9201 63.2111 35.9167 63.225 35.9662L63.2716 36.1231C63.2788 36.1484 63.2822 36.1697 63.2822 36.1836C63.2822 36.2121 63.2649 36.2262 63.2322 36.2411C63.0617 36.3194 62.9048 36.3476 62.7157 36.3476C62.1664 36.3476 61.8633 36.0054 61.8633 35.4574C61.8633 34.9045 62.1954 34.531 62.7476 34.531C62.9085 34.531 63.0755 34.563 63.2252 34.6301C63.2718 34.6514 63.2718 34.6764 63.262 34.7231L63.2148 34.9114C63.2085 34.9439 63.1935 34.962 63.1725 34.962C63.1605 34.962 63.1472 34.9551 63.1328 34.9471C63.0294 34.9042 62.916 34.8685 62.7902 34.8685C62.4842 34.8685 62.3097 35.0861 62.3097 35.4356C62.3097 35.7776 62.4663 36.0123 62.7727 36.0123C62.9253 36.0126 63.0212 35.9846 63.1469 35.9342Z" fill="white"/>
<path d="M63.4535 34.8725C63.4109 34.8725 63.3818 34.855 63.3818 34.8083V34.6408C63.3818 34.595 63.4106 34.5774 63.4535 34.5774H64.8413C64.8836 34.5774 64.9121 34.595 64.9121 34.6408V34.8083C64.9121 34.855 64.8839 34.8725 64.8413 34.8725H64.3629V36.2158C64.3629 36.2798 64.3341 36.3048 64.275 36.3048H64.0243C63.9599 36.3048 63.9314 36.2798 63.9314 36.2158V34.8725H63.4535Z" fill="white"/>
<path d="M66.3664 35.9166C66.4053 35.9017 66.4402 35.8956 66.4548 35.9486L66.5046 36.1305C66.5086 36.1484 66.5124 36.1627 66.5124 36.1731C66.5124 36.1982 66.4985 36.2157 66.4548 36.2341C66.2806 36.3119 66.0417 36.3479 65.8558 36.3479C65.2972 36.3479 64.9658 35.9917 64.9658 35.4361C64.9658 34.9017 65.3182 34.5315 65.8496 34.5315C66.0665 34.5315 66.2447 34.6133 66.3693 34.7446C66.5331 34.9159 66.5797 35.1396 66.5797 35.3828V35.4361C66.5797 35.5216 66.5515 35.5392 66.4625 35.5392H65.4184C65.4466 35.8133 65.6459 36.0024 65.9277 36.0024C66.0776 36.0021 66.2276 35.9702 66.3664 35.9166ZM66.1562 35.2576C66.1562 35.2504 66.1562 35.2249 66.1562 35.2179C66.1485 35.0331 66.0417 34.8621 65.8249 34.8621C65.5931 34.8621 65.4541 35.0469 65.4258 35.2576H66.1562Z" fill="white"/>
<defs>
<linearGradient id="paint0_linear" x1="62.3186" y1="18.2734" x2="70.208" y2="16.0857" gradientUnits="userSpaceOnUse">
<stop stop-color="#E22428"/>
<stop offset="0.3412" stop-color="#E02428"/>
<stop offset="0.4641" stop-color="#D92226"/>
<stop offset="0.5517" stop-color="#CE2024"/>
<stop offset="0.6225" stop-color="#BD1D21"/>
<stop offset="0.6832" stop-color="#A7191C"/>
<stop offset="0.736" stop-color="#8C1517"/>
<stop offset="0.7747" stop-color="#731012"/>
</linearGradient>
<linearGradient id="paint1_linear" x1="69.2666" y1="15.1507" x2="67.1536" y2="23.0477" gradientUnits="userSpaceOnUse">
<stop stop-color="#0E7DC1"/>
<stop offset="0.1572" stop-color="#0E7BBE"/>
<stop offset="0.2887" stop-color="#0D74B3"/>
<stop offset="0.4111" stop-color="#0C69A2"/>
<stop offset="0.5279" stop-color="#0A5989"/>
<stop offset="0.6407" stop-color="#08446A"/>
<stop offset="0.7506" stop-color="#052B43"/>
<stop offset="0.8561" stop-color="#020D16"/>
<stop offset="0.8956" stop-color="#010103"/>
</linearGradient>
<linearGradient id="paint2_linear" x1="63.6942" y1="18.6335" x2="68.4925" y2="22.5902" gradientUnits="userSpaceOnUse">
<stop stop-color="#595959"/>
<stop offset="0.1078" stop-color="#737373"/>
<stop offset="0.2876" stop-color="#979797"/>
<stop offset="0.4682" stop-color="#B4B4B4"/>
<stop offset="0.6477" stop-color="#C8C8C8"/>
<stop offset="0.8256" stop-color="#D5D5D5"/>
<stop offset="1" stop-color="#D9D9D9"/>
</linearGradient>
</defs>
</svg>
