<svg width="80" height="50" viewBox="0 0 80 50" fill="none" xmlns="http://www.w3.org/2000/svg">
<rect width="80" height="50" fill="black"/>
<path d="M36.8511 18.2003C36.7503 17.8849 36.6064 17.6932 35.9937 17.0574C35.268 16.3045 35.1157 16.0379 35.1157 15.5207C35.1157 15.2369 35.1383 15.1397 35.2474 14.954C35.4629 14.5876 35.871 14.3706 36.3448 14.3706H36.6049L36.5149 14.5806C36.4655 14.696 36.4098 14.8596 36.3913 14.944C36.3727 15.0284 36.3043 15.1324 36.2393 15.175C35.953 15.3626 35.877 15.8508 36.0737 16.239C36.2698 16.6259 36.4523 16.8177 36.6248 16.8179C36.8292 16.8182 37.0586 16.9629 37.1892 17.1743C37.3039 17.3599 37.4894 18.0213 37.4894 18.2449C37.4894 18.3819 37.4853 18.3839 37.1995 18.3839H36.9097L36.8511 18.2003ZM38.241 17.9751C38.1796 17.4791 38.0456 17.1868 37.7427 16.8881C37.5267 16.6752 37.5192 16.6592 37.6061 16.5957C37.6926 16.5324 37.68 16.509 37.3909 16.1959C36.9263 15.6928 36.8043 15.4789 36.8043 15.1681C36.8043 14.8381 36.9469 14.528 37.206 14.2939C37.4597 14.0647 37.6987 13.9664 38.0039 13.9656C38.3017 13.965 38.5254 14.0722 39.0713 14.4775C39.2915 14.641 39.5488 14.8098 39.643 14.8527C39.7372 14.8955 39.8235 14.9368 39.8348 14.9444C39.8655 14.9651 39.6318 15.4474 39.5911 15.4474C39.5718 15.4474 39.3388 15.3328 39.0734 15.1929C38.6557 14.9726 38.5523 14.938 38.3052 14.9359C38.0515 14.9338 38.0065 14.9488 37.9014 15.0708C37.8145 15.1717 37.7832 15.266 37.7832 15.4272C37.7832 15.8251 38.2037 16.4661 38.5992 16.6709C38.957 16.8562 39.0684 17.1163 39.0957 17.8298L39.1169 18.3839H38.7043H38.2916L38.241 17.9751ZM40.0345 18.1718C40.0345 18.0821 39.9579 17.7903 39.8642 17.5233C39.7706 17.2564 39.6935 16.9713 39.6929 16.8898C39.6915 16.6907 39.8036 16.5432 40.0076 16.4759L40.1762 16.4203L40.081 16.2642C39.9471 16.0445 39.9585 15.7117 40.113 15.3255L40.2406 15.0068H40.5023H40.764L40.8673 15.2393C40.9242 15.3672 40.9948 15.5751 41.0242 15.7013C41.0723 15.908 41.0657 15.9551 40.9566 16.1754L40.8354 16.4201L40.953 16.4496C41.0177 16.4659 41.1237 16.5323 41.1887 16.5973C41.3537 16.7622 41.3411 16.9775 41.1355 17.5097C41.0413 17.7536 40.9642 18.0391 40.9642 18.1441V18.3349H40.4993H40.0343V18.1718H40.0345ZM41.9056 17.8057C41.9354 17.1756 42.0435 16.8745 42.2947 16.7213C42.3841 16.6669 42.4902 16.621 42.5306 16.6193C42.609 16.6162 42.9781 16.1375 43.1263 15.8467C43.1766 15.748 43.2157 15.5672 43.2157 15.4332C43.2157 15.2329 43.192 15.1713 43.0661 15.0455C42.9267 14.9061 42.8984 14.8977 42.6534 14.923C42.4681 14.9421 42.2504 15.0236 41.9166 15.1987C41.6561 15.3354 41.4271 15.4473 41.4078 15.4473C41.367 15.4473 41.1334 14.965 41.1641 14.9443C41.1753 14.9368 41.2617 14.8954 41.3559 14.8526C41.4501 14.8098 41.7074 14.641 41.9276 14.4775C42.6091 13.9716 42.878 13.8786 43.2989 14.0036C43.6157 14.0977 44.0062 14.4404 44.1209 14.725C44.2338 15.0053 44.2285 15.3361 44.1072 15.5727C44.0529 15.6787 43.8504 15.9383 43.6574 16.1497C43.3185 16.5207 43.3097 16.5364 43.4055 16.6035C43.5019 16.671 43.4983 16.679 43.2825 16.878C42.9595 17.1756 42.8132 17.4929 42.7855 17.9555L42.7627 18.3348H42.3216H41.8805L41.9056 17.8057ZM43.5103 18.2493C43.5123 18.0402 43.6596 17.493 43.7752 17.2649C43.9212 16.9767 44.0767 16.8581 44.3581 16.8202C44.5265 16.7974 44.5869 16.755 44.7443 16.5485C44.9699 16.2525 45.0946 15.8679 45.0471 15.6146C45.0257 15.5003 44.9448 15.3655 44.8268 15.2475C44.7138 15.1345 44.6179 14.978 44.5836 14.8504C44.5525 14.7346 44.4957 14.5793 44.4574 14.5052L44.3879 14.3706H44.6522C45.1822 14.3706 45.5766 14.6005 45.788 15.0326C45.9021 15.2658 45.9173 15.3468 45.8962 15.6091C45.8583 16.0813 45.6897 16.3545 44.9968 17.0661C44.5189 17.5569 44.3572 17.7588 44.2384 18.0124L44.0875 18.335H43.7985C43.5555 18.3349 43.5095 18.3213 43.5103 18.2493ZM40.1079 14.6447C39.6326 14.4352 39.4216 13.8842 39.6376 13.4162C39.9357 12.7702 40.7636 12.6648 41.2438 13.2117C41.619 13.639 41.4687 14.3593 40.9522 14.6094C40.7067 14.7282 40.333 14.7438 40.1079 14.6447ZM40.3124 12.3934L40.3394 12.2271L40.0643 12.3037C39.8305 12.3687 39.7707 12.3703 39.6659 12.3141C39.5091 12.2303 39.4597 12.0419 39.5513 11.8779C39.6325 11.7326 39.8949 11.6865 40.1448 11.7736C40.2274 11.8024 40.3038 11.8173 40.3145 11.8066C40.3252 11.7959 40.2996 11.705 40.2576 11.6046C40.1546 11.358 40.1617 11.209 40.2821 11.0885C40.4215 10.9491 40.6557 10.9779 40.7838 11.1502L40.8821 11.2825L40.7803 11.5587L40.6786 11.8349L40.7848 11.8027C41.0724 11.7153 41.3098 11.7151 41.4061 11.8022C41.5305 11.9148 41.5299 12.141 41.4049 12.2661C41.2888 12.3822 41.2034 12.387 40.8974 12.2949L40.668 12.2258L40.6992 12.3928L40.7306 12.5597H40.508H40.2854L40.3124 12.3934Z" fill="white"/>
<path d="M39.6919 38.449C37.4638 38.2878 35.3312 37.4867 33.6108 36.1648C33.456 36.0458 33.3294 35.9313 33.3294 35.9101C33.3294 35.8891 33.6399 35.578 34.0195 35.2189C34.5134 34.7517 34.7271 34.5791 34.7714 34.6117C34.8053 34.6368 35.0289 34.7916 35.2681 34.9557C37.4601 36.4594 40.2475 36.9312 42.8993 36.2475C43.9939 35.9653 45.0558 35.4646 45.9761 34.7969L46.2649 34.5874L46.9725 35.2575L47.6802 35.9275L47.5158 36.0675C46.8431 36.6403 45.2901 37.4935 44.2925 37.8385C42.8567 38.335 41.1837 38.557 39.6919 38.449ZM31.6735 34.276C30.4952 32.7951 29.7025 30.9442 29.4417 29.0639C29.3534 28.4277 29.3393 26.9875 29.4152 26.3603C29.6475 24.4415 30.3722 22.6729 31.5758 21.0874L31.9199 20.6341L32.1963 20.8759C32.3484 21.0088 32.6684 21.3153 32.9076 21.5569L33.3423 21.9962L33.1151 22.2915C32.206 23.473 31.5575 25.063 31.3699 26.5704C31.2839 27.2617 31.3317 28.5944 31.4667 29.2677C31.732 30.5913 32.4032 32.0654 33.1707 33.0101L33.3434 33.2226L32.6641 33.9033C32.2905 34.2776 31.9698 34.5839 31.9516 34.5839C31.9334 34.5839 31.8082 34.4454 31.6735 34.276ZM48.3099 33.9185L47.6225 33.2532L47.8123 33.0253C48.5755 32.1092 49.2647 30.6035 49.5321 29.2677C49.6658 28.5994 49.713 27.3243 49.6304 26.6131C49.4552 25.1057 48.8662 23.619 47.96 22.3969L47.6602 21.9925L48.0931 21.5551C48.3312 21.3145 48.6508 21.0085 48.8033 20.8752L49.0806 20.6328L49.4425 21.1132C50.6477 22.713 51.3508 24.4362 51.5837 26.3603C51.6113 26.5884 51.6339 27.1505 51.6339 27.6096C51.6339 28.0686 51.6113 28.6307 51.5837 28.8589C51.3473 30.8123 50.5621 32.6999 49.3399 34.2535C49.1969 34.4352 49.0614 34.5839 49.0387 34.5839C49.016 34.5839 48.688 34.2845 48.3099 33.9185Z" fill="white"/>
<path d="M39.546 22.1534H34.8965V26.6561H39.546V22.1534Z" fill="#ED3323"/>
<path d="M46.1532 22.1534H41.5037V26.6561H46.1532V22.1534Z" fill="#ED3323"/>
<path d="M39.546 28.5404H34.8965V33.0431H39.546V28.5404Z" fill="#ED3323"/>
<path d="M46.1532 28.5404H41.5037V33.0431H46.1532V28.5404Z" fill="#ED3323"/>
<path d="M44.1436 18.7703H36.8542V20.4374H44.1436V18.7703Z" fill="white"/>
</svg>
