<svg xmlns="http://www.w3.org/2000/svg" width="1440" height="888" fill="none" viewBox="0 0 1440 888"><g clip-path="url(#a)"><path fill="#09090A" d="M-2-3h1444v654H-2zM-1 653h1442v4H-1zM0 659h1440v230H0z" opacity=".93"/><path fill="url(#b)" d="M-5 659h1450v232H-5z" opacity=".96"/><path fill="url(#c)" d="M720 285.32c-32.84 0-58.32-13.4-58.32-29.25 0-16 25.48-29.39 58.32-29.39 32.7 0 58.32 13.4 58.32 29.39 0 15.85-25.62 29.25-58.32 29.25Z"/><path fill="url(#d)" fill-rule="evenodd" d="M679.93 273.17c9.9 5.1 23.97 8.42 40.07 8.42 16.03 0 30.1-3.33 40.02-8.42 10.18-5.24 14.73-11.59 14.73-17.1 0-5.6-4.56-11.98-14.74-17.22-9.9-5.11-23.98-8.44-40.01-8.44-16.1 0-30.17 3.33-40.06 8.44-10.15 5.24-14.68 11.61-14.68 17.22 0 5.52 4.51 11.87 14.67 17.1ZM661 256.07c0 16.22 25.78 29.93 59 29.93 33.08 0 59-13.7 59-29.93 0-16.36-25.92-30.07-59-30.07-33.22 0-59 13.7-59 30.07Z" clip-rule="evenodd"/><path fill="url(#e)" fill-opacity=".8" fill-rule="evenodd" d="M699.02 281.35c.13-.68-.41-1.5-1.1-1.64-.67-.13-1.5.28-1.63 1.1-.13.68.27 1.5 1.1 1.63.67.14 1.49-.4 1.63-1.09Zm2.86-52.62c-.82.14-1.23.82-1.23 1.64.14.69.82 1.23 1.64 1.1a1.42 1.42 0 0 0 1.09-1.64c-.14-.69-.82-1.23-1.5-1.1Zm1.08 1.18c-.1-.48-.58-.83-1-.75h-.01c-.3.06-.51.2-.65.4-.13.19-.22.45-.22.76.1.44.56.8 1.13.71.47-.1.84-.56.75-1.12Zm-5.03 2.38c-.68.13-1.5-.28-1.64-1.1-.13-.68.27-1.36 1.1-1.64a1.5 1.5 0 0 1 1.63 1.1c.13.68-.41 1.5-1.1 1.64Zm-.44-2.3c-.64.22-.87.7-.78 1.11v.01c.09.53.63.84 1.14.74.2-.04.42-.2.58-.43a.96.96 0 0 0 .17-.68.97.97 0 0 0-.43-.58 1 1 0 0 0-.68-.18Zm3.3 51.63c0-.68.68-1.23 1.5-1.09.68.14 1.22.82 1.09 1.64-.14.69-.82 1.23-1.5 1.1-.82-.14-1.23-.82-1.1-1.64Zm2.17.47a.98.98 0 0 0-.75-1.12c-.62-.1-1 .31-1 .65v.08c-.06.32 0 .57.12.76.11.17.31.32.62.37.43.09.9-.26 1-.74Zm3.69-.88c.81 0 1.36.69 1.22 1.5a1.6 1.6 0 0 1-1.5 1.24c-.81-.14-1.36-.82-1.22-1.64.13-.69.82-1.23 1.5-1.1Zm-1.08 1.18c-.09.53.24 1 .84 1.12.48-.02.95-.42 1.05-.87.08-.55-.26-.98-.81-.98h-.04l-.04-.01c-.42-.09-.9.26-1 .74Zm22.06.74a1.3 1.3 0 0 1 1.23-1.5c.81 0 1.36.54 1.5 1.23 0 .81-.55 1.36-1.23 1.5-.82 0-1.5-.55-1.5-1.23Zm1.46.79c.48-.11.82-.48.84-1.02a1.05 1.05 0 0 0-1.07-.83c-.45 0-.9.46-.8.98v.08c0 .34.37.77 1.03.79Zm3.04-1.2c-.14-.82.4-1.5 1.09-1.5.81-.14 1.5.4 1.63 1.09 0 .82-.54 1.5-1.22 1.64-.82 0-1.5-.55-1.5-1.23Zm1.45.79c.44-.11.83-.57.85-1.15a1 1 0 0 0-1.15-.71h-.06c-.38 0-.77.4-.67 1v.07c0 .34.38.77 1.03.79Zm4.13-2.98c.69-.13 1.37.41 1.5 1.1.14.81-.4 1.5-1.09 1.63-.81.14-1.5-.4-1.63-1.09 0-.82.4-1.5 1.22-1.64Zm-.8 1.6c.11.42.56.8 1.14.7.47-.1.83-.56.75-1.12-.1-.48-.59-.83-1-.75h-.01c-.31.06-.51.2-.65.4-.13.19-.22.45-.23.76Zm5.16-2.42c.69-.13 1.37.28 1.64 1.1.13.68-.41 1.5-1.1 1.63-.8.14-1.49-.4-1.63-1.09-.13-.68.28-1.5 1.1-1.64Zm.47 2.3c.21-.04.43-.2.58-.43.15-.22.2-.47.18-.66-.22-.62-.7-.86-1.14-.78h-.01c-.55.1-.84.65-.75 1.12.09.45.55.85 1.14.75Zm-.47-49.72c-.81-.14-1.22-.96-1.09-1.64.14-.69.82-1.23 1.64-1.1.68.28 1.23.96 1.09 1.64-.27.82-.95 1.23-1.64 1.1Zm1.23-1.21a.83.83 0 0 0-.17-.6 1.5 1.5 0 0 0-.62-.5.98.98 0 0 0-1.1.76c-.1.47.19 1.02.73 1.11h.01c.45.1.93-.15 1.15-.77Zm-5.59.39c-.81-.14-1.22-.82-1.22-1.64.13-.69.82-1.23 1.63-1.1.68.14 1.23.82 1.1 1.64-.14.69-.82 1.23-1.5 1.1Zm1.08-1.18a.98.98 0 0 0-.74-1.12.99.99 0 0 0-1.14.7c.01.32.1.58.23.77.13.2.34.34.64.4h.01c.42.08.9-.27 1-.75Zm-9.93.08a1.3 1.3 0 0 1-1.23-1.5c0-.68.68-1.23 1.5-1.23.68.14 1.23.68 1.23 1.5-.14.69-.69 1.37-1.5 1.23Zm1.07-1.27c-.02-.54-.36-.9-.84-1.02-.66.02-1.03.45-1.03.79v.07c-.1.52.35 1 .8 1h.06c.27.04.49-.04.66-.2.17-.16.3-.4.35-.64Zm-18.82.83h.03c.37 0 .78-.39.8-1.02-.1-.45-.46-.81-1.03-.83-.49.11-.84.5-.84 1.06 0 .41.44.9 1 .8h.04Zm-.24-2.3c.82 0 1.36.56 1.5 1.24 0 .82-.55 1.5-1.23 1.5a1.3 1.3 0 0 1-1.5-1.23c0-.82.55-1.36 1.23-1.5Zm-4.46 1h-.04c-.54 0-.9.43-.8.98.1.47.58.82 1 .74h.08c.55 0 .9-.44.8-.99-.1-.48-.58-.83-1-.74h-.04Zm1.46.65c-.13-.68-.81-1.23-1.5-1.1-.81 0-1.36.69-1.22 1.5.13.7.82 1.24 1.5 1.1.81 0 1.36-.68 1.22-1.5Zm-13.76 2.44v-.03c-.08-.38-.48-.7-1.11-.62-.49.22-.73.68-.66 1.1.11.31.29.52.47.62.17.1.38.13.6.04l.04-.02h.05c.3-.05.5-.2.59-.36.1-.16.13-.4.03-.7l-.01-.03Zm-2.18.57c-.13-.69.27-1.37.96-1.64.81-.14 1.5.27 1.63.95.27.82-.14 1.5-.95 1.64-.69.28-1.37-.13-1.64-.95Zm-11.65 3.53-.05.02c-.43.17-.64.71-.44 1.2.16.4.69.64 1.2.45.47-.3.64-.86.48-1.31-.33-.52-.87-.6-1.14-.4l-.05.04Zm1.57.16c-.41-.69-1.23-.96-1.77-.55-.68.27-.96 1.1-.68 1.78.27.68 1.09.95 1.77.68.68-.41.95-1.23.68-1.91Zm-4.47 2.25-.01-.03c-.07-.18-.24-.3-.47-.36a.84.84 0 0 0-.66.13l-.02.02h-.02a1.1 1.1 0 0 0-.49.6c-.06.2-.03.4.07.53l.01.02.01.02c.3.5.88.67 1.34.4.44-.27.56-.8.26-1.3l-.02-.03Zm-.03 1.71c-.68.41-1.5.14-1.9-.55-.42-.54-.14-1.36.54-1.77.54-.41 1.5-.28 1.77.4.4.69.27 1.5-.4 1.92Zm-3.74.82-.03-.04c-.25-.43-.78-.57-1.28-.29-.4.43-.43.97-.2 1.28.43.54 1 .57 1.32.34.27-.22.4-.47.43-.67a.65.65 0 0 0-.2-.58l-.04-.04Zm.06 1.64c-.54.41-1.36.27-1.9-.41-.41-.55-.28-1.37.27-1.91.68-.41 1.5-.28 1.9.4.55.55.41 1.37-.27 1.92Zm24.93 38.86a.96.96 0 0 0-.17-.68.97.97 0 0 0-.58-.44c-.5-.1-1.05.22-1.14.74v.01c-.1.48.2 1.03.74 1.12h.01c.21.05.48-.02.71-.17a.97.97 0 0 0 .43-.58Zm-4.49-1 .02-.03a.77.77 0 0 0-.63-1.04h-.05l-.04-.02a.66.66 0 0 0-.6.04c-.18.1-.36.3-.47.62-.07.42.17.88.66 1.1.63.08 1.03-.25 1.1-.62l.01-.05Zm-2.18-.55c.27-.82.96-1.23 1.64-.95.81.13 1.22.95.95 1.63-.14.69-.82 1.1-1.63.96a1.48 1.48 0 0 1-.96-1.64Zm-3.81-1.23-.02.03c-.18.44.1.96.5 1.04l.04.01.04.01c.43.18 1-.08 1.2-.54.1-.5-.12-1.02-.64-1.21-.24-.04-.5 0-.72.13a.75.75 0 0 0-.4.48v.05Zm1.22-1.1c.82.28 1.1 1.1.95 1.79-.27.68-1.08 1.09-1.77.81-.68-.13-1.09-.95-.81-1.63.13-.69.95-1.1 1.63-.96Zm-4.9.69h.01c.42.17.89-.06 1.1-.58.19-.48-.02-1.02-.45-1.2-.45-.17-1.03.1-1.22.58a.87.87 0 0 0 .55 1.2h.01Zm-5.04-3.28c-.28.69 0 1.5.68 1.78.54.4 1.36.13 1.77-.55.27-.68 0-1.5-.68-1.91-.68-.28-1.5 0-1.77.68Zm1.58-.28c-.5-.19-1.03.04-1.2.45-.19.49.02 1.03.45 1.2l.05.02.05.03c.27.2.8.13 1.14-.39.16-.45-.01-1-.49-1.31Zm-7.37-3.28.04-.04a.65.65 0 0 0 .2-.57 1.1 1.1 0 0 0-.43-.67c-.33-.24-.89-.2-1.32.33-.23.32-.2.86.2 1.29.5.28 1.03.14 1.28-.3l.03-.04Zm-1.57.7c-.55-.56-.68-1.38-.27-1.92.54-.69 1.36-.82 1.9-.41.68.54.82 1.36.27 1.91-.4.69-1.22.82-1.9.41Zm-7.2-10.69h.03c.4-.08.68-.6.5-1.04v-.03a.94.94 0 0 0-.47-.58c-.2-.1-.46-.14-.79-.09-.47.22-.7.78-.54 1.18.2.48.78.76 1.23.58l.03-.01Zm-.84-2.17c.82-.13 1.5.14 1.77.96.27.68-.14 1.5-.82 1.64-.68.27-1.5-.14-1.77-.82-.27-.68.14-1.5.82-1.78Zm-.38-3.93h-.03c-.43 0-.8.33-.8.93 0 .19.1.42.3.62.18.19.4.3.6.3.32-.06.56-.19.72-.36a1 1 0 0 0 .25-.7c0-.4-.44-.89-1-.8l-.04.01Zm.1 2.3c.82-.14 1.37-.69 1.37-1.51a1.3 1.3 0 0 0-1.5-1.23c-.68 0-1.23.55-1.23 1.37 0 .68.68 1.36 1.37 1.36Zm112.51-2.3h-.03c-.18-.04-.4.03-.58.2a.86.86 0 0 0-.28.59c0 .3.1.53.25.7.16.17.4.3.72.36.2 0 .42-.12.6-.3.2-.2.3-.43.3-.62 0-.3-.1-.53-.24-.68a.95.95 0 0 0-.7-.25h-.03Zm.04 2.3c-.81-.14-1.36-.69-1.36-1.51 0-.68.68-1.37 1.37-1.23.81 0 1.36.55 1.36 1.37 0 .68-.68 1.36-1.37 1.36Zm-1.63 2.71-.01.05c-.18.44.1.96.5 1.04h.04l.03.02c.44.17 1-.08 1.21-.54.08-.5-.12-1.03-.65-1.22a1.2 1.2 0 0 0-.73.09c-.2.1-.34.26-.38.52v.04Zm1.23-1.08c.81.28 1.09 1.1.95 1.78-.27.68-1.09 1.1-1.77.82-.68-.14-1.1-.96-.82-1.64.14-.82.95-1.1 1.64-.96Zm-3.21 4.79a.82.82 0 0 0-.2.7 1 1 0 0 0 .37.57c.51.3 1.06.17 1.32-.16.3-.5.17-1.03-.15-1.29-.53-.3-1.09-.16-1.34.17v.01Zm1.57-.55c.55.41.68 1.23.27 1.91-.4.55-1.22.69-1.9.28-.55-.41-.82-1.23-.28-1.92.41-.54 1.23-.68 1.91-.27Zm-6.47 6.98-.02-.05c-.28-.47-.82-.54-1.16-.29-.54.44-.55.98-.33 1.29.43.53 1 .57 1.32.33.27-.22.4-.46.43-.67a.64.64 0 0 0-.2-.57l-.03-.04Zm.07 1.63c-.55.41-1.37.27-1.91-.4-.4-.56-.27-1.38.4-1.92.55-.41 1.37-.28 1.78.4.54.56.4 1.38-.27 1.92Zm-3.78.9-.02-.05a.78.78 0 0 0-.51-.42c-.25-.08-.48-.04-.62.06l-.02.02h-.02c-.51.32-.65.88-.4 1.3.27.45.82.58 1.34.27l.03-.02.03-.01c.18-.07.3-.24.35-.46a.8.8 0 0 0-.13-.63l-.03-.05Zm.37-.21c-.27-.69-1.23-.96-1.77-.55-.68.4-.95 1.23-.55 1.91.41.68 1.23.82 1.91.41.68-.27.82-1.23.41-1.77Zm-5.89 3.21.02.03c.16.42.68.63 1.16.34l.03-.02.03-.01c.42-.17.63-.69.45-1.17-.3-.47-.87-.66-1.34-.48-.49.31-.62.85-.37 1.28l.02.03Zm.17-1.71c.68-.28 1.5 0 1.9.68.28.69 0 1.5-.68 1.78-.68.4-1.5.13-1.77-.55-.4-.68-.13-1.5.55-1.91Zm-12.3 5.07h-.02a.76.76 0 0 0-.5.41 1.1 1.1 0 0 0-.13.68c.21.47.68.73 1.13.65.62-.22.85-.69.78-1.1-.11-.3-.28-.5-.47-.6a.91.91 0 0 0-.76-.05l-.03.01Zm1.67.53c-.27-.82-.96-1.23-1.77-.95-.68.13-1.1.95-.96 1.63.28.69.96 1.1 1.64.96.82-.27 1.23-.96 1.09-1.64Zm-15.52-50.4v.04c-.1.6.29 1 .67 1h.06a.99.99 0 0 0 1.15-.7c-.02-.63-.43-1.02-.8-1.02h-.07c-.63-.11-1 .3-1 .65v.04Zm2.3.38a1.42 1.42 0 0 1-1.63 1.1c-.68 0-1.23-.7-1.1-1.51 0-.68.69-1.23 1.5-1.1.69 0 1.23.69 1.23 1.5Zm11.55 3.13h.03c.31.1.56.07.76-.03.19-.11.36-.31.47-.62.07-.4-.16-.88-.78-1.1-.45-.07-.91.19-1.12.66-.09.6.22 1 .62 1.08h.02Zm-1.06-1.22c.28-.68.96-1.1 1.64-.95.82.27 1.23.95 1.09 1.64-.27.82-.96 1.23-1.77.95-.68-.13-1.1-.82-.96-1.64Zm6.56 1.9v-.02c.18-.44-.1-.95-.5-1.03h-.03l-.02-.02a.94.94 0 0 0-1.25.57c-.16.4.06.97.54 1.18.33.05.59.01.79-.09.2-.1.36-.27.46-.58v-.01Zm-1.38 1.1c-.68-.26-1.09-1.08-.81-1.77.27-.68.95-1.1 1.77-.82.68.14 1.09.96.81 1.64-.27.82-.95 1.1-1.77.96Zm8.01 1.58-.01.03c-.26.42-.13.97.36 1.28.48.17 1.04-.01 1.34-.49.18-.47-.03-1-.45-1.16l-.03-.01-.03-.02c-.48-.29-1-.08-1.16.34l-.02.03Zm2.08 1.03c-.41.68-1.23.95-1.91.68-.68-.41-.96-1.23-.55-1.91.27-.69 1.1-.96 1.77-.55.69.27.96 1.1.69 1.78Zm2.27 2.36.02.01c.14.1.37.15.62.07a.78.78 0 0 0 .5-.43l.03-.05.03-.05c.25-.32.2-.84-.28-1.12-.52-.31-1.07-.19-1.33.26-.26.43-.12.99.4 1.3l.01.01Zm4.88 2.14.04-.04a.64.64 0 0 0 .2-.57 1.1 1.1 0 0 0-.43-.67c-.32-.24-.89-.2-1.32.33-.22.3-.2.85.33 1.29.34.25.88.18 1.16-.3l.02-.04Zm-1.43.69c-.68-.55-.82-1.37-.41-1.91.54-.69 1.36-.82 1.9-.41.69.54.82 1.36.28 1.91-.4.68-1.23.82-1.77.41Zm6.33 5.74c.25.34.81.48 1.34.18.32-.26.44-.8.15-1.3-.25-.32-.8-.45-1.32-.15a1 1 0 0 0-.36.57c-.04.22 0 .46.18.7Zm-.06-1.64c-.55.41-.82 1.23-.28 1.91.41.55 1.23.69 1.91.28.55-.41.68-1.23.27-1.92-.4-.54-1.22-.68-1.9-.27Zm-94.05-11.48c10.62-5.36 25.05-9 41.45-9 16.4 0 30.94 4.05 41.56 9.41 10.6 5.34 17.2 12.04 17.2 20.64 0 8.53-6.46 15.48-17.06 20.8-10.63 5.34-25.3 9.12-41.7 9.12-16.4 0-30.72-3.6-41.34-8.94-10.6-5.32-17.55-12.53-17.43-20.98.13-8.46 6.72-15.71 17.32-21.05Zm-8.67 12.34c-2.4 2.82-3.66 6.12-3.66 8.7 0 2.56 1.44 5.37 3.85 8.16 2.4 2.8 5.98 5.54 10.6 7.96 9.26 4.85 22.7 8.37 39.33 8.37 16.64 0 30.23-3.27 39.48-8.11 4.63-2.42 8.51-5.1 10.92-7.89a13.24 13.24 0 0 0 3.38-8.48c0-2.6-1.14-5.78-3.55-8.6-2.41-2.8-6.18-5.46-10.8-7.89-9.26-4.86-22.8-8.13-39.43-8.13-16.64 0-30.23 3.21-39.48 8.07-4.63 2.43-8.23 5.03-10.64 7.84Zm46.56-18.63a.94.94 0 0 0-.94-.92c-.54 0-.93.44-.93 1.06 0 .18.09.37.27.53.18.16.43.26.66.26.57 0 .94-.47.94-.93Zm-26.55 4.22c-.12-.41-.68-.73-1.23-.55-.28.1-.44.24-.53.4-.09.16-.13.4-.04.79.07.31.23.48.43.57.2.1.5.1.78.02.45-.13.73-.71.59-1.23Zm-4.82 1c-.17-.1-.4-.14-.7-.01-.32.14-.48.33-.54.51a.94.94 0 0 0 .03.68c.2.49.74.77 1.24.57.49-.2.65-.74.45-1.18a1.25 1.25 0 0 0-.48-.57Zm-14.96 9.59a.9.9 0 0 0-1.32 0 .87.87 0 0 0 0 1.28.9.9 0 0 0 1.32 0 .87.87 0 0 0 0-1.28Zm-4.26 3.49c-.3.5-.17 1.03.15 1.29.52.3 1.07.17 1.33-.16.28-.5.16-1.03-.16-1.29-.51-.3-1.06-.17-1.32.16Zm1.55-.53c-.68-.41-1.5-.27-1.9.27-.41.69-.28 1.5.27 1.92.68.4 1.5.27 1.9-.28.42-.68.28-1.5-.26-1.91Zm-2.6 4.24c-.45-.18-1.03.1-1.23.57a.92.92 0 0 0 .55 1.2c.54.16 1.14-.14 1.3-.63.15-.46-.09-.93-.62-1.14Zm55.84 31.9a.95.95 0 0 0-.64-.3.93.93 0 0 0-.94.93c0 .3.1.52.25.67.15.15.37.25.69.25.49 0 .94-.39.94-.93 0-.19-.1-.42-.3-.62Zm-4.2.63a.94.94 0 0 0-.94-.93c-.23 0-.48.1-.66.26a.72.72 0 0 0-.27.53c0 .62.39 1.06.93 1.06.5 0 .94-.39.94-.93Zm-4.5-.19c-.02-.62-.43-1.01-.8-1.01-.68 0-1.07.44-1.07.79 0 .56.35.94.84 1.06.57-.02.93-.38 1.03-.84Zm.43.05c0-.82-.54-1.5-1.23-1.5-.81 0-1.5.54-1.5 1.23 0 .81.55 1.36 1.23 1.5.82 0 1.36-.55 1.5-1.23Zm-34.78-10.16c-.04-.17-.15-.35-.45-.53-.3-.18-.54-.2-.74-.15-.19.05-.4.2-.57.5-.18.29-.2.51-.15.68.05.18.19.37.44.53.25.16.51.23.74.2.2-.04.4-.15.55-.44.18-.36.22-.62.18-.8Zm-7.48-4.5a.87.87 0 0 0 0-1.29.9.9 0 0 0-1.32 0 .88.88 0 0 0 0 1.28.9.9 0 0 0 1.32 0Zm-2.78-4.63c.28.5.16 1.03-.16 1.29-.51.3-1.06.17-1.32-.16-.3-.5-.17-1.03.15-1.29.52-.3 1.07-.17 1.33.16Zm-1.56-.53c.68-.4 1.5-.27 1.9.27.42.69.28 1.5-.26 1.92-.69.4-1.5.27-1.91-.28-.41-.68-.28-1.5.27-1.9Zm103.7 3.56c-.42.54-.42 1.36 0 1.9.54.56 1.5.56 2.04 0 .4-.54.4-1.36 0-1.9a1.48 1.48 0 0 0-2.05 0Zm1.72.29a1.07 1.07 0 0 0-1.4 0 1.2 1.2 0 0 0 0 1.32c.37.35 1.02.35 1.4 0a1.2 1.2 0 0 0 0-1.32Zm-15.07 9.71c-.22-.55-.7-.78-1.22-.57-.3.11-.48.3-.58.5a.84.84 0 0 0 0 .7c.12.29.3.48.5.57.2.1.45.11.73 0 .28-.12.47-.3.57-.5.1-.2.1-.43 0-.7Zm-4.2 1.65c-.25-.54-.72-.85-1.3-.71a.74.74 0 0 0-.52.47c-.1.25-.1.53-.02.74.18.45.74.77 1.3.59a.9.9 0 0 0 .55-.46c.08-.18.1-.4-.01-.63Zm-26.76 4.08a1.04 1.04 0 0 0-.66-.26.93.93 0 0 0-.94.93c0 .53.45.92.94.92.54 0 .93-.44.93-1.06 0-.18-.09-.38-.27-.53Zm-6.1-53.87c0 .46.37.93.94.93.2 0 .45-.1.64-.3.2-.2.3-.43.3-.63a.94.94 0 0 0-.94-.92c-.32 0-.54.1-.7.25a.92.92 0 0 0-.24.67Zm4.5 0c0 .46.37.93.94.93.23 0 .48-.1.66-.26a.72.72 0 0 0 .27-.53c0-.62-.39-1.06-.93-1.06a.93.93 0 0 0-.94.92Zm30.76 5.78c-.18.44.09 1 .58 1.2.44.17 1.02-.06 1.23-.59.18-.47-.04-.97-.58-1.2-.5-.2-1.02.06-1.23.59Zm9.7 3.1c-.69-.4-1.5-.27-1.92.42-.4.68-.13 1.5.55 1.91.54.41 1.5.14 1.77-.55.4-.54.27-1.36-.4-1.77Zm5.76 7.23a1.2 1.2 0 0 1 0-1.33 1.07 1.07 0 0 1 1.4 0c.27.39.27.95 0 1.33-.37.35-1.02.35-1.4 0Zm1.73.3c-.55.54-1.5.54-2.05 0-.4-.55-.4-1.37 0-1.92.55-.55 1.5-.55 2.05 0 .4.55.4 1.37 0 1.91Zm3.1 6.08c-.1.18-.13.4-.04.64.11.3.27.49.45.59.17.1.4.14.74.05a.93.93 0 0 0 .66-1.21.93.93 0 0 0-1.22-.55c-.29.11-.49.3-.6.48ZM720 226.45c-32.7 0-58.34 12.94-58.34 29.62 0 16.54 25.64 29.47 58.34 29.47s58.34-12.94 58.34-29.47c0-16.68-25.64-29.62-58.34-29.62Zm-54.2 29.62c0-10.94 20.82-25.06 54.2-25.06s54.2 14.12 54.2 25.06c0 10.8-20.82 24.92-54.2 24.92s-54.2-14.13-54.2-24.92Zm49.7-28.7a1.37 1.37 0 0 1 0 2.73c-.68 0-1.36-.55-1.36-1.23 0-.82.55-1.5 1.36-1.5Zm-26.96 4.6c.72-.23 1.56.16 1.75.86.2.7-.15 1.57-.88 1.77-.72.21-1.53-.01-1.74-.91-.2-.9.14-1.47.87-1.71Zm-4.33 1.56c.83-.35 1.44.17 1.72.8.3.65.07 1.48-.68 1.78-.74.3-1.5-.13-1.78-.81-.27-.69-.08-1.4.74-1.77Zm-15.72 9.69a1.31 1.31 0 0 1 1.91 0c.55.55.55 1.37 0 1.91-.54.55-1.36.55-1.9 0a1.32 1.32 0 0 1 0-1.91Zm-5.31 7.93c.27-.69 1.09-1.1 1.77-.82.68.27 1.12.95.88 1.7a1.48 1.48 0 0 1-1.83.9 1.37 1.37 0 0 1-.82-1.78ZM720 281.9c.68 0 1.36.68 1.36 1.37 0 .81-.68 1.36-1.36 1.36-.82 0-1.36-.55-1.36-1.37 0-.68.54-1.36 1.36-1.36Zm-4.5 0a1.37 1.37 0 0 1 0 2.73c-.81 0-1.36-.68-1.36-1.5 0-.69.68-1.23 1.36-1.23Zm-30.25-6.01c.68.27.96 1.09.68 1.77-.27.69-.95 1.1-1.63.82-.82-.27-1.09-1.1-.82-1.78.28-.68 1.1-1.09 1.77-.81Zm-7.9-3.83c.75.45.85 1.09.44 1.9-.41.82-1.27.82-1.9.41-.62-.4-.88-1.07-.43-1.81.45-.75 1.15-.95 1.9-.5Zm-6.95-5.2c.55.55.55 1.37 0 1.92-.54.55-1.36.55-1.9 0a1.32 1.32 0 0 1 0-1.91 1.31 1.31 0 0 1 1.9 0Zm84.35 9.02c.74-.3 1.47.07 1.77.82.3.76-.07 1.48-.82 1.78-.75.3-1.46-.05-1.77-.82-.3-.77.07-1.48.82-1.78Zm-4.22 1.5c.81-.2 1.46.26 1.77.96.32.7-.03 1.43-.8 1.69a1.48 1.48 0 0 1-1.82-.84c-.26-.66.03-1.63.85-1.81Zm-26.03 4.52c.68 0 1.36.55 1.36 1.23 0 .82-.54 1.5-1.36 1.5a1.37 1.37 0 0 1 0-2.73Zm-4.5-51.8c-.82 0-1.36-.68-1.36-1.37 0-.82.54-1.36 1.36-1.36.68 0 1.36.54 1.36 1.36 0 .69-.68 1.37-1.36 1.37Zm4.5 0a1.37 1.37 0 0 1 0-2.73c.82 0 1.36.68 1.36 1.5 0 .68-.68 1.23-1.36 1.23Zm30.25 6.01c-.67-.26-1.11-1.05-.82-1.77.29-.73 1.04-1.12 1.77-.82.73.29 1.11 1.03.82 1.77-.3.74-1.11 1.09-1.77.82Zm19.42 15.91c-.27-.74.16-1.4.88-1.7.72-.28 1.54.11 1.77.83.23.71-.12 1.55-.95 1.77-.83.22-1.42-.16-1.7-.9Z" clip-rule="evenodd"/><path fill="url(#f)" d="M661 256.07c0-16.68 26.3-30.07 59-30.07s59 13.4 59 30.07c0 16.54-26.3 29.93-59 29.93s-59-13.4-59-29.93Zm59-24.6c-33.38 0-53.55 13.66-53.55 24.6 0 10.8 20.17 24.46 53.55 24.46 33.38 0 53.55-13.66 53.55-24.46 0-10.94-20.17-24.6-53.55-24.6Zm-3.13-2.74c0-.82-.69-1.36-1.37-1.36-.82 0-1.36.68-1.36 1.5 0 .68.68 1.23 1.36 1.23.82 0 1.37-.68 1.37-1.37Zm-4.5.14a1.48 1.48 0 0 0-1.5-1.23c-.68.14-1.23.68-1.23 1.5 0 .69.69 1.37 1.5 1.23.68 0 1.23-.68 1.23-1.5Zm-4.5.41c-.13-.68-.81-1.23-1.5-1.1-.81 0-1.36.69-1.22 1.51.13.68.82 1.23 1.5 1.1.81 0 1.36-.69 1.22-1.51Zm-4.5.55c-.13-.69-.81-1.23-1.5-1.1-.81.14-1.22.82-1.22 1.64.14.69.82 1.23 1.64 1.1a1.42 1.42 0 0 0 1.09-1.64Zm-4.35.82c-.14-.69-.96-1.23-1.64-1.1-.82.28-1.23.96-1.09 1.64.14.82.96 1.23 1.64 1.1a1.5 1.5 0 0 0 1.09-1.64Zm-4.5.95c-.14-.68-.82-1.09-1.63-.95-.69.27-1.1.95-.96 1.64.27.82.96 1.23 1.64.95.81-.13 1.22-.82.95-1.64Zm-4.23 1.23c-.27-.68-1.08-1.09-1.77-.82-.68.14-1.09.96-.81 1.64.13.82.95 1.1 1.63.96.82-.27 1.1-1.1.95-1.78Zm-4.36 1.5c-.27-.68-.95-1.09-1.63-.81a1.31 1.31 0 0 0-.82 1.77c.27.69 1.1 1.1 1.77.82.68-.27.96-1.09.68-1.77Zm-4.08 1.65c-.41-.69-1.23-.96-1.77-.55-.69.27-.96 1.1-.69 1.78.28.68 1.1.95 1.78.68.68-.4.95-1.23.68-1.91Zm-4.1 2.05c-.26-.69-1.22-.82-1.76-.41-.68.4-.96 1.23-.55 1.77.41.69 1.23.96 1.91.55.68-.4.82-1.23.4-1.91Zm-3.8 2.46c-.41-.69-1.23-.82-1.91-.41-.55.54-.68 1.36-.28 1.91.55.68 1.37.82 1.91.41.68-.55.82-1.37.27-1.91Zm-3.55 2.73a1.31 1.31 0 0 0-1.9 0 1.32 1.32 0 0 0 0 1.91c.54.55 1.36.55 1.9 0 .55-.54.55-1.36 0-1.9Zm-3 3.28c-.68-.4-1.5-.27-1.9.28-.41.68-.28 1.5.27 1.9.68.42 1.5.28 1.9-.27.42-.68.28-1.5-.26-1.9Zm-2.45 3.83c-.68-.28-1.5.13-1.77.82-.27.68.14 1.5.82 1.78.82.13 1.5-.14 1.77-.96.27-.69-.14-1.37-.82-1.64Zm56.41 32.94c0-.69-.68-1.37-1.36-1.37-.82 0-1.36.68-1.36 1.37 0 .82.54 1.36 1.36 1.36.68 0 1.36-.54 1.36-1.36Zm-4.5 0c0-.69-.54-1.37-1.36-1.37-.68 0-1.36.55-1.36 1.23 0 .82.54 1.5 1.36 1.5.68 0 1.37-.54 1.37-1.36Zm-4.5-.14c0-.82-.54-1.5-1.22-1.5-.81 0-1.5.54-1.5 1.23 0 .82.55 1.36 1.23 1.5.82 0 1.36-.55 1.5-1.23Zm-4.49-.41c.14-.82-.4-1.5-1.22-1.5-.68-.14-1.37.4-1.5 1.09-.14.82.4 1.5 1.22 1.64a1.6 1.6 0 0 0 1.5-1.23Zm-4.5-.55c.14-.82-.4-1.5-1.08-1.64-.82-.13-1.5.41-1.5 1.1-.14.82.27 1.5 1.09 1.64.68.13 1.36-.41 1.5-1.1Zm-4.35-.82a1.5 1.5 0 0 0-1.1-1.64c-.67-.13-1.5.28-1.63 1.1-.13.68.27 1.5 1.1 1.64.67.13 1.49-.41 1.63-1.1Zm-4.5-.95c.27-.69-.14-1.5-.95-1.64-.69-.28-1.37.13-1.64.95-.13.69.27 1.37.96 1.64.81.14 1.5-.27 1.63-.95Zm-4.23-1.23c.14-.69-.13-1.5-.95-1.78-.68-.14-1.5.27-1.63.96-.28.68.13 1.5.81 1.64.69.27 1.5-.14 1.77-.82Zm-4.36-1.5c.28-.69 0-1.51-.68-1.78-.68-.28-1.5.13-1.77.82-.27.68 0 1.5.82 1.77.68.28 1.36-.13 1.63-.82Zm-4.08-1.65c.27-.68 0-1.5-.68-1.91-.68-.27-1.5 0-1.77.68-.28.69 0 1.5.68 1.78.54.41 1.36.14 1.77-.55Zm-4.1-2.05c.42-.68.28-1.5-.4-1.91-.68-.41-1.5-.14-1.9.55-.42.54-.14 1.5.54 1.77.54.41 1.5.28 1.77-.4Zm-3.8-2.46c.54-.54.4-1.36-.28-1.91-.54-.41-1.36-.27-1.9.4-.41.56-.28 1.38.27 1.92.68.41 1.5.28 1.9-.4Zm-3.55-2.73c.55-.55.55-1.37 0-1.91a1.31 1.31 0 0 0-1.9 0 1.32 1.32 0 0 0 0 1.9c.54.56 1.36.56 1.9 0Zm-3-3.28c.55-.41.69-1.23.28-1.92-.41-.54-1.23-.68-1.91-.27-.55.41-.68 1.23-.27 1.92.4.54 1.22.68 1.9.27Zm-2.45-3.83c.68-.13 1.1-.96.82-1.64-.27-.82-.95-1.1-1.77-.95-.68.27-1.1 1.09-.82 1.77.27.69 1.09 1.1 1.77.82Zm-1.23-4.24c.82-.13 1.37-.68 1.37-1.5a1.3 1.3 0 0 0-1.5-1.23c-.68 0-1.23.55-1.23 1.37 0 .68.68 1.37 1.37 1.37Zm112.55-2.73c-.68-.13-1.36.55-1.36 1.23 0 .82.55 1.37 1.37 1.5.68 0 1.36-.68 1.36-1.36 0-.82-.55-1.37-1.37-1.37Zm-.4 4.38c-.69-.14-1.5.13-1.64.95-.27.69.14 1.5.82 1.64.68.27 1.5-.13 1.77-.82.14-.68-.14-1.5-.95-1.78Zm-1.64 4.23c-.68-.4-1.5-.27-1.9.27-.55.69-.28 1.5.27 1.92.68.4 1.5.27 1.9-.27.41-.69.28-1.5-.27-1.92Zm-2.73 3.56a1.48 1.48 0 0 0-2.04 0c-.4.54-.4 1.36 0 1.9.55.56 1.5.56 2.04 0 .41-.54.41-1.36 0-1.9Zm-3.4 3.14c-.4-.68-1.23-.82-1.77-.41-.68.55-.82 1.37-.41 1.91.54.69 1.36.82 1.9.41.69-.54.82-1.36.28-1.91Zm-3.68 2.6c-.27-.69-1.23-.96-1.77-.55-.68.4-.95 1.23-.55 1.91.41.69 1.23.82 1.91.41.68-.27.82-1.23.41-1.77Zm-3.81 2.18c-.41-.68-1.23-.95-1.91-.68-.68.4-.96 1.23-.55 1.91.27.69 1.1.96 1.77.55.69-.27.96-1.1.69-1.78Zm-4.1 1.92c-.26-.69-1.08-1.1-1.76-.82-.68.27-1.1 1.09-.82 1.77.27.69 1.09 1.1 1.77.82.68-.27 1.09-1.09.82-1.77Zm-4.22 1.64a1.56 1.56 0 0 0-1.77-.96c-.68.27-1.09 1.1-.81 1.78.27.68.95 1.09 1.77.82.68-.14 1.09-.96.81-1.64Zm-4.22 1.36c-.27-.82-.96-1.23-1.77-.95-.68.13-1.1.95-.96 1.64.28.68.96 1.09 1.64.95.82-.27 1.23-.95 1.09-1.64Zm-4.36 1.1c-.27-.82-.96-1.23-1.64-1.1-.81.14-1.22.96-1.09 1.64.14.69.82 1.23 1.64 1.1.68-.14 1.23-.96 1.09-1.64Zm-4.5.82c-.13-.69-.81-1.23-1.5-1.1-.81.14-1.22.82-1.22 1.64.13.69.82 1.23 1.63 1.1a1.42 1.42 0 0 0 1.1-1.64Zm-4.36.68a1.41 1.41 0 0 0-1.63-1.1c-.68 0-1.23.69-1.1 1.51 0 .68.69 1.23 1.5 1.23.69-.14 1.23-.82 1.23-1.64Zm-4.5.55a1.49 1.49 0 0 0-1.5-1.23 1.3 1.3 0 0 0-1.22 1.5c0 .68.68 1.23 1.5 1.23a1.49 1.49 0 0 0 1.23-1.5Zm-4.49.27c0-.68-.68-1.23-1.36-1.23a1.37 1.37 0 0 0 0 2.73c.82 0 1.36-.68 1.36-1.5Zm-7.22-54.4c0 .69.54 1.37 1.36 1.37.68 0 1.36-.68 1.36-1.37 0-.82-.68-1.36-1.36-1.36-.82 0-1.36.54-1.36 1.36Zm4.5 0c0 .69.54 1.37 1.36 1.37.68 0 1.36-.55 1.36-1.23 0-.82-.54-1.5-1.36-1.5-.68 0-1.37.54-1.37 1.36Zm4.5.14a1.3 1.3 0 0 0 1.22 1.5c.81.14 1.36-.54 1.5-1.23 0-.82-.55-1.36-1.23-1.5-.82 0-1.5.55-1.5 1.23Zm4.49.41c-.14.82.4 1.5 1.09 1.5.81.14 1.5-.4 1.63-1.09 0-.82-.54-1.5-1.22-1.5-.82-.14-1.5.4-1.5 1.09Zm4.36.55c0 .82.4 1.5 1.22 1.64.69.13 1.37-.41 1.5-1.1.14-.82-.4-1.5-1.09-1.64-.81-.13-1.5.41-1.63 1.1Zm4.5.82c-.14.68.27 1.5 1.08 1.64.68.13 1.37-.28 1.64-1.1.13-.68-.41-1.36-1.1-1.64-.8-.13-1.49.41-1.63 1.1Zm4.35.95c-.13.82.28 1.5.96 1.64.82.28 1.5-.13 1.77-.95.13-.69-.27-1.37-1.09-1.64a1.48 1.48 0 0 0-1.64.95Zm4.37 1.23c-.28.69.13 1.5.81 1.78.82.14 1.5-.14 1.77-.96.28-.68-.13-1.5-.81-1.64-.82-.27-1.5.14-1.77.82Zm4.22 1.5c-.27.7.14 1.51.82 1.78.68.28 1.5-.13 1.77-.82.27-.68-.14-1.5-.82-1.77-.68-.28-1.5.13-1.77.82Zm4.22 1.65c-.4.68-.13 1.5.55 1.91.68.27 1.5 0 1.9-.68.28-.69 0-1.5-.68-1.78-.68-.4-1.5-.14-1.77.55Zm3.95 2.05c-.4.68-.13 1.5.55 1.91.54.41 1.5.14 1.77-.55.4-.54.27-1.36-.4-1.77-.69-.41-1.5-.28-1.92.4Zm3.82 2.46c-.4.54-.27 1.36.4 1.91.55.41 1.37.27 1.78-.4.54-.56.4-1.38-.27-1.92-.55-.41-1.37-.28-1.91.4Zm3.54 2.73c-.4.55-.4 1.37 0 1.91.55.55 1.5.55 2.04 0 .41-.54.41-1.36 0-1.9a1.48 1.48 0 0 0-2.04 0Zm3.13 3.28c-.54.41-.81 1.23-.27 1.91.41.55 1.23.69 1.91.28.55-.41.68-1.23.27-1.91-.4-.55-1.22-.69-1.9-.28Zm2.46 3.83c-.68.27-1.1.95-.82 1.64.14.82.95 1.1 1.64.96.81-.28 1.09-1.1.95-1.78-.27-.69-1.09-1.1-1.77-.82Z"/><path fill="url(#g)" d="M661 256.07c0-16.68 26.3-30.07 59-30.07s59 13.4 59 30.07c0 16.54-26.3 29.93-59 29.93s-59-13.4-59-29.93Zm59-24.6c-33.38 0-53.55 13.66-53.55 24.6 0 10.8 20.17 24.46 53.55 24.46 33.38 0 53.55-13.66 53.55-24.46 0-10.94-20.17-24.6-53.55-24.6Zm-3.13-2.74c0-.82-.69-1.36-1.37-1.36-.82 0-1.36.68-1.36 1.5 0 .68.68 1.23 1.36 1.23.82 0 1.37-.68 1.37-1.37Zm-4.5.14a1.48 1.48 0 0 0-1.5-1.23c-.68.14-1.23.68-1.23 1.5 0 .69.69 1.37 1.5 1.23.68 0 1.23-.68 1.23-1.5Zm-4.5.41c-.13-.68-.81-1.23-1.5-1.1-.81 0-1.36.69-1.22 1.51.13.68.82 1.23 1.5 1.1.81 0 1.36-.69 1.22-1.51Zm-4.5.55c-.13-.69-.81-1.23-1.5-1.1-.81.14-1.22.82-1.22 1.64.14.69.82 1.23 1.64 1.1a1.42 1.42 0 0 0 1.09-1.64Zm-4.35.82c-.14-.69-.96-1.23-1.64-1.1-.82.28-1.23.96-1.09 1.64.14.82.96 1.23 1.64 1.1a1.5 1.5 0 0 0 1.09-1.64Zm-4.5.95c-.14-.68-.82-1.09-1.63-.95-.69.27-1.1.95-.96 1.64.27.82.96 1.23 1.64.95.81-.13 1.22-.82.95-1.64Zm-4.23 1.23c-.27-.68-1.08-1.09-1.77-.82-.68.14-1.09.96-.81 1.64.13.82.95 1.1 1.63.96.82-.27 1.1-1.1.95-1.78Zm-4.36 1.5c-.27-.68-.95-1.09-1.63-.81a1.31 1.31 0 0 0-.82 1.77c.27.69 1.1 1.1 1.77.82.68-.27.96-1.09.68-1.77Zm-4.08 1.65c-.41-.69-1.23-.96-1.77-.55-.69.27-.96 1.1-.69 1.78.28.68 1.1.95 1.78.68.68-.4.95-1.23.68-1.91Zm-4.1 2.05c-.26-.69-1.22-.82-1.76-.41-.68.4-.96 1.23-.55 1.77.41.69 1.23.96 1.91.55.68-.4.82-1.23.4-1.91Zm-3.8 2.46c-.41-.69-1.23-.82-1.91-.41-.55.54-.68 1.36-.28 1.91.55.68 1.37.82 1.91.41.68-.55.82-1.37.27-1.91Zm-3.55 2.73a1.31 1.31 0 0 0-1.9 0 1.32 1.32 0 0 0 0 1.91c.54.55 1.36.55 1.9 0 .55-.54.55-1.36 0-1.9Zm-3 3.28c-.68-.4-1.5-.27-1.9.28-.41.68-.28 1.5.27 1.9.68.42 1.5.28 1.9-.27.42-.68.28-1.5-.26-1.9Zm-2.45 3.83c-.68-.28-1.5.13-1.77.82-.27.68.14 1.5.82 1.78.82.13 1.5-.14 1.77-.96.27-.69-.14-1.37-.82-1.64Zm56.41 32.94c0-.69-.68-1.37-1.36-1.37-.82 0-1.36.68-1.36 1.37 0 .82.54 1.36 1.36 1.36.68 0 1.36-.54 1.36-1.36Zm-4.5 0c0-.69-.54-1.37-1.36-1.37-.68 0-1.36.55-1.36 1.23 0 .82.54 1.5 1.36 1.5.68 0 1.37-.54 1.37-1.36Zm-4.5-.14c0-.82-.54-1.5-1.22-1.5-.81 0-1.5.54-1.5 1.23 0 .82.55 1.36 1.23 1.5.82 0 1.36-.55 1.5-1.23Zm-4.49-.41c.14-.82-.4-1.5-1.22-1.5-.68-.14-1.37.4-1.5 1.09-.14.82.4 1.5 1.22 1.64a1.6 1.6 0 0 0 1.5-1.23Zm-4.5-.55c.14-.82-.4-1.5-1.08-1.64-.82-.13-1.5.41-1.5 1.1-.14.82.27 1.5 1.09 1.64.68.13 1.36-.41 1.5-1.1Zm-4.35-.82a1.5 1.5 0 0 0-1.1-1.64c-.67-.13-1.5.28-1.63 1.1-.13.68.27 1.5 1.1 1.64.67.13 1.49-.41 1.63-1.1Zm-4.5-.95c.27-.69-.14-1.5-.95-1.64-.69-.28-1.37.13-1.64.95-.13.69.27 1.37.96 1.64.81.14 1.5-.27 1.63-.95Zm-4.23-1.23c.14-.69-.13-1.5-.95-1.78-.68-.14-1.5.27-1.63.96-.28.68.13 1.5.81 1.64.69.27 1.5-.14 1.77-.82Zm-4.36-1.5c.28-.69 0-1.51-.68-1.78-.68-.28-1.5.13-1.77.82-.27.68 0 1.5.82 1.77.68.28 1.36-.13 1.63-.82Zm-4.08-1.65c.27-.68 0-1.5-.68-1.91-.68-.27-1.5 0-1.77.68-.28.69 0 1.5.68 1.78.54.41 1.36.14 1.77-.55Zm-4.1-2.05c.42-.68.28-1.5-.4-1.91-.68-.41-1.5-.14-1.9.55-.42.54-.14 1.5.54 1.77.54.41 1.5.28 1.77-.4Zm-3.8-2.46c.54-.54.4-1.36-.28-1.91-.54-.41-1.36-.27-1.9.4-.41.56-.28 1.38.27 1.92.68.41 1.5.28 1.9-.4Zm-3.55-2.73c.55-.55.55-1.37 0-1.91a1.31 1.31 0 0 0-1.9 0 1.32 1.32 0 0 0 0 1.9c.54.56 1.36.56 1.9 0Zm-3-3.28c.55-.41.69-1.23.28-1.92-.41-.54-1.23-.68-1.91-.27-.55.41-.68 1.23-.27 1.92.4.54 1.22.68 1.9.27Zm-2.45-3.83c.68-.13 1.1-.96.82-1.64-.27-.82-.95-1.1-1.77-.95-.68.27-1.1 1.09-.82 1.77.27.69 1.09 1.1 1.77.82Zm-1.23-4.24c.82-.13 1.37-.68 1.37-1.5a1.3 1.3 0 0 0-1.5-1.23c-.68 0-1.23.55-1.23 1.37 0 .68.68 1.37 1.37 1.37Zm112.55-2.73c-.68-.13-1.36.55-1.36 1.23 0 .82.55 1.37 1.37 1.5.68 0 1.36-.68 1.36-1.36 0-.82-.55-1.37-1.37-1.37Zm-.4 4.38c-.69-.14-1.5.13-1.64.95-.27.69.14 1.5.82 1.64.68.27 1.5-.13 1.77-.82.14-.68-.14-1.5-.95-1.78Zm-1.64 4.23c-.68-.4-1.5-.27-1.9.27-.55.69-.28 1.5.27 1.92.68.4 1.5.27 1.9-.27.41-.69.28-1.5-.27-1.92Zm-2.73 3.56a1.48 1.48 0 0 0-2.04 0c-.4.54-.4 1.36 0 1.9.55.56 1.5.56 2.04 0 .41-.54.41-1.36 0-1.9Zm-3.4 3.14c-.4-.68-1.23-.82-1.77-.41-.68.55-.82 1.37-.41 1.91.54.69 1.36.82 1.9.41.69-.54.82-1.36.28-1.91Zm-3.68 2.6c-.27-.69-1.23-.96-1.77-.55-.68.4-.95 1.23-.55 1.91.41.69 1.23.82 1.91.41.68-.27.82-1.23.41-1.77Zm-3.81 2.18c-.41-.68-1.23-.95-1.91-.68-.68.4-.96 1.23-.55 1.91.27.69 1.1.96 1.77.55.69-.27.96-1.1.69-1.78Zm-4.1 1.92c-.26-.69-1.08-1.1-1.76-.82-.68.27-1.1 1.09-.82 1.77.27.69 1.09 1.1 1.77.82.68-.27 1.09-1.09.82-1.77Zm-4.22 1.64a1.56 1.56 0 0 0-1.77-.96c-.68.27-1.09 1.1-.81 1.78.27.68.95 1.09 1.77.82.68-.14 1.09-.96.81-1.64Zm-4.22 1.36c-.27-.82-.96-1.23-1.77-.95-.68.13-1.1.95-.96 1.64.28.68.96 1.09 1.64.95.82-.27 1.23-.95 1.09-1.64Zm-4.36 1.1c-.27-.82-.96-1.23-1.64-1.1-.81.14-1.22.96-1.09 1.64.14.69.82 1.23 1.64 1.1.68-.14 1.23-.96 1.09-1.64Zm-4.5.82c-.13-.69-.81-1.23-1.5-1.1-.81.14-1.22.82-1.22 1.64.13.69.82 1.23 1.63 1.1a1.42 1.42 0 0 0 1.1-1.64Zm-4.36.68a1.41 1.41 0 0 0-1.63-1.1c-.68 0-1.23.69-1.1 1.51 0 .68.69 1.23 1.5 1.23.69-.14 1.23-.82 1.23-1.64Zm-4.5.55a1.49 1.49 0 0 0-1.5-1.23 1.3 1.3 0 0 0-1.22 1.5c0 .68.68 1.23 1.5 1.23a1.49 1.49 0 0 0 1.23-1.5Zm-4.49.27c0-.68-.68-1.23-1.36-1.23a1.37 1.37 0 0 0 0 2.73c.82 0 1.36-.68 1.36-1.5Zm-7.22-54.4c0 .69.54 1.37 1.36 1.37.68 0 1.36-.68 1.36-1.37 0-.82-.68-1.36-1.36-1.36-.82 0-1.36.54-1.36 1.36Zm4.5 0c0 .69.54 1.37 1.36 1.37.68 0 1.36-.55 1.36-1.23 0-.82-.54-1.5-1.36-1.5-.68 0-1.37.54-1.37 1.36Zm4.5.14a1.3 1.3 0 0 0 1.22 1.5c.81.14 1.36-.54 1.5-1.23 0-.82-.55-1.36-1.23-1.5-.82 0-1.5.55-1.5 1.23Zm4.49.41c-.14.82.4 1.5 1.09 1.5.81.14 1.5-.4 1.63-1.09 0-.82-.54-1.5-1.22-1.5-.82-.14-1.5.4-1.5 1.09Zm4.36.55c0 .82.4 1.5 1.22 1.64.69.13 1.37-.41 1.5-1.1.14-.82-.4-1.5-1.09-1.64-.81-.13-1.5.41-1.63 1.1Zm4.5.82c-.14.68.27 1.5 1.08 1.64.68.13 1.37-.28 1.64-1.1.13-.68-.41-1.36-1.1-1.64-.8-.13-1.49.41-1.63 1.1Zm4.35.95c-.13.82.28 1.5.96 1.64.82.28 1.5-.13 1.77-.95.13-.69-.27-1.37-1.09-1.64a1.48 1.48 0 0 0-1.64.95Zm4.37 1.23c-.28.69.13 1.5.81 1.78.82.14 1.5-.14 1.77-.96.28-.68-.13-1.5-.81-1.64-.82-.27-1.5.14-1.77.82Zm4.22 1.5c-.27.7.14 1.51.82 1.78.68.28 1.5-.13 1.77-.82.27-.68-.14-1.5-.82-1.77-.68-.28-1.5.13-1.77.82Zm4.22 1.65c-.4.68-.13 1.5.55 1.91.68.27 1.5 0 1.9-.68.28-.69 0-1.5-.68-1.78-.68-.4-1.5-.14-1.77.55Zm3.95 2.05c-.4.68-.13 1.5.55 1.91.54.41 1.5.14 1.77-.55.4-.54.27-1.36-.4-1.77-.69-.41-1.5-.28-1.92.4Zm3.82 2.46c-.4.54-.27 1.36.4 1.91.55.41 1.37.27 1.78-.4.54-.56.4-1.38-.27-1.92-.55-.41-1.37-.28-1.91.4Zm3.54 2.73c-.4.55-.4 1.37 0 1.91.55.55 1.5.55 2.04 0 .41-.54.41-1.36 0-1.9a1.48 1.48 0 0 0-2.04 0Zm3.13 3.28c-.54.41-.81 1.23-.27 1.91.41.55 1.23.69 1.91.28.55-.41.68-1.23.27-1.91-.4-.55-1.22-.69-1.9-.28Zm2.46 3.83c-.68.27-1.1.95-.82 1.64.14.82.95 1.1 1.64.96.81-.28 1.09-1.1.95-1.78-.27-.69-1.09-1.1-1.77-.82Z"/><path fill="url(#h)" d="M661 256.07c0-16.68 26.3-30.07 59-30.07s59 13.4 59 30.07c0 16.54-26.3 29.93-59 29.93s-59-13.4-59-29.93Zm59-24.6c-33.38 0-53.55 13.66-53.55 24.6 0 10.8 20.17 24.46 53.55 24.46 33.38 0 53.55-13.66 53.55-24.46 0-10.94-20.17-24.6-53.55-24.6Zm-3.13-2.74c0-.82-.69-1.36-1.37-1.36-.82 0-1.36.68-1.36 1.5 0 .68.68 1.23 1.36 1.23.82 0 1.37-.68 1.37-1.37Zm-4.5.14a1.48 1.48 0 0 0-1.5-1.23c-.68.14-1.23.68-1.23 1.5 0 .69.69 1.37 1.5 1.23.68 0 1.23-.68 1.23-1.5Zm-4.5.41c-.13-.68-.81-1.23-1.5-1.1-.81 0-1.36.69-1.22 1.51.13.68.82 1.23 1.5 1.1.81 0 1.36-.69 1.22-1.51Zm-4.5.55c-.13-.69-.81-1.23-1.5-1.1-.81.14-1.22.82-1.22 1.64.14.69.82 1.23 1.64 1.1a1.42 1.42 0 0 0 1.09-1.64Zm-4.35.82c-.14-.69-.96-1.23-1.64-1.1-.82.28-1.23.96-1.09 1.64.14.82.96 1.23 1.64 1.1a1.5 1.5 0 0 0 1.09-1.64Zm-4.5.95c-.14-.68-.82-1.09-1.63-.95-.69.27-1.1.95-.96 1.64.27.82.96 1.23 1.64.95.81-.13 1.22-.82.95-1.64Zm-4.23 1.23c-.27-.68-1.08-1.09-1.77-.82-.68.14-1.09.96-.81 1.64.13.82.95 1.1 1.63.96.82-.27 1.1-1.1.95-1.78Zm-4.36 1.5c-.27-.68-.95-1.09-1.63-.81a1.31 1.31 0 0 0-.82 1.77c.27.69 1.1 1.1 1.77.82.68-.27.96-1.09.68-1.77Zm-4.08 1.65c-.41-.69-1.23-.96-1.77-.55-.69.27-.96 1.1-.69 1.78.28.68 1.1.95 1.78.68.68-.4.95-1.23.68-1.91Zm-4.1 2.05c-.26-.69-1.22-.82-1.76-.41-.68.4-.96 1.23-.55 1.77.41.69 1.23.96 1.91.55.68-.4.82-1.23.4-1.91Zm-3.8 2.46c-.41-.69-1.23-.82-1.91-.41-.55.54-.68 1.36-.28 1.91.55.68 1.37.82 1.91.41.68-.55.82-1.37.27-1.91Zm-3.55 2.73a1.31 1.31 0 0 0-1.9 0 1.32 1.32 0 0 0 0 1.91c.54.55 1.36.55 1.9 0 .55-.54.55-1.36 0-1.9Zm-3 3.28c-.68-.4-1.5-.27-1.9.28-.41.68-.28 1.5.27 1.9.68.42 1.5.28 1.9-.27.42-.68.28-1.5-.26-1.9Zm-2.45 3.83c-.68-.28-1.5.13-1.77.82-.27.68.14 1.5.82 1.78.82.13 1.5-.14 1.77-.96.27-.69-.14-1.37-.82-1.64Zm56.41 32.94c0-.69-.68-1.37-1.36-1.37-.82 0-1.36.68-1.36 1.37 0 .82.54 1.36 1.36 1.36.68 0 1.36-.54 1.36-1.36Zm-4.5 0c0-.69-.54-1.37-1.36-1.37-.68 0-1.36.55-1.36 1.23 0 .82.54 1.5 1.36 1.5.68 0 1.37-.54 1.37-1.36Zm-4.5-.14c0-.82-.54-1.5-1.22-1.5-.81 0-1.5.54-1.5 1.23 0 .82.55 1.36 1.23 1.5.82 0 1.36-.55 1.5-1.23Zm-4.49-.41c.14-.82-.4-1.5-1.22-1.5-.68-.14-1.37.4-1.5 1.09-.14.82.4 1.5 1.22 1.64a1.6 1.6 0 0 0 1.5-1.23Zm-4.5-.55c.14-.82-.4-1.5-1.08-1.64-.82-.13-1.5.41-1.5 1.1-.14.82.27 1.5 1.09 1.64.68.13 1.36-.41 1.5-1.1Zm-4.35-.82a1.5 1.5 0 0 0-1.1-1.64c-.67-.13-1.5.28-1.63 1.1-.13.68.27 1.5 1.1 1.64.67.13 1.49-.41 1.63-1.1Zm-4.5-.95c.27-.69-.14-1.5-.95-1.64-.69-.28-1.37.13-1.64.95-.13.69.27 1.37.96 1.64.81.14 1.5-.27 1.63-.95Zm-4.23-1.23c.14-.69-.13-1.5-.95-1.78-.68-.14-1.5.27-1.63.96-.28.68.13 1.5.81 1.64.69.27 1.5-.14 1.77-.82Zm-4.36-1.5c.28-.69 0-1.51-.68-1.78-.68-.28-1.5.13-1.77.82-.27.68 0 1.5.82 1.77.68.28 1.36-.13 1.63-.82Zm-4.08-1.65c.27-.68 0-1.5-.68-1.91-.68-.27-1.5 0-1.77.68-.28.69 0 1.5.68 1.78.54.41 1.36.14 1.77-.55Zm-4.1-2.05c.42-.68.28-1.5-.4-1.91-.68-.41-1.5-.14-1.9.55-.42.54-.14 1.5.54 1.77.54.41 1.5.28 1.77-.4Zm-3.8-2.46c.54-.54.4-1.36-.28-1.91-.54-.41-1.36-.27-1.9.4-.41.56-.28 1.38.27 1.92.68.41 1.5.28 1.9-.4Zm-3.55-2.73c.55-.55.55-1.37 0-1.91a1.31 1.31 0 0 0-1.9 0 1.32 1.32 0 0 0 0 1.9c.54.56 1.36.56 1.9 0Zm-3-3.28c.55-.41.69-1.23.28-1.92-.41-.54-1.23-.68-1.91-.27-.55.41-.68 1.23-.27 1.92.4.54 1.22.68 1.9.27Zm-2.45-3.83c.68-.13 1.1-.96.82-1.64-.27-.82-.95-1.1-1.77-.95-.68.27-1.1 1.09-.82 1.77.27.69 1.09 1.1 1.77.82Zm-1.23-4.24c.82-.13 1.37-.68 1.37-1.5a1.3 1.3 0 0 0-1.5-1.23c-.68 0-1.23.55-1.23 1.37 0 .68.68 1.37 1.37 1.37Zm112.55-2.73c-.68-.13-1.36.55-1.36 1.23 0 .82.55 1.37 1.37 1.5.68 0 1.36-.68 1.36-1.36 0-.82-.55-1.37-1.37-1.37Zm-.4 4.38c-.69-.14-1.5.13-1.64.95-.27.69.14 1.5.82 1.64.68.27 1.5-.13 1.77-.82.14-.68-.14-1.5-.95-1.78Zm-1.64 4.23c-.68-.4-1.5-.27-1.9.27-.55.69-.28 1.5.27 1.92.68.4 1.5.27 1.9-.27.41-.69.28-1.5-.27-1.92Zm-2.73 3.56a1.48 1.48 0 0 0-2.04 0c-.4.54-.4 1.36 0 1.9.55.56 1.5.56 2.04 0 .41-.54.41-1.36 0-1.9Zm-3.4 3.14c-.4-.68-1.23-.82-1.77-.41-.68.55-.82 1.37-.41 1.91.54.69 1.36.82 1.9.41.69-.54.82-1.36.28-1.91Zm-3.68 2.6c-.27-.69-1.23-.96-1.77-.55-.68.4-.95 1.23-.55 1.91.41.69 1.23.82 1.91.41.68-.27.82-1.23.41-1.77Zm-3.81 2.18c-.41-.68-1.23-.95-1.91-.68-.68.4-.96 1.23-.55 1.91.27.69 1.1.96 1.77.55.69-.27.96-1.1.69-1.78Zm-4.1 1.92c-.26-.69-1.08-1.1-1.76-.82-.68.27-1.1 1.09-.82 1.77.27.69 1.09 1.1 1.77.82.68-.27 1.09-1.09.82-1.77Zm-4.22 1.64a1.56 1.56 0 0 0-1.77-.96c-.68.27-1.09 1.1-.81 1.78.27.68.95 1.09 1.77.82.68-.14 1.09-.96.81-1.64Zm-4.22 1.36c-.27-.82-.96-1.23-1.77-.95-.68.13-1.1.95-.96 1.64.28.68.96 1.09 1.64.95.82-.27 1.23-.95 1.09-1.64Zm-4.36 1.1c-.27-.82-.96-1.23-1.64-1.1-.81.14-1.22.96-1.09 1.64.14.69.82 1.23 1.64 1.1.68-.14 1.23-.96 1.09-1.64Zm-4.5.82c-.13-.69-.81-1.23-1.5-1.1-.81.14-1.22.82-1.22 1.64.13.69.82 1.23 1.63 1.1a1.42 1.42 0 0 0 1.1-1.64Zm-4.36.68a1.41 1.41 0 0 0-1.63-1.1c-.68 0-1.23.69-1.1 1.51 0 .68.69 1.23 1.5 1.23.69-.14 1.23-.82 1.23-1.64Zm-4.5.55a1.49 1.49 0 0 0-1.5-1.23 1.3 1.3 0 0 0-1.22 1.5c0 .68.68 1.23 1.5 1.23a1.49 1.49 0 0 0 1.23-1.5Zm-4.49.27c0-.68-.68-1.23-1.36-1.23a1.37 1.37 0 0 0 0 2.73c.82 0 1.36-.68 1.36-1.5Zm-7.22-54.4c0 .69.54 1.37 1.36 1.37.68 0 1.36-.68 1.36-1.37 0-.82-.68-1.36-1.36-1.36-.82 0-1.36.54-1.36 1.36Zm4.5 0c0 .69.54 1.37 1.36 1.37.68 0 1.36-.55 1.36-1.23 0-.82-.54-1.5-1.36-1.5-.68 0-1.37.54-1.37 1.36Zm4.5.14a1.3 1.3 0 0 0 1.22 1.5c.81.14 1.36-.54 1.5-1.23 0-.82-.55-1.36-1.23-1.5-.82 0-1.5.55-1.5 1.23Zm4.49.41c-.14.82.4 1.5 1.09 1.5.81.14 1.5-.4 1.63-1.09 0-.82-.54-1.5-1.22-1.5-.82-.14-1.5.4-1.5 1.09Zm4.36.55c0 .82.4 1.5 1.22 1.64.69.13 1.37-.41 1.5-1.1.14-.82-.4-1.5-1.09-1.64-.81-.13-1.5.41-1.63 1.1Zm4.5.82c-.14.68.27 1.5 1.08 1.64.68.13 1.37-.28 1.64-1.1.13-.68-.41-1.36-1.1-1.64-.8-.13-1.49.41-1.63 1.1Zm4.35.95c-.13.82.28 1.5.96 1.64.82.28 1.5-.13 1.77-.95.13-.69-.27-1.37-1.09-1.64a1.48 1.48 0 0 0-1.64.95Zm4.37 1.23c-.28.69.13 1.5.81 1.78.82.14 1.5-.14 1.77-.96.28-.68-.13-1.5-.81-1.64-.82-.27-1.5.14-1.77.82Zm4.22 1.5c-.27.7.14 1.51.82 1.78.68.28 1.5-.13 1.77-.82.27-.68-.14-1.5-.82-1.77-.68-.28-1.5.13-1.77.82Zm4.22 1.65c-.4.68-.13 1.5.55 1.91.68.27 1.5 0 1.9-.68.28-.69 0-1.5-.68-1.78-.68-.4-1.5-.14-1.77.55Zm3.95 2.05c-.4.68-.13 1.5.55 1.91.54.41 1.5.14 1.77-.55.4-.54.27-1.36-.4-1.77-.69-.41-1.5-.28-1.92.4Zm3.82 2.46c-.4.54-.27 1.36.4 1.91.55.41 1.37.27 1.78-.4.54-.56.4-1.38-.27-1.92-.55-.41-1.37-.28-1.91.4Zm3.54 2.73c-.4.55-.4 1.37 0 1.91.55.55 1.5.55 2.04 0 .41-.54.41-1.36 0-1.9a1.48 1.48 0 0 0-2.04 0Zm3.13 3.28c-.54.41-.81 1.23-.27 1.91.41.55 1.23.69 1.91.28.55-.41.68-1.23.27-1.91-.4-.55-1.22-.69-1.9-.28Zm2.46 3.83c-.68.27-1.1.95-.82 1.64.14.82.95 1.1 1.64.96.81-.28 1.09-1.1.95-1.78-.27-.69-1.09-1.1-1.77-.82Z"/><path fill="url(#i)" fill-rule="evenodd" d="M678.14 276.92c10.56 5.44 25.27 8.86 41.86 8.86 16.52 0 31.23-3.42 41.81-8.86 10.6-5.44 16.98-12.87 16.98-20.85 0-8.05-6.39-15.51-16.98-20.97-10.58-5.46-25.3-8.88-41.81-8.88-16.59 0-31.3 3.42-41.86 8.88-10.58 5.46-16.93 12.92-16.93 20.97 0 7.98 6.35 15.4 16.93 20.85ZM661 256.07c0 16.22 25.78 29.93 59 29.93 33.08 0 59-13.7 59-29.93 0-16.36-25.92-30.07-59-30.07-33.22 0-59 13.7-59 30.07Z" clip-rule="evenodd"/><path fill="url(#j)" fill-rule="evenodd" d="M682.77 273.24c9.92 4.49 23.33 7.31 37.23 7.31 13.9 0 27.3-2.82 37.23-7.31 4.96-2.25 9.04-4.9 11.88-7.83 2.83-2.92 4.41-6.08 4.41-9.35 0-3.3-1.59-6.5-4.44-9.43-2.86-2.93-6.96-5.6-11.93-7.85-9.95-4.5-23.36-7.33-37.15-7.33-13.8 0-27.2 2.85-37.14 7.37-4.98 2.26-9.08 4.93-11.94 7.86-2.85 2.93-4.44 6.1-4.44 9.38 0 3.27 1.58 6.43 4.41 9.35 2.84 2.92 6.92 5.58 11.88 7.83Zm-16.5-17.18c0 13.4 25.88 24.71 53.73 24.71 27.86 0 53.74-11.32 53.74-24.71 0-13.52-26.1-24.83-53.74-24.83-27.63 0-53.74 11.43-53.74 24.83Z" clip-rule="evenodd"/><path fill="url(#k)" fill-rule="evenodd" d="M682.92 273.04c9.88 4.47 23.23 7.28 37.08 7.28 13.85 0 27.2-2.8 37.08-7.28 4.94-2.23 9-4.88 11.83-7.78 2.82-2.91 4.4-6.06 4.4-9.32 0-3.28-1.6-6.45-4.43-9.38-2.85-2.92-6.93-5.58-11.88-7.82-9.91-4.48-23.26-7.3-37-7.3-13.74 0-27.09 2.85-37 7.34-4.95 2.25-9.03 4.91-11.88 7.83-2.84 2.92-4.42 6.08-4.42 9.33 0 3.26 1.57 6.41 4.4 9.32 2.82 2.9 6.88 5.55 11.82 7.78Zm-16.44-17.1c0 13.34 25.78 24.6 53.52 24.6 27.74 0 53.52-11.26 53.52-24.6 0-13.45-26-24.71-53.52-24.71-27.52 0-53.52 11.38-53.52 24.71Z" clip-rule="evenodd"/><path fill="#181715" d="m726.16 254.75-1.36 5.6-2.76-.08 2.55-8.9c.13-.27.89.37 1.03.78l.54 2.6Zm1.9 9.56h-4.08l-.68 3.15h-3.82l-1.66-1.69.74-.8 2.4-.34 1.08-2.47 5.37-.26.66 2.41Zm1.24 3.15-1.67-1.69.62-.8 2.53.31-4.33-16.48.77-.52 1.67 1.68 4.22 17.5h-3.82ZM736.52 253.1h-2.73l-1.66-1.68.45-.35 3.91-.04.03 2.08Zm.82 14.5-1.67-1.7.54-.7 2.21.13.44-14.14 2.53-.38.86-1.92.64-.61 1.67 1.68v3.15h-3.68v14.49h-3.54ZM749.6 253.1h-2.73l-1.66-1.68.41-.44 3.98-.15v2.28Zm.82 14.5-1.67-1.7.58-.6 2.75.23-.17-14.53 2.75-.23.54-1.81.77-.68 1.67 1.68v3.15h-3.54v14.49h-3.68ZM760.36 267.46l-1.66-1.69.78-.56h2.3l.02-16.87.44-.06 1.66 1.68v17.5h-3.54ZM693.22 248.93l.48-.65 1.67 1.68v12.58c0 .27 0 .68.13.82-1.09-.14-2.34-1.35-2.34-2.45l.06-11.98Zm3.92 18.94a5.6 5.6 0 0 1-3.68-1.37 18.8 18.8 0 0 1-2.4-2.5c-.16-.33.36.04.22-.23l.13-.14c.82 1.64 2.05 2.1 3.96 2.1a5.13 5.13 0 0 0 5.04-5.06l-.71-11.86 1.09-.53 1.66 1.68v12.58c0 3-2.45 5.33-5.31 5.33ZM714.23 257.3l1.14-.68 1.66 1.68v4.24c0 3.28-1.77 5.33-5.45 5.33a5.53 5.53 0 0 1-3.54-1.37 19.11 19.11 0 0 1-2.41-2.52c0-.14.37.06.1-.35h.27c.81 1.5 2.13 1.57 4.03 1.57 3.41 0 4.82-1.07 4.82-4.08l-.62-3.81Zm-1.15 3.74h-.95l-1.67-1.7.55-.6 2.07.65v1.65Zm-.13-7.9c-.38-.1-.78-.3-1.23-.3-1.1 0-1.9.95-1.9 2.04v7.66c0 .4.13.82.4 1.1-1.23-.28-2.6-1.24-2.6-2.33l.17-8.06a2.4 2.4 0 0 1 2.18-2.46c1.22-.14 2.84 1.13 2.98 2.36Zm4.08 2.02h-3.13l-1.66-1.69.62-.22h2.32c0-2.05-.46-3.29-2.1-4.1l.27-.28c.28.14.28.1.55.24.47.4 1.09 1 1.63 1.54.41.54.69.82.96 1.36.4.96.54 1.78.54 2.87v.28ZM684.15 248.9c1.05.51 2.37 2.1 3.04 3.11.55.82.82 1.78.82 2.46 0 1.23-.68 2.87-1.63 3.7l.67.68a4.73 4.73 0 0 1 1.37 3.55c0 2.32-1.77 5.06-4.5 5.06h-6.27l-1.66-1.69.82-.67h5.69c2.45 0 3.4-1.82 3.4-4 0-2.06-.07-3.21-1.16-3.76l-.96-.52.49-.45c.95-.55 1.24-2.16 1.24-3.25 0-1.37-.41-2.97-1.45-3.7l.09-.53Zm-2.95 3.8v3.28h-1.96l.12-5.19h1.96c1.08 0 1.92.95 2.2 2.18-.28-.28-.55-.28-.96-.28h-1.36Zm0 6.97v4.23h-2.26l.1-6.38 2.9.3c.82 0 1.57 1.03 1.84 2.12-.13-.27-.4-.27-.68-.27h-1.9Z"/><path fill="url(#l)" d="M679.53 257.98v5.06h1.9c1.1 0 1.78-1.23 1.78-2.6 0-1.36-.95-2.46-1.77-2.46h-1.9Zm0-6.97v4.1h1.36c1.23 0 1.78-.68 1.78-2.05 0-1.37-.82-2.05-1.78-2.05h-1.36Zm5.04 5.6c1.23.55 2.18 1.92 2.18 4.1 0 2.33-1.77 5.06-4.5 5.06H676v-17.5h5.86c3.13 0 4.5 2.74 4.5 4.66 0 1.09-.69 3-1.78 3.69Z"/><path fill="url(#m)" d="M697.25 260.85v-12.57h3.54v12.57c0 3-2.45 5.33-5.32 5.33-3 0-5.45-2.32-5.45-5.33v-12.57h3.68v12.57c0 .96.68 1.78 1.77 1.78 1.1 0 1.77-.82 1.77-1.78Z"/><path fill="url(#n)" d="M712.23 260.85v-1.5h-1.77v-2.74h4.9v4.24c0 3.28-1.63 5.33-5.3 5.33-3 0-5.46-2.32-5.46-5.33v-7.65c0-3.01 2.46-5.33 5.45-5.33 3.68 0 5.32 2.05 5.32 5.33v.27h-3.14v-.27c0-1.23-.95-2.19-2.18-2.05-1.09 0-1.9.95-1.9 2.05v7.65c0 .96.81 1.91 1.9 2.05 1.23 0 2.18-.82 2.18-2.05Z"/><path fill="url(#o)" d="m726.4 259.49-1.63-7.8-1.77 7.8h3.4Zm-8.58 6.28 4.5-17.5h4.9l4.09 17.5h-3.68l-.68-3.14h-4.63l-.69 3.14h-3.81Z"/><path fill="url(#p)" d="M739.21 265.9h-3.54v-14.48h-3.54v-3.14h10.76v3.14h-3.68v14.49Z"/><path fill="url(#q)" d="M752.43 265.9h-3.68v-14.48h-3.54v-3.14h10.76v3.14h-3.54v14.49Z"/><path fill="url(#r)" d="M758.7 248.28h3.54v17.5h-3.54v-17.5Z"/><path fill="#1C151D" d="M723.95 243.36c.82 0 1.37-.69 1.37-1.5 0-.69-.55-1.37-1.37-1.37h-2.86v2.87h2.86Zm0-4.92c.68 0 1.23-.55 1.23-1.23 0-.69-.55-1.23-1.23-1.23h-2.86v2.46h2.86Zm-6.95 2.05v.68h-1.77v-3.42H717v.69h1.77v-2.46h-4.22v.82h-1.77v-2.6h11.17a3.18 3.18 0 0 1 3.14 3.14c0 .82-.28 1.5-.82 2.05.54.69.95 1.5.95 2.33 0 1.91-1.5 3.41-3.27 3.41h-11.17v-2.73h1.77v.96h4.22v-2.87H717Z"/><path fill="url(#s)" fill-rule="evenodd" d="M720.77 240.16h3.18c1 0 1.68.84 1.68 1.7 0 .96-.65 1.83-1.68 1.83h-3.18v-3.53Zm0-4.51h3.18c.85 0 1.55.68 1.55 1.56 0 .87-.7 1.56-1.55 1.56h-3.18v-3.12Zm-3.77 2.79v-.69h-1.77v3.42H717v-.68h1.77v2.87h-4.22v-.96h-1.77v2.73h11.17c1.77 0 3.27-1.5 3.27-3.41 0-.82-.4-1.64-.95-2.33.54-.54.82-1.23.82-2.05 0-1.77-1.5-3.14-3.14-3.14h-11.17v2.6h1.77v-.82h4.22v2.46H717Zm-2.77-1.97v-.82h4.86v3.12h-2.4v-.69h-1.14v2.76h1.13v-.68h2.41v3.53h-4.86v-.96h-1.13v2.07h10.85c1.6 0 2.95-1.35 2.95-3.08 0-.71-.36-1.46-.88-2.12l-.18-.23.2-.21c.49-.48.73-1.08.73-1.82a2.85 2.85 0 0 0-2.82-2.8H713.1v1.93h1.13Zm6.86 6.89v-2.87h2.86c.82 0 1.37.68 1.37 1.36 0 .82-.55 1.5-1.37 1.5h-2.86Zm2.86-4.92c.68 0 1.23-.55 1.23-1.23 0-.69-.55-1.23-1.23-1.23h-2.86v2.46h2.86Z" clip-rule="evenodd"/><path fill="#fff" fill-rule="evenodd" d="M574.17 406h31.07c11.83 0 19.11-4.93 19.11-14.04 0-6.32-4.07-10.44-7.48-11.9 2.6-1.67 5.61-3.93 5.61-10.04 0-9.18-7.62-12.37-19.04-12.37h-29.27v48.34Zm9.49-7.86v-13.56h20.64c6.42 0 10.56 1.6 10.56 6.65 0 5.72-4.54 6.91-10.56 6.91h-20.64Zm0-21.4v-11.25h20.38c6.21 0 8.95 1.53 8.95 5.66 0 4.05-2.74 5.58-8.95 5.58h-20.38ZM628.34 406h10.1l5.14-11.11h28l5.08 11.1h10.02l-23.59-48.34h-10.83l-23.92 48.34Zm19.18-19.23 10.16-21.54 10.16 21.54h-20.32Z" clip-rule="evenodd"/><path fill="#fff" d="M692.94 406h9.5v-15.04l10.35-8.57 19.98 23.6h12.43l-25.53-29.2 23.2-19.14h-13.5l-26.94 22.54v-22.54h-9.49v48.34Z"/><path fill="#fff" fill-rule="evenodd" d="M747.12 406h10.09l5.14-11.11h28l5.08 11.1h10.03l-23.6-48.34h-10.82l-23.92 48.34Zm19.18-19.23 10.15-21.54 10.16 21.54H766.3ZM811.72 406h23.79c16.04 0 27.26-7.99 27.26-24.48 0-17.42-12.3-23.87-27.66-23.87h-23.4v48.34Zm9.49-8.12v-32.12h9.62c15.9 0 22.45 4.06 22.45 15.9 0 11.3-6.28 16.22-22.45 16.22h-9.62ZM867.96 382.19c0 10.04 5.95 25 28.94 25 22.99 0 28.94-14.96 28.94-25 0-13.24-7.56-25.74-28.94-25.74-21.38 0-28.94 12.5-28.94 25.74Zm28.94 16.89c-9.09 0-19.45-3.73-19.45-17.43 0-11.63 8.36-17.09 19.45-17.09 11.1 0 19.45 5.46 19.45 17.1 0 13.7-10.36 17.42-19.45 17.42ZM934.21 406h9.5v-19.03h15.03l14.1 19.02h11.7l-14.9-19.68c7.14-.4 13.56-5.32 13.56-14.23 0-11.84-8.29-14.43-19.78-14.43h-29.2v48.34Zm9.5-26.87v-13.64H962c7.75 0 11.7 1.13 11.7 6.79 0 5.72-3.95 6.85-11.7 6.85h-18.3ZM990.46 382.19c0 10.04 5.95 25 28.94 25 22.98 0 28.93-14.96 28.93-25 0-13.24-7.55-25.74-28.93-25.74-21.39 0-28.94 12.5-28.94 25.74Zm28.94 16.89c-9.09 0-19.45-3.73-19.45-17.43 0-11.63 8.35-17.09 19.45-17.09 11.09 0 19.44 5.46 19.44 17.1 0 13.7-10.36 17.42-19.44 17.42ZM1121.29 403.17h1.69l-2.16-3.52c1.11-.11 2.03-.72 2.03-2.17 0-1.7-1.08-2.35-3.05-2.35h-3.08v8.04h1.5v-3.46h1.04l2.03 3.46Zm-3.07-4.6v-2.3h1.43c.8 0 1.69.16 1.69 1.09 0 1.09-.76 1.2-1.71 1.2h-1.41Z" clip-rule="evenodd"/><path fill="#fff" fill-rule="evenodd" d="M1112.09 399.01c0 4.1 3.34 7.42 7.46 7.42a7.44 7.44 0 0 0 7.46-7.42c0-4.08-3.34-7.4-7.46-7.4a7.44 7.44 0 0 0-7.46 7.4Zm1.74 0c0-3.2 2.61-5.79 5.72-5.79a5.8 5.8 0 0 1 0 11.6 5.8 5.8 0 0 1-5.72-5.8Z" clip-rule="evenodd"/><path fill="#fff" d="m1111.8 357.7-30.07 48.3h-2.45l-30.15-48.3h10.52l20.84 33.28 20.82-33.29h10.49ZM319.52 406h44.7v-8.39h-35.21v-39.96h-9.5v48.34ZM371.53 406h44.37v-8.12h-34.88V385.1h29.34V377h-29.34v-11.24h34.08v-8.11h-43.57v48.34Z"/><path fill="#fff" fill-rule="evenodd" d="M420.4 382.19c0 10.04 5.95 25 28.94 25 22.99 0 28.94-14.96 28.94-25 0-13.24-7.56-25.74-28.94-25.74-21.38 0-28.94 12.5-28.94 25.74Zm28.94 16.89c-9.09 0-19.45-3.73-19.45-17.43 0-11.63 8.36-17.09 19.45-17.09 11.1 0 19.45 5.46 19.45 17.1 0 13.7-10.36 17.42-19.45 17.42Z" clip-rule="evenodd"/><path fill="#fff" d="M486.65 406h9.09v-36.18l33.81 36.17h8.7v-48.34h-9.1v34.9l-32.47-34.9h-10.03v48.34Z"/></g><defs><linearGradient id="b" x1="720" x2="720" y1="659" y2="891" gradientUnits="userSpaceOnUse"><stop stop-color="#0D0D0F" stop-opacity="0"/><stop offset="1" stop-color="#0D0D0F"/></linearGradient><linearGradient id="c" x1="778.32" x2="778.32" y1="226.68" y2="285.32" gradientUnits="userSpaceOnUse"><stop stop-color="#F70021"/><stop offset=".33" stop-color="#E40321"/><stop offset=".64" stop-color="#B6171C"/><stop offset=".98" stop-color="#AF191B"/></linearGradient><linearGradient id="d" x1="779" x2="779" y1="226" y2="286" gradientUnits="userSpaceOnUse"><stop stop-color="#AC0913"/><stop offset="1" stop-color="#6C0000"/></linearGradient><linearGradient id="e" x1="778.56" x2="778.56" y1="226.45" y2="285.54" gradientUnits="userSpaceOnUse"><stop offset=".07" stop-color="#CF0004"/><stop offset=".92" stop-color="#9D0101"/></linearGradient><linearGradient id="f" x1="779" x2="779" y1="226" y2="286" gradientUnits="userSpaceOnUse"><stop offset=".14" stop-color="#EDEBEC"/><stop offset=".74" stop-color="#69707E"/></linearGradient><linearGradient id="g" x1="621.13" x2="657.47" y1="263.5" y2="225.13" gradientUnits="userSpaceOnUse"><stop offset=".35" stop-color="#434F53"/><stop offset="1" stop-color="#47524B" stop-opacity="0"/></linearGradient><linearGradient id="h" x1="744.92" x2="708.64" y1="327.71" y2="294.34" gradientUnits="userSpaceOnUse"><stop stop-color="#434F53"/><stop offset="1" stop-color="#434F53" stop-opacity="0"/></linearGradient><linearGradient id="i" x1="779" x2="779" y1="226" y2="286" gradientUnits="userSpaceOnUse"><stop stop-color="#fff"/><stop offset="1" stop-color="#AEB1BA"/></linearGradient><linearGradient id="j" x1="773.74" x2="773.74" y1="231.23" y2="280.77" gradientUnits="userSpaceOnUse"><stop stop-color="#E3EFE5"/><stop offset=".4" stop-color="#A0ADAD"/></linearGradient><linearGradient id="k" x1="773.52" x2="773.52" y1="231.23" y2="280.54" gradientUnits="userSpaceOnUse"><stop stop-color="#880201"/><stop offset=".72" stop-color="#970506"/></linearGradient><linearGradient id="l" x1="686.75" x2="686.75" y1="248.28" y2="265.77" gradientUnits="userSpaceOnUse"><stop stop-color="#FAF8F9"/><stop offset="1" stop-color="#F2F2F2"/></linearGradient><linearGradient id="m" x1="700.79" x2="700.79" y1="248.28" y2="266.18" gradientUnits="userSpaceOnUse"><stop stop-color="#FAF8F9"/><stop offset="1" stop-color="#F2F2F2"/></linearGradient><linearGradient id="n" x1="715.37" x2="715.37" y1="247.87" y2="266.18" gradientUnits="userSpaceOnUse"><stop stop-color="#FAF8F9"/><stop offset="1" stop-color="#F2F2F2"/></linearGradient><linearGradient id="o" x1="731.31" x2="731.31" y1="248.28" y2="265.77" gradientUnits="userSpaceOnUse"><stop stop-color="#FAF8F9"/><stop offset="1" stop-color="#F2F2F2"/></linearGradient><linearGradient id="p" x1="742.89" x2="742.89" y1="248.28" y2="265.91" gradientUnits="userSpaceOnUse"><stop stop-color="#FAF8F9"/><stop offset="1" stop-color="#F2F2F2"/></linearGradient><linearGradient id="q" x1="755.97" x2="755.97" y1="248.28" y2="265.91" gradientUnits="userSpaceOnUse"><stop stop-color="#FAF8F9"/><stop offset="1" stop-color="#F2F2F2"/></linearGradient><linearGradient id="r" x1="762.24" x2="762.24" y1="248.28" y2="265.77" gradientUnits="userSpaceOnUse"><stop stop-color="#FAF8F9"/><stop offset="1" stop-color="#F2F2F2"/></linearGradient><linearGradient id="s" x1="727.22" x2="727.22" y1="234.2" y2="245.13" gradientUnits="userSpaceOnUse"><stop stop-color="#D8DED8"/><stop offset="1" stop-color="#A1A6A0"/></linearGradient><clipPath id="a"><path fill="#fff" d="M0 0h1440v888H0z"/></clipPath></defs></svg>