<svg xmlns="http://www.w3.org/2000/svg" width="80" height="50" fill="none" viewBox="0 0 80 50"><defs/><path fill="#000" d="M0 0h80v50H0z"/><path fill="#fff" fill-rule="evenodd" d="M33.33 24.68a.9.9 0 100 1.8.9.9 0 000-1.8zm36.37-.65c.59 0 1.02.33 1.3.65V23.1a2.7 2.7 0 00-1.5-.44c-1.48 0-2.77 1.07-2.77 2.89 0 1.75 1.17 2.88 2.8 2.88.46 0 .98-.07 1.47-.4v-1.55c-.28.29-.72.59-1.3.59-.87 0-1.4-.65-1.4-1.47 0-.9.56-1.57 1.4-1.57zm-2.8-1.2h-1.8l-1.64 2.28v-2.29h-1.53v5.46h1.53v-2.35l1.58 2.35h1.92l-2.13-2.82 2.07-2.64zm-9.48 3.27v-3.28h-1.48v5.46h1.5L59.56 25v3.28h1.47v-5.46h-1.5l-2.11 3.28zm-4.43-.82h-.44v-1.26H53c.65 0 .75.35.75.63 0 .23-.07.63-.75.63zm.33-2.46h-2.3v5.46h1.53v-1.8h.77c1.55 0 2-1.08 2-1.83s-.44-1.83-2-1.83zm-6.85 1.31h1.2v4.15h1.53v-4.15h1.2v-1.3h-3.93v1.3zm-4.24 1.97v-3.28h-1.47v5.46h1.5l2.1-3.28v3.28h1.48v-5.46h-1.5l-2.1 3.28zm-4.55 1.09h-.66v-1.15h.66c.48 0 .76.14.76.57 0 .44-.29.58-.76.58zm.15-2.24h-.8v-.82h2.5v-1.3h-4.04v5.45h2.34c.4 0 2.14.01 2.14-1.7 0-1.64-1.73-1.63-2.14-1.63zm-10.9.6c0 1.75 1.18 2.88 2.8 2.88.47 0 .98-.07 1.47-.4v-1.55c-.28.29-.72.59-1.3.59-.87 0-1.39-.65-1.39-1.47 0-.9.56-1.57 1.4-1.57.58 0 1.01.33 1.3.65V23.1a2.71 2.71 0 00-1.5-.44c-1.49 0-2.77 1.07-2.77 2.89zm-3.2-1.47h.84v4.2h1.41v-5.46h-2.24v1.26z" clip-rule="evenodd"/><path fill="#D91935" fill-rule="evenodd" d="M15 19a6 6 0 00-1.3.14V25a1.3 1.3 0 002.61 0 1.3 1.3 0 00-1.22-1.3v-1.04a2.35 2.35 0 01-.08 4.7A2.35 2.35 0 0112.66 25v-5.53l-.44.21V25a2.79 2.79 0 005.57 0c0-1.5-1.2-2.73-2.7-2.78v-1.04a3.83 3.83 0 01-.08 7.65A3.83 3.83 0 0111.18 25v-4.63A5.99 5.99 0 0015 31a6 6 0 100-12z" clip-rule="evenodd"/></svg>