<svg xmlns="http://www.w3.org/2000/svg" width="80" height="50" fill="none" viewBox="0 0 80 50"><defs/><path fill="#000" d="M0 0h80v50H0z"/><path fill="#AFCA0B" d="M36.92 25a8.7 8.7 0 00-.57-3.09c-.1 3.17-3.36 5.62-5.28 7.25h4.8A8.7 8.7 0 0036.92 25zm-3.46-6.97a8.98 8.98 0 00-5.5-1.87A8.9 8.9 0 0019 25a8.9 8.9 0 008.96 8.84c2.27 0 4.33-.83 5.9-2.2h-6.48l-.02-1.88c3.91-3.36 6.3-5.62 6.3-7.82 0-.8-.3-1.84-1.72-1.84-1.12 0-2.2.64-2 3.32h-2.28c-.57-3.1 1.14-5.57 4.4-5.57.5 0 .97.06 1.4.18"/><path fill="#fff" d="M45.23 22.27h2.12c.08-1.6-.47-4.11-3.96-4.11-2.58 0-4.44 1.52-4.44 4.68l.01 4.02c0 3.44 2.41 4.19 4.44 4.19 1.22 0 2.97-.27 3.79-1.15v-5.47H43.2v1.99h1.78v2.41c-1.34.45-3.79.63-3.79-2.41v-3.58c0-2.13 1-2.86 2.1-2.86 1.15 0 1.94.57 1.94 2.29zM61 27.57c.09-4.89-5.6-3.26-5.54-6 .01-.96.65-1.59 1.68-1.59 1.1 0 1.76.64 1.74 2.33h2.08c.06-1.52-.3-4.12-3.75-4.12-2.13 0-3.9 1.04-3.93 3.35-.09 4.7 5.64 3.16 5.54 6-.03 1.16-.88 1.68-1.84 1.68-1.13 0-2.03-.64-1.85-2.57h-2.1c-.24 2.56.9 4.38 3.93 4.38 2.55 0 4-1.4 4.04-3.45zm-9.57 3.3h-2.14V18.35h2.14v12.52zm0 0h-2.14V18.35h2.14v12.52z"/></svg>