<svg xmlns="http://www.w3.org/2000/svg" width="80" height="50" fill="none" viewBox="0 0 80 50"><defs/><path fill="#000" d="M0 0h80v50H0z"/><path fill="#fff" d="M19.67 25.8l1.64-3.7 1.74 3.7h-3.38zM17 29.63h.92l1.34-3.05h4.1l1.34 3.05h.92l-4.31-9.52L17 29.62zM35.06 28.76a5.3 5.3 0 01-1.64.86c-.62.19-1.23.19-1.85.19a4.92 4.92 0 01-3.59-1.33c-.92-.86-1.44-2-1.44-3.53a4.8 4.8 0 011.44-3.43 4.68 4.68 0 013.6-1.42c.6 0 1.22.1 1.74.19.61.19 1.13.47 1.74.85v1.05a5.63 5.63 0 00-1.74-1.05 5.56 5.56 0 00-1.75-.28c-1.13 0-2.05.38-2.87 1.24a4.04 4.04 0 00-1.13 2.85c0 1.24.41 2.2 1.13 2.95a4.13 4.13 0 002.87 1.24c.62 0 1.23-.19 1.85-.38.61-.19 1.13-.57 1.64-.95v.95zM37.63 24.57v-3.52h1.23c.61 0 1.13.19 1.54.38.4.19.61.67.61 1.43 0 .47-.1.95-.51 1.23-.3.39-1.03.48-1.95.48h-.92zm-.93 5.05h.93v-4.29h.3l3.39 4.29h1.03l-3.39-4.29c1.13 0 1.95-.28 2.36-.76.41-.48.72-1.05.72-1.71 0-.96-.3-1.62-.92-2a3.36 3.36 0 00-1.85-.48H36.7v9.24zM45.53 27.9a4.1 4.1 0 01-1.23-2.95c0-1.14.4-2.1 1.23-2.85a3.9 3.9 0 013.08-1.24c1.23 0 2.25.38 2.97 1.14.82.86 1.23 1.81 1.23 2.95 0 1.14-.4 2.1-1.23 2.95a4 4 0 01-2.97 1.24 4.08 4.08 0 01-3.08-1.24zm-.72-6.38a4.42 4.42 0 00-1.44 3.43c0 1.34.41 2.57 1.44 3.53.92.95 2.15 1.33 3.8 1.33 1.54 0 2.77-.48 3.7-1.43a4.37 4.37 0 001.53-3.43c0-1.33-.51-2.47-1.54-3.43a4.92 4.92 0 00-3.7-1.42 5 5 0 00-3.79 1.42zM55.79 20l7.29 7.71v-7.33H64V30l-7.29-7.71v7.33h-.92V20z"/></svg>