<svg width="80" height="50" viewBox="0 0 80 50" fill="none" xmlns="http://www.w3.org/2000/svg">
<rect width="80" height="50" fill="black"/>
<path d="M17.3401 18H11.9559C9.77388 18 8 19.7353 8 21.8675V27.1325C8 29.2644 9.77388 31 11.9559 31H17.3398C19.5199 31 21.2946 29.2644 21.2946 27.1325V21.8675C21.2949 19.7353 19.5202 18 17.3401 18Z" fill="#E31836"/>
<path d="M18.8446 26.0977L18.8396 26.1557C18.8207 26.3812 18.6761 26.6095 18.4361 26.6095C18.2526 26.6095 18.105 26.543 17.9846 26.4067C17.8401 26.2439 17.7101 26.0484 17.5784 25.6941C17.9512 24.4568 19.1013 20.4936 19.1013 20.4936H16.9187C16.9187 20.4936 16.7171 21.4229 16.5352 22.2683C16.5262 22.2476 16.5169 22.2272 16.5073 22.2077C16.3254 21.8276 16.0349 21.4052 15.7124 21.1083C15.1501 20.5914 14.4887 20.3396 13.6902 20.3396C12.5881 20.3396 11.6558 20.7382 10.919 21.5245C10.1858 22.3061 9.79852 23.3089 9.79852 24.4241C9.79852 25.6662 10.1664 26.6865 10.8916 27.4551C11.6481 28.2584 12.5527 28.6326 13.7377 28.6326C14.4281 28.6326 15.087 28.4319 15.6978 28.0369C16.0925 27.7821 16.4527 27.4291 16.7931 26.9708C16.936 27.4232 17.08 27.7325 17.2523 27.9639C17.5309 28.3375 17.9484 28.5516 18.3974 28.5516C18.8648 28.5516 19.2906 28.3174 19.5092 27.9411C19.7028 27.6072 19.7818 27.1928 19.7818 26.5113V26.0977H18.8446V26.0977ZM15.186 26.89C14.8552 27.3637 14.4232 27.6136 13.9366 27.6136C13.3696 27.6136 12.9409 27.3653 12.6251 26.8519C12.2941 26.3145 12.1265 25.509 12.1265 24.4574C12.1265 23.4932 12.3042 22.7269 12.6545 22.1798C12.9837 21.6662 13.3962 21.4264 13.9525 21.4264C14.4476 21.4264 14.8341 21.6275 15.1701 22.061C15.5302 22.526 15.8347 23.2944 16.0528 24.2822C15.779 25.6176 15.5113 26.425 15.186 26.89Z" fill="white"/>
<path d="M27.9507 20.6818C27.7998 20.0175 27.3714 19.5535 26.4311 19.5535C25.5465 19.5535 25.0618 20.0175 24.9109 20.6818L24.2282 23.689H24.9581C25.1246 23.689 25.2903 23.5591 25.3259 23.4001L25.4639 22.7883H27.398L27.5362 23.4001C27.5719 23.5589 27.7373 23.689 27.9038 23.689H28.634L27.9507 20.6818ZM25.6551 21.9408L25.8957 20.8757C25.9343 20.7035 26.0715 20.4404 26.4314 20.4404C26.791 20.4404 26.9278 20.7033 26.9671 20.8757L27.2073 21.9408H25.6551Z" fill="#E31836"/>
<path d="M30.4331 20.5579H32.0614V23.689H33.0691V19.6511H30.0297C29.6975 19.6511 29.4248 19.9172 29.4248 20.2425V22.283C29.4248 22.5561 29.2962 22.7299 29.0726 22.7736L28.8661 22.8219L29.0532 23.6893H29.2449C29.9345 23.6893 30.4331 23.1874 30.4331 22.334V20.5579" fill="#E31836"/>
<path d="M41.8292 19.651H41.4619V19.1816H40.7564C40.5899 19.1816 40.4539 19.3139 40.4539 19.4769V19.651H40.0866C38.8407 19.651 38.062 20.4814 38.062 21.6698C38.062 22.8585 38.8407 23.6889 40.0866 23.6889H40.4539V24.1783H41.1594C41.3259 24.1783 41.4619 24.0453 41.4619 23.8833V23.6889H41.8292C43.0751 23.6889 43.8535 22.8585 43.8535 21.6698C43.8535 20.4814 43.0751 19.651 41.8292 19.651ZM40.0866 22.7971C39.3965 22.7971 39.0701 22.3701 39.0701 21.6698C39.0701 20.97 39.3965 20.5431 40.0866 20.5431H40.4539V22.7971H40.0866ZM41.8292 22.7971H41.4619V20.5431H41.8292C42.5196 20.5431 42.8449 20.97 42.8449 21.6698C42.8449 22.3701 42.5193 22.7971 41.8292 22.7971Z" fill="#E31836"/>
<path d="M36.1971 20.6751H34.7505V19.6516H33.7424V23.3936C33.7424 23.5562 33.8788 23.6892 34.045 23.6892H36.1971C37.076 23.6892 37.7376 23.0417 37.7376 22.1821C37.7376 21.3228 37.1824 20.6751 36.1971 20.6751ZM36.1971 22.7827H34.7505V21.5816H36.1971C36.4429 21.5816 36.7298 21.7967 36.7298 22.1819C36.7298 22.5668 36.4429 22.7827 36.1971 22.7827Z" fill="#E31836"/>
<path d="M47.613 20.6818C47.4616 20.0175 47.0334 19.5535 46.0928 19.5535C45.209 19.5535 44.7241 20.0175 44.5727 20.6818L43.89 23.689H44.6204C44.7864 23.689 44.9523 23.5591 44.9874 23.4001L45.1257 22.7883H47.06L47.1977 23.4001C47.2334 23.5589 47.399 23.689 47.5653 23.689H48.2952L47.613 20.6818ZM45.3174 21.9408L45.5569 20.8757C45.5966 20.7035 45.7335 20.4404 46.0928 20.4404C46.4527 20.4404 46.589 20.7033 46.6288 20.8757L46.8688 21.9408H45.3174Z" fill="#E31836"/>
<path d="M53.4567 27.2598C53.6345 27.0887 53.7488 26.8556 53.7488 26.5325C53.7488 25.8169 53.1819 25.3164 52.4495 25.3164H49.985C49.8187 25.3164 49.6827 25.4492 49.6827 25.612V29.0587C49.6827 29.2212 49.8187 29.3543 49.985 29.3543L52.605 29.3548C53.3772 29.3548 53.8898 28.8146 53.8898 28.0991C53.8898 27.7389 53.7148 27.4567 53.4567 27.2598ZM52.4484 26.1546C52.5825 26.1546 52.7658 26.3015 52.7658 26.5526C52.7658 26.8055 52.5825 26.9345 52.4484 26.9503H50.6704V26.1543H52.4484V26.1546ZM52.5293 28.5169H50.6701V27.7203H52.5293C52.6635 27.7364 52.8464 27.8652 52.8464 28.1184C52.8464 28.3691 52.6635 28.5169 52.5293 28.5169Z" fill="#E31836"/>
<path d="M46.798 25.2236C45.5518 25.2236 44.6807 26.0913 44.6807 27.3355C44.6807 28.5792 45.5516 29.4476 46.798 29.4476H47.143C48.3894 29.4476 49.2603 28.5792 49.2603 27.3355C49.2603 26.0913 48.3897 25.2236 47.143 25.2236H46.798V25.2236ZM45.7696 27.3355C45.7696 26.6113 46.1641 26.0578 46.8589 26.0578H47.0827C47.7769 26.0578 48.1711 26.6113 48.1711 27.3355C48.1711 28.0597 47.7767 28.6138 47.0827 28.6138H46.8589C46.1638 28.6135 45.7696 28.0597 45.7696 27.3355Z" fill="#E31836"/>
<path d="M27.9852 25.3164L28.1179 25.9271C28.1533 26.0899 28.3184 26.2227 28.4847 26.2227H29.4244V29.354H30.4327V26.2229H31.3431C31.5091 26.2229 31.6739 26.0902 31.709 25.9274L31.8418 25.3167H27.9852" fill="#E31836"/>
<path d="M61.9421 25.3164V26.9197H59.9808V25.3164H58.9725V29.3543H59.9808V27.7858H61.9421V29.3543H62.9504V25.3164H61.9421Z" fill="#E31836"/>
<path d="M39.7178 26.3476C39.5666 25.6829 39.139 25.2195 38.1979 25.2195C37.3146 25.2195 36.8294 25.6832 36.6788 26.3476L35.9955 29.3542H36.7257C36.8922 29.3542 37.0576 29.2249 37.0936 29.0658L37.2313 28.4538H39.1648L39.3027 29.0658C39.3381 29.2249 39.5041 29.3542 39.6706 29.3542H40.4005L39.7178 26.3476ZM37.4227 27.606L37.6627 26.5409C37.7017 26.369 37.8385 26.1056 38.1984 26.1056C38.5583 26.1056 38.6952 26.369 38.7344 26.5415L38.9744 27.6057H37.4227V27.606Z" fill="#E31836"/>
<path d="M57.8444 26.3476C57.693 25.6829 57.2654 25.2195 56.3243 25.2195C55.4402 25.2195 54.9558 25.6832 54.8047 26.3476L54.1219 29.3542H54.8524C55.0184 29.3542 55.184 29.2249 55.2194 29.0658L55.3579 28.4538H57.2917L57.4302 29.0658C57.4662 29.2249 57.6313 29.3542 57.7973 29.3542H58.5283L57.8444 26.3476ZM55.5483 27.606L55.7889 26.5409C55.8286 26.369 55.965 26.1056 56.3243 26.1056C56.6836 26.1056 56.821 26.369 56.8603 26.5415L57.1003 27.6057H55.5483V27.606Z" fill="#E31836"/>
<path d="M28.299 29.3432V29.3548H26.3296C25.1372 29.3548 24.3044 28.5247 24.3044 27.3354C24.3044 26.1468 25.1375 25.3167 26.3296 25.3167H27.8237L27.6775 25.9354C27.6402 26.0942 27.4734 26.2232 27.3069 26.2232H26.3296C25.6924 26.2232 25.3125 26.6883 25.3125 27.3357C25.3125 27.9829 25.6921 28.4482 26.3296 28.4482H27.7853C27.9512 28.4482 28.1183 28.5775 28.1556 28.7363L28.299 29.3432Z" fill="#E31836"/>
<path d="M34.5443 25.3164L32.3925 25.3167C32.2257 25.3167 32.0899 25.4497 32.0899 25.6122V29.3545H33.0982V28.3302H34.5443C35.5307 28.3302 36.0856 27.6825 36.0856 26.8237C36.0856 25.9647 35.4232 25.3164 34.5443 25.3164ZM34.5443 27.424H33.0982V26.224H34.5443C34.7904 26.224 35.0775 26.4389 35.0775 26.824C35.0775 27.2086 34.7904 27.424 34.5443 27.424Z" fill="#E31836"/>
<path d="M71.4961 28.5019H69.3245V27.7265H71.6851V26.9477H69.3245V26.1685H71.4961C71.6749 26.1685 71.8162 26.0918 71.8656 25.8805L72 25.3162H68.619C68.4531 25.3162 68.3165 25.4489 68.3165 25.6117V29.0585C68.3165 29.221 68.4528 29.3546 68.619 29.3546H72L71.8656 28.7902C71.8162 28.5792 71.6752 28.5019 71.4961 28.5019Z" fill="#E31836"/>
<path d="M63.6417 29.3543V25.3164H64.65V27.9805L66.3964 25.5546C66.4949 25.4237 66.7108 25.3164 66.8784 25.3164H67.6258V29.3543H66.6172V26.6904L64.8702 29.1161C64.7723 29.247 64.5559 29.3543 64.3891 29.3543H63.6417" fill="#E31836"/>
<path d="M43.4416 27.314L44.8488 25.3167H43.9228C43.7228 25.3167 43.5821 25.3762 43.4584 25.5658L42.7087 26.717H42.5746L41.8244 25.5658C41.7012 25.3759 41.5608 25.3167 41.3597 25.3167H40.4038L41.8411 27.3566L40.434 29.3542H41.3597C41.5605 29.3542 41.7012 29.2952 41.8244 29.1051L42.5746 27.9537H42.7087L43.4584 29.1051C43.5821 29.2952 43.7228 29.3542 43.9228 29.3542H44.8787L43.4416 27.314Z" fill="#E31836"/>
</svg>
