<svg width="80" height="50" viewBox="0 0 80 50" fill="none" xmlns="http://www.w3.org/2000/svg">
<rect width="80" height="50" fill="black"/>
<path fill-rule="evenodd" clip-rule="evenodd" d="M45.4357 28.6624C43.0531 30.4185 39.5997 31.3555 36.6264 31.3555C32.4573 31.3555 28.7041 29.8135 25.8646 27.2489C25.6415 27.0472 25.8414 26.7724 26.1091 26.9294C29.1734 28.7123 32.9624 29.785 36.8762 29.785C39.5158 29.785 42.4195 29.2388 45.0894 28.1055C45.4928 27.9342 45.8301 28.3697 45.4357 28.6624" fill="#FF9900"/>
<path fill-rule="evenodd" clip-rule="evenodd" d="M46.4262 27.529C46.1228 27.14 44.413 27.3452 43.6456 27.4362C43.4118 27.4648 43.3761 27.2613 43.5867 27.115C44.9484 26.1566 47.1829 26.4332 47.4434 26.7545C47.704 27.0775 47.3756 29.3173 46.096 30.3863C45.8997 30.5505 45.7123 30.4631 45.7997 30.2454C46.0871 29.5279 46.7314 27.9199 46.4262 27.529" fill="#FF9900"/>
<path fill-rule="evenodd" clip-rule="evenodd" d="M43.699 20.3492V19.4176C43.699 19.2766 43.8061 19.182 43.9346 19.182H48.1055C48.2393 19.182 48.3464 19.2784 48.3464 19.4176V20.2153C48.3446 20.3492 48.2322 20.5241 48.0323 20.8007L45.871 23.8865C46.6741 23.8669 47.5219 23.9864 48.25 24.3969C48.4142 24.4897 48.4588 24.6254 48.4713 24.7592V25.7533C48.4713 25.8889 48.3214 26.0478 48.1644 25.9657C46.8812 25.2928 45.1768 25.2197 43.7579 25.9728C43.6134 26.0513 43.4617 25.8943 43.4617 25.7586V24.8145C43.4617 24.6628 43.4635 24.404 43.6152 24.1738L46.1191 20.583H43.94C43.8061 20.583 43.699 20.4884 43.699 20.3492" fill="white"/>
<path fill-rule="evenodd" clip-rule="evenodd" d="M28.4845 26.162H27.2155C27.0942 26.1531 26.9978 26.0621 26.9889 25.9461V19.4337C26.9889 19.3034 27.0978 19.1999 27.2334 19.1999H28.4167C28.5398 19.2053 28.638 19.2999 28.6469 19.4177V20.269H28.6701C28.9788 19.4462 29.5589 19.0625 30.3406 19.0625C31.1348 19.0625 31.6309 19.4462 31.9878 20.269C32.2948 19.4462 32.9926 19.0625 33.7404 19.0625C34.2723 19.0625 34.8541 19.282 35.2092 19.7746C35.6108 20.3225 35.5287 21.1185 35.5287 21.8163L35.5269 25.9265C35.5269 26.0568 35.4181 26.162 35.2824 26.162H34.0153C33.8886 26.1531 33.7868 26.0514 33.7868 25.9265V22.4749C33.7868 22.2 33.8118 21.5147 33.7511 21.2541C33.6565 20.8169 33.3728 20.6937 33.0051 20.6937C32.6982 20.6937 32.3769 20.899 32.2466 21.2273C32.1163 21.5557 32.1288 22.1054 32.1288 22.4749V25.9265C32.1288 26.0568 32.02 26.162 31.8843 26.162H30.6172C30.4887 26.1531 30.3888 26.0514 30.3888 25.9265L30.387 22.4749C30.387 21.7485 30.5065 20.6794 29.6053 20.6794C28.6933 20.6794 28.729 21.7217 28.729 22.4749V25.9265C28.729 26.0568 28.6201 26.162 28.4845 26.162" fill="white"/>
<path fill-rule="evenodd" clip-rule="evenodd" d="M51.9373 19.0625C53.8202 19.0625 54.8392 20.6794 54.8392 22.7354C54.8392 24.7218 53.7131 26.2977 51.9373 26.2977C50.0884 26.2977 49.0818 24.6807 49.0818 22.6658C49.0818 20.6384 50.1008 19.0625 51.9373 19.0625V19.0625ZM51.948 20.3921C51.0128 20.3921 50.9539 21.6664 50.9539 22.4606C50.9539 23.2566 50.9414 24.9556 51.9373 24.9556C52.9207 24.9556 52.9671 23.5849 52.9671 22.7497C52.9671 22.2 52.9439 21.5432 52.7779 21.0221C52.6351 20.5688 52.3514 20.3921 51.948 20.3921" fill="white"/>
<path fill-rule="evenodd" clip-rule="evenodd" d="M57.2807 26.162H56.0171C55.8904 26.1531 55.7886 26.0514 55.7886 25.9265L55.7869 19.4123C55.7976 19.2927 55.9029 19.1999 56.0314 19.1999H57.2075C57.3181 19.2053 57.4092 19.2802 57.4341 19.382V20.3778H57.4573C57.8125 19.4873 58.3104 19.0625 59.1867 19.0625C59.756 19.0625 60.3111 19.2677 60.668 19.8299C61 20.3511 61 21.2273 61 21.8573V25.9568C60.9857 26.071 60.8804 26.162 60.7555 26.162H59.483C59.367 26.1531 59.2706 26.0675 59.2581 25.9568V22.4195C59.2581 21.7074 59.3402 20.6652 58.4639 20.6652C58.1552 20.6652 57.8714 20.8722 57.7304 21.1863C57.5519 21.5843 57.5287 21.9805 57.5287 22.4195V25.9265C57.527 26.0568 57.4163 26.162 57.2807 26.162" fill="white"/>
<path fill-rule="evenodd" clip-rule="evenodd" d="M40.3742 23.0513C40.3742 23.5456 40.3867 23.9579 40.1368 24.3969C39.9352 24.7539 39.6139 24.9734 39.2588 24.9734C38.7715 24.9734 38.486 24.6022 38.486 24.0543C38.486 22.9728 39.4551 22.7764 40.3742 22.7764V23.0513V23.0513ZM41.6539 26.1442C41.57 26.2191 41.4486 26.2245 41.354 26.1745C40.9328 25.8247 40.8561 25.6623 40.6259 25.3286C39.9298 26.0389 39.4355 26.2513 38.5342 26.2513C37.4651 26.2513 36.6353 25.5927 36.6353 24.2738C36.6353 23.244 37.1921 22.5426 37.9881 22.2C38.677 21.8966 39.6389 21.843 40.3742 21.7592V21.595C40.3742 21.2933 40.3974 20.9364 40.2189 20.6758C40.0655 20.442 39.7692 20.3457 39.5068 20.3457C39.0232 20.3457 38.5931 20.5937 38.4878 21.1077C38.4664 21.222 38.3825 21.3344 38.2665 21.3397L37.0368 21.2077C36.9333 21.1845 36.8173 21.1006 36.8476 20.9418C37.1296 19.4497 38.4789 19 39.6853 19C40.3028 19 41.1095 19.1642 41.5967 19.6318C42.2142 20.2082 42.1554 20.9775 42.1554 21.8145V23.7919C42.1554 24.3862 42.4016 24.6468 42.6337 24.968C42.714 25.0823 42.7318 25.2197 42.6283 25.3054C42.3695 25.5213 41.9091 25.9229 41.6556 26.1477L41.6538 26.1442" fill="white"/>
<path fill-rule="evenodd" clip-rule="evenodd" d="M23.739 23.0515C23.739 23.5459 23.7514 23.9582 23.5016 24.3972C23.2999 24.7541 22.9805 24.9736 22.6235 24.9736C22.1363 24.9736 21.8525 24.6024 21.8525 24.0545C21.8525 22.973 22.8216 22.7767 23.739 22.7767V23.0515V23.0515ZM25.0186 26.1444C24.9347 26.2194 24.8133 26.2247 24.7188 26.1748C24.2976 25.825 24.2226 25.6625 23.9906 25.3288C23.2946 26.0391 22.802 26.2515 21.8989 26.2515C20.8317 26.2515 20 25.5929 20 24.274C20 23.2443 20.5586 22.5429 21.3528 22.2002C22.0417 21.8968 23.0037 21.8433 23.739 21.7594V21.5952C23.739 21.2936 23.7622 20.9366 23.5855 20.6761C23.4302 20.4423 23.1339 20.3459 22.8734 20.3459C22.3897 20.3459 21.9578 20.594 21.8525 21.108C21.8311 21.2222 21.7472 21.3346 21.633 21.34L20.4016 21.2079C20.298 21.1847 20.1838 21.1008 20.2124 20.942C20.4961 19.45 21.8436 19.0002 23.0501 19.0002C23.6676 19.0002 24.4743 19.1644 24.9615 19.632C25.579 20.2085 25.5201 20.9777 25.5201 21.8147V23.7922C25.5201 24.3865 25.7664 24.647 25.9984 24.9683C26.0805 25.0825 26.0983 25.2199 25.9948 25.3056C25.736 25.5216 25.2756 25.9231 25.0222 26.148L25.0186 26.1444" fill="white"/>
</svg>
