<svg xmlns="http://www.w3.org/2000/svg" width="80" height="50" fill="none" viewBox="0 0 80 50"><defs/><path fill="#000" d="M0 0h80v50H0z"/><path fill="#fff" d="M17.58 17.27l-2.52 5.86h1.64l.47-1.18h2.7l.46 1.18h1.68l-2.52-5.86h-1.9zm.94 1.36l.82 2.05h-1.65l.82-2.05zM22.18 23.13v-5.86h2.33l1.36 3.78 1.32-3.78h2.31v5.86h-1.46V18.8l-1.55 4.32H25.2l-1.55-4.32v4.32h-1.47zM30.5 23.13v-5.86h4.78v1.3h-3.3v1.01h3.23v1.23h-3.23v1.04h3.3v1.28h-4.77zM36.13 17.27v5.86h1.46v-2.08h.62l1.76 2.08h1.79l-1.93-2.16c.79-.07 1.6-.75 1.6-1.8 0-1.23-.96-1.9-2.04-1.9h-3.26zm1.46 1.31h1.68c.4 0 .7.31.7.62 0 .39-.39.61-.68.61h-1.7v-1.23zM43.53 23.13h-1.5v-5.86h1.5v5.86zM47.07 23.13h-.32c-1.56 0-2.5-1.23-2.5-2.9 0-1.72.93-2.96 2.9-2.96h1.62v1.39h-1.68c-.8 0-1.37.62-1.37 1.58 0 1.13.65 1.6 1.58 1.6h.39l-.62 1.29zM50.26 17.27l-2.52 5.86h1.64l.47-1.18h2.7l.46 1.18h1.68l-2.52-5.86h-1.91zm.93 1.36l.83 2.05h-1.65l.82-2.05zM54.86 23.13v-5.86h1.86l2.38 3.68v-3.68h1.46v5.86h-1.8l-2.44-3.78v3.78h-1.46zM25.73 33.38v-5.86h4.78v1.3h-3.3v1.01h3.22v1.23H27.2v1.04h3.3v1.28h-4.78zM49.14 33.38v-5.86h4.78v1.3h-3.3v1.01h3.2v1.23h-3.2v1.04h3.3v1.28h-4.78zM30.7 33.38l2.32-2.9-2.38-2.96h1.84l1.42 1.83 1.42-1.83h1.77l-2.35 2.93 2.33 2.93h-1.84l-1.38-1.8-1.34 1.8h-1.82zM37.25 27.52v5.86h1.5v-1.85h1.54c1.3 0 2.3-.7 2.3-2.04 0-1.11-.78-1.97-2.1-1.97h-3.24zm1.5 1.32h1.62c.43 0 .73.26.73.68 0 .39-.3.67-.73.67h-1.62v-1.35zM43.22 27.52v5.86h1.46v-2.09h.62l1.76 2.09h1.79l-1.93-2.16c.79-.07 1.6-.75 1.6-1.8 0-1.23-.96-1.9-2.04-1.9h-3.26zm1.46 1.3h1.68c.4 0 .7.32.7.63 0 .38-.39.61-.68.61h-1.7v-1.23zM54.6 33.38V32.1h2.93c.43 0 .62-.23.62-.49 0-.24-.19-.5-.62-.5H56.2c-1.15 0-1.79-.7-1.79-1.75 0-.94.59-1.84 2.3-1.84h2.85l-.62 1.32h-2.46c-.48 0-.62.24-.62.48s.18.51.54.51h1.39c1.28 0 1.84.73 1.84 1.68 0 1.03-.62 1.87-1.91 1.87H54.6zM59.97 33.38V32.1h2.93c.43 0 .62-.23.62-.49 0-.24-.19-.5-.62-.5h-1.32c-1.16 0-1.8-.7-1.8-1.75 0-.94.6-1.84 2.3-1.84h2.85l-.61 1.32h-2.47c-.47 0-.62.24-.62.48s.18.51.54.51h1.39c1.28 0 1.84.73 1.84 1.68 0 1.03-.62 1.87-1.91 1.87h-3.12z"/></svg>