<svg xmlns="http://www.w3.org/2000/svg" width="80" height="50" fill="none" viewBox="0 0 80 50"><defs/><path fill="#000" d="M0 0h80v50H0z"/><path fill="#E43642" d="M17.96 25.46l-1.33-3.58-1.32 3.58h2.65zm2.97 3.36h-2.92v-.25c.42 0 .8-.02.8-.5 0-.21-.15-.64-.22-.82L18.12 26h-3l-.54 1.53a1.6 1.6 0 00-.09.5c0 .54.54.54.78.54v.25H13v-.25a.71.71 0 00.59-.3c.26-.32.62-1.27.83-1.84l2.39-6.41h.23l2.86 7.41c.37.96.53 1.1 1.03 1.14v.25zm2.89-4.76l1.09-.01c.32 0 1.69-.03 1.69-1.58s-1.2-1.8-2.01-1.8l-.52.01c-.23 0-.25.18-.25.38v3zm0 3.74c0 .48.2.54.87.54.76 0 2.15-.12 2.15-1.87 0-1.07-.56-1.5-1.16-1.7-.4-.14-.76-.2-1.86-.2v3.23zm-2.27-7.62h3.21c1 0 3 .18 3 2.2 0 1.45-1 1.74-1.52 1.88v.03c1 .23 1.92.86 1.92 2.23 0 .5-.23 2.3-2.78 2.3h-3.83v-.25c.96-.03 1.1-.25 1.1-1.18V21.6c0-.97-.16-1.12-1.1-1.17v-.25zm12.88 8.64h-3.35v-.25c1.04-.06 1.08-.36 1.08-1.32v-6.52h-.62c-1.26 0-1.58.25-1.83 1.66h-.27l.07-2.21h6.47l.07 2.21h-.28c-.24-1.43-.56-1.66-1.82-1.66h-.62v6.66c0 .89.14 1.14 1.1 1.18v.25zm8.65-4.32c0-2.98-1.28-4.03-2.45-4.03-1.17 0-2.44 1.05-2.44 4.03 0 2.87 1.17 4.03 2.44 4.03s2.45-1.16 2.45-4.03zm-6.2.01c0-3 1.87-4.51 3.75-4.51s3.76 1.51 3.76 4.51c0 2.78-1.68 4.49-3.76 4.49s-3.75-1.7-3.75-4.49zm13.32 4.3h-3.36v-.24c1.05-.06 1.08-.36 1.08-1.32v-6.52h-.62c-1.26 0-1.57.25-1.82 1.66h-.28l.07-2.21h6.48l.06 2.21h-.27c-.24-1.43-.56-1.66-1.82-1.66h-.63v6.66c0 .89.14 1.14 1.1 1.18v.25zm8.65-4.31c0-2.98-1.28-4.03-2.45-4.03-1.17 0-2.44 1.05-2.44 4.03 0 2.87 1.17 4.03 2.44 4.03 1.28 0 2.45-1.16 2.45-4.03zm-6.2.01c0-3 1.87-4.51 3.75-4.51s3.76 1.51 3.76 4.51c0 2.78-1.68 4.49-3.76 4.49s-3.75-1.7-3.75-4.49zm10.45-.01c.22.02.45.04.69.04.42 0 1.96 0 1.96-1.99 0-1.86-1.68-1.89-2.18-1.89-.34 0-.47.01-.47.45v3.39zm-2.14-4.32H64c1.59 0 3.01.69 3.01 2.35 0 1.02-.5 1.55-.7 1.76-.5.53-1.23.77-2.43.77-.28 0-.5-.02-.77-.05v2.38c0 .95.19 1.15 1.08 1.17v.26h-3.22v-.25c.97-.08.97-.38.97-1.32V21.6c0-.92-.13-1.08-.97-1.17v-.25"/></svg>