<svg xmlns="http://www.w3.org/2000/svg" width="80" height="50" fill="none" viewBox="0 0 80 50"><defs/><path fill="#000" d="M0 0h80v50H0z"/><path fill="url(#paint0_linear)" d="M40 11a14 14 0 100 28 14 14 0 000-28zm0 27.3a13.3 13.3 0 110-26.6 13.3 13.3 0 010 26.6z"/><path fill="#CDCDCD" d="M40 11a14 14 0 100 28 14 14 0 000-28zm0 27.3a13.3 13.3 0 110-26.6 13.3 13.3 0 010 26.6z"/><path fill="#333" d="M53.4 25a13.4 13.4 0 11-26.8 0 13.4 13.4 0 0126.8 0z"/><path fill="url(#paint1_radial)" d="M53.3 25a13.3 13.3 0 11-26.6 0 13.3 13.3 0 0126.6 0z"/><path fill="url(#paint2_linear)" d="M48.92 25a8.92 8.92 0 11-17.83 0 8.92 8.92 0 0117.83 0z"/><path fill="#000" d="M40.36 15.84l.92-2.46v2.46h.7v-3.52h-1.05l-.96 2.52-.95-2.52h-1.06v3.52h.7v-2.46l.93 2.46h.77zM50.01 17.42l-1.2 1.75 1.89-.93.5.61-2.96 1.5-.6-.73 1.15-1.74-1.92.81-.61-.72 2-2.65.51.61-1.25 1.7 1.94-.87.55.66z"/><path fill="#333" d="M33.77 16.74a.9.9 0 00-1.13-.1.78.78 0 000-.52c-.17-.33-.23-.37-.37-.49-.48-.4-.97-.06-1.33.37l-1.71 2.04 2.7 2.26 1.8-2.15c.42-.5.48-.98.04-1.4zm-3.48.99l1.03-1.23c.12-.14.39-.13.56.01.19.16.2.39.06.54l-1.02 1.21-.63-.53zm2.84.2l-1.08 1.28-.67-.56 1.08-1.3c.13-.14.4-.18.58-.03.21.18.23.44.09.61z"/><path fill="url(#paint3_radial)" d="M40.37 15.7l.92-2.45v2.45h.7V12.2h-1.05l-.96 2.52-.96-2.52h-1.05v3.51h.7v-2.45l.93 2.45h.77z"/><path fill="url(#paint4_radial)" d="M50.02 17.18l-1.2 1.75L50.7 18l.51.62-2.97 1.49-.6-.73 1.16-1.73-.01-.01-1.92.82-.6-.72 2-2.66.51.62-1.25 1.69 1.94-.87.55.66z"/><path fill="url(#paint5_radial)" d="M33.65 16.67a.9.9 0 00-1.13-.1.78.78 0 000-.52c-.17-.33-.24-.37-.38-.49-.47-.4-.97-.06-1.32.37l-1.72 2.04 2.7 2.26 1.8-2.15c.42-.5.48-.98.05-1.4zm-3.49 1l1.03-1.24c.12-.14.39-.13.56.01.2.16.2.39.07.54L30.8 18.2l-.64-.54zm2.84.2l-1.07 1.27-.67-.56 1.08-1.3c.12-.14.4-.18.58-.02.2.17.23.43.08.6z"/><path fill="url(#paint6_radial)" d="M31.38 25a8.62 8.62 0 1117.24 0 8.62 8.62 0 01-17.24 0z"/><path fill="url(#paint7_radial)" d="M31.63 25a8.37 8.37 0 1116.74 0 8.37 8.37 0 01-16.74 0z"/><path fill="url(#paint8_radial)" d="M31.62 25H40V16.6A8.38 8.38 0 0031.62 25z"/><path fill="url(#paint9_radial)" d="M40 25v8.38A8.38 8.38 0 0048.38 25H40z"/><path fill="url(#paint10_radial)" d="M48.45 24.85h-8.3v-8.3h-.3v8.3h-8.3v.3h8.3v8.3h.3v-8.3h8.3v-.3z"/><path fill="url(#paint11_linear)" d="M40.15 16.78c4.42.08 7.99 3.64 8.07 8.07h.15a8.37 8.37 0 00-8.22-8.22v.15z"/><path fill="#C2D7E8" d="M31.77 24.85c.08-4.43 3.65-8 8.08-8.09v-.14a8.38 8.38 0 00-8.23 8.23h.15z"/><path fill="url(#paint12_linear)" d="M39.85 33.21a8.22 8.22 0 01-8.07-8.07h-.15a8.37 8.37 0 008.22 8.22v-.15z"/><path fill="#12404F" d="M48.22 25.14a8.22 8.22 0 01-8.07 8.07v.15a8.37 8.37 0 008.22-8.22h-.15z"/><path fill="url(#paint13_linear)" d="M39.7 16.62v8.06h-8.07v.16h8.22v-8.22h-.16z"/><path fill="url(#paint14_linear)" d="M39.68 33.28v-7.97h-7.99v-.15h8.15v8.12h-.16z"/><path fill="url(#paint15_linear)" d="M40.32 33.28v-7.97h7.97v-.15H40.16v8.12h.16z"/><path fill="url(#paint16_linear)" d="M40.32 16.69v7.97h7.97v.15H40.16V16.7h.16z"/><defs><radialGradient id="paint1_radial" cx="0" cy="0" r="1" gradientTransform="translate(25.83 11.92) scale(19.8871)" gradientUnits="userSpaceOnUse"><stop stop-color="#fff"/><stop offset=".31" stop-color="#A8A8A8"/><stop offset=".65" stop-color="#4F4F4F"/><stop offset=".89" stop-color="#161616"/><stop offset="1"/></radialGradient><radialGradient id="paint3_radial" cx="0" cy="0" r="1" gradientTransform="matrix(47.7856 0 0 47.7857 22.26 9.9)" gradientUnits="userSpaceOnUse"><stop stop-color="#fff"/><stop offset=".31" stop-color="#FDFDFD"/><stop offset=".45" stop-color="#F6F6F6"/><stop offset=".56" stop-color="#E9E9E9"/><stop offset=".65" stop-color="#D7D7D7"/><stop offset=".72" stop-color="#BFBFBF"/><stop offset=".79" stop-color="#A2A2A2"/><stop offset=".86" stop-color="gray"/><stop offset=".92" stop-color="#575757"/><stop offset=".97" stop-color="#2B2B2B"/><stop offset="1" stop-color="#141414"/></radialGradient><radialGradient id="paint4_radial" cx="0" cy="0" r="1" gradientTransform="translate(22.25 9.9) scale(47.7898)" gradientUnits="userSpaceOnUse"><stop stop-color="#fff"/><stop offset=".31" stop-color="#FDFDFD"/><stop offset=".45" stop-color="#F6F6F6"/><stop offset=".56" stop-color="#E9E9E9"/><stop offset=".65" stop-color="#D7D7D7"/><stop offset=".72" stop-color="#BFBFBF"/><stop offset=".79" stop-color="#A2A2A2"/><stop offset=".86" stop-color="gray"/><stop offset=".92" stop-color="#575757"/><stop offset=".97" stop-color="#2B2B2B"/><stop offset="1" stop-color="#141414"/></radialGradient><radialGradient id="paint5_radial" cx="0" cy="0" r="1" gradientTransform="matrix(47.8265 0 0 47.8264 22.25 9.88)" gradientUnits="userSpaceOnUse"><stop stop-color="#fff"/><stop offset=".31" stop-color="#FDFDFD"/><stop offset=".45" stop-color="#F6F6F6"/><stop offset=".56" stop-color="#E9E9E9"/><stop offset=".65" stop-color="#D7D7D7"/><stop offset=".72" stop-color="#BFBFBF"/><stop offset=".79" stop-color="#A2A2A2"/><stop offset=".86" stop-color="gray"/><stop offset=".92" stop-color="#575757"/><stop offset=".97" stop-color="#2B2B2B"/><stop offset="1" stop-color="#141414"/></radialGradient><radialGradient id="paint6_radial" cx="0" cy="0" r="1" gradientTransform="translate(30.82 16.52) scale(12.8893)" gradientUnits="userSpaceOnUse"><stop stop-color="#E6E6E6"/><stop offset=".1" stop-color="#D6D6D6"/><stop offset=".31" stop-color="#ADADAD"/><stop offset=".59" stop-color="#6C6C6C"/><stop offset=".93" stop-color="#121212"/><stop offset="1"/></radialGradient><radialGradient id="paint7_radial" cx="0" cy="0" r="1" gradientTransform="translate(34.34 18.26) scale(18.7447)" gradientUnits="userSpaceOnUse"><stop stop-color="#fff"/><stop offset=".34" stop-color="#FDFDFD"/><stop offset=".48" stop-color="#F6F6F6"/><stop offset=".58" stop-color="#EAEAEA"/><stop offset=".67" stop-color="#D8D8D8"/><stop offset=".74" stop-color="#C2C2C2"/><stop offset=".8" stop-color="#A6A6A6"/><stop offset=".86" stop-color="#848484"/><stop offset=".91" stop-color="#5F5F5F"/><stop offset=".95" stop-color="#404040"/><stop offset=".96" stop-color="#404040"/><stop offset="1"/></radialGradient><radialGradient id="paint8_radial" cx="0" cy="0" r="1" gradientTransform="translate(28.84 11.15) scale(33.1971)" gradientUnits="userSpaceOnUse"><stop offset=".17" stop-color="#fff"/><stop offset=".2" stop-color="#E0EFF7"/><stop offset=".24" stop-color="#B2D9EC"/><stop offset=".29" stop-color="#8BC5E2"/><stop offset=".34" stop-color="#6BB5DA"/><stop offset=".38" stop-color="#52A9D4"/><stop offset=".44" stop-color="#41A0CF"/><stop offset=".49" stop-color="#369BCD"/><stop offset=".56" stop-color="#39C"/><stop offset=".61" stop-color="#3396C8"/><stop offset=".66" stop-color="#328EBC"/><stop offset=".7" stop-color="#3180A8"/><stop offset=".75" stop-color="#2F6D8C"/><stop offset=".8" stop-color="#2D5468"/><stop offset=".85" stop-color="#2A373D"/><stop offset=".87" stop-color="#292929"/></radialGradient><radialGradient id="paint9_radial" cx="0" cy="0" r="1" gradientTransform="translate(28.84 11.15) scale(33.1964)" gradientUnits="userSpaceOnUse"><stop offset=".17" stop-color="#fff"/><stop offset=".2" stop-color="#E0EFF7"/><stop offset=".24" stop-color="#B2D9EC"/><stop offset=".29" stop-color="#8BC5E2"/><stop offset=".34" stop-color="#6BB5DA"/><stop offset=".38" stop-color="#52A9D4"/><stop offset=".44" stop-color="#41A0CF"/><stop offset=".49" stop-color="#369BCD"/><stop offset=".56" stop-color="#39C"/><stop offset=".61" stop-color="#3396C8"/><stop offset=".66" stop-color="#328EBC"/><stop offset=".7" stop-color="#3180A8"/><stop offset=".75" stop-color="#2F6D8C"/><stop offset=".8" stop-color="#2D5468"/><stop offset=".85" stop-color="#2A373D"/><stop offset=".87" stop-color="#292929"/></radialGradient><radialGradient id="paint10_radial" cx="0" cy="0" r="1" gradientTransform="translate(31 16.69) scale(12.6422)" gradientUnits="userSpaceOnUse"><stop stop-color="#E6E6E6"/><stop offset=".1" stop-color="#D6D6D6"/><stop offset=".31" stop-color="#ADADAD"/><stop offset=".59" stop-color="#6C6C6C"/><stop offset=".93" stop-color="#121212"/><stop offset="1"/></radialGradient><linearGradient id="paint0_linear" x1="23.96" x2="53.66" y1="9.49" y2="38.19" gradientUnits="userSpaceOnUse"><stop stop-color="#DFF4FF"/><stop offset=".1" stop-color="#D6EAF5"/><stop offset=".27" stop-color="#BFD0D9"/><stop offset=".49" stop-color="#98A5AC"/><stop offset=".75" stop-color="#646B6E"/><stop offset="1" stop-color="#2B2B2B"/></linearGradient><linearGradient id="paint2_linear" x1="50.22" x2="31.3" y1="34.87" y2="16.59" gradientUnits="userSpaceOnUse"><stop stop-color="#DFF4FF"/><stop offset=".09" stop-color="#D6EAF5"/><stop offset=".23" stop-color="#BED0D9"/><stop offset=".42" stop-color="#96A4AC"/><stop offset=".65" stop-color="#5F686D"/><stop offset=".91" stop-color="#1A1D1E"/><stop offset="1"/></linearGradient><linearGradient id="paint11_linear" x1="38.34" x2="50.67" y1="13.53" y2="25.44" gradientUnits="userSpaceOnUse"><stop stop-color="#F0F4FF"/><stop offset=".11" stop-color="#EBEFF9"/><stop offset=".25" stop-color="#DCE0EA"/><stop offset=".4" stop-color="#C4C7CF"/><stop offset=".57" stop-color="#A2A4AB"/><stop offset=".75" stop-color="#76777C"/><stop offset=".93" stop-color="#414243"/><stop offset="1" stop-color="#2B2B2B"/></linearGradient><linearGradient id="paint12_linear" x1="28.34" x2="40.66" y1="23.59" y2="35.5" gradientUnits="userSpaceOnUse"><stop stop-color="#F0F4FF"/><stop offset=".11" stop-color="#EBEFF9"/><stop offset=".25" stop-color="#DCE0EA"/><stop offset=".4" stop-color="#C4C7CF"/><stop offset=".57" stop-color="#A2A4AB"/><stop offset=".75" stop-color="#76777C"/><stop offset=".93" stop-color="#414243"/><stop offset="1" stop-color="#2B2B2B"/></linearGradient><linearGradient id="paint13_linear" x1="34.3" x2="40.69" y1="19.34" y2="25.52" gradientUnits="userSpaceOnUse"><stop stop-color="#C2D7E8"/><stop offset=".13" stop-color="#BACFE1"/><stop offset=".34" stop-color="#A4BACD"/><stop offset=".6" stop-color="#8098AC"/><stop offset=".89" stop-color="#4E697F"/><stop offset="1" stop-color="#3A566D"/></linearGradient><linearGradient id="paint14_linear" x1="31.1" x2="43.3" y1="20.85" y2="32.65" gradientUnits="userSpaceOnUse"><stop stop-color="#F0F4FF"/><stop offset=".1" stop-color="#E8EBF6"/><stop offset=".26" stop-color="#D1D4DD"/><stop offset=".46" stop-color="#ABAEB5"/><stop offset=".7" stop-color="#78797D"/><stop offset=".96" stop-color="#363637"/><stop offset="1" stop-color="#2B2B2B"/></linearGradient><linearGradient id="paint15_linear" x1="40.09" x2="44.38" y1="25.23" y2="29.36" gradientUnits="userSpaceOnUse"><stop stop-color="#D9DEF0"/><stop offset=".12" stop-color="#D4DAEC"/><stop offset=".26" stop-color="#C7CFE2"/><stop offset=".41" stop-color="#B0BCD1"/><stop offset=".57" stop-color="#90A1B8"/><stop offset=".72" stop-color="#677F99"/><stop offset=".88" stop-color="#355674"/><stop offset=".97" stop-color="#173D5D"/></linearGradient><linearGradient id="paint16_linear" x1="35.71" x2="47.91" y1="16.38" y2="28.16" gradientUnits="userSpaceOnUse"><stop stop-color="#F0F4FF"/><stop offset=".11" stop-color="#EBEFF9"/><stop offset=".25" stop-color="#DCE0EA"/><stop offset=".4" stop-color="#C4C7CF"/><stop offset=".57" stop-color="#A2A4AB"/><stop offset=".75" stop-color="#76777C"/><stop offset=".93" stop-color="#414243"/><stop offset="1" stop-color="#2B2B2B"/></linearGradient></defs></svg>