<svg xmlns="http://www.w3.org/2000/svg" width="80" height="50" fill="none" viewBox="0 0 80 50"><defs/><path fill="#000" d="M0 0h80v50H0z"/><path fill="#0086E7" d="M32.65 25.06V18.1h2.45v.78h-1.16v6.18h-1.3zm2.58 0l.67-6.96h2.04l.64 6.96H37.3l-.13-1.87h-.6l-.1 1.87h-1.23zm1.42-2.62h.51l-.26-3.48h-.05l-.2 3.48zm2.58.18h1.29v1.59l.05.18.15.05.16-.02.05-.08V22.18c0-.1-.03-.18-.1-.26-.08-.05-.2-.08-.42-.08h-.51v-.77h.51c.26 0 .4-.06.44-.13a.8.8 0 00.08-.4v-1.68c0-.05 0-.08-.05-.1a.13.13 0 00-.13-.08c-.08 0-.13.02-.16.07a.14.14 0 00-.07.13v1.4h-1.24v-1.16c0-.15.03-.3.05-.44.05-.19.13-.34.26-.47.13-.13.39-.24.7-.24h1.03c.36 0 .62.1.75.26.14.22.21.47.2.73v1.74l-.08.26a.81.81 0 01-.25.26c-.1.1-.26.13-.52.13v.1h.05c.26 0 .44.06.54.16a.73.73 0 01.26.5l.03.15v1.77c0 .46-.08.78-.26.9a.93.93 0 01-.62.24h-1.16l-.41-.05c-.16-.03-.29-.13-.42-.26-.13-.16-.2-.44-.2-.83v-1.41zm3.92 2.44V18.1h3v6.96h-1.3v-6.2h-.41v6.2h-1.3zm3.92 0V18.1h2.38c.16.05.3.15.4.29.14.16.22.44.22.86v2.26c0 .44-.08.72-.24.88a.84.84 0 01-.46.26h-.98v2.41h-1.32zm1.3-3.16h.12c.1 0 .18 0 .2-.08.06-.05.08-.13.08-.26V19.07l-.1-.13c-.02-.06-.08-.08-.18-.08h-.13v3.04zm5.67-2.68v4.99l-.05.23c-.02.19-.1.37-.2.52-.14.16-.37.23-.73.23H52c-.34 0-.54-.07-.67-.23a.84.84 0 01-.26-.47l-.02-.26v-5.22l.02-.23a.9.9 0 01.26-.55c.1-.18.34-.26.67-.26h1.06l.33.06c.16.02.29.13.44.28.13.18.18.5.18.91h.03zm-1.7-.26v5.2c0 .07 0 .13.05.18l.1.08h.05c.05 0 .1-.06.13-.08.05-.05.05-.1.05-.16V18.94c0-.06 0-.08-.05-.13a.18.18 0 00-.15-.06c-.06 0-.1 0-.13.06a.26.26 0 00-.05.18v-.03zm2.52 6.1V18.1h1.73l.83 4.55.88-4.57h1.67v6.96h-1.29v-4.36l-.72 4.38H56.9l-.77-4.36v4.36h-1.3.03zm-27.97-6.9v5.14c-1.88.08-4.67 1.74-3.61 5.27 1.19 3.82 6.79 2.94 6.94.08.1-1.04-1.24-3.01-3.35-1.46v-2.15h5v4.73a6.86 6.86 0 01-11.86-5.32 6.94 6.94 0 013.6-5.48c1.02-.54 2.14-.82 3.28-.81z"/><path fill="#0086E7" d="M29.4 12.03a11.22 11.22 0 000 12.6 11.22 11.22 0 000-12.6zm0 12.1a4.7 4.7 0 010-4.47 4.7 4.7 0 010 4.47zm0-9.1a12.5 12.5 0 00-1.32 5.41 11.05 11.05 0 011.32-7.53c1.41 2.6 1.7 4.86 1.34 7.53-.04-1.88-.5-3.72-1.34-5.4zm13.1 13.44h-.12v.8h.15c.18 0 .36-.08.36-.41 0-.31-.15-.4-.39-.4zm-8.05 1.24h-.13v.83h.13c.24 0 .39-.07.39-.38 0-.34-.18-.45-.36-.45h-.03z"/><path fill="#0086E7" d="M32.65 27.12v4.8H60v-4.8H32.65zm2.01 4h-1.11V27.9h1.75v.57h-.98v.67h.34c.46 0 .95.21.95.99 0 .83-.51.99-.95.99zm4.39-.73c-.16.62-.34.78-.88.78-.16 0-.34-.03-.39-.08v-.57l.18.02c.08 0 .16 0 .2-.1l-.74-2.54h.83l.33 1.87.39-1.87h.77l-.64 2.49h-.05zm3.69-.52h-.36v1.25h-.78V27.9h1.14c.44 0 .93.15.93.98 0 .78-.47.99-.93.99zm4.72-1.38h-1.03v.65h.93v.6h-.9v.78h1.02v.6h-1.8V27.9h1.8v.6h-.02zm3.97 2.63h-.77v-1.38h-.52v1.38h-.77V27.9h.77v1.24h.52V27.9h.77v3.22zm4.05 0h-.72v-1.59l-.51 1.59h-.78V27.9h.75v1.63l.52-1.63h.77v3.22h-.03zm3.85-2.6H58.3v.62h.93v.6h-.93v.78h1.03v.6h-1.8V27.9h1.8v.62z"/></svg>