<svg width="80" height="50" viewBox="0 0 80 50" fill="none" xmlns="http://www.w3.org/2000/svg">
<rect width="80" height="50" fill="black"/>
<path d="M17.3785 29.2805L17.3351 29.318C16.6365 29.9549 15.8279 30.2925 14.9946 30.2925C13.2554 30.2925 11.9929 29.125 11.9929 27.514C11.9929 25.9059 13.2554 24.7367 14.9946 24.7367C15.8279 24.7367 16.6365 25.0757 17.3351 25.7143L17.3785 25.753L18.497 24.5427L18.4671 24.5099C17.5369 23.5262 16.4208 23.0474 15.0486 23.0474C13.6717 23.0474 12.4131 23.462 11.506 24.2098C10.5204 25.0196 10 26.1617 10 27.514C10 28.8656 10.5204 30.0105 11.506 30.8205C12.4131 31.5718 13.6717 31.9841 15.0486 31.9841C16.4208 31.9841 17.5369 31.5056 18.4671 30.5215L18.497 30.491L17.3785 29.2805Z" fill="white"/>
<path d="M19.6272 31.8193H21.6032V23.1875H19.6272V31.8193V31.8193Z" fill="white"/>
<path d="M29.3434 29.9424C28.8163 30.2296 28.3256 30.374 27.885 30.374C27.2466 30.374 26.9581 30.0725 26.9581 29.4009V24.8209H28.9706V23.1954H26.9581V20.5096L25.0214 21.4371V23.1954H23.3506V24.8209H25.0214V29.6931C25.0214 31.0205 25.9001 31.9274 27.2118 31.9509C28.1025 31.9665 28.6394 31.7291 28.9655 31.5556L28.9846 31.5429L29.4603 29.8785L29.3434 29.9424V29.9424Z" fill="white"/>
<path d="M30.98 31.8193H32.9573V23.1875H30.98V31.8193V31.8193Z" fill="white"/>
<path d="M64.4726 19.9032V28.1371L65.0882 27.2797C65.0877 27.2835 67.8536 23.6994 68.2081 23.2424H69.4408C69.1784 23.5578 67.0037 26.2361 67.0037 26.2361C67.0037 26.2361 69.8365 31.5184 70.0002 31.8194H68.7896C68.7231 31.6961 66.2895 27.086 66.2895 27.086L64.4726 29.364V31.8194H63.3448V20.4796C63.4435 20.4289 64.2072 20.0371 64.4726 19.9032V19.9032ZM55.2083 24.2649C55.79 23.4867 56.7014 23.0576 57.7678 23.0576C59.8942 23.0576 61.0211 24.2712 61.0211 26.5676V31.8194H59.8905V26.785C59.8905 24.8313 59.1324 23.9244 57.4901 23.9244C55.9182 23.9244 54.9797 24.9942 54.9797 26.785V31.8194H53.8522V23.2424H54.9797V24.5725L55.2083 24.2649V24.2649ZM48.2766 23.0576C50.4647 23.0576 51.5284 23.953 51.5284 25.7954V31.8194H50.4006V30.568L50.1811 30.7846C49.3511 31.6041 48.3984 32.0048 47.2639 32.0048C46.375 32.0048 44.3067 31.7415 44.3067 29.2998C44.3067 27.304 46.1478 26.5956 47.8726 26.5956C48.7386 26.5956 49.5941 26.774 50.2149 27.0853L50.4006 27.1774V25.9461C50.4006 24.5809 49.6555 23.8895 48.1831 23.8895C47.2751 23.8895 46.4557 24.0945 45.6154 24.5183C45.5413 24.3659 45.2807 23.8503 45.2082 23.7032C46.0863 23.289 47.1707 23.0576 48.2766 23.0576ZM45.4127 29.2157C45.4127 30.4979 46.1551 31.2045 47.5039 31.2045C48.6519 31.2045 49.6715 30.7192 50.3793 29.8366L50.4006 29.8063V27.9258L50.3379 27.8933C49.618 27.5261 48.8807 27.378 47.7971 27.378C46.3053 27.378 45.4127 28.0648 45.4127 29.2157ZM36.7041 19.9032V24.4914L36.9225 24.2775C37.753 23.4566 38.6724 23.0576 39.7295 23.0576C41.8448 23.0576 43.059 24.6353 43.059 27.387C43.059 30.192 41.68 32.0048 39.545 32.0048C38.5047 32.0048 37.6717 31.6436 36.9236 30.8694L36.7041 30.6408V31.8194H35.5786V20.4796C35.6744 20.4289 36.4395 20.0371 36.7041 19.9032ZM36.7309 25.2387L36.7041 25.2704V29.7351L36.7243 29.7625C37.3464 30.624 38.3598 31.1392 39.4385 31.1392C41.1044 31.1392 41.9488 29.8827 41.9488 27.4053C41.9488 25.1921 41.0132 23.9244 39.3821 23.9244C38.3934 23.9244 37.5014 24.3664 36.7309 25.2387" fill="white"/>
<path fill-rule="evenodd" clip-rule="evenodd" d="M34.1408 21.656C32.332 19.3633 29.328 17.9954 26.2718 17.9954C23.2167 17.9954 20.2122 19.3633 18.4064 21.656L18.3137 21.7739H20.5913L20.6165 21.7495C22.1667 20.3177 24.1903 19.5606 26.2718 19.5606C28.3535 19.5606 30.3767 20.3177 31.9298 21.7495L31.955 21.7739H34.2319L34.1408 21.656Z" fill="#D9261C"/>
</svg>
