<svg xmlns="http://www.w3.org/2000/svg" width="80" height="50" fill="none" viewBox="0 0 80 50"><defs/><path fill="#000" d="M0 0h80v50H0z"/><path fill="#F40009" d="M54.12 29.54l-.12.1c-.18.17-.36.34-.59.25-.06-.02-.1-.1-.11-.17-.01-.45.2-.88.4-1.29l.05-.1c.57-.96 1.24-2.1 2.22-2.88.16-.12.34-.22.53-.14.04.04.1.11.1.18a.3.3 0 01-.04.1l-.79 1.36c-.5.88-1 1.79-1.65 2.59zm-5.3-2.26c-.04.02-.7-.2-.83-.81-.11-.53.25-.94.6-1.15a.6.6 0 01.55-.1c.15.1.2.29.2.49l-.03.36v.03c-.12.41-.29.82-.5 1.18zm-2.53 2.49a.59.59 0 01-.1-.33c0-.73.78-2.03 1.33-2.74.23.5.76.83 1.07.97-.39.88-1.74 2.75-2.3 2.1zm9.55.13c-.13.09-.32.02-.25-.19.17-.52.85-1.57.85-1.57l1.9-3.37h-1.3l-.2.33c-.05-.1-.23-.32-.3-.37-.32-.2-.79-.1-1.11.08-1.4.82-2.42 2.43-3.22 3.69 0 0-.85 1.4-1.32 1.5-.36.03-.33-.46-.31-.58.14-.83.47-1.62.8-2.34a21.48 21.48 0 005.13-5.22s-.2.05-.44.05c-1.17 1.64-3.56 4-4.28 4.36.32-.78 2.4-4.46 4.16-6.23l.28-.26c.43-.42.87-.85 1.22-.93.04 0 .08 0 .12.09.02.33-.1.57-.24.84l-.2.4s.28-.05.46-.1c.21-.4.45-.85.36-1.38a.4.4 0 00-.31-.33c-.53-.1-1.1.29-1.57.6l-.02.01c-2.37 1.87-4.38 4.55-6.13 8.2-.13.1-.62.22-.7.16.17-.35.4-.83.5-1.35.02-.15.04-.3.04-.45 0-.32-.08-.62-.37-.83-.33-.17-.75-.09-1.03.04-1.25.52-2.19 1.8-2.86 2.86-.37.67-.73 1.4-.83 2.22-.07.64.07 1.06.44 1.27.38.2.86 0 1.04-.1 1.27-.67 2.16-2.01 2.86-3.24.03 0 .4-.01.7-.09 0 .06-.16.5-.16.5-.44 1.3-.65 2.19-.23 2.71.6.74 1.6-.02 2.4-1.03-.18 1.2.45 1.4.93 1.3a3.83 3.83 0 001.45-1.03c-.1.35-.07.98.43 1.05.34.06.6-.13.9-.29 1.06-.58 2.33-2.5 2.66-3.07h-.43c-.47.71-1.07 1.65-1.82 2.09zm-16.4-7.21h1.22l.7-1.12h-1.23l-.68 1.12zm19.46-2.97c-.93.53-1.9.87-3.06.75-.32.37-.63.74-.92 1.13 1.63.42 3.36-.51 4.33-1.39 1.02-.89 1.55-2 1.55-2s-.77.87-1.9 1.51zm-10.24-.28c-.2 2.22-1.92 3.53-2.35 3.63-.26.05-.7-.06-.3-1a6.2 6.2 0 012.63-2.86c.03.09.03.15.02.23zm-3.36 5.6a.75.75 0 00-.73-.42c-1.02.1-2.01.93-2.54 2.13a6.1 6.1 0 00-.52 1.93c.32-.36.96-.96 1.7-1.29 0 0 .1-.77.6-1.46.2-.29.58-.75 1-.63.39.13.25 1.17-.25 2.18a7 7 0 01-1.5 2c-.52.43-1.27.95-1.92.55-.42-.25-.63-.76-.58-1.42.2-1.87 1.05-3.47 2.27-5.3 1.26-1.68 2.65-3.42 4.52-4.34.38-.2.73-.24 1.04-.12 0 0-1.76.97-2.6 2.75-.2.46-.5 1.07-.2 1.61.15.28.43.3.65.29 1.02-.24 1.69-1.2 2.23-2.07a4.83 4.83 0 00.58-2.36c.49-.26 1.5.2 1.5.2.78.26 2.45 1.54 3.02 1.79.27-.32.72-.8.98-1.05l-.37-.22c-.59-.36-1.21-.7-1.83-1.04a3.66 3.66 0 00-3.1-.29l-.44.15c-.43-.46-1.13-.42-1.65-.3-1.86.54-3.6 1.84-5.45 4.1a14.98 14.98 0 00-2.66 4.82c-.34 1.02-.45 2.51.4 3.4.72.75 1.68.6 2.35.32a7.45 7.45 0 003.43-4.06c.16-.53.34-1.28.07-1.85zm-16.22-1.72l-.25.57c-.03.03-.09.01-.15 0l-.11-.02c-.35-.11-.61-.34-.7-.61-.1-.54.35-.96.55-1.11.2-.13.5-.2.67-.07.11.13.15.3.15.47 0 .24-.07.51-.16.77zm-.53 1.07l-.01.04-.56.91c-.34.45-.76 1.02-1.29 1.29-.15.05-.37.08-.48-.05-.23-.28-.1-.67-.01-.98l.03-.11a9.24 9.24 0 011.18-2.06v.01c.27.52.78.77 1.16.88l-.02.07zm6.98-.6c.25-.35.98-1.27 1.15-1.43.6-.52.84-.29.86-.13a117.56 117.56 0 01-2.02 3.46c-.28.41-.55.77-1 1.02-.06.02-.17.02-.24-.03a.25.25 0 01-.1-.24c.02-.32.35-1.3 1.35-2.65zm-6.18-2.26c-.77-.5-2.32.46-3.56 2.12-1.13 1.48-1.62 3.21-1.09 4.01.8.94 2.26-.43 2.89-1.16l.08-.08c.42-.46.75-1.01 1.07-1.54 0 0 .3-.48.3-.5l.65-.16c0 .01-.94 1.58-.84 2.36.03.24 0 1.1.85 1.37 1.13.2 2.04-.68 2.83-1.46l.22-.2-.05.17c-.33 1.15.12 1.4.4 1.49.84.24 1.85-.98 1.85-.98-.03.38-.1.7.3.96.39.13.78-.08 1.07-.27a11.45 11.45 0 002.62-2.94h-.44s-1.1 1.57-1.8 1.91c0 0-.13.07-.2.02-.1-.08-.06-.24 0-.36l2.72-4.72h-1.28l-.15.24-.05-.06c-.8-1.1-2.6.6-3.95 2.55-.52.76-1.18 1.6-1.87 2.22 0 0-1.02.93-1.46.26-.16-.28-.1-.7-.02-.97a8.03 8.03 0 012.38-3.54c.28-.22.59-.28.74-.2.14.1.16.3.07.45a.72.72 0 00-.57.22c-.3.31-.4.61-.3.9.46.65 1.37-.64 1.33-1.43a.85.85 0 00-.4-.68c-.33-.2-.84-.15-1.17.01-.44.17-1.14.75-1.55 1.2-.52.57-1.4 1.2-1.67 1.13.09-.24.83-1.77.05-2.34zm6.44 8.27c-1.5-.98-3.56-1.15-6.86-.23-3.53.83-4.7 1.36-6.25.3-.59-.53-.8-1.37-.64-2.59.37-1.98 1.36-3.88 3.13-6 .98-1.1 1.9-2.04 3.1-2.42.93-.24.85.5.73.6a.9.9 0 00-.47.12c-.12.1-.46.4-.48.82-.03.65.64.51.92.16.31-.4.77-1.16.41-1.87a1.06 1.06 0 00-.73-.48c-1.1-.07-2.14.46-3.09 1.04a13.5 13.5 0 00-4.68 5.64c-.55 1.32-1.04 3.22-.3 4.76.57 1.07 1.75 1.63 3.16 1.52.99-.1 2.18-.43 2.99-.62.8-.2 4.92-1.6 6.27.85 0 0 .45-.87 1.57-.89.93-.08 2.26.27 3.23.98a8.2 8.2 0 00-2-1.7z"/></svg>