<svg width="80" height="50" viewBox="0 0 80 50" fill="none" xmlns="http://www.w3.org/2000/svg">
<rect width="80" height="50" fill="black"/>
<path d="M25.3118 20.5955C22.4218 20.5955 20.0137 21.8215 20.0137 25.5204C20.0137 28.4508 21.633 30.2962 25.3864 30.2962C29.8043 30.2962 30.0875 27.386 30.0875 27.386H27.9468C27.9468 27.386 27.4878 28.953 25.2558 28.953C23.4379 28.953 22.1303 27.7249 22.1303 26.0036H30.3114V24.9235C30.3114 23.2205 29.2303 20.5955 25.3118 20.5955V20.5955ZM25.2371 21.9759C26.9676 21.9759 28.1473 23.0361 28.1473 24.625H22.1777C22.1777 22.9382 23.7175 21.9759 25.2371 21.9759V21.9759Z" fill="#E53238"/>
<path d="M30.3098 17.0137V28.4386C30.3098 29.0871 30.2635 29.9977 30.2635 29.9977H32.3053C32.3053 29.9977 32.3786 29.3437 32.3786 28.746C32.3786 28.746 33.3874 30.3242 36.1303 30.3242C39.0187 30.3242 40.9806 28.3189 40.9806 25.4458C40.9806 22.7731 39.1785 20.6235 36.1349 20.6235C33.2849 20.6235 32.3992 22.1625 32.3992 22.1625V17.0137H30.3098ZM35.6079 22.0366C37.5694 22.0366 38.8166 23.4923 38.8166 25.4458C38.8166 27.5406 37.3761 28.911 35.6219 28.911C33.5285 28.911 32.3992 27.2765 32.3992 25.4645C32.3992 23.776 33.4125 22.0366 35.6079 22.0366Z" fill="#0064D2"/>
<path d="M46.0548 20.5955C41.7071 20.5955 41.4283 22.976 41.4283 23.3564H43.5923C43.5923 23.3564 43.7058 21.9666 45.9056 21.9666C47.335 21.9666 48.4427 22.6209 48.4427 23.8788V24.3265H45.9056C42.5374 24.3265 40.7567 25.3118 40.7567 27.3113C40.7567 29.2791 42.402 30.3498 44.6253 30.3498C47.6554 30.3498 48.6315 28.6755 48.6315 28.6755C48.6315 29.3414 48.6829 29.9977 48.6829 29.9977H50.6067C50.6067 29.9977 50.532 29.1843 50.532 28.6638V24.1656C50.532 21.2162 48.153 20.5955 46.0548 20.5955V20.5955ZM48.4427 25.6697V26.2666C48.4427 27.0452 47.9622 28.981 45.1337 28.981C43.5848 28.981 42.9207 28.208 42.9207 27.3113C42.9207 25.6802 45.1571 25.6697 48.4427 25.6697V25.6697Z" fill="#F5AF02"/>
<path d="M49.3668 20.969H51.8013L55.2952 27.9687L58.7811 20.969H60.9864L54.6369 33.4307H52.3237L54.1559 29.9568L49.3668 20.969Z" fill="#86B817"/>
</svg>
