<svg xmlns="http://www.w3.org/2000/svg" width="80" height="50" fill="none" viewBox="0 0 80 50"><defs/><path fill="#000" d="M0 0h80v50H0z"/><path fill="#fff" d="M21.84 24.94h-1.68L15.21 19v4.35a1.58 1.58 0 00-1.61 1.6h-3.3l4.94 5.93v-4.37a1.6 1.6 0 01-.94-.55 1.6 1.6 0 01.06-2.1c.27-.29.64-.47 1.04-.51.4.04.78.22 1.05.52.27.29.42.67.42 1.07h3.27l-4.07 4.93.86 1.01 5.52-5.94L16.93 19l4.91 5.94z"/><path fill="#fff" d="M13.52 19L8 24.94l5.52 5.94-4.93-5.94h1.72l4.07-4.9-.86-1.04zM70.43 22.93l-1.98 2.55-1.97-2.55h-.93v4.4h1.2V24.8l1.55 2.02h.3l1.56-2.02v2.53h1.19v-4.4h-.92zM59.97 25.88v-2.95h-1.2v4.4h.93s3.1-2.67 3.4-2.95v2.95h1.2v-4.4h-.93l-3.4 2.95zM57.4 22.19H55.8L54.3 23.8l-1.54-1.62h-1.83l2.52 2.5L51 27.32h1.65s1.5-1.72 1.65-1.85c.15.14 1.78 1.85 1.78 1.85h1.87l-2.8-2.78 2.26-2.35zM50 23.18c-.27-.19-.6-.28-.93-.25h-3.2c-.31-.04-.62.04-.88.22-.18.26-.27.57-.23.89v2.21c-.02.3.06.6.24.85.26.2.6.3.93.25h3.16c.33.04.65-.05.91-.24.17-.23.26-.51.24-.8v-2.25c.03-.31-.06-.62-.24-.88zm-.95 3.15h-3.13v-2.4h3.12v2.4zM42.7 22.93h-3.8v4.4h1.2V25.7h2.61c.28.02.56-.05.8-.2a.89.89 0 00.25-.73v-.92c0-.42-.12-.92-1.06-.92zm-.08 1.6a.2.2 0 01-.06.18.45.45 0 01-.23.06h-2.25v-.88h2.18c.1 0 .24 0 .3.06a.18.18 0 01.05.17l.01.4zM37.35 25.07c.09-.04.16-.1.24-.15a.74.74 0 00.22-.56v-.51a.87.87 0 00-.25-.68 1.2 1.2 0 00-.83-.24h-3.78v4.4h3.57c.33.02.65-.06.93-.2a.82.82 0 00.38-.72v-.53a.9.9 0 00-.25-.63 1.44 1.44 0 00-.23-.18zm-3.2-1.24h2.11c.24 0 .28.05.28.05a.18.18 0 01.06.15v.37a.17.17 0 01-.04.14c-.1.05-.2.07-.31.06h-2.12v-.77h.01zm2.5 2.28c0 .07-.02.15-.06.2-.03.04-.1.07-.28.07h-2.15v-.87h2.13a.5.5 0 01.31.06.27.27 0 01.06.22v.31h-.01zM27.78 25.18h2.31v-1.05h-2.3v-.9h3.94V22.2H26.4v5.13h5.36V26.2h-4v-1.03h.01z"/></svg>