<svg width="80" height="50" viewBox="0 0 80 50" fill="none" xmlns="http://www.w3.org/2000/svg">
<rect width="80" height="50" fill="black"/>
<path d="M21.4369 21H13V22.5998H21.4369V21Z" fill="#FCB53B"/>
<path d="M21.4369 24.1997H13V25.7995H21.4369V24.1997Z" fill="#F57F29"/>
<path d="M21.4369 27.3993H13V28.9991H21.4369V27.3993Z" fill="#E32213"/>
<path d="M54.2226 22.6013L55.5553 25.7978H52.8861L54.2226 22.6013ZM52.9296 21.0009L49.6909 28.9999H51.6252L52.2586 27.3966L56.1867 27.3981L56.82 28.9999H58.744L55.3168 21.0009H52.9296Z" fill="white"/>
<path d="M24.8109 21.0009V28.9999H31.7329V27.4011L26.5029 27.3983V25.7995H31.7329V24.1966H26.5029V22.6018L31.7329 22.5965V21.0009H24.8109Z" fill="white"/>
<path d="M59.9135 28.9936H63.1848H64.4832C65.8457 28.9936 67 28.1154 67 26.6193C67 26.0027 66.7505 25.3977 65.9719 24.9973C66.8732 24.5 67 23.9918 67 23.3752C67 22.0738 65.8457 21.0009 64.4832 21.0009H63.1848H59.9135V22.6276H64.4046C64.863 22.6276 65.2345 22.9799 65.2345 23.4145C65.2345 23.8491 64.863 24.2014 64.4046 24.2014H63.5079H60.7549V25.793H63.5079H64.4046C64.863 25.793 65.2345 26.1454 65.2345 26.5799C65.2345 27.0145 64.863 27.3669 64.4046 27.3669H59.9135V28.9936H59.9135Z" fill="white"/>
<path d="M47.3575 21.0009H46.0591H42.7034V28.9999H44.3917V25.793H46.3822H47.3575C48.7533 25.793 49.8847 24.7203 49.8847 23.3969C49.8847 22.0736 48.7533 21.0009 47.3575 21.0009ZM47.2789 24.2014H44.3894V22.6276H47.2789C47.7372 22.6276 48.1088 22.9799 48.1088 23.4145C48.1088 23.8491 47.7372 24.2014 47.2789 24.2014Z" fill="white"/>
<path d="M39.8651 24.9972C40.7663 24.4999 40.8932 23.9918 40.8932 23.3752C40.8932 22.0738 39.7389 21.0009 38.3763 21.0009L38.3764 21.0009C38.376 21.0009 38.3757 21.0009 38.3753 21.0009H33.7634V28.9936H38.4597C39.8222 28.9936 40.9766 28.1154 40.9766 26.6193C40.9766 26.0027 40.6436 25.3978 39.8651 24.9972ZM35.4493 22.6277H38.2967C38.7551 22.6277 39.1266 22.9799 39.1266 23.4145C39.1266 23.8491 38.7551 24.2014 38.2967 24.2014H37.4422H35.4493V22.6277ZM38.3811 27.3669H35.4493V25.793H38.3811C38.8394 25.793 39.211 26.1454 39.211 26.5799C39.211 27.0145 38.8394 27.3669 38.3811 27.3669Z" fill="white"/>
</svg>
