<svg xmlns="http://www.w3.org/2000/svg" width="80" height="50" fill="none" viewBox="0 0 80 50"><defs/><path fill="#000" d="M0 0h80v50H0z"/><path fill="#fff" fill-rule="evenodd" d="M8.08 26.4s1.95.03 2.83.18c2.8.5 2.9 3.08 2.9 3.08s-.45.03-1.65.03c-2.81 0-4.08-3.28-4.08-3.28zm11.86 0s-1.95.03-2.83.18c-2.8.5-2.9 3.08-2.9 3.08s.45.03 1.65.03c2.81 0 4.08-3.28 4.08-3.28zm-4.88-.3c0 .57-.47 1.02-1.05 1.02-.58 0-1.05-.45-1.05-1.01s.47-1.02 1.05-1.02c.58 0 1.05.46 1.05 1.02zm2.14-1c0 .57-.47 1.02-1.05 1.02-.58 0-1.05-.45-1.05-1.01s.47-1.02 1.05-1.02c.58 0 1.05.46 1.05 1.02zm-.96-4.04c0 .56-.46 1.02-1.04 1.02-.58 0-1.05-.46-1.05-1.02s.47-1.02 1.05-1.02c.58 0 1.04.46 1.04 1.02zm-2.37 0c0 .56-.47 1.02-1.05 1.02-.58 0-1.04-.46-1.04-1.02s.46-1.02 1.04-1.02c.58 0 1.05.46 1.05 1.02zm-.95 4.05c0 .56-.47 1.01-1.05 1.01-.58 0-1.05-.45-1.05-1.01s.47-1.02 1.05-1.02c.58 0 1.05.46 1.05 1.02zm4.8-2.25c0 .56-.46 1.02-1.04 1.02-.58 0-1.05-.46-1.05-1.02s.47-1.01 1.05-1.01c.58 0 1.05.45 1.05 1.01zm-5.33 0c0 .56-.47 1.02-1.05 1.02-.58 0-1.05-.46-1.05-1.02s.47-1.01 1.05-1.01c.58 0 1.05.45 1.05 1.01zm12.77 5.93c-1.14 0-3.13-.31-3.13-2.57 0-2.23 1.99-2.61 3.13-2.57v-.71H27v.7c1.14-.03 3.13.35 3.13 2.58 0 2.26-2 2.58-3.13 2.57v.9h-1.85v-.9zm.13-3.86c-.47 0-1.4.15-1.4 1.29 0 1.14.93 1.3 1.4 1.28v-2.57zm1.59 2.57c.46.01 1.4-.14 1.4-1.28 0-1.14-.94-1.3-1.4-1.29v2.57zm3.94-1.03c0-1.71 1.14-3.4 3.56-3.4 2.43 0 3.56 1.69 3.56 3.4 0 1.72-1.13 3.4-3.56 3.4-2.42 0-3.56-1.68-3.56-3.4zm5.21 0c0-1.24-.78-1.85-1.65-1.85-.86 0-1.64.61-1.64 1.85 0 1.24.78 1.86 1.64 1.86.87 0 1.65-.62 1.65-1.86zm7.78 2.92c-.6.4-1.22.48-1.8.48a3.23 3.23 0 01-3.38-3.4c0-2.15 1.56-3.4 3.36-3.4.59 0 1.26.15 1.82.52v1.86a2.1 2.1 0 00-1.57-.77c-1.03 0-1.7.8-1.7 1.85 0 .97.64 1.73 1.7 1.73.69 0 1.23-.35 1.57-.7v1.83zm2.84-6.13h2.25l2.36 6.43h-2l-.36-1.11h-2.25l-.37 1.1h-2l2.37-6.42zm.36 3.9h1.52l-.76-2.37-.76 2.37zm4.9-3.9h3.97v1.54h-2.12v4.89H51.9v-6.43zm4.7 0h2.8c1.88 0 2.4 1.27 2.4 2.15 0 .89-.53 2.16-2.4 2.16h-.94v2.12H56.6v-6.43zm1.86 2.9H59c.82 0 .9-.48.9-.75 0-.32-.1-.74-.9-.74h-.53v1.48zm3.97.31c0-1.71 1.14-3.4 3.57-3.4 2.42 0 3.56 1.69 3.56 3.4 0 1.72-1.14 3.4-3.56 3.4-2.43 0-3.57-1.68-3.57-3.4zm5.21 0c0-1.24-.78-1.85-1.64-1.85-.87 0-1.65.61-1.65 1.85 0 1.24.78 1.86 1.65 1.86.86 0 1.64-.62 1.64-1.86zM72 23.96a1 1 0 01-1.05 1.01 1 1 0 01-1.05-1.01 1 1 0 011.05-1.02A1 1 0 0172 23.96zm-1.92 0c0 .49.36.86.87.86.52 0 .88-.37.88-.86 0-.5-.36-.87-.88-.87a.85.85 0 00-.87.87zm.82-.6c.14 0 .44.03.44.36 0 .18-.11.3-.27.33l.4.5h-.25l-.36-.47h-.06v.46h-.2v-1.18h.3zm-.1.53h.08c.09 0 .25 0 .25-.17s-.17-.17-.25-.17h-.08v.34z" clip-rule="evenodd"/></svg>