<svg width="80" height="50" viewBox="0 0 80 50" fill="none" xmlns="http://www.w3.org/2000/svg"><path fill="#000" d="M0 0h80v50H0z"/><path fill-rule="evenodd" clip-rule="evenodd" d="M50.57 22.64c-.3-.17-.64-.23-1-.23-1.64 0-2.47.95-2.44 2.84 0 .95.2 1.67.64 2.16.4.49 1.03.72 1.83.72.73 0 1.3-.2 1.73-.59.4-.4.64-.98.64-1.73v-5.92c0-.1-.04-.2-.1-.26a.38.38 0 00-.27-.1c-.1 0-.2.03-.27.1a.37.37 0 00-.1.26v3.3c-.16-.23-.36-.39-.66-.55zm.63 1.53v1.64c0 .52-.13.95-.43 1.24-.3.3-.67.43-1.17.43-1.13 0-1.7-.76-1.7-2.2 0-1.43.57-2.15 1.7-2.15a1.29 1.29 0 01.72.15c.15.07.27.13.35.2.1.1.2.2.3.33l.12.19c.01.04.03.06.04.07.04.04.07.07.07.1z" fill="#fff"/><path d="M25.6 23.55h.43v4.15c0 .1.07.2.14.27.06.06.16.1.26.1s.2-.04.27-.1a.3.3 0 00.13-.27v-4.15h1.14c.1 0 .2-.03.26-.1.07-.06.1-.16.1-.26s-.03-.2-.1-.26a.38.38 0 00-.26-.1h-1.14v-1.01c0-.43.1-.75.34-.98.2-.23.53-.36 1-.36.1 0 .2-.03.26-.1.07-.06.1-.16.1-.26s-.03-.2-.1-.26a.38.38 0 00-.26-.1c-.7 0-1.24.2-1.6.59-.37.39-.54.88-.54 1.47v1.01h-.43c-.1 0-.2.04-.27.1a.37.37 0 00-.1.26c0 .1.04.2.1.26.07.07.17.1.27.1zM30.43 23.39v-.52c0-.1-.03-.2-.1-.27a.38.38 0 00-.26-.1c-.1 0-.2.04-.27.1a.37.37 0 00-.1.27v4.83c0 .1.03.2.1.27.07.06.17.1.27.1s.2-.04.26-.1c.07-.07.1-.17.1-.27v-2.68c0-.55.14-1.01.44-1.34.3-.32.73-.49 1.26-.49.1 0 .2-.06.27-.13.07-.06.1-.16.1-.26s-.03-.2-.1-.26a.38.38 0 00-.27-.1c-.43 0-.76.1-1.06.26-.3.17-.5.4-.64.69zM33.73 21.36c-.3 0-.46-.16-.46-.46 0-.32.16-.49.46-.49.3 0 .47.17.47.5 0 .32-.17.45-.47.45zM34.13 22.87v4.83c0 .1-.03.2-.1.27a.38.38 0 01-.26.1c-.1 0-.2-.04-.27-.1a.37.37 0 01-.1-.27v-4.83c0-.1.03-.2.1-.27.07-.06.17-.1.27-.1s.2.04.26.1l.02.04c.04.07.08.15.08.23z" fill="#fff"/><path fill-rule="evenodd" clip-rule="evenodd" d="M36.1 23.16a3.2 3.2 0 00-.67 2.12c0 .95.2 1.67.67 2.1.47.49 1.1.72 1.93.72.8 0 1.44-.2 1.9-.66.1-.06.14-.2.14-.26a.35.35 0 00-.1-.23.3.3 0 00-.24-.1c-.1 0-.16.04-.23.07-.47.36-.97.52-1.47.52-.56 0-1-.16-1.33-.52-.33-.33-.5-.82-.5-1.4h3.63c.1 0 .2-.04.27-.07.07-.03.1-.1.13-.2l.02-.14.02-.09v-.26c0-.17-.03-.32-.06-.48l-.01-.07c-.03-.2-.1-.4-.2-.63a1.85 1.85 0 00-1.07-1 3.2 3.2 0 00-1-.17c-.76 0-1.4.26-1.83.75zm1.8-.07c1.03 0 1.57.6 1.57 1.74H36.2c.03-.56.2-.98.5-1.28.27-.3.67-.46 1.2-.46z" fill="#fff"/><path d="M43.73 22.4c1.5 0 2.24.7 2.24 2.13v3.17c0 .1-.04.2-.1.27a.38.38 0 01-.27.1c-.1 0-.2-.04-.27-.1a.37.37 0 01-.1-.27v-3.04c0-.52-.1-.91-.3-1.17-.2-.26-.6-.4-1.13-.4-1.07 0-1.6.56-1.6 1.67v2.94c0 .1-.03.2-.1.27a.38.38 0 01-.27.1c-.1 0-.2-.04-.26-.1a.37.37 0 01-.1-.27v-4.83c0-.1.03-.2.1-.27.06-.06.16-.1.26-.1s.2.04.27.1c.07.07.1.17.1.27v.39c.13-.23.33-.43.6-.6.23-.15.57-.25.93-.25zM57.8 27.8l-1.13-3.79-1.14 3.8c-.06.19-.16.25-.36.25-.17 0-.3-.1-.37-.26L53 23c-.03-.07-.03-.13-.03-.17 0-.1.03-.2.1-.26.06-.06.16-.1.26-.1.17 0 .3.1.37.26l1.4 3.96 1.17-3.96c.03-.16.16-.26.36-.26.2 0 .3.1.37.26l1.17 3.96 1.4-3.96c.06-.16.2-.26.36-.26.1 0 .2.04.27.1.07.07.1.16.1.26 0 .04 0 .1-.03.17l-1.8 4.8c-.07.17-.2.26-.37.26-.1.04-.23-.06-.3-.26z" fill="#fff"/><path fill-rule="evenodd" clip-rule="evenodd" d="M63.2 22.4c-.8 0-1.43.24-1.87.73a3.17 3.17 0 00-.66 2.15c0 .95.23 1.67.66 2.16.44.5 1.07.72 1.87.72s1.43-.23 1.87-.72c.43-.49.66-1.2.66-2.16 0-.98-.23-1.66-.66-2.15-.44-.5-1.07-.72-1.87-.72zm1.8 2.85c0 1.47-.6 2.2-1.77 2.2-1.16 0-1.76-.73-1.76-2.2 0-1.44.6-2.16 1.76-2.16 1.17 0 1.77.72 1.77 2.16z" fill="#fff"/><path d="M67.77 22.87v.52c.13-.3.33-.52.63-.69.3-.16.63-.26 1.07-.26.1 0 .2.03.26.1.07.06.1.16.1.26s-.03.2-.1.26a.38.38 0 01-.26.1c-.54 0-.97.16-1.27.49-.3.33-.43.78-.43 1.34v2.68c0 .1-.04.2-.1.26a.38.38 0 01-.27.1c-.1 0-.2-.03-.27-.1a.37.37 0 01-.1-.26v-4.8c0-.1.04-.2.1-.27.07-.06.17-.1.27-.1s.2.04.27.1c.06.07.1.17.1.27zM74.27 27.93c.1.1.2.17.33.17.1 0 .2-.04.3-.17.07-.06.1-.16.1-.26a.3.3 0 00-.1-.23l-2.17-2.71 2-1.57c.1-.07.17-.16.17-.3 0-.1-.03-.2-.1-.26a.38.38 0 00-.27-.1c-.1 0-.2.04-.26.1l-2.87 2.3v-5.01c0-.1-.03-.2-.1-.26a.38.38 0 00-.27-.1c-.1 0-.2.03-.26.1a.37.37 0 00-.1.26v7.85c0 .1.03.2.1.26.06.06.16.1.26.1s.2-.04.27-.1c.07-.07.1-.17.1-.26V25.8l.73-.6 2.14 2.72z" fill="#fff"/><path d="M19.67 19.86c-.14-.2-.1-.43.06-.62.2-.23.54-.23.74 0a8.31 8.31 0 011.83 6.11 8.66 8.66 0 01-7.87 7.62 8.62 8.62 0 01-9.4-9.39 8.68 8.68 0 0110.04-7.51c.3.06.46.36.36.65v.03a.44.44 0 01-.5.33 8.13 8.13 0 00-2.66.03 7.6 7.6 0 00-6.24 6.87 7.6 7.6 0 008.07 8.04 7.63 7.63 0 007.2-6.93c.13-2-.5-3.83-1.63-5.23z" fill="url(#paint0_linear)"/><path d="M19.67 19.86c-.14-.2-.1-.43.06-.62.2-.23.54-.23.74 0a8.31 8.31 0 011.83 6.11 8.66 8.66 0 01-7.87 7.62 8.62 8.62 0 01-9.4-9.39 8.68 8.68 0 0110.04-7.51c.3.06.46.36.36.65v.03a.44.44 0 01-.5.33 8.13 8.13 0 00-2.66.03 7.6 7.6 0 00-6.24 6.87 7.6 7.6 0 008.07 8.04 7.63 7.63 0 007.2-6.93c.13-2-.5-3.83-1.63-5.23z" fill="#09B0E7"/><path d="M17.8 19.27c.92 0 1.67-.73 1.67-1.64 0-.9-.75-1.63-1.67-1.63-.92 0-1.67.73-1.67 1.63 0 .9.75 1.64 1.67 1.64z" fill="url(#paint1_linear)"/><path d="M17.8 19.27c.92 0 1.67-.73 1.67-1.64 0-.9-.75-1.63-1.67-1.63-.92 0-1.67.73-1.67 1.63 0 .9.75 1.64 1.67 1.64z" fill="#09B0E7"/><path d="M11 22.87c0 .9-.75 1.63-1.67 1.63-.92 0-1.66-.73-1.66-1.63 0-.9.74-1.64 1.66-1.64.92 0 1.67.73 1.67 1.64z" fill="url(#paint2_linear)"/><path d="M11 22.87c0 .9-.75 1.63-1.67 1.63-.92 0-1.66-.73-1.66-1.63 0-.9.74-1.64 1.66-1.64.92 0 1.67.73 1.67 1.64z" fill="#09B0E7"/><path d="M15.33 24.5c0 .9-.74 1.63-1.66 1.63-.92 0-1.67-.73-1.67-1.63 0-.9.75-1.63 1.67-1.63.92 0 1.66.73 1.66 1.63z" fill="url(#paint3_linear)"/><path d="M15.33 24.5c0 .9-.74 1.63-1.66 1.63-.92 0-1.67-.73-1.67-1.63 0-.9.75-1.63 1.67-1.63.92 0 1.66.73 1.66 1.63z" fill="#09B0E7"/><path d="M11.9 21a3.96 3.96 0 012.23-.39c1.84.2 3.3 1.63 3.5 3.43a3.94 3.94 0 01-3.96 4.38 3.94 3.94 0 01-3.7-2.45c-.1-.26.03-.52.3-.62a.5.5 0 01.63.26 3.06 3.06 0 002.8 1.87c1.77 0 3.17-1.5 2.97-3.27a2.98 2.98 0 00-4.3-2.33c-.27.1-.54 0-.67-.22-.13-.23-.03-.53.2-.66z" fill="url(#paint4_linear)"/><path d="M11.9 21a3.96 3.96 0 012.23-.39c1.84.2 3.3 1.63 3.5 3.43a3.94 3.94 0 01-3.96 4.38 3.94 3.94 0 01-3.7-2.45c-.1-.26.03-.52.3-.62a.5.5 0 01.63.26 3.06 3.06 0 002.8 1.87c1.77 0 3.17-1.5 2.97-3.27a2.98 2.98 0 00-4.3-2.33c-.27.1-.54 0-.67-.22-.13-.23-.03-.53.2-.66z" fill="#09B0E7"/><path d="M14.27 18.98a5.83 5.83 0 00-3.6.81c-.3.2-.3.66 0 .82.16.1.33.1.5 0a4.84 4.84 0 013.06-.65 4.66 4.66 0 014.07 4.02c.3 2.78-1.9 5.1-4.63 5.1a4.62 4.62 0 01-4.47-3.3.65.65 0 00-.37-.36H8.8c-.37-.07-.67.26-.57.58a5.6 5.6 0 005.44 4.06c3.33 0 6-2.85 5.63-6.18a5.62 5.62 0 00-5.03-4.9z" fill="url(#paint5_linear)"/><path d="M14.27 18.98a5.83 5.83 0 00-3.6.81c-.3.2-.3.66 0 .82.16.1.33.1.5 0a4.84 4.84 0 013.06-.65 4.66 4.66 0 014.07 4.02c.3 2.78-1.9 5.1-4.63 5.1a4.62 4.62 0 01-4.47-3.3.65.65 0 00-.37-.36H8.8c-.37-.07-.67.26-.57.58a5.6 5.6 0 005.44 4.06c3.33 0 6-2.85 5.63-6.18a5.62 5.62 0 00-5.03-4.9z" fill="#09B0E7"/><defs><linearGradient id="paint0_linear" x1="22" y1="16.33" x2="5.02" y2="33.64" gradientUnits="userSpaceOnUse"><stop stop-color="#1A8FE6"/><stop offset=".7" stop-color="#00C0E8"/></linearGradient><linearGradient id="paint1_linear" x1="22" y1="16.33" x2="5.02" y2="33.64" gradientUnits="userSpaceOnUse"><stop stop-color="#1A8FE6"/><stop offset=".7" stop-color="#00C0E8"/></linearGradient><linearGradient id="paint2_linear" x1="22" y1="16.33" x2="5.02" y2="33.64" gradientUnits="userSpaceOnUse"><stop stop-color="#1A8FE6"/><stop offset=".7" stop-color="#00C0E8"/></linearGradient><linearGradient id="paint3_linear" x1="22" y1="16.33" x2="5.02" y2="33.64" gradientUnits="userSpaceOnUse"><stop stop-color="#1A8FE6"/><stop offset=".7" stop-color="#00C0E8"/></linearGradient><linearGradient id="paint4_linear" x1="22" y1="16.33" x2="5.02" y2="33.64" gradientUnits="userSpaceOnUse"><stop stop-color="#1A8FE6"/><stop offset=".7" stop-color="#00C0E8"/></linearGradient><linearGradient id="paint5_linear" x1="22" y1="16.33" x2="5.02" y2="33.64" gradientUnits="userSpaceOnUse"><stop stop-color="#1A8FE6"/><stop offset=".7" stop-color="#00C0E8"/></linearGradient></defs></svg>