<svg xmlns="http://www.w3.org/2000/svg" width="80" height="50" fill="none" viewBox="0 0 80 50"><defs/><path fill="#000" d="M0 0h80v50H0z"/><path fill="#2171C8" d="M20.26 30.61h-1.69c-.06 0-.1.04-.1.1v2.24c0 .05.04.09.1.09h.33c.06 0 .1-.04.1-.1v-1.87h1.26c.06 0 .1-.04.1-.1v-.27c0-.05-.04-.09-.1-.09zm7.06-.05c-.48 0-.77.2-.88.28l-.07-.17c-.01-.02-.04-.06-.1-.06H26a.08.08 0 00-.07.06v3.17c0 .05.03.08.08.08h.37c.05 0 .09-.03.09-.08v-.81c.09.02.3.06.66.06.92 0 1.3-.37 1.3-1.27s-.32-1.26-1.12-1.26zm-.18 2.08c-.31 0-.58-.05-.66-.06v-1.35c.05-.04.3-.2.69-.2.43 0 .68.13.68.8 0 .63-.16.8-.71.8zm33.02-2.08c-.37 0-.74.04-.86.06-.05.01-.08.05-.08.1V31c0 .08.05.1.1.1.11-.03.47-.08.81-.08.58 0 .72.1.72.53-.1-.01-.39-.04-.7-.04-.84 0-1.17.22-1.17.8 0 .58.28.8 1.03.8.47 0 .77-.2.87-.27l.08.15a.1.1 0 00.1.06h.25c.05 0 .08-.03.08-.08v-1.4c0-.83-.47-1-1.23-1zm.69 1.89c-.06.04-.32.19-.73.19-.49 0-.56-.08-.56-.35 0-.26.06-.37.69-.37.27 0 .51.03.6.03v.5zM36.62 30.6h-.4c-.05 0-.1.01-.13.08l-.73 2-.7-2c-.03-.07-.09-.08-.13-.08h-.41a.08.08 0 00-.07.03.08.08 0 000 .08l.76 1.98.1.25c.02.06.06.09.13.09h.2l-.03.08c-.08.22-.13.28-.36.28h-.07c-.06 0-.1.04-.1.1v.33c0 .06.04.1.1.1h.08c.42 0 .64-.15.79-.53l1.04-2.68v-.08a.07.07 0 00-.07-.03zm16.39 0h-2.17a.08.08 0 00-.08.09v2.26c0 .04.04.08.08.08h.37c.05 0 .09-.04.09-.08v-1.9h1.26v1.9c0 .04.04.08.09.08H53c.05 0 .08-.04.08-.08V30.7a.08.08 0 00-.08-.09zm-8.33 0H42.5a.08.08 0 00-.08.09v2.26c0 .04.04.08.08.08h.37c.05 0 .09-.04.09-.08v-1.9h1.26v1.9c0 .04.04.08.09.08h.36c.05 0 .08-.04.08-.08V30.7c0-.05-.03-.09-.08-.09zM20.52 17.63c-1.2 0-1.88.67-1.88 1.89v7.82h6.47c.54 0 .81-.27.81-.8v-6.21h5.13c.54 0 .81-.27.81-.81v-1.9H20.52zm15.45 2.7h.82c.41 0 .62.13.73.54l.8 2.88h-3.3l.95-3.42zm-1.68-2.7l-2.97 9.71h2.71l.46-1.65h4.36l.26.95c.17.52.45.7.96.7h7l-2.61-7.62c-.57-1.64-1.26-2.1-3.42-2.1h-6.75zm13.88 0v1.89c0 .54.27.8.81.8h4.53c.33 0 .6.22.6.6s-.27.6-.6.6h-3.18v1.93h3.18c.33 0 .6.22.6.6s-.27.6-.6.6h-5.34v1.88c0 .54.27.81.81.81h10.26c1.35 0 2.16-.8 2.16-1.89V24.4c0-1.2-.87-1.8-1.63-1.91v-.23c.76-.12 1.63-.7 1.63-1.91v-.82c0-1.22-.68-1.9-1.9-1.9H48.18z"/></svg>