<svg xmlns="http://www.w3.org/2000/svg" width="80" height="50" fill="none" viewBox="0 0 80 50"><defs/><path fill="#000" d="M0 0h80v50H0z"/><path fill="#EA4335" d="M36.83 25.19a4 4 0 01-4.07 4.05 4 4 0 01-4.06-4.05 4 4 0 014.06-4.05 4 4 0 014.07 4.05zm-1.78 0c0-1.46-1.06-2.46-2.29-2.46-1.22 0-2.28 1-2.28 2.46 0 1.44 1.06 2.45 2.28 2.45 1.23 0 2.29-1.01 2.29-2.45z"/><path fill="#FBBC05" d="M45.6 25.19a4 4 0 01-4.07 4.05 4 4 0 01-4.06-4.05 4 4 0 014.06-4.05 4 4 0 014.06 4.05zm-1.78 0c0-1.46-1.06-2.46-2.29-2.46s-2.28 1-2.28 2.46c0 1.44 1.05 2.45 2.28 2.45 1.23 0 2.29-1.01 2.29-2.45z"/><path fill="#4285F4" d="M54 21.38v7.27c0 3-1.77 4.22-3.85 4.22a3.86 3.86 0 01-3.6-2.4l1.55-.64c.28.66.96 1.44 2.04 1.44 1.34 0 2.17-.82 2.17-2.37v-.59h-.07c-.4.5-1.16.93-2.13.93a4.01 4.01 0 01-3.88-4.04 4.03 4.03 0 013.88-4.06c.97 0 1.73.42 2.13.9h.07v-.66H54zm-1.57 3.82c0-1.43-.95-2.47-2.16-2.47-1.23 0-2.26 1.04-2.26 2.47 0 1.41 1.03 2.44 2.26 2.44 1.21 0 2.16-1.03 2.16-2.44z"/><path fill="#34A853" d="M56.78 17.12v11.87h-1.73V17.12h1.73z"/><path fill="#EA4335" d="M63.54 26.52l1.38.92a4.03 4.03 0 01-3.37 1.8 3.96 3.96 0 01-4.02-4.06c0-2.4 1.73-4.05 3.82-4.05 2.1 0 3.13 1.68 3.47 2.58l.18.46-5.42 2.24a2.06 2.06 0 001.97 1.23c.9 0 1.53-.44 2-1.12zm-4.25-1.46l3.62-1.5c-.2-.5-.8-.86-1.5-.86-.9 0-2.16.8-2.12 2.36z"/><path fill="#4285F4" d="M22.13 24.13v-1.72h5.8c.05.3.08.66.08 1.04 0 1.29-.35 2.88-1.49 4.02a5.75 5.75 0 01-4.39 1.77 6.38 6.38 0 01-6.38-6.3 6.38 6.38 0 016.38-6.29 6 6 0 014.31 1.74l-1.2 1.21a4.51 4.51 0 00-7.61 3.34 4.51 4.51 0 004.5 4.58 4.2 4.2 0 003.18-1.26c.48-.49.8-1.18.93-2.13h-4.1z"/></svg>