<svg width="80" height="50" viewBox="0 0 80 50" fill="none" xmlns="http://www.w3.org/2000/svg">
<rect width="80" height="50" fill="black"/>
<path d="M45.4658 19.9455V22.297H48.9344C48.9344 22.3091 48.9227 22.3091 48.9227 22.3091C48.3621 23.8848 47.0074 24.903 45.4541 24.903C43.4453 24.903 41.8103 23.2061 41.8103 21.1212C41.8103 19.0364 43.4453 17.3394 45.4541 17.3394C46.4935 17.3394 47.4745 17.8 48.1636 18.6L49.857 17.0364C48.7475 15.7394 47.1475 15 45.4658 15C43.2001 15 41.2263 16.3333 40.2336 18.2848C40.6424 19.1697 40.8643 20.1515 40.8643 21.1939C40.8643 22.2121 40.6424 23.1818 40.257 24.0424C41.2614 25.9576 43.2117 27.2667 45.4658 27.2667C47.9767 27.2667 50.1723 25.6424 51.0599 23.1212C51.3169 22.3697 51.3402 21.3273 51.3402 21.1212V19.9455H45.4658V19.9455Z" fill="#E61736"/>
<path d="M34.3475 27.2667C31.0891 27.2667 28.438 24.5151 28.438 21.1333C28.438 17.7515 31.0891 15 34.3475 15C36.0292 15 37.6292 15.7394 38.7504 17.0485L37.057 18.6121C36.3679 17.8121 35.3752 17.3515 34.3475 17.3515C32.3387 17.3515 30.7037 19.0485 30.7037 21.1333C30.7037 23.2182 32.3387 24.9152 34.3475 24.9152C35.9008 24.9152 37.2555 23.897 37.8161 22.3212C37.8161 22.3091 37.8278 22.3091 37.8278 22.3091H34.3475V19.9576H40.2219V21.1333C40.2219 21.3273 40.2102 22.3818 39.9416 23.1333C39.054 25.6424 36.8584 27.2667 34.3475 27.2667Z" fill="#E61736"/>
<path d="M24.0817 34.9152V29.9697H27.5737V31.0849H25.308V34.9152H24.0817Z" fill="#E61736"/>
<path d="M28.2395 34.9152V29.9697H30.6337C31.7081 29.9697 32.2921 30.7212 32.2921 31.6182C32.2921 32.5031 31.7081 33.2546 30.6337 33.2546H29.4775V34.9152H28.2395ZM31.0307 31.6182C31.0307 31.2788 30.7855 31.0849 30.4585 31.0849H29.4658V32.1515H30.4585C30.7855 32.1394 31.0307 31.9455 31.0307 31.6182Z" fill="#E61736"/>
<path d="M35.5504 34.9152L35.3168 34.2H33.4365L33.2029 34.9152H31.8015L33.6 29.9697H35.1416L36.9401 34.9152H35.5504ZM34.3708 31.2303L33.7635 33.0849H34.9781L34.3708 31.2303Z" fill="#E61736"/>
<path d="M40.5021 34.9152V32.9273H38.5284V34.9152H37.3021V29.9697H38.5284V31.8121H40.5021V29.9697H41.7284V34.9152H40.5021Z" fill="#E61736"/>
<path d="M42.4526 34.9152V29.9697H45.9446V31.0849H43.6789V31.8606H45.8979V32.9758H43.6789V33.8121H45.9446V34.9273L42.4526 34.9152Z" fill="#E61736"/>
<path d="M46.54 33.8727C46.9838 33.8727 47.2758 33.606 47.4043 32.4666L47.6962 29.9575H51.2466V34.903H50.0203V31.0727H48.8057L48.6305 32.5636C48.397 34.5636 47.5911 34.9999 46.54 34.9999V33.8727Z" fill="#E61736"/>
<path d="M53.1855 29.9697V31.6303H54.3417C55.4162 31.6303 56.0001 32.3818 56.0001 33.2667C56.0001 34.1637 55.4162 34.9152 54.3417 34.9152H51.9476V29.9697H53.1855ZM53.1855 32.7455V33.8121H54.1782C54.5052 33.8121 54.7505 33.6182 54.7505 33.2788C54.7505 32.9515 54.5052 32.7576 54.1782 32.7576L53.1855 32.7455Z" fill="#E61736"/>
</svg>
