<svg xmlns="http://www.w3.org/2000/svg" width="80" height="50" fill="none" viewBox="0 0 80 50"><defs/><path fill="#000" d="M0 0h80v50H0z"/><path fill="#0058A3" d="M60.84 34.09h-41.6V17h41.61v17.09z"/><path fill="#FFDB00" d="M20.05 25.54c0 4.13 8.38 7.56 20 7.56 11.61 0 19.98-3.43 19.98-7.56 0-4.13-8.37-7.56-19.99-7.56-11.6 0-20 3.43-20 7.56z"/><path fill="#0058A3" d="M33.3 22.26c-.08.18-.08.35-.08.53v2.27l1.47-1.95c.2-.28.46-.67.46-.85h3.92c-.27.18-.57.5-.82.8l-1.43 1.77 2.04 3.14c.13.19.28.37.44.53h-4.5c0-.18-.17-.54-.36-.83l-1.22-1.88v2.18c0 .18 0 .35.08.53h-3.75c.1-.18.1-.35.1-.53v-5.18c0-.18 0-.35-.1-.53h3.75zm13.9 0h-7.25c.1.18.1.35.1.53v5.18c0 .18 0 .35-.1.53h7.24v-1.73c-.17.1-.35.1-.53.1h-3.04v-.83h2.92v-1.32h-2.92v-.82h3.04c.18 0 .36 0 .53.08v-1.72zm10.02 5.7c.06.2.17.39.3.54h-3.93c.02-.18-.04-.35-.12-.53l-.14-.36-.04-.09h-2.26l-.03.1-.13.35c-.06.18-.12.36-.1.54h-3.1c.13-.16.23-.34.29-.54l1.85-5.17c.07-.18.13-.36.1-.54h5.24c-.05.18.05.36.11.54l1.96 5.17zM52.8 26.2l-.55-1.45a3.22 3.22 0 01-.12-.4c-.02.13-.06.27-.1.4l-.52 1.45h1.29zm-25.11-3.4c0-.19 0-.36.09-.54H23.7c.09.18.09.35.09.53v5.18c0 .18 0 .35-.1.53h4.09c-.1-.18-.1-.35-.1-.53v-5.18zm28.28-.05c0 .45.34.83.8.85.44 0 .82-.35.83-.8v-.05a.8.8 0 00-.78-.82h-.03a.78.78 0 00-.81.77.06.06 0 000 .05zm1.46 0a.65.65 0 11-1.3.04v-.04a.63.63 0 01.6-.66h.05c.36 0 .65.28.65.63v.03zm-.25.5h-.16l-.19-.35h-.2v.35h-.15v-1h.36c.18.01.3.15.3.33 0 .12-.06.23-.17.29l.21.38zm-.36-.5c.1 0 .18-.06.18-.16s-.07-.18-.16-.18h-.22v.35h.2"/></svg>