<svg width="80" height="50" viewBox="0 0 80 50" fill="none" xmlns="http://www.w3.org/2000/svg">
<rect width="80" height="50" fill="black"/>
<path d="M54.7183 24.5042C54.7356 24.4959 54.7427 24.4887 54.7488 24.4897C55.9834 24.5 57.2281 24.3446 58.4475 24.5999C59.6871 24.8593 60.5708 25.7117 60.8444 27.0602C61.0254 27.9568 60.9827 28.8308 60.639 29.6821C60.2902 30.5406 59.6688 31.1078 58.8197 31.3714C58.3641 31.5134 57.8739 31.5824 57.3969 31.603C56.56 31.639 55.718 31.6143 54.878 31.6143C54.8291 31.6143 54.7803 31.6081 54.7163 31.6019V24.5042H54.7183ZM56.1939 28.035C56.1939 28.7083 56.1949 29.3805 56.1939 30.0547C56.1939 30.1721 56.1888 30.2719 56.3536 30.2668C56.8081 30.2534 57.2668 30.2812 57.7183 30.2369C58.3875 30.1721 58.9315 29.8653 59.2122 29.2003C59.4644 28.6053 59.4807 27.9805 59.3556 27.3505C59.1817 26.4703 58.5939 25.9237 57.7244 25.8537C57.2861 25.8177 56.8437 25.8342 56.4044 25.8115C56.2285 25.8033 56.1888 25.8702 56.1919 26.038C56.198 26.705 56.1939 27.37 56.1939 28.035V28.035ZM46.3681 31.6153C45.7813 31.6153 45.2515 31.6174 44.7217 31.6102C44.6708 31.6102 44.6088 31.5556 44.5732 31.5093C44.0098 30.764 43.4556 30.0146 42.8871 29.2744C42.8241 29.1931 42.6949 29.1324 42.5912 29.1231C42.3583 29.1005 41.6922 29.1118 41.6922 29.1118C41.6922 29.1118 41.6841 29.1694 41.6861 29.3269C41.6922 29.993 41.6881 30.658 41.6881 31.324V31.5999H40.2125V24.4918C40.2705 24.4856 40.3193 24.4753 40.3681 24.4753C41.3851 24.4774 42.402 24.4702 43.42 24.4877C43.9295 24.4949 44.4136 24.6359 44.859 24.9056C45.462 25.2711 45.7519 25.8362 45.7997 26.53C45.822 26.8378 45.7956 27.1621 45.7305 27.4637C45.5861 28.1256 45.1569 28.5549 44.562 28.8205C44.4858 28.8544 44.4095 28.8905 44.3108 28.9358C44.9932 29.8252 45.6644 30.6981 46.3691 31.6164L46.3681 31.6153ZM41.6861 27.8333C42.1651 27.8333 42.6197 27.8343 43.0722 27.8322C43.1912 27.8322 43.3142 27.8333 43.4322 27.8086C44.023 27.6892 44.322 27.3268 44.2976 26.7719C44.2732 26.2408 43.9407 25.8897 43.3488 25.8444C42.8454 25.8064 42.34 25.8249 41.8336 25.8146C41.7217 25.8105 41.6841 25.8589 41.6851 25.969C41.6891 26.2469 41.6851 26.5259 41.6851 26.8039V27.8322L41.6861 27.8333ZM54.0288 31.6133C53.5325 31.6133 53.0637 31.6184 52.5959 31.6081C52.5441 31.6071 52.4708 31.5217 52.4464 31.4599C52.3122 31.1294 52.1871 30.7959 52.0691 30.4603C52.0244 30.3337 51.9624 30.2802 51.823 30.2802C50.8834 30.2864 49.9447 30.2864 49.0051 30.2812C48.8607 30.2802 48.7925 30.3275 48.7437 30.4706C48.6247 30.8134 48.4844 31.15 48.3451 31.4856C48.3217 31.5381 48.2566 31.6071 48.2078 31.6092C47.739 31.6194 47.2712 31.6143 46.7698 31.6143C46.9305 31.2015 47.0759 30.8175 47.2295 30.4346C47.9952 28.5086 48.7651 26.5846 49.5268 24.6575C49.5807 24.5206 49.6468 24.4692 49.7891 24.4743C50.2091 24.4825 50.6302 24.4794 51.0491 24.4764C51.1569 24.4764 51.2281 24.4939 51.2769 24.6174C52.179 26.9037 53.0851 29.189 53.9912 31.4743C54.0013 31.5072 54.0085 31.5422 54.0298 31.6153L54.0288 31.6133ZM50.4024 26.0287C50.0322 27.019 49.6661 28 49.2929 29.0027H51.521C51.1437 28.0021 50.7756 27.018 50.4014 26.0287H50.4024ZM27.2922 31.6184H25.8125V24.498C26.2681 24.498 26.7146 24.4939 27.158 24.5031C27.2047 24.5042 27.2586 24.5731 27.2942 24.6225C28.2176 25.9474 29.138 27.2753 30.0583 28.6022C30.1691 28.7608 30.282 28.9172 30.4203 29.1118V24.5062H31.8868V31.6287C31.4383 31.6287 30.9929 31.6339 30.5485 31.6225C30.4976 31.6215 30.4376 31.5412 30.399 31.4856C29.4105 30.064 28.4241 28.6414 27.4376 27.2187C27.4041 27.1693 27.3624 27.124 27.2942 27.0417L27.2922 31.6184ZM22.3468 24.5052H23.8112V31.6122H22.3468V24.5052ZM38.6871 31.1809C38.6871 31.2406 38.6108 31.3343 38.5488 31.359C37.7413 31.7986 36.3542 31.9293 35.2183 31.6153C33.8922 31.2489 33.0176 30.3975 32.7532 28.9965C32.5203 27.7705 32.6739 26.598 33.5149 25.6139C34.0213 25.023 34.6803 24.6966 35.4186 24.5278C36.4193 24.3014 37.3885 24.4269 38.3403 24.7934C38.4898 24.8511 38.5386 24.9334 38.5325 25.0961C38.5203 25.4842 38.5275 25.8733 38.5275 26.2943C38.4471 26.2572 38.3993 26.2377 38.3515 26.214C37.4861 25.7672 36.5881 25.6283 35.6515 25.9289C34.6702 26.2439 34.1027 27.1302 34.1668 28.1894C34.2024 28.7433 34.3102 29.2662 34.6732 29.6965C35.0861 30.1865 35.6393 30.3842 36.2444 30.4356C36.5302 30.4593 36.7285 30.4583 36.9024 30.4253C37.1383 30.379 37.2756 30.378 37.2817 29.994C37.2746 29.6656 37.2736 29.3084 37.2736 28.9502H36.0797V27.5708H37.2756V27.5667C37.6224 27.5667 37.9559 27.5656 38.2844 27.5708H38.4695V27.5718C38.5071 27.5739 38.5447 27.5728 38.5824 27.5739C38.6749 27.5739 38.6861 27.6644 38.6861 27.7149C38.6922 28.7947 38.6922 30.098 38.6851 31.1799L38.6871 31.1809Z" fill="white"/>
<path d="M20.4664 33.5156V21.9851L30.4214 16.5776V22.5997H31.8868V14.0957L19 21.0957V34.9989H31.8868V33.5145L20.4664 33.5156Z" fill="#FFC141"/>
</svg>
