<svg xmlns="http://www.w3.org/2000/svg" width="80" height="50" fill="none" viewBox="0 0 80 50"><defs/><path fill="#000" d="M0 0h80v50H0z"/><path fill="#0071C5" d="M32.31 23.33v5.39h-1.8v-6.77h3.72c1.57 0 2.11 1.06 2.11 2.02v4.75h-1.8v-4.74c0-.4-.21-.65-.74-.65H32.3zm12.24-.08c-.62 0-1.1.3-1.3.71-.11.25-.15.43-.17.74h2.77c-.03-.74-.38-1.45-1.3-1.45zm-1.47 2.61c0 .88.58 1.53 1.6 1.53.8 0 1.19-.21 1.65-.65l1.1 1.01a3.64 3.64 0 01-2.77 1.08c-1.72 0-3.37-.9-3.37-3.5 0-2.24 1.44-3.5 3.33-3.5 1.92 0 3.03 1.48 3.03 3.42v.61h-4.57zm-3.3 2.85c-1.47 0-2.1-.97-2.1-1.93V20.1h1.8v1.85h1.36v1.38h-1.36v3.34c0 .4.2.61.63.61h.73v1.43h-1.06zm-10.87-7.7H27.1v-1.64h1.81v1.64zm0 7.78c-1.35-.12-1.81-.9-1.81-1.81v-5.03h1.82v6.84zm21.6-.14c-1.36-.13-1.82-.91-1.82-1.82v-7.7h1.82v9.52zm6.34-8.4c-1.65-7.64-17.2-8.12-27.22-2.3v.64c10.01-4.9 24.21-4.88 25.5 2.16.44 2.32-.94 4.75-3.4 6.14v1.82c2.96-1.03 6-4.37 5.12-8.46zM38.63 33.61c-6.92.6-14.13-.35-15.14-5.5-.5-2.54.72-5.23 2.33-6.9v-.9c-2.9 2.42-4.47 5.5-3.56 9.12 1.15 4.64 7.34 7.28 16.78 6.4 3.74-.34 8.63-1.49 12.03-3.27v-2.52c-3.09 1.75-8.2 3.2-12.44 3.57"/><path fill="#0071C5" d="M51.03 20.18c0-.07-.05-.1-.15-.1h-.1v.22h.1c.1 0 .15-.03.15-.1v-.02zm.15.53h-.11l-.03-.01-.16-.27-.02-.01h-.08v.26c0 .02 0 .03-.02.03h-.11c-.01 0-.03-.01-.03-.03v-.66c0-.04.02-.06.05-.06l.2-.01c.2 0 .31.05.31.23v.02c0 .1-.05.17-.14.2l.16.27v.02c0 .01 0 .02-.02.02zm-.28-.88c-.29 0-.52.23-.52.51 0 .29.23.52.52.52.3 0 .53-.23.53-.52a.52.52 0 00-.53-.51zm0 1.13a.63.63 0 01-.63-.62c0-.34.28-.62.63-.62s.64.28.64.62c0 .34-.29.62-.64.62z"/></svg>