<svg xmlns="http://www.w3.org/2000/svg" width="80" height="50" fill="none" viewBox="0 0 80 50"><defs/><path fill="#000" d="M0 0h80v50H0z"/><path fill="#fff" d="M20.57 27.78h1.45v-1.42l.54-.62 1.32 2.04h1.75l-2.06-3.13 2-2.36h-1.74l-1.8 2.23v-2.23h-1.46v5.49zm4.91 0h1.54l.37-.98h2.03l.39.98h1.56l-2.24-5.52h-1.4l-2.25 5.52zm2.34-2.16l.6-1.56.58 1.56h-1.18zm4.06 2.16h1.46v-1.66h.64l1.06 1.66h1.69l-1.26-1.91c.65-.3 1.08-.85 1.08-1.69 0-.56-.16-.98-.47-1.3-.35-.37-.9-.59-1.7-.59h-2.5v5.49zm1.46-2.85V23.6h.96c.49 0 .78.22.78.65 0 .42-.28.67-.78.67h-.96zm3.95 2.85h4.27v-1.3h-2.83v-.86h2.53v-1.2h-2.53v-.83h2.8v-1.3h-4.24v5.49zm5.01 0h4.01v-1.33h-2.55v-4.16H42.3v5.49zm4.67 0h1.46v-5.49h-1.46v5.49zm2 0h1.54l.38-.98h2.03l.38.98h1.56l-2.24-5.52h-1.4l-2.24 5.52zm2.35-2.16l.59-1.56.58 1.56h-1.17zM57.77 27.59h1.83c1.66 0 2.8-1.2 2.8-2.75a2.68 2.68 0 00-2.8-2.74h-1.83v5.49zm.6-.58v-4.34h1.23a2.1 2.1 0 012.19 2.17c0 1.23-.86 2.17-2.19 2.17h-1.23zm7.02.66c1.04 0 1.8-.62 1.8-1.56 0-.85-.55-1.3-1.72-1.57-1.16-.25-1.43-.55-1.43-1.06s.44-.9 1.12-.9c.54 0 1.03.18 1.52.6l.34-.49a2.68 2.68 0 00-1.85-.67c-1 0-1.72.63-1.72 1.5 0 .92.55 1.32 1.76 1.6 1.1.24 1.37.53 1.37 1.04 0 .55-.47.95-1.17.95-.73 0-1.26-.26-1.8-.78l-.38.45a3 3 0 002.16.89zm3-.08h.6v-1.94h1.28c1.12 0 2.06-.61 2.06-1.8 0-1.1-.78-1.75-1.97-1.75H68.4v5.49zm.6-2.5v-2.42h1.33c.85 0 1.41.4 1.41 1.2 0 .73-.57 1.21-1.44 1.21h-1.3z"/><path fill="#fff" fill-rule="evenodd" d="M72.8 22.6c0-.08 0-.13.02-.2l.02-.04a.63.63 0 01.05-.09l.01-.02.04-.05.04-.03a.58.58 0 01.08-.06l.07-.04a.52.52 0 01.57.13h.01l.08.11v.02l.02.03a.56.56 0 01-.06.56l-.06.07-.02.02a.3.3 0 01-.06.04l-.02.02h-.01l-.01.01-.05.02a.52.52 0 01-.37 0c-.02 0-.04 0-.06-.02-.02 0-.03-.02-.05-.03l-.1-.08v-.01a.8.8 0 01-.1-.17l-.02-.02a.54.54 0 01-.02-.18zm-.14-.01a.75.75 0 00.07.3l.05.1h.01l.02.03.06.07.04.04.1.07.03.01.06.02.06.03c.11.03.22.03.33 0h.02a1.11 1.11 0 00.17-.09c.02-.01.07-.04.08-.06l.05-.04v-.02c.02 0 .03-.03.05-.04l.01-.03.05-.08.02-.04.02-.07a.75.75 0 000-.38.54.54 0 00-.03-.1v-.02l-.01-.02-.03-.05v-.02h-.02a.09.09 0 00-.01-.03l-.03-.04-.07-.06-.05-.05h-.02a.74.74 0 00-.08-.06.2.2 0 00-.05-.02l-.06-.02a.7.7 0 00-.34 0l-.05.01-.03.01-.03.02-.05.03h-.01a.52.52 0 00-.14.12l-.06.07-.04.06-.01.03v.02a.4.4 0 00-.03.04l-.01.04-.01.04v.02a.63.63 0 00-.03.16z" clip-rule="evenodd"/><path fill="#fff" fill-rule="evenodd" d="M73.33 22.57h-.1v-.17h.1c.03 0 .05.02.07.04.02.04.02.13-.07.13zm-.2.3h.1v-.21h.1l.02.05c0 .02.01.04.03.05l.03.07v.01l.02.03h.11v-.02l-.04-.08a1.11 1.11 0 01-.04-.07v-.01l-.02-.03-.01-.03.04-.03c.02-.01.03-.02.03-.04a.2.2 0 00.02-.13l-.02-.03a.14.14 0 00-.05-.06l-.03-.01a.26.26 0 00-.1-.02h-.2v.56zM13.21 25.73l-.44.72.86 1.42.92-.1.04-.26-.27-.16.06-.51-1.17-1.11zM7.18 23.74a13.61 13.61 0 01-1.17 2.53v.4l.66.99.5-.14.02-.51.78-.72-.6-2.32-.19-.23z" clip-rule="evenodd"/><path fill="#fff" fill-rule="evenodd" d="M16.15 28l1.32-.1.06-.21c-.18-.06-.35-.07-.52-.13-.35-.63-.7-1.43-1.12-2.07l1.3-.8c.27.14.68.2.92.18l.1-.11a1 1 0 00.4.03c.17-.03.16-.08.29-.2.14-.12 0-.17-.06-.23-.1-.15-.1-.18-.22-.32-.04-.05-.1-.07-.15-.09l.08-.23c.03-.11.01-.2-.08-.3-.14-.17-.3-.72-.53-.9-.57-.44-.8-.4-1.37-.53a2.52 2.52 0 01-.56-.25 1.7 1.7 0 00-.81-.3c-.45 0-.6.3-1.05.26-.25-.04-.4-.13-.57-.18-1.62-.5-3.08-.68-4.22-.36-1.07.3-1.2.58-2.1 1.42l-.22.15-.1.27.13.17.32.34c.4 1.3.74 2.66 1.04 4l.46.25.83-.22v-.19l-.44-.09.68-1.04 3-1.03.35.37c.77.72 1.94 1.67 2.84 2.44z" clip-rule="evenodd"/></svg>