<svg width="80" height="50" viewBox="0 0 80 50" fill="none" xmlns="http://www.w3.org/2000/svg">
<rect width="80" height="50" fill="black"/>
<path d="M37.0301 24.5327C37.0301 26.7196 35.6422 27.757 33.9049 27.757H32.847V26.4393H33.8272C34.8754 26.4393 35.5742 25.8972 35.5742 24.5234C35.5742 23.1682 34.9143 22.4953 33.7981 22.4953C32.7208 22.4953 31.9541 23.1308 31.9541 24.4953V29.9907H30.4982V21.3551H31.9444V22.1028H32.1482C32.6335 21.4766 33.342 21.1963 34.0893 21.1963C35.6907 21.1963 37.0301 22.3178 37.0301 24.5327ZM27.5186 23.9626L26.5577 23.8692C25.8007 23.8037 25.4028 23.6075 25.4028 23.1776C25.4028 22.6729 25.9172 22.3832 26.6451 22.3832C27.4021 22.3832 27.8874 22.729 27.9262 23.215H29.3141C29.2559 21.9626 28.2562 21.1963 26.6548 21.1963C25.0437 21.1963 23.9566 22.0187 23.9566 23.2243C23.9566 24.2336 24.6166 24.8879 26.121 25.028L27.1013 25.1215C27.6933 25.1776 28.0912 25.2897 28.0912 25.8411C28.0912 26.3364 27.7224 26.6916 26.7422 26.6916C25.8395 26.6916 25.3931 26.2991 25.2378 25.7664H23.7334C23.879 26.972 24.9369 27.9065 26.7422 27.9065C28.4406 27.9065 29.5374 27.0467 29.5374 25.7664C29.5277 24.6542 28.7609 24.0748 27.5186 23.9626ZM42.6302 25.7757C42.407 26.2804 41.8635 26.6542 41.087 26.6542C40.0291 26.6542 39.243 25.9907 39.243 24.5607C39.243 23.1963 39.9709 22.4393 41.1064 22.4393C42.1158 22.4393 42.6885 23.0187 42.7467 23.8972H40.1456V24.9065H44.1734V24.243C44.1734 22.4019 42.902 21.2056 41.0967 21.2056C39.4177 21.2056 37.8065 22.3084 37.8065 24.5607C37.8065 26.8131 39.4177 27.9159 41.0967 27.9159C42.6302 27.9159 43.7367 27 44.0763 25.7757H42.6302ZM19.8124 21.1963C18.2303 21.1963 17.0463 21.9907 16.9007 23.215H18.4536C18.5603 22.7664 18.9874 22.4299 19.8027 22.4299C20.8509 22.4299 21.1906 22.9626 21.1906 23.6075V25.7944C20.5985 26.4486 19.9094 26.7477 19.2203 26.7477C18.5021 26.7477 18.0071 26.4112 18.0071 25.8224C18.0071 25.2523 18.3953 24.8972 19.133 24.8972H20.2879V23.8972H19.0844C17.4345 23.8972 16.5027 24.6916 16.5027 25.9159C16.5027 27.0561 17.3957 27.9159 18.8709 27.9159C19.6959 27.9159 20.4238 27.5981 20.9673 27.215H21.1711V27.757H22.6173V23.486C22.6561 21.9065 21.54 21.1963 19.8124 21.1963ZM10 27.757H11.4461V19H10V27.757ZM16.0757 21.3551H14.3093L12.2032 24.028V24.8598L14.3675 27.757H16.1631L13.6202 24.4393L16.0757 21.3551ZM68.3986 21.3551L67.2145 23.8879C66.9233 24.4953 66.6516 25.0935 66.5642 25.4953H66.3604C66.273 25.0935 65.9916 24.514 65.7004 23.9065L64.5163 21.3551H62.9149L65.7004 27.1028L64.3222 30H65.8654L70 21.3551H68.3986ZM62.5946 21.3551H60.8282L58.7221 24.0187V24.8505L60.8864 27.7477H62.682L60.1488 24.4299L62.5946 21.3551ZM53.5296 23.9626L52.5687 23.8692C51.8117 23.8037 51.4138 23.6075 51.4138 23.1776C51.4138 22.6729 51.9282 22.3832 52.6561 22.3832C53.4131 22.3832 53.8984 22.729 53.9372 23.215H55.3251C55.2669 21.9626 54.2672 21.1963 52.6658 21.1963C51.0547 21.1963 49.9676 22.0187 49.9676 23.2243C49.9676 24.2336 50.6276 24.8879 52.132 25.028L53.1123 25.1215C53.7043 25.1776 54.1022 25.2897 54.1022 25.8411C54.1022 26.3364 53.7334 26.6916 52.7532 26.6916C51.8505 26.6916 51.4041 26.2991 51.2488 25.7664H49.7444C49.89 26.972 50.9479 27.9065 52.7532 27.9065C54.4516 27.9065 55.5484 27.0467 55.5484 25.7664C55.5484 24.6542 54.7719 24.0748 53.5296 23.9626ZM56.5189 27.757H57.9651V19H56.5189V27.757ZM46.9686 22.1028H46.7648V21.3551H45.3187V27.757H46.7648V24.4112C46.7648 23.271 47.3083 22.6075 48.3953 22.6075H49.3077V21.1963H48.7739C47.7742 21.1963 47.3471 21.5607 46.9686 22.1028Z" fill="#009982"/>
</svg>
