<svg width="80" height="50" viewBox="0 0 80 50" fill="none" xmlns="http://www.w3.org/2000/svg">
<rect width="80" height="50" fill="black"/>
<path fill-rule="evenodd" clip-rule="evenodd" d="M53.6253 27.7107L53.1833 29.7459C53.1575 29.8642 53.0502 29.9493 52.9256 29.9493L52.5291 29.9489C52.492 29.9494 52.4553 29.9419 52.4213 29.9269C52.3874 29.912 52.357 29.89 52.3323 29.8623C52.3075 29.8347 52.289 29.8021 52.2779 29.7667C52.2668 29.7313 52.2635 29.6939 52.268 29.6571C52.3538 28.9888 52.0387 28.423 50.9883 28.4222C49.3777 28.4219 48.2478 29.8128 48.2471 31.4057C48.2463 32.8466 49.2856 33.9417 51.1655 33.9425C51.8871 33.9425 52.5498 33.732 52.8716 33.6107C52.9603 33.5774 53.0517 33.6514 53.0343 33.742L52.8435 34.7195C52.8154 34.8638 52.7059 34.9795 52.5605 35.0195C51.9947 35.1752 51.1596 35.3416 50.1362 35.3412C46.7233 35.3538 45.3878 33.6303 45.3886 31.878C45.3893 30.1361 46.5758 27.2029 51.3929 27.2047C52.1992 27.2047 53.0239 27.3819 53.4966 27.5069C53.5401 27.5177 53.5777 27.5449 53.6016 27.5828C53.6255 27.6207 53.6339 27.6664 53.6249 27.7103L53.6253 27.7107ZM45.926 27.6385L45.4999 29.4741C45.4865 29.5285 45.4551 29.5768 45.4108 29.6111C45.3665 29.6454 45.3118 29.6637 45.2558 29.663H44.5864C44.5528 29.6635 44.5195 29.6571 44.4885 29.6443C44.4575 29.6314 44.4294 29.6122 44.4061 29.5881C44.3828 29.5639 44.3646 29.5352 44.3528 29.5038C44.341 29.4723 44.3358 29.4388 44.3375 29.4053C44.3682 28.9167 44.1925 28.6305 43.6248 28.6301L41.8251 28.6308L41.3566 30.7256L43.8678 30.7267C44.0205 30.7267 44.1341 30.8639 44.1019 31.0093L43.8781 32.009C43.865 32.0644 43.8335 32.1137 43.7887 32.1487C43.7438 32.1838 43.6884 32.2026 43.6315 32.202L40.9934 32.2016C40.9934 32.2016 40.7012 33.4916 40.6905 33.5468C40.581 34.0113 40.9486 34.2176 41.1365 34.2912C41.1957 34.3142 41.2297 34.3748 41.2168 34.4355L41.0895 35.032C41.0763 35.0904 41.0436 35.1424 40.9967 35.1795C40.9497 35.2166 40.8915 35.2364 40.8318 35.2358L37.9307 35.2347C37.7624 35.2347 37.6374 35.0831 37.6737 34.924L39.0029 29.0768C39.1519 28.511 38.7691 28.3087 38.545 28.2399C38.5054 28.228 38.4718 28.2015 38.451 28.1659C38.4301 28.1302 38.4235 28.0879 38.4326 28.0476L38.5528 27.5239C38.5666 27.4663 38.5996 27.4151 38.6463 27.3787C38.6929 27.3423 38.7506 27.3228 38.8098 27.3234L45.6696 27.326C45.8379 27.326 45.9633 27.4784 45.9263 27.6385H45.926ZM38.011 27.6352L37.9218 28.0243C37.9092 28.0762 37.8807 28.1228 37.8402 28.1576C37.7998 28.1924 37.7494 28.2137 37.6962 28.2184C37.4392 28.2451 36.9621 28.3324 36.5915 28.6175L33.8029 30.8691L35.9458 33.6921C36.3611 34.2258 36.5549 34.3086 37.1285 34.3179C37.1951 34.3186 37.2447 34.3785 37.2313 34.4421L37.1049 35.0302C37.0916 35.0885 37.0587 35.1405 37.0117 35.1775C36.9648 35.2145 36.9065 35.2343 36.8467 35.2336L35.2057 35.2299C33.3558 35.2288 32.8458 34.4399 31.3061 31.6998L30.8549 33.6984C30.7772 34.0508 31.1323 34.2154 31.3246 34.2776C31.3897 34.2986 31.4282 34.3645 31.4134 34.4303L31.281 35.0243C31.2674 35.0821 31.2344 35.1336 31.1877 35.1702C31.1409 35.2069 31.083 35.2265 31.0236 35.2258L27.263 35.2221C27.0951 35.2214 26.9708 35.0705 27.006 34.9115L27.1073 34.4592C27.1172 34.4177 27.14 34.3805 27.1725 34.3528C27.2049 34.3252 27.2453 34.3085 27.2878 34.3053C27.6488 34.2716 28.0308 34.0664 28.2657 32.9794L29.1455 29.0739C29.2731 28.4881 28.9177 28.3109 28.6754 28.2388C28.6386 28.2286 28.6071 28.2047 28.5873 28.1721C28.5675 28.1394 28.5609 28.1005 28.5689 28.0631L28.6921 27.5202C28.7059 27.4626 28.7388 27.4113 28.7855 27.3749C28.8322 27.3384 28.8899 27.3188 28.9491 27.3194L32.575 27.3186C32.7148 27.3186 32.8188 27.4444 32.7884 27.5771L32.6919 28.001C32.6782 28.0583 32.6501 28.1112 32.6103 28.1548C32.5705 28.1983 32.5203 28.231 32.4645 28.2499C32.2925 28.3109 32.048 28.4511 31.9692 28.7636L31.4774 30.939L34.3362 28.6323C34.526 28.4799 34.4516 28.2706 34.1964 28.2181C34.1802 28.2148 34.1649 28.2084 34.1512 28.1991C34.1375 28.1898 34.1259 28.1779 34.1169 28.1641C34.1079 28.1502 34.1017 28.1347 34.0988 28.1184C34.0959 28.1022 34.0963 28.0855 34.0999 28.0694C34.1332 27.9237 34.1868 27.6918 34.2256 27.5257C34.2395 27.4687 34.2722 27.4181 34.3185 27.3821C34.3647 27.346 34.4218 27.3266 34.4805 27.3271L37.7536 27.3238C37.9218 27.3238 38.0468 27.4754 38.0102 27.6352" fill="white"/>
<path d="M28.1099 15H33.2877V21.2873H28.1099V15ZM38.4655 15H43.6433V21.2873H38.4655V15ZM48.821 15H53.9988V21.2873H48.821V15Z" fill="#E4002B"/>
</svg>
