<svg xmlns="http://www.w3.org/2000/svg" width="80" height="50" fill="none" viewBox="0 0 80 50"><defs/><path fill="#000" d="M0 0h80v50H0z"/><path fill="#009EDE" fill-rule="evenodd" d="M35.95 28.37V21.4h-2.47v.82c0 1.45-.07 2.49-.13 3.06-.09 1.06-.23 2.34-1.17 2.92-.4.22-.85.34-1.31.34l-.23-1c.17-.04.58-.1.82-.24.34-.19.6-.69.74-1.57.06-.43.16-1.24.16-3.58v-1.78h4.76v8h-1.17zm14.86.17V24.7h-3.26v3.84h-1.07v-8.17h1.07v3.33h3.26v-3.33h1.07v8.17h-1.07zm8.26 0V22.1h-.01l-3.03 6.45h-1.27v-8.17h1.07v6.48h.03l3.03-6.48h1.27v8.17h-1.09zm5.8-7.17v7.17h-1.13v-7.17H61.6v-1H67v1h-2.14zm-24.17-1l-2.5 8.17h1.1l.63-2.1h3.28l.62 2.1h1.21l-2.56-8.17H40.7zm-.5 5.1l1.33-4.71h.03l1.36 4.7H40.2zm-18.8-.5c.19.27.36.54.51.8-.16.19-.32.37-.46.57l-.07.1-.13.19c-.15-.3-.33-.6-.53-.91.2-.27.43-.52.68-.75zm.94 1.62c.17.34.3.67.43.98l-.05.07-.05.08c-.24.35-.41.66-.56.98a8.87 8.87 0 00-.44-1.2c.2-.33.42-.63.67-.91zm-2.13 2.08a8.81 8.81 0 00-.54-1.23c.15-.32.33-.66.54-1 .22.35.4.68.54 1-.2.4-.39.8-.54 1.23zm-1.04-2.05l-.14-.21-.07-.1a5.77 5.77 0 00-.44-.54c.16-.27.33-.53.52-.8.22.2.45.45.67.74-.2.31-.38.62-.54.91zm-.58 1.29c-.1.26-.2.52-.28.79a7.1 7.1 0 00-.66-1.13c.13-.32.27-.65.44-1 .25.3.47.6.67.92l-.17.42zm1.63-4.34c.22.22.43.45.64.7-.23.22-.45.46-.64.72-.2-.26-.41-.5-.64-.73.21-.24.43-.48.64-.69zm7.18-2.72v-.81c-1.19 0-4.59.22-7.17 2.34C17.63 20.22 14.19 20 13 20v.82c1.07-.04 4 .09 6.56 2.16-.22.23-.43.46-.62.72a7.2 7.2 0 00-2.19-1.15c-1.21-.4-2.48-.6-3.75-.6v.85c.14 0 .3 0 .49.02.96.05 3.06.3 4.6 1.4.12.07.22.14.32.22l-.5.78a5.2 5.2 0 00-1.85-.92c-1-.27-2.03-.4-3.06-.4v.9h.2c.64.04 2.71.2 3.84.96l.42.28-.4.86a3.45 3.45 0 00-1.7-.84c-.78-.19-1.8-.21-2.36-.21v.95c.52.02 2.32.1 2.98.5.2.11.45.2.74.47-.15.42-.25.8-.33 1.1a2.24 2.24 0 00-1.72-1.06c-.55-.02-1.11-.03-1.67-.02v1c.6-.02 1.71-.02 1.92.05.16.06.47-.01.88.66.25.4.33.74.38.97.02.07.02.56.02 1.1V33h.83c0-.22.03-2.25 0-2.61l-.02-.07v-.41s.07-.53.3-1.34a5.47 5.47 0 01.69 2.55V33h.82l.01-1.63c0-.21 0-.49-.02-.78v-.2c0-.13.09-.94.43-1.93l.1.25c.26.62.41 1.28.45 1.96V33h.83v-2.32c.04-.77.23-1.52.56-2.22.22.61.36 1.25.42 1.9v.26c-.02.3-.02.57-.02.78V33h.83v-1.85c0-.9.24-1.8.7-2.57a9 9 0 01.28 1.3v.47l-.01.08c-.04.33 0 2.22 0 2.57h.83v-1.43c0-.52 0-1 .02-1.07.06-.34.2-.67.37-.97.42-.66.73-.6.89-.65.2-.07 1.3-.07 1.91-.06v-.99c-.56-.01-1.11 0-1.67.02a2.15 2.15 0 00-1.7 1.05c-.1-.38-.2-.75-.33-1.1.29-.27.53-.35.73-.46.65-.4 2.44-.48 2.97-.5v-.96c-.56 0-1.58.03-2.36.22-.62.1-1.2.39-1.67.81a19.6 19.6 0 00-.4-.85l.4-.26c1.12-.77 3.2-.92 3.84-.96l.19-.01v-.9c-.64 0-1.92.07-3.06.42-.66.17-1.28.47-1.82.9-.16-.28-.32-.54-.5-.8l.29-.2c1.54-1.09 3.64-1.34 4.61-1.4h.48v-.86c-.72 0-2.25.08-3.75.6-.77.25-1.5.62-2.15 1.12-.19-.25-.4-.5-.61-.72a10.11 10.11 0 016.51-2.14z" clip-rule="evenodd"/></svg>