<svg width="80" height="50" viewBox="0 0 80 50" fill="none" xmlns="http://www.w3.org/2000/svg">
<rect width="80" height="50" fill="black"/>
<path d="M44.701 13.3176C46.3835 13.3176 48.0662 13.3173 49.7486 13.3178C49.7496 13.6906 49.7467 14.0637 49.7504 14.4368C49.3229 14.4551 48.8858 14.5022 48.4922 14.6783C48.0929 14.8548 47.7582 15.1759 47.5859 15.5736C45.5401 20.306 43.4956 25.0389 41.452 29.7722C41.4166 29.85 41.3882 29.9304 41.3469 30.0055C40.6151 29.997 39.8831 30.0043 39.1513 30.0016C38.8284 29.3702 38.5106 28.7361 38.185 28.1061C37.8117 29.0903 37.4362 30.0736 37.063 31.0576C39.477 31.0578 41.891 31.0576 44.305 31.0578C44.7469 31.0636 45.2021 31.0455 45.6156 30.8755C46.3028 30.6038 46.8497 30.0789 47.2949 29.5097C47.8323 28.8201 48.2402 28.0438 48.6036 27.2549C49.0112 27.2515 49.4186 27.2561 49.8259 27.2554C49.0534 28.879 48.277 30.5012 47.4976 32.1217C41.9349 32.122 36.3724 32.1217 30.8097 32.1217C30.9452 31.7738 31.074 31.4229 31.2193 31.0786C31.2282 31.0431 31.2731 31.052 31.3003 31.0486C31.9948 31.0436 32.6939 31.017 33.3754 30.8748C33.73 30.7929 34.0969 30.6838 34.3697 30.4346C34.514 30.2991 34.5589 30.1013 34.6068 29.9188C35.2637 28.1889 35.9216 26.4592 36.5791 24.7295C35.1896 21.8164 33.7955 18.905 32.4053 15.9921C32.2934 15.7374 32.1457 15.485 31.9133 15.3191C31.4323 14.9646 30.8073 14.9197 30.2282 14.897C30.2277 14.4795 30.2282 14.0623 30.2279 13.6448C32.181 13.644 34.1339 13.6443 36.087 13.6445C36.0873 14.062 36.0875 14.4795 36.0868 14.897C35.8323 14.913 35.5621 14.9089 35.3317 15.0327C35.2174 15.0859 35.1501 15.2196 35.1796 15.3413C35.2156 15.5406 35.3756 15.6828 35.4566 15.8627C36.2814 17.6107 37.1062 19.359 37.9334 21.1063C38.3479 19.9658 38.7624 18.8256 39.1786 17.6858C39.2397 17.5274 39.2613 17.3444 39.1916 17.185C39.1369 17.0592 39.0127 16.9814 38.8902 16.929C38.6522 16.8324 38.3906 16.8334 38.1383 16.8155C38.2672 16.4632 38.3967 16.1109 38.5302 15.7605C38.5612 15.741 38.6041 15.756 38.6397 15.7511C40.6213 15.7523 42.6031 15.7511 44.585 15.7518C44.448 16.1058 44.3118 16.4598 44.1764 16.8143C43.6991 16.8361 43.207 16.8479 42.7594 17.0314C42.5543 17.1159 42.3602 17.2451 42.2389 17.432C42.1548 17.5689 42.1025 17.7218 42.0461 17.871C41.2181 20.093 40.3825 22.3122 39.5639 24.5376C40.0174 25.5462 40.49 26.5461 40.9526 27.5507C42.6323 23.6475 44.3116 19.7439 45.9933 15.8414C46.1067 15.6067 46.2912 15.3925 46.3057 15.1226C46.3197 14.9113 46.1604 14.729 45.9759 14.6423C45.5781 14.4617 45.131 14.4527 44.701 14.4375C44.7005 14.0642 44.7005 13.6909 44.701 13.3176Z" fill="white"/>
<path d="M47.7556 34.3339C48.2859 34.8743 48.812 35.4183 49.3372 35.9633C49.3365 35.4567 49.3394 34.9499 49.3389 34.4432C49.4297 34.4435 49.5205 34.4425 49.6115 34.4413C49.6118 35.1645 49.6118 35.888 49.6115 36.6112C49.0807 36.0734 48.5578 35.5284 48.0297 34.988C48.0304 35.4978 48.0285 36.0077 48.0282 36.5177C47.9372 36.5185 47.8464 36.5182 47.7556 36.5182C47.7553 35.7899 47.7551 35.0619 47.7556 34.3339Z" fill="white"/>
<path d="M32.3178 34.4082C32.9021 34.3198 33.5202 34.7699 33.5722 35.3562C33.6213 35.6916 33.489 36.0413 33.2395 36.2724C32.8292 36.6674 32.0913 36.6602 31.693 36.2511C31.4778 36.0459 31.3551 35.7501 31.3681 35.4548C31.374 34.9409 31.8056 34.4819 32.3178 34.4082ZM32.318 34.6738C31.9779 34.7284 31.7011 35.0223 31.6535 35.3553C31.5887 35.7337 31.826 36.1408 32.1973 36.2644C32.5222 36.3851 32.9175 36.2714 33.1261 35.9985C33.3958 35.6656 33.3502 35.1283 33.0184 34.8518C32.8319 34.6849 32.5622 34.6299 32.318 34.6738Z" fill="white"/>
<path d="M36.5371 34.5201C36.8365 34.2989 37.3256 34.3904 37.4983 34.7246C37.4262 34.7647 37.354 34.805 37.2819 34.8451C37.1521 34.6454 36.8358 34.5966 36.6613 34.7661C36.5874 34.8192 36.5955 34.9166 36.6034 34.9965C36.6245 35.1008 36.7374 35.145 36.8205 35.194C37.035 35.3051 37.2927 35.3691 37.4434 35.5705C37.6115 35.7953 37.5837 36.1299 37.4004 36.3381C37.2088 36.5663 36.8583 36.6218 36.5904 36.5023C36.3847 36.4023 36.2576 36.191 36.2164 35.9744C36.3084 35.953 36.4009 35.9331 36.4932 35.9129C36.5025 36.1104 36.6583 36.3101 36.8704 36.3137C37.1565 36.3444 37.384 35.9783 37.2174 35.7448C37.0394 35.5065 36.6964 35.5031 36.4917 35.2971C36.2507 35.1032 36.275 34.6852 36.5371 34.5201Z" fill="white"/>
<path d="M46.3057 34.4068C46.6885 34.3597 47.0841 34.5336 47.3192 34.8316C47.6581 35.2488 47.6039 35.9146 47.2017 36.2734C46.972 36.4968 46.6343 36.5888 46.3172 36.5557C46.0039 36.5354 45.7106 36.3625 45.5298 36.1123C45.3349 35.8455 45.2844 35.4889 45.3766 35.1752C45.4971 34.7688 45.8814 34.4599 46.3057 34.4068ZM46.2588 34.6775C45.8368 34.7483 45.5349 35.1906 45.609 35.6021C45.6559 35.9979 46.0375 36.32 46.4412 36.3125C46.7165 36.3171 46.9791 36.1635 47.1276 35.939C47.3531 35.6173 47.2937 35.1421 47.0031 34.8774C46.813 34.6879 46.5192 34.6239 46.2588 34.6775Z" fill="white"/>
<path d="M30.4473 34.4418C30.5344 34.4413 30.6216 34.4413 30.7087 34.4418C30.7089 35.0549 30.7084 35.6682 30.7089 36.2813C30.9254 36.2818 31.1416 36.2813 31.358 36.2816C31.3585 36.3603 31.3585 36.439 31.3582 36.518C31.0544 36.5182 30.7509 36.5184 30.4473 36.518C30.4476 35.8259 30.4476 35.1338 30.4473 34.4418Z" fill="white"/>
<path d="M33.7834 34.4435C33.8757 34.4428 33.9679 34.443 34.0605 34.4433C34.0612 34.8518 34.0592 35.2607 34.0614 35.6692C34.0656 35.8489 34.0882 36.0464 34.2173 36.1848C34.4227 36.383 34.8261 36.3548 34.9694 36.0978C35.0418 35.9771 35.0629 35.8342 35.061 35.696C35.0592 35.2785 35.0592 34.861 35.0595 34.4433C35.1517 34.4428 35.244 34.443 35.3363 34.4433C35.3363 34.8695 35.3373 35.2957 35.336 35.7219C35.3365 35.9153 35.3024 36.1198 35.1768 36.2753C34.9066 36.6436 34.2803 36.6646 33.9844 36.3166C33.8438 36.1717 33.7859 35.9674 33.7839 35.7709C33.7827 35.3285 33.7837 34.8859 33.7834 34.4435Z" fill="white"/>
<path d="M35.6773 34.4421C35.7681 34.4411 35.8592 34.4413 35.9502 34.4418C35.9502 35.1339 35.9504 35.8259 35.9499 36.5182C35.8592 36.5182 35.7681 36.5185 35.6771 36.5178C35.6776 35.8259 35.6776 35.1339 35.6773 34.4421Z" fill="white"/>
<path d="M38.4097 34.4437C38.5096 34.441 38.61 34.441 38.7101 34.4415C38.9197 34.9462 39.126 35.4521 39.3319 35.9582C39.5373 35.4538 39.7486 34.9518 39.9494 34.4456C40.0522 34.4372 40.1553 34.443 40.2583 34.4415C39.9518 35.1758 39.6441 35.9097 39.3349 36.6428C39.0203 35.9123 38.717 35.1771 38.4097 34.4437Z" fill="white"/>
<path d="M40.3833 34.4413C40.4741 34.4425 40.5649 34.4435 40.6559 34.4432C40.6591 34.8455 40.6554 35.248 40.6589 35.6503C40.6652 35.8413 40.6802 36.0579 40.8284 36.1994C40.9995 36.3436 41.2719 36.3525 41.4544 36.2243C41.5607 36.1499 41.6191 36.0263 41.6422 35.9032C41.6785 35.6911 41.6655 35.4755 41.6679 35.2616C41.6694 34.9889 41.6697 34.7163 41.6692 34.4437C41.7565 34.4427 41.8441 34.443 41.9317 34.4432C41.9357 34.8214 41.9325 35.1993 41.9335 35.5774C41.9396 35.8119 41.932 36.0664 41.787 36.2644C41.533 36.6249 40.9484 36.6638 40.627 36.3709C40.4662 36.2246 40.3855 36.0087 40.3843 35.7957C40.3818 35.3441 40.3838 34.8928 40.3833 34.4413Z" fill="white"/>
<path d="M42.2743 34.4432C42.369 34.4435 42.4638 34.4425 42.5587 34.4415C42.5587 35.1336 42.5585 35.8256 42.5587 36.518C42.4633 36.5182 42.368 36.5182 42.2728 36.518C42.2719 35.8264 42.275 35.1348 42.2743 34.4432Z" fill="white"/>
<path d="M42.7291 34.4432C43.5799 34.444 44.4304 34.4418 45.2812 34.442C45.281 34.5249 45.281 34.6077 45.2812 34.6908C45.118 34.6915 44.9551 34.6908 44.7921 34.691C44.7914 35.3 44.7919 35.909 44.7919 36.518C44.6969 36.5182 44.6022 36.5182 44.5072 36.518C44.5067 35.909 44.5089 35.3 44.5062 34.691C44.1723 34.6915 43.8383 34.6908 43.5043 34.6912C43.5038 35.3002 43.5043 35.909 43.504 36.518C43.4169 36.5182 43.3298 36.5182 43.2429 36.518C43.2427 35.909 43.2432 35.3002 43.2427 34.6912C43.0714 34.6908 42.9004 34.6915 42.7291 34.6908C42.7288 34.6082 42.7288 34.5256 42.7291 34.4432Z" fill="white"/>
</svg>
