<svg width="80" height="50" viewBox="0 0 80 50" fill="none" xmlns="http://www.w3.org/2000/svg">
<rect width="80" height="50" fill="black"/>
<path d="M26.2699 18.087H12.2126V32.0001H26.2699V18.087Z" fill="#DB2B36"/>
<path d="M24.7197 20.7305L23.1343 23.2523C22.9582 23.5305 22.9934 23.7566 23.0638 23.9653L25.4596 30.0175H15.542C14.6436 30.0175 13.9566 29.3044 13.9566 28.4697L13.939 20.4001C13.9566 19.3566 15.5068 19.3392 15.5244 20.4001V27.9479C15.5244 28.1914 15.7358 28.4523 16.0176 28.4523H23.2929L21.408 24.0871C21.3551 23.9131 21.3199 23.7566 21.3199 23.5827C21.3199 23.3914 21.408 23.0957 21.5313 22.8523L23.2576 20.0349C23.3809 19.774 23.6452 19.6175 23.9446 19.6001C24.3674 19.5827 24.7373 19.8784 24.7549 20.3305C24.7726 20.4349 24.7549 20.6436 24.7197 20.7305Z" fill="white"/>
<path d="M19.2413 25.8261V20.4174C19.2413 19.3565 20.7914 19.3565 20.809 20.4174V25.8782C20.809 27.1304 19.8578 27.9478 18.6952 27.9478C17.5325 27.9478 16.5813 27.0956 16.5813 25.8782V20.4174C16.5813 19.3565 18.1491 19.3565 18.1491 20.4174V25.8261C18.1667 26.5391 19.2413 26.5913 19.2413 25.8261Z" fill="white"/>
<path d="M34.1969 19.6348V25.7739H32.453V21.113H31.2023V23.5304C31.2023 24.4174 31.1142 25.8609 28.9475 25.8609C28.6832 25.8609 28.4895 25.8609 28.2252 25.7739V24.2956C28.3661 24.3304 28.4895 24.3652 28.6128 24.3652C29.3702 24.3652 29.4759 23.8956 29.4759 23.0261V19.6348H34.1969Z" fill="white"/>
<path d="M36.945 19.6521L38.1605 22.226L39.147 19.6521H41.0318L38.2486 25.7738H36.3813L37.2269 24.0869L34.9016 19.6521H36.945Z" fill="white"/>
<path d="M41.8596 19.6521H43.6036V22.226L45.4708 19.6521H47.5142L45.1537 22.6086L47.5671 25.7738H45.4004L43.6036 23.1478V25.7738H41.8596V19.6521Z" fill="white"/>
<path d="M57.3086 19.6696V23.3217L59.7043 19.6696H61.3954V25.7739H59.7219V22.1217L57.3262 25.7739H55.6351V19.6696H57.3086ZM60.3737 18.3652C60.039 19.0783 59.2463 19.3391 58.5241 19.3391C57.7842 19.3391 57.0091 19.0783 56.6745 18.3652L57.6609 18C57.8195 18.4174 58.207 18.5217 58.5241 18.5217C58.8412 18.5217 59.2287 18.4174 59.3873 18L60.3737 18.3652Z" fill="white"/>
<path d="M67.9837 19.6696V25.7739H66.2573V21.1304H65.0242V23.5304C65.0242 24.4174 64.9362 25.8435 62.7871 25.8435C62.5228 25.8435 62.3291 25.8435 62.0648 25.7565V24.2956C62.2057 24.3304 62.3291 24.3652 62.4524 24.3652C63.2098 24.3652 63.3155 23.8956 63.3155 23.0261V19.6696H67.9837Z" fill="white"/>
<path d="M47.9724 22.7305C47.9724 21.0609 49.0646 19.4261 51.3722 19.4261C53.6975 19.4261 54.772 21.0609 54.772 22.7305C54.772 24.4001 53.6799 26.0348 51.3722 26.0348C49.0646 26.0348 47.9724 24.4001 47.9724 22.7305ZM52.9576 22.7305C52.9576 21.5305 52.2002 20.9218 51.3898 20.9218C50.5619 20.9218 49.8044 21.5131 49.8044 22.7305C49.8044 23.9305 50.5619 24.5392 51.3898 24.5392C52.2002 24.5218 52.9576 23.9305 52.9576 22.7305Z" fill="white"/>
<path d="M28.6656 28.5565H29.6873V27.6348H30.0572V30H29.6873V28.8869H28.6656V30H28.2957V27.6348H28.6656V28.5565Z" fill="white"/>
<path d="M32.083 27.9652H31.1318V28.5391H32.0654V28.8695H31.1318V29.6522H32.083V30H30.7618V27.6348H32.083V27.9652Z" fill="white"/>
<path d="M33.7214 29.6521H33.6685C32.911 29.6521 32.6116 29.2347 32.6116 28.7304C32.6116 27.826 33.5276 27.8087 33.6685 27.8087H33.7214V27.5304H34.0913V27.8087H34.1441C34.3027 27.8087 35.2011 27.826 35.2011 28.7304C35.2011 29.2347 34.884 29.6521 34.1441 29.6521H34.0913V30H33.7214V29.6521V29.6521ZM33.7214 28.1565H33.6509C33.1753 28.1565 32.9639 28.4174 32.9639 28.7304C32.9639 29.0608 33.1753 29.3217 33.6509 29.3217H33.7214V28.1565ZM34.0913 29.3217H34.1617C34.6374 29.3217 34.8488 29.0608 34.8488 28.7304C34.8488 28.4174 34.6374 28.1565 34.1617 28.1565H34.0913V29.3217Z" fill="white"/>
<path d="M36.5046 27.9652V30H36.1347V27.9652H35.5886V27.6348H37.0507V27.9652H36.5046Z" fill="white"/>
<path d="M38.0371 29.0087C37.9137 28.9913 37.7728 28.9391 37.6671 28.8522C37.491 28.713 37.4557 28.5217 37.4557 28.3478C37.4557 28.1391 37.5262 27.9826 37.6319 27.8609C37.8433 27.6348 38.1075 27.6348 38.2837 27.6348H38.8826V30H38.5127V29.0609H38.4246L37.7728 30H37.3148L38.0371 29.0087ZM38.3365 27.9652C38.178 27.9652 38.0194 27.9826 37.9314 28.0695C37.8609 28.1391 37.8257 28.2609 37.8257 28.3478C37.8257 28.4695 37.8785 28.5739 37.949 28.6261C38.0018 28.6609 38.0899 28.713 38.3189 28.713H38.5127V27.9652H38.3365V27.9652Z" fill="white"/>
<path d="M39.9747 28.5565H40.9965V27.6348H41.3664V30H40.9965V28.8869H39.9747V30H39.6224V27.6348H39.9747V28.5565Z" fill="white"/>
<path d="M43.5156 29.4262H42.4939L42.2296 30.0001H41.8245L43.0223 27.4957L44.1497 30.0001H43.7446L43.5156 29.4262ZM43.357 29.0783L43.0047 28.2783L42.6348 29.0783H43.357Z" fill="white"/>
<path d="M45.1187 29.0087C44.9954 28.9913 44.8545 28.9391 44.7488 28.8522C44.5726 28.713 44.5374 28.5217 44.5374 28.3478C44.5374 28.1391 44.6078 27.9826 44.7311 27.8609C44.9425 27.6348 45.2068 27.6348 45.3829 27.6348H45.9819V30H45.6119V29.0609H45.5238L44.8721 30H44.4141L45.1187 29.0087ZM45.4182 27.9652C45.2596 27.9652 45.1011 27.9826 45.013 28.0695C44.9425 28.1391 44.9073 28.2609 44.9073 28.3478C44.9073 28.4695 44.9601 28.5739 45.0306 28.6261C45.0835 28.6609 45.1715 28.713 45.4005 28.713H45.5943V27.9652H45.4182V27.9652Z" fill="white"/>
<path d="M48.5361 28.5739L49.4697 27.6348H49.9453L48.8708 28.6956L49.9453 30H49.4697L48.5361 28.8522V30H48.1661V27.6348H48.5361V28.5739Z" fill="white"/>
<path d="M52.7109 28.8173C52.7109 29.513 52.1824 30.0521 51.4602 30.0521C50.7379 30.0521 50.2095 29.513 50.2095 28.8173C50.2095 28.1217 50.7379 27.5825 51.4602 27.5825C52.1824 27.5825 52.7109 28.1217 52.7109 28.8173ZM52.3233 28.8173C52.3233 28.2956 51.971 27.9303 51.4602 27.9303C50.9493 27.9303 50.597 28.2956 50.597 28.8173C50.597 29.339 50.9493 29.7043 51.4602 29.7043C51.971 29.7043 52.3233 29.339 52.3233 28.8173Z" fill="white"/>
<path d="M53.1512 29.9999L53.6445 27.4434L54.49 29.2868L55.318 27.4434L55.776 29.9999H55.406L55.1594 28.5738L54.4548 30.1042L53.7678 28.5564L53.5212 29.9999H53.1512Z" fill="white"/>
<path d="M58.1894 27.6348V30H57.8195V27.9652H56.7978V30H56.4279V27.6348H58.1894Z" fill="white"/>
<path d="M60.3209 29.4262H59.2992L59.0349 30.0001H58.6298L59.8276 27.4957L60.955 30.0001H60.5499L60.3209 29.4262ZM60.1799 29.0783L59.8276 28.2783L59.4577 29.0783H60.1799Z" fill="white"/>
<path d="M61.8006 28.5565H62.8223V27.6348H63.1922V30H62.8223V28.8869H61.8006V30H61.4307V27.6348H61.8006V28.5565Z" fill="white"/>
<path d="M65.5175 28.4L63.8969 30.0869V27.6347H64.2668V29.2174L65.8874 27.5304V30H65.5175V28.4Z" fill="white"/>
<path d="M67.1205 29.0087C66.9972 28.9913 66.8563 28.9391 66.7506 28.8522C66.5744 28.713 66.5392 28.5217 66.5392 28.3478C66.5392 28.1391 66.6097 27.9826 66.733 27.8609C66.9444 27.6348 67.2086 27.6348 67.3847 27.6348H67.9837V30H67.6137V29.0609H67.5257L66.8739 30H66.4159L67.1205 29.0087ZM67.42 27.9652C67.2614 27.9652 67.1029 27.9826 67.0148 28.0695C66.962 28.1391 66.9091 28.2609 66.9091 28.3478C66.9091 28.4695 66.962 28.5739 67.0324 28.6261C67.0853 28.6609 67.1734 28.713 67.4024 28.713H67.5961V27.9652H67.42V27.9652Z" fill="white"/>
</svg>
