<svg xmlns="http://www.w3.org/2000/svg" width="80" height="50" fill="none" viewBox="0 0 80 50"><defs/><path fill="#000" d="M0 0h80v50H0z"/><path fill="#E6000E" fill-rule="evenodd" d="M38.11 26.11h-1.77l.89-2.35.88 2.35zm.6 1.59l.4 1.05h1.95l-2.94-7.5h-1.76l-2.94 7.5h1.92l.4-1.05h2.97zm-8.4 1.05V24.3l-1.9 2.36-1.9-2.36v4.46h-1.92v-7.5h1.88l1.94 2.58 1.93-2.58h1.88v7.5h-1.9zm11.96-7.5v7.5h1.91V23h2.67v-1.74h-4.58zm10.67 4.56v2.94h1.91v-7.5h-1.9v2.8H50.1v-2.8H48.2v7.5h1.9v-2.94h2.84zm13.91 2.94V23h-2.23v-1.74H71V23h-2.24v5.76h-1.9zm-5.48-4.27v4.27h1.91v-7.5h-1.65l-2.99 4.23v-4.23h-1.9v7.5h1.6l3.03-4.27zM9 22.58a3.6 3.6 0 012.17-3.3A3.4 3.4 0 0112.5 19h8.09v1.82h-8.1a1.75 1.75 0 00-1.72 1.76v3.07a1.77 1.77 0 01-1.46 1.59l-.32.05v-4.7zM9 31v-1.82h8.1a1.67 1.67 0 001.21-.52 1.74 1.74 0 00.5-1.25v-2.9c0-.87.64-1.62 1.47-1.75l.32-.05v4.7a3.6 3.6 0 01-2.17 3.32 3.4 3.4 0 01-1.34.27H9zm6.87-3.71v-2.33l-1.07 1.27-1.07-1.27v2.33h-1.42V22.7h1.35l1.14 1.47 1.14-1.47h1.34v4.58h-1.41z" clip-rule="evenodd"/></svg>