<svg xmlns="http://www.w3.org/2000/svg" width="80" height="50" fill="none" viewBox="0 0 80 50"><defs/><path fill="#000" d="M0 0h80v50H0z"/><path fill="#fff" d="M64.6 18.12H63v10.85h1.6V18.12z"/><path fill="#fff" fill-rule="evenodd" d="M61.26 28.97h-1.6v-7.69h1.6v7.7zm-.8-11.12a1.08 1.08 0 110 2.16 1.08 1.08 0 010-2.16zM57.95 28.99h-1.58v-.85a3.45 3.45 0 01-2.48 1.04 4.05 4.05 0 010-8.08c.93 0 1.87.35 2.48.97v-.78h1.58V29zm-4.01-6.28c1.37 0 2.46.99 2.46 2.43a2.38 2.38 0 01-2.46 2.44 2.39 2.39 0 01-2.42-2.44 2.38 2.38 0 012.42-2.43zM38.12 28.99h-1.57v-7.7h1.57v.54c.35-.33 1-.73 1.91-.73 1.12 0 1.95.47 2.52 1.22a3.57 3.57 0 012.7-1.22c1.96 0 3.3 1.32 3.3 3.39v4.5h-1.58v-4.5a1.82 1.82 0 00-3.64 0v4.5h-1.57v-4.5a1.82 1.82 0 00-3.64 0v4.5z" clip-rule="evenodd"/><path fill="#FF9E00" d="M25.97 25a2.54 2.54 0 11-5.08 0 2.54 2.54 0 015.08 0zm-2.53-8.44a8.44 8.44 0 104.75 15.4l.02-.01-1.14-1.32h-.02a6.71 6.71 0 112.93-4.2c-.21.88-.82 1.14-1.28 1.1-.46-.03-1-.36-1-1.16V25a4.27 4.27 0 10-1.24 3 2.74 2.74 0 002.33 1.27c.62 0 1.22-.2 1.71-.58a3.18 3.18 0 001.19-1.96 8.44 8.44 0 00-8.26-10.16"/></svg>