<svg width="80" height="50" viewBox="0 0 80 50" fill="none" xmlns="http://www.w3.org/2000/svg">
<rect width="80" height="50" fill="black"/>
<path d="M15.1795 19.5076V25.2054C15.1795 25.4719 14.9755 25.6563 14.7308 25.6563H14.0578C14.017 25.6563 13.9966 25.6973 13.9966 25.7178V30.4934C14.1597 30.4934 14.3229 30.5344 14.5065 30.5344C17.5453 30.5344 20.013 28.0544 20.013 25.0005C20.013 22.1925 17.9124 19.8355 15.1795 19.5076ZM15.0571 28.0339C14.6696 28.0339 14.3841 27.7059 14.3841 27.3575C14.3841 26.9681 14.7104 26.6811 15.0571 26.6811C15.4446 26.6811 15.7301 27.0091 15.7301 27.3575C15.7709 27.7264 15.4446 28.0339 15.0571 28.0339ZM16.6683 28.0339C16.2808 28.0339 15.9953 27.7059 15.9953 27.3575C15.9953 26.9681 16.3216 26.6811 16.6683 26.6811C17.0558 26.6811 17.3413 27.0091 17.3413 27.3575C17.3413 27.7059 17.0762 28.0339 16.6683 28.0339ZM18.2999 28.0339C17.9124 28.0339 17.6268 27.7059 17.6268 27.3575C17.6268 26.9681 17.9532 26.6811 18.2999 26.6811C18.6874 26.6811 18.9729 27.0091 18.9729 27.3575C18.9729 27.7059 18.6874 28.0339 18.2999 28.0339Z" fill="#00B956"/>
<path d="M14.5066 19.4873C11.4678 19.4873 9 21.9673 9 25.0212C9 27.7062 10.8559 29.8992 13.3441 30.4116V25.4311C13.3441 25.2057 13.548 25.0212 13.752 24.9802H13.9763H14.425C14.4658 24.9802 14.4862 24.9392 14.4862 24.9187L14.5066 19.4873ZM13.4461 24.0374C13.0586 24.0374 12.773 23.7095 12.773 23.361C12.773 22.9716 13.0993 22.6847 13.4461 22.6847C13.8336 22.6847 14.1191 23.0126 14.1191 23.361C14.1191 23.7095 13.8132 24.0374 13.4461 24.0374Z" fill="#00B956"/>
<path d="M69.6338 22.5V24.5906H66.8601V22.5H65.4529V28.0339H66.8601V25.7998H69.6338V28.0339H71.0003V22.5H69.6338Z" fill="#00B956"/>
<path d="M46.7101 23.1355C46.4858 22.6436 46.0371 22.3772 45.5884 22.3772C45.1397 22.3772 44.6706 22.6436 44.4667 23.1355L42.2437 28.0546H43.7121L44.2016 26.8863H47.0568L47.5463 28.0546H49.0147L46.7101 23.1355ZM44.5891 25.7795L45.4252 23.7504C45.466 23.6889 45.4864 23.6889 45.5272 23.6889C45.568 23.6889 45.6292 23.6889 45.6292 23.7504L46.4654 25.7795H44.5891Z" fill="#00B956"/>
<path d="M30.3125 21.5163C29.6599 21.5163 29.252 21.8648 28.9461 22.5616L27.1717 26.7223L25.377 22.5411C25.0915 21.8648 24.6632 21.4958 24.0106 21.4958C23.3987 21.4958 22.7869 21.9058 22.7869 22.8691V28.0135H24.1533V23.0535L25.9684 27.1732C26.1928 27.7676 26.6211 28.116 27.1717 28.116C27.7632 28.116 28.1507 27.7676 28.375 27.1732L30.1902 23.0535V28.075H31.5566V22.9306C31.5362 21.9673 30.9244 21.5163 30.3125 21.5163Z" fill="#00B956"/>
<path d="M33.9632 26.8656C33.902 26.8656 33.8204 26.8041 33.8204 26.7221V25.7383H37.2467V24.6111H33.8204V23.7707C33.8204 23.7092 33.8816 23.6273 33.9632 23.6273H37.3691V22.459H33.2902C32.8007 22.459 32.4744 22.8484 32.4744 23.2788V27.1525C32.4744 27.5625 32.8211 27.9724 33.2902 27.9724H37.3691V26.8041H33.9632V26.8656Z" fill="#00B956"/>
<path d="M39.6737 28.0339V23.8117C39.6737 23.7502 39.7349 23.6683 39.8165 23.6683H43.2224V22.5H39.1434C38.654 22.5 38.3276 22.8894 38.3276 23.3198V28.0134L39.6737 28.0339Z" fill="#00B956"/>
<path d="M64.5553 25.2874C64.5553 23.3608 63.7191 22.459 61.6388 22.459H61.1494C59.0691 22.459 58.2329 23.3813 58.2329 25.2874C58.2329 27.173 59.0691 28.1159 61.1494 28.1159H61.598C63.7191 28.0749 64.5553 27.173 64.5553 25.2874ZM61.598 26.9476H61.1494C60.0277 26.9476 59.5586 26.4352 59.5586 25.2874C59.5586 24.1806 59.9461 23.6273 61.1494 23.6273H61.598C62.7605 23.6273 63.1888 24.1806 63.1888 25.2874C63.1888 26.4147 62.7605 26.9476 61.598 26.9476Z" fill="#00B956"/>
<path d="M54.4192 21.6394H51.6863C49.6468 21.6394 48.8311 22.6847 48.8311 24.4678C48.8311 24.7548 48.8718 25.0212 48.8922 25.2467C49.1166 26.5174 49.8712 27.2963 51.7679 27.2963H52.3797V28.0136H53.7462V27.2963H54.3376C56.2548 27.2963 57.0094 26.5174 57.2133 25.2467C57.2541 25.0212 57.2745 24.7548 57.2745 24.4678C57.2541 22.6847 56.4179 21.6394 54.4192 21.6394ZM52.339 26.1485H51.7271C50.789 26.1485 50.4626 25.8001 50.2587 25.2262C50.1975 25.0212 50.1975 24.7343 50.1975 24.4473C50.1975 23.2791 50.7482 22.7872 51.5232 22.7872H52.3594V26.1485H52.339ZM55.8469 25.2877C55.6429 25.8411 55.2962 26.21 54.3784 26.21H53.7666V22.8282H54.6028C55.3778 22.8282 55.9284 23.3201 55.9284 24.4883C55.908 24.7958 55.908 25.0417 55.8469 25.2877Z" fill="#00B956"/>
</svg>
