<svg xmlns="http://www.w3.org/2000/svg" width="80" height="50" fill="none" viewBox="0 0 80 50"><defs/><path fill="#000" d="M0 0h80v50H0z"/><path fill="#fff" d="M56.32 26.08h1.63v-.36h-1.63v.36zM29.24 23.5l-.14 3.67v.06c0 .31.1.38.6.41v.17a8.34 8.34 0 00-1.45 0v-.17c.51-.04.59-.1.6-.47L29 23.7v-.04c0-.33-.1-.4-.6-.43v-.17a6.72 6.72 0 001.29 0l1.35 3.56 1.38-3.57a7.07 7.07 0 001.28 0v.18c-.5.03-.6.1-.6.42v.05l.07 3.47c0 .38.07.43.6.47v.17a8.72 8.72 0 00-1.82 0v-.17c.5-.03.6-.1.6-.44v-.03l-.06-3.66-1.2 3.15-.1.23-.1.26-.09.27-.08.23h-.1l-.09-.22-.1-.28-.1-.27-.1-.25-1.19-3.13zM34.72 25.78c.07-.8.35-1.22.81-1.22.48 0 .72.4.76 1.22h-1.57zm.94 1.85c-.66 0-.95-.5-.96-1.6h2.17c-.01-1.08-.47-1.66-1.33-1.66-.87 0-1.42.69-1.42 1.77 0 1.1.55 1.73 1.49 1.73.71 0 1.18-.43 1.27-1.16h-.3c-.08.6-.4.92-.92.92zM37.3 24.63v-.12c.42-.04.67-.08.97-.17l.07.59V25c.16-.4.47-.64.85-.64.36 0 .63.23.63.57 0 .2-.12.34-.3.34-.17 0-.3-.1-.3-.24l.01-.07.02-.07v-.06c0-.1-.1-.17-.22-.17-.38 0-.62.44-.62 1.14v1.48c0 .3.07.36.52.38v.14a7.74 7.74 0 00-1.63 0v-.14c.45-.02.53-.08.53-.38v-2.31c-.01-.3-.05-.34-.43-.35h-.1zM42.6 24.3v1.17h-.15c-.13-.61-.4-.9-.85-.9-.54 0-.86.56-.86 1.57 0 1 .28 1.5.84 1.5.45 0 .72-.32.81-.94h.3c-.1.76-.51 1.17-1.17 1.17-.84 0-1.42-.7-1.42-1.73 0-1.05.59-1.77 1.45-1.77.3 0 .5.08.74.3l.2-.36h.12zM43.8 25.78c.08-.8.36-1.22.82-1.22.48 0 .72.4.76 1.22h-1.57zm.95 1.85c-.66 0-.95-.5-.96-1.6h2.17c-.01-1.08-.47-1.66-1.33-1.66-.87 0-1.42.69-1.42 1.77 0 1.1.55 1.73 1.49 1.73.7 0 1.18-.43 1.27-1.16h-.3c-.08.6-.4.92-.92.92zM47.98 27.68c-.52 0-.8-.53-.8-1.54 0-1.03.26-1.53.78-1.53.54 0 .82.54.82 1.58 0 .98-.27 1.49-.8 1.49zm1.37-.6V23c-.36.1-.7.15-1.1.2v.11c.46 0 .52.05.52.42v1.23c-.27-.42-.48-.55-.88-.55-.78 0-1.32.72-1.32 1.73 0 1.02.55 1.73 1.35 1.73.41 0 .7-.18.9-.58.03.27.03.3.1.57.3-.1.42-.12.85-.17l.11-.01v-.12c-.48-.02-.53-.05-.53-.48zM50.76 25.78c.07-.8.35-1.22.81-1.22.48 0 .72.4.76 1.22h-1.57zm.94 1.85c-.66 0-.95-.5-.96-1.6h2.17c-.01-1.08-.47-1.66-1.33-1.66-.87 0-1.42.69-1.42 1.77 0 1.1.55 1.73 1.49 1.73.71 0 1.18-.43 1.27-1.16h-.29c-.09.6-.4.92-.93.92zM53.53 27.87V26.7h.16c.13.64.44.95.95.95.43 0 .75-.27.75-.64 0-.23-.14-.4-.5-.55l-.27-.12-.34-.15c-.53-.24-.7-.44-.7-.85 0-.56.46-.94 1.1-.94.28 0 .5.07.74.23l.12-.3h.14v1.1h-.17c-.07-.56-.3-.83-.77-.83-.38 0-.68.25-.68.59 0 .28.1.37.77.65l.3.13c.56.23.76.46.76.88 0 .59-.5 1.01-1.18 1.01-.33 0-.6-.08-.87-.3l-.18.32h-.13zM59.94 25.44c.39 0 .6.06.77.22.17.17.26.47.26.8 0 .71-.36 1.11-1 1.11h-.27c-.39 0-.45-.06-.45-.37v-1.76h.69zm-.7-2.14h.63c.6 0 .88.29.88.94 0 .33-.08.56-.24.75-.16.17-.36.23-.77.23h-.5V23.3zm2.16.93c0-.37-.16-.7-.44-.9-.25-.17-.53-.25-1-.25h-1.92v.18c.52.02.6.08.6.46v3.43c0 .38-.06.43-.6.47v.17h1.84c.54 0 .83-.06 1.14-.25.36-.22.6-.66.6-1.1 0-.38-.17-.73-.45-.94a1.3 1.3 0 00-.58-.22c.53-.2.8-.56.8-1.05zM62.81 25.78c.07-.8.35-1.22.82-1.22s.71.4.76 1.22H62.8zm.95 1.85c-.66 0-.96-.5-.96-1.6h2.17c-.02-1.08-.47-1.66-1.33-1.66-.88 0-1.43.69-1.43 1.77 0 1.1.55 1.73 1.5 1.73.7 0 1.17-.43 1.27-1.16h-.3c-.08.6-.4.92-.92.92zM65.35 24.66v-.12c.43-.06.68-.11.97-.21.03.16.05.35.07.61.26-.38.56-.55.98-.55.44 0 .82.22.96.57.08.17.11.36.11.63v1.7c0 .3.08.36.52.38v.14a7.25 7.25 0 00-1.59 0v-.14c.4-.02.5-.09.5-.37v-1.73c0-.61-.2-.86-.66-.86-.5 0-.76.3-.76.88v1.71c0 .28.1.35.47.37v.14a7.04 7.04 0 00-1.57 0v-.14c.44-.02.51-.08.51-.38V25c0-.29-.05-.33-.41-.33h-.1zM69.25 27.79l1.97-3.15h-.9c-.47 0-.59.1-.85.73h-.14l.16-.91H72l-1.98 3.15h.85c.5 0 .7-.2.92-.84h.15l-.19 1.02h-2.5zM23.82 25a7.82 7.82 0 11-15.64 0 7.82 7.82 0 0115.64 0zM16 17.65a7.35 7.35 0 100 14.7 7.35 7.35 0 000-14.7z"/><path fill="#ABABAB" d="M16 17.65a7.35 7.35 0 100 14.7 7.35 7.35 0 000-14.7zm0 14.23a6.87 6.87 0 110-13.75 6.87 6.87 0 010 13.75z"/><path fill="#C4C4C4" d="M16 32.83a7.82 7.82 0 100-15.65 7.82 7.82 0 000 15.65zM16 17c4.4 0 8 3.6 8 8s-3.6 8-8 8-8-3.6-8-8 3.6-8 8-8z" opacity=".4"/><path fill="#fff" d="M8.55 25.02A7.46 7.46 0 1123.43 25a7.46 7.46 0 01-14.88.03zm2.32-5.15a7.28 7.28 0 00-.02 10.28A7.36 7.36 0 0016 32.27c2 0 3.82-.8 5.13-2.12a7.15 7.15 0 002.12-5.13c0-2-.82-3.82-2.13-5.15a7.18 7.18 0 00-10.25 0z"/><path fill="#E1E3E1" d="M16 31.9a6.85 6.85 0 01-4.87-2.02 6.85 6.85 0 010-9.75 6.85 6.85 0 019.75 0 6.85 6.85 0 010 9.75A6.85 6.85 0 0116 31.9zm0-.2a6.68 6.68 0 10-4.72-11.4A6.68 6.68 0 0016 31.7z" opacity=".4"/><path fill="#fff" d="M22.07 28.25l-4.95-3.93L16 17.9a.43.43 0 00-.22.2l-.8 6.25L10 28.17l-.15.2c-.03.05-.03.13-.03.2l6.15-2.52 6.15 2.52c.05-.12 0-.25-.05-.32z"/><path fill="#565F64" d="M16.05 25.2L16 26.35l5.65 2.27c.2.1.35.05.5-.05l-6.02-3.4c-.03-.02-.08 0-.08.03z"/><path fill="#27343C" d="M16.05 25.2s.32.57.7.97c.52.58 1.23.98 1.23.98l3.67 1.47c.2.1.35.05.5-.05l-6.02-3.4c-.03-.02-.08 0-.08.03z"/><path fill="#323E46" d="M16.05 25.2s.32.57.7.97c.52.58 1.23.98 1.23.98l3.67 1.47c.2.1.35.05.5-.05l-6.02-3.4c-.03-.02-.08 0-.08.03z"/><path fill="#A4AAAE" fill-opacity=".6" d="M22.13 28.35l-.05-.1-5.15-3.77-.7.45s.05.02.07 0a.63.63 0 01.38 0c.12.05 5.45 3.45 5.45 3.45v-.03z"/><path fill="#333E46" d="M21.95 28.13l-4.8-3.8-.22.15 5.14 3.8a.66.66 0 00-.12-.15z"/><path fill="#565F64" d="M16.13 24.82l-.03.03s0 .05.05.02c.03-.02.75-.4 1-.55l-.87-6c-.03-.22-.13-.32-.3-.4l.1 6.95.05-.05z"/><path fill="#A4AAAE" fill-opacity=".6" d="M15.7 18.32v.33l-.55 5.52c0 .08.02.15.1.2l.32.25.23-6.1.02-.47c-.07.05-.1.15-.12.27zM15.4 24.73l-.3-.25-5.07 3.67s-.15.1-.18.2l.18-.1 5.32-3.35c.1-.05.13-.1.05-.17z"/><path fill="#565F64" d="M15.93 25.2c0-.03-.03-.05-.05-.03L9.82 28.6c.15.1.3.12.5.05l5.65-2.28-.04-1.17z"/><path fill="#333E46" d="M16.1 24.85l.03-.03-.03.03s0 .02.03.02h.02c.03-.02.75-.4 1-.55l-.1-.72-.77-5.28c0-.1-.03-.17-.08-.22 0 0 .38 5.05.38 5.6 0 .73-.48 1.15-.48 1.15z"/><path fill="#C4C4C4" d="M15.93 25.2c0-.03-.03-.05-.05-.03L9.82 28.6c.15.1.3.12.5.05l5.65-2.28-.04-1.17z"/><g opacity=".8"><path fill="#02131F" d="M10.32 28.63l5.65-2.28-.04-1.1c-.1.3-.28.63-.75.88-.36.2-3.7 1.85-4.9 2.42-.08.05-.18.07-.23.1.1.05.17.03.27-.02z"/><path fill="#323E46" d="M10.32 28.63l5.65-2.28-.04-1.1c-.1.3-.28.63-.75.88-.36.2-3.7 1.85-4.9 2.42-.08.05-.18.07-.23.1.1.05.17.03.27-.02z"/></g><path fill="#323E46" d="M9.28 28.1c-.18-.4-1.18-2.35-.08-6.1h-.42c-.23.75-.4 1.2-.5 1.88 0 0-.05.25-.08.52-.02.28-.02.43-.02.6 0 1.5.37 2.38.37 2.38a7.3 7.3 0 002.05 3.22c.83.72 2.1 1.27 3.15 1.48a8.93 8.93 0 01-4.47-3.98z"/><path fill="#A5ABAF" d="M16.1 25.15h-.23c.03 0 .06 0 .06.03l.04 1.14H16l.05-1.14c0-.03.02-.05.05-.03z"/><path fill="#505558" d="M18.5 17.58c2.63 1 5.1 3.75 5.1 7.22 0 4.2-3.35 7.63-7.6 7.63v.4a7.83 7.83 0 002.5-15.25z"/><path fill="#2A373F" d="M22.7 22.05c-1.75-4.03-5.7-4.25-5.93-4.28h-.02a7.05 7.05 0 015.63 4.6v.03c.3.8.45 1.65.47 2.58.02.87-.18 1.84-.55 2.75-.03.12-.05.27-.07.27h.4c1.2-2.25.67-4.52.07-5.95z"/><path fill="#FBFBFB" d="M8.55 25.02A7.46 7.46 0 1123.43 25a7.46 7.46 0 01-14.88.03zm2.32-5.15a7.28 7.28 0 00-.02 10.28A7.36 7.36 0 0016 32.27c2 0 3.82-.8 5.13-2.12a7.15 7.15 0 002.12-5.13c0-2-.82-3.82-2.13-5.15a7.18 7.18 0 00-10.25 0z"/><path fill="#333F47" d="M9.98 28.2l5.1-3.68c.27.16.72.36.77.36.05.02.05-.03.05-.03l-.62-.53a.23.23 0 01-.1-.2l.6-6.02c-.03.02-.03.07-.05.1-.03.05-.03.07-.03.13l-.87 6.02-4.8 3.77c-.03.03-.05.05-.05.08z"/></svg>