<svg xmlns="http://www.w3.org/2000/svg" width="80" height="50" fill="none" viewBox="0 0 80 50"><defs/><path fill="#000" d="M0 0h80v50H0z"/><path fill="#fff" fill-rule="evenodd" d="M25.44 17.09h.21c-.53.94-1.06 1.15-1.61 2.26-.53 1.13-1.24 3.6-1.26 3.64-1.44 3.5-1.6 3.45-1.68 3.8 3.64-4.19 5.42-9.2 9.07-9.74.7-.13 1.02 0 1.57.24 0 .22-.03.19 0 .28-.67-.35-1.02-.3-1.43-.2-1.48.49-2.7 4.97-3.05 5.62-.7 1.38-.65 3.28-3.85 5.18h-.28c.08-.2.8-1.78 2.17-5.1 1.7-4.06 2.89-4.33 3.01-4.93-4.35 3.03-5.46 9.07-9.24 10.51-.03-.1-.07-.18-.07-.32 0-.12.19-.28.56-1.38l1.33-4.44c.95-2.28 2.33-3.44 2.45-3.97-4.27 2.98-5.22 10.13-9.1 10.11-1.33.02-2.24-.6-2.24-1.86 0-.8.35-1.2.98-1.21.74.01.77.62.77.97 0 .9-.49.54-.49 1.13 0 .42.62.83 1.12.81 1.76.02 4.04-3.74 5.32-5.82 2.4-3.84 3.07-4.09 5.74-5.58z" clip-rule="evenodd"/><path fill="#fff" fill-rule="evenodd" d="M31.46 22.67c.66.01 1.75.36 1.75 1.21 0 1.4-2.48 2.08-3.01 1.86 1.55-1.05 1.52-1.8 1.65-2.06 0-.02.15-.2.14-.49-.03-.35-.46-.26-.46-.28-1.28.3-2.24 2.93-2.24 4.12 0 .97.52 1.4 1.12 1.38 3.02.01 3.86-5.4 4.9-5.42h1.4v.4c-.35.82-.57.89-.63 1.38.4-.26 1.87-1.85 2.03-1.94.13-.04 1.02 0 1.47-.16v.48c-.27.65-.55 1.05-.56 1.7 0 .63.2.74.63.73.11.01 1.97-2.73 3.64-2.75h.77c.44.02 1.27.36 1.26 1.05 0 .84-.75 1.4-1.26 1.38-.8.01.11-2.25-.7-2.27-.25.02-1.96 1.94-1.96 3.88 0 .8.35 1.64.98 1.62 2.72.02 3.76-5.56 4.83-5.58h.98c.19.02.26-.05.42.32l-2.31 4.7c.13.23.28.5.49.48 1.27.01 3.55-5.3 4.06-5.34 1.82-.09 1.36.1 1.47 0 .18.3.06.22 0 .4-.2.74-2.24 3.56-2.24 4.7 0 .25.12.3.21.4 3.28-2.25 1.49-1.24 4.13-5.5.55.02.94.04 1.68 0v.4l-.63 1.14.14.08c.56-.62 1.7-1.84 2.24-1.86h1.05c.02.14 0 .15 0 .24 0 .58-.55.84-.56 1.7 0 .53.11.7.35.97 2.06-1.4 1.53-2.73 2.73-2.75h1.19v.4c-2.05 3.98-2.3 4.03-2.31 4.53 0 .31-.03.24 0 .37 0 .1.06.24.07.24 1.48.18 2.9-2.85 4.2-5.38.94.02.47.03 1.47.04.01-.01.2-.02.28.04.08.07 0 .26 0 .25l-2.48 4.77c1.41-.1 3.63-2.63 3.99-3.08.1-.06.06.06.17 0a10.13 10.13 0 01-4.34 3.48c-.14.38.01.11-.98 1.78A6.94 6.94 0 0156.94 34h-.84c-1.15.01-2.03-1.34-2.03-2.27 0-1.66 1.11-1.78 1.61-2.02h.77c-.18.53-.77 1.07-.77 2.43 0 .77.64 1.71 1.4 1.7 2.27.01 5.07-5.47 5.04-6.07-.22.17-1.5 1.23-2.38 1.21-.74.02-.9-.63-.91-1.37 0-1.26.32-.91.21-1.78-.65.16-.61.34-1.12.32-.9.02-1.46-.74-1.47-1.77-1.98.77-2.6 4.38-3.29 4.36h-1.4c-.22-.08 0-.35.28-.97-.24.1-1.75 1.23-2.38 1.21-1.05.02-.99-1.2-1.26-1.61-.15.12-1.56 1.63-2.3 1.61-.97.02-1.23-.78-1.27-1.61-.62.16-1.75 1.55-3.01 1.53h-.56c-.88.02-1.6-.92-1.61-1.86 0 .02.09-.1.14-1.13-.43-.2-.17.1-1.12.08-1.53.02-1.47-1.1-1.47-1.86-1.74.69-2.74 4.52-3.43 4.53-.54.03-.85-.02-1.4 0l-.14-.12c-.03-.29.11-.36.28-.85 0 .02-2.05 1.23-3.15 1.21-1.31.02-1.68-.85-1.89-1.78-.36.13-1.68 1.64-4.2 1.62-.35.02-.07.02-1.96 0v-.24c0-.28.01-.23.35-.24l1.68.32c4.95.02 4.3-5.89 8.12-5.9z" clip-rule="evenodd"/></svg>