<svg xmlns="http://www.w3.org/2000/svg" width="80" height="50" fill="none" viewBox="0 0 80 50"><defs/><path fill="#000" d="M0 0h80v50H0z"/><path fill="#FF5252" d="M32.24 26.5a9.11 9.11 0 01-3.06-.72c-.98-.36-1.98-.73-2.98-.73-.71 0-1.37.18-1.98.57v1.65a3.8 3.8 0 011.98-.55c1.02 0 2.05.36 3.05.73.98.34 1.99.73 2.97.73.82 0 1.55-.25 2.25-.77v-1.63c-.7.5-1.41.72-2.23.72zM29.18 22.54c-.98-.35-1.98-.72-2.98-.72-.71 0-1.37.18-1.98.56v1.66a3.8 3.8 0 011.98-.55c1.02 0 2.05.36 3.05.73.98.33 1.98.72 2.96.72.83 0 1.56-.25 2.26-.76v-1.64c-.68.48-1.43.71-2.26.71-1 .02-2.03-.35-3.03-.7zM29.25 30.72c.98.35 1.99.72 2.97.72.82 0 1.55-.25 2.25-.76v-1.64c-.68.48-1.43.71-2.25.71a9.12 9.12 0 01-3.06-.73c-.98-.36-1.98-.72-2.98-.72-.71 0-1.37.18-1.98.56v1.66a3.8 3.8 0 011.98-.55c1.06.02 2.1.39 3.07.75z"/><path fill="#fff" d="M58.54 23.31a4.02 4.02 0 00-2.83-.96 4 4 0 00-2.82.96c-1.09 1-1.23 2.38-1.23 3.32 0 .95.14 2.31 1.23 3.33.71.64 1.62.95 2.82.95 1.22 0 2.13-.31 2.83-.95 1.09-1 1.23-2.38 1.23-3.33 0-.94-.13-2.32-1.23-3.32zm-1.1 3.98c0 .41 0 1.09-.5 1.56a1.77 1.77 0 01-2.32 0c-.5-.47-.5-1.15-.5-1.56v-1.47c0-.41 0-1.09.5-1.56a1.77 1.77 0 012.33 0c.5.47.5 1.15.5 1.56v1.47zm-9.77 3.34v-6.41l-.89-1.73h3.17v8.14h-2.28zm16.68-6.52c-.2.1-.46.3-.6.4l-.06.05v6.08h-2.25v-6.52l-.89-1.62h2.73v.89l.18-.18a3.36 3.36 0 012.37-.9c1.03 0 1.78.24 2.33.76.84.8.84 1.81.84 2.42v5.17h-2.25v-5.39c0-.36 0-.77-.36-1.1a1.5 1.5 0 00-1.02-.36c-.42 0-.77.16-1.02.3zm-45.03-.3c-.55 0-1 .32-1.34.6l-.05.03v6.19h-2.25v-5.58c0-.18 0-.6-.32-.95-.2-.2-.48-.32-.84-.32-.56 0-1 .32-1.35.6l-.05.03v6.18H10.9v-6.5L10 22.45h2.73v.86l.36-.3c.61-.5 1.35-.74 2.22-.74.87 0 1.5.26 2 .88l.09.11.09-.1c.5-.6 1.18-.9 2.07-.9 1.43 0 3.17.52 3.17 3.06v5.3h-2.26v-5.57c0-.2 0-.63-.32-.95-.2-.2-.49-.3-.83-.3zm22.98.07l-1.71.8a1.11 1.11 0 00-1-.6c-.4 0-.76.17-.94.41-.23.27-.34.73-.34 1.34v4.8h-2.25v-8.16h1.9v1.27l.38-.55c.16-.23.75-.92 1.97-.92.23 0 .96 0 1.43.35.18.2.54.6.56 1.26zm7.66-3.83c0 .74-.6 1.33-1.34 1.33-.76 0-1.35-.59-1.35-1.33a1.34 1.34 0 012.68 0zm-4.68-1.72v12.3h-2.25v-12.3h2.25z"/></svg>