<svg xmlns="http://www.w3.org/2000/svg" width="80" height="50" fill="none" viewBox="0 0 80 50"><defs/><path fill="#000" d="M0 0h80v50H0z"/><path fill="#C4CBD1" d="M12.95 23.13c-3.28.08-3.55 2.11-2.79 3.02.87.92 1.9 1.74 2.94 2.38a1.04 1.04 0 01-.49-.77c-.16-1.1.84-2.07 3.1-1.97 2.87.13 5.92 1.57 8.41 2.27 1.3.36 3.6 1.18 6.14-.15.62-.4 1.2-.86 1.69-1.38-1.3 1.36-3.53 1.32-6.43.37-1.48-.48-4.44-1.75-6.01-2.32-1.97-.7-4.39-1.45-6.38-1.45h-.18"/><path fill="#96A2AD" d="M9.81 25.32c-.1-.96.67-2.13 3.14-2.2 2.02-.04 4.53.73 6.56 1.46 1.57.57 4.53 1.84 6 2.32 2.88.94 5.08.99 6.4-.33l.24-.27c-1.26 1.26-3.17 1.4-6.28.37-1.5-.5-3.83-1.62-6.18-2.5-2.1-.77-4.42-1.52-6.4-1.52-2.68 0-3.66 1.37-3.48 2.67"/><path fill="#C5CBD2" d="M11.63 19.49c-2.02.1-3.7 1.07-3.58 2.79.16 1.33 1 2.68 2.1 3.86a1.54 1.54 0 01-.34-.82c-.18-1.3.8-2.67 3.47-2.67 1.99 0 4.3.75 6.4 1.53 2.36.87 4.7 2 6.2 2.49 1.24.41 2.3.64 3.2.68h.55a3.65 3.65 0 002.52-1.05 7.23 7.23 0 00.82-1.18c-.27.54-1.02.95-2.3.95-1.97 0-3.96-1.02-4.56-1.28-1.07-.49-3.76-1.84-5.04-2.46-1.71-.84-5.53-2.85-9.02-2.85h-.42zm-1.47 6.66z"/><path fill="#BDC5CD" d="M11.06 19.1c-1.73.26-3 1.32-3.03 2.78V22c0 .1 0 .18.02.28-.12-1.72 1.56-2.7 3.58-2.8 3.6-.17 7.66 1.98 9.44 2.85 1.28.62 3.97 1.97 5.04 2.46.6.26 2.6 1.28 4.57 1.28 1.28 0 2.02-.41 2.29-.95.36-.84-.25-1.48-1.27-1.75.73.2 1.2.64 1.2 1.16 0 .71-.84 1.29-2.13 1.3-1.73 0-3.95-1.12-4.4-1.33-1.07-.51-4.03-2.03-5.04-2.54-2.56-1.3-5.99-2.93-9.11-2.93a8 8 0 00-1.16.08"/><path fill="#94A0AB" d="M12.6 27.44v.17l.01.15c-.07-.77.74-1.67 2.97-1.56 2.95.14 6.15 1.59 8.46 2.18 1.92.5 3.7.78 5.65-.14.2-.1.38-.2.57-.33-2.53 1.33-4.85.5-6.14.15-2.5-.7-5.54-2.14-8.41-2.27h-.32c-1.82 0-2.74.74-2.8 1.65"/><path fill="#C8CED5" d="M13.1 28.54c1.05.65 2.1 1.12 2.94 1.32-.58-.15-.88-.45-.88-.87.01-.34.44-.69 1.2-.8 1.17-.15 2.95.3 3.45.43l2 .52c2.66.7 5.58.33 7.88-.9-1.94.92-3.73.64-5.65.14-2.3-.6-5.51-2.04-8.46-2.18l-.36-.01c-2.8 0-3.07 1.74-2.12 2.35"/><path fill="#F05133" d="M15.16 29c0 .34.42.7 1.17.83 1.16.2 2.96-.19 3.47-.3l1.87-.42-1.86-.5c-.5-.13-2.28-.57-3.45-.41-.76.1-1.19.45-1.2.8zM30.74 23.25c-1.77 0-3.9 1.05-4.37 1.25.45.2 2.67 1.32 4.4 1.32 1.3 0 2.13-.58 2.13-1.29 0-.71-.9-1.28-2.16-1.28z"/><path fill="#D3D8DD" d="M32.8 25.36a8.07 8.07 0 01-2.77 2.66l.34-.15a8 8 0 002.49-2.48c.08-.13.14-.26.18-.39l-.23.36z"/><path fill="#9EA9B3" d="M15.16 29c0 .4.3.7.88.86l.26.05c.9.17 2.31-.05 3.52-.3 1.02-.23 1.99-.47 1.99-.47l-.2-.05-.05.01-1.77.4c-.59.13-1.72.36-2.7.36-.29 0-.54-.02-.76-.06a2 2 0 01-.85-.33c-.19-.14-.3-.31-.3-.47h-.02z"/><path fill="#D9E0E9" d="M11.62 19.46c-.63.03-1.21.14-1.73.34-.53.2-.97.47-1.28.82a2.2 2.2 0 00-.6 1.63l.01.03c.1.84.47 1.72 1.1 2.62.3.46.68.92 1.12 1.36l-.08-.11c-.05-.06-.1-.12-.13-.18-.33-.37-.62-.73-.87-1.1a5.93 5.93 0 01-1.08-2.6 2.16 2.16 0 01.57-1.63c.31-.32.74-.6 1.26-.8a5.68 5.68 0 012.14-.34c.75 0 1.57.1 2.44.29.75.16 1.55.4 2.38.7 1.52.54 2.89 1.22 3.8 1.67l.39.2c.4.18.93.45 1.5.73 1.3.65 2.8 1.39 3.54 1.72l.19.09a11 11 0 004.39 1.2c1.17 0 2.01-.35 2.31-.97.14-.33.14-.64 0-.92-.18-.37-.6-.67-1.2-.84.19.06.37.13.52.23.12.07.23.15.32.24.14.12.24.25.31.4.14.26.14.55 0 .87-.29.6-1.11.94-2.26.94-1.8 0-3.6-.84-4.37-1.2l-.19-.09c-.74-.33-2.23-1.07-3.54-1.72l-1.5-.73-.4-.2c-.9-.45-2.27-1.12-3.8-1.68-.83-.3-1.63-.53-2.37-.7a11.63 11.63 0 00-2.89-.27"/><path fill="#8C98A3" d="M10.3 23.63c-.42.46-.6 1.06-.51 1.69-.03-.21 0-.42.06-.62.06-.38.22-.74.5-1.03.4-.45 1.25-.99 2.93-.99 2 0 4.36.77 6.4 1.52 1.15.43 2.31.92 3.34 1.36 1.12.47 2.08.88 2.85 1.13 1.39.47 2.53.69 3.48.69 1.07 0 1.93-.28 2.6-.87l.39-.4-.61.52c-.64.47-1.42.7-2.38.7-.94 0-2.08-.23-3.47-.69-.76-.25-1.72-.66-2.84-1.13-1.03-.44-2.2-.93-3.34-1.36-2.05-.75-4.4-1.52-6.42-1.52-1.7 0-2.56.54-2.98 1"/><path fill="#D7DBE0" d="M12.95 23.1c-1.58.04-2.35.53-2.72.93-.33.36-.5.82-.44 1.29.03.31.15.61.35.84a14.18 14.18 0 003.08 2.48l-.12-.1-.19-.16a15.63 15.63 0 01-2.73-2.25c-.19-.22-.3-.51-.34-.82-.05-.45.1-.9.43-1.25.37-.4 1.12-.87 2.68-.9h.18c.9 0 1.97.15 3.2.45.93.24 1.97.56 3.17 1 .67.24 1.58.6 2.55 1 1.28.5 2.61 1.04 3.46 1.32 1.4.46 2.57.68 3.57.68a3.8 3.8 0 002.85-1.02c.19-.2.33-.38.4-.47-.12.13-.43.45-.57.55-.66.6-1.54.89-2.68.89-.99 0-2.15-.22-3.55-.68-.85-.28-2.18-.81-3.46-1.33-.97-.38-1.88-.75-2.55-1a32.7 32.7 0 00-3.18-.99 13.5 13.5 0 00-3.4-.46"/><path fill="#D9E0E9" d="M13.78 26.36c-.37.13-.65.3-.86.51-.25.26-.36.57-.34.89v.01h.06v-.02c-.03-.3.09-.6.32-.84.2-.21.48-.38.83-.5a4.51 4.51 0 011.79-.19c2.02.1 4.16.82 6.06 1.45.86.28 1.67.55 2.4.74.92.24 1.93.46 2.95.46.97 0 1.85-.2 2.71-.6.26-.14.5-.3.75-.45l-.72.37c-.02 0-.04.02-.05.03-.86.4-1.73.6-2.69.6-1.02 0-2.02-.22-2.94-.46-.72-.19-1.54-.46-2.4-.74-1.9-.64-4.04-1.35-6.07-1.45l-.36-.01a4.6 4.6 0 00-1.44.2"/><path fill="#919CA7" d="M13.88 25.98c-.4.13-.71.33-.94.58a1.4 1.4 0 00-.37.89v.15a1.62 1.62 0 00.02.16c-.02-.14 0-.28.04-.42.04-.28.16-.53.35-.75.22-.24.53-.43.92-.56a4.62 4.62 0 011.8-.21c.9.04 1.88.2 3.02.52 1 .27 2 .61 2.95.95.86.3 1.67.58 2.44.8l.3.08c.73.2 1.74.5 2.89.5a6.32 6.32 0 003.15-.85l-.74.32c-.76.31-1.57.48-2.41.48a10.19 10.19 0 01-3.17-.59c-.77-.21-1.58-.5-2.44-.8-.96-.33-1.95-.67-2.96-.94a13.93 13.93 0 00-3.34-.53c-.58 0-1.08.07-1.5.22zm-1.3 1.78z"/><path fill="#BDC5CD" d="M16.04 29.89a5.34 5.34 0 00.94.11h.12c.7 0 1.6-.13 2.73-.37 1-.22 1.97-.46 1.98-.47h.06l-.12-.03h-.05c-.27.08-1.06.27-1.89.45-1.15.25-2.06.37-2.77.37a4.07 4.07 0 01-.99-.12c-.29-.07-.5-.18-.65-.32a.68.68 0 01-.2-.52h-.06c-.01.43.3.74.9.9"/><path fill="#A9B1B9" d="M16.36 28.17c-.37.05-.68.16-.9.32-.2.14-.32.32-.32.5v.02h.05V29c0-.29.38-.66 1.17-.77.17-.02.36-.03.56-.03 1.02 0 2.24.28 2.89.45l1.99.52a11.02 11.02 0 007.9-.9c-.24.12-.48.21-.72.3-1.36.6-2.87.9-4.41.9-.94 0-1.87-.11-2.76-.35l-1.99-.52c-.64-.17-1.88-.45-2.9-.45-.2 0-.4 0-.56.03"/><path fill="#CFD4DA" d="M30.67 23.22c-1.59.02-3.43.86-4.13 1.17l-.2.1.07.03.16-.08c.7-.32 2.58-1.17 4.17-1.17.6 0 1.15.13 1.54.37l.03-.04a3.03 3.03 0 00-1.5-.38h-.14z"/><path fill="#A7AFB7" d="M12.16 19c-.38 0-.75.03-1.1.08-.48.07-.91.2-1.3.38-.4.18-.74.41-1.01.69a2.54 2.54 0 00-.73 2.12v.01s.04-.23.04-.34c0-.66.25-1.26.73-1.75.27-.28.6-.5.99-.68.39-.18.82-.31 1.28-.38.37-.05.76-.08 1.16-.08.73 0 1.53.1 2.37.28.74.16 1.54.4 2.38.7 1.53.56 3 1.27 4.34 1.95l.9.46a279.55 279.55 0 004.3 2.16c.67.3 2.68 1.25 4.26 1.25 1.25 0 2.16-.56 2.16-1.32 0-.36-.22-.69-.62-.93l-.02-.02-.03.05.02.01c.39.24.6.55.6.9 0 .72-.89 1.25-2.1 1.25-1.58 0-3.58-.93-4.24-1.24l-.16-.07c-.83-.4-2.82-1.42-4.14-2.09l-.9-.45A40.29 40.29 0 0017 19.98a18.5 18.5 0 00-2.39-.7c-.82-.18-1.6-.28-2.33-.28h-.1z"/><path fill="#fff" d="M41.38 21.19c-.41.02-.46.14-.44.43l.23 2.57c.03.33.09.44.41.45v.23h-1.54v-.23c.4-.01.43-.12.4-.4l-.16-1.94a9.9 9.9 0 01-.02-.57v-.12h-.03c-.01.11-.07.43-.13.63l-.8 2.63h-.45l-.8-2.49a6.22 6.22 0 01-.17-.77h-.04l-.03.76-.11 1.86c-.02.3 0 .4.4.41v.23h-1.24v-.23c.33-.01.4-.1.41-.45l.2-2.57c.02-.29-.02-.42-.44-.43v-.23h1.32l.72 2.23c.1.27.14.6.15.72h.03c.02-.12.07-.44.14-.71l.66-2.24h1.33v.23zM42.59 23.2h1.08c0-.69-.15-.93-.52-.93-.34 0-.52.22-.56.92zm1.62 1.1l.12.21c-.3.26-.66.42-1.12.42-.87 0-1.38-.54-1.38-1.5 0-.93.55-1.47 1.32-1.47.84 0 1.24.5 1.24 1.37v.2h-1.8c0 .72.26.98.84.98.25 0 .54-.08.78-.21zM46.36 22.41h-.61v1.61c0 .42.06.56.35.56.1 0 .2-.02.33-.06l.07.25c-.21.11-.43.18-.7.18-.48 0-.76-.2-.76-.8v-1.74h-.35v-.24l.4-.14c.03-.26.12-.55.26-.76l.45-.07c-.03.2-.05.55-.05.84h.7l-.1.37zM48.27 23.5c-.51 0-.76.16-.76.55 0 .36.15.47.42.47.21 0 .41-.13.53-.3l.02-.72h-.2zm1.3 1.08v.22c-.1.06-.3.1-.5.1-.38 0-.52-.16-.56-.4a.88.88 0 01-.8.45c-.54 0-.93-.27-.93-.82 0-.68.55-.93 1.46-.93h.25v-.25c0-.46-.11-.66-.47-.66-.4 0-.51.23-.56.51h-.5v-.54c.27-.15.73-.3 1.16-.3.66 0 1.08.28 1.08.95l-.02 1.16c0 .42.06.5.4.5zM50.87 24.23c0 .33.06.4.4.41v.23h-1.5v-.23c.33-.02.4-.07.4-.4v-2.66c0-.41-.1-.47-.42-.48v-.21l.95-.16h.09c.03.08.08.27.08.56v2.94zM52.77 24.23c0 .33.06.4.4.41v.23h-1.5v-.23c.32-.02.4-.07.4-.4v-2.66c0-.41-.1-.47-.42-.48v-.21l.95-.16h.08c.04.08.1.27.1.56v2.94zM54.79 22.28c-.46 0-.63.35-.63 1.15 0 .82.16 1.2.65 1.2.42 0 .62-.4.62-1.2 0-.84-.22-1.15-.64-1.15zm0 2.65c-.85 0-1.4-.54-1.4-1.48 0-.91.57-1.5 1.42-1.5s1.4.56 1.4 1.49c0 1-.63 1.5-1.42 1.5zM57.2 21.64a.44.44 0 01-.44-.43c0-.24.2-.43.44-.43.25 0 .45.2.45.43 0 .24-.2.43-.45.43zm-.7 3.23v-.23c.32-.02.39-.07.39-.4v-1.36c0-.4-.08-.47-.4-.48v-.21l1-.21h.1v2.27c0 .32.05.38.38.4v.22H56.5zM61.23 24.25c0 .32.07.37.36.4v.22h-1.44v-.23c.33-.01.37-.08.37-.37v-1.34c0-.34-.14-.46-.4-.46-.3 0-.5.12-.68.28v1.52c0 .3.05.36.38.37v.23h-1.47v-.23c.31-.02.38-.07.38-.4v-1.36c0-.4-.07-.47-.39-.48v-.21l.86-.23h.08c.04.08.12.29.14.5.25-.27.55-.5 1-.5.47 0 .81.28.81.82v1.47zM62.79 24.9l-.9-2.27c-.1-.28-.17-.33-.39-.36v-.23h1.45v.23c-.26 0-.35.06-.35.17l.03.16.43 1.18c.06.14.1.34.13.47h.02l.13-.47.41-1.18a.45.45 0 00.04-.15c0-.13-.1-.18-.36-.18v-.23h1.16v.23c-.23.03-.3.08-.41.36l-.85 2.27h-.54zM65.41 23.2h1.08c0-.7-.14-.93-.5-.93-.35 0-.54.22-.58.92zm1.62 1.1l.13.21c-.3.26-.66.42-1.13.42-.87 0-1.38-.54-1.38-1.5 0-.93.55-1.47 1.33-1.47.83 0 1.23.5 1.23 1.37v.2h-1.8c.02.72.27.98.85.98.25 0 .54-.08.77-.21zM67.6 24.7v-.58h.5c.04.38.24.5.59.5.3 0 .54-.11.54-.4 0-.27-.15-.38-.45-.44l-.4-.1c-.46-.1-.75-.35-.75-.83 0-.59.5-.89 1.1-.89.48 0 .79.13.94.2v.56h-.46c-.06-.31-.24-.44-.54-.44-.3 0-.48.13-.48.38 0 .2.11.32.4.38l.38.09c.57.13.86.4.86.86 0 .59-.45.94-1.2.94-.58 0-.87-.15-1.03-.23zM71.86 22.41h-.6v1.6c0 .43.05.57.34.57.1 0 .2-.02.33-.06l.07.25c-.2.11-.43.18-.7.18-.48 0-.76-.2-.76-.8v-1.74h-.35v-.24l.4-.14c.03-.26.12-.55.26-.76l.45-.07c-.03.2-.05.55-.05.84h.7l-.09.37z"/></svg>