<svg width="80" height="50" viewBox="0 0 80 50" fill="none" xmlns="http://www.w3.org/2000/svg">
<rect width="80" height="50" fill="black"/>
<path d="M31.1788 25.4875L30.8212 26.5154H30.7914C30.7318 26.2837 30.6226 25.9309 30.4437 25.5077L28.5265 20.6201H26.649V28.41H27.8908V23.603C27.8908 23.3007 27.8908 22.9581 27.8808 22.5348C27.8709 22.3232 27.851 22.1619 27.8411 22.041H27.8709C27.9305 22.3433 28 22.565 28.0497 22.7061L30.3543 28.3899H31.2285L33.5133 22.6557C33.563 22.5247 33.6126 22.2627 33.6623 22.041H33.6921C33.6623 22.6154 33.6424 23.1294 33.6325 23.4418V28.3798H34.9537V20.5999H33.1457L31.1788 25.4875V25.4875ZM36.2053 22.7968H37.4967V28.3798H36.2053V22.7968ZM36.861 20.4387C36.6424 20.4387 36.4636 20.5193 36.3146 20.6604C36.1656 20.8015 36.0861 20.9829 36.0861 21.2046C36.0861 21.4162 36.1656 21.5976 36.3146 21.7387C36.4636 21.8798 36.6424 21.9503 36.861 21.9503C37.0795 21.9503 37.2682 21.8697 37.4073 21.7387C37.5563 21.5976 37.6358 21.4162 37.6358 21.2046C37.6358 20.993 37.5563 20.8116 37.4073 20.6604C37.2782 20.5193 37.0894 20.4387 36.861 20.4387V20.4387ZM42.0762 22.7464C41.8378 22.6961 41.5894 22.6658 41.351 22.6658C40.7649 22.6658 40.2285 22.7968 39.7815 23.0588C39.3345 23.3209 38.9769 23.6837 38.7484 24.1371C38.51 24.6007 38.3908 25.1348 38.3908 25.7495C38.3908 26.2837 38.51 26.7573 38.7384 27.1906C38.9669 27.6139 39.2848 27.9565 39.712 28.1883C40.1192 28.4201 40.5961 28.541 41.1325 28.541C41.7484 28.541 42.2749 28.41 42.6921 28.1681L42.702 28.1581V26.9488L42.6524 26.9891C42.4636 27.1302 42.2451 27.2511 42.0265 27.3216C41.798 27.4023 41.5894 27.4426 41.4106 27.4426C40.8941 27.4426 40.4868 27.2914 40.1987 26.9588C39.9007 26.6364 39.7517 26.193 39.7517 25.6387C39.7517 25.0643 39.9007 24.6108 40.2086 24.2782C40.5166 23.9457 40.9239 23.7743 41.4206 23.7743C41.8378 23.7743 42.2649 23.9154 42.6524 24.1976L42.702 24.2379V22.9581L42.6921 22.948C42.5232 22.8775 42.3345 22.7968 42.0762 22.7464V22.7464ZM46.3378 22.7061C46.0199 22.7061 45.7219 22.8069 45.4636 23.0185C45.2451 23.1999 45.0961 23.4619 44.9669 23.7743H44.957V22.7968H43.6656V28.3798H44.957V25.5278C44.957 25.0441 45.0563 24.641 45.2749 24.3488C45.4934 24.0464 45.7716 23.8953 46.1093 23.8953C46.2285 23.8953 46.3477 23.9255 46.4967 23.9457C46.6358 23.986 46.7351 24.0263 46.8047 24.0767L46.8543 24.117V22.8069L46.8245 22.7968C46.7351 22.7364 46.5563 22.7061 46.3378 22.7061V22.7061ZM49.8543 22.6759C48.9504 22.6759 48.2252 22.948 47.7186 23.4821C47.202 24.0162 46.9537 24.7519 46.9537 25.679C46.9537 26.5457 47.212 27.2511 47.7086 27.765C48.2053 28.2689 48.8808 28.5309 49.7252 28.5309C50.6093 28.5309 51.3146 28.2588 51.8212 27.7147C52.3378 27.1705 52.5861 26.4449 52.5861 25.548C52.5861 24.6612 52.3477 23.9557 51.861 23.4418C51.3941 22.9278 50.7086 22.6759 49.8543 22.6759V22.6759ZM50.8875 26.9689C50.649 27.2813 50.2716 27.4325 49.8047 27.4325C49.3378 27.4325 48.9603 27.2813 48.6921 26.9488C48.4239 26.6364 48.2947 26.1829 48.2947 25.6085C48.2947 25.0139 48.4338 24.5604 48.6921 24.2379C48.9603 23.9154 49.3278 23.7542 49.7947 23.7542C50.2517 23.7542 50.6093 23.9054 50.8676 24.2178C51.1259 24.5302 51.2649 24.9837 51.2649 25.5782C51.2451 26.1829 51.1358 26.6565 50.8875 26.9689V26.9689ZM55.4669 25.1147C55.0596 24.9433 54.8014 24.8123 54.6822 24.7015C54.5828 24.6007 54.5331 24.4596 54.5331 24.2782C54.5331 24.1271 54.5927 23.9759 54.7418 23.8751C54.8908 23.7743 55.0596 23.724 55.308 23.724C55.5265 23.724 55.755 23.7643 55.9735 23.8247C56.1921 23.8852 56.3908 23.9759 56.5497 24.0968L56.5994 24.1371V22.9077L56.5696 22.8976C56.4206 22.8371 56.2219 22.7767 55.9835 22.7263C55.7451 22.686 55.5265 22.6658 55.3477 22.6658C54.7318 22.6658 54.2252 22.817 53.8278 23.1495C53.4305 23.4619 53.2418 23.8852 53.2418 24.379C53.2418 24.641 53.2815 24.8728 53.3709 25.0643C53.4603 25.2557 53.5894 25.4371 53.7682 25.5883C53.9471 25.7294 54.2053 25.8906 54.5629 26.0418C54.861 26.1728 55.0894 26.2736 55.2285 26.3542C55.3676 26.4348 55.457 26.5255 55.5265 26.5961C55.5762 26.6767 55.606 26.7775 55.606 26.9085C55.606 27.2813 55.3278 27.4627 54.7616 27.4627C54.5431 27.4627 54.3146 27.4224 54.0464 27.3317C53.7782 27.241 53.5298 27.11 53.3212 26.9588L53.2716 26.9185V28.1984L53.3014 28.2085C53.4901 28.2992 53.7186 28.3596 53.9967 28.4302C54.2749 28.4806 54.5232 28.5209 54.7418 28.5209C55.4073 28.5209 55.9537 28.3697 56.3411 28.0371C56.7384 27.7147 56.9471 27.3015 56.9471 26.7674C56.9471 26.3945 56.8477 26.0619 56.6292 25.81C56.3411 25.5681 55.9835 25.3162 55.4669 25.1147V25.1147ZM60.3543 22.6759C59.4504 22.6759 58.7252 22.948 58.2186 23.4821C57.712 24.0162 57.4537 24.7519 57.4537 25.679C57.4537 26.5457 57.712 27.2511 58.2086 27.765C58.7053 28.2689 59.3808 28.5309 60.2252 28.5309C61.1093 28.5309 61.8146 28.2588 62.3212 27.7147C62.8378 27.1705 63.0861 26.4449 63.0861 25.548C63.0861 24.6612 62.8477 23.9557 62.361 23.4418C61.8941 22.9278 61.2086 22.6759 60.3543 22.6759V22.6759ZM61.3775 26.9689C61.1391 27.2813 60.7616 27.4325 60.2947 27.4325C59.8179 27.4325 59.4504 27.2813 59.1822 26.9488C58.9139 26.6364 58.7848 26.1829 58.7848 25.6085C58.7848 25.0139 58.9239 24.5604 59.1822 24.2379C59.4504 23.9154 59.8179 23.7542 60.2848 23.7542C60.7318 23.7542 61.0994 23.9054 61.3576 24.2178C61.6159 24.5302 61.755 24.9837 61.755 25.5782C61.755 26.1829 61.6259 26.6565 61.3775 26.9689V26.9689ZM69.9901 23.8751V22.7968H68.6888V21.1441L68.649 21.1542L67.4172 21.5271L67.3874 21.5371V22.7968H65.4404V22.0914C65.4404 21.7689 65.5199 21.517 65.659 21.3557C65.798 21.1945 66.0067 21.1139 66.2649 21.1139C66.4437 21.1139 66.6325 21.1542 66.8411 21.2449L66.8908 21.2751V20.1364L66.861 20.1263C66.6822 20.0658 66.4437 20.0255 66.1358 20.0255C65.7484 20.0255 65.4106 20.1162 65.1027 20.2674C64.7947 20.4387 64.5663 20.6705 64.3974 20.9829C64.2285 21.2852 64.1391 21.6278 64.1391 22.0209V22.7968H63.2351V23.865H64.1391V28.3798H65.4404V23.8751H67.3874V26.7472C67.3874 27.9263 67.9338 28.5209 69.0265 28.5209C69.2053 28.5209 69.3941 28.4906 69.5729 28.4604C69.7616 28.4201 69.9007 28.3697 69.9802 28.3294L69.9901 28.3193V27.241L69.9404 27.2813C69.861 27.3317 69.7914 27.372 69.6722 27.4023C69.5729 27.4325 69.4835 27.4426 69.4139 27.4426C69.1557 27.4426 68.9769 27.3821 68.8477 27.2309C68.7285 27.0899 68.6689 26.8581 68.6689 26.5154V23.8751H69.9901V23.8751Z" fill="#737373"/>
<path d="M10 18H16.0894V24.1775H10V18Z" fill="#F25022"/>
<path d="M16.7252 18H22.8146V24.1775H16.7252V18Z" fill="#7FBA00"/>
<path d="M10 24.8225H16.0894V31H10V24.8225Z" fill="#00A4EF"/>
<path d="M16.7252 24.8225H22.8146V31H16.7252V24.8225Z" fill="#FFB900"/>
</svg>
