<svg xmlns="http://www.w3.org/2000/svg" width="80" height="50" fill="none" viewBox="0 0 80 50"><defs/><path fill="#000" d="M0 0h80v50H0z"/><path fill="#fff" d="M39.43 20H36.9v10h2.25v-6.6h.14l2.4 3.81h1.2l2.39-3.8h.14V30h2.26V20H45.2l-2.86 4.53-2.9-4.53zM52.4 20h-2.3v10h2.3v-4.27h1.13L56.68 30h2.97l-4.21-5.33L59.28 20h-2.85l-2.92 3.68-1.12.12V20zM69.5 20h-8.2v10h4.66c.59 0 1.12-.08 1.62-.21.5-.15.91-.37 1.27-.62.36-.3.64-.62.85-1.02a3.48 3.48 0 000-2.82 3.08 3.08 0 00-2.12-1.57c-.5-.14-1.03-.2-1.62-.2h-2.38v-1.54h3.89L69.5 20zm-5.9 8v-2.48h2.44c.53 0 .93.1 1.2.33.3.21.44.5.44.9 0 .39-.14.67-.43.92-.28.2-.72.33-1.28.33H63.6zM22.76 20.02L17.63 25l-2.55-2.5 2.57-2.5h-5.13L10 22.5l7.7 7.5 6.55-6.45h3.93l3.62-3.53h-9.04z"/><path fill="#fff" d="M18.75 29.9l5.8-5.66h7.27l-3.64 3.53h-2.14l-2.15 2.12h-5.14z"/></svg>