<svg width="80" height="50" viewBox="0 0 80 50" fill="none" xmlns="http://www.w3.org/2000/svg">
<rect width="80" height="50" fill="black"/>
<path d="M21.91 19.5555C21.0969 19.5555 20.1213 20.3407 19.3304 21.6592C18.4878 23.037 18 24.7259 18 26.2C18 28.363 19.2048 30.5333 21.91 30.5333C24.6152 30.5333 25.8199 28.363 25.8199 26.2C25.8199 24.7259 25.3321 23.0296 24.4895 21.6667C23.6986 20.3407 22.723 19.5555 21.91 19.5555ZM43.0267 22.7852H45.7615V29.9333H48.6958V22.7852H51.4305V20.1407H43.0267V22.7852ZM57.6983 22.7852H62V20.1407H57.6983C53.744 20.1407 51.6375 22.1111 51.6375 25.0444C51.6375 27.9778 53.7514 29.9481 57.6983 29.9481H62V27.2963H57.6983C55.8653 27.2963 54.6753 26.637 54.6753 25.0444C54.6753 23.4518 55.8653 22.7852 57.6983 22.7852ZM37.062 20.1481L35.495 26L33.9281 20.1481H28.7469V29.9555H31.6812V21.9704L33.8172 29.9407H37.1802L39.3163 21.9629V29.9407H42.2506V20.1481H37.062Z" fill="#E30613"/>
</svg>
