<svg xmlns="http://www.w3.org/2000/svg" width="80" height="50" fill="none" viewBox="0 0 80 50"><defs/><path fill="#000" d="M0 0h80v50H0z"/><path fill="#fff" fill-rule="evenodd" d="M27.5 33.22h-.07A8.33 8.33 0 0119 25a8.33 8.33 0 018.43-8.22H52.64A8.32 8.32 0 0161 25a8.33 8.33 0 01-8.36 8.22H27.5z" clip-rule="evenodd"/><path fill="#ED1C24" fill-rule="evenodd" d="M27.5 33.22h-.07A8.33 8.33 0 0119 25a8.33 8.33 0 018.43-8.22H52.64A8.32 8.32 0 0161 25a8.33 8.33 0 01-8.36 8.22H27.5z" clip-rule="evenodd"/><path fill="#fff" d="M34.5 20.42h.11l.17.26h.1l-.17-.27c.09 0 .16-.05.16-.16s-.08-.17-.22-.17h-.24v.6h.1v-.26zm0-.26h.13c.07 0 .14.01.14.09 0 .09-.07.1-.15.1h-.12v-.2z"/><path fill="#fff" d="M34.62 20.9c.29 0 .54-.22.54-.52 0-.3-.25-.51-.54-.51-.3 0-.56.21-.56.5 0 .3.26.54.56.54zm0-.95c.25 0 .43.19.43.43 0 .25-.18.43-.43.43a.43.43 0 01-.44-.43c0-.24.2-.43.44-.43zM33.95 27.97c0 .32-.27.57-.6.57a.58.58 0 01-.58-.57c0-.31.26-.57.59-.57.32 0 .59.26.59.57zM41.23 21.04c-.86-.47-4.72.6-5.96 4.64l-.84.22-.3.8 1.08-.32s-.12 1.94 1.7 2c1.43-.05 2.17-2.03 1.72-3.42l-1.23.58s.26 1.53-.37 1.71c-.2.03-.45-.58-.23-1.5 3.04-1.53 4.96-4.42 4.43-4.71zm-1.2.93c.57-.06-2.22 2.84-2.94 2.98-.23-.13 1.78-2.7 2.93-2.98z"/><path fill="#fff" d="M39.57 24.74v.57s.77-.49.83-.4c.02.26-.96 2.43-.98 2.76-.02.2.17.95 1.08.56.44-.19 1.63-1.13 1.63-1.13s-.2.48-.1.87c.07.38.56.48 1 .32.45-.16.96-.48 1.18-.74a18 18 0 01-.16-.47s-.4.36-.5.32c-.1-.05 1.14-3.56 1.14-3.56l-1.39-.04c-.2.92-1.39 3.25-2.2 3.36-.28-.02.99-2.76 1.03-3.07.1-.4-.22-.6-.59-.51-.39.13-1.97 1.16-1.97 1.16zM48.23 23.76l-.18.43c-.16-.27-.71-.8-1.85-.1a3.38 3.38 0 00-1.54 3.38c.18 1.12 1.43 1.25 2.27.3l-.98 2.91 1.38.01 2.27-6.9-1.37-.03zm-1.52 3.33c-.2.1-.5.28-.54-.39-.02-.79.63-1.67.76-1.8.32-.37.73-.37.72.2-.04.65-.48 1.69-.94 2zM25.98 28.29c-.7-.71-.15-2.02-.04-3.19-.15.15-1.7 3.64-3.08 3.49-1.23-.38-1.08-1.73-.7-2.74h2.01c-.61 1.65.23.98.81-.07a39.15 39.15 0 002.5-5.92h2.2a31.5 31.5 0 00-1.54 5.88c0 .08.04.15.12.11.46-.07 3-5.61 3.23-5.99h2.12c0 .19-2.35 6.44-1.97 7.04.2.34.47-.3.7-.56l.35.34c-.7.75-1.5 2.1-2.66 1.87a.92.92 0 01-.43-.23c-1.2-1 .97-4.66.74-4.9-.08 0-.15.2-.27.45-.66 1.3-2.16 4.75-3.4 4.75-.19 0-.57-.18-.69-.33zM50.94 27.26c2.57-1.31 3.19-2.98 2.4-3.44-1.17-.64-4.37.5-4.01 3.61-.16.1-.5.27-.5.27l.24.62.6-.36c1.63 1.29 3.42-.82 3.42-.82l-.31-.47s-1.36 1.27-1.84.59zm.34-1.9c.37-.64.97-1.13 1.26-.94.29.2-.3 1.2-1.68 2.27-.06-.1.05-.7.42-1.33z"/><path fill="#fff" d="M55.15 23.87l1.49-.04s-2.1 1.6-1.79 3.11c.24.92 1.13.48 1.61-.57.1-.2.68-1.6.31-1.6-.37 0-.75.72-.75.72l-.4-.4s.81-1.13 1.75-1.43c.1-.04.78-.17.79.76.03.44-.46 2.84-2.15 3.69-1.55.77-2.23-.16-2.35-.43-.85-2.05 1.49-3.81 1.49-3.81z"/></svg>