<svg xmlns="http://www.w3.org/2000/svg" width="80" height="50" fill="none" viewBox="0 0 80 50"><defs/><path fill="#000" d="M0 0h80v50H0z"/><path fill="#fff" d="M26.4 21.05h1.9v2.4h2.04v-2.4h1.9v6.59h-1.9v-2.61h-2.03v2.6h-1.9v-6.58zm12.65 0v6.59h-1.84V22.6H36v1.89c0 .85-.07 1.9-.58 2.48-.5.65-1.46.85-2.54.65V26c1.01.2 1.27-.2 1.27-1.5v-3.46h4.89zm1.6 0h1.9l1.08 3.91 1.07-3.91h1.9l.9 6.59h-1.78l-.44-3.53-1.02 3.52h-1.27l-1.01-3.52-.45 3.52h-1.77l.88-6.58zm7.55 0h1.9v2.67l1.85-2.67h2.1l-2.42 3.26 2.48 3.33h-2.28l-1.72-2.68v2.68h-1.9v-6.6h-.01zM40 14c-11.43 0-19 4.24-19 10.5C21 30.7 28.56 35 40 35c11.5 0 19-4.3 19-10.5C59 18.24 51.5 14 40 14zm0 20.02c-10.74 0-17.92-3.84-17.92-9.52 0-5.74 7.18-9.52 17.92-9.52 10.8 0 17.92 3.78 17.92 9.52 0 5.68-7.11 9.52-17.92 9.52zm0-18.13c-10.1 0-16.84 3.46-16.84 8.61 0 5.15 6.74 8.6 16.84 8.6s16.84-3.45 16.84-8.6c0-5.15-6.73-8.6-16.84-8.6zm0 17.03c-9.98 0-16.65-3.4-16.65-8.41 0-5.02 6.68-8.42 16.65-8.42 9.97 0 16.65 3.4 16.65 8.42S49.98 32.9 40 32.9z"/></svg>