<svg width="80" height="50" viewBox="0 0 80 50" fill="none" xmlns="http://www.w3.org/2000/svg">
<rect width="80" height="50" fill="black"/>
<path d="M34.8751 24.1337H33.6376V22.4658H32.2118V26.9584H33.6645V25.3712H34.902V26.9584H36.3547V22.4658H34.902V24.1337H34.8751ZM48.2723 24.1337H47.0348V22.4658H45.5821V26.9584H47.0348V25.3712H48.2723V26.9584H49.725V22.4658H48.2723V24.1337ZM70.3051 23.784H69.6056V22.4658H68.1529V26.9584H70.2782C71.2198 26.9584 71.973 26.4473 71.973 25.5326V25.2098C71.9999 24.2951 71.2198 23.784 70.3051 23.784V23.784ZM70.1437 25.8555H69.6056V24.887H70.0899C70.4934 24.887 70.601 25.1829 70.601 25.3712C70.601 25.7747 70.2513 25.8555 70.1437 25.8555V25.8555ZM60.997 25.2636H62.6111V24.1875H60.997V23.6495H62.7725V22.4927H59.5443V26.9853H62.8801V25.8016H60.997V25.2636ZM59.2215 22.4658H57.6611L56.9079 24.1606H56.5581V22.4658H55.1054V26.9584H56.5581V25.3712H56.9079L57.688 26.9584H59.356L58.1454 24.6987L59.2215 22.4658V22.4658ZM39.2063 22.412H38.5069C37.5653 22.412 36.812 23.0845 36.812 24.1068V25.3712C36.812 26.4204 37.5653 27.066 38.5069 27.066H39.2063C40.1479 27.066 40.9012 26.3935 40.9012 25.3712V24.1068C40.9281 23.0038 40.1479 22.412 39.2063 22.412ZM39.4753 25.4519C39.4753 25.7478 39.2332 25.99 38.9373 25.99H38.8028C38.5069 25.99 38.2648 25.7478 38.2648 25.4519V23.9992C38.2648 23.7033 38.5069 23.4612 38.8028 23.4612H38.9373C39.2332 23.4612 39.4753 23.7033 39.4753 23.9992V25.4519ZM63.9831 24.8601C63.9831 25.5326 63.7948 25.6402 63.5527 25.7478C63.4451 25.8016 63.1492 25.8016 63.1492 25.8016V26.9853H63.7141C64.9247 26.9853 65.382 26.2859 65.382 24.6987V23.6764H66.1891V26.9853H67.6418V22.4658H64.01V24.8601H63.9831ZM43.5376 22.4658H41.4123V26.9584H42.865V25.8555H43.5645C44.506 25.8555 45.2593 25.3443 45.2593 24.4296V23.9185C45.2324 22.9769 44.4791 22.4658 43.5376 22.4658ZM43.8335 24.2951C43.8335 24.4565 43.7528 24.7794 43.3223 24.7794H42.8381V23.5957H43.3761C43.5107 23.5957 43.8066 23.7033 43.8066 24.053V24.2951H43.8335ZM51.7158 24.7525V22.4927H50.3438V26.9853H51.6082L53.0878 24.7256V26.9853H54.4598V22.4658H53.1954L51.7158 24.7525Z" fill="white"/>
<path d="M14.7255 26.9046L21.451 31.451V22.5464L14.7255 18V26.9046Z" fill="#00589C"/>
<path d="M8 24.7255C8 28.438 11.013 31.451 14.7255 31.451V18C11.013 18 8 21.013 8 24.7255ZM21.451 18V31.451C25.1635 31.451 28.1765 28.438 28.1765 24.7255C28.1765 21.013 25.1635 18 21.451 18Z" fill="#0080C8"/>
</svg>
