<svg xmlns="http://www.w3.org/2000/svg" width="80" height="50" fill="none" viewBox="0 0 80 50"><defs/><path fill="#000" d="M0 0h80v50H0z"/><path fill="#fff" d="M21.76 18.5h-3.73a.51.51 0 00-.52.41l-1.5 8.98c-.04.18.11.34.3.34h1.78c.26 0 .48-.17.52-.41l.4-2.42a.5.5 0 01.52-.41h1.18c2.46 0 3.88-1.12 4.25-3.33.16-.97 0-1.73-.48-2.27-.53-.58-1.47-.89-2.72-.89zm.43 3.28c-.2 1.26-1.23 1.26-2.22 1.26h-.56l.4-2.35a.3.3 0 01.3-.25h.26c.67 0 1.31 0 1.64.36.2.22.26.54.18.98zM32.92 21.74h-1.79a.3.3 0 00-.3.25l-.08.47-.13-.17c-.39-.53-1.25-.7-2.11-.7a4.03 4.03 0 00-4 3.37c-.16.98.08 1.92.67 2.57.55.6 1.33.86 2.25.86 1.6 0 2.48-.96 2.48-.96l-.08.46c-.03.18.12.34.3.34h1.62c.25 0 .47-.17.51-.41l.97-5.74c.03-.18-.12-.34-.31-.34zm-2.5 3.27c-.16.95-.98 1.6-2 1.6-.53 0-.94-.16-1.21-.46-.26-.29-.36-.7-.28-1.17.16-.95.98-1.62 2-1.62.51 0 .92.16 1.2.46.27.3.38.72.3 1.19zM42.44 21.74h-1.8a.53.53 0 00-.42.21l-2.48 3.43-1.05-3.3a.52.52 0 00-.5-.34h-1.77c-.21 0-.36.2-.3.39l1.99 5.45-1.86 2.46c-.15.2 0 .46.25.46h1.8c.17 0 .33-.08.42-.2l5.98-8.1c.14-.2 0-.46-.26-.46M48.39 18.5h-3.73a.51.51 0 00-.52.41l-1.5 8.98c-.04.18.11.34.3.34h1.92c.17 0 .33-.12.35-.29l.43-2.54a.5.5 0 01.52-.41h1.18c2.46 0 3.88-1.12 4.25-3.33.16-.97 0-1.73-.48-2.27-.53-.58-1.47-.89-2.72-.89zm.43 3.28c-.2 1.26-1.23 1.26-2.22 1.26h-.56l.4-2.35a.3.3 0 01.3-.25H47c.67 0 1.31 0 1.64.36.2.22.26.54.18.98zM59.55 21.74h-1.79a.3.3 0 00-.3.25l-.08.47-.13-.17c-.39-.53-1.25-.7-2.11-.7a4.03 4.03 0 00-4 3.37c-.16.98.08 1.92.67 2.57.55.6 1.33.86 2.26.86 1.59 0 2.47-.96 2.47-.96l-.08.46c-.03.18.12.34.3.34h1.62c.25 0 .47-.17.51-.41l.97-5.74c.03-.18-.12-.34-.31-.34zm-2.5 3.27c-.16.95-.98 1.6-2.01 1.6-.52 0-.93-.16-1.2-.46-.26-.29-.36-.7-.28-1.17.16-.95.98-1.62 2-1.62.51 0 .92.16 1.2.46.27.3.38.72.3 1.19zM61.66 18.75l-1.53 9.14c-.04.18.11.34.3.34h1.54a.5.5 0 00.52-.41l1.5-8.98c.04-.18-.11-.34-.3-.34h-1.73a.3.3 0 00-.3.25"/></svg>