<svg xmlns="http://www.w3.org/2000/svg" width="80" height="50" fill="none" viewBox="0 0 80 50"><defs/><path fill="#000" d="M0 0h80v50H0z"/><path fill="#2151A1" d="M46.77 24.46a4.32 4.32 0 01-1.24.17c-.32 0-.67-.03-1.01-.05h-.01c-.32-.02-.61-.05-.9-.05-.2 0-.39.02-.56.04-.54.06-.95.22-.95.22v-.04a2.4 2.4 0 012.39-2.06c1.02 0 2 .75 2.3 1.74v.02h-.02zm1.25.43v-.01l-.04-.29a3.5 3.5 0 00-3.97-3.04 3.47 3.47 0 00-3.06 3.94c.23 1.78 1.72 3 3.53 3 .15 0 .31 0 .47-.02.96-.12 1.81-.51 2.45-1.27a.2.2 0 00.04-.15.18.18 0 00-.08-.11 7.6 7.6 0 00-.7-.35l-.13-.07a.34.34 0 00-.15-.04c-.05 0-.1.02-.14.08a2.32 2.32 0 01-1.76.78c-.96 0-1.94-.62-2.22-1.47v-.03h.01a2.9 2.9 0 011.42-.22c.2.01.39.04.59.06.38.05.76.1 1.22.1.28 0 .55-.02.83-.06 1.1-.2 1.54-.5 1.55-.5.15-.1.15-.18.14-.33M65.3 21.91a.16.16 0 00-.17-.16h-.91c-.1 0-.17.07-.17.16v6.26c0 .09.08.16.17.16h.91c.1 0 .17-.07.17-.16V21.9zM64.68 19.52a.81.81 0 00-.83.8c0 .43.37.79.83.79.45 0 .82-.36.82-.8 0-.43-.37-.8-.82-.8M52.59 22.7a2.3 2.3 0 012.3 2.35c0 1.31-.96 2.3-2.23 2.3-.65 0-1.24-.21-1.68-.62-.45-.41-.7-1-.7-1.65a2.35 2.35 0 012.3-2.37zm-.04 5.8h.17a3.42 3.42 0 003.48-3.46 3.52 3.52 0 00-3.6-3.52 3.52 3.52 0 00-3.45 2.59c-.07.26-.14.93-.14 1.6v4.91c0 .1.07.16.16.16h.91c.1 0 .17-.07.17-.16v-3.1l.05.05c.44.42 1.27.88 2.25.93M36.32 22.7a2.3 2.3 0 012.3 2.35c0 1.31-.96 2.3-2.24 2.3-.64 0-1.24-.21-1.67-.62-.45-.41-.7-1-.7-1.65a2.35 2.35 0 012.3-2.37zm-.04 5.8h.17a3.42 3.42 0 003.48-3.46 3.52 3.52 0 00-3.6-3.52 3.52 3.52 0 00-3.45 2.59 7.6 7.6 0 00-.15 1.6v4.91c0 .1.08.16.17.16h.9c.1 0 .18-.07.18-.16v-3.1l.04.05c.45.42 1.27.88 2.26.93M57.07 27.4c.79.7 1.65 1.1 2.77 1.1h.04c1.93-.02 2.79-1.04 2.79-2.04 0-1.38-1.36-1.76-1.77-1.85l-.42-.07c-.33-.07-.68-.13-1-.21-.22-.06-.95-.3-.95-.82 0-.57.66-.88 1.29-.88.52 0 .95.08 1.51.5.04.03.1.07.18.07.06 0 .1-.02.16-.05.16-.11.44-.34.63-.52.04-.05.06-.1.06-.14 0-.08-.06-.14-.1-.17a3.74 3.74 0 00-2.47-.8c-1.45 0-2.54.9-2.54 2.08 0 .94.8 1.61 2.26 1.89l.9.17c.6.1.94.41.93.84 0 .42-.54.85-1.42.85a2.8 2.8 0 01-1.87-.73c-.04-.04-.09-.08-.15-.08a.23.23 0 00-.13.06c-.05.04-.66.5-.73.57a.14.14 0 00-.04.1c0 .05.04.1.07.13"/><path fill="#fff" d="M27.67 30.66a8.52 8.52 0 01-11.74 0 7.8 7.8 0 010-11.32 8.52 8.52 0 0111.74 0 7.8 7.8 0 010 11.32"/><path fill="#2151A1" d="M28.26 20.96a5.02 5.02 0 01-1.97 5.73c-2.33 1.65-5.72 1.65-10.4 3.07a7.8 7.8 0 005.91 2.66c4.26 0 7.7-3.32 7.7-7.42a7.2 7.2 0 00-1.24-4.04"/><path fill="#EB1933" d="M26.42 19.06a7.85 7.85 0 00-4.62-1.48A7.57 7.57 0 0014.1 25c0 1.65.56 3.17 1.5 4.4a15.72 15.72 0 0010.82-10.34"/></svg>