<svg width="80" height="50" viewBox="0 0 80 50" fill="none" xmlns="http://www.w3.org/2000/svg">
<rect width="80" height="50" fill="black"/>
<path fill-rule="evenodd" clip-rule="evenodd" d="M71.9995 22.929C71.2778 21.7098 70.0874 21.0684 68.4535 21.0684C66.2497 21.0684 64.5398 22.4638 64.5398 24.7145C64.5398 26.9647 66.2116 28.3602 68.4535 28.3602C70.0874 28.3602 71.2778 27.7188 71.9995 26.4995L70.771 25.7955C70.239 26.5496 69.5429 26.9647 68.428 26.9647C67.0603 26.9647 66.1105 26.0594 66.1105 24.7145C66.1105 23.3441 67.0223 22.4638 68.428 22.4638C69.5429 22.4638 70.239 22.8789 70.771 23.633L71.9995 22.929ZM57.5109 24.7145C57.5109 23.281 58.2835 22.4138 59.7653 22.4138C61.247 22.4138 62.0196 23.281 62.0196 24.7145C62.0196 26.1475 61.247 27.0148 59.7653 27.0148C58.2835 27.0148 57.5109 26.1475 57.5109 24.7145ZM53.3439 21.2316V28.1844H54.9017V25.2423H55.9656C56.2063 27.2411 57.8147 28.3602 59.7653 28.3602C61.8801 28.3602 63.59 27.0403 63.59 24.7145C63.59 22.3882 61.8801 21.0684 59.7653 21.0684C57.9287 21.0684 56.3965 22.0618 56.0287 23.8343H54.9017V21.2316H53.3439ZM46.239 21.2316L45.3017 26.2106C45.2257 26.5877 44.985 26.7509 44.6177 26.7509H43.858V28.1844H44.6937C45.8462 28.1844 46.6188 27.6437 46.8465 26.4114L47.5561 22.6401H50.2409V28.1844H51.8242V21.2316H46.239ZM43.3636 24.7145C43.3636 22.5269 41.5652 21.0684 39.4378 21.0684C37.3101 21.0684 35.512 22.5269 35.512 24.7145C35.512 26.9016 37.3101 28.3602 39.4378 28.3602C41.5652 28.3602 43.3636 26.9016 43.3636 24.7145ZM37.0949 24.7145C37.0949 23.281 38.1207 22.4138 39.4378 22.4138C40.7549 22.4138 41.7808 23.281 41.7808 24.7145C41.7808 26.1475 40.7549 27.0148 39.4378 27.0148C38.1207 27.0148 37.0949 26.1475 37.0949 24.7145ZM27.4443 21.2316V28.1844H29.0147V22.6275H32.7633V28.1844H34.3466V21.2316H27.4443Z" fill="white"/>
<path fill-rule="evenodd" clip-rule="evenodd" d="M21.6472 23.8486L16.6975 24.5915C16.5792 24.6091 16.4901 24.5057 16.4971 24.3875L16.6418 21.7435C16.6599 21.4161 16.8468 21.2477 17.1009 21.2097L20.2689 20.7344C20.5231 20.6959 20.7508 20.8016 20.8644 21.1095L21.7794 23.5939C21.8202 23.7057 21.765 23.8309 21.6472 23.8486ZM18.0377 30.8566L15.7704 26.3937C15.717 26.2875 15.7871 26.1702 15.9016 26.1386L18.4561 25.4425C18.7723 25.3563 18.9912 25.4806 19.1077 25.7097L20.5583 28.5655C20.6747 28.7946 20.646 29.0441 20.3895 29.2491L18.3206 30.9011C18.2279 30.9753 18.0911 30.9628 18.0377 30.8566ZM10.1885 29.5817L13.753 26.0672C13.8374 25.9837 13.971 26.0153 14.0354 26.115L15.4745 28.3374C15.6521 28.6124 15.6002 28.8586 15.4175 29.039L13.1362 31.2883C12.9535 31.4687 12.7067 31.517 12.4336 31.3347L10.2321 29.8646C10.1333 29.7987 10.1041 29.6651 10.1885 29.5817ZM8.99844 21.7593L13.446 24.0572C13.5512 24.1115 13.5628 24.2483 13.4882 24.3401L11.8214 26.3979C11.6159 26.6525 11.3655 26.6799 11.1369 26.5616L8.29119 25.0915C8.06255 24.9732 7.94012 24.7538 8.0287 24.438L8.74244 21.8882C8.77444 21.7737 8.8927 21.7046 8.99844 21.7593ZM16.0895 18.2045L15.2677 23.1422C15.2482 23.2596 15.1216 23.3124 15.0112 23.2693L12.5412 22.3149C12.2351 22.1971 12.133 21.967 12.1752 21.7138L12.7016 18.5537C12.7434 18.3005 12.9145 18.1164 13.2419 18.1039L15.8886 18.0009C16.0064 17.9963 16.1089 18.0872 16.0895 18.2045Z" fill="#FFCB08"/>
</svg>
