<svg width="80" height="50" viewBox="0 0 80 50" fill="none" xmlns="http://www.w3.org/2000/svg">
<rect width="80" height="50" fill="black"/>
<path d="M9.87503 30.1172L17.9418 28.1964C18.0104 28.1796 18.2065 28.1383 18.3769 28.1484C18.513 28.1558 18.5945 28.162 18.7205 28.2143C18.8917 28.2841 19.0215 28.4264 19.0952 28.5048L22.0303 31.6084H22.065L9 31.6165L9.87503 30.1172ZM22.8242 31.608L17.1268 25.5822C17.0788 25.5315 16.9439 25.3822 16.8671 25.2297C16.8059 25.108 16.7712 25.0351 16.7528 24.9002C16.7283 24.7165 16.7868 24.5329 16.8168 24.4299L18.0373 20.3363L18.0201 20.3063L24.5602 31.6169L22.8242 31.608Z" fill="#FAA634"/>
<path d="M17.612 19.637L15.2419 27.584C15.222 27.6507 15.1608 27.8422 15.0668 27.9853C14.9919 28.0988 14.9455 28.1658 14.8379 28.2493C14.6909 28.3616 14.503 28.4037 14.3985 28.4283L10.2436 29.4191L10.2261 29.4483L16.7514 18.1299L17.612 19.637Z" fill="#9D9FA2"/>
<path d="M27.1724 21.8427H28.9512C30.1905 21.8427 30.7616 22.6189 30.7616 23.5385C30.7616 24.4431 30.1586 25.1865 28.8406 25.1865H27.9901V27.6199H27.1728V21.8427H27.1724ZM27.9901 24.4439H28.9193C29.5231 24.4439 29.9205 24.0793 29.9205 23.5069C29.9205 23.0793 29.6899 22.5857 28.9516 22.5857H27.9901V24.4439ZM38.809 26.8777H41.3744V27.6203H37.9912V21.8427H38.809V26.8777ZM41.6896 21.843L43.2219 23.837L44.7615 21.843H45.7468L43.6348 24.5702V27.6203H42.8167V24.5618L40.704 21.843H41.6896ZM47.2525 21.843L49.1347 24.2159L51.0249 21.843H51.7874V27.6203H50.9688V23.126H50.9533L49.1985 25.3611H49.0715L47.3153 23.126H47.3009V27.6203H46.4827V21.843H47.2525ZM66.9244 27.6203H66.0911L65.3283 25.9181H62.914L62.1913 27.6203H61.3584L63.8042 21.8114H64.375L66.9244 27.6203ZM63.2327 25.1754H64.994L64.0824 23.077L63.2327 25.1754V25.1754ZM68.4349 26.8777H70.9999V27.6203H67.6175V21.8427H68.4349V26.8777ZM56.4465 21.8529V22.594H53.8245V24.2812H56.3888V25.0238H53.8245V26.8891H56.5454V27.6302H53.0037V21.8529H56.4465ZM61.7791 21.8529V22.594H59.8608V27.6302H59.0442V22.594H57.1263V21.8529H61.7791ZM34.1783 21.8019C35.9712 21.8019 37.1026 23.1609 37.1026 24.7713C37.1026 26.3314 36.002 27.7387 34.162 27.7387C32.3839 27.7387 31.2592 26.3393 31.2592 24.7713C31.2592 23.1708 32.4151 21.8019 34.1783 21.8019ZM34.1783 26.979C35.4009 26.979 36.2965 26.0333 36.2965 24.7717C36.2965 23.5017 35.4009 22.5635 34.1783 22.5635C32.962 22.5635 32.066 23.5017 32.066 24.7717C32.066 26.0333 32.962 26.979 34.1783 26.979ZM38.4362 28.9753H38.6243V31.3909H38.4362V28.9753ZM39.0731 28.9789H39.2473L41.0324 31.0865V28.9789H41.217V31.3913H41.0639L39.2613 29.2726V31.3913H39.0731V28.9789ZM41.4422 28.9757H43.4054V29.1345H42.5179V31.3909H42.3293V29.1345H41.4422V28.9757ZM43.6551 28.9789H44.9532V29.138H43.8433V30.0968H44.9248V30.2564H43.8433V31.2318H44.9809V31.3913H43.6551V28.9789ZM45.9377 28.9789C46.6647 28.9789 46.7515 29.3645 46.7515 29.6052C46.7515 29.8985 46.5673 30.1075 46.3097 30.1851C46.3966 30.2381 46.5186 30.387 46.5673 30.4642C46.5673 30.4642 47.11 31.3129 47.1618 31.3909H46.9463L46.5006 30.6839C46.2988 30.3656 46.1909 30.2342 45.9194 30.2342H45.5473V31.3909H45.3591V28.9789H45.9377V28.9789ZM45.5477 30.0754H45.9439C46.3861 30.0754 46.5532 29.8704 46.5532 29.6052C46.5532 29.294 46.3507 29.138 45.8605 29.138H45.5477V30.0754V30.0754ZM47.3531 28.9789H47.5272L49.3127 31.0865V28.9789H49.497V31.3913H49.3431L47.5408 29.2726V31.3913H47.3531V28.9789ZM50.8114 28.9611H50.9194L52.0153 31.3913H51.824L51.448 30.5564H50.289L49.9131 31.3913H49.7218L50.8114 28.9611ZM50.8664 29.2663L50.3521 30.3969H51.3748L50.8664 29.2663V29.2663ZM52.0425 28.9757H54.0061V29.1345H53.1178V31.3909H52.9296V29.1345H52.0425V28.9757ZM54.255 28.9753H54.4432V31.3909H54.255V28.9753ZM57.3452 30.1744C57.3452 30.8787 56.8022 31.4226 56.0923 31.4226C55.3926 31.4226 54.8359 30.8858 54.8359 30.1851C54.8359 29.4816 55.3786 28.9476 56.0923 28.9476C56.7916 28.9476 57.3452 29.4737 57.3452 30.1744ZM57.1465 30.1744C57.1465 29.5909 56.6837 29.1174 56.0923 29.1174C55.4865 29.1174 55.0342 29.6048 55.0342 30.1997C55.0342 30.7864 55.4966 31.2531 56.0849 31.2531C56.7016 31.2531 57.1465 30.769 57.1465 30.1744V30.1744ZM57.7551 28.9789H57.9288L59.7135 31.0865V28.9789H59.899V31.3913H59.7451L57.9429 29.2726V31.3913H57.7551V28.9789ZM61.2135 28.9611H61.3206L62.4169 31.3913H62.2256L61.8497 30.5564H60.6906L60.3147 31.3913H60.1234L61.2135 28.9611V28.9611ZM61.2688 29.2663L60.7541 30.3969H61.7768L61.2688 29.2663V29.2663ZM62.667 28.9757H62.8552V31.2318H64.0282V31.3909H62.667V28.9757ZM65.5889 28.9793H66.2684C66.6393 28.9793 67.0125 29.1349 67.0125 29.6226C67.0125 30.1 66.6393 30.2635 66.2684 30.2635H65.7767V31.3909H65.5889V28.9793V28.9793ZM65.7771 29.138V30.1004H66.2197C66.5391 30.1079 66.8146 30.0014 66.8146 29.623C66.8146 29.2449 66.5391 29.138 66.2197 29.138H65.7771ZM67.3635 28.9757H67.5513V31.2318H68.724V31.3909H67.3635V28.9757ZM70.1612 31.2531C70.4678 31.2531 70.7362 31.1399 70.9999 31.0049V31.2001C70.7319 31.3379 70.4639 31.4226 70.1612 31.4226C69.4482 31.4226 68.8985 30.9064 68.8985 30.1958C68.8985 29.5022 69.4307 28.9472 70.1405 28.9472C70.4888 28.9472 70.7358 29.0391 70.9762 29.1491V29.3506C70.7253 29.2204 70.5059 29.1178 70.1686 29.1178C69.532 29.1178 69.0964 29.5767 69.0964 30.1891C69.096 30.8007 69.546 31.2531 70.1612 31.2531" fill="white"/>
</svg>
