<svg xmlns="http://www.w3.org/2000/svg" width="80" height="50" fill="none" viewBox="0 0 80 50"><defs/><path fill="#000" d="M0 0h80v50H0z"/><path fill="#E21B4D" d="M51.22 24h-2.2v4.37c0 1.42 1.5 2.63 3.36 2.63 1.86 0 3.49-1.23 3.49-2.63V24h-2.2v3.93a1.2 1.2 0 01-1.22 1.17 1.2 1.2 0 01-1.23-1.19v-3.91zm-34.94-2.4v9.06H14V19.74h4.12c1.79 0 3.25 1.47 3.25 3.25a3.2 3.2 0 01-2.47 3.11l3.17 4.56h-2.72l-2.29-3.58v-2.6h.54c.85 0 1.53-.64 1.53-1.42 0-.8-.64-1.45-1.5-1.45h-1.35zm21.03 9.06V19.22h-2.17v5.4a2.97 2.97 0 00-2.13-.89c-1.78 0-3.23 1.59-3.23 3.56 0 1.96 1.45 3.56 3.23 3.56.85 0 1.64-.33 2.13-.94v.75h2.17zm-3.68-1.67c-.88 0-1.59-.79-1.59-1.76 0-.96.71-1.75 1.59-1.75.87 0 1.58.79 1.58 1.75-.01.97-.72 1.76-1.58 1.76zm12.76-4.27c.59-.55.95-1.3.95-2.1 0-.75-.28-1.43-.77-1.96-.52-.57-1.43-.92-2.66-.92h-3.68v10.92H45c1.82-.03 3.3-1.43 3.3-3.14-.02-1.24-.45-2.12-1.9-2.8zm-1.84 4.05H42.5V21.7h1.45c.63 0 1.16.49 1.16 1.13 0 .65-.53 1.18-1.16 1.18h-.77v1.97h1.41c.77 0 1.34.63 1.34 1.4a1.36 1.36 0 01-1.37 1.39z"/><path fill="#E21B4D" d="M23.98 26.48c0-.74.6-1.33 1.32-1.33.72 0 1.31.6 1.31 1.33h-2.63zm4.76 1.24c.02-.15.03-.3.03-.46.03-2.36-1.5-3.64-3.47-3.64a3.6 3.6 0 00-3.57 3.64 3.6 3.6 0 003.57 3.64c1.5 0 2.68-.69 3.28-1.76l-1.75-.82c-.22.49-.74.83-1.36.83-.8 0-1.47-.62-1.47-1.43h4.74zm28.14-8.5h2.16v11.44h-2.16V19.22zm3.68 0h2.16v11.44h-2.16V19.22zM64.97 19.15a.8.8 0 01.62.26c.16.17.26.39.26.62a.8.8 0 01-.26.63.81.81 0 01-.62.26.84.84 0 01-.62-.26.88.88 0 01-.26-.63.8.8 0 01.26-.62.9.9 0 01.62-.26zm1.03.88a1 1 0 00-.3-.73 1.02 1.02 0 00-1.75.73c0 .3.1.53.3.74.2.2.44.3.72.3.3 0 .52-.1.73-.3.2-.2.3-.45.3-.74zm-.75-.22c0 .09-.04.16-.13.18a.63.63 0 01-.19.03h-.17v-.41h.16c.1 0 .2.01.25.04.05.04.08.08.08.16zm-.69-.34v1.13h.2v-.44h.15c.1 0 .17.01.21.04.07.04.11.12.11.26v.14h.2l-.02-.01-.01-.06v-.16c0-.06-.03-.11-.06-.18a.3.3 0 00-.19-.11.46.46 0 00.17-.06c.06-.04.1-.12.1-.22 0-.14-.05-.23-.17-.29a.86.86 0 00-.32-.04h-.37z"/></svg>