<svg xmlns="http://www.w3.org/2000/svg" width="80" height="50" fill="none" viewBox="0 0 80 50"><defs/><path fill="#000" d="M0 0h80v50H0z"/><path fill="#fff" d="M39.42 19.35h1.72v1.54h-1.72v-1.54zm0 2.44h1.72v6.5h-1.72v-6.5zm4.34 1.04h.04c.39-.73.83-1.11 1.6-1.11.18 0 .3 0 .4.05v1.5h-.04c-1.13-.11-1.94.48-1.94 1.85v3.17H42.1v-6.5h1.66v1.04zm5.4-3.48h1.71v1.54h-1.72v-1.54zm0 2.44h1.71v6.5h-1.72v-6.5zm4.36.89h.04a2.1 2.1 0 011.92-1.06c1.34 0 2.24 1 2.24 2.43v4.24H56v-4c0-.69-.4-1.18-1.13-1.18-.76 0-1.31.6-1.31 1.5v3.68h-1.73v-6.5h1.69v.89zm4.9 2.35c0-1.92 1.31-3.41 3.21-3.41 2.09 0 3.2 1.59 3.2 3.9h-4.7c.12 1 .68 1.63 1.65 1.63.67 0 1.06-.3 1.25-.8h1.7c-.24 1.15-1.26 2.13-2.94 2.13-2.15 0-3.36-1.51-3.36-3.45zm1.73-.7h2.88c-.05-.82-.59-1.39-1.37-1.39-.92 0-1.36.55-1.51 1.4zm5.08 1.85h1.6c.1.75.64 1.08 1.41 1.08.76 0 1.2-.3 1.2-.75-.01-.62-.83-.68-1.72-.86-1.16-.23-2.3-.54-2.3-1.96 0-1.4 1.16-2.07 2.64-2.07 1.71 0 2.66.84 2.79 2.15h-1.56c-.07-.7-.52-.95-1.25-.95-.67 0-1.12.25-1.12.72 0 .56.87.6 1.79.8 1.09.22 2.29.53 2.29 2.05 0 1.3-1.11 2.09-2.73 2.09-1.89 0-2.94-.92-3.04-2.3zm-29.87-6.83h-2l-3.63 8.94h2.05l.67-1.84h3.7l.68 1.84h2.06l-3.53-8.94zm-2.41 5.6l1.32-3.8 1.37 3.8h-2.7zm13.52-5.6h1.72v8.94h-1.72v-8.94z"/><path fill="#BED600" d="M27.5 24.71a10.27 10.27 0 11-20.54.01 10.27 10.27 0 0120.54 0z"/><path fill="#fff" d="M16.48 19.35c-1.62 0-2.67.09-3.43.37-1.28.5-2.16 1.54-2.16 2.91 0 1.14.53 1.97 2.07 2.92 1.64 1 1.97 1.32 1.97 1.92 0 .66-.65 1.4-2.3 1.4-.58 0-1.45-.07-2-.2l-.27-.08c-.15.4-.48 1.34-.58 1.68l.26.08c.5.16 1.68.28 2.53.28 2.83 0 4.52-1.7 4.52-3.5 0-1.1-.5-1.93-2.19-2.98a8.49 8.49 0 01-1.54-1.12 1 1 0 01-.23-.7c0-.2.04-.43.18-.6.15-.22.41-.35.78-.47a8.75 8.75 0 012.13-.12h1l.72-1.79h-1.46zm7.56 0H19l-.71 1.79h1.66c1.12 0 1.34-.03 1.62-.03-.4.93-2.86 7.17-2.86 7.17h2.08l3.43-8.58c.09-.18.04-.35-.2-.35z"/></svg>