<svg xmlns="http://www.w3.org/2000/svg" width="80" height="50" fill="none" viewBox="0 0 80 50"><defs/><path fill="#000" d="M0 0h80v50H0z"/><path fill="#034EA2" d="M64.97 20.62c.67 3.93-9.75 9.08-23.26 11.5-13.52 2.43-25.01 1.2-25.68-2.74-.67-3.93 9.75-9.08 23.27-11.5 13.51-2.43 25-1.2 25.67 2.74z"/><path fill="#fff" d="M52.25 26.46l-.07-4.1h1.25v5.16h-1.8l-1.25-4.23h-.03l.07 4.23h-1.24v-5.15h1.88l1.16 4.09h.03zM29.45 22.85l-.7 4.73H27.4l.94-5.21h2.25l.94 5.2h-1.37l-.67-4.72h-.03zM35.36 26.35l.62-3.98h2.07l.11 5.2h-1.27l-.03-4.68h-.03L36 27.58H34.7l-.85-4.69h-.02l-.03 4.69h-1.27l.1-5.21h2.08l.62 3.98h.03zM25.26 26.1a.7.7 0 010 .4c-.04.17-.15.34-.49.34-.31 0-.5-.18-.5-.47v-.5H22.9v.4c0 1.16.9 1.51 1.85 1.51.91 0 1.67-.32 1.79-1.19.06-.45.01-.74 0-.85-.22-1.1-2.15-1.42-2.29-2.03a.7.7 0 010-.28c.03-.16.14-.34.46-.34.3 0 .47.18.47.47v.32h1.26v-.36c0-1.14-.99-1.32-1.7-1.32-.9 0-1.64.3-1.78 1.16-.03.23-.04.44.01.7.23 1.06 2.03 1.37 2.29 2.05zM41.73 26.1a.7.7 0 01.01.38c-.04.17-.15.35-.49.35-.31 0-.5-.2-.5-.47v-.5H39.4v.4c0 1.15.88 1.5 1.82 1.5.91 0 1.66-.32 1.78-1.18.06-.45.01-.74 0-.85-.22-1.08-2.12-1.4-2.27-2a.68.68 0 010-.28c.04-.17.14-.34.46-.34.3 0 .46.18.46.46v.32h1.26v-.36c0-1.12-.99-1.3-1.7-1.3-.89 0-1.62.3-1.75 1.14-.04.24-.04.44.01.7.22 1.05 2 1.36 2.26 2.03zM45.98 26.8c.36 0 .47-.25.49-.38l.01-.2v-3.86h1.28v4.08c-.1.98-.85 1.3-1.78 1.3s-1.68-.32-1.77-1.3v-4.08h1.27v3.86c0 .07 0 .14.02.2.02.13.13.38.48.38zM56.55 26.74c.37 0 .5-.24.52-.37l.01-.2v-.76h-.52v-.76h1.8v1.4l-.02.34c-.08.95-.88 1.29-1.78 1.29s-1.7-.34-1.78-1.29a4.76 4.76 0 01-.02-.34v-2.2l.02-.34c.11-.97.88-1.29 1.78-1.29s1.69.32 1.78 1.3l.01.34v.17h-1.28v-.3l-.01-.19c-.02-.12-.12-.38-.5-.38s-.49.25-.51.38c-.02.07-.02.16-.02.25v2.58c.03.13.16.37.52.37z"/></svg>