<svg xmlns="http://www.w3.org/2000/svg" width="80" height="50" fill="none" viewBox="0 0 80 50"><defs/><path fill="#000" d="M0 0h80v50H0z"/><path fill="#1A9F29" d="M24.68 25.37c.27.29.58.5.98.66.4.15.85.23 1.4.23.27 0 .53-.02.75-.05.23-.03.42-.08.6-.16.2-.05.35-.13.5-.18.14-.08.27-.13.38-.18l-.19-.4-.31.16-.35.13c-.13.03-.26.08-.42.08-.16.03-.35.03-.56.03-.4 0-.74-.08-.98-.24a1.9 1.9 0 01-.6-.6 3.1 3.1 0 01-.3-.92 7.86 7.86 0 01-.08-1.15c0-.3.03-.65.06-.99.02-.34.1-.63.23-.89.14-.26.3-.47.53-.65.24-.16.56-.26.96-.26.37 0 .69.1.95.28.26.19.42.5.5.9h.43v-1.29l-.43-.15a2.84 2.84 0 00-.5-.1c-.19-.04-.34-.04-.53-.06-.16 0-.32-.03-.45-.03a4.2 4.2 0 00-1.48.24c-.4.15-.74.39-1 .68a2.8 2.8 0 00-.6 1.07c-.12.42-.18.91-.18 1.44 0 .5.06.96.19 1.36.08.44.26.78.5 1.04zM50.58 26.05c.32-.02.63-.13.87-.26.27-.16.48-.37.61-.65.16-.29.24-.68.24-1.18 0-.37-.05-.65-.16-.91-.1-.27-.26-.45-.5-.63a2.58 2.58 0 00-.9-.34c-.37-.08-.82-.1-1.35-.1h-.56v-1.55c0-.16.03-.26.1-.31.09-.05.22-.05.43-.05h.8c.23 0 .44 0 .6.02.16.03.3.05.37.13.11.08.19.19.24.32.06.13.14.31.19.54h.34v-1.43h-4.87v.2c.03 0 .05.03.13.03.08.03.14.05.16.08.03.03.05.08.08.16 0 .08.03.15.03.26v5c0 .1 0 .2-.03.25 0 .08-.03.13-.08.16-.02.03-.08.08-.16.08-.08.03-.1.03-.13.03v.2h2.46c.4 0 .74 0 1.09-.05zm-1.62-.47a.24.24 0 01-.08-.18l-.02-.32v-2.71h.55c.5 0 .88.13 1.09.39.21.26.32.68.32 1.25 0 .4-.03.68-.1.92-.09.23-.17.39-.3.52-.13.1-.27.18-.4.24-.16.02-.32.05-.47.05l-.38-.05a.54.54 0 01-.2-.1zM43.61 25.9c-.02 0-.05-.03-.13-.03a.43.43 0 01-.16-.08.42.42 0 01-.08-.16l-.02-.26v-1.8h.66c.34 0 .66-.03.98-.08.32-.05.58-.16.82-.29.24-.15.42-.34.56-.62.13-.27.2-.63.2-1.08 0-.42-.07-.75-.18-.99a1.6 1.6 0 00-.53-.58c-.2-.13-.47-.2-.77-.23-.29-.03-.58-.05-.9-.05h-2.59v.2c.03 0 .05.03.13.03.08.03.13.05.16.08s.05.08.08.16c0 .08.03.15.03.26v4.97c0 .1 0 .2-.03.26 0 .08-.03.13-.08.15-.03.03-.08.08-.16.08-.08.03-.1.03-.13.03v.2h2.14v-.17zm-.37-5.52c0-.05 0-.1.03-.16 0-.05.03-.08.05-.1.03-.03.08-.05.16-.05s.16-.03.3-.03c.15 0 .31.03.47.05.16.05.26.13.4.24.1.1.18.26.26.44.05.18.08.42.08.68 0 .55-.08.97-.24 1.26-.16.28-.45.44-.84.44h-.67v-2.77zM40.6 24.61h-.43c-.05.27-.1.45-.16.6-.05.16-.1.27-.2.35a.53.53 0 01-.38.13c-.16.02-.37.02-.66.02-.27 0-.48 0-.61-.02a.89.89 0 01-.34-.1c-.08-.06-.14-.14-.14-.22-.02-.1-.02-.2-.02-.36v-2.04H38.8l.31.02c.1 0 .21.03.32.06.1.02.19.05.27.1v-.84a.8.8 0 01-.27.1c-.1.03-.21.06-.32.06-.1.03-.2.03-.31.03H37.66v-2.15a.7.7 0 01.05-.28c.05-.06.13-.06.26-.06h.72c.24 0 .45 0 .6.03.17.03.3.05.38.13.1.08.18.18.24.31.05.13.13.32.18.55h.35v-1.38h-4.56v.2c.03 0 .06.03.13.03.08.03.14.05.16.08.03.03.06.08.08.16 0 .08.03.15.03.26v4.97c0 .1 0 .2-.03.26 0 .08-.02.13-.08.15-.02.03-.08.08-.16.08-.07.03-.1.03-.13.03v.2h4.72v-1.46zM33.4 26.05c.31-.02.63-.13.87-.26.26-.16.47-.37.63-.65.16-.29.24-.68.24-1.18 0-.37-.05-.65-.16-.91-.1-.27-.26-.45-.5-.63a2.58 2.58 0 00-.9-.34c-.37-.08-.82-.1-1.35-.1h-.56v-1.55c0-.16.03-.26.1-.31.09-.05.22-.05.43-.05h.8c.23 0 .45 0 .6.02.16.03.3.05.38.13.1.08.18.19.23.32.06.13.14.31.19.54h.34v-1.43h-4.87v.2c.03 0 .05.03.13.03.08.03.14.05.16.08.03.03.06.08.08.16 0 .08.03.15.03.26v4.97c0 .1 0 .18-.03.26 0 .08-.02.13-.08.15-.02.03-.08.08-.16.08-.08.03-.1.03-.13.03v.23h2.46c.4 0 .72 0 1.06-.05zm-1.62-.47a.24.24 0 01-.08-.18c0-.08-.03-.18-.03-.32v-2.71h.56c.5 0 .87.13 1.08.39.22.26.32.68.32 1.25 0 .4-.02.68-.1.92-.08.23-.16.39-.3.52-.13.1-.26.18-.4.24-.15.02-.31.05-.47.05l-.37-.05a.54.54 0 01-.21-.1zM71.95 27.93H23.94v.63h48v-.63zM68.1 23.67l.38.5c.1.16.24.31.34.47.1.16.21.31.35.47.13.18.23.34.34.52.1.16.19.34.27.5l2.22.03-.69-.7-.53-.58-.55-.63-.5-.58a8.52 8.52 0 01-.88-1.2l.1-.13.56-.68c.21-.26.42-.52.66-.76.24-.26.45-.5.7-.7.23-.21.42-.37.6-.5h-1.54c-.05.13-.13.29-.23.47-.11.18-.22.4-.37.6-.14.21-.3.45-.43.68-.16.24-.29.45-.45.65-.16.21-.29.42-.42.58-.13.18-.24.31-.32.44l.4.55z"/><path fill="#1A9F29" d="M67.92 25.9c-.02 0-.05-.03-.13-.03a.43.43 0 01-.16-.08.42.42 0 01-.08-.16l-.02-.26v-4.96c0-.1 0-.21.02-.27 0-.07.03-.13.08-.15a.43.43 0 01.16-.08c.08-.03.1-.03.13-.03v-.23h-2.14v.2c.02 0 .05.03.13.03.08.03.13.05.16.08s.05.08.08.16l.02.26v4.97c0 .1 0 .2-.02.26 0 .08-.03.13-.08.15-.03.03-.08.08-.16.08-.08.03-.1.03-.13.03v.2h2.14v-.17zM53.68 25.32c.08-.37.23-.89.45-1.54h2.09l.29.83c.13.37.24.68.3.95.07.26.12.44.12.57h1.67c-.08-.13-.16-.31-.26-.52-.1-.21-.24-.53-.37-.92l-1.51-4.23c-.08-.19-.1-.34-.14-.47-.02-.13-.02-.24-.05-.32H54.4v.21c.03 0 .05.03.13.03.08.02.14.05.16.08.03.02.06.08.08.15v.13c0 .16-.02.32-.08.42l-1.06 2.56c-.18.48-.37.9-.5 1.2-.13.32-.26.6-.34.82-.11.2-.19.39-.27.52l-.18.34h1.19c.02-.18.08-.44.16-.81zm1.5-4.6l.88 2.61h-1.8l.93-2.61zM61.12 25.9h-.06c-.02 0-.05-.03-.13-.03a.43.43 0 01-.16-.08.42.42 0 01-.08-.16l-.02-.26V22.9h2.54v2.46c0 .1 0 .2-.03.26 0 .08-.02.13-.08.15-.02.03-.08.08-.16.08-.08.03-.1.03-.13.03v.2h2.15v-.2c-.03 0-.06-.03-.14-.03a.43.43 0 01-.15-.08.42.42 0 01-.08-.15c0-.08-.03-.16-.03-.26v-5c0-.1 0-.2.03-.26 0-.08.02-.13.08-.16a.43.43 0 01.15-.07c.08-.03.11-.03.14-.03v-.18h-2.1v.2c.03 0 .06.03.14.03.08.03.13.05.16.08l.08.16.02.26v2.06h-2.54v-2.06c0-.1 0-.21.03-.26 0-.08.02-.13.08-.16a.43.43 0 01.15-.08l.14-.02v-.21h-2.15v.2c.03 0 .06.03.13.03.08.03.14.05.16.08.03.03.06.08.08.16 0 .08.03.15.03.26v5c0 .1 0 .18-.03.25 0 .08-.02.13-.08.16-.02.03-.08.08-.16.08-.07.03-.1.03-.13.03v.2h2.15v-.2zM19.57 20.33l-.4-.55-7.33 4.15-3.55-2c-.08.23-.13.44-.16.67l3.74 2.12 7.7-4.4z"/><path fill="#1A9F29" d="M11.84 25.5l-3.81-2.17c-.03.13-.03.3-.03.42 0 3.43 2.8 6.22 6.3 6.22 3.47 0 6.3-2.77 6.3-6.22 0-1.02-.23-1.99-.68-2.82l-8.08 4.57z"/><path fill="#1A9F29" d="M18.67 19.25c-.18-.18-.37-.3-.56-.47l-6.27 3.59-3.02-1.7-.32.6 3.31 1.88 6.86-3.9z"/><path fill="#1A9F29" d="M17.48 18.37a6.5 6.5 0 00-.74-.37l-4.9 2.8-2.2-1.23c-.16.16-.29.34-.45.52l2.62 1.5 5.67-3.22zM50.82 33.3l.5-2.57h.82c.48 0 .69.24.69.6 0 .34-.21.53-.61.66.26.1.42.28.42.55 0 .47-.31.73-.95.73h-.87v.02zm.31-.24h.61c.4 0 .64-.21.64-.52 0-.24-.21-.47-.61-.47h-.48l-.16.99zm.24-1.2h.53c.45 0 .7-.21.7-.53 0-.26-.17-.39-.49-.39h-.53l-.2.92zM54.44 32.82c-.15.3-.34.5-.71.5-.42 0-.72-.34-.72-.81 0-.58.38-1.07.88-1.07.37 0 .55.2.66.52l-.24.05c-.08-.23-.21-.36-.42-.36-.35 0-.64.36-.64.89 0 .36.19.55.5.55.3 0 .4-.16.5-.34l.2.07zM55 32.4v.14c0 .36.19.57.48.57.26 0 .42-.18.58-.42l.21.1c-.21.32-.42.53-.82.53-.42 0-.69-.31-.69-.78 0-.63.37-1.1.9-1.1.43 0 .66.26.66.73l-.02.24H55zm1.09-.2c.02-.06 0-.08 0-.1 0-.22-.14-.43-.43-.43-.34 0-.5.21-.6.55h1.03v-.02zM56.93 31.49h1.04l-.03.2h-.8l-.31 1.6h-.24l.34-1.8zM57.75 33.08l.77-1.59h.37l.21 1.6h.19l-.1.54h-.2l.04-.34h-1.25l-.1.34h-.2l.12-.55h.15zm1.09 0l-.13-1.35h-.06l-.63 1.35h.82zM60.8 32.22c0-.08.03-.15.03-.2 0-.22-.16-.35-.4-.35a.5.5 0 00-.4.21l-.16-.15a.93.93 0 01.61-.27c.37 0 .61.24.61.53 0 .05-.03.15-.03.28l-.13.6c-.05.21-.05.35-.05.45h-.24c-.03-.05-.03-.13-.03-.2-.15.12-.31.23-.53.23a.53.53 0 01-.53-.53c0-.36.35-.6.98-.6h.27zm-.05.19h-.19c-.5 0-.77.13-.77.39 0 .18.14.31.32.31.19 0 .35-.1.53-.23l.1-.47zM63 31.7c.16-.16.31-.26.53-.26.4 0 .6.26.6.76 0 .65-.4 1.12-.87 1.12-.24 0-.4-.1-.53-.23l-.18.91h-.24l.5-2.54h.21l-.02.24zm-.21 1.15c.1.16.23.26.47.26.35 0 .66-.4.66-.94 0-.34-.16-.52-.42-.52-.19 0-.37.08-.5.31l-.21.89zM65.17 32.46l-.58.83h-.27l.61-.83c-.24-.08-.37-.26-.37-.47 0-.24.21-.5.63-.5h.88l-.37 1.8h-.24l.16-.83h-.45zm.58-.79h-.58c-.27 0-.4.16-.4.3 0 .17.1.25.32.25h.53l.13-.55zM66.3 33.08l.77-1.59h.38l.2 1.6h.2l-.11.54h-.19l.03-.34h-1.25l-.1.34h-.19l.1-.55h.17zm1.07 0l-.14-1.35h-.05l-.63 1.35h.82zM68.05 32.54c0-.63.4-1.1.88-1.1.4 0 .63.31.63.78 0 .6-.4 1.1-.87 1.1-.37 0-.64-.29-.64-.78zm.24.05c0 .34.19.52.43.52.31 0 .63-.4.63-.91 0-.34-.18-.55-.42-.55-.32 0-.64.39-.64.94zM71.68 31.7l-.8 1.6h-.23l-.24-1.6-.32 1.6h-.23l.37-1.81h.4l.2 1.57.77-1.57h.4l-.37 1.8h-.24l.3-1.6z"/></svg>