<svg xmlns="http://www.w3.org/2000/svg" width="80" height="50" fill="none" viewBox="0 0 80 50"><defs/><path fill="#000" d="M0 0h80v50H0z"/><path fill="#fff" d="M26.05 22.93h-1.23c0-.1-.23-.8-1.21-.8-.73 0-.88.38-.88.63 0 .6.98.72 1.56.87.66.17 1.95.52 1.95 1.83 0 .74-.39 1.21-.73 1.49a2.9 2.9 0 01-1.82.54c-1.83 0-2.63-1.06-2.71-2.08h1.39c.03.23.3.98 1.36.98.9 0 1.01-.49 1.01-.69 0-.57-.8-.71-1.49-.9-.72-.19-1.96-.5-1.96-1.85 0-1 .71-1.93 2.39-1.93 2.13 0 2.37 1.58 2.37 1.9zM31.24 25.85a2.1 2.1 0 01-2.2 1.64 2.3 2.3 0 01-1.66-.65 2.45 2.45 0 01-.65-1.77c0-1.02.45-1.6.8-1.91.54-.46 1.12-.52 1.52-.52.88 0 1.43.4 1.73.77.28.34.53.9.53 1.69v.24h-3.14c0 .61.23 1.23.93 1.23a.9.9 0 00.9-.72h1.24zm-1.3-1.3c0-.22-.1-1-.87-1-.76 0-.9.69-.9 1h1.76zM33.72 22.73h.95v.96h-.95v2.1c0 .16 0 .36.14.52.12.12.27.13.41.13h.5v.97c-.3.04-.7.08-1 .08-.32 0-.77-.07-1.07-.4-.34-.36-.33-.82-.33-1.27V23.7h-.72v-.96h.72l.13-1.43h1.22v1.43zM43.28 27.4h-.76l-.22-.69a2 2 0 01-.56.51c-.34.2-.77.27-1.15.27-.56 0-1.26-.12-1.85-.78a3.73 3.73 0 01-.82-2.37c0-.83.24-1.77.78-2.4a2.62 2.62 0 012.08-.92c1.87 0 2.4 1.27 2.48 2.22h-1.4c-.02-.23-.11-.5-.25-.69a1 1 0 00-.86-.43c-.35 0-.76.15-1.03.68-.07.15-.24.53-.24 1.45 0 .54.06 1.13.28 1.52a1.17 1.17 0 001.83.31c.18-.18.32-.5.32-.82v-.16h-1.24v-1.07h2.6v3.37zM44.27 27.4v-4.67h1.18v1.03h.01c.05-.36.22-.6.34-.73.15-.17.44-.4.9-.4l.25.02v1.23h-.22c-.22 0-.44.05-.6.16-.45.28-.51.72-.51 1.21v2.15h-1.35zM51.2 23.28c.21.22.68.8.68 1.77 0 .75-.29 1.42-.72 1.84-.32.3-.83.6-1.56.6a2.2 2.2 0 01-1.56-.6 2.58 2.58 0 01-.72-1.84c0-.98.47-1.55.69-1.77a2.19 2.19 0 011.59-.64c.45 0 1.06.1 1.6.64zm-2.24.64c-.22.34-.24.78-.24 1.13 0 .63.1.94.21 1.13.17.3.43.4.67.4.24 0 .5-.1.67-.4.1-.2.2-.5.2-1.13 0-.35-.01-.8-.23-1.13a.7.7 0 00-.64-.37.7.7 0 00-.64.37zM53.88 22.73v2.8c0 .18 0 .51.15.71.1.14.27.21.46.21.22 0 .45-.1.6-.3.19-.24.22-.53.22-.77v-2.65h1.34v4.67H55.4v-.84h-.01c-.24.55-.7.93-1.38.93a1.4 1.4 0 01-.96-.33c-.45-.39-.51-.92-.51-1.4v-3.03h1.34zM57.63 28.9v-6.17h1.24v.75c.28-.55.82-.84 1.4-.84 1.13 0 1.73 1 1.73 2.38 0 1.76-.9 2.47-1.78 2.47-.55 0-.97-.23-1.25-.69v2.1h-1.34zm1.34-3.37c0 .65.3 1.04.79 1.04.66 0 .83-.74.83-1.53 0-1.06-.32-1.49-.83-1.49-.48 0-.79.41-.79.97v1.01zM37.14 20.45h-1.36v6.93h1.36v-6.93z"/><path fill="#fff" d="M37.14 20.45h-1.37v6.93h1.37v-6.93z"/><path fill="#ED1C24" d="M18 16.29V35.7h19.14V28.8h-1.37v5.52H19.4l-.01-16.64h16.4v1.39h1.36v-2.78H18z"/></svg>