<svg xmlns="http://www.w3.org/2000/svg" width="80" height="50" fill="none" viewBox="0 0 80 50"><defs/><path fill="#000" d="M0 0h80v50H0z"/><path fill="#fff" d="M24.73 24.68h2.3c.28 0 .67-.02.98.03.73.1 1.46.41 1.46 1.29 0 .73-.43 1.08-.95 1.19v.04c.75.14 1.19.54 1.19 1.34 0 1.3-1.25 1.67-2.26 1.71l-.78.01h-1.93v-5.61zm1.62 4.55H27c.56 0 1.1-.17 1.1-.7 0-.5-.4-.68-1.17-.68h-.58v1.38zm.03-2.37h.49c.67 0 1.07-.14 1.07-.57 0-.35-.25-.55-.9-.55h-.66v1.12zM16.76 30.4c-2.44 0-3.76-1.76-3.76-3.96a3.92 3.92 0 014.11-4.05c.68 0 1.27.1 1.78.36v1.44a3.17 3.17 0 00-1.72-.48c-1.73 0-2.41 1.28-2.41 2.62 0 1.5.84 2.7 2.25 2.7.63 0 1.14-.15 1.74-.47l.42 1.13c-.9.57-1.67.71-2.41.71zm27.47 0c-1.8 0-2.73-1.32-2.73-2.9 0-1.77 1.23-2.94 2.86-2.94.72 0 1.1.15 1.4.33v1.26a1.8 1.8 0 00-1.17-.39c-.92 0-1.49.68-1.49 1.66 0 .88.44 1.74 1.47 1.74.29 0 .68-.11 1.1-.33l.37 1.04a3.7 3.7 0 01-1.81.53zm4.98-4.46v4.35h-1.6v-4.35h-1.56v-1.27h4.91l-.4 1.27h-1.35zm7.7-.6c0 1.95-.08 2.97-.44 3.44-.18.23-.46.39-.75.43l.45 1.2c.37-.02.93-.18 1.32-.56.51-.5.68-1.14.76-1.8.07-.57.11-1.24.11-1.83v-.28h1.25v4.35h1.6v-5.62h-4.3v.66zM20.6 27.91c.03.76.74 1.22 1.49 1.22.54 0 .95-.1 1.59-.4l.35 1.02c-.78.49-1.53.64-2.21.64-2 0-2.83-1.42-2.83-2.9 0-1.58.95-2.94 2.63-2.94 1.53 0 2.6 1.14 2.6 2.87v.5H20.6zm.97-2.19c-.64 0-1 .58-1 1.1h2.02c-.04-.54-.34-1.1-1.02-1.1zm10.06 2.2c.03.75.74 1.21 1.49 1.21.54 0 .95-.1 1.59-.4l.35 1.02c-.78.49-1.53.64-2.21.64-2 0-2.82-1.42-2.82-2.9 0-1.58.94-2.94 2.62-2.94 1.53 0 2.6 1.14 2.6 2.87v.5h-3.62zm.98-2.2c-.65 0-1.02.58-1.02 1.1h2.03c-.04-.54-.34-1.1-1.01-1.1zm21.42 4.06c-.37.34-.82.61-1.54.61-1.07 0-1.87-.71-1.87-1.82 0-1.2.96-1.8 2.38-1.85l.95-.03v-.11c0-.6-.48-.83-1.04-.83-.57 0-1.06.17-1.42.4l-.5-.99c.78-.5 1.5-.6 2.28-.6 1.48 0 2.27.58 2.27 2.06v3.66h-1.25l-.26-.5zm-.8-2.01c-.69.02-1 .25-1 .68 0 .43.3.7.84.7.42 0 .72-.14.86-.26v-1.14l-.7.02zm-15.87 2.39v2.37l-1.6.49v-8.36h1.35l.18.52c.4-.33.89-.63 1.5-.63 1.3 0 2.31.98 2.31 2.76 0 1.67-1 3.08-2.66 3.08a2.3 2.3 0 01-1.08-.23zm0-3.8v2.65c.18.13.4.23.7.23 1.08 0 1.44-1 1.44-1.95 0-1.16-.38-1.57-1.02-1.57-.42 0-.93.35-1.12.63zM63.49 26.5v-2.07l-1.6.5v5.36h2.04c1.49 0 2.88-.4 2.88-1.94 0-1.31-1.12-1.85-2.5-1.85h-.82zm0 2.68v-1.57h.53c.57 0 1.19.1 1.19.76s-.53.81-1.17.81h-.55z"/><path fill="url(#paint0_linear)" d="M64.14 16.05c-.46.21-.85.44-1.17.67-.34.25-.65.55-.73.89-.1.33.03.75.2 1.13.18.35.41.74.7 1.15 0-.12 0-.23.02-.33.08-.33.35-.62.65-.86.22-.16.48-.33.77-.49a8.47 8.47 0 011.73-.67c.7-.2 1.3-.29 1.84-.31 0-.34 0-.64-.04-.91-.05-.38-.17-.77-.42-1a1.09 1.09 0 00-.28-.18c-.5.06-1.06.17-1.67.34-.61.17-1.14.36-1.6.57z"/><path fill="url(#paint1_linear)" d="M70.24 17.92c.04-.5.04-.95 0-1.34-.04-.42-.15-.84-.4-1.08-.24-.24-.67-.35-1.08-.38-.4-.04-.85-.03-1.35.03.1.04.2.1.28.18.25.22.36.6.42.99.03.27.05.57.04.9-.02.54-.1 1.15-.29 1.84-.17.7-.4 1.27-.64 1.75.28.17.55.31.8.42.36.14.75.23 1.07.13.1-.03.2-.08.3-.15a10.64 10.64 0 00.85-3.29z"/><path fill="url(#paint2_linear)" d="M65.56 22.27a10.53 10.53 0 01-2.41-2.38c-.01-.12 0-.23.01-.33.08-.33.35-.62.65-.86.22-.16.48-.33.77-.49.3.45.68.93 1.19 1.43.51.5 1 .88 1.45 1.17.28.17.55.31.8.42.36.14.75.23 1.07.13.1-.03.2-.08.3-.15-.2.46-.42.85-.64 1.17-.24.35-.55.67-.88.76-.34.1-.76-.02-1.15-.2a6.96 6.96 0 01-1.16-.67z"/><path fill="#fff" d="M27.2 35.93c.06 0 .1.02.1.1v.88c0 .07-.03.09-.1.09h-.23c-.07 0-.09-.02-.09-.1v-.6h-1.46v.61c0 .07-.03.09-.08.09h-.24c-.07 0-.1-.02-.1-.1v-.87c0-.08.04-.1.1-.1h.06c.33-.46.46-1.03.46-1.54v-.45c0-.08.04-.1.1-.1h1.22c.07 0 .1.02.1.1v2h.15zm-1.14-1.57c0 .52-.1 1.09-.44 1.57h.96v-1.72h-.52v.15zM28.37 36.35c-.58 0-.85-.4-.85-.91 0-.52.32-.9.87-.9.58 0 .85.38.85.9 0 .51-.31.9-.87.9zm.02-1.48c-.32 0-.42.27-.42.56 0 .3.09.58.4.58.32 0 .42-.28.42-.57 0-.3-.09-.57-.4-.57zM30.75 35.93c.04-.01.06-.01.08.04l.04.15.02.06c0 .03-.02.05-.05.06-.18.08-.33.1-.52.1-.55 0-.85-.33-.85-.88 0-.56.33-.93.88-.93.16 0 .33.03.48.1.04.02.04.05.03.1l-.04.18c0 .03-.02.05-.04.05a.89.89 0 00-.38-.1c-.31 0-.49.23-.49.58 0 .34.16.57.47.57.15 0 .25-.03.37-.08zM31.06 34.87c-.05 0-.07-.02-.07-.06v-.17c0-.05.02-.06.07-.06h1.38c.05 0 .07.02.07.06v.17c0 .04-.02.06-.07.06h-.48v1.35c0 .06-.02.08-.08.08h-.25c-.07 0-.1-.02-.1-.08v-1.35h-.47zM33.89 34.84v-.17c0-.07.02-.1.09-.1h.25c.06 0 .09.03.09.1v1.55c0 .06-.03.08-.1.08h-.24c-.07 0-.1-.02-.1-.08v-.92l-.68.73v.19c0 .06-.03.08-.09.08h-.25c-.06 0-.09-.02-.09-.08v-1.55c0-.07.03-.1.1-.1h.24c.06 0 .1.03.1.1v.9l.68-.73zM35.73 34.67c0-.07.03-.1.09-.1h.25c.06 0 .09.03.09.1v1.55c0 .06-.03.08-.1.08h-.24c-.06 0-.1-.02-.1-.08v-.5c-.12.04-.32.09-.5.09-.42 0-.56-.24-.56-.66v-.48c0-.07.03-.1.1-.1H35c.06 0 .09.03.09.1v.43c0 .22.02.34.28.34.12 0 .27-.03.36-.06v-.71zM37.04 35.22c.1-.03.25-.05.4-.05.35 0 .73.12.73.55 0 .5-.51.63-.97.63-.15 0-.32-.02-.47-.04-.06-.02-.12-.04-.12-.14v-1.5c0-.07.03-.1.09-.1h.25c.06 0 .09.03.09.1v.55zm0 .8c.06.02.15.03.22.03.2 0 .47-.05.47-.29 0-.22-.22-.27-.41-.27-.1 0-.2.01-.29.03v.5zM40.77 33.75c.05 0 .09.02.09.07v.21c0 .05-.03.08-.08.08l-.3.03c-.31.03-.52.12-.63.25-.1.11-.11.25-.13.45a.8.8 0 01.55-.2c.42 0 .7.26.7.8s-.33.9-.86.9c-.7 0-.83-.58-.83-1.08 0-.52.06-.9.3-1.15.17-.17.45-.29.82-.32l.37-.04zm-1.05 1.47c0 .55.12.79.4.79s.4-.26.4-.54c0-.23-.06-.49-.36-.49a.58.58 0 00-.44.2v.04zM42.07 36.35c-.59 0-.85-.4-.85-.91 0-.52.31-.9.87-.9.58 0 .85.38.85.9 0 .51-.32.9-.87.9zm.01-1.48c-.31 0-.42.27-.42.56 0 .3.1.58.41.58.31 0 .42-.28.42-.57 0-.3-.1-.57-.4-.57zM43.9 35.09c0 .53-.09 1.15-.7 1.24-.04 0-.07-.01-.08-.05l-.03-.2c-.01-.04 0-.07.05-.08.29-.08.35-.46.35-.83v-.51c0-.06.03-.08.09-.08h1.1c.06 0 .1.02.1.08v1.56c0 .06-.03.09-.1.09h-.24c-.06 0-.1-.03-.1-.1v-1.34h-.44v.22zM45.66 35.22c.11-.03.25-.05.41-.05.34 0 .72.12.72.55 0 .5-.51.63-.97.63-.15 0-.32-.02-.47-.04-.06-.02-.12-.04-.12-.14v-1.5c0-.07.03-.1.1-.1h.24c.06 0 .09.03.09.1v.55zm0 .8c.06.02.15.03.22.03.2 0 .47-.05.47-.29 0-.22-.22-.27-.4-.27-.11 0-.21.01-.3.03v.5zM48.03 36v-1.33c0-.07.02-.1.09-.1h.24c.06 0 .09.03.09.1V36h.52v-1.34c0-.07.03-.1.1-.1h.24c.06 0 .1.03.1.1v1.55c0 .06-.04.09-.1.09h-2.15c-.05 0-.09-.03-.09-.09v-1.55c0-.07.03-.1.1-.1h.24c.06 0 .1.03.1.1V36h.52zM51.15 35.92c.04-.02.07-.02.09.03l.05.18v.04c0 .03-.01.05-.05.06a1.6 1.6 0 01-.6.12c-.56 0-.9-.36-.9-.91 0-.54.36-.9.89-.9.22 0 .4.07.52.2.16.18.21.4.21.64v.06c0 .08-.03.1-.12.1H50.2a.5.5 0 00.5.46c.16 0 .3-.03.45-.08zm-.21-.66v-.04c-.01-.19-.12-.36-.33-.36-.24 0-.38.19-.4.4h.73zM52.12 36.22c0 .06-.03.08-.1.08h-.24c-.07 0-.1-.02-.1-.08v-1.56c0-.06.04-.08.1-.08h1c.03 0 .06.01.06.06v.17c0 .04-.03.06-.07.06h-.65v1.35zM53.74 36.35c-.58 0-.84-.4-.84-.91 0-.52.31-.9.87-.9.58 0 .84.38.84.9 0 .51-.31.9-.87.9zm.02-1.48c-.31 0-.42.27-.42.56 0 .3.1.58.4.58.32 0 .43-.28.43-.57 0-.3-.1-.57-.4-.57zM55.82 34.66c0-.06.04-.08.1-.08h.63c.42 0 .7.12.7.43 0 .18-.09.32-.3.37.25.03.41.18.41.39 0 .42-.36.53-.78.53h-.67c-.05 0-.09-.02-.09-.08v-1.56zm.43.61h.2c.23 0 .37-.05.37-.21 0-.17-.14-.2-.38-.2h-.19v.41zm0 .76h.27c.22 0 .4-.06.4-.25 0-.18-.2-.24-.41-.24h-.26v.49zM58.72 35.88l.39-1.22c.02-.06.06-.08.12-.08h.34c.06 0 .1.02.1.09l.07 1.55c0 .06-.03.08-.1.08h-.21c-.06 0-.1-.02-.1-.08l-.01-1.16h-.01l-.36 1.16c-.02.07-.06.08-.12.08h-.28c-.05 0-.09-.01-.1-.08l-.38-1.17h-.01l-.02 1.17c0 .06-.03.08-.1.08h-.2c-.07 0-.1-.02-.1-.08l.08-1.55c0-.07.04-.1.1-.1h.36c.06 0 .1.02.12.1l.4 1.21h.02zM61.44 35.92c.04-.02.08-.02.1.03l.04.18v.04c0 .03 0 .05-.05.06-.17.08-.41.12-.6.12-.56 0-.89-.36-.89-.91 0-.54.36-.9.89-.9.21 0 .4.07.52.2.16.18.2.4.2.64v.06c0 .08-.02.1-.11.1H60.5a.5.5 0 00.5.46c.15 0 .3-.03.44-.08zm-.2-.66v-.04c-.01-.19-.12-.36-.34-.36-.23 0-.37.19-.4.4h.73zM63.15 35.93c.04-.01.06-.01.08.04l.04.15.01.06c0 .03-.01.05-.05.06-.17.08-.32.1-.51.1-.55 0-.86-.33-.86-.88 0-.56.34-.93.89-.93.16 0 .33.03.48.1.04.02.04.05.03.1l-.04.18c-.01.03-.03.05-.05.05a.89.89 0 00-.38-.1c-.3 0-.48.23-.48.58 0 .34.16.57.46.57a.9.9 0 00.38-.08zM63.45 34.87c-.04 0-.07-.02-.07-.06v-.17c0-.05.03-.06.07-.06h1.4c.03 0 .06.02.06.06v.17c0 .04-.03.06-.07.06h-.48v1.35c0 .06-.03.08-.08.08h-.26c-.06 0-.09-.02-.09-.08v-1.35h-.48zM66.37 35.92c.04-.02.07-.02.08.03l.05.18.01.04c0 .03-.01.05-.06.06a1.6 1.6 0 01-.6.12c-.55 0-.88-.36-.88-.91 0-.54.35-.9.88-.9.22 0 .4.07.52.2.16.18.21.4.21.64v.06c0 .08-.03.1-.12.1h-1.04a.5.5 0 00.5.46c.16 0 .3-.03.45-.08zm-.21-.66v-.04c-.01-.19-.12-.36-.33-.36-.24 0-.38.19-.4.4h.73z"/><defs><linearGradient id="paint0_linear" x1="62.32" x2="70.21" y1="18.27" y2="16.09" gradientUnits="userSpaceOnUse"><stop stop-color="#E22428"/><stop offset=".34" stop-color="#E02428"/><stop offset=".46" stop-color="#D92226"/><stop offset=".55" stop-color="#CE2024"/><stop offset=".62" stop-color="#BD1D21"/><stop offset=".68" stop-color="#A7191C"/><stop offset=".74" stop-color="#8C1517"/><stop offset=".77" stop-color="#731012"/></linearGradient><linearGradient id="paint1_linear" x1="69.27" x2="67.15" y1="15.15" y2="23.05" gradientUnits="userSpaceOnUse"><stop stop-color="#0E7DC1"/><stop offset=".16" stop-color="#0E7BBE"/><stop offset=".29" stop-color="#0D74B3"/><stop offset=".41" stop-color="#0C69A2"/><stop offset=".53" stop-color="#0A5989"/><stop offset=".64" stop-color="#08446A"/><stop offset=".75" stop-color="#052B43"/><stop offset=".86" stop-color="#020D16"/><stop offset=".9" stop-color="#010103"/></linearGradient><linearGradient id="paint2_linear" x1="63.69" x2="68.49" y1="18.63" y2="22.59" gradientUnits="userSpaceOnUse"><stop stop-color="#595959"/><stop offset=".11" stop-color="#737373"/><stop offset=".29" stop-color="#979797"/><stop offset=".47" stop-color="#B4B4B4"/><stop offset=".65" stop-color="#C8C8C8"/><stop offset=".83" stop-color="#D5D5D5"/><stop offset="1" stop-color="#D9D9D9"/></linearGradient></defs></svg>