<svg xmlns="http://www.w3.org/2000/svg" width="80" height="50" fill="none" viewBox="0 0 80 50"><defs/><path fill="#000" d="M0 0h80v50H0z"/><path fill="#099" fill-rule="evenodd" d="M13.44 28.69v-1.52c.92.27 1.73.41 2.43.41.97 0 1.46-.24 1.46-.73a.58.58 0 00-.21-.45 4.44 4.44 0 00-1.12-.55 7.67 7.67 0 01-2.09-1.06 1.9 1.9 0 01-.63-1.46c0-.76.3-1.34.92-1.74.6-.4 1.4-.59 2.37-.59.53 0 1.31.1 2.33.28v1.46a6 6 0 00-2.1-.43c-.92 0-1.38.24-1.38.71 0 .18.1.32.28.44.15.09.57.28 1.26.57 1 .42 1.66.78 1.99 1.09.39.36.58.83.58 1.41 0 .84-.38 1.47-1.15 1.9-.62.36-1.42.54-2.41.54-.84 0-1.68-.1-2.53-.28zM20.82 21.13h2.27v7.68h-2.27v-7.68zM25.18 28.81v-7.68H31v1.4h-3.64v1.73h3.17v1.26h-3.17v1.83h3.73v1.46h-5.92zM32.58 28.81v-7.68h2.95l2.05 4.91 2.1-4.9h2.8v7.67h-2.16v-5.43l-2.38 5.51h-1.41l-2.34-5.51v5.43h-1.6zM44.56 28.81v-7.68h5.84v1.4h-3.64v1.73h3.16v1.26h-3.16v1.83h3.73v1.46h-5.93zM51.99 28.81v-7.68h2.63l2.8 5.14v-5.14h1.6v7.68h-2.56l-2.87-5.2v5.2h-1.6zM60.63 28.69v-1.52c.9.27 1.72.4 2.43.4.97 0 1.46-.23 1.46-.72a.59.59 0 00-.2-.45 4.47 4.47 0 00-1.13-.55 7.57 7.57 0 01-2.1-1.06 1.9 1.9 0 01-.62-1.47c0-.75.3-1.33.92-1.73.6-.4 1.4-.59 2.37-.59.54 0 1.25.08 2.12.25l.2.03v1.46a6.01 6.01 0 00-2.1-.43c-.92 0-1.37.24-1.37.71 0 .18.1.32.28.44.14.08.57.27 1.27.57.98.42 1.64.78 1.97 1.09.4.36.6.83.6 1.41 0 .83-.39 1.47-1.15 1.9-.63.36-1.43.54-2.42.54-.84 0-1.68-.1-2.53-.28z" clip-rule="evenodd"/></svg>