<svg xmlns="http://www.w3.org/2000/svg" width="80" height="50" fill="none" viewBox="0 0 80 50"><defs/><path fill="#000" d="M0 0h80v50H0z"/><path fill="#fff" d="M54 25a14 14 0 11-28 0 14 14 0 0128 0z"/><path fill="#007042" d="M39.88 15.98c.5.28 1.02.64 1.42 1.03l-.16.16c-.79-.09-1.61.02-2.36.03-.08-.09-.25-.21-.1-.32l1.2-.9zm13.89 9.7c0 .36.04.66-.1 1.02-1.43.4-2.37-1.1-3.77-.88l.16.78c1.29.05 2.1 1.28 3.42 1.22-.18.38.09 1.37-.75.97-.87-.2-1.5-.97-2.45-.97-.11.21-.04.5-.06.75 1 .16 1.73 1 2.73 1.16-.1.34-.19.73-.47.94-.82-.2-1.46-.93-2.33-.91l-.15.72c.83.02 1.36.75 2.1.97.02.3-.25.57-.4.84-.66-.2-1.17-.76-1.92-.72-.01-.28.16-.6.1-.9-.85.25-1.42-.54-2.05-1-.02-1.54-1.64-2.55-1.73-3.99-.01-.28.03-.6.16-.92a4.9 4.9 0 00-.22-3.97c-.18-.3-.5-.54-.79-.72.43.9.96 1.98.7 3.1-.03.86-.54 1.68-.55 2.51 0 .3.06.6.23.9.68 1.21 1.9 2.37 1.45 3.9-.13.47-.5.83-.6 1.31.8.66 1.55 1.4 2.6 1.44.38-.24.17-1.3.95-.81l1.13.56c-.08.3-.33.57-.56.78-.43-.2-.85-.46-1.39-.44-.16.17-.3.36-.28.6.38.06.72.22 1.04.43-.15.32-.43.51-.7.75l-.87-.3c-.15.2-.45.42-.35.65.2.08.42.2.57.34-.4.42-.88.69-1.35.97-.41-1.32-1.75-2.25-1.64-3.78l-.06-.06c-.32.35-.21.91-.19 1.37.38.96 1.28 1.7 1.41 2.75-.15.27-.5.33-.78.44.03-1.9-2.86-3.33-1-5.25.61-.94 1.65-1.84 1.28-3.13-.38-1.25-1.7-2.02-1.7-3.42v-.1c.3-1.47 1.23-3.02.48-4.57-.21-.62-.68-1.33-1.32-1.6a4.45 4.45 0 01.78 4.32c-.27.58-.65 1.27-.69 1.95-.02.36.05.71.28 1.05.73 1.17 1.98 2.45 1.26 3.97-.82 1.22-2.24 2.46-1.44 4.06.57.96 1.46 1.92 1.22 3.1l-.94.3c.63-2.19-2.45-3.48-1.16-5.68.8-1.18 2.22-2.28 1.41-3.84-.48-.97-1.48-1.54-1.44-2.75l.03-.2c.32-1.72 1.63-3.35.72-5.18a3.26 3.26 0 00-1.26-1.4l-.03.03a3.77 3.77 0 01.82 4.09c-.27.8-.86 1.6-.98 2.45a2 2 0 00.22 1.27c.68 1.07 1.88 2.2 1.13 3.6-.78 1.14-2.09 2.25-1.57 3.74.58 1.3 1.78 2.54 1.13 4.16l-.97.22c.77-1.58-.39-3.14-1.07-4.5-.82-1.96 1.78-2.9 1.82-4.69 0-1.16-1.24-1.81-1.5-2.87-.54-.45-1.1.17-1.73.06-.47.1-1.2-.65-1.48.15-.33 1.18-1.86 2.05-1.2 3.44.65 1.24 2.19 2.15 1.67 3.75-.46 1.5-1.98 2.93-1.03 4.66-.4-.13-1.11.11-1.1-.5-.6-2.1 1.94-3.32 1.16-5.4-.37-1.3-2.03-2-1.67-3.54.27-1.27 1.7-2.16 1.5-3.55a2.04 2.04 0 00-.08-.36c-.54-1.5-1.63-3-.98-4.75.18-.5.54-.93.85-1.37-1.04.55-1.56 1.72-1.54 2.9-.04 1.3.92 2.4 1.05 3.58.06.48-.02.97-.36 1.49-.68.91-1.57 1.88-1.16 3.1.39 1.21 1.92 1.95 1.82 3.37 0 1.67-1.96 2.72-1.4 4.6l-.98-.32c-.4-1.67 1.39-2.52 1.4-4.06.26-1.78-2.01-2.43-1.88-4.16 0-1.31 1.16-2.15 1.67-3.25.09-.27.12-.52.1-.77-.06-1.22-1.16-2.17-.98-3.55.06-1 .4-1.9 1.07-2.65-.91.36-1.29 1.4-1.54 2.28-.44 1.4.6 2.67.7 3.92.06.56-.08 1.11-.6 1.67-.76.89-1.53 2-.98 3.2.58 1.3 2.39 2.33 1.6 3.96-.43 1.03-1.45 1.81-1.41 3.03-.27-.11-.56-.23-.79-.43 0-1.56 2.22-2.53 1.17-4.16-.1.32-.12.76-.2 1.12-.36.95-1.14 1.71-1.44 2.7-.49-.2-1-.6-1.41-1l.56-.35c-.06-.21-.23-.39-.37-.57-.37-.05-.61.2-.91.29-.27-.23-.52-.44-.73-.72.2-.54 1.66-.1.92-.97-.5-.31-1.01.13-1.45.34l-.6-.75c.52-.3 1.03-.75 1.67-.62.15.28.17.7.47.84 1.08-.02 1.84-.83 2.67-1.47-.58-.85-1.05-2.03-.54-3.06.41-1.03 1.48-1.9 1.53-3.05.01-.26-.03-.53-.14-.83-.57-1.44-.77-3.4.31-4.68-.58.15-.93.88-1.13 1.43-.65 1.42.17 2.73.2 4.08 0 .25-.02.49-.08.74-.55 1.11-1.45 2.09-1.6 3.37-.63.4-1.16 1.12-2.07.88-.03.24.04.6.13.87-.73-.03-1.22.5-1.83.75-.32-.1-.4-.52-.53-.81.71-.24 1.22-.95 2.04-.94.1-.26-.05-.5-.1-.75-1.01-.45-2.62 2.22-2.76-.1 1.02-.06 1.67-1 2.67-1.09l.03-.75c-1.14-.11-1.87 1.06-3.01.94l-.25-1c1.32.08 2.1-1.1 3.36-1.16.17-.21.19-.54.22-.84-1.37-.18-2.31 1.34-3.77.88l-.08-.99c0-.14-.02-.23-.02-.23 1.3.5 2.44-.43 3.55-.9.29-.1.73.05.85-.26 0-.24.43-.52.07-.69-1.63-.22-2.7 1.73-4.37.85l-.13-.25c.35-4.71 3.02-9.26 7.45-11.5a13.06 13.06 0 016.27-1.56c2.7-.02 5.45.68 7.49 2.12a13.9 13.9 0 014.9 5.22 13.74 13.74 0 011.57 5.87c-1.72 1.3-2.87-1.21-4.62-.65.1.27.15.55.35.78 1.55-.01 2.61 1.6 4.24.97v.23zm-19.73-5.8c-1.09-.7-2.47-.04-3.49.35a3.39 3.39 0 00-1.29-2.44c-.07-.04-.18-.12-.28-.13-.06 0-.11.02-.16.1.37 2.24-1.1 3.8-2.13 5.5.34.28.9.24 1.32.16 1.1-.44 2.14-1.2 3.45-.94a9.67 9.67 0 011.57-1.81c.33-.29.78-.46 1-.79zm3.33 1.41c-.02.14 0 .38.22.28.32-.45.9-.1 1.25-.06v-.13c-.19-.3-.6-.45-1-.44-.1 0-.19.02-.28.04-.14.03-.23.15-.2.31zm5.12-1.34c-.3-.65-.96-.9-1.57-1.07-.3-.03-.6-.06-.92-.06h-.17c-.86.02-1.68.24-2.18.94-.07.2-.39.48-.1.65.67-.04 1.42-.12 1.86.44 0 .5.33 1.17-.22 1.41-.45-.42-.98.18-1.47-.16-.24-.13-.38.03-.48.22A3.66 3.66 0 0039 25.76c.5.18 1.16.34 1.67.1 1.23-.58 1.75-1.9 1.98-3.1-.03-.23-.02-.68-.35-.69-.36.23-.9.1-1.29 0-.23.07-.24.4-.5.47l-.16-.12c-.13-.58-.22-1.39.32-1.78.6-.24 1.3-.35 1.91-.16.12-.2-.06-.35-.1-.53zm-.63 1.03h-.12c-.22.15-.86.04-.63.53.4-.31.95-.1 1.35.06.15-.07.11-.22.12-.34-.12-.24-.43-.26-.72-.25zm4.56-4.4c-.78-.05-1.43.39-2.14.59-.06-.6.4-1.24.5-1.85-1.15.07-2.06.76-3.01 1.32l-.66-1.6 1.25-1.19.04-.15-1.7-.1c-.3-.5-.4-1.12-.75-1.59-.29.53-.48 1.1-.76 1.62l-1.7.1v.12l1.3 1.16c-.16.6-.31 1.24-.7 1.69-.75-.45-1.5-.94-2.32-1.25-.2-.07-.48-.17-.66-.04.26.58.63 1.2.56 1.82-.34-.06-.61-.28-.94-.38-.39-.1-.85-.3-1.22-.18a6.86 6.86 0 011.31 2.84c2.09-1 4.52-1.55 7.04-1.12 1.19.18 2.27.66 3.33 1.06.04-1.1.74-2 1.23-2.88zm3.58 6c1.06.27 2.14 1.43 3.27.68-.99-1.63-2.45-3.13-2.05-5.25.05-.15-.05-.3-.18-.31-.64.26-1.14.88-1.39 1.5-.1.36-.16.75-.31 1.1a4.48 4.48 0 00-2.51-.7c-.34.05-.82.07-.88.41a7.28 7.28 0 012.57 2.5c.45-.07 1-.01 1.48.06zM38.8 24.03l.03.19c.41.27.54.73 1.1.69.5.03.89-.44 1.14-.82-.68-.09-1.51.06-2.27-.06zm.57-.84c.02.08-.05.2.06.25.34-.07.94.18 1.13-.22-.13-.15-.34-.21-.57-.21-.22 0-.45.06-.62.18z"/><path fill="#fff" d="M38.82 22.84h2.3v.93h-2.3v-.93z" opacity=".99"/><path fill="#007042" d="M39.24 23.34c.3.07.37.17.6.2.25 0 .22-.05.65-.2.03-.01.07-.08.02-.12-.27-.27-.46-.08-.62-.07-.23 0-.44-.2-.66.06-.04.05-.06.1 0 .13zM50.09 38.74V37.4h-.48v-.27h1.28v.27h-.48v1.34h-.32zM51.1 38.73v-1.6h.49l.3 1.1.28-1.1h.5v1.6h-.31v-1.26l-.32 1.27h-.32l-.32-1.27v1.27h-.3z"/></svg>