<svg width="80" height="50" viewBox="0 0 80 50" fill="none" xmlns="http://www.w3.org/2000/svg">
<rect width="80" height="50" fill="black"/>
<path d="M14 24.5C14 27.0751 16.073 29 18.8115 29C19.7848 29 20.6278 28.7943 21.3586 28.2883V26.6071C20.6442 27.0574 19.6927 27.3486 18.7956 27.3486C17.0598 27.3486 15.7639 26.1615 15.7639 24.5C15.7639 22.8384 17.0598 21.6514 18.7956 21.6514C19.6927 21.6514 20.6442 21.9427 21.3586 22.393V20.7117C20.6278 20.2058 19.7848 20 18.8115 20C16.073 20 14 21.925 14 24.5ZM55.2709 22.1981C53.3106 22.1981 51.7207 23.7246 51.7207 25.5991C51.7207 27.4736 53.3107 29 55.2709 29C57.2308 29 58.8209 27.4736 58.8209 25.5991C58.8209 23.7245 57.2307 22.1981 55.2709 22.1981V22.1981ZM55.2709 27.6075C54.1331 27.6075 53.2285 26.7105 53.2285 25.5991C53.2285 24.4878 54.1331 23.5907 55.2709 23.5907C56.4085 23.5907 57.3131 24.4878 57.3131 25.5991C57.3131 26.7105 56.4084 27.6075 55.2709 27.6075ZM64.4707 22.3321L61.5235 26.5634V22.3321H60.0393V28.8662H61.547L64.4922 24.6483V28.8662H66V22.3321H64.4707ZM28.1264 25.4251C28.4965 25.2108 28.8529 24.7154 28.8529 24.1665C28.8529 23.1087 28.0305 22.3321 26.9065 22.3321H23.1427V28.866H27.0571C28.1812 28.866 29.031 28.0761 29.031 26.9917C29.0311 26.2553 28.5788 25.6661 28.1264 25.4251ZM24.6505 23.6175H26.6735C27.0571 23.6175 27.345 23.8852 27.345 24.2467C27.345 24.6082 27.0571 24.8762 26.6735 24.8762H24.6505V23.6175V23.6175ZM26.7694 27.5809H24.6505V26.1615H26.7694C27.2081 26.1615 27.5232 26.4693 27.5232 26.8711C27.5232 27.2728 27.2081 27.5809 26.7694 27.5809ZM32.7003 22.3322C31.3707 22.3322 30.37 23.3095 30.37 24.5816C30.37 25.6138 31.0439 26.4559 32.0197 26.7256L30.1921 28.8662H32.1385L33.8876 26.8176H34.724V28.8662H36.2317V22.3322H32.7003V22.3322ZM32.9059 23.6175H34.724V25.5323H32.9059C32.3029 25.5323 31.878 25.0904 31.878 24.5817C31.8779 24.046 32.3029 23.6175 32.9059 23.6175ZM46.0493 22.3321H44.5415V28.8662H46.0493V26.2151H48.9945V28.8662H50.5022V22.3321H48.9945V24.9297H46.0493V22.3321ZM37.7219 28.4854V27.04C38.3105 27.3412 39.0301 27.6075 39.8527 27.6075C40.8527 27.6075 41.4837 27.3159 41.4837 26.7973C41.4837 26.3344 40.9324 26.157 40.2305 26.157H39.08V24.8716H40.2305C40.9453 24.8716 41.3457 24.6153 41.3457 24.2644C41.3457 23.7498 40.7139 23.5908 39.9836 23.5908C39.1395 23.5908 38.4543 23.8297 37.8947 24.0958V22.6946C38.4751 22.4155 39.2441 22.1981 40.2013 22.1981C41.661 22.1981 42.8472 22.9565 42.8472 24.0022C42.8472 24.7643 42.39 25.2332 42.0228 25.3913C42.4939 25.6083 43.0263 26.1493 43.0263 26.9312C43.0263 28.157 41.8214 28.9999 40.0579 28.9999C39.0461 29 38.3056 28.7862 37.7219 28.4854" fill="white"/>
<path d="M62.8949 21.9787C64.0536 21.9787 64.9375 21.2787 65.0331 20.2518L63.8252 20.1045C63.8252 20.5484 63.4131 20.8893 62.8949 20.8893C62.3769 20.8893 61.9646 20.5484 61.9646 20.1045L60.7567 20.2518C60.8525 21.2787 61.7363 21.9787 62.8949 21.9787" fill="#E41D94"/>
</svg>
