<svg xmlns="http://www.w3.org/2000/svg" width="80" height="50" fill="none" viewBox="0 0 80 50"><defs/><path fill="#000" d="M0 0h80v50H0z"/><path fill="#fff" d="M32.6 29.17s1.36.14 2.17.14c.81 0 1.42-.09 2.06-.55.7-.5.92-1.28.92-1.84 0-.74-.24-1.98-2.15-2.44-1.48-.36-1.94-.62-2.18-1.15-.22-.48-.06-1.19.33-1.48.34-.25.6-.48 1.6-.41l1.7.89.32-1.02a14.1 14.1 0 00-1.85-.17c-2.6-.09-2.92 1.47-2.92 2.12 0 1.12.75 1.96 2.33 2.28 1.8.5 2.03 1.33 2 1.94-.01.65-.38 1.34-1.1 1.48-.41.07-.62.1-1.16.05l-1.73-.91-.34 1.07zM11.07 21.28v1.13l1.64-.85h1.07v6.99l-.54.62h2.17l-.55-.62v-6.99h1.08l1.64.85v-1.13h-6.51zM24.36 22.32l1.43 3.47h-2.86l1.43-3.47zm-3.14 6.85h1.15l-.42-1.02.86-2.08h3.1l1.02 2.48-.29.62h1.72l-3.25-7.88h-.64l-3.25 7.88zM54.53 21.28l.54.62v6.65l-.54.62h2.17l-.55-.62V21.9l.55-.62h-2.17zM47.29 21.28l.54.62v3.04h-3.8V21.9l.55-.62H42.4l.54.62v6.65l-.54.62h2.17l-.54-.62v-3.33h3.8v3.33l-.55.62h2.17l-.54-.62V21.9l.54-.62h-2.17zM63.41 25.5v-3.94h.95c1.07 0 1.76.97 1.76 1.98 0 1.16-.65 1.96-1.62 1.96H63.4zM68 29.17l-.66-.62-1.48-3.02c.3-.12.48-.27.72-.46.4-.3.7-.94.66-1.67a2.08 2.08 0 00-1.12-1.78 4.8 4.8 0 00-2.17-.34H61.8l.54.62v6.64l-.54.62h2.16l-.54-.62V25.8h.7c.14 0 .36 0 .6-.02l1.7 3.4H68z"/></svg>