<svg xmlns="http://www.w3.org/2000/svg" width="80" height="50" fill="none" viewBox="0 0 80 50"><defs/><path fill="#000" d="M0 0h80v50H0z"/><path fill="#E84342" d="M14.73 17.04c1.16 2.88-.73 4.72-2.6 6.57-1.75 1.89-3.3 3.85-.2 7.38-1.17-2.88.73-4.72 2.6-6.56 1.74-1.9 3.29-3.86.2-7.4z"/><path fill="#0BA374" d="M11.92 13.36c1.17 2.88-.73 4.72-2.6 6.56-1.72 1.9-3.26 3.86-.18 7.42-1.16-2.89.74-4.73 2.6-6.57 1.75-1.92 3.3-3.88.18-7.41zM59.57 24.7v5.95h2.63v-2.2h2.9v-1.29h-2.9V26H68v4.66h2.62v-4.66H73V24.7H59.57zM53.88 29.35v-1.02h3.47v-1.32h-3.47V26h4.45V24.7h-7.05v5.95h7.1v-1.3h-4.5z"/><path fill="#E84342" d="M40.86 24.7h-7.19V26h2.36v4.65h2.63v-4.66h2.2V24.7zM26.09 24.7h-7.36V26h2.35v4.65h2.63v-4.66h2.38V24.7zM31.27 24.7h-2.83l-3.29 5.95h1.7l.53-1.02h3.69l.53 1.02h2.93l-3.26-5.95zm-3.21 3.68l1.21-2.31 1.17 2.31h-2.38z"/><path fill="#0BA374" d="M48.04 24.7v2.96l-4.22-2.96h-2.05v5.95h1.8v-3.29l4.32 3.29h1.94V24.7h-1.8z"/></svg>