<svg width="80" height="50" viewBox="0 0 80 50" fill="none" xmlns="http://www.w3.org/2000/svg">
<rect width="80" height="50" fill="black"/>
<path d="M11.5048 27.7595H13.3286V23.7633H15.8334V22.3091H9V23.7633H11.5048V27.7595ZM21.3658 22.3091L18.326 25.4809V22.3091H16.5629V27.7595H18.1193L21.1591 24.5878V27.7595H22.9221V22.3091H21.3658ZM26.0209 25.7328H28.8539V27.7595H30.617V22.3091H28.8539V24.3015H26.0209V22.3091H24.2578V27.7595H26.0209V25.7328ZM35.5268 27.7595C35.9281 27.7595 36.2929 27.7252 36.6333 27.6336C37.5452 27.3931 38.141 26.6946 38.141 25.7443C38.141 24.8397 37.6304 24.2099 36.8157 23.9236C36.4266 23.7862 35.9646 23.7748 35.5268 23.7748H33.7151V22.3091H31.9521V27.7595H35.5268ZM33.7151 25.0572H35.2229C35.466 25.0572 35.6971 25.0572 35.9038 25.1259C36.1956 25.2175 36.3658 25.4465 36.3658 25.7214C36.3658 26.0076 36.1956 26.2481 35.9159 26.3626C35.7214 26.4427 35.5268 26.4427 35.2229 26.4427H33.7151V25.0572ZM40.816 25.6985H41.3024L43.4059 27.7595H45.7526L42.8223 24.9198L45.6432 22.3091H43.4302L41.3024 24.3588H40.816V22.3091H39.053V27.7595H40.816V25.6985Z" fill="white"/>
<path d="M49.3805 22.1603C47.0095 22.1603 45.5869 23.4198 45.5869 25.0458C45.5869 26.6718 47.0095 27.9313 49.3805 27.9313C51.7393 27.9313 53.162 26.6718 53.162 25.0458C53.162 23.4198 51.7393 22.1603 49.3805 22.1603ZM49.3805 26.6031C48.2011 26.6031 47.4472 25.9389 47.4472 25.0458C47.4472 24.1527 48.2011 23.5 49.3805 23.5C50.5478 23.5 51.3138 24.1527 51.3138 25.0458C51.3138 25.9389 50.5478 26.6031 49.3805 26.6031ZM59.0336 22.5496V22H57.2705V22.5496C55.0576 22.5954 53.7322 23.4771 53.7322 25.0344C53.7322 26.5916 55.0576 27.4046 57.2705 27.4504V28H59.0336V27.4504C61.2587 27.4046 62.584 26.5916 62.584 25.0344C62.584 23.4771 61.2587 22.5954 59.0336 22.5496ZM57.2705 26.2824C56.0546 26.2366 55.5196 25.7672 55.5196 25.0344C55.5196 24.3015 56.0546 23.7748 57.2705 23.729V26.2824ZM59.0336 26.2824V23.729C60.2616 23.7748 60.7845 24.3015 60.7845 25.0344C60.7845 25.7672 60.2616 26.2366 59.0336 26.2824ZM68.4495 22.5496V22H66.6865V22.5496C64.4735 22.5954 63.1482 23.4771 63.1482 25.0344C63.1482 26.5916 64.4735 27.4046 66.6865 27.4504V28H68.4495V27.4504C70.6747 27.4046 72 26.5916 72 25.0344C72 23.4771 70.6747 22.5954 68.4495 22.5496ZM66.6865 26.2824C65.4706 26.2366 64.9356 25.7672 64.9356 25.0344C64.9356 24.3015 65.4706 23.7748 66.6865 23.729V26.2824ZM68.4495 26.2824V23.729C69.6776 23.7748 70.2005 24.3015 70.2005 25.0344C70.2005 25.7672 69.6776 26.2366 68.4495 26.2824Z" fill="white"/>
</svg>
