<svg width="80" height="50" viewBox="0 0 80 50" fill="none" xmlns="http://www.w3.org/2000/svg">
<rect width="80" height="50" fill="black"/>
<path d="M15.7437 29.1271C14.9142 28.6122 14.3033 26.8351 14.3033 24.7239C14.3033 24.6464 14.3036 24.5699 14.3056 24.4937L14.3066 24.4947C11.9997 24.1354 10.3326 23.1508 10.2901 21.9866L10.2832 22C9.71847 22.6954 9.39622 23.4993 9.39622 24.3558C9.39622 26.8763 12.1877 28.9415 15.7285 29.1242L15.7437 29.1271ZM8.32983 24.5398C8.32983 21.7195 11.871 19.4327 16.2395 19.4327C20.6079 19.4327 24.1491 21.7195 24.1491 24.5398C24.1491 27.3602 20.6079 29.6469 16.2395 29.6469C11.871 29.6469 8.32983 27.3602 8.32983 24.5398ZM16.2395 20.1696C17.0829 20.1696 17.8 21.4374 18.0658 23.2067L18.0668 23.2041C19.7074 22.951 20.8563 22.3668 20.8563 21.6875C20.8563 20.7754 18.7892 20.0372 16.2395 20.0372C13.6898 20.0372 11.6227 20.7757 11.6227 21.6875C11.6227 22.3668 12.7712 22.9507 14.4121 23.2041L14.4131 23.2067C14.679 21.4377 15.3964 20.1696 16.2395 20.1696ZM16.7501 29.1242C20.2909 28.9415 23.0827 26.8763 23.0827 24.3558C23.0827 23.4993 22.7601 22.6954 22.1958 22L22.1888 21.9866C22.1463 23.1508 20.4796 24.1354 18.1723 24.4947L18.1733 24.4937C18.175 24.5699 18.1756 24.6464 18.1756 24.7239C18.1756 26.8351 17.5641 28.6122 16.7352 29.1271L16.7501 29.1242ZM16.2395 23.3381C16.6175 23.3381 16.9846 23.3221 17.3359 23.2913L17.3355 23.2917C17.1607 22.1576 16.7359 21.3573 16.2395 21.3573C15.7431 21.3573 15.3185 22.1576 15.1434 23.2917L15.1431 23.2913C15.4944 23.3221 15.8615 23.3381 16.2395 23.3381ZM16.2395 27.5377C16.8744 27.5377 17.3923 26.228 17.42 24.5856L17.4233 24.5866C17.0407 24.6216 16.6448 24.6402 16.2395 24.6402C15.8341 24.6402 15.4383 24.6219 15.0557 24.5866L15.0593 24.5856C15.0867 26.2284 15.6045 27.5377 16.2395 27.5377Z" fill="#FF0000"/>
<path d="M48.6901 24.5399C48.6901 22.3842 50.4534 20.6368 52.6281 20.6368C54.8037 20.6368 56.5667 22.3845 56.5667 24.5399C56.5667 26.6959 54.8034 28.443 52.6281 28.443C50.4534 28.443 48.6901 26.6956 48.6901 24.5399ZM52.6281 27.0117C53.8429 27.0117 54.8275 25.9048 54.8275 24.5396C54.8275 23.1747 53.8429 22.0674 52.6281 22.0674C51.4139 22.0674 50.4297 23.1744 50.4297 24.5396C50.4297 25.9048 51.4142 27.0117 52.6281 27.0117Z" fill="#FF0000"/>
<path d="M61.0354 22.2629V28.2657H59.3763V22.2629H59.3819H57.0615V20.9055H63.3502V22.2626H61.0413H61.0354V22.2629Z" fill="#FF0000"/>
<path d="M65.3575 26.6099L65.3558 26.6116L64.7192 28.2661H62.7814L65.845 20.9059H66.878H67.9101L70.974 28.2661H69.0359L68.3993 26.6116L68.3976 26.6099H66.878H65.3575ZM66.878 25.3676H67.922L67.9213 25.368L66.885 22.6742H66.8704L65.8334 25.368L65.8331 25.3676H66.878Z" fill="#FF0000"/>
<path d="M30.4481 22.2629V28.2657H28.7886V22.2629H28.7942H26.4734V20.9055H32.7626V22.2626H30.4537H30.4481V22.2629Z" fill="#FF0000"/>
<path d="M33.1874 24.5399C33.1874 22.3842 34.9508 20.6368 37.1261 20.6368C39.3011 20.6368 41.0644 22.3845 41.0644 24.5399C41.0644 26.6959 39.3011 28.443 37.1261 28.443C34.9508 28.443 33.1874 26.6956 33.1874 24.5399ZM37.1261 27.0117C38.3402 27.0117 39.3252 25.9048 39.3252 24.5396C39.3252 23.1747 38.3406 22.0674 37.1261 22.0674C35.9116 22.0674 34.927 23.1744 34.927 24.5396C34.927 25.9048 35.9116 27.0117 37.1261 27.0117Z" fill="#FF0000"/>
<path d="M44.877 28.2657H45.7185V25.5056V25.4709L48.6132 20.9055H46.6757L44.877 23.9991L43.0787 20.9055H41.1406L44.0356 25.4709V25.5052V28.2654H44.877V28.2657Z" fill="#FF0000"/>
</svg>
