<svg xmlns="http://www.w3.org/2000/svg" width="80" height="50" fill="none" viewBox="0 0 80 50"><defs/><path fill="#000" d="M0 0h80v50H0z"/><path fill="#7C7CFF" fill-rule="evenodd" d="M33.26 32.62l-.38-.37c-.03-.04-.08-.04-.12-.01a.62.62 0 01-.4.13.65.65 0 01-.66-.64c0-.35.3-.64.66-.64a.7.7 0 01.4.14c.04.03.08.03.12 0l.38-.38a.08.08 0 000-.13l-.01-.01a1.4 1.4 0 00-.9-.33c-.75 0-1.36.6-1.36 1.35a1.36 1.36 0 002.26 1.02c.04-.03.04-.1 0-.13zM37.32 31.48a.63.63 0 01.15-.37c.09-.1.2-.15.34-.15.08 0 .15.02.22.05.05.02.1.06.13.1l.07.16c.02.06.02.13.02.2h-.93zm1.53.37c.06-.07.1-.18.1-.35 0-.36-.1-.63-.3-.83-.2-.2-.48-.3-.87-.3-.19 0-.35.04-.5.1a1.14 1.14 0 00-.64.7c-.06.16-.09.35-.09.57 0 .46.1.8.31 1.01.2.21.53.33.96.33.14 0 .3-.02.45-.06.16-.03.3-.08.43-.17l.02-.02c.03-.02.03-.06.02-.1l-.16-.33v-.01c0-.01 0-.02-.02-.03-.01-.02-.05-.03-.07-.03l-.04.01c-.09.04-.18.07-.28.09a1.1 1.1 0 01-.52 0 .52.52 0 01-.19-.08.4.4 0 01-.12-.16.72.72 0 01-.06-.27h1.28c.14.02.23-.01.29-.07zM21.53 29.68c0-.03-.01-.04-.03-.06a.08.08 0 00-.06-.03H18.87l-.06.03c-.02.02-.03.03-.03.05v.49l.03.04.06.02h.9v2.73c0 .01 0 .03.02.04l.04.03H20.43c.03 0 .04-.01.06-.03a.08.08 0 00.03-.06v-2.71h.92l.05-.03.02-.04v-.47h.02zM30.4 30.54a.1.1 0 00-.02-.07l-.05-.02h-.55-.03c-.02 0-.03 0-.04.02-.02.02-.03.03-.03.06v.86h-.93v-.85a.1.1 0 00-.03-.06l-.05-.02h-.55-.03c-.02 0-.03 0-.04.02 0 .02-.03.03-.03.06V32.96c0 .02.01.04.03.05l.04.02.03.01h.55c.02 0 .03 0 .05-.02a.08.08 0 00.03-.07v-1h.92v1l.01.02c0 .02.01.04.03.05l.04.02.03.01h.54c.03 0 .05 0 .06-.03a.08.08 0 00.03-.06v-2.42zM36.46 29.68c0-.03-.02-.04-.03-.06a.08.08 0 00-.06-.03H33.8c-.03 0-.05.01-.06.03-.02.02-.03.03-.03.05v.49l.03.04.05.02h.89v2.73l.03.04.03.03H35.36c.02 0 .04-.01.05-.03a.08.08 0 00.03-.06v-2.71h.92c.02 0 .03-.02.04-.03l.03-.04v-.47h.03zM23.43 32.3a.52.52 0 01-.4.16l-.19-.01c-.07-.01-.15-.02-.23-.05v-1.34l.2-.04.18-.01c.1 0 .18 0 .26.03.07.03.13.06.2.12.04.06.08.14.1.22.03.09.05.2.05.34 0 .27-.06.47-.17.57zm.85-1.1c-.04-.16-.11-.3-.21-.41a.97.97 0 00-.4-.29c-.16-.07-.35-.1-.59-.1a2.43 2.43 0 00-1.02.17.28.28 0 00-.17.24v3.14c0 .02 0 .03.02.04l.04.03H22.52c.02 0 .04 0 .06-.03a.08.08 0 00.02-.06V33l.29.04.27.02c.2 0 .38-.04.53-.1.14-.08.26-.17.36-.3.1-.12.17-.26.22-.42a1.92 1.92 0 00.01-1.03zM57.34 30.45H57l-.08.03a.17.17 0 00-.06.06l-.06.07c-.1.19-.2.34-.29.46a5.9 5.9 0 01-.2.33l-.06.1-.07.11-.1.17-.17.25h-.02v-1.49l-.03-.06a.1.1 0 00-.06-.02h-.55a.1.1 0 00-.06.02.08.08 0 00-.03.06v2.21c0 .16.13.28.29.28h.23c.08 0 .14 0 .17-.02a.45.45 0 00.13-.13l.24-.36.23-.36.21-.34.23-.34h.02v1.46c0 .02.01.05.03.07l.06.02h.55c.02 0 .04 0 .06-.02a.08.08 0 00.03-.06v-2.22a.3.3 0 00-.3-.28zM53.73 32.27a.26.26 0 01-.15.17.43.43 0 01-.16.03h-.62v-.57h.62c.11 0 .19.02.24.08.06.05.08.12.08.2v.1zM52.8 31h.6c.08 0 .12.03.17.06.03.04.05.09.05.15 0 .08-.02.13-.07.16a.26.26 0 01-.15.06h-.6V31zm1.6.88a.6.6 0 00-.31-.26v-.03c.1-.05.16-.12.22-.2.05-.1.07-.19.07-.29a.68.68 0 00-.06-.3.51.51 0 00-.19-.2.7.7 0 00-.27-.12c-.1-.02-.21-.03-.33-.03h-1.16a.28.28 0 00-.28.28v2.02c0 .14.12.27.27.27h1.18c.14 0 .26-.01.39-.06.11-.03.2-.1.3-.16a.61.61 0 00.2-.26c.04-.1.07-.2.07-.32 0-.1-.04-.23-.1-.34zM41.83 32.9l-.82-1.25.73-1.06v-.01a.08.08 0 00-.01-.1.08.08 0 00-.07-.03h-.48c-.1 0-.2.06-.24.15l-.33.58-.3-.57-.01-.01a.3.3 0 00-.24-.14h-.51c-.02 0-.04 0-.06.02-.03.04-.03.07-.02.1l.72 1.1-.82 1.21a.08.08 0 000 .1c.03.03.04.03.06.03h.5c.08 0 .17-.05.22-.13l.44-.73.41.73c.05.08.13.13.24.13h.49c.05 0 .08-.03.08-.08.03-.01.02-.03.02-.05zM60.5 32.62l-.38-.37a.08.08 0 00-.12-.01.64.64 0 01-.4.13.64.64 0 01-.64-.64c0-.35.3-.64.64-.64.15 0 .3.06.4.14.04.03.09.03.12 0l.38-.38a.08.08 0 000-.13l-.01-.01c-.24-.2-.55-.33-.9-.33a1.35 1.35 0 10.9 2.37c.03-.03.03-.1 0-.13zM46.64 31.48c.01-.15.07-.27.15-.37.1-.1.2-.15.34-.15.09 0 .16.02.22.05.05.02.1.06.13.1.04.05.06.1.07.16.02.06.03.13.03.2h-.94zm1.54.37c.06-.07.1-.18.1-.35 0-.36-.1-.63-.3-.83-.19-.2-.48-.3-.87-.3-.18 0-.36.04-.5.1a1.14 1.14 0 00-.64.7c-.06.16-.09.35-.09.57 0 .46.1.8.31 1.01.2.21.53.33.97.33.13 0 .29-.02.45-.06.16-.03.3-.08.42-.17l.03-.02c.02-.02.03-.06.01-.1l-.15-.33v-.01l-.02-.03c-.02-.02-.05-.03-.08-.03l-.04.01a1.5 1.5 0 01-.8.1.45.45 0 01-.19-.09.4.4 0 01-.12-.16.72.72 0 01-.05-.27h1.27c.13.02.22-.01.29-.07zM50.48 32.3a.52.52 0 01-.4.16l-.18-.01c-.07-.01-.15-.02-.24-.05v-1.34l.2-.04.2-.01c.08 0 .17 0 .24.03.08.03.14.06.2.12.05.06.08.14.1.22.03.09.04.2.04.34 0 .27-.05.47-.16.57zm.85-1.1a1.05 1.05 0 00-.6-.7c-.16-.07-.35-.1-.59-.1-.18 0-.36.01-.56.04-.17.03-.32.07-.46.12h-.01a.29.29 0 00-.18.25v3.14c0 .02 0 .03.03.04l.03.03H49.57c.01 0 .03 0 .05-.03a.08.08 0 00.03-.06V33l.29.04.28.02c.2 0 .37-.04.52-.1a.98.98 0 00.36-.3c.1-.12.17-.26.21-.42.06-.16.07-.33.07-.52.01-.17 0-.35-.05-.51zM26.51 32.46l-.1.03-.12.02h-.18a.66.66 0 01-.32-.06c-.08-.05-.12-.12-.12-.24 0-.08.02-.14.05-.18a.26.26 0 01.11-.1.38.38 0 01.15-.05h.55v.58h-.02zm.47-1.85c-.17-.15-.43-.23-.8-.23a2.96 2.96 0 00-.95.15l-.03.01a.07.07 0 00-.03.08v.02l.08.34c0 .02 0 .03.03.04.01.02.04.03.08.03h.02l.16-.04.18-.03.18-.02h.18c.09 0 .17 0 .22.02.05.02.1.04.13.08a.2.2 0 01.06.11l.02.13v.08h-.55c-.17 0-.33.02-.46.07a.9.9 0 00-.33.19.88.88 0 00-.2.28 1 1 0 000 .67c.03.1.1.18.18.26.1.08.21.13.36.17.15.05.33.07.55.07l.27-.01.27-.03c.09 0 .18-.03.26-.05l.18-.06c.1-.05.17-.14.17-.26v-1.4a.8.8 0 00-.23-.67zM45.5 32.57c0-.03 0-.04-.02-.06l-.43-.43a.1.1 0 00-.14 0 .95.95 0 01-.64.23c-.28 0-.53-.11-.72-.29a.96.96 0 01-.29-.7 1 1 0 011.65-.76c.04.04.1.04.13 0l.43-.43.03-.06a.1.1 0 00-.03-.06h-.01a1.8 1.8 0 00-3 1.32 1.76 1.76 0 001.8 1.76c.45 0 .87-.17 1.18-.45h.01c.05-.03.05-.05.05-.07z" clip-rule="evenodd"/><path fill="#D90008" fill-rule="evenodd" d="M24.62 21.13c.11 0 .2-.04.26-.1l3.43-3.4a.37.37 0 000-.52l-.01-.01-.01-.01a5.65 5.65 0 00-7.33 0l-.03.02a.36.36 0 00-.11.22c-.01.1.02.21.1.3l3.44 3.39c.07.08.16.11.26.11z" clip-rule="evenodd"/><path fill="#7C7CFF" fill-rule="evenodd" d="M24.62 21.87c.11 0 .2.05.26.1l3.43 3.4c.15.14.15.37 0 .51l-.01.02h-.01a5.66 5.66 0 01-7.33.02l-.03-.02v-.01a.36.36 0 01-.11-.22c-.01-.1.02-.2.1-.29l3.44-3.4a.37.37 0 01.26-.1zM20.1 24.85a.3.3 0 01-.24-.12 5.5 5.5 0 010-6.47c.1-.14.29-.17.43-.07s.17.29.07.43a4.84 4.84 0 000 5.75.3.3 0 01-.07.42.3.3 0 01-.19.06z" clip-rule="evenodd"/><path fill="#D90008" fill-rule="evenodd" d="M29.14 24.85a.27.27 0 01-.17-.06.3.3 0 01-.07-.42 4.84 4.84 0 000-5.75.3.3 0 01.07-.43c.13-.1.32-.07.43.07a5.4 5.4 0 011.06 3.24 5.4 5.4 0 01-1.06 3.23.31.31 0 01-.26.12zM61 25.06a.39.39 0 00-.1-.23l-.01-.02-1.44-1.42a.36.36 0 00-.25-.1.37.37 0 00-.21.08 2.5 2.5 0 01-1.57.56 2.45 2.45 0 01-2.47-2.44c0-1.35 1.1-2.44 2.47-2.44.59 0 1.13.21 1.56.55v.01c.07.05.15.09.23.09.1 0 .2-.04.25-.11l1.44-1.43.02-.01.03-.04c.03-.06.05-.11.05-.18 0-.1-.04-.19-.1-.25a5.16 5.16 0 00-3.48-1.32c-2.87 0-5.2 2.3-5.2 5.13a5.16 5.16 0 005.2 5.13c1.33 0 2.55-.5 3.47-1.3v-.01c.06-.06.1-.14.1-.25zM50.86 18.97h-2.6v7.18c0 .12-.03.21-.06.26-.04.04-.14.07-.31.07h-2.17c-.23 0-.36-.1-.36-.32v-7.19h-2.55c-.2 0-.32-.1-.32-.34v-1.7c0-.16.02-.27.07-.3.04-.04.13-.06.25-.06h8.05c.12 0 .2.02.25.06.05.03.07.14.07.3v1.7c.01.22-.1.34-.32.34zM40.82 16.92c0-.2-.16-.36-.37-.36h-7.97c-.2 0-.36.16-.36.36v1.73c.02.19.18.32.36.32H35V26.16c.02.17.16.29.32.3h2.23c.17 0 .3-.13.33-.3v-7.19H40.52c.15-.03.29-.16.3-.33v-1.71z" clip-rule="evenodd"/></svg>