<svg width="80" height="50" viewBox="0 0 80 50" fill="none" xmlns="http://www.w3.org/2000/svg">
<rect width="80" height="50" fill="black"/>
<path fill-rule="evenodd" clip-rule="evenodd" d="M44.932 13L39.9528 21.3787L34.9773 13H30L39.9528 29.7552L49.9091 13H44.932Z" fill="#FFCB24"/>
<path fill-rule="evenodd" clip-rule="evenodd" d="M42.245 36.6171C41.2196 36.6171 40.387 35.8024 40.387 34.8045C40.387 33.8018 41.2196 32.9887 42.245 32.9887C43.2676 32.9887 44.0996 33.8018 44.0996 34.8045C44.0996 35.8024 43.2676 36.6171 42.245 36.6171ZM42.245 32.6965C41.0482 32.6965 40.0751 33.6405 40.0751 34.8045C40.0751 35.9632 41.0482 36.9094 42.245 36.9094C43.4371 36.9094 44.4134 35.9632 44.4134 34.8045C44.4134 33.6405 43.4371 32.6965 42.245 32.6965Z" fill="white"/>
<path fill-rule="evenodd" clip-rule="evenodd" d="M37.3659 32.7815V36.8238H39.7477V36.5316H37.6778V34.9149H39.4463V34.6216H37.6778V33.0742H39.7477V32.7815H37.3659Z" fill="white"/>
<path fill-rule="evenodd" clip-rule="evenodd" d="M36.613 32.7815L34.5397 36.2778L32.4647 32.7815H32.1157L34.5397 36.8621L36.9642 32.7815H36.613Z" fill="white"/>
<path fill-rule="evenodd" clip-rule="evenodd" d="M47.4834 32.7815V36.3617L45.3576 32.7815H44.9623V36.8238H45.2742V33.2432L47.4 36.8238H47.7953V32.7815H47.4834Z" fill="white"/>
</svg>
