<svg width="80" height="50" viewBox="0 0 80 50" fill="none" xmlns="http://www.w3.org/2000/svg">
<rect width="80" height="50" fill="black"/>
<path d="M64.8323 19L61.9416 25.3123L60.8545 22.9205H59.6789L61.4665 26.8329H62.4167L65.9999 19H64.8323Z" fill="#D52B1E"/>
<path d="M52.4319 30.7207H54.759V26.3727C54.759 25.3782 55.3227 24.6796 56.1601 24.6796C56.9653 24.6796 57.3841 25.2549 57.3841 26.085V30.7207H59.7112V25.633C59.7112 23.907 58.6966 22.6905 57.0539 22.6905C56.0071 22.6905 55.2744 23.1508 54.7268 23.9892H54.6785V22.9207H52.4239L52.4319 30.7207ZM47.8582 22.707C45.4264 22.707 43.7999 24.4905 43.7999 26.8412C43.7999 29.1755 45.4264 30.9755 47.8582 30.9755C50.29 30.9755 51.9166 29.1755 51.9166 26.8412C51.9246 24.4905 50.29 22.707 47.8582 22.707ZM47.8421 29.2166C46.739 29.2166 46.1512 28.2713 46.1512 26.8412C46.1512 25.3946 46.7309 24.4659 47.8421 24.4659C48.9453 24.4659 49.5573 25.3946 49.5573 26.8412C49.5653 28.2713 48.9533 29.2166 47.8421 29.2166ZM37.1648 30.7207H43.7033V28.8467H39.9992V28.7974L43.5422 24.7453V22.9124H37.1648V24.7946H40.7481V24.8439L37.1648 28.9289V30.7207ZM34.1774 30.7207H36.5206V22.9207H34.1774V30.7207ZM28.7422 30.7207H31.0773V27.1371C31.0773 25.5097 32.0355 24.7864 33.493 24.9919H33.5413V22.9371C33.4205 22.8878 33.2836 22.8796 33.0662 22.8796C32.1563 22.8796 31.5443 23.307 31.0209 24.2193H30.9726V22.9207H28.7422V30.7207ZM24.4584 29.2248C23.4277 29.2248 22.7996 28.5426 22.6788 27.4905H28.1866C28.2027 25.8138 27.7678 24.4741 26.8579 23.6357C26.2137 23.0275 25.3683 22.6905 24.2893 22.6905C21.9863 22.6905 20.392 24.4741 20.392 26.8083C20.392 29.159 21.9138 30.9508 24.4422 30.9508C25.4005 30.9508 26.1574 30.6878 26.7855 30.2522C27.4538 29.7837 27.9369 29.0933 28.0658 28.4111H25.8272C25.6098 28.9207 25.1428 29.2248 24.4584 29.2248ZM24.3376 24.3919C25.1589 24.3919 25.7226 25.0166 25.8192 25.9289H22.6949C22.8801 25.0083 23.3713 24.3919 24.3376 24.3919ZM15.7378 30.7207H18.1856L20.8429 22.9207H18.4997L17.01 27.9344H16.9778L15.4881 22.9207H13.0805L15.7378 30.7207ZM34.1774 20.1426H36.5206V22.2631H34.1774V20.1426Z" fill="white"/>
</svg>
