<svg xmlns="http://www.w3.org/2000/svg" width="80" height="50" fill="none" viewBox="0 0 80 50"><defs/><path fill="#000" d="M0 0h80v50H0z"/><path fill="#0069C0" d="M37.5 31.7h-3.65l2.28-14.1h3.65L37.5 31.7zM50.71 17.95a8.98 8.98 0 00-3.26-.6c-3.6 0-6.14 1.92-6.16 4.67-.03 2.02 1.82 3.15 3.2 3.82 1.41.7 1.89 1.14 1.89 1.76-.02.94-1.14 1.38-2.19 1.38a7.25 7.25 0 01-3.42-.75l-.48-.23-.51 3.17c.85.39 2.43.73 4.07.75 3.82 0 6.31-1.9 6.34-4.82.01-1.6-.96-2.83-3.06-3.84-1.28-.64-2.06-1.08-2.06-1.74.02-.6.66-1.21 2.1-1.21a6.2 6.2 0 012.72.54l.33.15.5-3.05zM55.56 26.71l1.45-3.94.48-1.35.26 1.21.84 4.08h-3.03zm4.5-9.1h-2.82c-.87 0-1.53.25-1.9 1.17L49.91 31.7h3.82l.77-2.12h4.68l.43 2.12H63l-2.94-14.1zM30.81 17.6l-3.57 9.62-.39-1.95a10.79 10.79 0 00-5.04-5.9l3.27 12.32h3.85l5.73-14.08h-3.85z"/><path fill="#FAA61A" d="M23.93 17.6h-5.87l-.06.3c4.57 1.16 7.6 3.98 8.85 7.37l-1.28-6.48c-.2-.9-.85-1.15-1.64-1.18z"/></svg>