<svg xmlns="http://www.w3.org/2000/svg" width="80" height="50" fill="none" viewBox="0 0 80 50"><defs/><path fill="#000" d="M0 0h80v50H0z"/><path fill="#1B58A9" d="M36.05 18.02h-7.26c-.23 0-.43.22-.43.47v4.6c0 .56.43 1.06.98 1.06.52 0 .98-.46.98-1.07v-3.17h1.15v3.17c0 .57.42 1.07.98 1.07.55 0 .98-.46.98-1.07v-3.17h1.14v3.17c0 .57.43 1.07.99 1.07.52 0 .98-.46.98-1.07v-4.56c-.07-.25-.26-.5-.5-.5zm-21.3 3.14c-.13-.1-.26-.18-.42-.25.42-.21.68-.71.68-1.21 0-.25 0-1.6-1.73-1.6H10.7c-.1-.08-.17.07-.17.1v5.77c0 .11.07.18.17.18h2.74c1.77 0 1.9-1.46 1.9-1.74 0-.47-.2-.97-.59-1.25zm-2.52-1.71h.6c.12 0 .25.03.39.07.13.07.22.25.2.4 0 .28-.17.45-.63.45h-.56v-.92zm.66 3.35h-.66v-1h.66c.49 0 .72.21.72.5 0 .32-.23.5-.72.5zm54.62-5.24c.7.04 1.35-.29 1.74-.9.06-.06.03-.17-.03-.24l-.82-.46c-.07-.04-.17 0-.2.07a.75.75 0 01-1.3 0c-.04-.07-.14-.1-.2-.07l-.82.46c-.07.07-.1.18-.03.25.36.6.98.96 1.66.89zm-42.29 1.96c.43 0 .82.21 1.11.6.07.08.17.08.23 0l.79-1.06a.18.18 0 000-.25 2.96 2.96 0 00-2.1-.82c-1.63 0-2.84 1.24-2.84 3.17 0 1.28.68 3.17 2.84 3.17.79.03 1.54-.29 2.1-.86a.18.18 0 000-.25l-.79-1.06a.15.15 0 00-.23 0c-.3.35-.68.57-1.11.57-.59 0-1.14-.5-1.14-1.6 0-.9.39-1.61 1.14-1.61zm-6.38-1.6c-1.63 0-2.84 1.24-2.84 3.17 0 1.28.68 3.17 2.84 3.17 2.16 0 2.85-1.89 2.85-3.17 0-1.9-1.21-3.17-2.85-3.17zm0 4.88c-.59 0-1.14-.54-1.14-1.64 0-.93.42-1.64 1.14-1.64s1.15.71 1.15 1.64c.03 1.1-.56 1.64-1.15 1.64zm36.24-4.78h-1.37c-.1 0-.16.07-.16.18v2.14H51.9V18.2c0-.1-.06-.18-.16-.18h-1.38c-.1 0-.16.07-.16.18v5.77c0 .11.07.18.16.18h1.38c.1 0 .16-.07.16-.18v-2.24h1.64v2.24c0 .11.06.18.16.18h1.37c.1 0 .17-.07.17-.18V18.2c0-.03-.07-.18-.17-.18zm14.76 0H68.4c-.07 0-.1.04-.13.11l-1.54 3.17v-3.1c0-.1-.07-.18-.16-.18h-1.38c-.1 0-.16.07-.16.18v5.77c0 .11.06.18.16.18h1.44c.07 0 .1-.03.13-.1l1.54-3.18v3.1c0 .11.06.18.16.18h1.38c.1 0 .16-.07.16-.18V18.2c0-.03-.07-.18-.16-.18.03 0 .03 0 0 0zm-29.5-.1c-1.64 0-2.85 1.24-2.85 3.17 0 1.28.68 3.17 2.84 3.17 2.16 0 2.85-1.89 2.85-3.17 0-1.9-1.21-3.17-2.85-3.17zm0 4.88c-.6 0-1.15-.54-1.15-1.64 0-.93.42-1.64 1.14-1.64s1.15.71 1.15 1.64c0 1.1-.6 1.64-1.15 1.64zm23.22-4.78h-1.38c-.1 0-.16.07-.16.18v5.77c0 .11.06.18.16.18h1.38c.1 0 .16-.07.16-.18V18.2c0-.03-.07-.18-.16-.18zm-4.52 2.28h-.78v-2.06c0-.11-.07-.18-.17-.18h-1.37c-.1 0-.16.07-.16.18V24c0 .1.06.18.16.18h2.35c1.44 0 2.23-.68 2.23-1.96 0-1.29-.79-1.93-2.26-1.93zm-.13 2.5h-.65v-1.1h.65c.13 0 .3.03.43.06a.4.4 0 01.23.43c0 .54-.4.6-.66.6zm-10.17-4.78h-1.38c-.1 0-.16.07-.16.18v2.5c-1.3.2-1.57-.29-1.57-.75v-1.78c0-.11-.06-.18-.16-.18h-1.38c-.06 0-.13.07-.16.14v1.21c0 .64 0 1.36.07 1.64.13.82.81 1.14 1.5 1.21.59.07 1.15.04 1.7-.14v1.89c0 .1.07.18.16.18h1.38c.1 0 .16-.08.16-.18V18.2c0-.03-.06-.18-.16-.18zM45.3 28.13h-1.38c-.1 0-.16.07-.16.18v2.13h-1.64v-2.13c0-.11-.07-.18-.16-.18h-1.38c-.1 0-.16.07-.16.18v5.77c0 .1.06.18.16.18h1.38c.1 0 .16-.08.16-.18v-2.25h1.64v2.25c0 .1.06.18.16.18h1.37c.1 0 .17-.08.17-.18V28.3c0-.04-.07-.18-.17-.18z"/><path fill="#1B58A9" fill-rule="evenodd" d="M31.62 30.48h-1.21v-.93h2.55c.1 0 .16-.07.16-.18v-1.03c0-.1-.06-.18-.16-.18h-4.09c-.1 0-.16.07-.16.18v5.77c0 .11.06.18.16.18h2.75c1.77 0 1.9-1.42 1.9-1.92 0-.47-.13-1.9-1.9-1.9zm-.56 2.42h-.65v-1.03h.65c.5 0 .72.18.72.53 0 .32-.23.5-.72.5z" clip-rule="evenodd"/><path fill="#1B58A9" d="M51.64 28.45l-1.7 2.78 1.7 2.78c.03.03.03.07.03.1 0 .11-.06.18-.16.18h-1.47c-.07 0-.1-.03-.14-.07l-1.43-2.6v2.5c0 .1-.07.17-.17.17h-1.37c-.1 0-.17-.07-.17-.18v-5.77c0-.1.07-.18.17-.18h1.37c.1 0 .17.07.17.18v2.5l1.43-2.6c.04-.04.07-.08.14-.08h1.47c.03 0 .06 0 .1.04.06.07.1.18.03.25z"/><path fill="#1B58A9" fill-rule="evenodd" d="M37.64 28.27a.18.18 0 00-.16-.1H36a.18.18 0 00-.16.1l-2 5.77v.07c0 .11.07.18.17.18h1.47c.07 0 .13-.03.16-.1l.27-.9h1.76l.26.9c.04.07.1.1.17.1h1.47c.1 0 .16-.07.16-.18v-.07l-2.1-5.77zm-1.38 3.6l.5-1.85.52 1.85h-1.02z" clip-rule="evenodd"/><path fill="#EB3723" d="M25.5 16.84a.9.9 0 01.36-1.25l4.26-2.4a.55.55 0 01.47 0l4.27 2.4c.47.24.61.8.36 1.25a.95.95 0 01-1.3.35l-3.54-1.95-3.6 1.95c-.42.24-1 .07-1.28-.35z"/></svg>