<svg xmlns="http://www.w3.org/2000/svg" width="80" height="50" fill="none" viewBox="0 0 80 50"><defs/><path fill="#000" d="M0 0h80v50H0z"/><path fill="#006FBA" d="M24.89 23.95h3.4v3.18l1.88-3.18h3.78l-2.9 4.16 2.97 4.62h-3.93l-1.8-3.33v3.33h-3.4v-8.78zM24.04 32.47c-.55.3-1.28.53-2.27.53-2.8 0-4.77-1.86-4.77-4.66 0-3.18 2.53-4.65 4.7-4.65.7 0 1.64.19 2.34.68v3.06a2.4 2.4 0 00-1.87-.94c-1.28 0-1.87.87-1.87 1.93 0 1.13.8 1.78 1.87 1.78.77 0 1.43-.34 1.9-.8-.03 0-.03 3.07-.03 3.07zM12.41 27.24V26h.33c.59 0 .77.3.77.6s-.14.6-.77.6l-.33.04zM9 23.91v8.82h5.06c2.35 0 2.86-1.55 2.86-2.46a2.2 2.2 0 00-1.9-2.23V28c.7-.23 1.5-.83 1.5-1.85 0-.68-.26-2.24-2.71-2.24H9zm3.41 6.67v-1.33h.4c.34 0 .85.08.85.64 0 .6-.55.69-.84.69h-.4z"/><path fill="#52B9E9" d="M53.98 25.09l-1 .03-.07-.26-.95-.04v-.19h-1l.16.34.44.08-.04-.15.4.3.66.15h.44l1.14-.15-.18-.11zM51.48 24.22l-.47-.08s0-.15-.19-.26c-.18-.08-.14 0-.14 0l-.19-.12-.33-.04-.03-.22-.4-.04v-.11l-.34-.04-.14-.12.03-.15-.07-.11-.4-.19-.34-.11-.22-.27-.25-.23-.33-.34-.85-.3-.77-.57-.33-.15-.33-.15-.7-.38-1.06-.6-2.3-1.14-.67-.3c-.37-.15-.44-.27-.44-.3a1.22 1.22 0 01-.62-.3c-.19 0-.59-.23-.7-.35 0 0-.7-.19-.73-.26 0-.04-1.77-.68-1.99-.72a3 3 0 01-.66-.12 2.5 2.5 0 01-.44-.11c-.36-.04-.73-.11-1.1-.11-.25 0-.44 0-.66-.08-.07.04-.62-.04-.84.11-.22 0-.73.12-.88.2-.3 0-.8.33-1 .41l-.25.11c.55.2 1.18.42 1.18.46.03.04.73.23.73.26.18.15.59.38.77.38.18.2.3.23.62.3 0 .04.08.16.44.3l.66.31 2.32 1.14 1.06.6.7.38.33.15.33.15.25.2.52.18 1.13.38 1.4.53.51.19.52.15.25-.04.26.08.3.26.29-.11.22.04.14.22.11.12.26.07.26.04.29-.07.37.03.1.23.52.08.37.03.36.04.3.12.25.26.37.08.96.15.84-.12.55.04.3-.07z"/><path fill="#006FBA" d="M43.82 25.62h1.02v.19l.92.07.11.23.95-.04.22.15-1.13.15-.44-.03-.66-.16-.4-.26.03.11L44 26l-.18-.38zM43.93 25.2s0-.15-.19-.26c-.18-.08-.14 0-.14 0l-.19-.12-.3-.07v-.23l-.4-.04v-.11l-.33-.04-.14-.11.03-.16-.07-.1-.4-.2-.33-.11-.22-.27-.26-.22-.33-.34-.84-.3-.77-.57-.33-.16-.33-.15-.7-.38-1.07-.6-2.3-1.14-.67-.3c-.36-.15-.44-.27-.44-.3a1.22 1.22 0 01-.62-.3c-.18 0-.59-.23-.7-.35 0 0-.7-.19-.73-.26 0-.04-1.76-.68-1.98-.72a3 3 0 01-.66-.11 2.5 2.5 0 01-.44-.12c-.37-.04-.74-.11-1.1-.11-.26 0-.44 0-.66-.08-.08.04-.63-.03-.85.12-.22 0-.73.11-.88.19-.3 0-.8.34-.99.41l-.48.23c-.07.04-1.02.53-1.1.6 0 .04-.95.61-1.02.69-.04.03-.3.15-.37.22-.07.08-.33.3-.4.34-.04.08-.3.2-.33.27-.08.07-.37.23-.4.26 0 0-.2.16-.3.27-.04.07-.11.15-.15.23l-.4.22c0 .15 0 .42-.22.34 0 0-.3.2-.3.16.04 0-.14.26-.29.45-.07.11-.51.26-.59.38l-.55.68h.04c0 .04.15.04.18.07.04.08-.07.16-.07.27h.04c.1 0 .25-.15.36-.19l.26-.11c.15-.08.3-.2.48-.27 1.14-.64 2.3-1.25 3.45-1.89.55-.3.99-.57 1.61-.9.15-.08.7-.46 1.1-.5a3.5 3.5 0 011.32.19c.15.07.55.26.77.3.08.04.19.11.22.11.04.04.4.08.59.16l.22.11c.33.11 1.14.3 1.43.38.26.07.4.23.51.26.19.12.22.08.4.15.34.04.52.16.52.16.11.03.15.07.26.11.07 0 .25.15.3.15.06 0 .58.19.65.19.08 0 .44.15.52.19l.33.11 1.06.42 1.14.38 1.4.53.5.19.52.15.26-.04.25.08.3.26.29-.11.22.04.15.22.1.12.26.07.26.04.3-.08.36.04.11.23.51.07.37.04.37.04.3.11.25.27.36.07.96.16.84-.12.55.04.19-.15-.44.15zM36.88 32.4c-.15.07-.37.14-.66.14-.48 0-.77-.15-.99-.38-.33-.3-.44-.64-.44-1.05 0-.5.22-.88.44-1.06.26-.27.62-.38 1-.38.17 0 .43.03.65.15v.64c-.26-.3-.55-.3-.66-.3a.92.92 0 00-.92.95c0 .6.48.94.92.94.26 0 .48-.11.63-.3.03.04.03.64.03.64zM38.42 32.5h-.55v-2.27h-.62v-.45H39v.45h-.62l.03 2.28zM40.11 30.2h.18c.11 0 .26 0 .37.07.07.08.15.15.15.3 0 .12-.04.23-.15.3-.11.16-.22.16-.33.16h-.22v-.83zm-.55-.46v2.77h.55v-1.03h.33c.33 0 .55-.07.7-.22.22-.23.22-.5.22-.6a1 1 0 00-.3-.7c-.18-.18-.4-.22-.73-.22h-.77zM42.5 31.48l.4-.98.37.98h-.78zm1.17 1.03h.55l-1.14-2.8h-.4l-1.18 2.8h.6l.25-.57h1.1l.22.57zM45.43 31.07l-.8-1.29h.62l.47.83.52-.83h.62l-.84 1.29.91 1.44h-.62l-.59-1.03-.62 1.03h-.62l.95-1.44zM48.91 32.09c-.55 0-.91-.38-.91-.95 0-.56.36-.94.91-.94.56 0 .92.38.92.94 0 .53-.4.95-.92.95zm0-2.39c-.84 0-1.46.61-1.46 1.44 0 .84.58 1.44 1.46 1.44.85 0 1.47-.6 1.47-1.44 0-.83-.62-1.44-1.47-1.44zM51.6 30.2h.14c.22 0 .4.07.4.34 0 .34-.33.34-.4.34h-.15v-.68zm-.52-.46v2.77H52c.22 0 .47-.04.7-.23.18-.15.21-.38.21-.57a.84.84 0 00-.18-.53.68.68 0 00-.37-.19c.08-.04.3-.19.3-.53a.75.75 0 00-.26-.57c-.22-.19-.51-.19-.66-.19l-.66.04zm.51 1.55h.19c.1 0 .25 0 .36.04.19.08.19.23.19.3 0 .12-.04.23-.19.3-.1.08-.25.08-.36.08h-.22v-.72h.03zM54.93 32.09c-.55 0-.92-.38-.92-.95 0-.56.37-.94.92-.94.52 0 .92.38.92.94 0 .53-.37.95-.92.95zm0-2.39c-.84 0-1.47.61-1.47 1.44 0 .84.6 1.44 1.47 1.44.85 0 1.47-.6 1.47-1.44 0-.83-.62-1.44-1.47-1.44zM57.6 29.74v1.86l1.51-1.9h.37v2.8h-.55v-1.85l-1.5 1.9h-.37v-2.8h.55zm.34-.87c.07.23.33.23.37.23.03 0 .29 0 .36-.23l.37.15c-.11.27-.37.46-.73.46-.37 0-.63-.2-.74-.46l.37-.15zM62.27 30.2h.8V32h-1.1c.08-.07.15-.19.23-.34.03-.11.1-.34.1-.75v-.72h-.03zm-.52-.46v1.21c0 .38-.03.57-.1.72-.08.2-.23.38-.45.38v1.1h.48v-.6h1.69v.6h.48v-1.1h-.3v-2.27h-1.8v-.04zM65.75 32.09c-.55 0-.91-.38-.91-.95 0-.56.36-.94.91-.94s.92.38.92.94c0 .53-.37.95-.92.95zm0-2.39c-.84 0-1.46.61-1.46 1.44 0 .84.58 1.44 1.46 1.44.85 0 1.47-.6 1.47-1.44 0-.83-.59-1.44-1.47-1.44zM67.77 32.5l.52-2.8h.36l.74 1.78.77-1.78h.36l.48 2.8h-.55l-.26-1.7-.73 1.74h-.15l-.73-1.74-.3 1.7h-.5z"/></svg>