<svg xmlns="http://www.w3.org/2000/svg" width="80" height="50" fill="none" viewBox="0 0 80 50"><defs/><path fill="#000" d="M0 0h80v50H0z"/><path fill="#F78F1E" fill-rule="evenodd" d="M11.24 20.63H8.41l3.26 4.56-3.26 4.57h2.83l3.26-4.57-3.26-4.57z" clip-rule="evenodd"/><path fill="#fff" d="M14.84 22.67h1.36l1.04 1.7 1.08-1.7h1.28l-1.7 2.54L19.75 28h-1.4l-1.15-1.85L16 28H14.7l1.86-2.8-1.72-2.53zM21.28 23.55l-.21 1.19.01.01a1.33 1.33 0 011.03-.4 1.52 1.52 0 011.5 1.08c.07.22.1.45.1.69 0 .27-.04.52-.15.75a1.91 1.91 0 01-1.04.99c-.23.09-.48.13-.74.13s-.5-.04-.73-.1a1.84 1.84 0 01-.61-.31 1.56 1.56 0 01-.6-1.24h1.06a.83.83 0 00.86.78c.13 0 .26-.02.37-.08a.9.9 0 00.46-.54 1.18 1.18 0 000-.75.89.89 0 00-.17-.32.8.8 0 00-.29-.2.9.9 0 00-.38-.08.92.92 0 00-.46.1c-.12.07-.23.17-.33.32H20l.52-2.9h2.92v.88h-2.16M27.13 22.67c.21 0 .42.02.62.08.2.05.36.14.51.25.15.11.26.26.35.43.09.18.13.39.13.63 0 .34-.08.63-.26.88-.17.25-.43.4-.77.47v.02c.17.03.31.07.43.14.11.07.2.15.28.25.07.11.12.23.16.37.03.13.05.28.06.44a21.46 21.46 0 01.05.72c0 .13.03.26.07.37.03.12.07.21.13.28h-.57a.69.69 0 01-.07-.19 7.32 7.32 0 01-.07-.65 8.07 8.07 0 00-.05-.55 1.55 1.55 0 00-.14-.5.87.87 0 00-.31-.36.93.93 0 00-.56-.12H25.2V28h-.51v-5.33h2.44zm-.04 2.53c.15 0 .3-.03.44-.07a1.02 1.02 0 00.62-.53 1 1 0 00.08-.44c0-.33-.1-.58-.28-.77-.19-.2-.47-.29-.86-.29h-1.9v2.1h1.9zM33.19 22.67v.43h-3.17v1.92h2.97v.44h-2.97v2.1h3.2V28h-3.71v-5.33h3.68zM37.72 22.67v.43h-1.85V28h-.51v-4.9H33.5v-.43h4.21zM39.6 22.67L41.7 28h-.54l-.65-1.66h-2.43L37.43 28h-.54l2.14-5.33h.57zm.73 3.23l-1.03-2.73-1.07 2.73h2.1zM42.72 22.67h-.51V28h.5v-5.33zM44.34 22.67v4.89h2.98V28h-3.5v-5.33h.52zM50.33 28.2c-.42 0-.8-.08-1.12-.23-.32-.15-.6-.36-.81-.62a2.65 2.65 0 01-.49-.91 3.64 3.64 0 01.01-2.22c.12-.35.3-.66.51-.92a2.36 2.36 0 011.9-.84c.3 0 .6.05.85.13a2.04 2.04 0 011.18.96c.13.23.22.49.26.77l.02.1h-.32l-.01-.07a1.98 1.98 0 00-.24-.65 1.76 1.76 0 00-1-.8 2.3 2.3 0 00-.74-.12 2.1 2.1 0 00-1.67.74c-.19.24-.34.5-.44.82a3.35 3.35 0 000 2c.09.3.23.58.43.8.18.23.42.41.7.55a2.33 2.33 0 002.44-.36 1.87 1.87 0 00.6-1.4v-.19h-2.07V25.42h2.38v2.66h-.32v-1.02a2 2 0 01-.65.74c-.4.27-.86.4-1.4.4zM53.22 28.08h-.08v-5.5h2.27c.57 0 1 .12 1.28.36s.42.61.44 1.1v.05a1.35 1.35 0 01-.92 1.31l.27.1c.15.1.27.2.35.34.08.14.14.3.16.47.03.18.04.37.04.6v.27a8.5 8.5 0 00.07.62.4.4 0 00.04.15l.1.13h-.39l-.02-.05a.91.91 0 01-.07-.24l-.03-.3-.02-.32v-.3c0-.2-.02-.4-.05-.56a.85.85 0 00-.18-.4.87.87 0 00-.38-.24 2.32 2.32 0 00-.72-.09h-1.92v2.5h-.24zm2.15-2.82c.2 0 .37-.02.55-.07.17-.05.32-.12.45-.22a1.12 1.12 0 00.43-.95c0-.36-.11-.62-.32-.82-.2-.19-.54-.3-1.03-.3h-1.99v2.36h1.91zM58.83 27.97a2.3 2.3 0 01-.8-.62 2.78 2.78 0 01-.48-.92 3.63 3.63 0 010-2.2c.1-.35.27-.65.48-.92a2.45 2.45 0 011.89-.86c.41 0 .78.08 1.1.24.3.15.58.36.8.62.2.27.37.57.48.92a3.64 3.64 0 010 2.2c-.11.35-.28.65-.49.92a2.3 2.3 0 01-.8.62c-.32.15-.68.23-1.09.23-.4 0-.77-.08-1.09-.23zm-.52-.8a2 2 0 001.61.72 2.01 2.01 0 001.61-.71c.2-.23.34-.5.44-.81a3.42 3.42 0 000-2.07c-.1-.3-.25-.58-.43-.8a2.02 2.02 0 00-1.62-.72c-.35 0-.65.07-.92.2a2 2 0 00-.7.52c-.18.22-.33.5-.43.8a3.45 3.45 0 000 2.07c.1.31.25.58.44.8zM66.91 22.58H67v3.43c0 .73-.17 1.28-.53 1.65-.35.36-.86.54-1.5.54h-.01c-.65 0-1.17-.18-1.52-.54-.35-.37-.52-.92-.52-1.65v-3.43h.32v3.43c0 .63.14 1.1.42 1.4.27.31.7.47 1.3.47.6 0 1.02-.16 1.3-.47.27-.3.42-.77.42-1.4v-3.43H66.9zM67.56 28.08h-.08v-5.5h2.24c.53 0 .95.13 1.25.4.3.26.46.65.46 1.15 0 .24-.05.46-.13.66-.1.19-.22.35-.38.48s-.35.23-.56.3c-.22.06-.46.09-.71.09H67.8v2.42h-.24zm2.16-2.74c.2 0 .39-.03.56-.08.17-.06.31-.14.44-.24a1.11 1.11 0 00.39-.9c0-.4-.12-.7-.34-.9-.22-.2-.56-.31-1.05-.31H67.8v2.43h1.92z"/></svg>