<svg xmlns="http://www.w3.org/2000/svg" width="80" height="50" fill="none" viewBox="0 0 80 50"><defs/><path fill="#000" d="M0 0h80v50H0z"/><path fill="#fff" stroke="#fff" stroke-width=".15" d="M48.3 25.86a5.3 5.3 0 00-2.78-1.12c2.01-.43 3.38-1.78 3.38-3.42 0-1.14-.53-2.11-1.42-2.8a5.97 5.97 0 00-3.64-1.07h-6.18v.26h1.78v11.06l-4.17-11.78h0v-.02l-.02-.04H35.04l-.02.05-1.13 3.18-4.34 12.26-.2.02h0a4 4 0 01-.32.01h-4.27l8.3-14.78h0l.06-.11.07-.11H22.76V22.2H23v-.08c.01-1.1.33-2.21 1-3.04a3.7 3.7 0 013.03-1.38h3.26l-8.37 14.9-.06.1h11.56V28.15h-.26v.07c-.02 1.92-1.06 3.72-3.33 4.15l1.73-4.87h4.9l1.75 4.95h-1.75v.26H43.6v-.26h-1.78V24.9h1.98c1.04 0 1.84.24 2.39.68.54.43.83 1.07.83 1.9v1.36l.02.55-1.08 3.06h-1.47v.26H47.63v-.26H46.23l.87-2.44.02.15h0c.17 1.06.57 1.85 1.19 2.34h0l.09.07h0c.47.34 1.05.5 1.73.5.9 0 1.5-.23 2-.78l.06-.05-.05-.05-.07-.06-.05-.05-.05.05c-.44.41-.8.57-1.24.57-.36 0-.65-.22-.84-.58-.2-.36-.3-.84-.3-1.32v-1.92c0-.47-.07-.93-.21-1.38h3.5l1.75 4.95H52.9v.26h6.19v-.26H57.16L51.69 17h0v-.02l-.02-.04H51.46l-.02.05-1.13 3.18-2.02 5.7zm2.14-5.28l2.35 6.66h-3.5c-.17-.41-.41-.78-.71-1.1h0l-.08-.09 1.94-5.47zm-18.78 6.66l2.36-6.66 2.35 6.66h-4.7zm10.15-2.6v-6.93h1.5c1.04 0 1.81.32 2.34.92.52.6.8 1.51.8 2.72 0 1.29-.16 2.1-.57 2.6-.4.5-1.05.7-2.08.7H41.8z"/></svg>