<svg width="44" height="44" viewBox="0 0 44 44" fill="none" xmlns="http://www.w3.org/2000/svg">
<path fill-rule="evenodd" clip-rule="evenodd" d="M21.2432 14H27.4081C27.6332 14 28.137 14 28.6897 14.0353C29.2176 14.0691 29.8997 14.1405 30.4324 14.3216C31.1294 14.5586 31.8355 14.9694 32.3722 15.6198C32.9203 16.2841 33.2444 17.1428 33.2444 18.1729C33.2444 19.6408 32.5926 20.606 31.8568 21.2277C32.92 21.8785 33.8511 23.0112 33.8511 24.8132C33.8511 26.4949 32.8101 27.706 31.8499 28.3017C31.2882 28.6502 30.5642 28.8255 29.8526 28.9247C29.1172 29.0272 28.2768 29.063 27.4049 29.063H10.8625V14H12.9709V26.9547H21.2432V14ZM23.3515 22.5104V26.9547H27.4049C28.2309 26.9547 28.963 26.92 29.5616 26.8365C30.184 26.7498 30.5556 26.6236 30.7384 26.5102C31.2671 26.1822 31.7427 25.5684 31.7427 24.8132C31.7427 23.5343 30.8441 22.888 29.855 22.6587C29.2626 22.5214 28.1701 22.5104 27.4049 22.5104H23.3515ZM23.3515 20.3924V16.1083H27.4049C27.6249 16.1083 28.0725 16.1085 28.5552 16.1394C29.0653 16.172 29.5056 16.2333 29.7537 16.3177C30.1697 16.4591 30.5122 16.6783 30.7459 16.9616C30.9682 17.231 31.1362 17.6097 31.1362 18.1729C31.1362 19.2866 30.4034 19.8016 29.6976 20.0872C29.418 20.2003 28.9516 20.2854 28.4436 20.336C27.9599 20.3842 27.5369 20.3924 27.4049 20.3924H23.3515Z" fill="black"/>
</svg>
