<svg width="48" height="48" viewBox="0 0 48 48" fill="none" xmlns="http://www.w3.org/2000/svg">
<path fill-rule="evenodd" clip-rule="evenodd" d="M23.1744 15.85H29.8997C30.1453 15.85 30.6948 15.85 31.2978 15.8885C31.8737 15.9254 32.6179 16.0032 33.1989 16.2008C33.9593 16.4593 34.7296 16.9075 35.3151 17.6171C35.913 18.3418 36.2666 19.2785 36.2666 20.4023C36.2666 22.0036 35.5554 23.0565 34.7528 23.7348C35.9126 24.4447 36.9283 25.6804 36.9283 27.6463C36.9283 29.4808 35.7928 30.802 34.7452 31.4519C34.1326 31.832 33.3427 32.0232 32.5664 32.1315C31.7642 32.2433 30.8473 32.2824 29.8961 32.2824H11.85V15.85H14.15V29.9824H23.1744V15.85ZM25.4744 25.134V29.9824H29.8961C30.7973 29.9824 31.5958 29.9445 32.2489 29.8535C32.9279 29.7588 33.3333 29.6212 33.5327 29.4975C34.1095 29.1397 34.6283 28.47 34.6283 27.6463C34.6283 26.2511 33.6481 25.546 32.5691 25.2959C31.9228 25.1461 30.7309 25.134 29.8961 25.134H25.4744ZM25.4744 22.8236V18.15H29.8961C30.1361 18.15 30.6245 18.1502 31.151 18.1839C31.7075 18.2194 32.1879 18.2863 32.4585 18.3784C32.9124 18.5327 33.286 18.7718 33.5409 19.0808C33.7834 19.3747 33.9666 19.7878 33.9666 20.4023C33.9666 21.6172 33.1673 22.179 32.3974 22.4905C32.0923 22.614 31.5834 22.7068 31.0292 22.762C30.5015 22.8146 30.0402 22.8236 29.8961 22.8236H25.4744Z" fill="white"/>
</svg>
