<svg width="212" height="44" viewBox="0 0 212 44" fill="none" xmlns="http://www.w3.org/2000/svg">
<path fill-rule="evenodd" clip-rule="evenodd" d="M67.1425 28.3309H75.2413C78.324 28.3309 80.2225 27.0421 80.2225 24.656C80.2225 23.0014 79.16 21.9216 78.2718 21.5384C78.951 21.103 79.7348 20.5108 79.7348 18.9085C79.7348 16.505 77.7493 15.669 74.771 15.669H67.1425V28.3309ZM69.6157 26.2757V22.7227H74.9975C76.6695 22.7227 77.7493 23.1407 77.7493 24.4644C77.7493 25.9622 76.565 26.2757 74.9975 26.2757H69.6157ZM69.6157 20.6676V17.7241H74.9278C76.5475 17.7241 77.2616 18.1247 77.2616 19.2046C77.2616 20.267 76.5475 20.6676 74.9278 20.6676H69.6157Z" fill="black"/>
<path fill-rule="evenodd" clip-rule="evenodd" d="M81.2617 28.3309H83.8917L85.2327 25.4223H92.5303L93.854 28.3309H96.4665L90.3184 15.669H87.4969L81.2617 28.3309ZM86.2603 23.2975L88.9077 17.6545L91.555 23.2975H86.2603Z" fill="black"/>
<path d="M98.098 28.3309H100.571V24.3947L103.271 22.148L108.478 28.3309H111.718L105.065 20.685L111.108 15.669H107.59L100.571 21.5732V15.669H98.098V28.3309Z" fill="black"/>
<path fill-rule="evenodd" clip-rule="evenodd" d="M112.217 28.3309H114.847L116.188 25.4223H123.486L124.809 28.3309H127.422L121.274 15.669H118.452L112.217 28.3309ZM117.216 23.2975L119.863 17.6545L122.51 23.2975H117.216Z" fill="black"/>
<path fill-rule="evenodd" clip-rule="evenodd" d="M129.053 28.3309H135.254C139.434 28.3309 142.36 26.2409 142.36 21.9216C142.36 17.3584 139.155 15.669 135.149 15.669H129.053V28.3309ZM131.527 26.2061V17.7938H134.035C138.18 17.7938 139.887 18.8562 139.887 21.9564C139.887 24.9172 138.249 26.2061 134.035 26.2061H131.527Z" fill="black"/>
<path fill-rule="evenodd" clip-rule="evenodd" d="M143.712 22.0957C143.712 24.7256 145.263 28.6444 151.254 28.6444C157.245 28.6444 158.795 24.7256 158.795 22.0957C158.795 18.6298 156.827 15.3555 151.254 15.3555C145.681 15.3555 143.712 18.6298 143.712 22.0957ZM151.254 26.5196C148.885 26.5196 146.186 25.5442 146.186 21.9564C146.186 18.9085 148.363 17.4803 151.254 17.4803C154.145 17.4803 156.322 18.9085 156.322 21.9564C156.322 25.5442 153.623 26.5196 151.254 26.5196Z" fill="black"/>
<path fill-rule="evenodd" clip-rule="evenodd" d="M160.978 28.3309H163.451V23.3497H167.37L171.045 28.3309H174.093L170.209 23.1756C172.073 23.0711 173.745 21.7822 173.745 19.4484C173.745 16.3482 171.585 15.669 168.589 15.669H160.978V28.3309ZM163.451 21.2946V17.7241H168.224C170.244 17.7241 171.271 18.0202 171.271 19.5006C171.271 20.9985 170.244 21.2946 168.224 21.2946H163.451Z" fill="black"/>
<path fill-rule="evenodd" clip-rule="evenodd" d="M175.637 22.0957C175.637 24.7256 177.187 28.6444 183.179 28.6444C189.17 28.6444 190.72 24.7256 190.72 22.0957C190.72 18.6298 188.752 15.3555 183.179 15.3555C177.605 15.3555 175.637 18.6298 175.637 22.0957ZM183.179 26.5196C180.81 26.5196 178.111 25.5442 178.111 21.9564C178.111 18.9085 180.288 17.4803 183.179 17.4803C186.07 17.4803 188.247 18.9085 188.247 21.9564C188.247 25.5442 185.547 26.5196 183.179 26.5196Z" fill="black"/>
<path fill-rule="evenodd" clip-rule="evenodd" d="M209.733 27.5912H210.176L209.611 26.6704C209.901 26.6399 210.14 26.4822 210.14 26.1006C210.14 25.658 209.861 25.485 209.347 25.485H208.543V27.5912H208.935V26.6856H209.204L209.733 27.5912ZM208.935 26.3855V25.7852H209.306C209.515 25.7852 209.749 25.8259 209.749 26.0701C209.749 26.355 209.55 26.3855 209.301 26.3855H208.935Z" fill="black"/>
<path fill-rule="evenodd" clip-rule="evenodd" d="M207.337 26.5025C207.337 27.5759 208.207 28.4458 209.281 28.4458C210.354 28.4458 211.224 27.5759 211.224 26.5025C211.224 25.4342 210.354 24.5643 209.281 24.5643C208.207 24.5643 207.337 25.4342 207.337 26.5025ZM207.79 26.5025C207.79 25.6631 208.472 24.9865 209.281 24.9865C210.09 24.9865 210.771 25.6631 210.771 26.5025C210.771 27.3419 210.09 28.0236 209.281 28.0236C208.472 28.0236 207.79 27.3419 207.79 26.5025Z" fill="black"/>
<path d="M207.261 15.6809L199.423 28.3309H198.785L190.929 15.6809H193.669L199.1 24.3993L204.527 15.6809H207.261Z" fill="black"/>
<path d="M0.775879 28.3309H12.4276V26.1364H3.24905V15.669H0.775879V28.3309Z" fill="black"/>
<path d="M14.3315 28.3309H25.8962V26.2061H16.8047V22.8621H24.4506V20.7372H16.8047V17.7938H25.6872V15.669H14.3315V28.3309Z" fill="black"/>
<path fill-rule="evenodd" clip-rule="evenodd" d="M27.0688 22.0957C27.0688 24.7256 28.6189 28.6444 34.6102 28.6444C40.6015 28.6444 42.1516 24.7256 42.1516 22.0957C42.1516 18.6298 40.1835 15.3555 34.6102 15.3555C29.0369 15.3555 27.0688 18.6298 27.0688 22.0957ZM34.6102 26.5196C32.2415 26.5196 29.542 25.5442 29.542 21.9564C29.542 18.9085 31.719 17.4803 34.6102 17.4803C37.5014 17.4803 39.6785 18.9085 39.6785 21.9564C39.6785 25.5442 36.9789 26.5196 34.6102 26.5196Z" fill="black"/>
<path d="M44.3346 28.3309H46.7032V18.8562L55.5161 28.3309H57.7802V15.669H55.4116V24.8127L46.9471 15.669H44.3346V28.3309Z" fill="black"/>
</svg>
