<svg width="232" height="48" viewBox="0 0 232 48" fill="none" xmlns="http://www.w3.org/2000/svg">
<path fill-rule="evenodd" clip-rule="evenodd" d="M73.4 30.855H82.235C85.598 30.855 87.669 29.449 87.669 26.846C87.669 25.041 86.51 23.863 85.541 23.445C86.282 22.97 87.137 22.324 87.137 20.576C87.137 17.954 84.971 17.042 81.722 17.042H73.4V30.855ZM76.098 28.613V24.737H81.969C83.793 24.737 84.971 25.193 84.971 26.637C84.971 28.271 83.679 28.613 81.969 28.613H76.098ZM76.098 22.495V19.284H81.893C83.66 19.284 84.439 19.721 84.439 20.899C84.439 22.058 83.66 22.495 81.893 22.495H76.098Z" fill="white"/>
<path fill-rule="evenodd" clip-rule="evenodd" d="M88.8028 30.855H91.6718L93.1348 27.682H101.096L102.54 30.855H105.39L98.6828 17.042H95.6048L88.8028 30.855ZM94.2558 25.364L97.1438 19.208L100.032 25.364H94.2558Z" fill="white"/>
<path d="M107.17 30.855H109.868V26.561L112.813 24.11L118.494 30.855H122.028L114.77 22.514L121.363 17.042H117.525L109.868 23.483V17.042H107.17V30.855Z" fill="white"/>
<path fill-rule="evenodd" clip-rule="evenodd" d="M122.572 30.855H125.441L126.904 27.682H134.865L136.309 30.855H139.159L132.452 17.042H129.374L122.572 30.855ZM128.025 25.364L130.913 19.208L133.801 25.364H128.025Z" fill="white"/>
<path fill-rule="evenodd" clip-rule="evenodd" d="M140.939 30.855H147.703C152.263 30.855 155.455 28.575 155.455 23.863C155.455 18.885 151.959 17.042 147.589 17.042H140.939V30.855ZM143.637 28.537V19.36H146.373C150.895 19.36 152.757 20.519 152.757 23.901C152.757 27.131 150.971 28.537 146.373 28.537H143.637Z" fill="white"/>
<path fill-rule="evenodd" clip-rule="evenodd" d="M156.931 24.053C156.931 26.922 158.622 31.197 165.158 31.197C171.694 31.197 173.385 26.922 173.385 24.053C173.385 20.272 171.238 16.7 165.158 16.7C159.078 16.7 156.931 20.272 156.931 24.053ZM165.158 28.879C162.574 28.879 159.629 27.815 159.629 23.901C159.629 20.576 162.004 19.018 165.158 19.018C168.312 19.018 170.687 20.576 170.687 23.901C170.687 27.815 167.742 28.879 165.158 28.879Z" fill="white"/>
<path fill-rule="evenodd" clip-rule="evenodd" d="M175.766 30.855H178.464V25.421H182.739L186.748 30.855H190.073L185.836 25.231C187.869 25.117 189.693 23.711 189.693 21.165C189.693 17.783 187.337 17.042 184.069 17.042H175.766V30.855ZM178.464 23.179V19.284H183.67C185.874 19.284 186.995 19.607 186.995 21.222C186.995 22.856 185.874 23.179 183.67 23.179H178.464Z" fill="white"/>
<path fill-rule="evenodd" clip-rule="evenodd" d="M191.758 24.053C191.758 26.922 193.449 31.197 199.985 31.197C206.521 31.197 208.212 26.922 208.212 24.053C208.212 20.272 206.065 16.7 199.985 16.7C193.905 16.7 191.758 20.272 191.758 24.053ZM199.985 28.879C197.401 28.879 194.456 27.815 194.456 23.901C194.456 20.576 196.831 19.018 199.985 19.018C203.139 19.018 205.514 20.576 205.514 23.901C205.514 27.815 202.569 28.879 199.985 28.879Z" fill="white"/>
<path fill-rule="evenodd" clip-rule="evenodd" d="M228.954 30.048H229.437L228.821 29.0435C229.137 29.0102 229.398 28.8382 229.398 28.422C229.398 27.9391 229.092 27.7504 228.532 27.7504H227.655V30.048H228.082V29.0602H228.377L228.954 30.048ZM228.082 28.7328V28.0779H228.488C228.715 28.0779 228.97 28.1223 228.97 28.3887C228.97 28.6995 228.754 28.7328 228.482 28.7328H228.082Z" fill="white"/>
<path fill-rule="evenodd" clip-rule="evenodd" d="M226.34 28.8604C226.34 30.0314 227.289 30.9804 228.46 30.9804C229.631 30.9804 230.58 30.0314 230.58 28.8604C230.58 27.695 229.631 26.7459 228.46 26.7459C227.289 26.7459 226.34 27.695 226.34 28.8604ZM226.834 28.8604C226.834 27.9447 227.577 27.2066 228.46 27.2066C229.342 27.2066 230.086 27.9447 230.086 28.8604C230.086 29.7761 229.342 30.5198 228.46 30.5198C227.577 30.5198 226.834 29.7761 226.834 28.8604Z" fill="white"/>
<path d="M226.257 17.055L217.706 30.855H217.01L208.44 17.055H211.429L217.354 26.566L223.274 17.055H226.257Z" fill="white"/>
<path d="M1 30.855H13.711V28.461H3.698V17.042H1V30.855Z" fill="white"/>
<path d="M15.7881 30.855H28.4041V28.537H18.4861V24.889H26.8271V22.571H18.4861V19.36H28.1761V17.042H15.7881V30.855Z" fill="white"/>
<path fill-rule="evenodd" clip-rule="evenodd" d="M29.6832 24.053C29.6832 26.922 31.3742 31.197 37.9102 31.197C44.4462 31.197 46.1372 26.922 46.1372 24.053C46.1372 20.272 43.9902 16.7 37.9102 16.7C31.8302 16.7 29.6832 20.272 29.6832 24.053ZM37.9102 28.879C35.3262 28.879 32.3812 27.815 32.3812 23.901C32.3812 20.576 34.7562 19.018 37.9102 19.018C41.0642 19.018 43.4392 20.576 43.4392 23.901C43.4392 27.815 40.4942 28.879 37.9102 28.879Z" fill="white"/>
<path d="M48.5186 30.855H51.1026V20.519L60.7166 30.855H63.1866V17.042H60.6026V27.017L51.3686 17.042H48.5186V30.855Z" fill="white"/>
</svg>
