<svg xmlns="http://www.w3.org/2000/svg" width="1920" height="1080" fill="none" viewBox="0 0 1920 1080"><defs/><path fill="#222" d="M0 0h1920v1080H0z"/><path fill="#fff" fill-rule="evenodd" d="M829.38 552.35c-10.5 0-13.23-6.77-13.23-11.3 0-5.98 3.46-11.63 13.23-11.63s13.22 5.65 13.22 11.63c0 4.53-2.72 11.3-13.22 11.3zm-8.89-11.54c0 6.19 4.73 7.87 8.89 7.87 4.15 0 8.88-1.68 8.88-7.87 0-5.26-3.81-7.73-8.88-7.73s-8.89 2.47-8.89 7.73z" clip-rule="evenodd"/><path fill="#fff" d="M767 551.8h20.43v-3.78h-16.1v-18.06H767v21.84zM792.3 551.8h20.27v-3.66h-15.94v-5.77h13.4v-3.67h-13.4v-5.08h15.58v-3.66h-19.92v21.84zM847.95 551.8h4.16v-16.34l15.45 16.34h3.97v-21.84h-4.15v15.77l-14.85-15.77h-4.58v21.84z"/><path fill="#fff" fill-rule="evenodd" d="M905.08 551.8h-14.2v-21.84h13.38c5.22 0 8.7 1.44 8.7 5.59 0 2.76-1.38 3.78-2.57 4.54a5.84 5.84 0 013.42 5.37c0 4.12-3.32 6.34-8.73 6.34zm-9.86-9.67v6.13h9.43c2.75 0 4.83-.54 4.83-3.13 0-2.28-1.9-3-4.83-3h-9.43zm0-8.63v5.08h9.31c2.84 0 4.1-.69 4.1-2.52 0-1.86-1.26-2.55-4.1-2.55h-9.31zM917.16 551.8h4.61l2.36-5.01h12.79l2.32 5.01h4.58l-10.78-21.84h-4.94l-10.94 21.84zm8.77-8.68l4.64-9.74 4.64 9.74h-9.28z" clip-rule="evenodd"/><path fill="#fff" d="M952.54 551.8h-4.33v-21.84h4.33v10.18l12.31-10.18h6.17l-10.6 8.65 11.67 13.2h-5.68l-9.13-10.67-4.74 3.87v6.8z"/><path fill="#fff" fill-rule="evenodd" d="M974.5 551.8h4.6l2.35-5.01h12.8l2.32 5.01h4.58l-10.78-21.84h-4.95L974.5 551.8zm8.76-8.68l4.64-9.74 4.64 9.74h-9.28zM1016.41 551.8h-10.87v-21.84h10.69c7.02 0 12.64 2.91 12.64 10.79 0 7.45-5.13 11.05-12.46 11.05zm-6.54-18.17v14.5h4.4c7.39 0 10.26-2.22 10.26-7.32 0-5.35-2.99-7.18-10.26-7.18h-4.4zM1032.77 541.05c0 4.53 2.72 11.3 13.22 11.3 10.51 0 13.22-6.77 13.22-11.3 0-5.98-3.45-11.63-13.22-11.63s-13.22 5.65-13.22 11.63zm13.22 7.63c-4.15 0-8.89-1.68-8.89-7.87 0-5.26 3.82-7.73 8.89-7.73s8.89 2.47 8.89 7.73c0 6.19-4.74 7.87-8.89 7.87zM1068.9 551.8h-4.33v-21.84h13.34c5.25 0 9.04 1.17 9.04 6.52 0 4.03-2.93 6.25-6.2 6.43l6.81 8.9h-5.34l-6.45-8.6h-6.87v8.6zm0-18.3v6.16h8.37c3.54 0 5.35-.5 5.35-3.09 0-2.56-1.81-3.07-5.35-3.07h-8.37zM1091.8 541.05c0 4.53 2.71 11.3 13.22 11.3 10.5 0 13.22-6.77 13.22-11.3 0-5.98-3.45-11.63-13.22-11.63s-13.22 5.65-13.22 11.63zm13.22 7.63c-4.15 0-8.89-1.68-8.89-7.87 0-5.26 3.82-7.73 8.89-7.73s8.89 2.47 8.89 7.73c0 6.19-4.74 7.87-8.89 7.87z" clip-rule="evenodd"/><path fill="#fff" d="M1134.53 551.8l13.53-21.83h-4.72l-9.37 15.04-9.38-15.04h-4.73l13.57 21.83h1.1z"/><path fill="#fff" fill-rule="evenodd" d="M1153.13 550.55h-.79l-.95-1.6h-.48v1.6h-.7v-3.7h1.44c.91 0 1.41.3 1.41 1.08 0 .67-.42.95-.94 1l1.01 1.62zm-2.22-3.17v1.05h.66c.44 0 .8-.05.8-.55 0-.43-.42-.5-.8-.5h-.66z" clip-rule="evenodd"/><path fill="#fff" fill-rule="evenodd" d="M1151.53 552.05a3.44 3.44 0 01-3.47-3.41c0-1.88 1.55-3.41 3.47-3.41a3.44 3.44 0 013.47 3.4 3.44 3.44 0 01-3.47 3.42zm0-6.08a2.67 2.67 0 000 5.34c1.44 0 2.66-1.2 2.66-2.67a2.68 2.68 0 00-2.66-2.67z" clip-rule="evenodd"/></svg>