<svg xmlns="http://www.w3.org/2000/svg" width="828" height="1472" fill="none" viewBox="0 0 828 1472"><defs/><path fill="#222" d="M828 0v1472H0V0z"/><path fill="#fff" fill-rule="evenodd" d="M255.24 750.9c-12.67 0-15.95-8.16-15.95-13.64 0-7.21 4.16-14.02 15.95-14.02 11.78 0 15.95 6.81 15.95 14.02 0 5.48-3.28 13.63-15.95 13.63zm-10.72-13.93c0 7.47 5.7 9.5 10.72 9.5 5 0 10.72-2.03 10.72-9.5 0-6.34-4.6-9.31-10.72-9.31-6.12 0-10.72 2.97-10.72 9.31z" clip-rule="evenodd"/><path fill="#fff" d="M180 750.24h24.64v-4.57h-19.41V723.9H180v26.35zM210.51 750.24h24.46v-4.42h-19.23v-6.96h16.17v-4.42h-16.17v-6.13h18.79v-4.42H210.5v26.35zM277.65 750.24h5v-19.72l18.64 19.72h4.8v-26.35h-5.02v19.03l-17.9-19.03h-5.52v26.35z"/><path fill="#fff" fill-rule="evenodd" d="M346.55 750.24h-17.13v-26.35h16.13c6.3 0 10.5 1.74 10.5 6.74 0 3.34-1.66 4.57-3.1 5.47a7.04 7.04 0 014.13 6.5c0 4.96-4.01 7.64-10.53 7.64zm-11.9-11.67v7.4h11.38c3.32 0 5.82-.66 5.82-3.78 0-2.75-2.28-3.62-5.82-3.62h-11.38zm0-10.4v6.12h11.24c3.42 0 4.93-.83 4.93-3.04 0-2.25-1.5-3.08-4.93-3.08h-11.24zM361.12 750.24h5.57l2.83-6.05h15.44l2.8 6.05h5.52l-13-26.35h-5.97l-13.19 26.35zm10.57-10.48l5.6-11.74 5.6 11.74h-11.2z" clip-rule="evenodd"/><path fill="#fff" d="M403.8 750.24h-5.23v-26.35h5.23v12.29l14.85-12.3h7.44l-12.78 10.45 14.07 15.9h-6.86l-11-12.86-5.72 4.68v8.19z"/><path fill="#fff" fill-rule="evenodd" d="M430.27 750.24h5.56l2.84-6.05h15.44l2.8 6.05h5.52l-13-26.35h-5.97l-13.19 26.35zm10.58-10.48l5.6-11.74 5.6 11.74h-11.2zM480.83 750.24h-13.1v-26.35h12.88c8.47 0 15.25 3.51 15.25 13.01 0 8.99-6.19 13.34-15.03 13.34zm-7.88-21.93v17.5h5.3c8.92 0 12.38-2.67 12.38-8.84 0-6.45-3.6-8.66-12.37-8.66h-5.3zM500.56 737.26c0 5.48 3.28 13.63 15.95 13.63s15.95-8.15 15.95-13.63c0-7.21-4.16-14.02-15.95-14.02-11.78 0-15.94 6.81-15.94 14.02zm15.95 9.2c-5 0-10.71-2.02-10.71-9.49 0-6.34 4.6-9.31 10.71-9.31 6.12 0 10.72 2.97 10.72 9.31 0 7.47-5.7 9.5-10.72 9.5zM544.15 750.24h-5.23v-26.35h16.1c6.33 0 10.9 1.41 10.9 7.86 0 4.86-3.53 7.54-7.48 7.76l8.22 10.73h-6.45l-7.77-10.37h-8.29v10.37zm0-22.07v7.43h10.1c4.27 0 6.44-.62 6.44-3.74 0-3.08-2.17-3.7-6.45-3.7h-10.09zM571.76 737.26c0 5.48 3.28 13.63 15.95 13.63s15.95-8.15 15.95-13.63c0-7.21-4.16-14.02-15.95-14.02-11.78 0-15.95 6.81-15.95 14.02zm15.95 9.2c-5 0-10.71-2.02-10.71-9.49 0-6.34 4.6-9.31 10.71-9.31 6.12 0 10.72 2.97 10.72 9.31 0 7.47-5.7 9.5-10.72 9.5z" clip-rule="evenodd"/><path fill="#fff" d="M623.3 750.24l16.32-26.34h-5.69l-11.3 18.15-11.3-18.15h-5.71l16.36 26.34h1.32z"/><path fill="#fff" fill-rule="evenodd" d="M645.74 748.73h-.95l-1.14-1.93h-.58v1.93h-.85v-4.47h1.74c1.1 0 1.7.37 1.7 1.3 0 .81-.5 1.15-1.13 1.21l1.21 1.96zm-2.67-3.83v1.27h.79c.53 0 .96-.06.96-.67 0-.52-.5-.6-.95-.6h-.8z" clip-rule="evenodd"/><path fill="#fff" fill-rule="evenodd" d="M643.81 750.54a4.15 4.15 0 01-4.18-4.12c0-2.27 1.87-4.11 4.18-4.11a4.15 4.15 0 014.19 4.1 4.15 4.15 0 01-4.19 4.13zm0-7.34a3.23 3.23 0 00-3.2 3.22 3.24 3.24 0 003.2 3.22 3.24 3.24 0 003.22-3.22 3.23 3.23 0 00-3.22-3.22z" clip-rule="evenodd"/></svg>