<svg width="780" height="780" viewBox="0 0 780 780" fill="none" xmlns="http://www.w3.org/2000/svg"><g clip-path="url(#clip0)"><path fill="#000" d="M0 0h780v780H0z"/><path d="M152.6 290.8c2-16.5 3.9-33.2 8.4-49.4 9.3-33.7 25.2-64 47.9-90.7a235 235 0 01354.9-5.3 233.3 233.3 0 0159.8 142.1c-1.9.6-3.2-.4-4.5-1.4a237.3 237.3 0 00-77.8-36.4c-1.1-.3-2.3-.7-3.3-1.3l-1.5-1.3a188 188 0 00-16.6-32c-26.1-37.8-61.4-61.7-107-68.5a153.5 153.5 0 00-128.9 38 158.4 158.4 0 00-41.6 59c-.6 1.5-1.2 3-2.2 4.4-.5.5-1 1-1.6 1.3-7.5 3-15.4 4.8-23 7.7-21 7.9-40.4 18.6-58.3 32-1.1.8-2.1 1.8-3.5 2.1-.5.2-1 .1-1.2-.3z" fill="#469465"/><path d="M623.5 287.5A246 246 0 01715 441.7c2.2 13.6 3.5 27.3 2.8 41a238.5 238.5 0 01-75 166.4 236.7 236.7 0 01-138 62.4c-38.2 4-75-2-110.6-15.8-.8-.2-1.5-.9-2.2-1.4-.2-2.5 1.9-2.7 3.4-3.4 26.7-12.1 50-29 70.9-49.8 2.3-2.3 3.8-5.4 6.8-7l1.4-.3c23.7 1.1 46.6-3 68.5-12.1 35.6-15 62.2-40.2 79.8-74.5a151.7 151.7 0 0016.4-66.3 158 158 0 00-27-93c-1-1.6-2-3-2.3-4.9 0-1.7.4-3.2.9-4.9 8.7-26 12.6-52.8 11.9-80.1 0-2.8-1.8-8.2.8-10.5z" fill="#2E376C"/><path d="M389.5 694.4c-16.2 7.2-33.1 12-50.6 15-53.2 9.1-104 1.4-151.8-24a232.8 232.8 0 01-95-92.8 227 227 0 01-29-92.7 232 232 0 0143-160c12.3-17.4 27-32.8 43.5-46.3 1-.8 2-1.9 2.9-2.8l.3.3c1.3 1 1.1 2.6 1 4.2-.9 17.2 1 34.3 4 51.2 2 12 5.6 23.5 9.2 35.2.2.7.4 1.4.4 2.1 0 .6 0 1-.2 1.5-2.6 5.7-6.4 10.9-9.4 16.4a153.6 153.6 0 00-18.1 60.3 154 154 0 0038.7 118.8c27 30.8 61.4 47.7 101.8 52.5 8.2 1 16.6 1.9 25 .5l1.4.4c2.4 1.3 4.1 3.4 5.9 5.3 21 22.3 45.7 39.3 73.3 52 1.6.6 3.4.9 3.7 2.9z" fill="#9B2223"/><path d="M389.5 694.4a241 241 0 01-57.5-35 242.4 242.4 0 01-25.4-24.6c2-2.1 5-2 7.4-2.2 19.4-2.1 37.7-7.9 55-16.7 6.7-3.4 12.7-7.8 19.2-11.4.4-.2.9-.2 1.4-.2 4.8 2 8.8 5.2 13.2 7.7 19.2 11.1 39.7 18.1 61.9 20.6 2.9.2 6 0 8.5 2.1a189.7 189.7 0 01-36.8 33.7c-13.3 10-27.5 18-42.5 24.6-.7.3-1.2 1-1.8 1.4h-2.6z" fill="#8B3877"/><path d="M624 297c1 29.8-3.3 58.4-13.1 86.5l-.6.2c-1.5-.3-2.2-1.5-3-2.6a162.8 162.8 0 00-59.3-47.6c-2-.9-4-1.7-4.2-4.2.4-9.7 2-19.3 1.8-29-.3-15.5-2.7-30.6-7.2-45.4-.8-2.4-2.3-4.7-.4-7.2a224.9 224.9 0 0166 27c6.7 4 13 8.5 19.5 12.8.5 4.5.4 6.2.5 9.5z" fill="#599BAB"/><path d="M239.2 247.7a159.7 159.7 0 0193.2-94.3 150.8 150.8 0 0164.8-9.7 152.7 152.7 0 0191.2 35c18.9 15.6 34 34.3 44.3 56.7 1.7 3.7 3.3 7.4 4.3 11.3-2 1.9-4.2 1-6.4.5-16-3.4-32-4.7-48.2-4.8-29.2-.1-57.6 5-84.8 15.5l-6 2.1c-.8.2-1.6.2-2.3 0a261 261 0 00-65.2-16.6 243.7 243.7 0 00-75.8 4c-3 .7-6 2.4-9.1.3z" fill="#6BA655"/><path d="M239.2 247.7c11.5-2.2 23-5 34.7-5.8 12-.8 23.7-1.7 35.8-.9 12.8 1 25.5 2.2 38.1 4.9 13.4 2.9 26.2 7 39 11.9 1 .3 1.8 1 2.6 1.6-1.3 3.1-4.6 3.7-7.2 5-20 9.3-38.3 21.4-55 36-5.4 4.9-10.6 10-15.9 15.1-1.3 1.4-2.7 2.9-4.6 3.4-3 .8-6.2.6-9.3.5-20.3-.4-39.8 3.3-58.6 10.7-1.6.6-3.3 1.4-5.2 1.3-3.5-1-3.3-4-3.6-6.6a172 172 0 015.3-69.8c.7-2.4 1.4-4.6 3-6.5l.9-.8z" fill="#92B636"/><path d="M391.2 259.5c7.4-4.5 15.7-6.6 23.8-9a250 250 0 01119-4c1 .2 2 .2 3.1.3l1 .9c2 9 5.1 17.7 6.7 26.8 2.7 16.5 3.3 33 .7 49.5-.4 2.2 0 4.5-1.1 6.6-.3 0-.4.1-.7.3a8 8 0 01-4.3-.8 165 165 0 00-61.2-10.7c-1.4 0-2.7 0-4-.3-3.6-.7-5.6-3.5-7.8-5.8a237.1 237.1 0 00-65-47.4c-2.2-1.2-4.6-2-7-3.2-1.4-.6-3.2-1-3.2-3.2z" fill="#55B57B"/><path d="M238.3 248.6c.4 3.7-1.6 6.8-2.5 10.2-5.5 19.6-7 39.5-4.8 59.8.3 3 .5 6.2 1 9.3.1 1.2.2 2.4 1.8 2.6.2.7-.2 1.2-.8 1.7-18.4 8.6-35.1 19.9-49.4 34.6-4.5 4.6-8.5 9.7-12.5 14.7-1.2 1.4-2.1 3.4-4.6 3-8.2-23-13-46.6-14-71-.3-7.5-.6-15 .3-22.4a207.8 207.8 0 0148.7-29.7c11.9-5.4 24.1-9.8 36.8-12.8z" fill="#B1B62D"/><path d="M610.8 383.6A159.4 159.4 0 01640.3 490a158 158 0 01-125.9 142.3c-11 2.3-22.2 3-33.3 3.5-2.5.1-4.8-.2-7.2-.9-.6-2.9 1.7-4.4 3.1-6.1 13.9-16.1 25-34 34-53.3 10.6-23 17.4-47 20-72.3.5-4.3.6-8.6 1.4-12.9 2.2-4 6-6.2 9.3-9a235.1 235.1 0 0065.7-93c.7-1.9 1.2-3.8 3.2-4.7l.2.1z" fill="#37407D"/><path d="M533.6 490A231.1 231.1 0 01503 594c-8.2 14.6-18.3 27.8-29 40.7h-.9a156.8 156.8 0 01-83.7-29.7c-.4-1.9 1.2-2.6 2.3-3.5a161.3 161.3 0 0051.9-69c.3-.6.9-1 1.5-1.3 30-7.7 57.8-20.5 82.7-39 1.5-1.2 3-2.5 5-2.7.2.3.5.4.7.4z" fill="#634296"/><path d="M305.8 634.8a153.8 153.8 0 01-102-29.3 153.7 153.7 0 01-50.2-59.2 154.9 154.9 0 01-15.3-55c-2.7-28.4 2-55.3 13.8-81.2 4-8.7 8.3-17.2 14.4-24.7 2.3.2 2.5 2.3 3.1 4a241.5 241.5 0 0044.9 72c8.5 9.5 18 18 27.8 26 1.6 1.4 3.4 2.5 4.6 4.3.3.3.4.8.6 1.2a235.3 235.3 0 0054.4 134.8c1.8 2 4.3 3.8 4 7.1z" fill="#B41E24"/><path d="M305.8 634.8a258 258 0 01-37.2-56.4 233.1 233.1 0 01-20.4-69.4c-.7-5.4-1.8-10.9-1.6-16.4 2.2-1.3 3.6.6 5 1.6a246.8 246.8 0 0058.6 30.6c7.8 2.8 15.8 4.7 23.6 7.2l1 .7a167 167 0 0048.3 66c2.2 1.8 5.6 2.7 5.5 6.5-9.8 8-21 13.6-32.6 18.4-15.8 6.5-32.4 10-49.4 11.3h-.8z" fill="#DC2F82"/><path d="M246.4 491.7a172.4 172.4 0 01-29.6-26c-8.3-9-16-18.5-22.9-28.6a227.5 227.5 0 01-25.8-49c-.4-1-1-1.9-1.6-2.8v-.9c4.7-4.1 8-9.5 12.3-14.1a153 153 0 0154-38.8c1.5 1 2 2.5 2.3 4.1a161 161 0 0024.2 55.9c1 1.3 1.8 2.8 1.8 4.5-.8 5-3 9.7-4.3 14.6-4.8 17.9-8.4 36-9 54.7-.3 7-1.2 14.2-.2 21.4.4 1.8.4 3.7-1.2 5z" fill="#D67A29"/><path d="M388.6 605c-4-4.3-8.9-7.7-13.4-11.6a160.3 160.3 0 01-37.7-51.6c-1.2-2.8-2.7-5.4-3-8.4 2-1.6 4.3-.8 6.5-.5a240.7 240.7 0 0096.4-.2c2.2-.4 4.7-1.5 6.8.3-3.8 11.8-10 22.4-16.7 32.5a166.5 166.5 0 01-38 39.5h-.9z" fill="#A33B8A"/><path d="M610.7 383.5a241.1 241.1 0 01-77.2 106.4v-.1c-1.2-1.1-1-2.5-1-3.8 1-30.3-3.5-59.7-13.7-88.1a15 15 0 01-1-4.4 8 8 0 011.7-5c6.3-9.1 11.1-18.8 15.2-29.1.5-1.4 6-23.2 9.5-28.8a161.9 161.9 0 0166.5 52.9z" fill="#2362A2"/><path d="M391.2 259.5c8.7 4.5 17.4 8.5 25.8 13.4a243.3 243.3 0 0152.8 42c1 1.2 2.2 2.2 3.2 3.1.4.5.3 1 0 1.3-3.1 1.5-6.4 1.3-9.7 1.6-25 3-48 11.7-68.9 25.5-1.5 1-2.9 2.2-4.9 2.3-1.9 0-3.3-1.2-4.8-2.2a155.9 155.9 0 00-73.6-26.3c-1.2 0-2.5-.2-3.5-1-.3-.3-.4-.8-.2-1.3a244.2 244.2 0 0163.1-49.1c6.2-3.4 12.8-5.9 19-9.4h1.7z" fill="#9CCD79"/><path d="M307.4 317.9v.5c.2 1.7-1 2.7-2 3.9-17.4 19.8-31 42-41 66.4-1 2.3-1.4 4.8-3.3 6.7-.4.3-.8.3-1.2 0-4.2-7.4-9-14.4-12.9-22a169.2 169.2 0 01-14.2-41.8l1-1a156.2 156.2 0 0167.7-12.6l5.9-.1z" fill="#D4C32A"/><path d="M473 318.9l.1-.9c24.7-1 48.5 3 71.3 12.6-.9 6.4-6 25.1-6.3 25.2a226.7 226.7 0 01-19.1 36.8c-.5.3-.8.3-1.3 0-4.5-8.2-7.9-17-12.3-25.4-1.5-3-8.1-15-9.7-17.3-6.7-9.6-13.8-19-21.5-27.9-.8-.9-1.6-1.8-1.2-3.1z" fill="#64BACD"/><path d="M444.3 533.1a269.4 269.4 0 01-48.7 6.3c-20.6.5-40.8-1.6-61-6l-.8-.4a10.1 10.1 0 01-3.2-4.8A161 161 0 01324 451c.2-1 .4-2 1-3a2 2 0 011.3-.7c6.5 1.2 12.4 4.2 18.7 5.9 33.4 8.8 66.3 8 98.8-3.9 2.5-.9 5-2.2 7.7-2.1.6 0 1 .3 1.5.7 1.2 1.6 1.5 3.5 1.9 5.4 3.8 25.1 1.5 49.7-6.6 73.8-.7 2-1.3 4-3.2 5.2a4 4 0 00-.8.9z" fill="#DDBFDA"/><path d="M445.1 532.1a207 207 0 008.6-35.6c2-15.5 1.7-30.9-1-46.3-.2-.9-.1-1.8-.2-2.7.6-2.2 2.6-2.8 4.3-3.6a156.2 156.2 0 0058.2-48.4c1-1.1 1.7-2.5 3.3-3h.6c2.8 9.2 6.2 18.4 8.4 27.9 3.2 14.1 5.7 28.4 6.3 43 .4 8.8 1.2 17.5-.2 26.4a237.9 237.9 0 01-84.9 42c-1 .3-2.2.2-3.4.3z" fill="#7392D1"/><path d="M325.7 447.7c-.8 9.8-2.1 19.6-2 29.5 0 17.4 2.9 34.3 8.4 50.7l1.7 5.1c-31-7.1-59.1-20.6-85-39.3-.6-.5-1.4-.8-2.2-1.2l-.2-.8c.7-4.1-1-8-.8-12.1.5-28 4.2-55.6 14-82 .3-.7.2-1.4.3-2.3h.7c3.9 1.4 5.2 5.3 7.6 8a160 160 0 0054.2 41.5c1.4.7 2.9 1 3.3 2.9z" fill="#E47C62"/><path d="M518.3 392.6a79.4 79.4 0 01-13 17 160 160 0 01-52.9 38c-.3 0-.5 0-.9-.2-1.3-1-1.3-2.6-1.6-4a156.6 156.6 0 00-57.5-91.5c-1.2-.9-2.5-1.7-3.2-3-.2-.5-.2-1 0-1.3 5.6-3.3 11.1-6.9 17-10 20.7-11.4 43-18 66.7-19 14.5 13.7 35.1 51.9 42.9 67.6l2.5 6.4z" fill="#C3E3D8"/><path d="M389.4 347.7v.6c-3.7 5-9 8.2-13.6 12.4a157.5 157.5 0 00-47 81.6c-.4 1.9-.6 3.9-2.3 5.2l-.8.1a154.6 154.6 0 01-65-52.3 219.8 219.8 0 0146.8-76.9c22.6 1.4 43.7 7.6 63.6 18.2 6.2 3.4 12.1 7.4 18.3 11z" fill="#F7F490"/><path d="M326.5 447.6a141 141 0 0116-46.3 157 157 0 0142.3-50c1.4-1 3.1-1.9 4.6-2.8a156.6 156.6 0 0161.7 93.4c.5 2 .6 3.9.6 5.8a161 161 0 01-116.7 3.8c-3-1.2-6.1-1.8-8.5-3.9z" fill="#FEFEFE"/><path d="M383.8 411.5h-1.7v5.6c0 1.9 1.4 3.1 3.5 3.1 2.2 0 3.6-1.2 3.6-3.1v-5.6h-1.8v5.4c0 1.1-.6 1.8-1.8 1.8-1.1 0-1.8-.7-1.8-1.8v-5.4zm6.9 8.5h2l1.8-3 1.9 3h2l-2.8-4.2 2.8-4.3h-2l-1.7 3h-.1l-1.8-3h-2l2.6 4.2-2.7 4.3z" fill="#000"/><path d="M88.1 561.4c0-1.5-1.1-2.6-2.8-2.6h-1.8v-2.1h3.8v-1.2h-5.2v8.5h3.3c1.6 0 2.7-1 2.7-2.6zm-4.6 1.5v-3H85c1.1 0 1.8.6 1.8 1.5 0 1-.6 1.5-1.8 1.5h-1.5zM91 564l2.9-4.5v4.5h1.3v-6.4h-1.2l-3 4.5v-4.5h-1.3v6.4h1.3zm8.5.1c1.5 0 2.6-.8 2.6-2 0-.7-.5-1.2-1.3-1.4.6-.2 1-.8 1-1.4 0-1-.8-1.8-2.3-1.8-1.5 0-2.4.7-2.5 1.8h1.2c0-.5.6-.8 1.3-.8.7 0 1.1.4 1.1.9 0 .6-.4.9-1.2.9h-1v1h1c1 0 1.4.2 1.4.8 0 .6-.5 1-1.4 1-.7 0-1.2-.3-1.3-.8h-1.3c.1 1.1 1.2 1.8 2.7 1.8zm8.4-.1h1.2v-6.4H108v2.6h-3v-2.6h-1.2v6.4h1.3v-2.8h2.9v2.8zm7.3-1.7c-.2.5-.7.8-1.5.8-1 0-1.6-.7-1.7-1.9h4.5v-.5c0-2-1-3.2-2.8-3.2-1.8 0-3 1.3-3 3.3 0 2 1.2 3.3 3 3.3 1.5 0 2.5-.7 2.8-1.8h-1.3zm-1.5-3.8c1 0 1.5.7 1.6 1.7H112c.1-1 .8-1.7 1.7-1.7zm9.9 1.2c-.2-1.3-1.2-2.2-2.8-2.2-1.8 0-3 1.3-3 3.3 0 2 1.2 3.3 3 3.3 1.6 0 2.6-.9 2.8-2.1h-1.3c-.1.7-.7 1-1.5 1-1 0-1.7-.8-1.7-2.2 0-1.4.7-2.2 1.7-2.2.9 0 1.4.5 1.5 1h1.3zm5.3 1.5V560h-3.8v1.2h3.8zm3.5 0l2.3 2.8h1.6l-2.8-3.4 2.7-3h-1.5l-2.3 2.6h-.3v-2.6h-1.3v6.4h1.3v-2.8h.3zm9.1 1c-.2.6-.7.9-1.5.9-1 0-1.7-.7-1.7-1.9h4.5v-.5c0-2-1-3.2-2.8-3.2-1.8 0-3 1.3-3 3.3 0 2 1.1 3.3 3 3.3 1.4 0 2.5-.7 2.7-1.8h-1.2zm-1.5-3.7c.9 0 1.5.7 1.5 1.7h-3.2c0-1 .7-1.7 1.7-1.7zm5.1-3.8c0 1.2.8 2 2 2 1.4 0 2.2-.8 2.2-2h-1c0 .7-.5 1.2-1.1 1.2-.6 0-1-.5-1-1.2h-1zm.6 9.3l2.9-4.5v4.5h1.3v-6.4h-1.2l-3 4.5v-4.5h-1.3v6.4h1.3zm11.6-4.3c-.2-1.3-1.1-2.2-2.7-2.2-1.9 0-3 1.3-3 3.3 0 2 1.1 3.3 3 3.3 1.5 0 2.5-.9 2.7-2.1h-1.2c-.2.7-.7 1-1.5 1-1 0-1.7-.8-1.7-2.2 0-1.4.6-2.2 1.7-2.2.8 0 1.3.5 1.5 1h1.2z" fill="#fff"/><path d="M29.5 609.3c-.8-1.4-2.3-1.8-3.9-1l-1.5.8-.7-1.6 3.4-1.7-.7-1.3-5 2.5 3.9 7.6 3-1.6c1.6-.8 2.2-2.3 1.5-3.7zm-3.6 3.2l-1.1-2.2 1-.6c1-.5 1.7-.3 2 .4.4.7.1 1.4-.8 1.8l-1 .6zm7.7-2.4l.3-4.7h.1l1.9 3.5 1.5-.7-3-5.8-1.5.8-.3 4.7h-.1l-1.9-3.5-1.5.8 3 5.7 1.5-.8zm7.7-3.8c1.6-.8 2.1-2 1.6-3.1-.3-.7-1-1-1.9-.6v-.1c.6-.5.7-1.2.4-1.8-.5-1-1.7-1.1-3.1-.4-1.6.8-2 2-1.5 3l1.4-.7c-.2-.4 0-.8.6-1.1.6-.3 1-.2 1.2.2.2.4.1.8-.5 1.1l-.8.4.5 1 .8-.4c.7-.4 1.1-.3 1.4.1.2.5 0 1-.7 1.3-.6.3-1 .2-1.4-.2l-1.5.8c.8 1.2 2.2 1.2 3.5.5zm7.6-4l1.5-.8-3-5.8-1.5.8 1.1 2.2L45 600l-1.2-2.2-1.5.7 3 5.8 1.5-.8-1.3-2.4 2.2-1.1 1.3 2.4zm6-5.2c0 .5-.3 1-.9 1.2-.8.4-1.6.1-2-.7l3.9-2.1-.3-.5c-.9-1.8-2.4-2.4-4.1-1.5-1.8.9-2.2 2.6-1.2 4.5 1 1.8 2.5 2.4 4.3 1.5 1.4-.7 2-2 1.7-3.1l-1.4.7zm-2.9-2.5c.8-.3 1.5 0 1.9.7l-2.4 1.3c-.4-.8-.2-1.6.5-2zm9.7-3.7c-.8-1.2-2.2-1.6-3.7-.8-1.8 1-2.2 2.6-1.2 4.5 1 1.9 2.5 2.4 4.3 1.5 1.5-.8 2-2 1.5-3.4l-1.4.7c.2.7 0 1.2-.7 1.5-.8.4-1.6 0-2.2-1.1-.6-1.2-.5-2 .3-2.5.7-.3 1.3-.1 1.7.4l1.4-.8z" fill="#E47D64"/><path d="M50.5 236.6c.8-1.4.2-2.9-1.4-3.7l-1.4-.7.8-1.6 3.4 1.8.6-1.3-5-2.6-3.9 7.5 3.1 1.6c1.5.8 3.1.4 3.8-1zm-4.6-1l1.1-2.3 1.1.6c1 .5 1.2 1.1.8 1.9-.3.7-1 .8-2 .4l-1-.6zm6.3 4.9l4.1-2.5-1.8 3.7 1.5.8 3-5.7-1.5-.8-4 2.4h-.2l1.9-3.6-1.5-.8-3 5.7 1.5.8zm7.6 4.1c1.5.8 2.9.6 3.4-.5.4-.6.2-1.3-.5-1.8v-.1c.8.2 1.4 0 1.7-.7.5-1 0-2-1.5-2.8-1.5-.8-2.7-.5-3.4.5l1.5.8c.2-.4.7-.5 1.3-.2.6.3.7.8.5 1.1-.2.4-.6.6-1.2.2l-.8-.4-.5 1 .8.4c.6.3.9.8.6 1.2-.2.4-.7.5-1.3.2-.6-.3-.9-.8-.8-1.3l-1.4-.7c-.6 1.3.2 2.4 1.6 3.1zm7.6 3.9l1.5.8 3-5.7-1.5-.8-1.1 2.2-2.2-1.2 1.1-2.2-1.5-.8-3 5.8 1.5.7 1.3-2.3 2.1 1.1-1.2 2.4zm7.7 2c-.4.3-1 .3-1.5 0-.8-.5-1-1.3-.6-2.1v-.1l4 2 .2-.4c1-1.8.6-3.4-1.1-4.3-1.7-.9-3.4-.3-4.4 1.6-1 1.8-.5 3.4 1.3 4.4 1.4.7 2.7.5 3.5-.4l-1.4-.7zm.4-3.8c.7.4.9 1.1.5 2l-2.4-1.4c.4-.7 1.2-1 1.9-.6zm8.5 5.8c.6-1.4.1-2.7-1.4-3.5-1.8-1-3.4-.4-4.3 1.5-1 2-.6 3.5 1.2 4.5 1.5.8 2.8.4 3.6-.8l-1.4-.7c-.4.5-1 .6-1.6.3-.8-.4-1-1.3-.3-2.5.6-1.1 1.4-1.5 2.2-1 .6.3.8.8.6 1.4l1.4.8zm4 3.9l.8-1.4-3.4-1.8-.7 1.4 3.4 1.8zm3.8 1.4l1-1.7 1.6.7-2.4 4.6 1.5.8 3-5.7-4.3-2.3-1.7 2.8c-.5 1-1 1.5-1.6 1.2l-.3-.2-.7 1.3.5.3c1.4.7 2.4-.1 3.4-1.8zm5.8 6.7c1.8 1 3.4.4 4.4-1.5 1-1.9.5-3.5-1.3-4.5-1.7-.9-3.4-.3-4.4 1.5-1 1.9-.5 3.6 1.3 4.5zm.6-1.2c-.8-.4-.9-1.3-.3-2.4.6-1.2 1.4-1.6 2.2-1.2.8.5 1 1.4.3 2.5-.6 1.1-1.4 1.5-2.2 1.1zm10 .8l.6-1.2-4-2-3 5.7 1.5.8 2.4-4.6 2.5 1.3zm.3 6l4.1-2.5h.1l-1.9 3.7 1.5.8 3-5.7-1.5-.8-4 2.4h-.1l1.8-3.6-1.4-.8-3 5.7 1.4.8zm8.5 1.4l.5 3.3 1.8 1-.7-4.4 3.5-1.4-1.7-1-2.9 1.4-.2-.1 1.2-2.3-1.6-.8-3 5.7 1.5.8 1.3-2.4.3.2zm4.7 5.6c.7.4 1.5.4 2 0h.2l-.4.8 1.4.8 2-3.9c.7-1.2.2-2.4-1.3-3.2-1.4-.7-2.7-.6-3.4.4l1.4.8c.3-.3.8-.3 1.3 0 .7.3.9.7.6 1.2l-.3.5-1.4-.6c-1.4-.7-2.6-.5-3.1.5s-.1 2.1 1 2.7zm1-.8c-.5-.3-.7-.8-.5-1.2.3-.4.7-.5 1.4-.2l1.2.5-.3.4c-.3.7-1 .8-1.7.5z" fill="#C5BF32"/><path d="M358.3 37v-7h2.5v-1.5H354V30h2.5v7h1.8zm7.6-1.8c-.2.4-.7.7-1.3.7-1 0-1.5-.7-1.5-1.6v-.1h4.4v-.5c0-2-1.1-3.3-3-3.3-2 0-3.1 1.3-3.1 3.4 0 2 1.1 3.3 3.1 3.3 1.6 0 2.7-.7 3-2h-1.6zm-1.4-3.5c.8 0 1.3.5 1.3 1.4h-2.7c0-.9.6-1.4 1.4-1.4zm6.9 3.2l1.2 2.1h1.9l-2-3.3 2-3.1h-1.9l-1.1 2.1h-.1l-1.2-2.1h-2l2.1 3.2-2 3.2h1.8l1.2-2.1zM380 37h1.7v-6.5H380V33h-2.5v-2.5h-1.7V37h1.7v-2.7h2.5V37zm6.4.1c2 0 3.2-1.2 3.2-3.3 0-2.1-1.2-3.4-3.2-3.4s-3.2 1.3-3.2 3.4c0 2 1.2 3.3 3.2 3.3zm0-1.3c-1 0-1.4-.8-1.4-2 0-1.3.5-2 1.4-2 .9 0 1.4.7 1.4 2 0 1.2-.5 2-1.4 2zm6.7-1.9l.2-2h1.7V37h1.7v-6.5h-4.9l-.2 3.3c0 1-.2 1.8-.8 1.8h-.4V37h.5c1.6 0 2.1-1.2 2.2-3zm8.3 3.2c2 0 3.2-1.2 3.2-3.3 0-2.1-1.3-3.4-3.2-3.4-2 0-3.2 1.3-3.2 3.4 0 2 1.2 3.3 3.2 3.3zm0-1.3c-1 0-1.5-.8-1.5-2 0-1.3.6-2 1.5-2s1.4.7 1.4 2c0 1.2-.5 2-1.4 2zm9.1-4v-1.3h-4.4V37h1.7v-5.2h2.7zm3.2 5.2l2.4-4h.2v4h1.6v-6.5h-1.6l-2.5 4h-.1v-4H412V37h1.7zm7.7 0l2.5-4h.1v4h1.7v-6.5H424l-2.5 4v-4h-1.7V37h1.6z" fill="#60A04D"/><path d="M654.4 274.7l1.6-.8-4-7.5-1.5.8-.7 6.8-2.8-5-1.5.9 4 7.4 1.5-.8.6-6.8h.1l2.7 5zm7-3.8l1.5-.8-3-5.7-1.5.9 1.1 2.1-2.1 1.2-1.2-2.2-1.5.8 3 5.7 1.5-.8-1.2-2.3 2.2-1.2 1.2 2.3zm4.5-9.7l-4.9 2.6.6 1.2 1.8-1 2.4 4.6 1.5-.8-2.4-4.6 1.7-.9-.7-1.1zm7 1.6c0 .4-.3.9-.9 1.2-.8.4-1.6.1-2-.7l-.1-.1 4-2.1-.3-.5c-1-1.8-2.6-2.3-4.2-1.4-1.7 1-2.2 2.6-1.2 4.5 1 1.8 2.6 2.4 4.4 1.4 1.3-.7 2-2 1.6-3.1l-1.4.8zm-3-2.5c.8-.4 1.5-.1 2 .6l-2.5 1.4c-.4-.8-.1-1.6.6-2zm6.8-5c-.8.4-1.3 1.2-1.2 2h-.1l-.5-.9-1.5.8 4 7.6 1.6-.9-1.5-2.7h.1c.6.4 1.4.4 2.2 0 1.5-.8 1.7-2.4.8-4.2-1-1.8-2.5-2.4-4-1.7zm2 5c-.8.4-1.7 0-2.3-1-.5-1.1-.4-2 .4-2.5.8-.4 1.6 0 2.2 1 .6 1.1.5 2-.3 2.4zm6.3-1.9c.8-.4 1.2-1 1.2-1.7h.1l.4.7 1.5-.8-2.1-3.9c-.7-1.2-1.9-1.5-3.4-.7-1.4.8-2 2-1.6 3l1.4-.7c0-.4.2-.8.7-1 .7-.4 1.2-.3 1.4.2l.3.5-1.4.8c-1.3.8-1.8 1.9-1.3 2.9.6 1 1.7 1.3 2.8.7zm0-1.4c-.6.3-1.1.2-1.3-.2-.3-.4 0-.8.5-1.2l1.2-.7.2.4c.3.6 0 1.4-.7 1.7zm5.3-4.6l3 1.5 1.8-1-4-1.9.8-3.7-1.7.9-.5 3.1-.3.2-1.2-2.2-1.5.8 3 5.6 1.6-.8-1.3-2.3.3-.2zm7-8l-4.9 2.6.6 1.1 1.7-.9 2.5 4.6 1.5-.8-2.5-4.6 1.7-.9-.6-1.1zm5.7 4.2l.3-4.7 2 3.5 1.5-.8-3-5.7-1.5.8-.3 4.8h-.1l-2-3.6-1.4.8 3 5.7 1.5-.8zm8.3-4.4c1.3-.7 1.7-1.8 1.2-2.7-.4-.7-1.1-1-2-.7.5-.5.7-1.2.4-1.8-.5-.9-1.5-1.1-2.7-.5l-2.8 1.6 3 5.6 3-1.5zm-4-4l1-.5c.6-.3 1-.1 1.2.3.2.4 0 .8-.5 1.1l-.9.5-.7-1.4zm1.3 2.3l1-.5c.6-.3 1.1-.3 1.3.2.3.5.1.9-.5 1.2l-1 .6-.8-1.5zm9.9-2.1l1.5-.8-3-5.7-1.6.8 1.2 2.2-2.2 1.1-1.2-2.2-1.5.8 3 5.7 1.6-.8-1.3-2.3 2.2-1.2 1.3 2.4zm4.7-2.5c.7-.3 1.2-1 1.2-1.7l.5.7 1.4-.8-2-3.8c-.7-1.3-2-1.5-3.5-.7-1.4.8-2 2-1.5 3l1.3-.7c0-.4.2-.8.8-1.1.6-.3 1.1-.2 1.4.3l.2.4-1.3.8c-1.4.9-1.9 2-1.3 3 .5 1 1.7 1.2 2.8.6zm-.1-1.3c-.5.3-1 .2-1.3-.2-.2-.5 0-.9.6-1.3l1.1-.7.2.5c.4.6 0 1.3-.6 1.7zm8-3l1.4-.8-3-5.7-2.6 1.4c-1.3.7-1.8 2-1.1 3.2.4.7 1.2 1.1 2 1l-.3 2.8 1.7-.9.3-2.5.6-.3 1 1.8zm-2.5-2.4c-.6.3-1.1.1-1.4-.3-.2-.5 0-1 .5-1.4l1-.4.8 1.6-1 .5zm8.7-4.4l-.9-2 1.5-.7 2.4 4.5 1.5-.8-3-5.7-4.3 2.3 1.4 3c.4 1 .6 1.7 0 2l-.3.1.7 1.3s.3 0 .5-.2c1.4-.7 1.3-2 .5-3.8zm8.7-1c1.8-1 2.2-2.7 1.3-4.5-1-1.9-2.7-2.4-4.4-1.5-1.8 1-2.2 2.6-1.3 4.5 1 1.8 2.7 2.4 4.4 1.4zm-.6-1.3c-.8.5-1.6 0-2.2-1-.6-1.2-.5-2 .3-2.5.8-.4 1.6 0 2.2 1 .6 1.2.5 2.1-.3 2.5zm6.2-7.8l-.6-1.1-4 2.1 3.1 5.7 1.5-.8-2.4-4.6 2.4-1.3zm5.2 3.1l.3-4.8 2 3.6 1.5-.8-3-5.7-1.6.8-.2 4.7h-.1l-2-3.5-1.4.8 3 5.7 1.5-.8zm5.9-6.2l3 1.4 1.8-1-4-1.8.8-3.7-1.7.9-.5 3.1-.3.2-1.2-2.3-1.5.8 3 5.7 1.6-.8-1.3-2.4.3-.1zm7.3-.7c.7-.4 1.2-1 1.2-1.8l.5.7 1.4-.7-2-4c-.7-1.1-2-1.4-3.4-.6-1.5.8-2 2-1.6 3l1.4-.7c-.1-.4.1-.8.7-1 .6-.4 1.1-.3 1.4.2l.2.4-1.3.9c-1.4.8-1.9 1.8-1.3 2.8.6 1 1.7 1.3 2.8.8zm-.1-1.4c-.5.3-1 .2-1.3-.2-.2-.5 0-.9.6-1.3l1.1-.6.2.4c.4.6 0 1.3-.6 1.7z" fill="#64BACC"/><path d="M720.7 589.1l5 2.6-.8 1.5 1.4.7 1.5-2.8-1-.5 3.2-6.2-5.4-2.8-2.4 4.1c-.6 1-1 1.5-1.8 1.6l-.5-.2-1.4 2.7 1.4.8.8-1.5zm2.9-2.5l1.8-3 2.4 1.3-2.6 5-3-1.7c.5-.3.9-.8 1.4-1.6zm6.1 7.2l4.1-2.5h.1l-1.8 3.7 1.4.7 3-5.7-1.5-.8-4 2.5h-.1l1.8-3.7-1.5-.7-3 5.7 1.5.8zm7.7 4c1.5.9 2.9.6 3.4-.5.3-.6.2-1.3-.5-1.8v-.1c.7.2 1.3 0 1.7-.7.5-1-.1-2-1.5-2.8-1.6-.8-2.8-.5-3.4.5l1.4.8c.3-.4.8-.5 1.3-.2.6.3.8.8.6 1.1-.2.4-.6.6-1.3.3l-.7-.4-.5.9.8.4c.6.3.9.8.6 1.2-.2.4-.7.5-1.3.2-.6-.3-1-.7-.8-1.3l-1.5-.7c-.5 1.3.3 2.4 1.7 3.2zm5.4 2.8c.8.4 1.6.4 2.1 0h.1l-.4.8 1.5.8 2-4c.6-1.1.2-2.3-1.4-3-1.4-.8-2.7-.7-3.4.3l1.4.8c.3-.3.8-.3 1.3 0 .7.3.9.7.6 1.2l-.2.5-1.5-.6c-1.4-.7-2.5-.5-3 .5-.6 1-.2 2.2 1 2.7zm1-.8c-.4-.3-.7-.8-.4-1.2.2-.4.6-.5 1.3-.2l1.2.5-.2.4c-.3.6-1.1.8-1.8.5zm9-4.9c-.6 1-.2 2.2 1 2.9 1.2.6 2.3.2 2.9-.8l-1.2-.6c-.3.5-.8.8-1.3.5-.5-.2-.6-.8-.4-1.4l-1-.6zm-3.6 8.9l4-2.5h.2l-2 3.7 1.6.8 3-5.8-1.6-.8-4 2.5h-.1l1.8-3.6-1.5-.8-3 5.7 1.6.8zm9.1 4.7l1.5.8 3-5.8-1.5-.7-1.2 2.2-2.2-1.1 1.2-2.3-1.5-.7-3 5.7 1.5.8 1.2-2.4 2.2 1.1-1.2 2.4z" fill="#6C8AC4"/><path d="M344.7 742.1v-3.6H343v8.5h1.7v-3.5h.3l3 3.5h2.2l-3.7-4.3 3.4-4.2h-2l-2.9 3.6h-.3zm9.1 5c2 0 3.2-1.2 3.2-3.3 0-2.1-1.2-3.4-3.2-3.4s-3.2 1.3-3.2 3.4c0 2 1.2 3.3 3.2 3.3zm0-1.3c-.9 0-1.4-.8-1.4-2 0-1.3.5-2 1.4-2 1 0 1.4.7 1.4 2 0 1.2-.5 2-1.4 2zm8.4-5.4c-.8 0-1.6.5-2 1.2v-1h-1.7v8.5h1.7v-3h.1c.3.6 1 1 2 1 1.6 0 2.6-1.3 2.6-3.3 0-2.1-1-3.4-2.7-3.4zm-.5 5.3c-1 0-1.5-.7-1.5-2 0-1.1.6-1.9 1.5-1.9s1.4.8 1.4 2-.5 2-1.4 2zm8.8 1.3h1.7v-6.5h-5.8v6.5h1.7v-5.2h2.4v5.2zm6.4.1c2 0 3.2-1.2 3.2-3.3 0-2.1-1.2-3.4-3.2-3.4s-3.2 1.3-3.2 3.4c0 2 1.2 3.3 3.2 3.3zm0-1.3c-1 0-1.4-.8-1.4-2 0-1.3.5-2 1.4-2 .9 0 1.4.7 1.4 2 0 1.2-.5 2-1.4 2zm8.4-5.4c-.9 0-1.6.5-2 1.2v-1h-1.7v8.5h1.7v-3h.1c.3.6 1 1 2 1 1.6 0 2.6-1.3 2.6-3.3 0-2.1-1-3.4-2.7-3.4zm-.6 5.3c-.9 0-1.4-.7-1.4-2 0-1.1.5-1.9 1.4-1.9 1 0 1.5.8 1.5 2s-.5 2-1.5 2zm6.5 1.4c.9 0 1.6-.4 2-1v.9h1.7v-4.4c0-1.4-1-2.2-2.7-2.2-1.6 0-2.7.8-2.8 2h1.5c.2-.5.6-.7 1.2-.7.7 0 1 .3 1 .9v.5l-1.5.1c-1.6.1-2.5.8-2.5 2 0 1.1.9 1.9 2.1 1.9zm.6-1.2c-.6 0-1-.3-1-.8s.3-.8 1-.8l1.4-.1v.4c0 .7-.6 1.3-1.4 1.3zm10-5.4h-5.6v1.3h1.9v5.2h1.7v-5.2h2v-1.3zm3 6.5l2.4-4h.1v4h1.7v-6.5h-1.7l-2.5 4v-4H403v6.5h1.6zm9.3 0c1.5 0 2.4-.7 2.4-1.8 0-.8-.6-1.4-1.5-1.5v-.1c.7-.1 1.2-.7 1.2-1.4 0-1-.8-1.7-2.1-1.7h-3.3v6.5h3.3zm-1.6-5.4h1.1c.6 0 1 .3 1 .8s-.4.8-1 .8h-1v-1.6zm0 2.7h1.1c.8 0 1.1.2 1.1.8 0 .5-.3.8-1 .8h-1.2v-1.6zm9.7 2.7h1.7v-6.5h-1.7v2.5h-2.4v-2.5H418v6.5h1.7v-2.7h2.4v2.7zm5.3.1c.9 0 1.6-.4 1.9-1h.1v.9h1.7v-4.4c0-1.4-1-2.2-2.7-2.2-1.6 0-2.7.8-2.9 2h1.6c.2-.5.6-.7 1.2-.7.7 0 1 .3 1 .9v.5l-1.5.1c-1.6.1-2.5.8-2.5 2 0 1.1.9 1.9 2.1 1.9zm.6-1.2c-.6 0-1-.3-1-.8s.3-.8 1-.8l1.4-.1v.4c0 .7-.6 1.3-1.4 1.3zm8.4 1.1h1.7v-6.5h-2.9c-1.5 0-2.5 1-2.5 2.3 0 .9.5 1.6 1.4 1.8l-1.7 2.4h2l1.3-2.1h.7v2.1zm-1-3.3c-.6 0-1-.4-1-1 0-.5.4-.9 1-.9h1v1.9h-1zm-89 16.6l2 2.7h2l-2.5-3.5 2.4-3h-2l-1.9 2.6h-.3v-2.6h-1.7v6.5h1.7v-2.7h.4zm7.9 2.8c2 0 3.1-1.2 3.1-3.3 0-2.1-1.2-3.4-3.1-3.4-2 0-3.2 1.3-3.2 3.4 0 2 1.2 3.3 3.2 3.3zm0-1.3c-1 0-1.5-.8-1.5-2 0-1.3.6-2 1.5-2s1.4.7 1.4 2c0 1.2-.5 2-1.4 2zm6.3 1.2v-4.3l1.7 4h1.2l1.6-4h.1v4.3h1.6v-6.5h-2.1l-1.7 4.3h-.1l-1.7-4.3H359v6.5h1.6zm9.7 0v-4.3l1.7 4h1.2l1.6-4h.1v4.3h1.7v-6.5h-2.2l-1.7 4.3h-.1l-1.7-4.3h-2.2v6.5h1.6zm8.9 2.3c1.6 0 2.4-.5 3-2.2l2.2-6.6h-1.8l-1.4 5h-.1l-1.4-5H378l2.2 6.5v.3c-.2.5-.5.7-1.2.7h-.4v1.3h.7zm10.6-2.3h1.7v-6.5H390v2.5h-2.4v-2.5h-1.7v6.5h1.7v-2.7h2.4v2.7zm5.2 0l2.5-4h.1v4h1.7v-6.5h-1.7l-2.4 4h-.2v-4h-1.6v6.5h1.6zm8.2-2.7l2 2.7h2l-2.6-3.5 2.4-3h-2l-1.8 2.6h-.3v-2.6h-1.7v6.5h1.7v-2.7h.3zm6.7 2.8c.9 0 1.6-.4 2-1v.9h1.7v-4.4c0-1.4-1-2.2-2.7-2.2-1.6 0-2.7.8-2.8 2h1.5c.2-.5.6-.7 1.2-.7.7 0 1 .3 1 .9v.5l-1.5.1c-1.6.1-2.5.8-2.5 2 0 1.1.9 1.9 2.1 1.9zm.6-1.2c-.6 0-1-.3-1-.8s.4-.8 1-.8l1.4-.1v.4c0 .7-.6 1.3-1.4 1.3zm11.6 2.8v-3h-1v-5.2h-1.6v5.2h-2.4v-5.2h-1.7v6.5h5.2v1.7h1.5zm2.9-1.7l2.5-4v4h1.8v-6.5h-1.7l-2.5 4h-.1v-4h-1.7v6.5h1.7zm9.7 0h1.7v-6.5h-3c-1.4 0-2.5 1-2.5 2.3 0 .9.6 1.6 1.4 1.8l-1.7 2.4h2l1.4-2.1h.7v2.1zm-1-3.3c-.7 0-1.1-.4-1.1-1 0-.5.4-.9 1-.9h1.1v1.9h-1z" fill="#C28BB7"/><path d="M177.5 513.7c0-1.9-1.5-3.2-3.6-3.2h-2.2V508h4.8v-1.6h-6.7V517h4.1c2.1 0 3.6-1.3 3.6-3.3zm-5.8 1.7V512h1.7c1.4 0 2.2.6 2.2 1.7s-.8 1.7-2.2 1.7h-1.7zm9.6 1.6l3.4-5.4h.2v5.4h1.8v-8h-1.8l-3.5 5.4V509h-1.9v8h1.8zm10.7.2c2 0 3.4-1 3.4-2.6 0-.9-.5-1.5-1.7-1.7v-.1c.9-.2 1.4-.9 1.4-1.7 0-1.4-1.1-2.3-3-2.3-2 0-3.1 1-3.3 2.4h1.7c.1-.6.7-1 1.5-1 1 0 1.4.5 1.4 1 0 .7-.5 1.1-1.4 1.1h-1.2v1.3h1.2c1 0 1.6.3 1.6 1s-.6 1.1-1.6 1.1c-.9 0-1.5-.3-1.6-1h-1.8c.1 1.6 1.6 2.5 3.4 2.5zm10.6-.2h1.8v-8h-1.8v3.2h-3.4V509h-1.8v8h1.8v-3.4h3.4v3.4zm9.4-2.2c-.2.6-.9 1-1.8 1-1.2 0-2-.9-2-2.3h5.6v-.6c0-2.5-1.4-4-3.6-4-2.4 0-3.8 1.6-3.8 4.1 0 2.6 1.4 4.2 3.8 4.2 1.9 0 3.2-1 3.5-2.4H212zm-1.8-4.5c1 0 1.8.7 1.8 2h-3.8c.1-1.3.9-2 2-2zm12.5 1.4c-.2-1.7-1.4-2.9-3.5-2.9-2.4 0-3.8 1.6-3.8 4.2s1.4 4.2 3.8 4.2c2 0 3.3-1.2 3.5-2.8H221c-.2.8-.8 1.3-1.8 1.3-1.2 0-2-1-2-2.7 0-1.7.8-2.7 2-2.7 1 0 1.6.6 1.8 1.4h1.7zm6.7 1.9v-1.7h-4.8v1.7h4.8zM176 536c1 0 2-.4 2.4-1.2h.1v1.1h1.8v-5.5c0-1.7-1.2-2.7-3.2-2.7s-3.3 1-3.4 2.3h1.7c.2-.5.7-.8 1.6-.8 1 0 1.5.4 1.5 1.2v.7l-2 .1c-2 .2-3.1 1-3.1 2.4 0 1.5 1 2.4 2.6 2.4zm.6-1.4c-.8 0-1.4-.4-1.4-1 0-.7.5-1.1 1.5-1.2h1.8v.6c0 1-.8 1.6-2 1.6zm11.2 1.3h1.8v-8h-1.8v3.2h-3.4V528h-1.8v8h1.8v-3.4h3.4v3.4zm6.4.1c1 0 2-.4 2.4-1.2h.1v1.1h1.8v-5.5c0-1.7-1.2-2.7-3.3-2.7-1.9 0-3.2 1-3.3 2.3h1.7c.1-.5.7-.8 1.6-.8 1 0 1.5.4 1.5 1.2v.7l-2.1.1c-2 .2-3 1-3 2.4 0 1.5 1 2.4 2.6 2.4zm.5-1.4c-.8 0-1.3-.4-1.3-1 0-.7.4-1.1 1.5-1.2h1.8v.6c0 1-.9 1.6-2 1.6zm8.4-2.4l.2-2.9h2.4v6.6h1.8v-8h-5.7l-.3 4.2c0 1.3-.3 2.3-1.1 2.3h-.5v1.5h.6c1.9 0 2.5-1.4 2.6-3.7zm8.6 3.7l3.4-5.4h.1v5.4h1.8v-8H215l-3.4 5.4h-.1V528h-1.8v8h1.8zm10.7.2c2 0 3.3-1 3.3-2.6 0-.9-.5-1.5-1.6-1.7v-.1c.8-.2 1.4-.9 1.4-1.7 0-1.4-1.2-2.3-3-2.3-2 0-3.2 1-3.4 2.4h1.8c0-.6.6-1 1.4-1 1 0 1.4.5 1.4 1 0 .7-.4 1.1-1.4 1.1h-1.1v1.3h1.1c1 0 1.6.3 1.6 1s-.6 1.1-1.6 1.1c-.8 0-1.4-.3-1.6-1h-1.8c.2 1.6 1.6 2.5 3.5 2.5zM287.8 561.5v8.5h1.3v-2.9h2c1.7 0 2.8-1.1 2.8-2.8 0-1.6-1.1-2.8-2.8-2.8h-3.3zm1.3 1.2h1.7c1.1 0 1.8.5 1.8 1.6s-.7 1.7-1.8 1.7H289v-3.3zm12.1 7.3h1.3v-6.4h-1.3v6.4zm-5.7 0h2.5c1.5 0 2.4-.9 2.4-2.2 0-1.3-1-2.2-2.4-2.2h-1.3v-2h-1.2v6.4zm2.4-3.4c.8 0 1.3.5 1.3 1.2s-.5 1.2-1.3 1.2h-1.2v-2.4h1.2zm10.6 3.4h1.2v-6.4h-1.2v2.6h-3v-2.6h-1.2v6.4h1.3v-2.8h2.9v2.8zm5.8.1c1.8 0 3-1.2 3-3.3 0-2-1.2-3.3-3-3.3-1.9 0-3 1.3-3 3.3 0 2 1 3.3 3 3.3zm0-1c-1.1 0-1.8-.9-1.8-2.3s.7-2.2 1.8-2.2c1 0 1.7.8 1.7 2.2 0 1.4-.6 2.3-1.7 2.3zm9.5.9v-6.4h-1.3v2.7c-.2.2-.7.4-1.4.4-.9 0-1.3-.5-1.3-1.3v-1.8h-1.2v1.9c0 1.4.8 2.3 2.3 2.3.7 0 1.2-.1 1.5-.4h.1v2.6h1.3zm6 0h1.2v-6.4h-1.2v2.6h-3v-2.6h-1.2v6.4h1.3v-2.8h2.9v2.8zm4.8.1c.9 0 1.5-.4 2-1v.9h1.2v-4.4c0-1.3-.9-2-2.5-2-1.4 0-2.4.6-2.6 1.7h1.3c0-.5.6-.7 1.3-.7.8 0 1.3.3 1.3 1v.6l-1.7.1c-1.6.1-2.4.8-2.4 2 0 1 .9 1.8 2.1 1.8zm.3-1c-.6 0-1.1-.4-1.1-1 0-.5.4-.8 1.2-.9l1.6-.1v.5c0 .9-.7 1.5-1.7 1.5zm8.2.9h1.2v-6.4H342c-1.5 0-2.5.9-2.5 2.2 0 .8.6 1.5 1.5 1.8L339 570h1.5l1.5-2.2h1v2.2zm-1.2-3.2c-.7 0-1.2-.4-1.2-1 0-.7.5-1.2 1.2-1.2h1.2v2.2h-1.2zm-67.3 16.4l2.3 2.8h1.6l-2.9-3.4 2.7-3H277l-2.3 2.6h-.3v-2.6H273v6.4h1.3v-2.8h.3zm7.5 3c1.8 0 3-1.3 3-3.4 0-2-1.2-3.3-3-3.3-1.9 0-3 1.3-3 3.3 0 2 1.1 3.3 3 3.3zm0-1.1c-1.1 0-1.7-.9-1.7-2.3s.6-2.2 1.7-2.2c1 0 1.7.8 1.7 2.2 0 1.4-.6 2.3-1.7 2.3zm5.7.9v-4.4h.1l1.9 4.2h1l1.8-4.2h.1v4.4h1.2v-6.4h-1.5l-2 4.7h-.2l-2-4.7h-1.6v6.4h1.2zm9.2 0v-4.4l2 4.2h.9l1.9-4.2v4.4h1.3v-6.4h-1.5l-2.1 4.7h-.1l-2-4.7h-1.6v6.4h1.2zm8.6 2.3c1.3 0 1.9-.5 2.4-2l2.4-6.7H309l-1.5 5.1h-.1l-1.6-5h-1.4l2.3 6.3-.1.3c-.2.7-.6 1-1.2 1a3 3 0 01-.4 0v1h.6zm10.2-2.3h1.3v-6.4h-1.3v2.6H313v-2.6h-1.2v6.4h1.2v-2.8h3v2.8zm4.4 0l2.9-4.5v4.5h1.3v-6.4h-1.2l-3 4.5v-4.5h-1.3v6.4h1.3zm7.6-2.8l2.3 2.8h1.6l-2.8-3.4 2.7-3H330l-2.3 2.6h-.3v-2.6h-1.3v6.4h1.3v-2.8h.3zm6.7 2.9c.8 0 1.5-.4 1.9-1v.9h1.3v-4.4c0-1.3-.9-2-2.5-2-1.4 0-2.5.6-2.6 1.7h1.2c.2-.5.6-.7 1.3-.7.9 0 1.3.3 1.3 1v.6l-1.7.1c-1.5.1-2.4.8-2.4 2 0 1 1 1.8 2.2 1.8zm.3-1c-.7 0-1.2-.4-1.2-1 0-.5.4-.8 1.3-.9l1.5-.1v.5c0 .9-.7 1.5-1.6 1.5zm11 2.6V585h-1v-5.4h-1.3v5.4h-2.8v-5.4h-1.2v6.4h5.1v1.7h1.2zm2.4-1.7l3-4.5v4.5h1.3v-6.4h-1.3l-2.9 4.5v-4.5H347v6.4h1.2zm9.5 0h1.3v-6.4h-2.5c-1.4 0-2.4.9-2.4 2.2 0 .8.5 1.5 1.4 1.8l-1.7 2.4h1.4l1.6-2.2h1v2.2zm-1.1-3.2c-.8 0-1.2-.4-1.2-1 0-.7.4-1.2 1.2-1.2h1.1v2.2h-1.1zM536.4 502.4V513h1.9v-3.5h2.3c2.1 0 3.6-1.4 3.6-3.5s-1.5-3.6-3.6-3.6h-4.2zm1.9 1.6h1.8c1.4 0 2.2.7 2.2 2s-.8 2-2.2 2h-1.8v-4zm10 9.1c1 0 2-.4 2.4-1.2v1.1h1.8v-5.5c0-1.7-1.1-2.7-3.2-2.7-1.9 0-3.2 1-3.3 2.3h1.7c.1-.5.7-.8 1.5-.8 1 0 1.5.4 1.5 1.2v.7l-2 .1c-2 .2-3 1-3 2.4 0 1.5 1 2.4 2.6 2.4zm.5-1.4c-.8 0-1.4-.4-1.4-1 0-.7.5-1.1 1.5-1.2h1.8v.6c0 1-.8 1.6-1.9 1.6zm9 1.5c2.1 0 3.4-1 3.4-2.6 0-.9-.5-1.5-1.6-1.7v-.1c.9-.2 1.4-.9 1.4-1.7 0-1.4-1.2-2.3-3-2.3-2 0-3.2 1-3.4 2.4h1.8c0-.6.6-1 1.5-1s1.3.5 1.3 1c0 .7-.4 1.1-1.4 1.1h-1.1v1.3h1.1c1 0 1.6.3 1.6 1s-.6 1.1-1.5 1.1c-1 0-1.5-.3-1.7-1h-1.8c.2 1.6 1.6 2.5 3.5 2.5zm9.8-8.3c-1 0-2 .5-2.5 1.4V505h-1.8v10.7h1.8v-4h.1c.4 1 1.3 1.4 2.4 1.4 2 0 3.3-1.6 3.3-4.1 0-2.6-1.2-4.1-3.3-4.1zm-.5 6.7c-1.3 0-2-1-2-2.6s.7-2.6 2-2.6c1.2 0 2 1 2 2.6s-.8 2.6-2 2.6zm8 1.5c1 0 2-.4 2.4-1.2h.1v1.1h1.7v-5.5c0-1.7-1.1-2.7-3.2-2.7-1.9 0-3.2 1-3.3 2.3h1.7c.1-.5.7-.8 1.5-.8 1 0 1.6.4 1.6 1.2v.7l-2.1.1c-2 .2-3 1-3 2.4 0 1.5 1 2.4 2.6 2.4zm.5-1.4c-.8 0-1.4-.4-1.4-1 0-.7.5-1.1 1.5-1.2h1.9v.6c0 1-.9 1.6-2 1.6zm9.6 1.5c2.4 0 3.9-1.6 3.9-4.1 0-2.4-1.4-3.9-3.5-3.9-1.4 0-2.2.6-2.7 1.5h-.1c.2-1.8.8-2.8 2.9-3h.9c1.4 0 2-.3 2-.3v-1.5s-.9.3-2.1.3h-1c-3 .2-4.2 2.2-4.2 6.2 0 3.2 1.4 4.8 4 4.8zm0-1.5c-1.3 0-2-1-2-2.6 0-1.5.7-2.4 2-2.4s2 .9 2 2.4c0 1.6-.7 2.6-2 2.6zm9.3 1.5c2.4 0 3.9-1.6 3.9-4.2s-1.5-4.2-3.9-4.2c-2.3 0-3.8 1.6-3.8 4.2s1.4 4.2 3.8 4.2zm0-1.5c-1.2 0-2-1-2-2.7 0-1.7.8-2.7 2-2.7 1.3 0 2 1 2 2.7 0 1.7-.7 2.7-2 2.7zM606 505h-6.7v1.4h2.4v6.6h1.8v-6.6h2.5V505zm4 4.5l2.6 3.5h2.2l-3.3-4.3 3.2-3.7h-2.1l-2.6 3.2h-.4V505h-1.9v8h1.9v-3.5h.4zm8.4 3.6c1 0 2-.4 2.4-1.2h.1v1.1h1.8v-5.5c0-1.7-1.2-2.7-3.3-2.7-1.9 0-3.2 1-3.3 2.3h1.7c.2-.5.7-.8 1.6-.8 1 0 1.5.4 1.5 1.2v.7l-2.1.1c-2 .2-3 1-3 2.4 0 1.5 1 2.4 2.6 2.4zm.6-1.4c-.9 0-1.4-.4-1.4-1 0-.7.4-1.1 1.5-1.2h1.8v.6c0 1-.9 1.6-2 1.6zM540 532c1.8 0 2.9-1 2.9-2.3 0-1-.7-1.7-1.8-1.8v-.1c.8-.2 1.4-1 1.4-1.8 0-1.2-1-2-2.5-2h-3.8v8h3.8zm-2-6.7h1.5c.9 0 1.2.4 1.2 1 0 .7-.4 1-1.3 1H538v-2zm0 3.2h1.5c1 0 1.5.4 1.5 1.1 0 .7-.4 1.1-1.3 1.1H538v-2.2zm8.7 3.5l3.4-5.4h.1v5.4h1.8v-8h-1.8l-3.4 5.4h-.1V524h-1.8v8h1.8zm10.7.2c2 0 3.4-1 3.4-2.6 0-.9-.6-1.5-1.7-1.7v-.1c.9-.2 1.4-.9 1.4-1.7 0-1.4-1.2-2.3-3-2.3-2 0-3.2 1-3.3 2.4h1.7c.1-.6.6-1 1.5-1s1.3.5 1.3 1c0 .7-.4 1.1-1.3 1.1h-1.2v1.3h1.2c1 0 1.6.3 1.6 1s-.6 1.1-1.6 1.1c-.9 0-1.5-.3-1.7-1H554c.1 1.6 1.6 2.5 3.4 2.5zm6 2.7c1.8 0 2.6-.7 3.3-2.6l2.9-8.3h-2l-1.8 6.3h-.1l-1.9-6.3h-2l2.9 8-.1.4c-.2.8-.7 1-1.4 1h-.5v1.5h.7zm9.9-2.8c1 0 1.9-.4 2.3-1.2h.2v1.1h1.7v-5.5c0-1.7-1.1-2.7-3.2-2.7-1.9 0-3.2 1-3.4 2.3h1.7c.2-.5.8-.8 1.6-.8 1 0 1.5.4 1.5 1.2v.7l-2 .1c-2 .2-3 1-3 2.4 0 1.5 1 2.4 2.6 2.4zm.5-1.4c-.8 0-1.4-.4-1.4-1 0-.7.5-1.1 1.5-1.2h1.8v.6c0 1-.8 1.6-1.9 1.6zm8.4-2.4l.2-2.9h2.4v6.6h1.8v-8h-5.8l-.2 4.2c-.1 1.3-.4 2.3-1.2 2.3h-.4v1.5h.6c1.9 0 2.5-1.4 2.6-3.7zm6.7 3.7h3.4c1.9 0 3.1-1 3.1-2.8 0-1.7-1.2-2.8-3-2.8h-1.7V524H589v8zm3.2-4.2c1 0 1.5.6 1.5 1.4 0 .8-.6 1.4-1.5 1.4h-1.4v-2.8h1.4zm10.4 4.2h1.8v-8h-1.8v3.2H599V524h-1.8v8h1.8v-3.4h3.4v3.4zm7.6.2c2.4 0 3.9-1.6 3.9-4.2s-1.5-4.2-3.9-4.2c-2.3 0-3.8 1.6-3.8 4.2s1.4 4.2 3.8 4.2zm0-1.5c-1.2 0-2-1-2-2.7 0-1.7.8-2.7 2-2.7 1.3 0 2 1 2 2.7 0 1.7-.7 2.7-2 2.7zm11.3-5.3V524H616v8h1.8v-6.6h3.6zm5 6.8c2.4 0 3.9-1.6 3.9-4.2s-1.5-4.2-3.9-4.2-3.8 1.6-3.8 4.2 1.4 4.2 3.8 4.2zm0-1.5c-1.3 0-2-1-2-2.7 0-1.7.7-2.7 2-2.7s2 1 2 2.7c0 1.7-.7 2.7-2 2.7zM537 553V551h5.8v2h1.6v-3.4h-1.2V543h-6l-.3 4.2c0 1-.3 2-1 2.4h-.5v3.5h1.6zm4.4-3.5h-3.5v-.1c.4-.5.6-1.3.6-2.2l.2-2.9h2.7v5.2zm6.4 1.4l3.4-5.4h.1v5.4h1.8v-8h-1.8l-3.4 5.4h-.1V543h-1.8v8h1.8zm10.7.2c2 0 3.4-1 3.4-2.6 0-.9-.6-1.5-1.7-1.7v-.1c.9-.2 1.4-.9 1.4-1.7 0-1.4-1.2-2.3-3-2.3-2 0-3.2 1-3.3 2.4h1.7c0-.6.6-1 1.5-1s1.3.5 1.3 1c0 .7-.4 1.1-1.4 1.1h-1v1.3h1c1.1 0 1.6.3 1.6 1s-.5 1.1-1.5 1.1-1.5-.3-1.7-1H555c.2 1.6 1.6 2.5 3.5 2.5zm7.5 0c1 0 2-.5 2.4-1.3h.1v1.1h1.8v-5.5c0-1.7-1.2-2.7-3.2-2.7s-3.3 1-3.4 2.3h1.7c.2-.5.8-.8 1.6-.8 1 0 1.5.4 1.5 1.2v.7l-2 .1c-2 .2-3.1 1-3.1 2.4 0 1.5 1.1 2.4 2.6 2.4zm.6-1.5c-.8 0-1.4-.4-1.4-1 0-.7.5-1.1 1.5-1.2h1.8v.6c0 1-.8 1.6-2 1.6zm7-10.4c0 1.4 1 2.5 2.6 2.5s2.7-1 2.7-2.5h-1.5c0 .8-.4 1.4-1.2 1.4-.8 0-1.2-.6-1.3-1.4h-1.4zm.8 11.7l3.4-5.4h.2v5.4h1.7v-8H578l-3.5 5.4V543h-1.9v8h1.8zm13 0h1.7v-8h-1.8v3.2h-3.4V543H582v8h1.8v-3.4h3.4v3.4zm6.3.1c1 0 2-.4 2.4-1.2h.1v1.1h1.8v-5.5c0-1.7-1.2-2.7-3.3-2.7-1.9 0-3.2 1-3.3 2.3h1.7c.2-.5.7-.8 1.6-.8 1 0 1.5.4 1.5 1.2v.7l-2.1.1c-2 .2-3 1-3 2.4 0 1.5 1 2.4 2.6 2.4zm.5-1.4c-.8 0-1.3-.4-1.3-1 0-.7.4-1.1 1.5-1.2h1.8v.6c0 1-.9 1.6-2 1.6zM443 571h6v1.7h1.3v-2.8h-1v-7.4h-5.7l-.3 5.2c0 1-.3 1.8-.9 2.2h-.6v2.8h1.2V571zm1.5-3.3l.3-4h3.1v6.2h-4v-.1c.5-.5.6-1.1.6-2zm8.4 3.3l3-4.5v4.5h1.3v-6.4h-1.3l-2.9 4.5v-4.5h-1.3v6.4h1.2zm8.5.1c1.6 0 2.6-.8 2.6-2 0-.7-.4-1.2-1.3-1.4.7-.2 1.1-.8 1.1-1.4 0-1-.9-1.8-2.3-1.8-1.5 0-2.4.7-2.6 1.8h1.3c0-.5.5-.8 1.2-.8.8 0 1.2.4 1.2.9 0 .6-.4.9-1.2.9h-1v1h1c.9 0 1.4.2 1.4.8 0 .6-.5 1-1.4 1-.7 0-1.2-.3-1.4-.8h-1.2c.1 1.1 1.2 1.8 2.6 1.8zm6 0c.9 0 1.6-.4 2-1v.9h1.3v-4.4c0-1.3-1-2-2.5-2s-2.5.6-2.7 1.7h1.3c.1-.5.6-.7 1.3-.7.9 0 1.3.3 1.3 1v.6l-1.7.1c-1.5.1-2.4.8-2.4 2 0 1 .9 1.8 2.1 1.8zm.4-1c-.7 0-1.2-.4-1.2-1 0-.5.4-.8 1.2-.9l1.6-.1v.5c0 .9-.7 1.5-1.6 1.5zm5.4-8.4c0 1.2.9 2 2.1 2 1.3 0 2.1-.8 2.1-2h-1c0 .7-.4 1.2-1 1.2-.7 0-1.1-.5-1.1-1.2h-1zm.6 9.3l3-4.5v4.5h1.3v-6.4h-1.3l-2.9 4.5v-4.5h-1.3v6.4h1.2zm10.4 0h1.2v-6.4h-1.2v2.6h-3v-2.6H480v6.4h1.3v-2.8h2.9v2.8zm-53.9 16h1.3v-6.4h-5.4v6.4h1.3v-5.4h2.8v5.4zm6 .1c1.8 0 3-1.2 3-3.3 0-2-1.2-3.3-3-3.3-2 0-3 1.3-3 3.3 0 2 1 3.3 3 3.3zm0-1c-1.2 0-1.8-.9-1.8-2.3s.6-2.2 1.7-2.2 1.7.8 1.7 2.2c0 1.4-.6 2.3-1.7 2.3zm7.5.9c1.4 0 2.2-.7 2.2-1.8 0-.8-.5-1.4-1.4-1.5.7-.2 1.1-.8 1.1-1.4 0-1-.7-1.7-2-1.7H441v6.4h2.9zm-1.7-5.4h1.4c.7 0 1 .3 1 .8 0 .6-.4.9-1.1.9H442v-1.7zm0 2.6h1.4c.8 0 1.2.3 1.2 1 0 .5-.4.9-1 .9H442v-1.9zm9.7 1c-.3.6-.8.9-1.5.9-1 0-1.7-.7-1.7-1.9h4.5v-.5c0-2-1.1-3.2-2.9-3.2-1.8 0-3 1.3-3 3.3 0 2 1.2 3.3 3 3.3 1.5 0 2.5-.7 2.8-1.8h-1.2zm-1.6-3.7c1 0 1.6.7 1.6 1.7h-3.2c0-1 .7-1.7 1.6-1.7zm7.8-1c-.9 0-1.6.5-2 1.2v-1h-1.3v8.4h1.3v-3c.4.6 1.1 1 2 1 1.6 0 2.7-1.3 2.7-3.3 0-2-1-3.3-2.7-3.3zm-.3 5.5c-1.1 0-1.8-.8-1.8-2.2 0-1.3.7-2.2 1.8-2.2 1 0 1.7.8 1.7 2.2 0 1.4-.7 2.2-1.7 2.2zm6.7-1.3l1.4 2.3h1.5l-2.2-3.2 2.1-3.2h-1.4l-1.3 2.3h-.1l-1.4-2.3h-1.5l2.2 3.2-2.1 3.2h1.3l1.4-2.3h.1zm8.5 2.3h1.2v-6.4H473v2.6h-3v-2.6h-1.2v6.4h1.3v-2.8h2.9v2.8zm5.9.1c1.8 0 3-1.2 3-3.3 0-2-1.2-3.3-3-3.3-1.9 0-3 1.3-3 3.3 0 2 1 3.3 3 3.3zm0-1c-1.1 0-1.8-.9-1.8-2.3s.7-2.2 1.8-2.2c1 0 1.7.8 1.7 2.2 0 1.4-.6 2.3-1.7 2.3zm10-3.4c-.2-1.3-1.1-2.2-2.7-2.2-1.9 0-3 1.3-3 3.3 0 2 1.1 3.3 3 3.3 1.6 0 2.5-.9 2.7-2.1h-1.2c-.2.7-.7 1-1.5 1-1 0-1.7-.8-1.7-2.2 0-1.4.6-2.2 1.7-2.2.8 0 1.3.5 1.5 1h1.2zm6-2h-5.2v1h2v5.3h1.2v-5.4h2v-1zm2.7 6.3l3-4.5v4.5h1.3v-6.4h-1.3l-2.9 4.5v-4.5h-1.3v6.4h1.2zM369 559h6v1.7h1.3v-2.8h-1v-7.4h-5.7l-.3 5.2c0 1-.3 1.8-.9 2.2h-.6v2.8h1.2V559zm1.5-3.3l.3-4h3.1v6.2h-4v-.1c.5-.5.6-1.1.6-2zm8.4 3.3l3-4.5v4.5h1.3v-6.4h-1.3l-2.9 4.5v-4.5h-1.3v6.4h1.2zm8.5.1c1.6 0 2.6-.8 2.6-2 0-.7-.4-1.2-1.3-1.4.7-.2 1.1-.8 1.1-1.4 0-1-.9-1.8-2.3-1.8-1.5 0-2.4.7-2.6 1.8h1.3c0-.5.5-.8 1.2-.8.8 0 1.2.4 1.2.9 0 .6-.4.9-1.2.9h-1v1h1c.9 0 1.4.2 1.4.8 0 .6-.5 1-1.4 1-.7 0-1.2-.3-1.4-.8h-1.2c.1 1.1 1.2 1.8 2.6 1.8zm6 0c.9 0 1.6-.4 2-1v.9h1.3v-4.4c0-1.3-1-2-2.5-2s-2.5.6-2.7 1.7h1.3c.1-.5.6-.7 1.3-.7.9 0 1.3.3 1.3 1v.6l-1.7.1c-1.5.1-2.4.8-2.4 2 0 1 .9 1.8 2.1 1.8zm.4-1c-.7 0-1.2-.4-1.2-1 0-.5.4-.8 1.2-.9l1.6-.1v.5c0 .9-.7 1.5-1.6 1.5zm5.4-8.4c0 1.2.9 2 2.1 2 1.3 0 2.1-.8 2.1-2h-1c0 .7-.4 1.2-1 1.2-.7 0-1.1-.5-1.1-1.2h-1zm.6 9.3l3-4.5v4.5h1.3v-6.4h-1.3l-2.9 4.5v-4.5h-1.3v6.4h1.2zm10.4 0h1.2v-6.4h-1.2v2.6h-3v-2.6H406v6.4h1.3v-2.8h2.9v2.8zm-38.5 16.1c1.9 0 3-1.2 3-3.2s-1-3.1-2.7-3.1c-1.1 0-1.8.5-2.2 1.2.1-1.5.6-2.4 2.2-2.5h.7c1.3 0 1.6-.3 1.6-.3v-1s-.6.2-1.6.2h-.7c-2.5.2-3.3 1.9-3.3 4.9 0 2.6 1.1 3.8 3 3.8zm0-1c-1 0-1.7-.8-1.7-2.2 0-1.3.6-2 1.7-2s1.8.7 1.8 2c0 1.4-.7 2.2-1.8 2.2zm8-5.6c-.8 0-1.6.5-2 1.2v-1h-1.3v8.4h1.3v-3c.4.6 1.1 1 2 1 1.6 0 2.7-1.3 2.7-3.3 0-2-1-3.3-2.7-3.3zm-.3 5.5c-1 0-1.8-.8-1.8-2.2 0-1.3.7-2.2 1.8-2.2 1 0 1.7.8 1.7 2.2 0 1.4-.7 2.2-1.7 2.2zm8.8-.7c-.3.5-.8.8-1.5.8-1 0-1.7-.7-1.7-1.9h4.5v-.5c0-2-1.1-3.2-2.9-3.2-1.8 0-3 1.3-3 3.3 0 2 1.2 3.3 3 3.3 1.5 0 2.5-.7 2.8-1.8h-1.2zm-1.6-3.8c1 0 1.6.7 1.6 1.7H385c0-1 .7-1.7 1.6-1.7zm8.7 5.5h1.2v-6.4h-1.2v2.6h-3v-2.6h-1.2v6.4h1.3v-2.8h2.9v2.8zm3.6 1.7V575h4.7v1.7h1.2V574h-1v-5.4h-4.6l-.3 3.5c0 .8-.2 1.6-.7 1.9h-.5v2.7h1.2zm3.6-2.7h-2.9v-.1c.3-.4.4-1 .5-1.8l.2-2.5h2.2v4.4zm5.3 1.1c.9 0 1.6-.4 2-1v.9h1.2v-4.4c0-1.3-.9-2-2.5-2-1.4 0-2.4.6-2.6 1.7h1.3c.1-.5.6-.7 1.3-.7.8 0 1.3.3 1.3 1v.6l-1.7.1c-1.6.1-2.4.8-2.4 2 0 1 .9 1.8 2.1 1.8zm.3-1c-.6 0-1.1-.4-1.1-1 0-.5.4-.8 1.2-.9l1.6-.1v.5c0 .9-.7 1.5-1.7 1.5zM476.8 466v-7.3h3.8v-1.2h-5.1v8.5h1.3zm6.1 0l3-4.5v4.5h1.3v-6.4h-1.3l-2.9 4.5h-.1v-4.5h-1.2v6.4h1.2zm6.6 1.7V466h4.8v1.7h1.1V465h-1v-5.4h-4.6l-.2 3.5c0 .8-.3 1.6-.7 1.9h-.6v2.7h1.2zm3.7-2.7h-3v-.1c.3-.4.5-1 .6-1.8l.1-2.5h2.3v4.4zm10.9 1h1.3v-6.4H500v6.4h1.2v-5.4h2.9v5.4zm5.9.1c1.8 0 3-1.2 3-3.3 0-2-1.2-3.3-3-3.3-1.9 0-3 1.3-3 3.3 0 2 1.1 3.3 3 3.3zm0-1c-1.1 0-1.7-.9-1.7-2.3s.6-2.2 1.7-2.2c1 0 1.7.8 1.7 2.2 0 1.4-.6 2.3-1.7 2.3zm-28.3 12.6c-.1-1.3-1.1-2.2-2.7-2.2-1.9 0-3 1.3-3 3.3 0 2 1.1 3.3 3 3.3 1.6 0 2.6-.9 2.7-2.1h-1.2c-.2.7-.7 1-1.5 1-1 0-1.7-.8-1.7-2.2 0-1.4.6-2.2 1.7-2.2.8 0 1.3.5 1.5 1h1.2zm6-2h-5.2v1h2v5.3h1.3v-5.4h2v-1zm2.7 6.3l3-4.5v4.5h1.3v-6.4h-1.3l-2.9 4.5v-4.5h-1.3v6.4h1.2zm8-2.9l.1-2.5h2v5.4h1.3v-6.4h-4.4l-.2 3.5c0 1-.3 1.8-1 1.8h-.3v1l.5.2c1.4 0 1.8-1.2 2-3zm10.6 3c1.9 0 3-1.2 3-3.3 0-2-1.1-3.3-3-3.3-1.6 0-2.7 1-2.9 2.7h-1v-2.6h-1.3v6.4h1.2v-2.8h1c.2 1.8 1.3 3 3 3zm0-1c-1 0-1.6-.9-1.6-2.3s.6-2.2 1.6-2.2 1.7.8 1.7 2.2c0 1.4-.6 2.3-1.7 2.3z" fill="#fff"/><path d="M444.7 380v-8.5h-6.9v8.5h1.3v-7.3h4.3v7.3h1.3zm5.4-6.5c-.9 0-1.6.5-2 1.2h-.1v-1h-1.2v8.4h1.2v-3h.1c.4.6 1 1 2 1 1.6 0 2.6-1.3 2.6-3.3 0-2-1-3.3-2.6-3.3zm-.4 5.5c-1 0-1.7-.8-1.7-2.2 0-1.3.7-2.2 1.7-2.2s1.7.8 1.7 2.2c0 1.4-.6 2.2-1.7 2.2zm7.3 1.1c2 0 3-1.2 3-3.3 0-2-1-3.3-3-3.3-1.8 0-3 1.3-3 3.3 0 2 1.2 3.3 3 3.3zm0-1c-1 0-1.7-.9-1.7-2.3s.7-2.2 1.7-2.2c1.1 0 1.8.8 1.8 2.2 0 1.4-.7 2.3-1.8 2.3zm10-3.4c0-1.3-1-2.2-2.6-2.2-1.9 0-3 1.3-3 3.3 0 2 1.1 3.3 3 3.3 1.5 0 2.5-.9 2.7-2.1h-1.2c-.2.7-.7 1-1.5 1-1 0-1.7-.8-1.7-2.2 0-1.4.6-2.2 1.7-2.2.8 0 1.3.5 1.5 1h1.2zm6.1-2H468v1h2v5.3h1.2v-5.4h2v-1zm4 6.4c1.8 0 3-1.2 3-3.3 0-2-1.2-3.3-3-3.3-2 0-3 1.3-3 3.3 0 2 1 3.3 3 3.3zm0-1c-1.2 0-1.8-.9-1.8-2.3s.6-2.2 1.7-2.2 1.8.8 1.8 2.2c0 1.4-.7 2.3-1.8 2.3zm9-5.5h-5.3v1h2v5.4h1.2v-5.4h2v-1zm3 6.5c.9 0 1.6-.4 2-1v.9h1.3v-4.4c0-1.3-1-2-2.5-2s-2.5.6-2.6 1.7h1.2c.1-.5.6-.7 1.3-.7.9 0 1.3.3 1.3 1v.6l-1.7.1c-1.5.1-2.4.8-2.4 2 0 1 1 1.8 2.1 1.8zm.4-1c-.7 0-1.2-.4-1.2-1 0-.5.4-.8 1.3-.9l1.5-.1v.5c0 .9-.7 1.5-1.6 1.5zM283.2 378v-8.5h-6.8v8.5h1.3v-7.3h4.2v7.3h1.3zm6.3-1.7c-.2.5-.7.8-1.5.8-1 0-1.6-.7-1.7-1.9h4.5v-.5c0-2-1-3.2-2.8-3.2-1.8 0-3 1.3-3 3.3 0 2 1.1 3.3 3 3.3 1.4 0 2.5-.7 2.7-1.8h-1.2zm-1.5-3.8c.9 0 1.5.7 1.5 1.7h-3.2c0-1 .7-1.7 1.7-1.7zm7.8-1c-1 0-1.7.5-2 1.2h-.1v-1h-1.3v8.4h1.3v-3h.1c.3.6 1 1 2 1 1.6 0 2.6-1.3 2.6-3.3 0-2-1-3.3-2.6-3.3zm-.4 5.5c-1 0-1.7-.8-1.7-2.2 0-1.3.6-2.2 1.7-2.2 1 0 1.7.8 1.7 2.2 0 1.4-.6 2.2-1.7 2.2zm7.7 1v2.1h1.2v-2c2 0 3.3-1.3 3.3-3.3 0-2-1.3-3.2-3.3-3.2v-2H303v2c-2 0-3.4 1.2-3.4 3.2s1.3 3.2 3.4 3.3zm0-1c-1.3 0-2-.8-2-2.2 0-1.4.7-2.2 2-2.2v4.5zm3.3-2.2c0 1.4-.9 2.2-2.1 2.3v-4.5c1.2 0 2 .8 2 2.2zm5.6 3.3c1.8 0 3-1.2 3-3.3 0-2-1.2-3.3-3-3.3-2 0-3 1.3-3 3.3 0 2 1 3.3 3 3.3zm0-1c-1.1 0-1.8-.9-1.8-2.3s.7-2.2 1.8-2.2c1 0 1.7.8 1.7 2.2 0 1.4-.7 2.3-1.7 2.3zm8-5.6c-1 0-1.7.5-2.1 1.2v-1h-1.3v8.4h1.3v-3c.4.6 1.1 1 2 1 1.6 0 2.7-1.3 2.7-3.3 0-2-1-3.3-2.7-3.3zm-.4 5.5c-1.1 0-1.8-.8-1.8-2.2 0-1.3.7-2.2 1.8-2.2 1 0 1.7.8 1.7 2.2 0 1.4-.7 2.2-1.7 2.2zm5.8 1v-4.4h.1l1.9 4.2h1l1.8-4.2h.1v4.4h1.2v-6.4H330l-2 4.7h-.2l-2-4.7h-1.6v6.4h1.2zm9.8.1c.9 0 1.6-.4 2-1v.9h1.3v-4.4c0-1.3-1-2-2.5-2s-2.5.6-2.6 1.7h1.2c.1-.5.6-.7 1.3-.7.9 0 1.3.3 1.3 1v.6l-1.7.1c-1.5.1-2.4.8-2.4 2 0 1 1 1.8 2.1 1.8zm.4-1c-.7 0-1.2-.4-1.2-1 0-.5.4-.8 1.3-.9l1.5-.1v.5c0 .9-.7 1.5-1.6 1.5zm9 .9h1.2v-6.4h-1.3v2.6h-2.9v-2.6h-1.2v6.4h1.2v-2.8h3v2.8zm8.5-4.3c-.1-1.3-1-2.2-2.7-2.2-1.9 0-3 1.3-3 3.3 0 2 1.2 3.3 3 3.3 1.6 0 2.6-.9 2.7-2.1H352c-.2.7-.7 1-1.5 1-1 0-1.7-.8-1.7-2.2 0-1.4.7-2.2 1.7-2.2.9 0 1.4.5 1.5 1h1.2zM362 494v-8.5h-6.8v8.5h1.3v-7.3h4.2v7.3h1.3zm4.8.1c1.9 0 3-1.2 3-3.3 0-2-1.1-3.3-3-3.3s-3 1.3-3 3.3c0 2 1.1 3.3 3 3.3zm0-1c-1 0-1.7-.9-1.7-2.3s.6-2.2 1.7-2.2c1 0 1.7.8 1.7 2.2 0 1.4-.6 2.3-1.7 2.3zm10-3.4c-.1-1.3-1-2.2-2.7-2.2-1.8 0-3 1.3-3 3.3 0 2 1.2 3.3 3 3.3 1.6 0 2.6-.9 2.7-2.1h-1.2c-.1.7-.7 1-1.5 1-1 0-1.7-.8-1.7-2.2 0-1.4.7-2.2 1.7-2.2.9 0 1.4.5 1.5 1h1.2zm3.3 1.4l.2-2.5h2v5.4h1.3v-6.4h-4.4l-.2 3.5c-.1 1-.3 1.8-1 1.8h-.3v1l.4.2c1.5 0 1.9-1.2 2-3zm9.6 1.2c-.2.5-.7.8-1.5.8-1 0-1.7-.7-1.7-1.9h4.5v-.5c0-2-1-3.2-2.8-3.2-1.8 0-3 1.3-3 3.3 0 2 1.1 3.3 3 3.3 1.4 0 2.4-.7 2.7-1.8h-1.2zm-1.6-3.8c1 0 1.6.7 1.6 1.7h-3.2c0-1 .7-1.7 1.6-1.7zm4.9 7.2V494h4.7v1.7h1.2V493h-1v-5.4h-4.6l-.2 3.5c0 .8-.3 1.6-.8 1.9h-.5v2.7h1.2zm3.6-2.7h-2.9v-.1c.3-.4.5-1 .5-1.8l.2-2.5h2.2v4.4zm6.3 1.1c1.8 0 3-1.2 3-3.3 0-2-1.2-3.3-3-3.3-1.9 0-3 1.3-3 3.3 0 2 1.1 3.3 3 3.3zm0-1c-1.1 0-1.7-.9-1.7-2.3s.6-2.2 1.7-2.2c1 0 1.7.8 1.7 2.2 0 1.4-.6 2.3-1.7 2.3zm7.5.9c1.4 0 2.3-.7 2.3-1.8 0-.8-.6-1.4-1.4-1.5.6-.2 1-.8 1-1.4 0-1-.7-1.7-2-1.7h-2.8v6.4h3zm-1.6-5.4h1.3c.7 0 1 .3 1 .8 0 .6-.3.9-1.1.9h-1.2v-1.7zm0 2.6h1.3c.8 0 1.3.3 1.3 1 0 .5-.4.9-1.1.9h-1.5v-1.9zm7.3 3c.8 0 1.5-.5 1.9-1.1v.9h1.3v-4.4c0-1.3-.9-2-2.5-2-1.4 0-2.5.6-2.6 1.7h1.2c.2-.5.6-.7 1.3-.7.9 0 1.3.3 1.3 1v.6l-1.7.1c-1.5.1-2.4.8-2.4 2 0 1 1 1.8 2.2 1.8zm.3-1.1c-.7 0-1.2-.4-1.2-1 0-.5.4-.8 1.3-.9l1.5-.1v.5c0 .9-.7 1.5-1.6 1.5zm8.6-2v-1h-3.8v1h3.8zm-59.5 12.5h-5.3v1h2v5.4h1.3v-5.4h2v-1zm5.4 4.7c-.3.5-.8.8-1.6.8-1 0-1.6-.7-1.7-1.9h4.5v-.5c0-2-1-3.2-2.8-3.2-1.8 0-3 1.3-3 3.3 0 2 1.2 3.3 3 3.3 1.5 0 2.5-.7 2.8-1.8h-1.2zm-1.6-3.8c1 0 1.5.7 1.6 1.7h-3.3c.1-1 .8-1.7 1.7-1.7zm6 2.6l.2-2.5h2v5.4h1.3v-6.4h-4.4l-.2 3.5c-.1 1-.3 1.8-1 1.8h-.3v1l.4.2c1.5 0 2-1.2 2-3zm5.4 2.9h2.6c1.4 0 2.4-.9 2.4-2.2 0-1.3-1-2.2-2.4-2.2H382v-2h-1.3v6.4zm2.5-3.4c.7 0 1.2.5 1.2 1.2s-.5 1.2-1.2 1.2H382v-2.4h1.2zm8.2 3.4h1.2v-6.4h-1.2v2.6h-3v-2.6h-1.2v6.4h1.3v-2.8h2.9v2.8zm5.9.1c1.8 0 3-1.2 3-3.3 0-2-1.2-3.3-3-3.3-1.9 0-3 1.3-3 3.3 0 2 1 3.3 3 3.3zm0-1c-1.1 0-1.8-.9-1.8-2.3s.7-2.2 1.8-2.2c1 0 1.7.8 1.7 2.2 0 1.4-.6 2.3-1.7 2.3zm10-3.4c-.2-1.3-1.1-2.2-2.7-2.2-1.9 0-3 1.3-3 3.3 0 2 1.1 3.3 3 3.3 1.6 0 2.5-.9 2.7-2.1h-1.2c-.2.7-.7 1-1.5 1-1 0-1.7-.8-1.7-2.2 0-1.4.6-2.2 1.7-2.2.8 0 1.3.5 1.5 1h1.2zm6-2h-5.2v1h2v5.3h1.2v-5.4h2v-1zm1.5 6.3h2.5c1.5 0 2.4-.9 2.4-2.2 0-1.3-1-2.2-2.4-2.2H416v-2h-1.2v6.4zm2.4-3.4c.7 0 1.2.5 1.2 1.2s-.4 1.2-1.2 1.2H416v-2.4h1.2z" fill="#000"/><path d="M539.5 392h1.3v-8.5h-1.3l-4.3 6.4v-6.4h-1.4v8.5h1.3l4.3-6.3v6.3zm7.5 0h1.3v-6.4H547v2.6h-2.9v-2.6H543v6.4h1.2v-2.8h3v2.8zm6.3 0v2.1h1.2v-2c2 0 3.3-1.3 3.3-3.3 0-2-1.3-3.2-3.3-3.2v-2h-1.2v2c-2 0-3.4 1.2-3.4 3.2s1.3 3.2 3.4 3.3zm0-1c-1.3 0-2.1-.8-2.1-2.2 0-1.4.8-2.2 2-2.2v4.5zm3.2-2.2c0 1.4-.8 2.2-2 2.3v-4.5c1.2 0 2 .8 2 2.2zm5.6 3.3c2 0 3-1.2 3-3.3 0-2-1-3.3-3-3.3-1.8 0-3 1.3-3 3.3 0 2 1.2 3.3 3 3.3zm0-1c-1 0-1.7-.9-1.7-2.3s.7-2.2 1.7-2.2c1.1 0 1.8.8 1.8 2.2 0 1.4-.7 2.3-1.8 2.3zm8-5.6c-.9 0-1.6.5-2 1.2h-.1v-1h-1.2v8.4h1.2v-3h.1c.4.6 1.1 1 2 1 1.6 0 2.6-1.3 2.6-3.3 0-2-1-3.3-2.6-3.3zm-.4 5.5c-1 0-1.7-.8-1.7-2.2 0-1.3.7-2.2 1.7-2.2 1.1 0 1.8.8 1.8 2.2 0 1.4-.7 2.2-1.8 2.2zm5.9 1v-4.4h.1l1.9 4.2h1l1.8-4.2v4.4h1.3v-6.4h-1.5l-2 4.7h-.2l-2-4.7h-1.6v6.4h1.2zm9.8.1c.9 0 1.6-.4 2-1v.9h1.3v-4.4c0-1.3-1-2-2.5-2s-2.5.6-2.7 1.7h1.3c.1-.5.6-.7 1.3-.7.9 0 1.3.3 1.3 1v.6l-1.7.1c-1.5.1-2.4.8-2.4 2 0 1 .9 1.8 2.1 1.8zm.4-1c-.7 0-1.2-.4-1.2-1 0-.5.4-.8 1.2-.9l1.6-.1v.5c0 .9-.7 1.5-1.6 1.5zm8.6-2v-1h-3.9v1h3.9zm-49.9 20.6V407h-1v-5.4h-1.2v5.4h-2.8v-5.4h-1.3v6.4h5.1v1.7h1.2zm2.5-1.7l3-4.5v4.5h1.3v-6.4h-1.2l-3 4.5v-4.5h-1.3v6.4h1.2zm9 .1c1.8 0 3-1.2 3-3.3 0-2-1.2-3.3-3-3.3-2 0-3 1.3-3 3.3 0 2 1 3.3 3 3.3zm0-1c-1.1 0-1.8-.9-1.8-2.3s.7-2.2 1.7-2.2c1.1 0 1.8.8 1.8 2.2 0 1.4-.7 2.3-1.8 2.3zm8.8.9h1.2v-6.4h-1.3v2.6h-2.9v-2.6h-1.2v6.4h1.2v-2.8h3v2.8zm7.3 0h1.3v-6.4H572v2.6h-2.9v-2.6h-1.3v6.4h1.3v-2.8h3v2.8zm9 0h1.2v-6.4h-1.2v6.4zm-5.8 0h2.5c1.5 0 2.4-.9 2.4-2.2 0-1.3-.9-2.2-2.4-2.2h-1.2v-2h-1.3v6.4zm2.4-3.4c.8 0 1.3.5 1.3 1.2s-.5 1.2-1.3 1.2h-1.1v-2.4h1.1zm7.3-5.9c0 1.2.8 2 2 2 1.3 0 2.1-.8 2.1-2h-1c0 .7-.4 1.2-1 1.2-.7 0-1.1-.5-1.1-1.2h-1zm.5 9.3l3-4.5v4.5h1.3v-6.4h-1.3l-2.9 4.5v-4.5h-1.3v6.4h1.2zm-41.8 17.7V424h4.8v1.7h1.1V423h-1v-5.4H544l-.2 3.5c0 .8-.3 1.6-.7 1.9h-.5v2.7h1.1zm3.7-2.7h-3v-.1c.4-.4.5-1 .6-1.8l.1-2.5h2.3v4.4zm4.8 1l2.9-4.5v4.5h1.3v-6.4h-1.2l-3 4.5v-4.5h-1.3v6.4h1.3zm8.5.1c1.5 0 2.6-.8 2.6-2 0-.7-.5-1.2-1.3-1.4.6-.2 1-.8 1-1.4 0-1.1-.8-1.8-2.3-1.8-1.5 0-2.4.7-2.5 1.8h1.2c0-.5.6-.8 1.3-.8.7 0 1.1.4 1.1.9 0 .6-.4.9-1.2.9h-.9v1h1c.8 0 1.3.2 1.3.8 0 .6-.5 1-1.3 1s-1.3-.3-1.4-.8H558c.1 1.1 1.2 1.8 2.7 1.8zm6 0c.8 0 1.5-.4 1.9-1v.9h1.3v-4.4c0-1.3-1-2-2.5-2s-2.5.6-2.6 1.7h1.2c.1-.5.6-.7 1.3-.7.9 0 1.3.3 1.3 1v.6l-1.7.1c-1.5.1-2.4.8-2.4 2 0 1 1 1.8 2.2 1.8zm.3-1c-.7 0-1.2-.4-1.2-1 0-.5.4-.8 1.3-.9l1.5-.1v.5c0 .9-.7 1.5-1.6 1.5zm5.5-8.4c0 1.2.8 2 2 2 1.3 0 2.1-.8 2.1-2h-1c0 .7-.4 1.2-1 1.2-.7 0-1-.5-1-1.2h-1.1zm.5 9.3l3-4.5v4.5h1.3v-6.4h-1.2l-3 4.5v-4.5h-1.3v6.4h1.2zm10.4 0h1.3v-6.4h-1.3v2.6h-2.9v-2.6h-1.2v6.4h1.2v-2.8h3v2.8zM494.8 338.2c2 0 3.2-1.5 3.2-3.7 0-2.3-1.2-3.7-3.2-3.7-1.9 0-3 1.2-3.3 3.1h-1.2v-3h-1v7.1h1v-3.1h1.2c.2 2 1.4 3.3 3.3 3.3zm0-6.4c1.3 0 2 1 2 2.7 0 1.6-.7 2.7-2 2.7-1.4 0-2.2-1-2.2-2.7 0-1.7.8-2.8 2.1-2.8zm6.5 6.3c1.3 0 2.2-.7 2.2-1.7 0-.6-.4-1-1-1.1v-.1c.5-.1.8-.6.8-1.1 0-1-.7-1.5-2-1.5-1.2 0-2 .6-2 1.5h1c0-.4.4-.7 1-.7.7 0 1 .3 1 .8 0 .4-.3.7-1 .7h-.8v.8h.8c.8 0 1.2.2 1.2.7 0 .5-.5.9-1.2.9-.6 0-1-.3-1.1-.7h-1c0 1 1 1.5 2.1 1.5zm5 0c.7 0 1.3-.3 1.6-.9h.1v.8h1v-3.6c0-1.1-.7-1.8-2-1.8s-2.1.6-2.2 1.5h1c.1-.4.5-.6 1-.6.8 0 1.2.3 1.2.9v.4l-1.5.1c-1.2.1-2 .7-2 1.6 0 1 .8 1.6 1.8 1.6zm.3-.9c-.6 0-1-.2-1-.7 0-.5.3-.8 1-.8l1.4-.1v.4c0 .7-.6 1.2-1.4 1.2zm6.3.9c1.6 0 2.5-1 2.5-2.7 0-1.6-1-2.6-2.3-2.6a2 2 0 00-1.8 1c0-1.2.5-2 1.9-2h.5c1 0 1.4-.3 1.4-.3v-.9l-1.4.3h-.6c-2 0-2.7 1.5-2.7 4 0 2.2.9 3.2 2.5 3.2zm0-.9c-1 0-1.5-.6-1.5-1.8 0-1 .6-1.7 1.5-1.7 1 0 1.4.6 1.4 1.7 0 1.2-.5 1.8-1.4 1.8zm5 .8l2.4-3.7v3.7h1v-5.3h-1l-2.4 3.7v-3.7h-1.1v5.3h1zm6.5-2.4l.2-2h1.7v4.4h1v-5.3h-3.6l-.2 2.9c0 .9-.3 1.5-.8 1.5a1 1 0 01-.3 0v.9h.4c1.2 0 1.5-.9 1.6-2.4zm5.6 2.4l2.4-3.7v3.7h1.1v-5.3h-1l-2.4 3.7h-.1v-3.7h-1v5.3h1zm9.1-5.3h-4.4v.8h1.7v4.5h1v-4.5h1.7v-.8zm2.2 5.3l2.5-3.7v3.7h1v-5.3h-1l-2.4 3.7v-3.7h-1.1v5.3h1zm-44 13l2.4-3.7h.1v3.7h1v-5.3h-1l-2.4 3.7v-3.7h-1.1v5.3h1zm8.7 0h1v-5.3h-1v2.1h-2.5v-2.1h-1v5.3h1v-2.3h2.5v2.3zm3.3 0l1.8-2.4h.3v2.4h1v-2.4h.3l1.7 2.4h1.3l-2.2-2.8 2.1-2.5h-1.2l-1.7 2.2h-.3v-2.2h-1v2.2h-.3l-1.7-2.2H508l2.1 2.5-2.1 2.8h1.2zm10.8-1.4c-.2.4-.6.6-1.3.6-.8 0-1.4-.6-1.4-1.5h3.8v-.4c0-1.7-1-2.7-2.4-2.7-1.5 0-2.5 1-2.5 2.8 0 1.7 1 2.7 2.5 2.7 1.2 0 2-.6 2.3-1.5h-1zm-1.3-3.2c.8 0 1.3.6 1.3 1.5h-2.7c0-.9.6-1.5 1.4-1.5zm7.2 4.6h1v-5.3h-1v2.1h-2.4v-2.1h-1v5.3h1v-2.3h2.4v2.3zm6.1-1.4c-.2.4-.6.6-1.2.6-.9 0-1.4-.6-1.4-1.5h3.7v-.4c0-1.7-.9-2.7-2.4-2.7s-2.4 1-2.4 2.8c0 1.7 1 2.7 2.4 2.7 1.3 0 2.1-.6 2.4-1.5h-1zm-1.3-3.2c.8 0 1.3.6 1.3 1.5h-2.6c0-.9.6-1.5 1.3-1.5zm7 2.2v-1h-3.3v1h3.2zm-26.3 10c-.7 0-1.3.4-1.6 1h-.1v-.9h-1v7h1v-2.5h.1c.3.6.9.9 1.6.9 1.4 0 2.2-1 2.2-2.8 0-1.6-.8-2.7-2.2-2.7zm-.3 4.6c-.8 0-1.4-.7-1.4-1.9 0-1 .6-1.8 1.4-1.8 1 0 1.5.7 1.5 1.8 0 1.2-.6 1.9-1.5 1.9zm5 .8l2.4-3.7v3.7h1v-5.3h-1l-2.4 3.7v-3.7H515v5.3h1zm8 0h1v-5.3h-2c-1.2 0-2 .7-2 1.8 0 .7.4 1.3 1.1 1.5l-1.4 2h1.2l1.3-1.8h.8v1.8zm-1-2.6c-.6 0-1-.4-1-1 0-.5.4-.9 1-.9h1v1.9h-1zM367 653v-8.5h-1.4l-2.7 6.7h-.1l-2.7-6.7h-1.6v8.5h1.3v-6.2l2.5 6h1l2.5-6v6.2h1.3zm4 .1c.8 0 1.5-.4 1.9-1v.9h1.3v-4.4c0-1.3-1-2-2.5-2s-2.5.6-2.6 1.7h1.2c.1-.5.6-.7 1.3-.7.9 0 1.3.3 1.3 1v.6l-1.7.1c-1.5.1-2.4.8-2.4 2 0 1 1 1.8 2.1 1.8zm.3-1c-.7 0-1.2-.4-1.2-1 0-.5.4-.8 1.3-.9l1.5-.1v.5c0 .9-.7 1.5-1.6 1.5zm8-5.6c-.8 0-1.5.5-2 1.2v-1h-1.2v8.4h1.2v-3h.1c.4.6 1.1 1 2 1 1.6 0 2.6-1.3 2.6-3.3 0-2-1-3.3-2.6-3.3zm-.3 5.5c-1 0-1.7-.8-1.7-2.2 0-1.3.7-2.2 1.7-2.2 1.1 0 1.7.8 1.7 2.2 0 1.4-.6 2.2-1.7 2.2zm6.3-1.8l2.2 2.8h1.6l-2.8-3.4 2.7-3h-1.5l-2.2 2.6h-.4v-2.6h-1.2v6.4h1.2v-2.8h.4zm9 1c-.2.6-.7.9-1.5.9-1 0-1.6-.7-1.7-1.9h4.5v-.5c0-2-1-3.2-2.8-3.2-1.8 0-3 1.3-3 3.3 0 2 1.2 3.3 3 3.3 1.5 0 2.5-.7 2.8-1.8h-1.2zm-1.5-3.7c1 0 1.5.7 1.6 1.7H391c.1-1 .8-1.7 1.7-1.7zm8.8-.9h-5.3v1h2v5.4h1.3v-5.4h2v-1zm2.7 6.4l2.9-4.5h.1v4.5h1.3v-6.4h-1.3l-3 4.5v-4.5H403v6.4h1.3zm10.4 0h1.2v-6.4h-1.2v2.6h-3v-2.6h-1.2v6.4h1.3v-2.8h2.9v2.8zm7.4-5.4v-1h-4.2v6.4h1.2v-5.4h3zM639 551c1.8 0 2.9-.9 2.9-2.4 0-1.1-.8-2-2-2v-.1c.9-.2 1.5-1 1.5-1.8 0-1.3-1-2.2-2.5-2.2h-3.4v8.5h3.5zm-2.2-7.4h1.8c1 0 1.5.5 1.5 1.3s-.6 1.2-1.7 1.2h-1.6v-2.5zm0 6.3v-2.8h1.8c1.3 0 2 .5 2 1.4 0 1-.7 1.4-1.9 1.4h-1.9zm9 1.2c1.5 0 2.6-.8 2.6-2 0-.7-.5-1.2-1.3-1.4.6-.2 1-.8 1-1.4 0-1-.8-1.8-2.3-1.8-1.5 0-2.4.7-2.5 1.8h1.2c0-.5.6-.8 1.3-.8.7 0 1.1.4 1.1.9 0 .6-.4.9-1.2.9h-.9v1h1c.8 0 1.3.2 1.3.8 0 .6-.5 1-1.4 1-.7 0-1.2-.3-1.3-.8H643c.1 1.1 1.2 1.8 2.7 1.8zm8.4-5.5v-1H650v6.4h1.3v-5.4h2.9zm2.8 2.5l.2-2.5h2v5.4h1.2v-6.4H656l-.2 3.5c0 1-.3 1.8-.9 1.8h-.3v1l.4.2c1.4 0 1.9-1.2 2-3zm8.8 2.9h1.3v-6.4h-2.5c-1.5 0-2.4.9-2.4 2.2 0 .8.5 1.5 1.4 1.8L662 551h1.4l1.6-2.2h1v2.2zm-1.1-3.2c-.8 0-1.3-.4-1.3-1 0-.7.5-1.2 1.3-1.2h1.1v2.2h-1.1zm4.7 4.9V551h4.8v1.7h1.1V550h-1v-5.4h-4.6l-.2 3.5c0 .8-.3 1.6-.7 1.9h-.6v2.7h1.2zm3.7-2.7h-3v-.1c.3-.4.5-1 .6-1.8l.1-2.5h2.3v4.4zm9.3 1h1.2v-6.4h-1.2v6.4zm-5.8 0h2.5c1.5 0 2.4-.9 2.4-2.2 0-1.3-.9-2.2-2.4-2.2H678v-2h-1.3v6.4zm2.4-3.4c.8 0 1.3.5 1.3 1.2s-.5 1.2-1.3 1.2H678v-2.4h1.1zM624.5 567l3-4.5v4.5h1.3v-6.4h-1.3l-2.9 4.5v-4.5h-1.3v6.4h1.2zm12.2.1c1.9 0 3-1.2 3-3.3 0-2-1.1-3.3-3-3.3-1.8 0-3 1.3-3 3.3 0 2 1.1 3.3 3 3.3zm0-1c-1 0-1.7-.9-1.7-2.3s.6-2.2 1.7-2.2 1.7.8 1.7 2.2c0 1.4-.6 2.3-1.7 2.3zm4.7.9h8v1.7h1.1V566h-1v-5.4h-1.2v5.4H646v-5.4h-1.3v5.4h-2.2v-5.4h-1.2v6.4zm11 2.3c1.3 0 2-.5 2.5-2l2.3-6.7H656l-1.6 5.1-1.7-5h-1.4l2.3 6.3v.3c-.3.7-.6 1-1.2 1a3 3 0 01-.4 0v1h.5zm6.2-2.3h8v1.7h1.2V566h-1v-5.4h-1.2v5.4h-2.2v-5.4H662v5.4h-2.2v-5.4h-1.3v6.4zm14.7-1.7c-.2.5-.8.8-1.5.8-1 0-1.7-.7-1.7-1.9h4.5v-.5c0-2-1-3.2-2.9-3.2-1.8 0-3 1.3-3 3.3 0 2 1.2 3.3 3 3.3 1.5 0 2.5-.7 2.8-1.8h-1.2zm-1.6-3.8c1 0 1.6.7 1.6 1.7h-3.2c0-1 .7-1.7 1.6-1.7zm8.7 5.5h1.2v-6.4h-1.2v2.6h-3v-2.6h-1.2v6.4h1.3v-2.8h2.9v2.8zm4.4 0l3-4.5v4.5h1.3v-6.4h-1.3l-2.9 4.5v-4.5h-1.3v6.4h1.2zm9.7 0h1.2v-6.4h-2.4c-1.5 0-2.5.9-2.5 2.2 0 .8.6 1.5 1.4 1.8l-1.7 2.4h1.5l1.5-2.2h1v2.2zm-1.2-3.2c-.7 0-1.2-.4-1.2-1 0-.7.5-1.2 1.2-1.2h1.2v2.2h-1.2zM175.2 310v-8.5h-6.8v8.5h1.3v-7.3h4.2v7.3h1.3zm5.4-6.5c-.9 0-1.6.5-2 1.2v-1h-1.3v8.4h1.3v-3c.4.6 1.1 1 2 1 1.6 0 2.7-1.3 2.7-3.3 0-2-1-3.3-2.7-3.3zm-.3 5.5c-1.1 0-1.8-.8-1.8-2.2 0-1.3.7-2.2 1.8-2.2 1 0 1.7.8 1.7 2.2 0 1.4-.7 2.2-1.8 2.2zm8.8-.7c-.3.5-.8.8-1.5.8-1 0-1.7-.7-1.7-1.9h4.5v-.5c0-2-1.1-3.2-2.9-3.2-1.8 0-3 1.3-3 3.3 0 2 1.2 3.3 3 3.3 1.5 0 2.5-.7 2.8-1.8H189zm-1.6-3.8c1 0 1.6.7 1.6 1.7h-3.2c0-1 .7-1.7 1.6-1.7zm4.8 7.2V310h4.8v1.7h1.2V309h-1v-5.4h-4.6l-.3 3.5c0 .8-.2 1.6-.7 1.9h-.5v2.7h1.2zm3.7-2.7h-3v-.1c.4-.4.5-1 .6-1.8l.2-2.5h2.2v4.4zm5.3-1.9l.2-2.5h2v5.4h1.2v-6.4h-4.4l-.2 3.5c0 1-.3 1.8-.9 1.8h-.3v1l.4.2c1.4 0 1.9-1.2 2-3zm8 3c2 0 3-1.2 3-3.3 0-2-1-3.3-3-3.3-1.8 0-3 1.3-3 3.3 0 2 1.2 3.3 3 3.3zm0-1c-1 0-1.6-.9-1.6-2.3s.6-2.2 1.7-2.2c1 0 1.7.8 1.7 2.2 0 1.4-.6 2.3-1.7 2.3zm8.5-2v-1H214v1h3.8zM175.5 326l2.1-2.8h.4v2.8h1.2v-2.8h.4l2 2.8h1.6l-2.6-3.4 2.5-3h-1.5l-2 2.7h-.4v-2.7H178v2.7h-.4l-2-2.7H174l2.5 3-2.6 3.4h1.5zm13-1.7c-.3.5-.8.8-1.6.8-1 0-1.6-.7-1.7-1.9h4.5v-.5c0-2-1-3.2-2.8-3.2-1.8 0-3 1.3-3 3.3 0 2 1.2 3.3 3 3.3 1.4 0 2.5-.7 2.7-1.8h-1.2zm-1.6-3.8c.9 0 1.5.7 1.5 1.7h-3.2c0-1 .7-1.7 1.7-1.7zm8.6 5.5h1.3v-6.4h-1.3v2.6h-2.9v-2.6h-1.3v6.4h1.3v-2.8h3v2.8zm4.5 0l2.9-4.5v4.5h1.3v-6.4H203l-3 4.5v-4.5h-1.3v6.4h1.3zm10.3-1.7c-.2.5-.7.8-1.5.8-1 0-1.6-.7-1.7-1.9h4.5v-.5c0-2-1-3.2-2.8-3.2-1.8 0-3 1.3-3 3.3 0 2 1.2 3.3 3 3.3 1.5 0 2.5-.7 2.8-1.8h-1.3zm-1.5-3.8c1 0 1.5.7 1.6 1.7H207c.1-1 .8-1.7 1.7-1.7zM336.7 111.3v.8h1.3v-.8c2.3-.1 3.8-1.4 3.8-3.5 0-2.2-1.5-3.5-3.8-3.6v-.8h-1.3v.8c-2.2.1-3.8 1.4-3.8 3.5 0 2.2 1.6 3.5 3.8 3.5zm0-1.2c-1.5 0-2.4-1-2.4-2.4s1-2.3 2.4-2.3v4.7zm3.8-2.3c0 1.4-1 2.3-2.5 2.3v-4.7c1.5 0 2.5 1 2.5 2.4zm3.6 6.5c1.3 0 1.9-.5 2.4-2l2.4-6.7h-1.3l-1.6 5.1h-.1l-1.6-5h-1.4l2.3 6.3v.3c-.3.7-.6 1-1.2 1a3 3 0 01-.4 0v1h.5zm10.4-2.3h1.2v-6.4h-1.2v2.6h-3v-2.6h-1.2v6.4h1.3v-2.8h2.9v2.8zm4.8-2.8l2.2 2.8h1.6l-2.8-3.4 2.7-3h-1.5l-2.2 2.6h-.4v-2.6h-1.2v6.4h1.2v-2.8h.4zm11.5 4.5V111h-1v-5.4h-1.3v5.4h-2.8v-5.4h-1.2v6.4h5.1v1.7h1.2zm2.5-1.7l3-4.5v4.5h1.3v-6.4h-1.3l-2.9 4.5h-.1v-4.5h-1.2v6.4h1.2zm9 .1c1.8 0 3-1.2 3-3.3 0-2-1.2-3.3-3-3.3-2 0-3.1 1.3-3.1 3.3 0 2 1.1 3.3 3 3.3zm0-1c-1.2 0-1.8-.9-1.8-2.3s.6-2.2 1.7-2.2 1.7.8 1.7 2.2c0 1.4-.6 2.3-1.7 2.3zm8.7.9h1.3v-6.4H391v2.6h-2.9v-2.6h-1.3v6.4h1.3v-2.8h3v2.8zm5 .1c.8 0 1.5-.4 1.9-1v.9h1.3v-4.4c0-1.3-.9-2-2.5-2-1.4 0-2.5.6-2.6 1.7h1.2c.1-.5.6-.7 1.3-.7.9 0 1.3.3 1.3 1v.6l-1.7.1c-1.5.1-2.4.8-2.4 2 0 1 1 1.8 2.2 1.8zm.3-1c-.7 0-1.2-.4-1.2-1 0-.5.4-.8 1.3-.9l1.5-.1v.6c0 .8-.7 1.4-1.6 1.4zm6.5-2l.2-2.5h2v5.4h1.3v-6.4h-4.4l-.2 3.5c-.1 1-.3 1.8-1 1.8h-.3v1l.4.2c1.5 0 2-1.2 2-3zm5.4 2.9h2.5c1.5 0 2.5-.8 2.5-2.2 0-1.3-1-2.2-2.5-2.2h-1.2v-2h-1.3v6.4zm2.5-3.4c.7 0 1.2.5 1.2 1.2s-.5 1.2-1.2 1.2h-1.2v-2.4h1.2zm8.2 3.4h1.2v-6.4H419v2.6h-3v-2.6h-1.2v6.4h1.3v-2.8h2.9v2.8zm5.9.1c1.8 0 3-1.2 3-3.3 0-2-1.2-3.3-3-3.3-2 0-3 1.3-3 3.3 0 2 1 3.3 3 3.3zm0-1c-1.1 0-1.8-.9-1.8-2.3s.7-2.2 1.8-2.2c1 0 1.7.8 1.7 2.2 0 1.4-.7 2.3-1.7 2.3zm10-3.4c-.2-1.3-1.1-2.2-2.7-2.2-1.9 0-3 1.3-3 3.3 0 2 1.1 3.3 3 3.3 1.6 0 2.5-.9 2.7-2.1h-1.2c-.2.7-.7 1-1.5 1-1 0-1.7-.8-1.7-2.2 0-1.4.6-2.2 1.7-2.2.8 0 1.3.5 1.5 1h1.2zm6-2h-5.2v1h2v5.3h1.2v-5.4h2v-1zm1.5 6.3h2.5c1.5 0 2.4-.8 2.4-2.2 0-1.3-1-2.2-2.4-2.2h-1.3v-2h-1.2v6.4zm2.4-3.4c.7 0 1.2.5 1.2 1.2s-.4 1.2-1.2 1.2h-1.2v-2.4h1.2zM327.2 205v-10.6h-8.7V205h1.9v-9h5v9h1.8zm7-8.1c-1.1 0-2 .5-2.5 1.4h-.1V197h-1.8v10.7h1.8v-4h.2c.4 1 1.2 1.4 2.4 1.4 2 0 3.3-1.6 3.3-4.1 0-2.6-1.3-4.1-3.3-4.1zm-.6 6.7c-1.2 0-2-1-2-2.6s.8-2.6 2-2.6c1.3 0 2 1 2 2.6s-.7 2.6-2 2.6zm9.3 1.6c2.4 0 3.9-1.6 3.9-4.2s-1.5-4.2-3.9-4.2-3.8 1.6-3.8 4.2 1.4 4.2 3.8 4.2zm0-1.5c-1.3 0-2-1-2-2.7 0-1.7.7-2.7 2-2.7s2 1 2 2.7c0 1.7-.7 2.7-2 2.7zm11.5-6.7h-6.8v1.4h2.5v6.6h1.8v-6.6h2.5V197zm5 8.2c2.3 0 3.8-1.6 3.8-4.2s-1.5-4.2-3.9-4.2-3.8 1.6-3.8 4.2 1.4 4.2 3.8 4.2zm0-1.5c-1.4 0-2-1-2-2.7 0-1.7.6-2.7 2-2.7 1.2 0 1.9 1 1.9 2.7 0 1.7-.7 2.7-2 2.7zm11.4-6.7H364v1.4h2.5v6.6h1.8v-6.6h2.5V197zm3.5 8l3.4-5.4h.1v5.4h1.8v-8h-1.8l-3.4 5.4h-.1V197h-1.8v8h1.8zm12.8 0h1.8v-8H382v8h1.8v-6.6h3.3v6.6zm6 0l3.4-5.4h.1v5.4h1.8v-8h-1.8l-3.4 5.4V197h-1.9v8h1.8zm12-8.1c-1 0-2 .5-2.4 1.4h-.1V197h-1.8v10.7h1.8v-4h.2c.4 1 1.3 1.4 2.4 1.4 2 0 3.3-1.6 3.3-4.1 0-2.6-1.3-4.1-3.3-4.1zm-.5 6.7c-1.2 0-2-1-2-2.6s.8-2.6 2-2.6c1.3 0 2 1 2 2.6s-.7 2.6-2 2.6zm9.3 1.6c2.4 0 3.9-1.6 3.9-4.2s-1.5-4.2-3.9-4.2-3.8 1.6-3.8 4.2 1.4 4.2 3.8 4.2zm0-1.5c-1.3 0-2-1-2-2.7 0-1.7.7-2.7 2-2.7s2 1 2 2.7c0 1.7-.7 2.7-2 2.7zm9.7 1.3c1.7 0 2.8-1 2.8-2.3 0-1-.7-1.7-1.7-1.8v-.1c.8-.2 1.4-1 1.4-1.8 0-1.2-1-2-2.6-2h-3.8v8h3.9zm-2-6.7h1.5c.8 0 1.2.4 1.2 1 0 .7-.4 1-1.3 1h-1.5v-2zm0 3.2h1.5c1 0 1.5.4 1.5 1.1 0 .7-.5 1.1-1.3 1.1h-1.8v-2.2zm9 3.6c1 0 2-.4 2.4-1.2h.1v1.1h1.8v-5.5c0-1.7-1.2-2.7-3.2-2.7s-3.3 1-3.4 2.3h1.7c.2-.5.8-.8 1.6-.8 1 0 1.5.4 1.5 1.2v.7l-2 .1c-2 .2-3.1 1-3.1 2.4 0 1.5 1.1 2.4 2.6 2.4zm.6-1.4c-.8 0-1.4-.4-1.4-1 0-.7.5-1.1 1.5-1.2h1.8v.6c0 1-.8 1.6-2 1.6zm11.2 1.3h1.8v-8h-1.8v3.2H439V197h-1.8v8h1.8v-3.4h3.4v3.4zm6 0l3.4-5.4h.1v5.4h1.8v-8H452l-3.4 5.4h-.1V197h-1.8v8h1.8zm13-2.2c-.3.6-1 1-1.9 1-1.1 0-2-.9-2-2.3h5.6v-.6c0-2.5-1.3-4-3.6-4s-3.8 1.6-3.8 4.1c0 2.6 1.4 4.2 3.8 4.2 1.9 0 3.2-1 3.6-2.4h-1.8zm-2-4.5c1.2 0 1.9.7 2 2h-3.9c.1-1.3.9-2 2-2zM257.3 275v-3.5h3.6v-1.1h-3.6v-2.7h4v-1.2H256v8.5h1.3zm5.5 0h1.3v-3.8c0-.9.7-1.5 1.6-1.5h.7v-1.1h-.5c-.9 0-1.6.4-1.8 1v-1h-1.3v6.4zm7.4.1c1.8 0 3-1.2 3-3.3 0-2-1.2-3.3-3-3.3-1.9 0-3 1.3-3 3.3 0 2 1.1 3.3 3 3.3zm0-1c-1.1 0-1.7-.9-1.7-2.3s.6-2.2 1.7-2.2c1 0 1.7.8 1.7 2.2 0 1.4-.6 2.3-1.7 2.3zm4.5.9h1.3v-3.7c0-1 .5-1.7 1.5-1.7s1.4.5 1.4 1.6v3.8h1.2v-4.1c0-1.5-.8-2.4-2.2-2.4-1 0-1.6.4-1.9 1.1v-1h-1.3v6.4zm7.6-8v1.7h-1v1h1v3.6c0 1.2.6 1.7 2 1.7h.7v-1h-.5c-.6 0-.9-.3-.9-1v-3.3h1.4v-1h-1.4V267h-1.3zm7.8 5.2V271h-3.8v1.2h3.8zm7.4 1.7h-4v-2.7h3.8v-1h-3.9v-2.5h4v-1.2h-5.3v8.5h5.4v-1.1zm1.7 1.1h1.3v-3.7c0-1 .6-1.7 1.5-1.7 1 0 1.4.5 1.4 1.6v3.8h1.3v-4.1c0-1.5-.8-2.4-2.2-2.4-1 0-1.6.4-2 1.1v-1h-1.3v6.4zm9.6.1c.9 0 1.6-.4 2-1.1v1h1.3v-8.9h-1.3v3.5c-.4-.7-1.2-1-2-1-1.6 0-2.7 1.2-2.7 3.2s1 3.3 2.7 3.3zm.3-5.5c1 0 1.7.9 1.7 2.2 0 1.4-.6 2.2-1.7 2.2-1 0-1.7-.8-1.7-2.2 0-1.4.7-2.2 1.7-2.2zm-50 21.4h1.3v-6.4h-5.3v6.4h1.2v-5.4h2.9v5.4zm6.6-6.5c-.9 0-1.6.5-2 1.2h-.1v-1h-1.2v8.4h1.2v-3h.1c.4.6 1 1 2 1 1.6 0 2.6-1.3 2.6-3.3 0-2-1-3.3-2.6-3.3zm-.4 5.5c-1 0-1.7-.8-1.7-2.2 0-1.3.7-2.2 1.7-2.2s1.7.8 1.7 2.2c0 1.4-.6 2.2-1.7 2.2zm7.4 1.1c1.8 0 3-1.2 3-3.3 0-2-1.2-3.3-3-3.3-2 0-3 1.3-3 3.3 0 2 1 3.3 3 3.3zm0-1c-1.1 0-1.8-.9-1.8-2.3s.7-2.2 1.8-2.2c1 0 1.7.8 1.7 2.2 0 1.4-.7 2.3-1.7 2.3zm11 2.6V290h-1v-5.4h-1.3v5.4h-2.8v-5.4h-1.3v6.4h5.1v1.7h1.2zm5.4-3.4c-.3.5-.8.8-1.5.8-1 0-1.7-.7-1.7-1.9h4.5v-.5c0-2-1.1-3.2-2.9-3.2-1.8 0-3 1.3-3 3.3 0 2 1.2 3.3 3 3.3 1.5 0 2.5-.7 2.8-1.8H289zm-1.6-3.8c1 0 1.6.7 1.6 1.7h-3.2c0-1 .7-1.7 1.6-1.7zm9.9 1.2c-.2-1.3-1.1-2.2-2.7-2.2-1.9 0-3 1.3-3 3.3 0 2 1.1 3.3 3 3.3 1.5 0 2.5-.9 2.7-2.1h-1.2c-.2.7-.7 1-1.5 1-1 0-1.7-.8-1.7-2.2 0-1.4.6-2.2 1.7-2.2.8 0 1.3.5 1.5 1h1.2zm7 0c-.2-1.3-1.2-2.2-2.8-2.2-1.8 0-3 1.3-3 3.3 0 2 1.2 3.3 3 3.3 1.6 0 2.6-.9 2.7-2.1h-1.2c-.1.7-.7 1-1.5 1-1 0-1.7-.8-1.7-2.2 0-1.4.7-2.2 1.7-2.2.9 0 1.4.5 1.5 1h1.2zm7.3 4.3h1.2v-6.4h-1.2v6.4zm-5.8 0h2.5c1.5 0 2.4-.9 2.4-2.2 0-1.3-1-2.2-2.4-2.2h-1.2v-2h-1.3v6.4zm2.4-3.4c.8 0 1.3.5 1.3 1.2s-.5 1.2-1.3 1.2h-1.1v-2.4h1.1zM242 336h1.2v-7h-1l-3.7 5.3V329h-1.1v7h1l3.6-5.3v5.3zm6.4 0h1v-5.3h-1v2.1H246v-2.1h-1v5.3h1v-2.3h2.4v2.3zm6.6-5.3h-4.4v.8h1.7v4.5h1v-4.5h1.7v-.8zm4.5 3.9c-.2.4-.6.6-1.2.6-.9 0-1.4-.6-1.5-1.5h3.8v-.4c0-1.7-.9-2.7-2.4-2.7s-2.4 1-2.4 2.8c0 1.7.9 2.7 2.4 2.7 1.2 0 2.1-.6 2.3-1.5h-1zm-1.3-3.2c.8 0 1.3.6 1.3 1.5h-2.7c0-.9.6-1.5 1.4-1.5zm6.5-.8c-.7 0-1.3.4-1.7 1v-.9h-1v7h1v-2.5c.4.6 1 .9 1.7.9 1.4 0 2.2-1 2.2-2.8 0-1.6-.8-2.7-2.2-2.7zm-.3 4.6c-.9 0-1.4-.7-1.4-1.9 0-1 .5-1.8 1.4-1.8.9 0 1.4.7 1.4 1.8 0 1.2-.5 1.9-1.4 1.9zm5.3.9c.7 0 1.3-.3 1.6-.9h.1v.8h1v-3.6c0-1.1-.7-1.8-2-1.8s-2.1.6-2.2 1.5h1c.1-.4.5-.6 1.1-.6.7 0 1 .3 1 .9v.4l-1.3.1c-1.3.1-2 .7-2 1.6 0 1 .7 1.6 1.7 1.6zm.3-.9c-.6 0-1-.2-1-.7 0-.5.4-.8 1-.8l1.4-.1v.4c0 .7-.6 1.2-1.4 1.2zm5.4-1.5l1.9 2.3h1.3l-2.4-2.8 2.3-2.5h-1.3l-1.9 2.2h-.2v-2.2h-1v5.3h1v-2.3h.3zm7.4 0v-1h-3.2v1h3.2zm-37.8 10h-4.4v.8h1.7v4.5h1v-4.5h1.7v-.8zm2.2 5.3l2.4-3.7h.1v3.7h1v-5.3h-1l-2.4 3.7h-.1v-3.7h-1v5.3h1zm7.6 0c1.2 0 1.9-.6 1.9-1.5 0-.7-.5-1.1-1.2-1.2v-.1c.5-.1 1-.6 1-1.1 0-.9-.7-1.4-1.7-1.4h-2.4v5.3h2.4zm-1.4-4.5h1.2c.5 0 .8.3.8.7 0 .5-.3.7-1 .7h-1v-1.4zm0 2.2h1.1c.7 0 1.1.2 1.1.7 0 .5-.3.8-1 .8h-1.2v-1.5zm8.1 2.3h1v-5.3h-1v2.1h-2.4v-2.1h-1v5.3h1v-2.3h2.4v2.3zm7.5 0h1v-5.3h-1v5.3zm-4.8 0h2c1.3 0 2-.7 2-1.8s-.7-1.9-2-1.9h-1v-1.6h-1v5.3zm2-2.8c.6 0 1 .4 1 1s-.4 1-1 1h-1v-2h1zm6-5c0 1 .7 1.7 1.8 1.7 1 0 1.7-.7 1.7-1.6h-.9c0 .5-.3 1-.8 1-.6 0-1-.5-1-1h-.8zm.5 7.8l2.4-3.7h.1v3.7h1v-5.3h-1l-2.4 3.7h-.1v-3.7h-1v5.3h1zM243 363.4V362h4v1.4h1v-2.2h-.9v-4.5h-3.8l-.2 2.9c0 .7-.2 1.3-.6 1.6h-.5v2.2h1zm3-2.2h-2.4v-.1c.3-.4.4-.9.4-1.5l.2-2h1.9v3.6zm4 .8l2.5-3.7v3.7h1v-5.3h-1l-2.4 3.7v-3.7H249v5.3h1zm7.1.1c1.3 0 2.2-.7 2.2-1.7 0-.6-.4-1-1-1.1v-.1c.5-.1.8-.6.8-1.1 0-1-.7-1.5-2-1.5-1.2 0-2 .6-2 1.5h1c0-.4.4-.7 1-.7.7 0 1 .3 1 .8 0 .4-.3.7-1 .7h-.8v.8h.8c.7 0 1.1.2 1.1.7 0 .5-.4.9-1 .9-.7 0-1.1-.3-1.2-.7h-1c0 1 1 1.5 2.1 1.5zm5 0c.7 0 1.3-.3 1.6-.9h.1v.8h1v-3.6c0-1.1-.7-1.8-2-1.8s-2.1.6-2.2 1.5h1c0-.4.5-.6 1-.6.8 0 1.2.3 1.2.9v.4l-1.5.1c-1.2.1-2 .7-2 1.6 0 1 .8 1.6 1.8 1.6zm.3-.9c-.6 0-1-.2-1-.7 0-.5.3-.8 1-.8l1.4-.1v.4c0 .7-.6 1.2-1.4 1.2zm4.6-7c0 1 .7 1.7 1.7 1.7s1.7-.7 1.7-1.6h-.8c0 .5-.4 1-.9 1s-.9-.5-.9-1h-.8zm.4 7.8l2.5-3.7v3.7h1v-5.3h-1l-2.4 3.7v-3.7h-1.1v5.3h1zm8.7 0h1v-5.3h-1v2.1h-2.4v-2.1h-1v5.3h1v-2.3h2.4v2.3zM193.7 395c1.8 0 2.9-.9 2.9-2.4 0-1.1-.8-2-2-2v-.1c1-.2 1.6-1 1.6-1.8 0-1.3-1-2.2-2.6-2.2h-3.4v8.5h3.5zm-2.2-7.4h1.8c1 0 1.6.5 1.6 1.3s-.6 1.2-1.8 1.2h-1.6v-2.5zm0 6.3v-2.8h1.9c1.2 0 1.8.5 1.8 1.4 0 1-.6 1.4-1.8 1.4h-1.9zm8.4 1.2c.8 0 1.5-.4 2-1v.9h1.2v-4.4c0-1.3-.9-2-2.5-2-1.4 0-2.5.6-2.6 1.7h1.2c.2-.5.7-.7 1.4-.7.8 0 1.3.3 1.3 1v.6l-1.8.1c-1.5.1-2.3.8-2.3 2 0 1 .9 1.8 2.1 1.8zm.3-1c-.7 0-1.2-.4-1.2-1 0-.5.4-.8 1.3-.9l1.6-.1v.5c0 .9-.7 1.5-1.7 1.5zm10.1-3.4c-.1-1.3-1.1-2.2-2.7-2.2-1.9 0-3 1.3-3 3.3 0 2 1.1 3.3 3 3.3 1.6 0 2.6-.9 2.7-2.1h-1.2c-.2.7-.7 1-1.5 1-1 0-1.7-.8-1.7-2.2 0-1.4.6-2.2 1.7-2.2.8 0 1.3.5 1.5 1h1.2zm2.9.6h-.1v-5.2h-1.3v8.9h1.3v-2.3l.5-.5 2.2 2.8h1.6l-2.8-3.6 2.6-2.8h-1.5l-2.5 2.7zm8.7.9V391h-3.8v1.2h3.8zm7.4 1.7h-4v-2.7h3.7v-1h-3.8v-2.5h4v-1.2H224v8.5h5.4v-1.1zm1.7 1.1h1.3v-3.7c0-1 .6-1.7 1.5-1.7 1 0 1.4.5 1.4 1.6v3.8h1.2v-4.1c0-1.5-.8-2.4-2.2-2.4-1 0-1.6.4-1.9 1.1v-1H231v6.4zm9.5.1c1 0 1.7-.4 2-1.1h.1v1h1.3v-8.9h-1.3v3.5h-.1c-.3-.7-1-1-2-1-1.6 0-2.6 1.2-2.6 3.2s1 3.3 2.6 3.3zm.4-5.5c1 0 1.7.9 1.7 2.2 0 1.4-.6 2.2-1.7 2.2-1 0-1.7-.8-1.7-2.2 0-1.4.6-2.2 1.7-2.2zM192.2 411h1.2v-6.4h-5.3v6.4h1.2v-5.4h2.9v5.4zm6.5-6.5c-.9 0-1.6.5-2 1.2h-.1v-1h-1.2v8.4h1.2v-3h.1c.4.6 1 1 2 1 1.6 0 2.6-1.3 2.6-3.3 0-2-1-3.3-2.6-3.3zm-.4 5.5c-1 0-1.7-.8-1.7-2.2 0-1.3.7-2.2 1.7-2.2s1.7.8 1.7 2.2c0 1.4-.6 2.2-1.7 2.2zm7.4 1.1c1.8 0 3-1.2 3-3.3 0-2-1.2-3.3-3-3.3-2 0-3 1.3-3 3.3 0 2 1 3.3 3 3.3zm0-1c-1.1 0-1.8-.9-1.8-2.3s.7-2.2 1.8-2.2c1 0 1.7.8 1.7 2.2 0 1.4-.7 2.3-1.7 2.3zm11 2.6V410h-1v-5.4h-1.3v5.4h-2.8v-5.4h-1.3v6.4h5.1v1.7h1.2zm5.4-3.4c-.3.5-.8.8-1.5.8-1 0-1.7-.7-1.7-1.9h4.5v-.5c0-2-1.1-3.2-2.9-3.2-1.8 0-3 1.3-3 3.3 0 2 1.2 3.3 3 3.3 1.5 0 2.5-.7 2.8-1.8H222zm-1.6-3.8c1 0 1.6.7 1.6 1.7h-3.2c0-1 .7-1.7 1.6-1.7zm9.9 1.2c-.2-1.3-1.1-2.2-2.7-2.2-1.9 0-3 1.3-3 3.3 0 2 1.1 3.3 3 3.3 1.5 0 2.5-.9 2.7-2.1h-1.2c-.2.7-.7 1-1.5 1-1 0-1.7-.8-1.7-2.2 0-1.4.6-2.2 1.7-2.2.8 0 1.3.5 1.5 1h1.2zm7 0c-.2-1.3-1.2-2.2-2.8-2.2-1.8 0-3 1.3-3 3.3 0 2 1.2 3.3 3 3.3 1.6 0 2.6-.9 2.7-2.1h-1.2c-.1.7-.7 1-1.5 1-1 0-1.7-.8-1.7-2.2 0-1.4.7-2.2 1.7-2.2.9 0 1.4.5 1.5 1h1.2zm7.3 4.3h1.2v-6.4h-1.2v6.4zm-5.8 0h2.5c1.5 0 2.4-.9 2.4-2.2 0-1.3-1-2.2-2.4-2.2h-1.2v-2h-1.3v6.4zm2.4-3.4c.8 0 1.3.5 1.3 1.2s-.5 1.2-1.3 1.2h-1.1v-2.4h1.1zM270.1 464.4c0-1.5-1.1-2.6-2.8-2.6h-1.8v-2.1h3.8v-1.2h-5.2v8.5h3.3c1.6 0 2.7-1 2.7-2.6zm-4.6 1.5v-3h1.5c1.2 0 1.8.6 1.8 1.5 0 1-.6 1.5-1.8 1.5h-1.5zm7.6 1.1l2.9-4.5v4.5h1.3v-6.4h-1.2l-3 4.5v-4.5h-1.3v6.4h1.3zm8.5.1c1.5 0 2.6-.8 2.6-2 0-.7-.5-1.2-1.3-1.4.6-.2 1-.8 1-1.4 0-1.1-.8-1.8-2.3-1.8-1.5 0-2.4.7-2.5 1.8h1.2c0-.5.6-.8 1.3-.8.7 0 1.1.4 1.1.9 0 .6-.4.9-1.2.9h-.9v1h1c.8 0 1.3.2 1.3.8 0 .6-.5 1-1.4 1-.7 0-1.2-.3-1.3-.8h-1.3c.1 1.1 1.2 1.8 2.7 1.8zm8.4-.1h1.2v-6.4H290v2.6h-3v-2.6h-1.2v6.4h1.3v-2.8h2.9v2.8zm7.4-1.7c-.3.5-.8.8-1.6.8-1 0-1.6-.7-1.7-1.9h4.5v-.5c0-2-1-3.2-2.8-3.2-1.8 0-3 1.3-3 3.3 0 2 1.2 3.3 3 3.3 1.5 0 2.5-.7 2.8-1.8h-1.3zm-1.6-3.8c1 0 1.5.7 1.6 1.7H294c.1-1 .8-1.7 1.7-1.7zm9.9 1.2c-.2-1.3-1.2-2.2-2.8-2.2-1.8 0-3 1.3-3 3.3 0 2 1.2 3.3 3 3.3 1.6 0 2.6-.9 2.8-2.1h-1.3c-.1.7-.7 1-1.5 1-1 0-1.7-.8-1.7-2.2 0-1.4.7-2.2 1.7-2.2.9 0 1.4.5 1.5 1h1.3zm5.3 1.5V463h-3.8v1.2h3.8zM278.2 483h1.3v-6.4H274v6.4h1.3v-5.4h2.8v5.4zm5-2.9l.1-2.5h2v5.4h1.3v-6.4h-4.4l-.2 3.5c0 1-.3 1.8-1 1.8h-.3v1l.5.2c1.4 0 1.8-1.2 2-3zm7.1 3c.9 0 1.6-.4 2-1v.9h1.2v-4.4c0-1.3-.9-2-2.5-2-1.4 0-2.4.6-2.6 1.7h1.3c.1-.5.6-.7 1.3-.7.8 0 1.3.3 1.3 1v.6l-1.7.1c-1.6.1-2.4.8-2.4 2 0 1 .9 1.8 2.1 1.8zm.3-1c-.6 0-1.1-.4-1.1-1 0-.5.4-.8 1.2-.9l1.6-.1v.5c0 .9-.7 1.5-1.7 1.5zm9 .9h1.3v-6.4h-1.3v2.6h-2.9v-2.6h-1.2v6.4h1.2v-2.8h3v2.8zM440 275h1.3v-8.5H440l-4.2 6.4h-.1v-6.4h-1.4v8.5h1.3l4.3-6.3h.1v6.3zm7.6 0h1.2v-6.4h-1.2v2.6h-3v-2.6h-1.2v6.4h1.3v-2.8h2.9v2.8zm6.2 0v2.1h1.2v-2c2 0 3.4-1.3 3.4-3.3 0-2-1.4-3.2-3.4-3.2v-2h-1.2v2c-2 0-3.3 1.2-3.3 3.2s1.3 3.2 3.3 3.3zm0-1c-1.3 0-2-.8-2-2.2 0-1.4.7-2.2 2-2.2v4.5zm3.3-2.2c0 1.4-.8 2.2-2 2.3v-4.5c1.2 0 2 .8 2 2.2zm5.6 3.3c1.9 0 3-1.2 3-3.3 0-2-1.2-3.3-3-3.3-1.9 0-3 1.3-3 3.3 0 2 1.1 3.3 3 3.3zm0-1c-1.1 0-1.7-.9-1.7-2.3s.6-2.2 1.7-2.2c1 0 1.7.8 1.7 2.2 0 1.4-.6 2.3-1.7 2.3zm8-5.6c-1 0-1.7.5-2 1.2h-.2v-1h-1.2v8.4h1.3v-3c.4.6 1.1 1 2 1 1.7 0 2.7-1.3 2.7-3.3 0-2-1-3.3-2.7-3.3zm-.4 5.5c-1 0-1.7-.8-1.7-2.2 0-1.3.6-2.2 1.7-2.2 1 0 1.7.8 1.7 2.2 0 1.4-.6 2.2-1.7 2.2zm5.8 1v-4.4h.2l1.8 4.2h1l1.8-4.2h.1v4.4h1.3v-6.4h-1.6l-2 4.7h-.1l-2.1-4.7h-1.6v6.4h1.2zm9.9.1c.8 0 1.5-.4 1.9-1v.9h1.3v-4.4c0-1.3-.9-2-2.5-2-1.5 0-2.5.6-2.6 1.7h1.2c.1-.5.6-.7 1.3-.7.9 0 1.3.3 1.3 1v.6l-1.7.1c-1.5.1-2.4.8-2.4 2 0 1 1 1.8 2.2 1.8zm.3-1c-.7 0-1.2-.4-1.2-1 0-.5.4-.8 1.3-.9l1.5-.1v.5c0 .9-.7 1.5-1.6 1.5zm11.1 2.6V274h-1v-5.4h-1.2v5.4h-2.8v-5.4H491v6.4h5.1v1.7h1.2zm2.5-1.7l3-4.5v4.5h1.3v-6.4H503l-3 4.5v-4.5h-1.3v6.4h1.2zm9 .1c1.8 0 3-1.2 3-3.3 0-2-1.2-3.3-3-3.3-2 0-3 1.3-3 3.3 0 2 1 3.3 3 3.3zm0-1c-1.1 0-1.8-.9-1.8-2.3s.7-2.2 1.8-2.2c1 0 1.7.8 1.7 2.2 0 1.4-.7 2.3-1.8 2.3zm8.8.9h1.2v-6.4h-1.3v2.6h-2.9v-2.6h-1.2v6.4h1.2v-2.8h3v2.8zm7.3 0h1.3v-6.4H525v2.6h-2.9v-2.6h-1.3v6.4h1.3v-2.8h3v2.8zm5 .1c.8 0 1.5-.4 1.9-1v.9h1.3v-4.4c0-1.3-.9-2-2.5-2-1.4 0-2.5.6-2.6 1.7h1.2c.2-.5.6-.7 1.3-.7.9 0 1.3.3 1.3 1v.6l-1.7.1c-1.5.1-2.4.8-2.4 2 0 1 1 1.8 2.2 1.8zm.3-1c-.7 0-1.2-.4-1.2-1 0-.5.4-.8 1.3-.9l1.5-.1v.5c0 .9-.7 1.5-1.6 1.5zm8.3.9h1.2v-6.4h-2.4c-1.5 0-2.5.9-2.5 2.2 0 .8.6 1.5 1.4 1.8l-1.7 2.4h1.5l1.5-2.2h1v2.2zm-1.2-3.2c-.7 0-1.2-.4-1.2-1 0-.7.5-1.2 1.2-1.2h1.2v2.2h-1.2zM452 291.1c.8 0 1.5-.4 2-1v.9h1.2v-4.4c0-1.3-.9-2-2.5-2-1.4 0-2.4.6-2.6 1.7h1.2c.2-.5.7-.7 1.4-.7.8 0 1.3.3 1.3 1v.6l-1.7.1c-1.6.1-2.4.8-2.4 2 0 1 .9 1.8 2.1 1.8zm.3-1c-.7 0-1.2-.4-1.2-1 0-.5.4-.8 1.3-.9l1.6-.1v.5c0 .9-.7 1.5-1.7 1.5zm8.2-5.6c-1 0-1.7.5-2 1.2h-.1v-1H457v8.4h1.3v-3h.1c.3.6 1 1 2 1 1.6 0 2.6-1.3 2.6-3.3 0-2-1-3.3-2.6-3.3zm-.4 5.5c-1 0-1.7-.8-1.7-2.2 0-1.3.6-2.2 1.7-2.2 1 0 1.7.8 1.7 2.2 0 1.4-.6 2.2-1.7 2.2zm6.8-1.3l1.4 2.3h1.4l-2.1-3.2 2-3.2h-1.3l-1.4 2.3-1.4-2.3H464l2.1 3.2-2.1 3.2h1.4l1.4-2.3zm5.5 2.3l3-4.5v4.5h1.3v-6.4h-1.3l-3 4.5v-4.5H471v6.4h1.3zm11-6.4H478v1h2v5.4h1.2v-5.4h2v-1zm5.4 4.7c-.3.5-.8.8-1.6.8-1 0-1.6-.7-1.7-1.9h4.5v-.5c0-2-1-3.2-2.8-3.2-1.8 0-3 1.3-3 3.3 0 2 1.2 3.3 3 3.3 1.5 0 2.5-.7 2.8-1.8h-1.2zm-1.6-3.8c1 0 1.5.7 1.6 1.7h-3.3c.1-1 .8-1.7 1.7-1.7zm6 2.7l2.3 2.8h1.6l-2.8-3.4 2.7-3h-1.5l-2.2 2.6h-.4v-2.6h-1.2v6.4h1.2v-2.8h.4zm9.7-3.6h-5.3v1h2v5.4h1.3v-5.4h2v-1zm2 8.7c1.4 0 2-.5 2.5-2l2.4-6.7h-1.3l-1.6 5.1h-.1l-1.6-5h-1.4l2.3 6.3v.3c-.3.7-.6 1-1.2 1a3 3 0 01-.5 0v1h.6zm9.6-8.8c-.9 0-1.6.5-2 1.2v-1h-1.3v8.4h1.3v-3c.4.6 1.1 1 2 1 1.6 0 2.7-1.3 2.7-3.3 0-2-1-3.3-2.7-3.3zm-.3 5.5c-1.1 0-1.8-.8-1.8-2.2 0-1.3.7-2.2 1.8-2.2 1 0 1.7.8 1.7 2.2 0 1.4-.7 2.2-1.7 2.2zm6.4 1.1c.8 0 1.5-.4 1.9-1v.9h1.3v-4.4c0-1.3-1-2-2.5-2s-2.5.6-2.6 1.7h1.2c.1-.5.6-.7 1.3-.7.9 0 1.3.3 1.3 1v.6l-1.7.1c-1.5.1-2.4.8-2.4 2 0 1 1 1.8 2.2 1.8zm.3-1c-.7 0-1.2-.4-1.2-1 0-.5.4-.8 1.3-.9l1.5-.1v.5c0 .9-.7 1.5-1.6 1.5zM342.6 299.5v8.5h1.3v-2.9h2c1.6 0 2.8-1.1 2.8-2.8 0-1.6-1.2-2.8-2.8-2.8h-3.3zm1.3 1.2h1.6c1.2 0 1.8.6 1.8 1.6 0 1.1-.6 1.7-1.8 1.7H344v-3.3zm10.5 5.6c-.2.5-.8.8-1.5.8-1 0-1.7-.7-1.7-1.9h4.5v-.5c0-2-1-3.2-2.9-3.2-1.8 0-2.9 1.3-2.9 3.3 0 2 1.1 3.3 3 3.3 1.4 0 2.4-.7 2.7-1.8h-1.2zm-1.6-3.8c1 0 1.6.7 1.6 1.7h-3.2c0-1 .7-1.7 1.6-1.7zm6 2.6l.3-2.5h2v5.4h1.2v-6.4H358l-.2 3.5c0 1-.3 1.8-.9 1.8h-.3v1l.4.2c1.4 0 1.9-1.2 2-3zm6.7 2.9l3-4.5v4.5h1.3v-6.4h-1.3l-2.9 4.5v-4.5h-1.3v6.4h1.2zm8.5.1c1.6 0 2.6-.8 2.6-2 0-.7-.4-1.2-1.3-1.4.7-.2 1.1-.8 1.1-1.4 0-1.1-.9-1.8-2.3-1.8-1.5 0-2.4.7-2.6 1.8h1.3c0-.5.5-.8 1.2-.8.8 0 1.2.4 1.2.9 0 .6-.4.9-1.2.9h-1v1h1c.9 0 1.4.2 1.4.8 0 .6-.5 1-1.4 1-.7 0-1.2-.3-1.4-.8h-1.2c0 1.1 1.2 1.8 2.6 1.8zm8-3v-1h-3.8v1h3.8zm3.5 0l2.3 2.9h1.6l-2.8-3.4 2.7-3h-1.5l-2.3 2.6h-.3v-2.6h-1.3v6.4h1.3v-2.8h.3zm6.8 3c.8 0 1.5-.4 2-1v.9h1.2v-4.4c0-1.3-.9-2-2.5-2-1.4 0-2.5.6-2.6 1.7h1.2c.2-.5.7-.7 1.4-.7.8 0 1.3.3 1.3 1v.6l-1.8.1c-1.5.1-2.3.8-2.3 2 0 1 .9 1.8 2 1.8zm.3-1c-.7 0-1.2-.4-1.2-1 0-.5.4-.8 1.3-.9l1.6-.1v.5c0 .9-.7 1.5-1.7 1.5zm9 .9h1.3v-6.4h-1.3v2.6h-3v-2.6h-1.2v6.4h1.3v-2.8h2.9v2.8zm3.6 1.7V308h4.7v1.7h1.2V307h-1v-5.4h-4.6l-.2 3.5c0 .8-.3 1.6-.8 1.9h-.5v2.7h1.2zm3.7-2.7h-3v-.1c.3-.4.5-1 .5-1.8l.2-2.5h2.3v4.4zm4.7 1l3-4.5v4.5h1.3v-6.4h-1.3l-2.9 4.5v-4.5h-1.3v6.4h1.2zm6.6 1.7V308h4.8v1.7h1.1V307h-1v-5.4h-4.5l-.3 3.5c0 .8-.2 1.6-.7 1.9h-.5v2.7h1.1zm3.7-2.7h-3v-.1c.4-.4.5-1 .6-1.8l.2-2.5h2.2v4.4zm5.3 1.1c.8 0 1.5-.4 2-1v.9h1.2v-4.4c0-1.3-.9-2-2.5-2-1.4 0-2.5.6-2.6 1.7h1.2c.2-.5.7-.7 1.4-.7.8 0 1.3.3 1.3 1v.6l-1.8.1c-1.5.1-2.3.8-2.3 2 0 1 .9 1.8 2 1.8zm.3-1c-.7 0-1.2-.4-1.2-1 0-.5.4-.8 1.3-.9l1.6-.1v.5c0 .9-.7 1.5-1.7 1.5zm9.6-5.5h-5.3v1h2v5.4h1.3v-5.4h2v-1zM558.8 312h1.3v-8.5h-1.3l-4.3 6.4v-6.4H553v8.5h1.3l4.3-6.3v6.3zm7.6 0h1.2v-6.4h-1.2v2.6h-3v-2.6h-1.2v6.4h1.3v-2.8h2.9v2.8zm8-6.4H569v1h2v5.4h1.3v-5.4h2v-1zm5.3 4.7c-.2.5-.7.8-1.5.8-1 0-1.7-.7-1.7-1.9h4.5v-.5c0-2-1-3.2-2.9-3.2-1.8 0-2.9 1.3-2.9 3.3 0 2 1.1 3.3 3 3.3 1.4 0 2.4-.7 2.7-1.8h-1.2zm-1.6-3.8c1 0 1.6.7 1.6 1.7h-3.2c0-1 .7-1.7 1.6-1.7zm7.8-1c-.8 0-1.6.5-2 1.2v-1h-1.3v8.4h1.3v-3c.4.6 1.1 1 2 1 1.7 0 2.7-1.3 2.7-3.3 0-2-1-3.3-2.7-3.3zm-.3 5.5c-1 0-1.7-.8-1.7-2.2 0-1.3.6-2.2 1.7-2.2 1 0 1.7.8 1.7 2.2 0 1.4-.6 2.2-1.7 2.2zm7.6 1v2.1h1.3v-2c2 0 3.3-1.3 3.3-3.3 0-2-1.3-3.2-3.3-3.2v-2h-1.3v2c-2 0-3.3 1.2-3.3 3.2s1.3 3.2 3.3 3.3zm0-1c-1.2 0-2-.8-2-2.2 0-1.4.8-2.2 2-2.2v4.5zm3.3-2.2c0 1.4-.8 2.2-2 2.3v-4.5c1.2 0 2 .8 2 2.2zm7.1 1.5c-.2.5-.7.8-1.5.8-1 0-1.7-.7-1.7-1.9h4.5v-.5c0-2-1-3.2-2.8-3.2-1.8 0-3 1.3-3 3.3 0 2 1.1 3.3 3 3.3 1.4 0 2.5-.7 2.7-1.8h-1.2zm-1.5-3.8c.9 0 1.5.7 1.5 1.7h-3.2c0-1 .7-1.7 1.7-1.7zm5.1-3.8c0 1.2.8 2 2.1 2s2-.8 2-2h-1c0 .7-.4 1.2-1 1.2s-1-.5-1-1.2h-1zm.6 9.3l2.9-4.5h.1v4.5h1.2v-6.4h-1.2l-3 4.5v-4.5h-1.3v6.4h1.3zm11.6-4.3c-.2-1.3-1.1-2.2-2.7-2.2-1.9 0-3 1.3-3 3.3 0 2 1.1 3.3 3 3.3 1.5 0 2.5-.9 2.7-2.1h-1.2c-.2.7-.7 1-1.5 1-1 0-1.7-.8-1.7-2.2 0-1.4.6-2.2 1.7-2.2.8 0 1.3.5 1.5 1h1.2z" fill="#fff"/></g><defs><clipPath id="clip0"><path fill="#fff" d="M0 0h780v780H0z"/></clipPath></defs></svg>